G04 #@! TF.GenerationSoftware,KiCad,Pcbnew,(5.1.4)-1*
G04 #@! TF.CreationDate,2020-01-28T11:40:39-05:00*
G04 #@! TF.ProjectId,PDL_1920,50444c5f-3139-4323-902e-6b696361645f,rev?*
G04 #@! TF.SameCoordinates,Original*
G04 #@! TF.FileFunction,Copper,L4,Bot*
G04 #@! TF.FilePolarity,Positive*
%FSLAX46Y46*%
G04 Gerber Fmt 4.6, Leading zero omitted, Abs format (unit mm)*
G04 Created by KiCad (PCBNEW (5.1.4)-1) date 2020-01-28 11:40:39*
%MOMM*%
%LPD*%
G04 APERTURE LIST*
%ADD10R,0.740000X2.920000*%
%ADD11O,1.700000X1.700000*%
%ADD12R,1.700000X1.700000*%
%ADD13C,0.508000*%
%ADD14C,0.254000*%
G04 APERTURE END LIST*
D10*
X140335000Y-128744200D03*
X140335000Y-125314200D03*
X141605000Y-128744200D03*
X141605000Y-125314200D03*
X142875000Y-128744200D03*
X142875000Y-125314200D03*
X144145000Y-128744200D03*
X144145000Y-125314200D03*
X145415000Y-128744200D03*
X145415000Y-125314200D03*
X146685000Y-128744200D03*
X146685000Y-125314200D03*
X147955000Y-128744200D03*
X147955000Y-125314200D03*
X149225000Y-128744200D03*
X149225000Y-125314200D03*
X150495000Y-128744200D03*
X150495000Y-125314200D03*
X151765000Y-128744200D03*
X151765000Y-125314200D03*
X153035000Y-128744200D03*
X153035000Y-125314200D03*
X154305000Y-128744200D03*
X154305000Y-125314200D03*
X155575000Y-128744200D03*
X155575000Y-125314200D03*
X156845000Y-128744200D03*
X156845000Y-125314200D03*
X158115000Y-128744200D03*
X158115000Y-125314200D03*
X159385000Y-128744200D03*
X159385000Y-125314200D03*
X160655000Y-128744200D03*
X160655000Y-125314200D03*
X161925000Y-128744200D03*
X161925000Y-125314200D03*
X163195000Y-128744200D03*
X163195000Y-125314200D03*
X164465000Y-128744200D03*
X164465000Y-125314200D03*
D11*
X118110000Y-133350000D03*
X118110000Y-130810000D03*
X118110000Y-128270000D03*
X118110000Y-125730000D03*
X118110000Y-123190000D03*
D12*
X118110000Y-120650000D03*
D13*
X176491900Y-128663700D03*
X167106600Y-122364500D03*
X170434000Y-120142000D03*
X176568100Y-119367300D03*
X144526000Y-150114000D03*
X147066000Y-152400000D03*
X151993600Y-133350000D03*
X150622000Y-131953000D03*
X163576000Y-140335000D03*
X171577000Y-139954000D03*
X171831000Y-135128000D03*
X148590000Y-96520000D03*
X180213000Y-139827000D03*
X188683900Y-133223000D03*
X177292000Y-133096000D03*
X164719000Y-135509000D03*
X159766000Y-139700000D03*
X177673000Y-150622000D03*
X159893000Y-149606000D03*
X165354000Y-159512000D03*
X156210000Y-163703000D03*
X144145000Y-158242000D03*
X131445000Y-153670000D03*
X119888000Y-138684000D03*
X142113000Y-134366000D03*
X122859800Y-127127000D03*
X126746000Y-116205000D03*
X134797800Y-103035100D03*
X151511000Y-113792000D03*
X174244000Y-103505000D03*
X170688000Y-94869000D03*
X148704300Y-93726000D03*
X160528000Y-102235000D03*
X125349000Y-107061000D03*
X135382000Y-116967000D03*
X121285000Y-120777000D03*
X137033000Y-95377000D03*
X175260000Y-110871000D03*
X138049000Y-123952000D03*
X151130000Y-161290000D03*
X155829000Y-120015000D03*
X167513000Y-93345000D03*
X158369000Y-91948000D03*
X147955000Y-100203000D03*
X148717000Y-109855000D03*
X141732000Y-109982000D03*
X153924000Y-145796000D03*
X134962900Y-140563600D03*
X128524000Y-132740400D03*
X141693900Y-150482300D03*
X137756900Y-120827800D03*
X180517800Y-137007600D03*
X180047900Y-120599200D03*
X188201300Y-120281700D03*
X183349900Y-117538500D03*
X176580800Y-116751100D03*
X182156100Y-116128800D03*
X166509700Y-97510600D03*
X163741100Y-101409500D03*
X141732000Y-102717600D03*
X143471900Y-96227900D03*
X142582900Y-90982800D03*
X139966700Y-92417900D03*
X128016000Y-128155700D03*
X127584200Y-126111000D03*
X125476000Y-135597900D03*
X124675900Y-151193500D03*
X136982200Y-160680400D03*
X147199900Y-160610000D03*
X154127200Y-159639000D03*
X165646100Y-147345400D03*
X167182800Y-139026900D03*
X171157900Y-130378200D03*
X182372000Y-109537500D03*
X129171700Y-121183400D03*
X134632700Y-132740400D03*
X129832100Y-135572500D03*
X128714500Y-143510000D03*
X145300700Y-119951500D03*
X160388300Y-112547400D03*
X164160200Y-116586000D03*
X154381200Y-100342700D03*
X155295600Y-149644100D03*
X150799800Y-143217900D03*
X143814800Y-143459200D03*
X152603200Y-154279600D03*
X168656000Y-128016000D03*
X155067002Y-97662998D03*
X168910000Y-127508000D03*
X155727410Y-99059990D03*
X165862000Y-144780004D03*
X171208705Y-128003295D03*
X165100000Y-161544000D03*
X147040590Y-135356610D03*
X154946410Y-138677590D03*
X159639000Y-135890000D03*
X176402998Y-125730004D03*
X136385300Y-102920800D03*
X158508700Y-120561100D03*
X156664502Y-109072546D03*
X143764000Y-116078000D03*
X147842041Y-137681198D03*
X139954000Y-140538232D03*
X133026150Y-122040650D03*
X167894000Y-118618000D03*
X169926000Y-118618002D03*
X177799996Y-135890000D03*
X153796994Y-141986000D03*
X127076200Y-135559800D03*
X135060679Y-122741677D03*
X154431996Y-141224000D03*
X127000000Y-143510000D03*
X152654000Y-122428000D03*
X154686000Y-122428000D03*
X135060678Y-123503678D03*
X130047995Y-127000005D03*
X138684000Y-143256000D03*
X136519753Y-149987044D03*
X137718810Y-152069800D03*
X148844000Y-116078000D03*
X149605988Y-134874000D03*
X147574000Y-116078000D03*
X147854236Y-137020899D03*
X142494004Y-118872000D03*
X151130000Y-134874000D03*
X141224000Y-116078000D03*
X147065998Y-139192000D03*
X139954000Y-116078000D03*
X147840588Y-139194513D03*
X151130000Y-141986000D03*
X143764000Y-102616000D03*
X147828000Y-141477996D03*
X142624822Y-101879410D03*
X138430000Y-107696000D03*
X147845462Y-140733430D03*
X156209991Y-135178821D03*
X152908028Y-134899372D03*
X120599179Y-128524000D03*
X153931177Y-134901122D03*
X164846000Y-111506000D03*
X168910000Y-97536000D03*
D14*
X164465000Y-126474200D02*
X163195000Y-127744200D01*
X164465000Y-126314200D02*
X164465000Y-126474200D01*
X163195000Y-127584200D02*
X161925000Y-126314200D01*
X163195000Y-127744200D02*
X163195000Y-127584200D01*
X151765000Y-126314200D02*
X151765000Y-127744200D01*
X150495000Y-126314200D02*
X150495000Y-127744200D01*
X150495000Y-126474200D02*
X151765000Y-127744200D01*
X150495000Y-126314200D02*
X150495000Y-126474200D01*
X147955000Y-126314200D02*
X147955000Y-127744200D01*
X145415000Y-126314200D02*
X145415000Y-127744200D01*
X141605000Y-126474200D02*
X142875000Y-127744200D01*
X141605000Y-126474200D02*
X140335000Y-127744200D01*
X141605000Y-126314200D02*
X141605000Y-126474200D01*
G36*
X155053169Y-89669787D02*
G01*
X157456648Y-89918813D01*
X159839047Y-90322423D01*
X162190426Y-90878930D01*
X164500981Y-91586015D01*
X166761110Y-92440737D01*
X168961372Y-93439530D01*
X171092581Y-94578224D01*
X173145879Y-95852083D01*
X175112682Y-97255788D01*
X176984802Y-98783486D01*
X178754431Y-100428811D01*
X180414195Y-102184902D01*
X181957189Y-104044463D01*
X183376949Y-105999696D01*
X184667581Y-108042485D01*
X185823697Y-110164305D01*
X186840473Y-112356300D01*
X187713680Y-114609353D01*
X188439666Y-116914037D01*
X189015417Y-119260794D01*
X189370978Y-121260000D01*
X177832419Y-121260000D01*
X177800000Y-121256807D01*
X177767581Y-121260000D01*
X177670617Y-121269550D01*
X177546207Y-121307290D01*
X177431550Y-121368575D01*
X177331052Y-121451052D01*
X177248575Y-121551550D01*
X177187290Y-121666207D01*
X177149550Y-121790617D01*
X177136807Y-121920000D01*
X177140000Y-121952419D01*
X177140000Y-125232849D01*
X177093529Y-125163300D01*
X176969702Y-125039473D01*
X176824097Y-124942183D01*
X176662310Y-124875168D01*
X176490557Y-124841004D01*
X176315439Y-124841004D01*
X176143686Y-124875168D01*
X175981899Y-124942183D01*
X175836294Y-125039473D01*
X175712467Y-125163300D01*
X175615177Y-125308905D01*
X175548162Y-125470692D01*
X175513998Y-125642445D01*
X175513998Y-125817563D01*
X175548162Y-125989316D01*
X175615177Y-126151103D01*
X175712467Y-126296708D01*
X175836294Y-126420535D01*
X175981899Y-126517825D01*
X176143686Y-126584840D01*
X176315439Y-126619004D01*
X176490557Y-126619004D01*
X176662310Y-126584840D01*
X176824097Y-126517825D01*
X176969702Y-126420535D01*
X177093529Y-126296708D01*
X177140000Y-126227158D01*
X177140001Y-132047571D01*
X177136807Y-132080000D01*
X177149550Y-132209383D01*
X177187290Y-132333793D01*
X177248575Y-132448450D01*
X177331052Y-132548948D01*
X177431550Y-132631425D01*
X177546207Y-132692710D01*
X177670617Y-132730450D01*
X177767581Y-132740000D01*
X177800000Y-132743193D01*
X177832419Y-132740000D01*
X189364565Y-132740000D01*
X189090508Y-134375008D01*
X188538103Y-136727362D01*
X187835045Y-139039174D01*
X186984275Y-141300771D01*
X185989328Y-143502763D01*
X184854358Y-145635953D01*
X183584084Y-147691473D01*
X182183813Y-149660729D01*
X180659387Y-151535508D01*
X179017145Y-153308016D01*
X177263944Y-154970849D01*
X175407095Y-156517075D01*
X173454326Y-157940257D01*
X171413804Y-159234445D01*
X169294022Y-160394253D01*
X167103780Y-161414866D01*
X165925619Y-161873848D01*
X165954836Y-161803312D01*
X165989000Y-161631559D01*
X165989000Y-161456441D01*
X165954836Y-161284688D01*
X165887821Y-161122901D01*
X165790531Y-160977296D01*
X165666704Y-160853469D01*
X165521099Y-160756179D01*
X165359312Y-160689164D01*
X165187559Y-160655000D01*
X165012441Y-160655000D01*
X164840688Y-160689164D01*
X164678901Y-160756179D01*
X164533296Y-160853469D01*
X164409469Y-160977296D01*
X164312179Y-161122901D01*
X164245164Y-161284688D01*
X164211000Y-161456441D01*
X164211000Y-161631559D01*
X164245164Y-161803312D01*
X164312179Y-161965099D01*
X164409469Y-162110704D01*
X164533296Y-162234531D01*
X164678901Y-162331821D01*
X164699583Y-162340388D01*
X162548839Y-163022010D01*
X160203103Y-163601855D01*
X157824836Y-164029115D01*
X155423968Y-164302007D01*
X153010466Y-164419399D01*
X150594434Y-164380798D01*
X148185920Y-164186365D01*
X145795005Y-163836913D01*
X143431584Y-163333891D01*
X141105566Y-162679405D01*
X138826644Y-161876183D01*
X136604290Y-160927565D01*
X134447791Y-159837514D01*
X132366132Y-158610572D01*
X130367988Y-157251852D01*
X128461676Y-155767009D01*
X126655181Y-154162261D01*
X124956000Y-152444273D01*
X124554580Y-151982241D01*
X136829810Y-151982241D01*
X136829810Y-152157359D01*
X136863974Y-152329112D01*
X136930989Y-152490899D01*
X137028279Y-152636504D01*
X137152106Y-152760331D01*
X137297711Y-152857621D01*
X137459498Y-152924636D01*
X137631251Y-152958800D01*
X137806369Y-152958800D01*
X137978122Y-152924636D01*
X138139909Y-152857621D01*
X138285514Y-152760331D01*
X138409341Y-152636504D01*
X138506631Y-152490899D01*
X138573646Y-152329112D01*
X138607810Y-152157359D01*
X138607810Y-151982241D01*
X138573646Y-151810488D01*
X138506631Y-151648701D01*
X138409341Y-151503096D01*
X138285514Y-151379269D01*
X138139909Y-151281979D01*
X137978122Y-151214964D01*
X137806369Y-151180800D01*
X137631251Y-151180800D01*
X137459498Y-151214964D01*
X137297711Y-151281979D01*
X137152106Y-151379269D01*
X137028279Y-151503096D01*
X136930989Y-151648701D01*
X136863974Y-151810488D01*
X136829810Y-151982241D01*
X124554580Y-151982241D01*
X123371228Y-150620214D01*
X122822485Y-149899485D01*
X135630753Y-149899485D01*
X135630753Y-150074603D01*
X135664917Y-150246356D01*
X135731932Y-150408143D01*
X135829222Y-150553748D01*
X135953049Y-150677575D01*
X136098654Y-150774865D01*
X136260441Y-150841880D01*
X136432194Y-150876044D01*
X136607312Y-150876044D01*
X136779065Y-150841880D01*
X136940852Y-150774865D01*
X137086457Y-150677575D01*
X137210284Y-150553748D01*
X137307574Y-150408143D01*
X137374589Y-150246356D01*
X137408753Y-150074603D01*
X137408753Y-149899485D01*
X137374589Y-149727732D01*
X137307574Y-149565945D01*
X137210284Y-149420340D01*
X137086457Y-149296513D01*
X136940852Y-149199223D01*
X136779065Y-149132208D01*
X136607312Y-149098044D01*
X136432194Y-149098044D01*
X136260441Y-149132208D01*
X136098654Y-149199223D01*
X135953049Y-149296513D01*
X135829222Y-149420340D01*
X135731932Y-149565945D01*
X135664917Y-149727732D01*
X135630753Y-149899485D01*
X122822485Y-149899485D01*
X121907462Y-148697678D01*
X120570819Y-146684700D01*
X119366868Y-144589665D01*
X119354234Y-144563970D01*
X132426613Y-144563970D01*
X132426613Y-144996030D01*
X132510904Y-145419787D01*
X132676246Y-145818958D01*
X132916285Y-146178203D01*
X133221797Y-146483715D01*
X133581042Y-146723754D01*
X133980213Y-146889096D01*
X134403970Y-146973387D01*
X134836030Y-146973387D01*
X135259787Y-146889096D01*
X135658958Y-146723754D01*
X136018203Y-146483715D01*
X136323715Y-146178203D01*
X136563754Y-145818958D01*
X136729096Y-145419787D01*
X136813387Y-144996030D01*
X136813387Y-144692445D01*
X164973000Y-144692445D01*
X164973000Y-144867563D01*
X165007164Y-145039316D01*
X165074179Y-145201103D01*
X165171469Y-145346708D01*
X165295296Y-145470535D01*
X165440901Y-145567825D01*
X165602688Y-145634840D01*
X165774441Y-145669004D01*
X165949559Y-145669004D01*
X166121312Y-145634840D01*
X166283099Y-145567825D01*
X166428704Y-145470535D01*
X166552531Y-145346708D01*
X166649821Y-145201103D01*
X166716836Y-145039316D01*
X166751000Y-144867563D01*
X166751000Y-144692445D01*
X166725445Y-144563970D01*
X167986613Y-144563970D01*
X167986613Y-144996030D01*
X168070904Y-145419787D01*
X168236246Y-145818958D01*
X168476285Y-146178203D01*
X168781797Y-146483715D01*
X169141042Y-146723754D01*
X169540213Y-146889096D01*
X169963970Y-146973387D01*
X170396030Y-146973387D01*
X170819787Y-146889096D01*
X171218958Y-146723754D01*
X171578203Y-146483715D01*
X171883715Y-146178203D01*
X172123754Y-145818958D01*
X172289096Y-145419787D01*
X172373387Y-144996030D01*
X172373387Y-144563970D01*
X172289096Y-144140213D01*
X172123754Y-143741042D01*
X171883715Y-143381797D01*
X171578203Y-143076285D01*
X171218958Y-142836246D01*
X170819787Y-142670904D01*
X170396030Y-142586613D01*
X169963970Y-142586613D01*
X169540213Y-142670904D01*
X169141042Y-142836246D01*
X168781797Y-143076285D01*
X168476285Y-143381797D01*
X168236246Y-143741042D01*
X168070904Y-144140213D01*
X167986613Y-144563970D01*
X166725445Y-144563970D01*
X166716836Y-144520692D01*
X166649821Y-144358905D01*
X166552531Y-144213300D01*
X166428704Y-144089473D01*
X166283099Y-143992183D01*
X166121312Y-143925168D01*
X165949559Y-143891004D01*
X165774441Y-143891004D01*
X165602688Y-143925168D01*
X165440901Y-143992183D01*
X165295296Y-144089473D01*
X165171469Y-144213300D01*
X165074179Y-144358905D01*
X165007164Y-144520692D01*
X164973000Y-144692445D01*
X136813387Y-144692445D01*
X136813387Y-144563970D01*
X136729096Y-144140213D01*
X136563754Y-143741042D01*
X136323715Y-143381797D01*
X136110359Y-143168441D01*
X137795000Y-143168441D01*
X137795000Y-143343559D01*
X137829164Y-143515312D01*
X137896179Y-143677099D01*
X137993469Y-143822704D01*
X138117296Y-143946531D01*
X138262901Y-144043821D01*
X138424688Y-144110836D01*
X138596441Y-144145000D01*
X138771559Y-144145000D01*
X138943312Y-144110836D01*
X139105099Y-144043821D01*
X139250704Y-143946531D01*
X139374531Y-143822704D01*
X139471821Y-143677099D01*
X139538836Y-143515312D01*
X139573000Y-143343559D01*
X139573000Y-143168441D01*
X139538836Y-142996688D01*
X139471821Y-142834901D01*
X139374531Y-142689296D01*
X139250704Y-142565469D01*
X139105099Y-142468179D01*
X138943312Y-142401164D01*
X138771559Y-142367000D01*
X138596441Y-142367000D01*
X138424688Y-142401164D01*
X138262901Y-142468179D01*
X138117296Y-142565469D01*
X137993469Y-142689296D01*
X137896179Y-142834901D01*
X137829164Y-142996688D01*
X137795000Y-143168441D01*
X136110359Y-143168441D01*
X136018203Y-143076285D01*
X135658958Y-142836246D01*
X135259787Y-142670904D01*
X134836030Y-142586613D01*
X134403970Y-142586613D01*
X133980213Y-142670904D01*
X133581042Y-142836246D01*
X133221797Y-143076285D01*
X132916285Y-143381797D01*
X132676246Y-143741042D01*
X132510904Y-144140213D01*
X132426613Y-144563970D01*
X119354234Y-144563970D01*
X118792912Y-143422441D01*
X126111000Y-143422441D01*
X126111000Y-143597559D01*
X126145164Y-143769312D01*
X126212179Y-143931099D01*
X126309469Y-144076704D01*
X126433296Y-144200531D01*
X126578901Y-144297821D01*
X126740688Y-144364836D01*
X126912441Y-144399000D01*
X127087559Y-144399000D01*
X127259312Y-144364836D01*
X127421099Y-144297821D01*
X127566704Y-144200531D01*
X127690531Y-144076704D01*
X127787821Y-143931099D01*
X127854836Y-143769312D01*
X127889000Y-143597559D01*
X127889000Y-143422441D01*
X127854836Y-143250688D01*
X127787821Y-143088901D01*
X127690531Y-142943296D01*
X127566704Y-142819469D01*
X127421099Y-142722179D01*
X127259312Y-142655164D01*
X127087559Y-142621000D01*
X126912441Y-142621000D01*
X126740688Y-142655164D01*
X126578901Y-142722179D01*
X126433296Y-142819469D01*
X126309469Y-142943296D01*
X126212179Y-143088901D01*
X126145164Y-143250688D01*
X126111000Y-143422441D01*
X118792912Y-143422441D01*
X118300618Y-142421291D01*
X117484979Y-140450673D01*
X139065000Y-140450673D01*
X139065000Y-140625791D01*
X139099164Y-140797544D01*
X139166179Y-140959331D01*
X139263469Y-141104936D01*
X139387296Y-141228763D01*
X139532901Y-141326053D01*
X139694688Y-141393068D01*
X139866441Y-141427232D01*
X140041559Y-141427232D01*
X140213312Y-141393068D01*
X140375099Y-141326053D01*
X140520704Y-141228763D01*
X140644531Y-141104936D01*
X140741821Y-140959331D01*
X140808836Y-140797544D01*
X140843000Y-140625791D01*
X140843000Y-140450673D01*
X140808836Y-140278920D01*
X140741821Y-140117133D01*
X140644531Y-139971528D01*
X140520704Y-139847701D01*
X140375099Y-139750411D01*
X140213312Y-139683396D01*
X140041559Y-139649232D01*
X139866441Y-139649232D01*
X139694688Y-139683396D01*
X139532901Y-139750411D01*
X139387296Y-139847701D01*
X139263469Y-139971528D01*
X139166179Y-140117133D01*
X139099164Y-140278920D01*
X139065000Y-140450673D01*
X117484979Y-140450673D01*
X117376526Y-140188647D01*
X117007757Y-139104441D01*
X146176998Y-139104441D01*
X146176998Y-139279559D01*
X146211162Y-139451312D01*
X146278177Y-139613099D01*
X146375467Y-139758704D01*
X146499294Y-139882531D01*
X146644899Y-139979821D01*
X146806686Y-140046836D01*
X146978439Y-140081000D01*
X147153557Y-140081000D01*
X147262284Y-140059373D01*
X147154931Y-140166726D01*
X147057641Y-140312331D01*
X146990626Y-140474118D01*
X146956462Y-140645871D01*
X146956462Y-140820989D01*
X146990626Y-140992742D01*
X147028690Y-141084635D01*
X146973164Y-141218684D01*
X146939000Y-141390437D01*
X146939000Y-141565555D01*
X146973164Y-141737308D01*
X147040179Y-141899095D01*
X147137469Y-142044700D01*
X147261296Y-142168527D01*
X147406901Y-142265817D01*
X147568688Y-142332832D01*
X147740441Y-142366996D01*
X147915559Y-142366996D01*
X148087312Y-142332832D01*
X148249099Y-142265817D01*
X148394704Y-142168527D01*
X148518531Y-142044700D01*
X148615821Y-141899095D01*
X148616091Y-141898441D01*
X150241000Y-141898441D01*
X150241000Y-142073559D01*
X150275164Y-142245312D01*
X150342179Y-142407099D01*
X150439469Y-142552704D01*
X150563296Y-142676531D01*
X150708901Y-142773821D01*
X150870688Y-142840836D01*
X151042441Y-142875000D01*
X151217559Y-142875000D01*
X151389312Y-142840836D01*
X151551099Y-142773821D01*
X151696704Y-142676531D01*
X151820531Y-142552704D01*
X151917821Y-142407099D01*
X151984836Y-142245312D01*
X152019000Y-142073559D01*
X152019000Y-141898441D01*
X152907994Y-141898441D01*
X152907994Y-142073559D01*
X152942158Y-142245312D01*
X153009173Y-142407099D01*
X153106463Y-142552704D01*
X153230290Y-142676531D01*
X153375895Y-142773821D01*
X153537682Y-142840836D01*
X153709435Y-142875000D01*
X153884553Y-142875000D01*
X154056306Y-142840836D01*
X154218093Y-142773821D01*
X154363698Y-142676531D01*
X154487525Y-142552704D01*
X154584815Y-142407099D01*
X154651830Y-142245312D01*
X154684682Y-142080154D01*
X154691308Y-142078836D01*
X154853095Y-142011821D01*
X154998700Y-141914531D01*
X155122527Y-141790704D01*
X155219817Y-141645099D01*
X155286832Y-141483312D01*
X155320996Y-141311559D01*
X155320996Y-141136441D01*
X155286832Y-140964688D01*
X155219817Y-140802901D01*
X155122527Y-140657296D01*
X154998700Y-140533469D01*
X154853095Y-140436179D01*
X154691308Y-140369164D01*
X154519555Y-140335000D01*
X154344437Y-140335000D01*
X154172684Y-140369164D01*
X154010897Y-140436179D01*
X153865292Y-140533469D01*
X153741465Y-140657296D01*
X153644175Y-140802901D01*
X153577160Y-140964688D01*
X153544308Y-141129846D01*
X153537682Y-141131164D01*
X153375895Y-141198179D01*
X153230290Y-141295469D01*
X153106463Y-141419296D01*
X153009173Y-141564901D01*
X152942158Y-141726688D01*
X152907994Y-141898441D01*
X152019000Y-141898441D01*
X151984836Y-141726688D01*
X151917821Y-141564901D01*
X151820531Y-141419296D01*
X151696704Y-141295469D01*
X151551099Y-141198179D01*
X151389312Y-141131164D01*
X151217559Y-141097000D01*
X151042441Y-141097000D01*
X150870688Y-141131164D01*
X150708901Y-141198179D01*
X150563296Y-141295469D01*
X150439469Y-141419296D01*
X150342179Y-141564901D01*
X150275164Y-141726688D01*
X150241000Y-141898441D01*
X148616091Y-141898441D01*
X148682836Y-141737308D01*
X148717000Y-141565555D01*
X148717000Y-141390437D01*
X148682836Y-141218684D01*
X148644772Y-141126791D01*
X148700298Y-140992742D01*
X148734462Y-140820989D01*
X148734462Y-140645871D01*
X148700298Y-140474118D01*
X148633283Y-140312331D01*
X148535993Y-140166726D01*
X148412166Y-140042899D01*
X148291605Y-139962343D01*
X148407292Y-139885044D01*
X148531119Y-139761217D01*
X148628409Y-139615612D01*
X148695424Y-139453825D01*
X148729588Y-139282072D01*
X148729588Y-139106954D01*
X148695424Y-138935201D01*
X148628409Y-138773414D01*
X148531119Y-138627809D01*
X148493341Y-138590031D01*
X154057410Y-138590031D01*
X154057410Y-138765149D01*
X154091574Y-138936902D01*
X154158589Y-139098689D01*
X154255879Y-139244294D01*
X154379706Y-139368121D01*
X154525311Y-139465411D01*
X154687098Y-139532426D01*
X154858851Y-139566590D01*
X155033969Y-139566590D01*
X155205722Y-139532426D01*
X155367509Y-139465411D01*
X155513114Y-139368121D01*
X155636941Y-139244294D01*
X155734231Y-139098689D01*
X155801246Y-138936902D01*
X155835410Y-138765149D01*
X155835410Y-138590031D01*
X155801246Y-138418278D01*
X155734231Y-138256491D01*
X155636941Y-138110886D01*
X155513114Y-137987059D01*
X155367509Y-137889769D01*
X155205722Y-137822754D01*
X155033969Y-137788590D01*
X154858851Y-137788590D01*
X154687098Y-137822754D01*
X154525311Y-137889769D01*
X154379706Y-137987059D01*
X154255879Y-138110886D01*
X154158589Y-138256491D01*
X154091574Y-138418278D01*
X154057410Y-138590031D01*
X148493341Y-138590031D01*
X148407292Y-138503982D01*
X148309053Y-138438341D01*
X148408745Y-138371729D01*
X148532572Y-138247902D01*
X148629862Y-138102297D01*
X148696877Y-137940510D01*
X148731041Y-137768757D01*
X148731041Y-137593639D01*
X148696877Y-137421886D01*
X148673632Y-137365769D01*
X148709072Y-137280211D01*
X148743236Y-137108458D01*
X148743236Y-136933340D01*
X148709072Y-136761587D01*
X148642057Y-136599800D01*
X148544767Y-136454195D01*
X148420940Y-136330368D01*
X148275335Y-136233078D01*
X148113548Y-136166063D01*
X147941795Y-136131899D01*
X147766677Y-136131899D01*
X147594924Y-136166063D01*
X147433137Y-136233078D01*
X147287532Y-136330368D01*
X147163705Y-136454195D01*
X147066415Y-136599800D01*
X146999400Y-136761587D01*
X146965236Y-136933340D01*
X146965236Y-137108458D01*
X146999400Y-137280211D01*
X147022645Y-137336328D01*
X146987205Y-137421886D01*
X146953041Y-137593639D01*
X146953041Y-137768757D01*
X146987205Y-137940510D01*
X147054220Y-138102297D01*
X147151510Y-138247902D01*
X147219781Y-138316173D01*
X147153557Y-138303000D01*
X146978439Y-138303000D01*
X146806686Y-138337164D01*
X146644899Y-138404179D01*
X146499294Y-138501469D01*
X146375467Y-138625296D01*
X146278177Y-138770901D01*
X146211162Y-138932688D01*
X146176998Y-139104441D01*
X117007757Y-139104441D01*
X116598434Y-137901009D01*
X115969591Y-135567928D01*
X115950324Y-135472241D01*
X126187200Y-135472241D01*
X126187200Y-135647359D01*
X126221364Y-135819112D01*
X126288379Y-135980899D01*
X126385669Y-136126504D01*
X126509496Y-136250331D01*
X126655101Y-136347621D01*
X126816888Y-136414636D01*
X126988641Y-136448800D01*
X127163759Y-136448800D01*
X127335512Y-136414636D01*
X127497299Y-136347621D01*
X127642904Y-136250331D01*
X127766731Y-136126504D01*
X127864021Y-135980899D01*
X127931036Y-135819112D01*
X127965200Y-135647359D01*
X127965200Y-135472241D01*
X127931036Y-135300488D01*
X127918015Y-135269051D01*
X146151590Y-135269051D01*
X146151590Y-135444169D01*
X146185754Y-135615922D01*
X146252769Y-135777709D01*
X146350059Y-135923314D01*
X146473886Y-136047141D01*
X146619491Y-136144431D01*
X146781278Y-136211446D01*
X146953031Y-136245610D01*
X147128149Y-136245610D01*
X147299902Y-136211446D01*
X147461689Y-136144431D01*
X147607294Y-136047141D01*
X147731121Y-135923314D01*
X147828411Y-135777709D01*
X147895426Y-135615922D01*
X147929590Y-135444169D01*
X147929590Y-135269051D01*
X147895426Y-135097298D01*
X147828411Y-134935511D01*
X147731121Y-134789906D01*
X147727656Y-134786441D01*
X148716988Y-134786441D01*
X148716988Y-134961559D01*
X148751152Y-135133312D01*
X148818167Y-135295099D01*
X148915457Y-135440704D01*
X149039284Y-135564531D01*
X149184889Y-135661821D01*
X149346676Y-135728836D01*
X149518429Y-135763000D01*
X149693547Y-135763000D01*
X149865300Y-135728836D01*
X150027087Y-135661821D01*
X150172692Y-135564531D01*
X150296519Y-135440704D01*
X150367994Y-135333734D01*
X150439469Y-135440704D01*
X150563296Y-135564531D01*
X150708901Y-135661821D01*
X150870688Y-135728836D01*
X151042441Y-135763000D01*
X151217559Y-135763000D01*
X151389312Y-135728836D01*
X151551099Y-135661821D01*
X151696704Y-135564531D01*
X151820531Y-135440704D01*
X151917821Y-135295099D01*
X151984836Y-135133312D01*
X152019000Y-134961559D01*
X152019000Y-134811813D01*
X152019028Y-134811813D01*
X152019028Y-134986931D01*
X152053192Y-135158684D01*
X152120207Y-135320471D01*
X152217497Y-135466076D01*
X152341324Y-135589903D01*
X152486929Y-135687193D01*
X152648716Y-135754208D01*
X152820469Y-135788372D01*
X152995587Y-135788372D01*
X153167340Y-135754208D01*
X153329127Y-135687193D01*
X153418293Y-135627614D01*
X153510078Y-135688943D01*
X153671865Y-135755958D01*
X153843618Y-135790122D01*
X154018736Y-135790122D01*
X154190489Y-135755958D01*
X154352276Y-135688943D01*
X154497881Y-135591653D01*
X154621708Y-135467826D01*
X154718998Y-135322221D01*
X154786013Y-135160434D01*
X154799772Y-135091262D01*
X155320991Y-135091262D01*
X155320991Y-135266380D01*
X155355155Y-135438133D01*
X155422170Y-135599920D01*
X155519460Y-135745525D01*
X155643287Y-135869352D01*
X155788892Y-135966642D01*
X155950679Y-136033657D01*
X156122432Y-136067821D01*
X156297550Y-136067821D01*
X156469303Y-136033657D01*
X156631090Y-135966642D01*
X156776695Y-135869352D01*
X156843606Y-135802441D01*
X158750000Y-135802441D01*
X158750000Y-135977559D01*
X158784164Y-136149312D01*
X158851179Y-136311099D01*
X158948469Y-136456704D01*
X159072296Y-136580531D01*
X159217901Y-136677821D01*
X159379688Y-136744836D01*
X159551441Y-136779000D01*
X159726559Y-136779000D01*
X159898312Y-136744836D01*
X160060099Y-136677821D01*
X160205704Y-136580531D01*
X160329531Y-136456704D01*
X160426821Y-136311099D01*
X160493836Y-136149312D01*
X160528000Y-135977559D01*
X160528000Y-135802441D01*
X176910996Y-135802441D01*
X176910996Y-135977559D01*
X176945160Y-136149312D01*
X177012175Y-136311099D01*
X177109465Y-136456704D01*
X177233292Y-136580531D01*
X177378897Y-136677821D01*
X177540684Y-136744836D01*
X177712437Y-136779000D01*
X177887555Y-136779000D01*
X178059308Y-136744836D01*
X178221095Y-136677821D01*
X178366700Y-136580531D01*
X178490527Y-136456704D01*
X178587817Y-136311099D01*
X178654832Y-136149312D01*
X178688996Y-135977559D01*
X178688996Y-135802441D01*
X178654832Y-135630688D01*
X178587817Y-135468901D01*
X178490527Y-135323296D01*
X178366700Y-135199469D01*
X178221095Y-135102179D01*
X178059308Y-135035164D01*
X177887555Y-135001000D01*
X177712437Y-135001000D01*
X177540684Y-135035164D01*
X177378897Y-135102179D01*
X177233292Y-135199469D01*
X177109465Y-135323296D01*
X177012175Y-135468901D01*
X176945160Y-135630688D01*
X176910996Y-135802441D01*
X160528000Y-135802441D01*
X160493836Y-135630688D01*
X160426821Y-135468901D01*
X160329531Y-135323296D01*
X160205704Y-135199469D01*
X160060099Y-135102179D01*
X159898312Y-135035164D01*
X159726559Y-135001000D01*
X159551441Y-135001000D01*
X159379688Y-135035164D01*
X159217901Y-135102179D01*
X159072296Y-135199469D01*
X158948469Y-135323296D01*
X158851179Y-135468901D01*
X158784164Y-135630688D01*
X158750000Y-135802441D01*
X156843606Y-135802441D01*
X156900522Y-135745525D01*
X156997812Y-135599920D01*
X157064827Y-135438133D01*
X157098991Y-135266380D01*
X157098991Y-135091262D01*
X157064827Y-134919509D01*
X156997812Y-134757722D01*
X156900522Y-134612117D01*
X156776695Y-134488290D01*
X156631090Y-134391000D01*
X156469303Y-134323985D01*
X156297550Y-134289821D01*
X156122432Y-134289821D01*
X155950679Y-134323985D01*
X155788892Y-134391000D01*
X155643287Y-134488290D01*
X155519460Y-134612117D01*
X155422170Y-134757722D01*
X155355155Y-134919509D01*
X155320991Y-135091262D01*
X154799772Y-135091262D01*
X154820177Y-134988681D01*
X154820177Y-134813563D01*
X154786013Y-134641810D01*
X154718998Y-134480023D01*
X154621708Y-134334418D01*
X154497881Y-134210591D01*
X154352276Y-134113301D01*
X154190489Y-134046286D01*
X154018736Y-134012122D01*
X153843618Y-134012122D01*
X153671865Y-134046286D01*
X153510078Y-134113301D01*
X153420912Y-134172880D01*
X153329127Y-134111551D01*
X153167340Y-134044536D01*
X152995587Y-134010372D01*
X152820469Y-134010372D01*
X152648716Y-134044536D01*
X152486929Y-134111551D01*
X152341324Y-134208841D01*
X152217497Y-134332668D01*
X152120207Y-134478273D01*
X152053192Y-134640060D01*
X152019028Y-134811813D01*
X152019000Y-134811813D01*
X152019000Y-134786441D01*
X151984836Y-134614688D01*
X151917821Y-134452901D01*
X151820531Y-134307296D01*
X151696704Y-134183469D01*
X151551099Y-134086179D01*
X151389312Y-134019164D01*
X151217559Y-133985000D01*
X151042441Y-133985000D01*
X150870688Y-134019164D01*
X150708901Y-134086179D01*
X150563296Y-134183469D01*
X150439469Y-134307296D01*
X150367994Y-134414266D01*
X150296519Y-134307296D01*
X150172692Y-134183469D01*
X150027087Y-134086179D01*
X149865300Y-134019164D01*
X149693547Y-133985000D01*
X149518429Y-133985000D01*
X149346676Y-134019164D01*
X149184889Y-134086179D01*
X149039284Y-134183469D01*
X148915457Y-134307296D01*
X148818167Y-134452901D01*
X148751152Y-134614688D01*
X148716988Y-134786441D01*
X147727656Y-134786441D01*
X147607294Y-134666079D01*
X147461689Y-134568789D01*
X147299902Y-134501774D01*
X147128149Y-134467610D01*
X146953031Y-134467610D01*
X146781278Y-134501774D01*
X146619491Y-134568789D01*
X146473886Y-134666079D01*
X146350059Y-134789906D01*
X146252769Y-134935511D01*
X146185754Y-135097298D01*
X146151590Y-135269051D01*
X127918015Y-135269051D01*
X127864021Y-135138701D01*
X127766731Y-134993096D01*
X127642904Y-134869269D01*
X127497299Y-134771979D01*
X127335512Y-134704964D01*
X127163759Y-134670800D01*
X126988641Y-134670800D01*
X126816888Y-134704964D01*
X126655101Y-134771979D01*
X126509496Y-134869269D01*
X126385669Y-134993096D01*
X126288379Y-135138701D01*
X126221364Y-135300488D01*
X126187200Y-135472241D01*
X115950324Y-135472241D01*
X115492617Y-133199131D01*
X115169502Y-130804486D01*
X115001592Y-128393982D01*
X114989587Y-125977677D01*
X115133538Y-123565618D01*
X115180426Y-123190000D01*
X116617815Y-123190000D01*
X116646487Y-123481111D01*
X116731401Y-123761034D01*
X116869294Y-124019014D01*
X117054866Y-124245134D01*
X117280986Y-124430706D01*
X117335791Y-124460000D01*
X117280986Y-124489294D01*
X117054866Y-124674866D01*
X116869294Y-124900986D01*
X116731401Y-125158966D01*
X116646487Y-125438889D01*
X116617815Y-125730000D01*
X116646487Y-126021111D01*
X116731401Y-126301034D01*
X116869294Y-126559014D01*
X117054866Y-126785134D01*
X117280986Y-126970706D01*
X117335791Y-127000000D01*
X117280986Y-127029294D01*
X117054866Y-127214866D01*
X116869294Y-127440986D01*
X116731401Y-127698966D01*
X116646487Y-127978889D01*
X116617815Y-128270000D01*
X116646487Y-128561111D01*
X116731401Y-128841034D01*
X116869294Y-129099014D01*
X117054866Y-129325134D01*
X117280986Y-129510706D01*
X117335791Y-129540000D01*
X117280986Y-129569294D01*
X117054866Y-129754866D01*
X116869294Y-129980986D01*
X116731401Y-130238966D01*
X116646487Y-130518889D01*
X116617815Y-130810000D01*
X116646487Y-131101111D01*
X116731401Y-131381034D01*
X116869294Y-131639014D01*
X117054866Y-131865134D01*
X117280986Y-132050706D01*
X117335791Y-132080000D01*
X117280986Y-132109294D01*
X117054866Y-132294866D01*
X116869294Y-132520986D01*
X116731401Y-132778966D01*
X116646487Y-133058889D01*
X116617815Y-133350000D01*
X116646487Y-133641111D01*
X116731401Y-133921034D01*
X116869294Y-134179014D01*
X117054866Y-134405134D01*
X117280986Y-134590706D01*
X117538966Y-134728599D01*
X117818889Y-134813513D01*
X118037050Y-134835000D01*
X118182950Y-134835000D01*
X118401111Y-134813513D01*
X118681034Y-134728599D01*
X118939014Y-134590706D01*
X119165134Y-134405134D01*
X119350706Y-134179014D01*
X119488599Y-133921034D01*
X119573513Y-133641111D01*
X119602185Y-133350000D01*
X119573513Y-133058889D01*
X119488599Y-132778966D01*
X119350706Y-132520986D01*
X119165134Y-132294866D01*
X118939014Y-132109294D01*
X118884209Y-132080000D01*
X118939014Y-132050706D01*
X119165134Y-131865134D01*
X119350706Y-131639014D01*
X119488599Y-131381034D01*
X119573513Y-131101111D01*
X119602185Y-130810000D01*
X119573513Y-130518889D01*
X119488599Y-130238966D01*
X119470017Y-130204200D01*
X139326928Y-130204200D01*
X139339188Y-130328682D01*
X139375498Y-130448380D01*
X139434463Y-130558694D01*
X139513815Y-130655385D01*
X139610506Y-130734737D01*
X139720820Y-130793702D01*
X139840518Y-130830012D01*
X139965000Y-130842272D01*
X140049250Y-130839200D01*
X140208000Y-130680450D01*
X140208000Y-128871200D01*
X139488750Y-128871200D01*
X139330000Y-129029950D01*
X139326928Y-130204200D01*
X119470017Y-130204200D01*
X119350706Y-129980986D01*
X119165134Y-129754866D01*
X118939014Y-129569294D01*
X118884209Y-129540000D01*
X118939014Y-129510706D01*
X119165134Y-129325134D01*
X119350706Y-129099014D01*
X119488599Y-128841034D01*
X119573513Y-128561111D01*
X119585791Y-128436441D01*
X119710179Y-128436441D01*
X119710179Y-128611559D01*
X119744343Y-128783312D01*
X119811358Y-128945099D01*
X119908648Y-129090704D01*
X120032475Y-129214531D01*
X120178080Y-129311821D01*
X120339867Y-129378836D01*
X120511620Y-129413000D01*
X120686738Y-129413000D01*
X120858491Y-129378836D01*
X121020278Y-129311821D01*
X121165883Y-129214531D01*
X121289710Y-129090704D01*
X121387000Y-128945099D01*
X121454015Y-128783312D01*
X121488179Y-128611559D01*
X121488179Y-128436441D01*
X121454015Y-128264688D01*
X121387000Y-128102901D01*
X121289710Y-127957296D01*
X121165883Y-127833469D01*
X121020278Y-127736179D01*
X120858491Y-127669164D01*
X120686738Y-127635000D01*
X120511620Y-127635000D01*
X120339867Y-127669164D01*
X120178080Y-127736179D01*
X120032475Y-127833469D01*
X119908648Y-127957296D01*
X119811358Y-128102901D01*
X119744343Y-128264688D01*
X119710179Y-128436441D01*
X119585791Y-128436441D01*
X119602185Y-128270000D01*
X119573513Y-127978889D01*
X119488599Y-127698966D01*
X119350706Y-127440986D01*
X119165134Y-127214866D01*
X118939014Y-127029294D01*
X118884209Y-127000000D01*
X118939014Y-126970706D01*
X119010003Y-126912446D01*
X129158995Y-126912446D01*
X129158995Y-127087564D01*
X129193159Y-127259317D01*
X129260174Y-127421104D01*
X129357464Y-127566709D01*
X129481291Y-127690536D01*
X129626896Y-127787826D01*
X129788683Y-127854841D01*
X129960436Y-127889005D01*
X130135554Y-127889005D01*
X130307307Y-127854841D01*
X130469094Y-127787826D01*
X130614699Y-127690536D01*
X130738526Y-127566709D01*
X130835816Y-127421104D01*
X130902831Y-127259317D01*
X130936995Y-127087564D01*
X130936995Y-126912446D01*
X130933085Y-126892789D01*
X137360000Y-126892789D01*
X137360000Y-127165611D01*
X137413225Y-127433189D01*
X137517629Y-127685243D01*
X137669201Y-127912086D01*
X137862114Y-128104999D01*
X138088957Y-128256571D01*
X138341011Y-128360975D01*
X138608589Y-128414200D01*
X138881411Y-128414200D01*
X139148989Y-128360975D01*
X139329549Y-128286185D01*
X139330000Y-128458450D01*
X139488750Y-128617200D01*
X140208000Y-128617200D01*
X140208000Y-128597200D01*
X140462000Y-128597200D01*
X140462000Y-128617200D01*
X140482000Y-128617200D01*
X140482000Y-128871200D01*
X140462000Y-128871200D01*
X140462000Y-130680450D01*
X140620750Y-130839200D01*
X140705000Y-130842272D01*
X140829482Y-130830012D01*
X140949180Y-130793702D01*
X140970000Y-130782573D01*
X140990820Y-130793702D01*
X141110518Y-130830012D01*
X141235000Y-130842272D01*
X141975000Y-130842272D01*
X142099482Y-130830012D01*
X142219180Y-130793702D01*
X142240000Y-130782573D01*
X142260820Y-130793702D01*
X142380518Y-130830012D01*
X142505000Y-130842272D01*
X142589250Y-130839200D01*
X142748000Y-130680450D01*
X142748000Y-128871200D01*
X142728000Y-128871200D01*
X142728000Y-128617200D01*
X142748000Y-128617200D01*
X142748000Y-128597200D01*
X143002000Y-128597200D01*
X143002000Y-128617200D01*
X143022000Y-128617200D01*
X143022000Y-128871200D01*
X143002000Y-128871200D01*
X143002000Y-130680450D01*
X143160750Y-130839200D01*
X143245000Y-130842272D01*
X143369482Y-130830012D01*
X143489180Y-130793702D01*
X143510000Y-130782573D01*
X143530820Y-130793702D01*
X143650518Y-130830012D01*
X143775000Y-130842272D01*
X144515000Y-130842272D01*
X144639482Y-130830012D01*
X144759180Y-130793702D01*
X144780000Y-130782573D01*
X144800820Y-130793702D01*
X144920518Y-130830012D01*
X145045000Y-130842272D01*
X145129250Y-130839200D01*
X145288000Y-130680450D01*
X145288000Y-128871200D01*
X145268000Y-128871200D01*
X145268000Y-128617200D01*
X145288000Y-128617200D01*
X145288000Y-125441200D01*
X145268000Y-125441200D01*
X145268000Y-125187200D01*
X145288000Y-125187200D01*
X145288000Y-123377950D01*
X145542000Y-123377950D01*
X145542000Y-125187200D01*
X145562000Y-125187200D01*
X145562000Y-125441200D01*
X145542000Y-125441200D01*
X145542000Y-128617200D01*
X145562000Y-128617200D01*
X145562000Y-128871200D01*
X145542000Y-128871200D01*
X145542000Y-130680450D01*
X145700750Y-130839200D01*
X145785000Y-130842272D01*
X145909482Y-130830012D01*
X146029180Y-130793702D01*
X146050000Y-130782573D01*
X146070820Y-130793702D01*
X146190518Y-130830012D01*
X146315000Y-130842272D01*
X147055000Y-130842272D01*
X147179482Y-130830012D01*
X147299180Y-130793702D01*
X147320000Y-130782573D01*
X147340820Y-130793702D01*
X147460518Y-130830012D01*
X147585000Y-130842272D01*
X147669250Y-130839200D01*
X147828000Y-130680450D01*
X147828000Y-128871200D01*
X147808000Y-128871200D01*
X147808000Y-128617200D01*
X147828000Y-128617200D01*
X147828000Y-125441200D01*
X147808000Y-125441200D01*
X147808000Y-125187200D01*
X147828000Y-125187200D01*
X147828000Y-123377950D01*
X148082000Y-123377950D01*
X148082000Y-125187200D01*
X148102000Y-125187200D01*
X148102000Y-125441200D01*
X148082000Y-125441200D01*
X148082000Y-128617200D01*
X148102000Y-128617200D01*
X148102000Y-128871200D01*
X148082000Y-128871200D01*
X148082000Y-130680450D01*
X148240750Y-130839200D01*
X148325000Y-130842272D01*
X148449482Y-130830012D01*
X148569180Y-130793702D01*
X148590000Y-130782573D01*
X148610820Y-130793702D01*
X148730518Y-130830012D01*
X148855000Y-130842272D01*
X149595000Y-130842272D01*
X149719482Y-130830012D01*
X149839180Y-130793702D01*
X149860000Y-130782573D01*
X149880820Y-130793702D01*
X150000518Y-130830012D01*
X150125000Y-130842272D01*
X150209250Y-130839200D01*
X150368000Y-130680450D01*
X150368000Y-128871200D01*
X150622000Y-128871200D01*
X150622000Y-130680450D01*
X150780750Y-130839200D01*
X150865000Y-130842272D01*
X150989482Y-130830012D01*
X151109180Y-130793702D01*
X151130000Y-130782573D01*
X151150820Y-130793702D01*
X151270518Y-130830012D01*
X151395000Y-130842272D01*
X151479250Y-130839200D01*
X151638000Y-130680450D01*
X151638000Y-128871200D01*
X150622000Y-128871200D01*
X150368000Y-128871200D01*
X150348000Y-128871200D01*
X150348000Y-128617200D01*
X150368000Y-128617200D01*
X150368000Y-125441200D01*
X150622000Y-125441200D01*
X150622000Y-128617200D01*
X151638000Y-128617200D01*
X151638000Y-125441200D01*
X150622000Y-125441200D01*
X150368000Y-125441200D01*
X150348000Y-125441200D01*
X150348000Y-125187200D01*
X150368000Y-125187200D01*
X150368000Y-123377950D01*
X150622000Y-123377950D01*
X150622000Y-125187200D01*
X151638000Y-125187200D01*
X151638000Y-123377950D01*
X151479250Y-123219200D01*
X151395000Y-123216128D01*
X151270518Y-123228388D01*
X151150820Y-123264698D01*
X151130000Y-123275827D01*
X151109180Y-123264698D01*
X150989482Y-123228388D01*
X150865000Y-123216128D01*
X150780750Y-123219200D01*
X150622000Y-123377950D01*
X150368000Y-123377950D01*
X150209250Y-123219200D01*
X150125000Y-123216128D01*
X150000518Y-123228388D01*
X149880820Y-123264698D01*
X149860000Y-123275827D01*
X149839180Y-123264698D01*
X149719482Y-123228388D01*
X149595000Y-123216128D01*
X148855000Y-123216128D01*
X148730518Y-123228388D01*
X148610820Y-123264698D01*
X148590000Y-123275827D01*
X148569180Y-123264698D01*
X148449482Y-123228388D01*
X148325000Y-123216128D01*
X148240750Y-123219200D01*
X148082000Y-123377950D01*
X147828000Y-123377950D01*
X147669250Y-123219200D01*
X147585000Y-123216128D01*
X147460518Y-123228388D01*
X147340820Y-123264698D01*
X147320000Y-123275827D01*
X147299180Y-123264698D01*
X147179482Y-123228388D01*
X147055000Y-123216128D01*
X146315000Y-123216128D01*
X146190518Y-123228388D01*
X146070820Y-123264698D01*
X146050000Y-123275827D01*
X146029180Y-123264698D01*
X145909482Y-123228388D01*
X145785000Y-123216128D01*
X145700750Y-123219200D01*
X145542000Y-123377950D01*
X145288000Y-123377950D01*
X145129250Y-123219200D01*
X145045000Y-123216128D01*
X144920518Y-123228388D01*
X144800820Y-123264698D01*
X144780000Y-123275827D01*
X144759180Y-123264698D01*
X144639482Y-123228388D01*
X144515000Y-123216128D01*
X143775000Y-123216128D01*
X143650518Y-123228388D01*
X143530820Y-123264698D01*
X143510000Y-123275827D01*
X143489180Y-123264698D01*
X143369482Y-123228388D01*
X143245000Y-123216128D01*
X142505000Y-123216128D01*
X142380518Y-123228388D01*
X142260820Y-123264698D01*
X142240000Y-123275827D01*
X142219180Y-123264698D01*
X142099482Y-123228388D01*
X141975000Y-123216128D01*
X141890750Y-123219200D01*
X141732000Y-123377950D01*
X141732000Y-125187200D01*
X141752000Y-125187200D01*
X141752000Y-125441200D01*
X141732000Y-125441200D01*
X141732000Y-125461200D01*
X141478000Y-125461200D01*
X141478000Y-125441200D01*
X141458000Y-125441200D01*
X141458000Y-125187200D01*
X141478000Y-125187200D01*
X141478000Y-123377950D01*
X141319250Y-123219200D01*
X141235000Y-123216128D01*
X141110518Y-123228388D01*
X140990820Y-123264698D01*
X140970000Y-123275827D01*
X140949180Y-123264698D01*
X140829482Y-123228388D01*
X140705000Y-123216128D01*
X139965000Y-123216128D01*
X139840518Y-123228388D01*
X139720820Y-123264698D01*
X139610506Y-123323663D01*
X139513815Y-123403015D01*
X139434463Y-123499706D01*
X139375498Y-123610020D01*
X139339188Y-123729718D01*
X139326928Y-123854200D01*
X139326928Y-125771130D01*
X139148989Y-125697425D01*
X138881411Y-125644200D01*
X138608589Y-125644200D01*
X138341011Y-125697425D01*
X138088957Y-125801829D01*
X137862114Y-125953401D01*
X137669201Y-126146314D01*
X137517629Y-126373157D01*
X137413225Y-126625211D01*
X137360000Y-126892789D01*
X130933085Y-126892789D01*
X130902831Y-126740693D01*
X130835816Y-126578906D01*
X130738526Y-126433301D01*
X130614699Y-126309474D01*
X130469094Y-126212184D01*
X130307307Y-126145169D01*
X130135554Y-126111005D01*
X129960436Y-126111005D01*
X129788683Y-126145169D01*
X129626896Y-126212184D01*
X129481291Y-126309474D01*
X129357464Y-126433301D01*
X129260174Y-126578906D01*
X129193159Y-126740693D01*
X129158995Y-126912446D01*
X119010003Y-126912446D01*
X119165134Y-126785134D01*
X119350706Y-126559014D01*
X119488599Y-126301034D01*
X119573513Y-126021111D01*
X119602185Y-125730000D01*
X119573513Y-125438889D01*
X119488599Y-125158966D01*
X119350706Y-124900986D01*
X119165134Y-124674866D01*
X118939014Y-124489294D01*
X118884209Y-124460000D01*
X118939014Y-124430706D01*
X119165134Y-124245134D01*
X119350706Y-124019014D01*
X119488599Y-123761034D01*
X119573513Y-123481111D01*
X119579914Y-123416119D01*
X134171678Y-123416119D01*
X134171678Y-123591237D01*
X134205842Y-123762990D01*
X134272857Y-123924777D01*
X134370147Y-124070382D01*
X134493974Y-124194209D01*
X134639579Y-124291499D01*
X134801366Y-124358514D01*
X134973119Y-124392678D01*
X135148237Y-124392678D01*
X135319990Y-124358514D01*
X135481777Y-124291499D01*
X135627382Y-124194209D01*
X135751209Y-124070382D01*
X135848499Y-123924777D01*
X135915514Y-123762990D01*
X135949678Y-123591237D01*
X135949678Y-123416119D01*
X135915514Y-123244366D01*
X135865109Y-123122679D01*
X135915515Y-123000989D01*
X135949679Y-122829236D01*
X135949679Y-122654118D01*
X135915515Y-122482365D01*
X135856728Y-122340441D01*
X151765000Y-122340441D01*
X151765000Y-122515559D01*
X151799164Y-122687312D01*
X151866179Y-122849099D01*
X151963469Y-122994704D01*
X152087296Y-123118531D01*
X152232901Y-123215821D01*
X152273523Y-123232647D01*
X152259482Y-123228388D01*
X152135000Y-123216128D01*
X152050750Y-123219200D01*
X151892000Y-123377950D01*
X151892000Y-125187200D01*
X151912000Y-125187200D01*
X151912000Y-125441200D01*
X151892000Y-125441200D01*
X151892000Y-128617200D01*
X151912000Y-128617200D01*
X151912000Y-128871200D01*
X151892000Y-128871200D01*
X151892000Y-130680450D01*
X152050750Y-130839200D01*
X152135000Y-130842272D01*
X152259482Y-130830012D01*
X152379180Y-130793702D01*
X152400000Y-130782573D01*
X152420820Y-130793702D01*
X152540518Y-130830012D01*
X152665000Y-130842272D01*
X153405000Y-130842272D01*
X153529482Y-130830012D01*
X153649180Y-130793702D01*
X153670000Y-130782573D01*
X153690820Y-130793702D01*
X153810518Y-130830012D01*
X153935000Y-130842272D01*
X154675000Y-130842272D01*
X154799482Y-130830012D01*
X154919180Y-130793702D01*
X154940000Y-130782573D01*
X154960820Y-130793702D01*
X155080518Y-130830012D01*
X155205000Y-130842272D01*
X155945000Y-130842272D01*
X156069482Y-130830012D01*
X156189180Y-130793702D01*
X156210000Y-130782573D01*
X156230820Y-130793702D01*
X156350518Y-130830012D01*
X156475000Y-130842272D01*
X157215000Y-130842272D01*
X157339482Y-130830012D01*
X157459180Y-130793702D01*
X157480000Y-130782573D01*
X157500820Y-130793702D01*
X157620518Y-130830012D01*
X157745000Y-130842272D01*
X158485000Y-130842272D01*
X158609482Y-130830012D01*
X158729180Y-130793702D01*
X158750000Y-130782573D01*
X158770820Y-130793702D01*
X158890518Y-130830012D01*
X159015000Y-130842272D01*
X159755000Y-130842272D01*
X159879482Y-130830012D01*
X159999180Y-130793702D01*
X160020000Y-130782573D01*
X160040820Y-130793702D01*
X160160518Y-130830012D01*
X160285000Y-130842272D01*
X161025000Y-130842272D01*
X161149482Y-130830012D01*
X161269180Y-130793702D01*
X161290000Y-130782573D01*
X161310820Y-130793702D01*
X161430518Y-130830012D01*
X161555000Y-130842272D01*
X162295000Y-130842272D01*
X162419482Y-130830012D01*
X162539180Y-130793702D01*
X162560000Y-130782573D01*
X162580820Y-130793702D01*
X162700518Y-130830012D01*
X162825000Y-130842272D01*
X162909250Y-130839200D01*
X163068000Y-130680450D01*
X163068000Y-128871200D01*
X163048000Y-128871200D01*
X163048000Y-128617200D01*
X163068000Y-128617200D01*
X163068000Y-128597200D01*
X163322000Y-128597200D01*
X163322000Y-128617200D01*
X163342000Y-128617200D01*
X163342000Y-128871200D01*
X163322000Y-128871200D01*
X163322000Y-130680450D01*
X163480750Y-130839200D01*
X163565000Y-130842272D01*
X163689482Y-130830012D01*
X163809180Y-130793702D01*
X163830000Y-130782573D01*
X163850820Y-130793702D01*
X163970518Y-130830012D01*
X164095000Y-130842272D01*
X164835000Y-130842272D01*
X164959482Y-130830012D01*
X165079180Y-130793702D01*
X165189494Y-130734737D01*
X165286185Y-130655385D01*
X165365537Y-130558694D01*
X165424502Y-130448380D01*
X165460812Y-130328682D01*
X165473072Y-130204200D01*
X165473072Y-128287270D01*
X165651011Y-128360975D01*
X165918589Y-128414200D01*
X166191411Y-128414200D01*
X166458989Y-128360975D01*
X166711043Y-128256571D01*
X166937886Y-128104999D01*
X167114444Y-127928441D01*
X167767000Y-127928441D01*
X167767000Y-128103559D01*
X167801164Y-128275312D01*
X167868179Y-128437099D01*
X167965469Y-128582704D01*
X168089296Y-128706531D01*
X168234901Y-128803821D01*
X168396688Y-128870836D01*
X168568441Y-128905000D01*
X168743559Y-128905000D01*
X168915312Y-128870836D01*
X169077099Y-128803821D01*
X169222704Y-128706531D01*
X169346531Y-128582704D01*
X169443821Y-128437099D01*
X169510836Y-128275312D01*
X169538376Y-128136859D01*
X169600531Y-128074704D01*
X169697821Y-127929099D01*
X169703356Y-127915736D01*
X170319705Y-127915736D01*
X170319705Y-128090854D01*
X170353869Y-128262607D01*
X170420884Y-128424394D01*
X170518174Y-128569999D01*
X170642001Y-128693826D01*
X170787606Y-128791116D01*
X170949393Y-128858131D01*
X171121146Y-128892295D01*
X171296264Y-128892295D01*
X171468017Y-128858131D01*
X171629804Y-128791116D01*
X171775409Y-128693826D01*
X171899236Y-128569999D01*
X171996526Y-128424394D01*
X172063541Y-128262607D01*
X172097705Y-128090854D01*
X172097705Y-127915736D01*
X172063541Y-127743983D01*
X171996526Y-127582196D01*
X171899236Y-127436591D01*
X171775409Y-127312764D01*
X171629804Y-127215474D01*
X171468017Y-127148459D01*
X171296264Y-127114295D01*
X171121146Y-127114295D01*
X170949393Y-127148459D01*
X170787606Y-127215474D01*
X170642001Y-127312764D01*
X170518174Y-127436591D01*
X170420884Y-127582196D01*
X170353869Y-127743983D01*
X170319705Y-127915736D01*
X169703356Y-127915736D01*
X169764836Y-127767312D01*
X169799000Y-127595559D01*
X169799000Y-127420441D01*
X169764836Y-127248688D01*
X169697821Y-127086901D01*
X169600531Y-126941296D01*
X169476704Y-126817469D01*
X169331099Y-126720179D01*
X169169312Y-126653164D01*
X168997559Y-126619000D01*
X168822441Y-126619000D01*
X168650688Y-126653164D01*
X168488901Y-126720179D01*
X168343296Y-126817469D01*
X168219469Y-126941296D01*
X168122179Y-127086901D01*
X168055164Y-127248688D01*
X168027624Y-127387141D01*
X167965469Y-127449296D01*
X167868179Y-127594901D01*
X167801164Y-127756688D01*
X167767000Y-127928441D01*
X167114444Y-127928441D01*
X167130799Y-127912086D01*
X167282371Y-127685243D01*
X167386775Y-127433189D01*
X167440000Y-127165611D01*
X167440000Y-126892789D01*
X167386775Y-126625211D01*
X167282371Y-126373157D01*
X167130799Y-126146314D01*
X166937886Y-125953401D01*
X166711043Y-125801829D01*
X166458989Y-125697425D01*
X166191411Y-125644200D01*
X165918589Y-125644200D01*
X165651011Y-125697425D01*
X165470451Y-125772215D01*
X165470000Y-125599950D01*
X165311250Y-125441200D01*
X164592000Y-125441200D01*
X164592000Y-125461200D01*
X164338000Y-125461200D01*
X164338000Y-125441200D01*
X164318000Y-125441200D01*
X164318000Y-125187200D01*
X164338000Y-125187200D01*
X164338000Y-123377950D01*
X164592000Y-123377950D01*
X164592000Y-125187200D01*
X165311250Y-125187200D01*
X165470000Y-125028450D01*
X165473072Y-123854200D01*
X165460812Y-123729718D01*
X165424502Y-123610020D01*
X165365537Y-123499706D01*
X165286185Y-123403015D01*
X165189494Y-123323663D01*
X165079180Y-123264698D01*
X164959482Y-123228388D01*
X164835000Y-123216128D01*
X164750750Y-123219200D01*
X164592000Y-123377950D01*
X164338000Y-123377950D01*
X164179250Y-123219200D01*
X164095000Y-123216128D01*
X163970518Y-123228388D01*
X163850820Y-123264698D01*
X163830000Y-123275827D01*
X163809180Y-123264698D01*
X163689482Y-123228388D01*
X163565000Y-123216128D01*
X162825000Y-123216128D01*
X162700518Y-123228388D01*
X162580820Y-123264698D01*
X162560000Y-123275827D01*
X162539180Y-123264698D01*
X162419482Y-123228388D01*
X162295000Y-123216128D01*
X162210750Y-123219200D01*
X162052000Y-123377950D01*
X162052000Y-125187200D01*
X162072000Y-125187200D01*
X162072000Y-125441200D01*
X162052000Y-125441200D01*
X162052000Y-125461200D01*
X161798000Y-125461200D01*
X161798000Y-125441200D01*
X161778000Y-125441200D01*
X161778000Y-125187200D01*
X161798000Y-125187200D01*
X161798000Y-123377950D01*
X161639250Y-123219200D01*
X161555000Y-123216128D01*
X161430518Y-123228388D01*
X161310820Y-123264698D01*
X161290000Y-123275827D01*
X161269180Y-123264698D01*
X161149482Y-123228388D01*
X161025000Y-123216128D01*
X160285000Y-123216128D01*
X160160518Y-123228388D01*
X160040820Y-123264698D01*
X160020000Y-123275827D01*
X159999180Y-123264698D01*
X159879482Y-123228388D01*
X159755000Y-123216128D01*
X159015000Y-123216128D01*
X158890518Y-123228388D01*
X158770820Y-123264698D01*
X158750000Y-123275827D01*
X158729180Y-123264698D01*
X158609482Y-123228388D01*
X158485000Y-123216128D01*
X157745000Y-123216128D01*
X157620518Y-123228388D01*
X157500820Y-123264698D01*
X157480000Y-123275827D01*
X157459180Y-123264698D01*
X157339482Y-123228388D01*
X157215000Y-123216128D01*
X156475000Y-123216128D01*
X156350518Y-123228388D01*
X156230820Y-123264698D01*
X156210000Y-123275827D01*
X156189180Y-123264698D01*
X156069482Y-123228388D01*
X155945000Y-123216128D01*
X155205000Y-123216128D01*
X155080518Y-123228388D01*
X155066477Y-123232647D01*
X155107099Y-123215821D01*
X155252704Y-123118531D01*
X155376531Y-122994704D01*
X155473821Y-122849099D01*
X155540836Y-122687312D01*
X155575000Y-122515559D01*
X155575000Y-122340441D01*
X155540836Y-122168688D01*
X155473821Y-122006901D01*
X155376531Y-121861296D01*
X155252704Y-121737469D01*
X155107099Y-121640179D01*
X154945312Y-121573164D01*
X154773559Y-121539000D01*
X154598441Y-121539000D01*
X154426688Y-121573164D01*
X154264901Y-121640179D01*
X154119296Y-121737469D01*
X153995469Y-121861296D01*
X153898179Y-122006901D01*
X153831164Y-122168688D01*
X153797000Y-122340441D01*
X153797000Y-122515559D01*
X153831164Y-122687312D01*
X153898179Y-122849099D01*
X153995469Y-122994704D01*
X154119296Y-123118531D01*
X154264901Y-123215821D01*
X154265642Y-123216128D01*
X153935000Y-123216128D01*
X153810518Y-123228388D01*
X153690820Y-123264698D01*
X153670000Y-123275827D01*
X153649180Y-123264698D01*
X153529482Y-123228388D01*
X153405000Y-123216128D01*
X153074358Y-123216128D01*
X153075099Y-123215821D01*
X153220704Y-123118531D01*
X153344531Y-122994704D01*
X153441821Y-122849099D01*
X153508836Y-122687312D01*
X153543000Y-122515559D01*
X153543000Y-122340441D01*
X153508836Y-122168688D01*
X153441821Y-122006901D01*
X153344531Y-121861296D01*
X153220704Y-121737469D01*
X153075099Y-121640179D01*
X152913312Y-121573164D01*
X152741559Y-121539000D01*
X152566441Y-121539000D01*
X152394688Y-121573164D01*
X152232901Y-121640179D01*
X152087296Y-121737469D01*
X151963469Y-121861296D01*
X151866179Y-122006901D01*
X151799164Y-122168688D01*
X151765000Y-122340441D01*
X135856728Y-122340441D01*
X135848500Y-122320578D01*
X135751210Y-122174973D01*
X135627383Y-122051146D01*
X135481778Y-121953856D01*
X135319991Y-121886841D01*
X135148238Y-121852677D01*
X134973120Y-121852677D01*
X134801367Y-121886841D01*
X134639580Y-121953856D01*
X134493975Y-122051146D01*
X134370148Y-122174973D01*
X134272858Y-122320578D01*
X134205843Y-122482365D01*
X134171679Y-122654118D01*
X134171679Y-122829236D01*
X134205843Y-123000989D01*
X134256248Y-123122676D01*
X134205842Y-123244366D01*
X134171678Y-123416119D01*
X119579914Y-123416119D01*
X119602185Y-123190000D01*
X119573513Y-122898889D01*
X119488599Y-122618966D01*
X119350706Y-122360986D01*
X119165134Y-122134866D01*
X119135313Y-122110393D01*
X119204180Y-122089502D01*
X119314494Y-122030537D01*
X119408862Y-121953091D01*
X132137150Y-121953091D01*
X132137150Y-122128209D01*
X132171314Y-122299962D01*
X132238329Y-122461749D01*
X132335619Y-122607354D01*
X132459446Y-122731181D01*
X132605051Y-122828471D01*
X132766838Y-122895486D01*
X132938591Y-122929650D01*
X133113709Y-122929650D01*
X133285462Y-122895486D01*
X133447249Y-122828471D01*
X133592854Y-122731181D01*
X133716681Y-122607354D01*
X133813971Y-122461749D01*
X133880986Y-122299962D01*
X133915150Y-122128209D01*
X133915150Y-121953091D01*
X133880986Y-121781338D01*
X133813971Y-121619551D01*
X133716681Y-121473946D01*
X133592854Y-121350119D01*
X133447249Y-121252829D01*
X133285462Y-121185814D01*
X133113709Y-121151650D01*
X132938591Y-121151650D01*
X132766838Y-121185814D01*
X132605051Y-121252829D01*
X132459446Y-121350119D01*
X132335619Y-121473946D01*
X132238329Y-121619551D01*
X132171314Y-121781338D01*
X132137150Y-121953091D01*
X119408862Y-121953091D01*
X119411185Y-121951185D01*
X119490537Y-121854494D01*
X119549502Y-121744180D01*
X119585812Y-121624482D01*
X119598072Y-121500000D01*
X119598072Y-120473541D01*
X157619700Y-120473541D01*
X157619700Y-120648659D01*
X157653864Y-120820412D01*
X157720879Y-120982199D01*
X157818169Y-121127804D01*
X157941996Y-121251631D01*
X158087601Y-121348921D01*
X158249388Y-121415936D01*
X158421141Y-121450100D01*
X158596259Y-121450100D01*
X158768012Y-121415936D01*
X158929799Y-121348921D01*
X159075404Y-121251631D01*
X159199231Y-121127804D01*
X159296521Y-120982199D01*
X159363536Y-120820412D01*
X159397700Y-120648659D01*
X159397700Y-120473541D01*
X159363536Y-120301788D01*
X159296521Y-120140001D01*
X159199231Y-119994396D01*
X159075404Y-119870569D01*
X158929799Y-119773279D01*
X158768012Y-119706264D01*
X158596259Y-119672100D01*
X158421141Y-119672100D01*
X158249388Y-119706264D01*
X158087601Y-119773279D01*
X157941996Y-119870569D01*
X157818169Y-119994396D01*
X157720879Y-120140001D01*
X157653864Y-120301788D01*
X157619700Y-120473541D01*
X119598072Y-120473541D01*
X119598072Y-119800000D01*
X119585812Y-119675518D01*
X119549502Y-119555820D01*
X119490537Y-119445506D01*
X119411185Y-119348815D01*
X119314494Y-119269463D01*
X119204180Y-119210498D01*
X119084482Y-119174188D01*
X118960000Y-119161928D01*
X117260000Y-119161928D01*
X117135518Y-119174188D01*
X117015820Y-119210498D01*
X116905506Y-119269463D01*
X116808815Y-119348815D01*
X116729463Y-119445506D01*
X116670498Y-119555820D01*
X116634188Y-119675518D01*
X116621928Y-119800000D01*
X116621928Y-121500000D01*
X116634188Y-121624482D01*
X116670498Y-121744180D01*
X116729463Y-121854494D01*
X116808815Y-121951185D01*
X116905506Y-122030537D01*
X117015820Y-122089502D01*
X117084687Y-122110393D01*
X117054866Y-122134866D01*
X116869294Y-122360986D01*
X116731401Y-122618966D01*
X116646487Y-122898889D01*
X116617815Y-123190000D01*
X115180426Y-123190000D01*
X115432844Y-121167889D01*
X115886259Y-118794465D01*
X115888854Y-118784441D01*
X141605004Y-118784441D01*
X141605004Y-118959559D01*
X141639168Y-119131312D01*
X141706183Y-119293099D01*
X141803473Y-119438704D01*
X141927300Y-119562531D01*
X142072905Y-119659821D01*
X142234692Y-119726836D01*
X142406445Y-119761000D01*
X142581563Y-119761000D01*
X142753316Y-119726836D01*
X142915103Y-119659821D01*
X143060708Y-119562531D01*
X143184535Y-119438704D01*
X143281825Y-119293099D01*
X143348840Y-119131312D01*
X143383004Y-118959559D01*
X143383004Y-118784441D01*
X143348840Y-118612688D01*
X143314772Y-118530441D01*
X167005000Y-118530441D01*
X167005000Y-118705559D01*
X167039164Y-118877312D01*
X167106179Y-119039099D01*
X167203469Y-119184704D01*
X167327296Y-119308531D01*
X167472901Y-119405821D01*
X167634688Y-119472836D01*
X167806441Y-119507000D01*
X167981559Y-119507000D01*
X168153312Y-119472836D01*
X168315099Y-119405821D01*
X168460704Y-119308531D01*
X168584531Y-119184704D01*
X168681821Y-119039099D01*
X168748836Y-118877312D01*
X168783000Y-118705559D01*
X168783000Y-118530443D01*
X169037000Y-118530443D01*
X169037000Y-118705561D01*
X169071164Y-118877314D01*
X169138179Y-119039101D01*
X169235469Y-119184706D01*
X169359296Y-119308533D01*
X169504901Y-119405823D01*
X169666688Y-119472838D01*
X169838441Y-119507002D01*
X170013559Y-119507002D01*
X170185312Y-119472838D01*
X170347099Y-119405823D01*
X170492704Y-119308533D01*
X170616531Y-119184706D01*
X170713821Y-119039101D01*
X170780836Y-118877314D01*
X170815000Y-118705561D01*
X170815000Y-118530443D01*
X170780836Y-118358690D01*
X170713821Y-118196903D01*
X170616531Y-118051298D01*
X170492704Y-117927471D01*
X170347099Y-117830181D01*
X170185312Y-117763166D01*
X170013559Y-117729002D01*
X169838441Y-117729002D01*
X169666688Y-117763166D01*
X169504901Y-117830181D01*
X169359296Y-117927471D01*
X169235469Y-118051298D01*
X169138179Y-118196903D01*
X169071164Y-118358690D01*
X169037000Y-118530443D01*
X168783000Y-118530443D01*
X168783000Y-118530441D01*
X168748836Y-118358688D01*
X168681821Y-118196901D01*
X168584531Y-118051296D01*
X168460704Y-117927469D01*
X168315099Y-117830179D01*
X168153312Y-117763164D01*
X167981559Y-117729000D01*
X167806441Y-117729000D01*
X167634688Y-117763164D01*
X167472901Y-117830179D01*
X167327296Y-117927469D01*
X167203469Y-118051296D01*
X167106179Y-118196901D01*
X167039164Y-118358688D01*
X167005000Y-118530441D01*
X143314772Y-118530441D01*
X143281825Y-118450901D01*
X143184535Y-118305296D01*
X143060708Y-118181469D01*
X142915103Y-118084179D01*
X142753316Y-118017164D01*
X142581563Y-117983000D01*
X142406445Y-117983000D01*
X142234692Y-118017164D01*
X142072905Y-118084179D01*
X141927300Y-118181469D01*
X141803473Y-118305296D01*
X141706183Y-118450901D01*
X141639168Y-118612688D01*
X141605004Y-118784441D01*
X115888854Y-118784441D01*
X116491887Y-116455259D01*
X116644849Y-115990441D01*
X139065000Y-115990441D01*
X139065000Y-116165559D01*
X139099164Y-116337312D01*
X139166179Y-116499099D01*
X139263469Y-116644704D01*
X139387296Y-116768531D01*
X139532901Y-116865821D01*
X139694688Y-116932836D01*
X139866441Y-116967000D01*
X140041559Y-116967000D01*
X140213312Y-116932836D01*
X140375099Y-116865821D01*
X140520704Y-116768531D01*
X140589000Y-116700235D01*
X140657296Y-116768531D01*
X140802901Y-116865821D01*
X140964688Y-116932836D01*
X141136441Y-116967000D01*
X141311559Y-116967000D01*
X141483312Y-116932836D01*
X141645099Y-116865821D01*
X141790704Y-116768531D01*
X141914531Y-116644704D01*
X142011821Y-116499099D01*
X142078836Y-116337312D01*
X142113000Y-116165559D01*
X142113000Y-115990441D01*
X142875000Y-115990441D01*
X142875000Y-116165559D01*
X142909164Y-116337312D01*
X142976179Y-116499099D01*
X143073469Y-116644704D01*
X143197296Y-116768531D01*
X143342901Y-116865821D01*
X143504688Y-116932836D01*
X143676441Y-116967000D01*
X143851559Y-116967000D01*
X144023312Y-116932836D01*
X144185099Y-116865821D01*
X144330704Y-116768531D01*
X144454531Y-116644704D01*
X144551821Y-116499099D01*
X144618836Y-116337312D01*
X144653000Y-116165559D01*
X144653000Y-115990441D01*
X146685000Y-115990441D01*
X146685000Y-116165559D01*
X146719164Y-116337312D01*
X146786179Y-116499099D01*
X146883469Y-116644704D01*
X147007296Y-116768531D01*
X147152901Y-116865821D01*
X147314688Y-116932836D01*
X147486441Y-116967000D01*
X147661559Y-116967000D01*
X147833312Y-116932836D01*
X147995099Y-116865821D01*
X148140704Y-116768531D01*
X148209000Y-116700235D01*
X148277296Y-116768531D01*
X148422901Y-116865821D01*
X148584688Y-116932836D01*
X148756441Y-116967000D01*
X148931559Y-116967000D01*
X149103312Y-116932836D01*
X149265099Y-116865821D01*
X149410704Y-116768531D01*
X149534531Y-116644704D01*
X149631821Y-116499099D01*
X149698836Y-116337312D01*
X149733000Y-116165559D01*
X149733000Y-115990441D01*
X149698836Y-115818688D01*
X149631821Y-115656901D01*
X149534531Y-115511296D01*
X149410704Y-115387469D01*
X149265099Y-115290179D01*
X149103312Y-115223164D01*
X148931559Y-115189000D01*
X148756441Y-115189000D01*
X148584688Y-115223164D01*
X148422901Y-115290179D01*
X148277296Y-115387469D01*
X148209000Y-115455765D01*
X148140704Y-115387469D01*
X147995099Y-115290179D01*
X147833312Y-115223164D01*
X147661559Y-115189000D01*
X147486441Y-115189000D01*
X147314688Y-115223164D01*
X147152901Y-115290179D01*
X147007296Y-115387469D01*
X146883469Y-115511296D01*
X146786179Y-115656901D01*
X146719164Y-115818688D01*
X146685000Y-115990441D01*
X144653000Y-115990441D01*
X144618836Y-115818688D01*
X144551821Y-115656901D01*
X144454531Y-115511296D01*
X144330704Y-115387469D01*
X144185099Y-115290179D01*
X144023312Y-115223164D01*
X143851559Y-115189000D01*
X143676441Y-115189000D01*
X143504688Y-115223164D01*
X143342901Y-115290179D01*
X143197296Y-115387469D01*
X143073469Y-115511296D01*
X142976179Y-115656901D01*
X142909164Y-115818688D01*
X142875000Y-115990441D01*
X142113000Y-115990441D01*
X142078836Y-115818688D01*
X142011821Y-115656901D01*
X141914531Y-115511296D01*
X141790704Y-115387469D01*
X141645099Y-115290179D01*
X141483312Y-115223164D01*
X141311559Y-115189000D01*
X141136441Y-115189000D01*
X140964688Y-115223164D01*
X140802901Y-115290179D01*
X140657296Y-115387469D01*
X140589000Y-115455765D01*
X140520704Y-115387469D01*
X140375099Y-115290179D01*
X140213312Y-115223164D01*
X140041559Y-115189000D01*
X139866441Y-115189000D01*
X139694688Y-115223164D01*
X139532901Y-115290179D01*
X139387296Y-115387469D01*
X139263469Y-115511296D01*
X139166179Y-115656901D01*
X139099164Y-115818688D01*
X139065000Y-115990441D01*
X116644849Y-115990441D01*
X117247207Y-114160013D01*
X118149076Y-111918279D01*
X119193728Y-109739419D01*
X119611238Y-108995890D01*
X132344573Y-108995890D01*
X132344573Y-109444110D01*
X132432016Y-109883718D01*
X132603543Y-110297819D01*
X132852560Y-110670500D01*
X133169500Y-110987440D01*
X133542181Y-111236457D01*
X133956282Y-111407984D01*
X134395890Y-111495427D01*
X134844110Y-111495427D01*
X135231146Y-111418441D01*
X163957000Y-111418441D01*
X163957000Y-111593559D01*
X163991164Y-111765312D01*
X164058179Y-111927099D01*
X164155469Y-112072704D01*
X164279296Y-112196531D01*
X164424901Y-112293821D01*
X164586688Y-112360836D01*
X164758441Y-112395000D01*
X164933559Y-112395000D01*
X165105312Y-112360836D01*
X165267099Y-112293821D01*
X165412704Y-112196531D01*
X165536531Y-112072704D01*
X165633821Y-111927099D01*
X165700836Y-111765312D01*
X165735000Y-111593559D01*
X165735000Y-111418441D01*
X165700836Y-111246688D01*
X165633821Y-111084901D01*
X165536531Y-110939296D01*
X165412704Y-110815469D01*
X165267099Y-110718179D01*
X165105312Y-110651164D01*
X164933559Y-110617000D01*
X164758441Y-110617000D01*
X164586688Y-110651164D01*
X164424901Y-110718179D01*
X164279296Y-110815469D01*
X164155469Y-110939296D01*
X164058179Y-111084901D01*
X163991164Y-111246688D01*
X163957000Y-111418441D01*
X135231146Y-111418441D01*
X135283718Y-111407984D01*
X135697819Y-111236457D01*
X136070500Y-110987440D01*
X136387440Y-110670500D01*
X136636457Y-110297819D01*
X136807984Y-109883718D01*
X136895427Y-109444110D01*
X136895427Y-108995890D01*
X136893259Y-108984987D01*
X155775502Y-108984987D01*
X155775502Y-109160105D01*
X155809666Y-109331858D01*
X155876681Y-109493645D01*
X155973971Y-109639250D01*
X156097798Y-109763077D01*
X156243403Y-109860367D01*
X156405190Y-109927382D01*
X156576943Y-109961546D01*
X156752061Y-109961546D01*
X156923814Y-109927382D01*
X157085601Y-109860367D01*
X157231206Y-109763077D01*
X157355033Y-109639250D01*
X157452323Y-109493645D01*
X157519338Y-109331858D01*
X157553502Y-109160105D01*
X157553502Y-109003970D01*
X167986613Y-109003970D01*
X167986613Y-109436030D01*
X168070904Y-109859787D01*
X168236246Y-110258958D01*
X168476285Y-110618203D01*
X168781797Y-110923715D01*
X169141042Y-111163754D01*
X169540213Y-111329096D01*
X169963970Y-111413387D01*
X170396030Y-111413387D01*
X170819787Y-111329096D01*
X171218958Y-111163754D01*
X171578203Y-110923715D01*
X171883715Y-110618203D01*
X172123754Y-110258958D01*
X172289096Y-109859787D01*
X172373387Y-109436030D01*
X172373387Y-109003970D01*
X172289096Y-108580213D01*
X172123754Y-108181042D01*
X171883715Y-107821797D01*
X171578203Y-107516285D01*
X171218958Y-107276246D01*
X170819787Y-107110904D01*
X170396030Y-107026613D01*
X169963970Y-107026613D01*
X169540213Y-107110904D01*
X169141042Y-107276246D01*
X168781797Y-107516285D01*
X168476285Y-107821797D01*
X168236246Y-108181042D01*
X168070904Y-108580213D01*
X167986613Y-109003970D01*
X157553502Y-109003970D01*
X157553502Y-108984987D01*
X157519338Y-108813234D01*
X157452323Y-108651447D01*
X157355033Y-108505842D01*
X157231206Y-108382015D01*
X157085601Y-108284725D01*
X156923814Y-108217710D01*
X156752061Y-108183546D01*
X156576943Y-108183546D01*
X156405190Y-108217710D01*
X156243403Y-108284725D01*
X156097798Y-108382015D01*
X155973971Y-108505842D01*
X155876681Y-108651447D01*
X155809666Y-108813234D01*
X155775502Y-108984987D01*
X136893259Y-108984987D01*
X136807984Y-108556282D01*
X136636457Y-108142181D01*
X136387440Y-107769500D01*
X136226381Y-107608441D01*
X137541000Y-107608441D01*
X137541000Y-107783559D01*
X137575164Y-107955312D01*
X137642179Y-108117099D01*
X137739469Y-108262704D01*
X137863296Y-108386531D01*
X138008901Y-108483821D01*
X138170688Y-108550836D01*
X138342441Y-108585000D01*
X138517559Y-108585000D01*
X138689312Y-108550836D01*
X138851099Y-108483821D01*
X138996704Y-108386531D01*
X139120531Y-108262704D01*
X139217821Y-108117099D01*
X139284836Y-107955312D01*
X139319000Y-107783559D01*
X139319000Y-107608441D01*
X139284836Y-107436688D01*
X139217821Y-107274901D01*
X139120531Y-107129296D01*
X138996704Y-107005469D01*
X138851099Y-106908179D01*
X138689312Y-106841164D01*
X138517559Y-106807000D01*
X138342441Y-106807000D01*
X138170688Y-106841164D01*
X138008901Y-106908179D01*
X137863296Y-107005469D01*
X137739469Y-107129296D01*
X137642179Y-107274901D01*
X137575164Y-107436688D01*
X137541000Y-107608441D01*
X136226381Y-107608441D01*
X136070500Y-107452560D01*
X135697819Y-107203543D01*
X135283718Y-107032016D01*
X134844110Y-106944573D01*
X134395890Y-106944573D01*
X133956282Y-107032016D01*
X133542181Y-107203543D01*
X133169500Y-107452560D01*
X132852560Y-107769500D01*
X132603543Y-108142181D01*
X132432016Y-108556282D01*
X132344573Y-108995890D01*
X119611238Y-108995890D01*
X120376803Y-107632527D01*
X121693382Y-105606361D01*
X123137965Y-103669390D01*
X123849968Y-102833241D01*
X135496300Y-102833241D01*
X135496300Y-103008359D01*
X135530464Y-103180112D01*
X135597479Y-103341899D01*
X135694769Y-103487504D01*
X135818596Y-103611331D01*
X135964201Y-103708621D01*
X136125988Y-103775636D01*
X136297741Y-103809800D01*
X136472859Y-103809800D01*
X136644612Y-103775636D01*
X136806399Y-103708621D01*
X136952004Y-103611331D01*
X137075831Y-103487504D01*
X137173121Y-103341899D01*
X137240136Y-103180112D01*
X137274300Y-103008359D01*
X137274300Y-102833241D01*
X137240136Y-102661488D01*
X137173121Y-102499701D01*
X137075831Y-102354096D01*
X136952004Y-102230269D01*
X136806399Y-102132979D01*
X136644612Y-102065964D01*
X136472859Y-102031800D01*
X136297741Y-102031800D01*
X136125988Y-102065964D01*
X135964201Y-102132979D01*
X135818596Y-102230269D01*
X135694769Y-102354096D01*
X135597479Y-102499701D01*
X135530464Y-102661488D01*
X135496300Y-102833241D01*
X123849968Y-102833241D01*
X124704540Y-101829667D01*
X124741205Y-101791851D01*
X141735822Y-101791851D01*
X141735822Y-101966969D01*
X141769986Y-102138722D01*
X141837001Y-102300509D01*
X141934291Y-102446114D01*
X142058118Y-102569941D01*
X142203723Y-102667231D01*
X142365510Y-102734246D01*
X142537263Y-102768410D01*
X142712381Y-102768410D01*
X142881219Y-102734826D01*
X142909164Y-102875312D01*
X142976179Y-103037099D01*
X143073469Y-103182704D01*
X143197296Y-103306531D01*
X143342901Y-103403821D01*
X143504688Y-103470836D01*
X143676441Y-103505000D01*
X143851559Y-103505000D01*
X144023312Y-103470836D01*
X144185099Y-103403821D01*
X144330704Y-103306531D01*
X144454531Y-103182704D01*
X144551821Y-103037099D01*
X144618836Y-102875312D01*
X144653000Y-102703559D01*
X144653000Y-102528441D01*
X144618836Y-102356688D01*
X144551821Y-102194901D01*
X144454531Y-102049296D01*
X144330704Y-101925469D01*
X144185099Y-101828179D01*
X144023312Y-101761164D01*
X143851559Y-101727000D01*
X143676441Y-101727000D01*
X143507603Y-101760584D01*
X143479658Y-101620098D01*
X143412643Y-101458311D01*
X143315353Y-101312706D01*
X143191526Y-101188879D01*
X143045921Y-101091589D01*
X142884134Y-101024574D01*
X142712381Y-100990410D01*
X142537263Y-100990410D01*
X142365510Y-101024574D01*
X142203723Y-101091589D01*
X142058118Y-101188879D01*
X141934291Y-101312706D01*
X141837001Y-101458311D01*
X141769986Y-101620098D01*
X141735822Y-101791851D01*
X124741205Y-101791851D01*
X126386555Y-100094892D01*
X128177047Y-98472247D01*
X129305110Y-97575439D01*
X154178002Y-97575439D01*
X154178002Y-97750557D01*
X154212166Y-97922310D01*
X154279181Y-98084097D01*
X154376471Y-98229702D01*
X154500298Y-98353529D01*
X154645903Y-98450819D01*
X154807690Y-98517834D01*
X154979443Y-98551998D01*
X154997649Y-98551998D01*
X154939589Y-98638891D01*
X154872574Y-98800678D01*
X154838410Y-98972431D01*
X154838410Y-99147549D01*
X154872574Y-99319302D01*
X154939589Y-99481089D01*
X155036879Y-99626694D01*
X155160706Y-99750521D01*
X155306311Y-99847811D01*
X155468098Y-99914826D01*
X155639851Y-99948990D01*
X155814969Y-99948990D01*
X155986722Y-99914826D01*
X156148509Y-99847811D01*
X156294114Y-99750521D01*
X156417941Y-99626694D01*
X156515231Y-99481089D01*
X156582246Y-99319302D01*
X156616410Y-99147549D01*
X156616410Y-98972431D01*
X156582246Y-98800678D01*
X156515231Y-98638891D01*
X156417941Y-98493286D01*
X156294114Y-98369459D01*
X156148509Y-98272169D01*
X155986722Y-98205154D01*
X155814969Y-98170990D01*
X155796763Y-98170990D01*
X155854823Y-98084097D01*
X155921838Y-97922310D01*
X155956002Y-97750557D01*
X155956002Y-97575439D01*
X155930741Y-97448441D01*
X168021000Y-97448441D01*
X168021000Y-97623559D01*
X168055164Y-97795312D01*
X168122179Y-97957099D01*
X168219469Y-98102704D01*
X168343296Y-98226531D01*
X168488901Y-98323821D01*
X168650688Y-98390836D01*
X168822441Y-98425000D01*
X168997559Y-98425000D01*
X169169312Y-98390836D01*
X169331099Y-98323821D01*
X169476704Y-98226531D01*
X169600531Y-98102704D01*
X169697821Y-97957099D01*
X169764836Y-97795312D01*
X169799000Y-97623559D01*
X169799000Y-97448441D01*
X169764836Y-97276688D01*
X169697821Y-97114901D01*
X169600531Y-96969296D01*
X169476704Y-96845469D01*
X169331099Y-96748179D01*
X169169312Y-96681164D01*
X168997559Y-96647000D01*
X168822441Y-96647000D01*
X168650688Y-96681164D01*
X168488901Y-96748179D01*
X168343296Y-96845469D01*
X168219469Y-96969296D01*
X168122179Y-97114901D01*
X168055164Y-97276688D01*
X168021000Y-97448441D01*
X155930741Y-97448441D01*
X155921838Y-97403686D01*
X155854823Y-97241899D01*
X155757533Y-97096294D01*
X155633706Y-96972467D01*
X155488101Y-96875177D01*
X155326314Y-96808162D01*
X155154561Y-96773998D01*
X154979443Y-96773998D01*
X154807690Y-96808162D01*
X154645903Y-96875177D01*
X154500298Y-96972467D01*
X154376471Y-97096294D01*
X154279181Y-97241899D01*
X154212166Y-97403686D01*
X154178002Y-97575439D01*
X129305110Y-97575439D01*
X130068492Y-96968552D01*
X132053035Y-95590048D01*
X134122402Y-94342481D01*
X136267972Y-93231053D01*
X138480769Y-92260410D01*
X140751624Y-91434575D01*
X143071005Y-90757014D01*
X145429304Y-90230535D01*
X147816650Y-89857343D01*
X150223118Y-89638986D01*
X152638624Y-89576382D01*
X155053169Y-89669787D01*
X155053169Y-89669787D01*
G37*
X155053169Y-89669787D02*
X157456648Y-89918813D01*
X159839047Y-90322423D01*
X162190426Y-90878930D01*
X164500981Y-91586015D01*
X166761110Y-92440737D01*
X168961372Y-93439530D01*
X171092581Y-94578224D01*
X173145879Y-95852083D01*
X175112682Y-97255788D01*
X176984802Y-98783486D01*
X178754431Y-100428811D01*
X180414195Y-102184902D01*
X181957189Y-104044463D01*
X183376949Y-105999696D01*
X184667581Y-108042485D01*
X185823697Y-110164305D01*
X186840473Y-112356300D01*
X187713680Y-114609353D01*
X188439666Y-116914037D01*
X189015417Y-119260794D01*
X189370978Y-121260000D01*
X177832419Y-121260000D01*
X177800000Y-121256807D01*
X177767581Y-121260000D01*
X177670617Y-121269550D01*
X177546207Y-121307290D01*
X177431550Y-121368575D01*
X177331052Y-121451052D01*
X177248575Y-121551550D01*
X177187290Y-121666207D01*
X177149550Y-121790617D01*
X177136807Y-121920000D01*
X177140000Y-121952419D01*
X177140000Y-125232849D01*
X177093529Y-125163300D01*
X176969702Y-125039473D01*
X176824097Y-124942183D01*
X176662310Y-124875168D01*
X176490557Y-124841004D01*
X176315439Y-124841004D01*
X176143686Y-124875168D01*
X175981899Y-124942183D01*
X175836294Y-125039473D01*
X175712467Y-125163300D01*
X175615177Y-125308905D01*
X175548162Y-125470692D01*
X175513998Y-125642445D01*
X175513998Y-125817563D01*
X175548162Y-125989316D01*
X175615177Y-126151103D01*
X175712467Y-126296708D01*
X175836294Y-126420535D01*
X175981899Y-126517825D01*
X176143686Y-126584840D01*
X176315439Y-126619004D01*
X176490557Y-126619004D01*
X176662310Y-126584840D01*
X176824097Y-126517825D01*
X176969702Y-126420535D01*
X177093529Y-126296708D01*
X177140000Y-126227158D01*
X177140001Y-132047571D01*
X177136807Y-132080000D01*
X177149550Y-132209383D01*
X177187290Y-132333793D01*
X177248575Y-132448450D01*
X177331052Y-132548948D01*
X177431550Y-132631425D01*
X177546207Y-132692710D01*
X177670617Y-132730450D01*
X177767581Y-132740000D01*
X177800000Y-132743193D01*
X177832419Y-132740000D01*
X189364565Y-132740000D01*
X189090508Y-134375008D01*
X188538103Y-136727362D01*
X187835045Y-139039174D01*
X186984275Y-141300771D01*
X185989328Y-143502763D01*
X184854358Y-145635953D01*
X183584084Y-147691473D01*
X182183813Y-149660729D01*
X180659387Y-151535508D01*
X179017145Y-153308016D01*
X177263944Y-154970849D01*
X175407095Y-156517075D01*
X173454326Y-157940257D01*
X171413804Y-159234445D01*
X169294022Y-160394253D01*
X167103780Y-161414866D01*
X165925619Y-161873848D01*
X165954836Y-161803312D01*
X165989000Y-161631559D01*
X165989000Y-161456441D01*
X165954836Y-161284688D01*
X165887821Y-161122901D01*
X165790531Y-160977296D01*
X165666704Y-160853469D01*
X165521099Y-160756179D01*
X165359312Y-160689164D01*
X165187559Y-160655000D01*
X165012441Y-160655000D01*
X164840688Y-160689164D01*
X164678901Y-160756179D01*
X164533296Y-160853469D01*
X164409469Y-160977296D01*
X164312179Y-161122901D01*
X164245164Y-161284688D01*
X164211000Y-161456441D01*
X164211000Y-161631559D01*
X164245164Y-161803312D01*
X164312179Y-161965099D01*
X164409469Y-162110704D01*
X164533296Y-162234531D01*
X164678901Y-162331821D01*
X164699583Y-162340388D01*
X162548839Y-163022010D01*
X160203103Y-163601855D01*
X157824836Y-164029115D01*
X155423968Y-164302007D01*
X153010466Y-164419399D01*
X150594434Y-164380798D01*
X148185920Y-164186365D01*
X145795005Y-163836913D01*
X143431584Y-163333891D01*
X141105566Y-162679405D01*
X138826644Y-161876183D01*
X136604290Y-160927565D01*
X134447791Y-159837514D01*
X132366132Y-158610572D01*
X130367988Y-157251852D01*
X128461676Y-155767009D01*
X126655181Y-154162261D01*
X124956000Y-152444273D01*
X124554580Y-151982241D01*
X136829810Y-151982241D01*
X136829810Y-152157359D01*
X136863974Y-152329112D01*
X136930989Y-152490899D01*
X137028279Y-152636504D01*
X137152106Y-152760331D01*
X137297711Y-152857621D01*
X137459498Y-152924636D01*
X137631251Y-152958800D01*
X137806369Y-152958800D01*
X137978122Y-152924636D01*
X138139909Y-152857621D01*
X138285514Y-152760331D01*
X138409341Y-152636504D01*
X138506631Y-152490899D01*
X138573646Y-152329112D01*
X138607810Y-152157359D01*
X138607810Y-151982241D01*
X138573646Y-151810488D01*
X138506631Y-151648701D01*
X138409341Y-151503096D01*
X138285514Y-151379269D01*
X138139909Y-151281979D01*
X137978122Y-151214964D01*
X137806369Y-151180800D01*
X137631251Y-151180800D01*
X137459498Y-151214964D01*
X137297711Y-151281979D01*
X137152106Y-151379269D01*
X137028279Y-151503096D01*
X136930989Y-151648701D01*
X136863974Y-151810488D01*
X136829810Y-151982241D01*
X124554580Y-151982241D01*
X123371228Y-150620214D01*
X122822485Y-149899485D01*
X135630753Y-149899485D01*
X135630753Y-150074603D01*
X135664917Y-150246356D01*
X135731932Y-150408143D01*
X135829222Y-150553748D01*
X135953049Y-150677575D01*
X136098654Y-150774865D01*
X136260441Y-150841880D01*
X136432194Y-150876044D01*
X136607312Y-150876044D01*
X136779065Y-150841880D01*
X136940852Y-150774865D01*
X137086457Y-150677575D01*
X137210284Y-150553748D01*
X137307574Y-150408143D01*
X137374589Y-150246356D01*
X137408753Y-150074603D01*
X137408753Y-149899485D01*
X137374589Y-149727732D01*
X137307574Y-149565945D01*
X137210284Y-149420340D01*
X137086457Y-149296513D01*
X136940852Y-149199223D01*
X136779065Y-149132208D01*
X136607312Y-149098044D01*
X136432194Y-149098044D01*
X136260441Y-149132208D01*
X136098654Y-149199223D01*
X135953049Y-149296513D01*
X135829222Y-149420340D01*
X135731932Y-149565945D01*
X135664917Y-149727732D01*
X135630753Y-149899485D01*
X122822485Y-149899485D01*
X121907462Y-148697678D01*
X120570819Y-146684700D01*
X119366868Y-144589665D01*
X119354234Y-144563970D01*
X132426613Y-144563970D01*
X132426613Y-144996030D01*
X132510904Y-145419787D01*
X132676246Y-145818958D01*
X132916285Y-146178203D01*
X133221797Y-146483715D01*
X133581042Y-146723754D01*
X133980213Y-146889096D01*
X134403970Y-146973387D01*
X134836030Y-146973387D01*
X135259787Y-146889096D01*
X135658958Y-146723754D01*
X136018203Y-146483715D01*
X136323715Y-146178203D01*
X136563754Y-145818958D01*
X136729096Y-145419787D01*
X136813387Y-144996030D01*
X136813387Y-144692445D01*
X164973000Y-144692445D01*
X164973000Y-144867563D01*
X165007164Y-145039316D01*
X165074179Y-145201103D01*
X165171469Y-145346708D01*
X165295296Y-145470535D01*
X165440901Y-145567825D01*
X165602688Y-145634840D01*
X165774441Y-145669004D01*
X165949559Y-145669004D01*
X166121312Y-145634840D01*
X166283099Y-145567825D01*
X166428704Y-145470535D01*
X166552531Y-145346708D01*
X166649821Y-145201103D01*
X166716836Y-145039316D01*
X166751000Y-144867563D01*
X166751000Y-144692445D01*
X166725445Y-144563970D01*
X167986613Y-144563970D01*
X167986613Y-144996030D01*
X168070904Y-145419787D01*
X168236246Y-145818958D01*
X168476285Y-146178203D01*
X168781797Y-146483715D01*
X169141042Y-146723754D01*
X169540213Y-146889096D01*
X169963970Y-146973387D01*
X170396030Y-146973387D01*
X170819787Y-146889096D01*
X171218958Y-146723754D01*
X171578203Y-146483715D01*
X171883715Y-146178203D01*
X172123754Y-145818958D01*
X172289096Y-145419787D01*
X172373387Y-144996030D01*
X172373387Y-144563970D01*
X172289096Y-144140213D01*
X172123754Y-143741042D01*
X171883715Y-143381797D01*
X171578203Y-143076285D01*
X171218958Y-142836246D01*
X170819787Y-142670904D01*
X170396030Y-142586613D01*
X169963970Y-142586613D01*
X169540213Y-142670904D01*
X169141042Y-142836246D01*
X168781797Y-143076285D01*
X168476285Y-143381797D01*
X168236246Y-143741042D01*
X168070904Y-144140213D01*
X167986613Y-144563970D01*
X166725445Y-144563970D01*
X166716836Y-144520692D01*
X166649821Y-144358905D01*
X166552531Y-144213300D01*
X166428704Y-144089473D01*
X166283099Y-143992183D01*
X166121312Y-143925168D01*
X165949559Y-143891004D01*
X165774441Y-143891004D01*
X165602688Y-143925168D01*
X165440901Y-143992183D01*
X165295296Y-144089473D01*
X165171469Y-144213300D01*
X165074179Y-144358905D01*
X165007164Y-144520692D01*
X164973000Y-144692445D01*
X136813387Y-144692445D01*
X136813387Y-144563970D01*
X136729096Y-144140213D01*
X136563754Y-143741042D01*
X136323715Y-143381797D01*
X136110359Y-143168441D01*
X137795000Y-143168441D01*
X137795000Y-143343559D01*
X137829164Y-143515312D01*
X137896179Y-143677099D01*
X137993469Y-143822704D01*
X138117296Y-143946531D01*
X138262901Y-144043821D01*
X138424688Y-144110836D01*
X138596441Y-144145000D01*
X138771559Y-144145000D01*
X138943312Y-144110836D01*
X139105099Y-144043821D01*
X139250704Y-143946531D01*
X139374531Y-143822704D01*
X139471821Y-143677099D01*
X139538836Y-143515312D01*
X139573000Y-143343559D01*
X139573000Y-143168441D01*
X139538836Y-142996688D01*
X139471821Y-142834901D01*
X139374531Y-142689296D01*
X139250704Y-142565469D01*
X139105099Y-142468179D01*
X138943312Y-142401164D01*
X138771559Y-142367000D01*
X138596441Y-142367000D01*
X138424688Y-142401164D01*
X138262901Y-142468179D01*
X138117296Y-142565469D01*
X137993469Y-142689296D01*
X137896179Y-142834901D01*
X137829164Y-142996688D01*
X137795000Y-143168441D01*
X136110359Y-143168441D01*
X136018203Y-143076285D01*
X135658958Y-142836246D01*
X135259787Y-142670904D01*
X134836030Y-142586613D01*
X134403970Y-142586613D01*
X133980213Y-142670904D01*
X133581042Y-142836246D01*
X133221797Y-143076285D01*
X132916285Y-143381797D01*
X132676246Y-143741042D01*
X132510904Y-144140213D01*
X132426613Y-144563970D01*
X119354234Y-144563970D01*
X118792912Y-143422441D01*
X126111000Y-143422441D01*
X126111000Y-143597559D01*
X126145164Y-143769312D01*
X126212179Y-143931099D01*
X126309469Y-144076704D01*
X126433296Y-144200531D01*
X126578901Y-144297821D01*
X126740688Y-144364836D01*
X126912441Y-144399000D01*
X127087559Y-144399000D01*
X127259312Y-144364836D01*
X127421099Y-144297821D01*
X127566704Y-144200531D01*
X127690531Y-144076704D01*
X127787821Y-143931099D01*
X127854836Y-143769312D01*
X127889000Y-143597559D01*
X127889000Y-143422441D01*
X127854836Y-143250688D01*
X127787821Y-143088901D01*
X127690531Y-142943296D01*
X127566704Y-142819469D01*
X127421099Y-142722179D01*
X127259312Y-142655164D01*
X127087559Y-142621000D01*
X126912441Y-142621000D01*
X126740688Y-142655164D01*
X126578901Y-142722179D01*
X126433296Y-142819469D01*
X126309469Y-142943296D01*
X126212179Y-143088901D01*
X126145164Y-143250688D01*
X126111000Y-143422441D01*
X118792912Y-143422441D01*
X118300618Y-142421291D01*
X117484979Y-140450673D01*
X139065000Y-140450673D01*
X139065000Y-140625791D01*
X139099164Y-140797544D01*
X139166179Y-140959331D01*
X139263469Y-141104936D01*
X139387296Y-141228763D01*
X139532901Y-141326053D01*
X139694688Y-141393068D01*
X139866441Y-141427232D01*
X140041559Y-141427232D01*
X140213312Y-141393068D01*
X140375099Y-141326053D01*
X140520704Y-141228763D01*
X140644531Y-141104936D01*
X140741821Y-140959331D01*
X140808836Y-140797544D01*
X140843000Y-140625791D01*
X140843000Y-140450673D01*
X140808836Y-140278920D01*
X140741821Y-140117133D01*
X140644531Y-139971528D01*
X140520704Y-139847701D01*
X140375099Y-139750411D01*
X140213312Y-139683396D01*
X140041559Y-139649232D01*
X139866441Y-139649232D01*
X139694688Y-139683396D01*
X139532901Y-139750411D01*
X139387296Y-139847701D01*
X139263469Y-139971528D01*
X139166179Y-140117133D01*
X139099164Y-140278920D01*
X139065000Y-140450673D01*
X117484979Y-140450673D01*
X117376526Y-140188647D01*
X117007757Y-139104441D01*
X146176998Y-139104441D01*
X146176998Y-139279559D01*
X146211162Y-139451312D01*
X146278177Y-139613099D01*
X146375467Y-139758704D01*
X146499294Y-139882531D01*
X146644899Y-139979821D01*
X146806686Y-140046836D01*
X146978439Y-140081000D01*
X147153557Y-140081000D01*
X147262284Y-140059373D01*
X147154931Y-140166726D01*
X147057641Y-140312331D01*
X146990626Y-140474118D01*
X146956462Y-140645871D01*
X146956462Y-140820989D01*
X146990626Y-140992742D01*
X147028690Y-141084635D01*
X146973164Y-141218684D01*
X146939000Y-141390437D01*
X146939000Y-141565555D01*
X146973164Y-141737308D01*
X147040179Y-141899095D01*
X147137469Y-142044700D01*
X147261296Y-142168527D01*
X147406901Y-142265817D01*
X147568688Y-142332832D01*
X147740441Y-142366996D01*
X147915559Y-142366996D01*
X148087312Y-142332832D01*
X148249099Y-142265817D01*
X148394704Y-142168527D01*
X148518531Y-142044700D01*
X148615821Y-141899095D01*
X148616091Y-141898441D01*
X150241000Y-141898441D01*
X150241000Y-142073559D01*
X150275164Y-142245312D01*
X150342179Y-142407099D01*
X150439469Y-142552704D01*
X150563296Y-142676531D01*
X150708901Y-142773821D01*
X150870688Y-142840836D01*
X151042441Y-142875000D01*
X151217559Y-142875000D01*
X151389312Y-142840836D01*
X151551099Y-142773821D01*
X151696704Y-142676531D01*
X151820531Y-142552704D01*
X151917821Y-142407099D01*
X151984836Y-142245312D01*
X152019000Y-142073559D01*
X152019000Y-141898441D01*
X152907994Y-141898441D01*
X152907994Y-142073559D01*
X152942158Y-142245312D01*
X153009173Y-142407099D01*
X153106463Y-142552704D01*
X153230290Y-142676531D01*
X153375895Y-142773821D01*
X153537682Y-142840836D01*
X153709435Y-142875000D01*
X153884553Y-142875000D01*
X154056306Y-142840836D01*
X154218093Y-142773821D01*
X154363698Y-142676531D01*
X154487525Y-142552704D01*
X154584815Y-142407099D01*
X154651830Y-142245312D01*
X154684682Y-142080154D01*
X154691308Y-142078836D01*
X154853095Y-142011821D01*
X154998700Y-141914531D01*
X155122527Y-141790704D01*
X155219817Y-141645099D01*
X155286832Y-141483312D01*
X155320996Y-141311559D01*
X155320996Y-141136441D01*
X155286832Y-140964688D01*
X155219817Y-140802901D01*
X155122527Y-140657296D01*
X154998700Y-140533469D01*
X154853095Y-140436179D01*
X154691308Y-140369164D01*
X154519555Y-140335000D01*
X154344437Y-140335000D01*
X154172684Y-140369164D01*
X154010897Y-140436179D01*
X153865292Y-140533469D01*
X153741465Y-140657296D01*
X153644175Y-140802901D01*
X153577160Y-140964688D01*
X153544308Y-141129846D01*
X153537682Y-141131164D01*
X153375895Y-141198179D01*
X153230290Y-141295469D01*
X153106463Y-141419296D01*
X153009173Y-141564901D01*
X152942158Y-141726688D01*
X152907994Y-141898441D01*
X152019000Y-141898441D01*
X151984836Y-141726688D01*
X151917821Y-141564901D01*
X151820531Y-141419296D01*
X151696704Y-141295469D01*
X151551099Y-141198179D01*
X151389312Y-141131164D01*
X151217559Y-141097000D01*
X151042441Y-141097000D01*
X150870688Y-141131164D01*
X150708901Y-141198179D01*
X150563296Y-141295469D01*
X150439469Y-141419296D01*
X150342179Y-141564901D01*
X150275164Y-141726688D01*
X150241000Y-141898441D01*
X148616091Y-141898441D01*
X148682836Y-141737308D01*
X148717000Y-141565555D01*
X148717000Y-141390437D01*
X148682836Y-141218684D01*
X148644772Y-141126791D01*
X148700298Y-140992742D01*
X148734462Y-140820989D01*
X148734462Y-140645871D01*
X148700298Y-140474118D01*
X148633283Y-140312331D01*
X148535993Y-140166726D01*
X148412166Y-140042899D01*
X148291605Y-139962343D01*
X148407292Y-139885044D01*
X148531119Y-139761217D01*
X148628409Y-139615612D01*
X148695424Y-139453825D01*
X148729588Y-139282072D01*
X148729588Y-139106954D01*
X148695424Y-138935201D01*
X148628409Y-138773414D01*
X148531119Y-138627809D01*
X148493341Y-138590031D01*
X154057410Y-138590031D01*
X154057410Y-138765149D01*
X154091574Y-138936902D01*
X154158589Y-139098689D01*
X154255879Y-139244294D01*
X154379706Y-139368121D01*
X154525311Y-139465411D01*
X154687098Y-139532426D01*
X154858851Y-139566590D01*
X155033969Y-139566590D01*
X155205722Y-139532426D01*
X155367509Y-139465411D01*
X155513114Y-139368121D01*
X155636941Y-139244294D01*
X155734231Y-139098689D01*
X155801246Y-138936902D01*
X155835410Y-138765149D01*
X155835410Y-138590031D01*
X155801246Y-138418278D01*
X155734231Y-138256491D01*
X155636941Y-138110886D01*
X155513114Y-137987059D01*
X155367509Y-137889769D01*
X155205722Y-137822754D01*
X155033969Y-137788590D01*
X154858851Y-137788590D01*
X154687098Y-137822754D01*
X154525311Y-137889769D01*
X154379706Y-137987059D01*
X154255879Y-138110886D01*
X154158589Y-138256491D01*
X154091574Y-138418278D01*
X154057410Y-138590031D01*
X148493341Y-138590031D01*
X148407292Y-138503982D01*
X148309053Y-138438341D01*
X148408745Y-138371729D01*
X148532572Y-138247902D01*
X148629862Y-138102297D01*
X148696877Y-137940510D01*
X148731041Y-137768757D01*
X148731041Y-137593639D01*
X148696877Y-137421886D01*
X148673632Y-137365769D01*
X148709072Y-137280211D01*
X148743236Y-137108458D01*
X148743236Y-136933340D01*
X148709072Y-136761587D01*
X148642057Y-136599800D01*
X148544767Y-136454195D01*
X148420940Y-136330368D01*
X148275335Y-136233078D01*
X148113548Y-136166063D01*
X147941795Y-136131899D01*
X147766677Y-136131899D01*
X147594924Y-136166063D01*
X147433137Y-136233078D01*
X147287532Y-136330368D01*
X147163705Y-136454195D01*
X147066415Y-136599800D01*
X146999400Y-136761587D01*
X146965236Y-136933340D01*
X146965236Y-137108458D01*
X146999400Y-137280211D01*
X147022645Y-137336328D01*
X146987205Y-137421886D01*
X146953041Y-137593639D01*
X146953041Y-137768757D01*
X146987205Y-137940510D01*
X147054220Y-138102297D01*
X147151510Y-138247902D01*
X147219781Y-138316173D01*
X147153557Y-138303000D01*
X146978439Y-138303000D01*
X146806686Y-138337164D01*
X146644899Y-138404179D01*
X146499294Y-138501469D01*
X146375467Y-138625296D01*
X146278177Y-138770901D01*
X146211162Y-138932688D01*
X146176998Y-139104441D01*
X117007757Y-139104441D01*
X116598434Y-137901009D01*
X115969591Y-135567928D01*
X115950324Y-135472241D01*
X126187200Y-135472241D01*
X126187200Y-135647359D01*
X126221364Y-135819112D01*
X126288379Y-135980899D01*
X126385669Y-136126504D01*
X126509496Y-136250331D01*
X126655101Y-136347621D01*
X126816888Y-136414636D01*
X126988641Y-136448800D01*
X127163759Y-136448800D01*
X127335512Y-136414636D01*
X127497299Y-136347621D01*
X127642904Y-136250331D01*
X127766731Y-136126504D01*
X127864021Y-135980899D01*
X127931036Y-135819112D01*
X127965200Y-135647359D01*
X127965200Y-135472241D01*
X127931036Y-135300488D01*
X127918015Y-135269051D01*
X146151590Y-135269051D01*
X146151590Y-135444169D01*
X146185754Y-135615922D01*
X146252769Y-135777709D01*
X146350059Y-135923314D01*
X146473886Y-136047141D01*
X146619491Y-136144431D01*
X146781278Y-136211446D01*
X146953031Y-136245610D01*
X147128149Y-136245610D01*
X147299902Y-136211446D01*
X147461689Y-136144431D01*
X147607294Y-136047141D01*
X147731121Y-135923314D01*
X147828411Y-135777709D01*
X147895426Y-135615922D01*
X147929590Y-135444169D01*
X147929590Y-135269051D01*
X147895426Y-135097298D01*
X147828411Y-134935511D01*
X147731121Y-134789906D01*
X147727656Y-134786441D01*
X148716988Y-134786441D01*
X148716988Y-134961559D01*
X148751152Y-135133312D01*
X148818167Y-135295099D01*
X148915457Y-135440704D01*
X149039284Y-135564531D01*
X149184889Y-135661821D01*
X149346676Y-135728836D01*
X149518429Y-135763000D01*
X149693547Y-135763000D01*
X149865300Y-135728836D01*
X150027087Y-135661821D01*
X150172692Y-135564531D01*
X150296519Y-135440704D01*
X150367994Y-135333734D01*
X150439469Y-135440704D01*
X150563296Y-135564531D01*
X150708901Y-135661821D01*
X150870688Y-135728836D01*
X151042441Y-135763000D01*
X151217559Y-135763000D01*
X151389312Y-135728836D01*
X151551099Y-135661821D01*
X151696704Y-135564531D01*
X151820531Y-135440704D01*
X151917821Y-135295099D01*
X151984836Y-135133312D01*
X152019000Y-134961559D01*
X152019000Y-134811813D01*
X152019028Y-134811813D01*
X152019028Y-134986931D01*
X152053192Y-135158684D01*
X152120207Y-135320471D01*
X152217497Y-135466076D01*
X152341324Y-135589903D01*
X152486929Y-135687193D01*
X152648716Y-135754208D01*
X152820469Y-135788372D01*
X152995587Y-135788372D01*
X153167340Y-135754208D01*
X153329127Y-135687193D01*
X153418293Y-135627614D01*
X153510078Y-135688943D01*
X153671865Y-135755958D01*
X153843618Y-135790122D01*
X154018736Y-135790122D01*
X154190489Y-135755958D01*
X154352276Y-135688943D01*
X154497881Y-135591653D01*
X154621708Y-135467826D01*
X154718998Y-135322221D01*
X154786013Y-135160434D01*
X154799772Y-135091262D01*
X155320991Y-135091262D01*
X155320991Y-135266380D01*
X155355155Y-135438133D01*
X155422170Y-135599920D01*
X155519460Y-135745525D01*
X155643287Y-135869352D01*
X155788892Y-135966642D01*
X155950679Y-136033657D01*
X156122432Y-136067821D01*
X156297550Y-136067821D01*
X156469303Y-136033657D01*
X156631090Y-135966642D01*
X156776695Y-135869352D01*
X156843606Y-135802441D01*
X158750000Y-135802441D01*
X158750000Y-135977559D01*
X158784164Y-136149312D01*
X158851179Y-136311099D01*
X158948469Y-136456704D01*
X159072296Y-136580531D01*
X159217901Y-136677821D01*
X159379688Y-136744836D01*
X159551441Y-136779000D01*
X159726559Y-136779000D01*
X159898312Y-136744836D01*
X160060099Y-136677821D01*
X160205704Y-136580531D01*
X160329531Y-136456704D01*
X160426821Y-136311099D01*
X160493836Y-136149312D01*
X160528000Y-135977559D01*
X160528000Y-135802441D01*
X176910996Y-135802441D01*
X176910996Y-135977559D01*
X176945160Y-136149312D01*
X177012175Y-136311099D01*
X177109465Y-136456704D01*
X177233292Y-136580531D01*
X177378897Y-136677821D01*
X177540684Y-136744836D01*
X177712437Y-136779000D01*
X177887555Y-136779000D01*
X178059308Y-136744836D01*
X178221095Y-136677821D01*
X178366700Y-136580531D01*
X178490527Y-136456704D01*
X178587817Y-136311099D01*
X178654832Y-136149312D01*
X178688996Y-135977559D01*
X178688996Y-135802441D01*
X178654832Y-135630688D01*
X178587817Y-135468901D01*
X178490527Y-135323296D01*
X178366700Y-135199469D01*
X178221095Y-135102179D01*
X178059308Y-135035164D01*
X177887555Y-135001000D01*
X177712437Y-135001000D01*
X177540684Y-135035164D01*
X177378897Y-135102179D01*
X177233292Y-135199469D01*
X177109465Y-135323296D01*
X177012175Y-135468901D01*
X176945160Y-135630688D01*
X176910996Y-135802441D01*
X160528000Y-135802441D01*
X160493836Y-135630688D01*
X160426821Y-135468901D01*
X160329531Y-135323296D01*
X160205704Y-135199469D01*
X160060099Y-135102179D01*
X159898312Y-135035164D01*
X159726559Y-135001000D01*
X159551441Y-135001000D01*
X159379688Y-135035164D01*
X159217901Y-135102179D01*
X159072296Y-135199469D01*
X158948469Y-135323296D01*
X158851179Y-135468901D01*
X158784164Y-135630688D01*
X158750000Y-135802441D01*
X156843606Y-135802441D01*
X156900522Y-135745525D01*
X156997812Y-135599920D01*
X157064827Y-135438133D01*
X157098991Y-135266380D01*
X157098991Y-135091262D01*
X157064827Y-134919509D01*
X156997812Y-134757722D01*
X156900522Y-134612117D01*
X156776695Y-134488290D01*
X156631090Y-134391000D01*
X156469303Y-134323985D01*
X156297550Y-134289821D01*
X156122432Y-134289821D01*
X155950679Y-134323985D01*
X155788892Y-134391000D01*
X155643287Y-134488290D01*
X155519460Y-134612117D01*
X155422170Y-134757722D01*
X155355155Y-134919509D01*
X155320991Y-135091262D01*
X154799772Y-135091262D01*
X154820177Y-134988681D01*
X154820177Y-134813563D01*
X154786013Y-134641810D01*
X154718998Y-134480023D01*
X154621708Y-134334418D01*
X154497881Y-134210591D01*
X154352276Y-134113301D01*
X154190489Y-134046286D01*
X154018736Y-134012122D01*
X153843618Y-134012122D01*
X153671865Y-134046286D01*
X153510078Y-134113301D01*
X153420912Y-134172880D01*
X153329127Y-134111551D01*
X153167340Y-134044536D01*
X152995587Y-134010372D01*
X152820469Y-134010372D01*
X152648716Y-134044536D01*
X152486929Y-134111551D01*
X152341324Y-134208841D01*
X152217497Y-134332668D01*
X152120207Y-134478273D01*
X152053192Y-134640060D01*
X152019028Y-134811813D01*
X152019000Y-134811813D01*
X152019000Y-134786441D01*
X151984836Y-134614688D01*
X151917821Y-134452901D01*
X151820531Y-134307296D01*
X151696704Y-134183469D01*
X151551099Y-134086179D01*
X151389312Y-134019164D01*
X151217559Y-133985000D01*
X151042441Y-133985000D01*
X150870688Y-134019164D01*
X150708901Y-134086179D01*
X150563296Y-134183469D01*
X150439469Y-134307296D01*
X150367994Y-134414266D01*
X150296519Y-134307296D01*
X150172692Y-134183469D01*
X150027087Y-134086179D01*
X149865300Y-134019164D01*
X149693547Y-133985000D01*
X149518429Y-133985000D01*
X149346676Y-134019164D01*
X149184889Y-134086179D01*
X149039284Y-134183469D01*
X148915457Y-134307296D01*
X148818167Y-134452901D01*
X148751152Y-134614688D01*
X148716988Y-134786441D01*
X147727656Y-134786441D01*
X147607294Y-134666079D01*
X147461689Y-134568789D01*
X147299902Y-134501774D01*
X147128149Y-134467610D01*
X146953031Y-134467610D01*
X146781278Y-134501774D01*
X146619491Y-134568789D01*
X146473886Y-134666079D01*
X146350059Y-134789906D01*
X146252769Y-134935511D01*
X146185754Y-135097298D01*
X146151590Y-135269051D01*
X127918015Y-135269051D01*
X127864021Y-135138701D01*
X127766731Y-134993096D01*
X127642904Y-134869269D01*
X127497299Y-134771979D01*
X127335512Y-134704964D01*
X127163759Y-134670800D01*
X126988641Y-134670800D01*
X126816888Y-134704964D01*
X126655101Y-134771979D01*
X126509496Y-134869269D01*
X126385669Y-134993096D01*
X126288379Y-135138701D01*
X126221364Y-135300488D01*
X126187200Y-135472241D01*
X115950324Y-135472241D01*
X115492617Y-133199131D01*
X115169502Y-130804486D01*
X115001592Y-128393982D01*
X114989587Y-125977677D01*
X115133538Y-123565618D01*
X115180426Y-123190000D01*
X116617815Y-123190000D01*
X116646487Y-123481111D01*
X116731401Y-123761034D01*
X116869294Y-124019014D01*
X117054866Y-124245134D01*
X117280986Y-124430706D01*
X117335791Y-124460000D01*
X117280986Y-124489294D01*
X117054866Y-124674866D01*
X116869294Y-124900986D01*
X116731401Y-125158966D01*
X116646487Y-125438889D01*
X116617815Y-125730000D01*
X116646487Y-126021111D01*
X116731401Y-126301034D01*
X116869294Y-126559014D01*
X117054866Y-126785134D01*
X117280986Y-126970706D01*
X117335791Y-127000000D01*
X117280986Y-127029294D01*
X117054866Y-127214866D01*
X116869294Y-127440986D01*
X116731401Y-127698966D01*
X116646487Y-127978889D01*
X116617815Y-128270000D01*
X116646487Y-128561111D01*
X116731401Y-128841034D01*
X116869294Y-129099014D01*
X117054866Y-129325134D01*
X117280986Y-129510706D01*
X117335791Y-129540000D01*
X117280986Y-129569294D01*
X117054866Y-129754866D01*
X116869294Y-129980986D01*
X116731401Y-130238966D01*
X116646487Y-130518889D01*
X116617815Y-130810000D01*
X116646487Y-131101111D01*
X116731401Y-131381034D01*
X116869294Y-131639014D01*
X117054866Y-131865134D01*
X117280986Y-132050706D01*
X117335791Y-132080000D01*
X117280986Y-132109294D01*
X117054866Y-132294866D01*
X116869294Y-132520986D01*
X116731401Y-132778966D01*
X116646487Y-133058889D01*
X116617815Y-133350000D01*
X116646487Y-133641111D01*
X116731401Y-133921034D01*
X116869294Y-134179014D01*
X117054866Y-134405134D01*
X117280986Y-134590706D01*
X117538966Y-134728599D01*
X117818889Y-134813513D01*
X118037050Y-134835000D01*
X118182950Y-134835000D01*
X118401111Y-134813513D01*
X118681034Y-134728599D01*
X118939014Y-134590706D01*
X119165134Y-134405134D01*
X119350706Y-134179014D01*
X119488599Y-133921034D01*
X119573513Y-133641111D01*
X119602185Y-133350000D01*
X119573513Y-133058889D01*
X119488599Y-132778966D01*
X119350706Y-132520986D01*
X119165134Y-132294866D01*
X118939014Y-132109294D01*
X118884209Y-132080000D01*
X118939014Y-132050706D01*
X119165134Y-131865134D01*
X119350706Y-131639014D01*
X119488599Y-131381034D01*
X119573513Y-131101111D01*
X119602185Y-130810000D01*
X119573513Y-130518889D01*
X119488599Y-130238966D01*
X119470017Y-130204200D01*
X139326928Y-130204200D01*
X139339188Y-130328682D01*
X139375498Y-130448380D01*
X139434463Y-130558694D01*
X139513815Y-130655385D01*
X139610506Y-130734737D01*
X139720820Y-130793702D01*
X139840518Y-130830012D01*
X139965000Y-130842272D01*
X140049250Y-130839200D01*
X140208000Y-130680450D01*
X140208000Y-128871200D01*
X139488750Y-128871200D01*
X139330000Y-129029950D01*
X139326928Y-130204200D01*
X119470017Y-130204200D01*
X119350706Y-129980986D01*
X119165134Y-129754866D01*
X118939014Y-129569294D01*
X118884209Y-129540000D01*
X118939014Y-129510706D01*
X119165134Y-129325134D01*
X119350706Y-129099014D01*
X119488599Y-128841034D01*
X119573513Y-128561111D01*
X119585791Y-128436441D01*
X119710179Y-128436441D01*
X119710179Y-128611559D01*
X119744343Y-128783312D01*
X119811358Y-128945099D01*
X119908648Y-129090704D01*
X120032475Y-129214531D01*
X120178080Y-129311821D01*
X120339867Y-129378836D01*
X120511620Y-129413000D01*
X120686738Y-129413000D01*
X120858491Y-129378836D01*
X121020278Y-129311821D01*
X121165883Y-129214531D01*
X121289710Y-129090704D01*
X121387000Y-128945099D01*
X121454015Y-128783312D01*
X121488179Y-128611559D01*
X121488179Y-128436441D01*
X121454015Y-128264688D01*
X121387000Y-128102901D01*
X121289710Y-127957296D01*
X121165883Y-127833469D01*
X121020278Y-127736179D01*
X120858491Y-127669164D01*
X120686738Y-127635000D01*
X120511620Y-127635000D01*
X120339867Y-127669164D01*
X120178080Y-127736179D01*
X120032475Y-127833469D01*
X119908648Y-127957296D01*
X119811358Y-128102901D01*
X119744343Y-128264688D01*
X119710179Y-128436441D01*
X119585791Y-128436441D01*
X119602185Y-128270000D01*
X119573513Y-127978889D01*
X119488599Y-127698966D01*
X119350706Y-127440986D01*
X119165134Y-127214866D01*
X118939014Y-127029294D01*
X118884209Y-127000000D01*
X118939014Y-126970706D01*
X119010003Y-126912446D01*
X129158995Y-126912446D01*
X129158995Y-127087564D01*
X129193159Y-127259317D01*
X129260174Y-127421104D01*
X129357464Y-127566709D01*
X129481291Y-127690536D01*
X129626896Y-127787826D01*
X129788683Y-127854841D01*
X129960436Y-127889005D01*
X130135554Y-127889005D01*
X130307307Y-127854841D01*
X130469094Y-127787826D01*
X130614699Y-127690536D01*
X130738526Y-127566709D01*
X130835816Y-127421104D01*
X130902831Y-127259317D01*
X130936995Y-127087564D01*
X130936995Y-126912446D01*
X130933085Y-126892789D01*
X137360000Y-126892789D01*
X137360000Y-127165611D01*
X137413225Y-127433189D01*
X137517629Y-127685243D01*
X137669201Y-127912086D01*
X137862114Y-128104999D01*
X138088957Y-128256571D01*
X138341011Y-128360975D01*
X138608589Y-128414200D01*
X138881411Y-128414200D01*
X139148989Y-128360975D01*
X139329549Y-128286185D01*
X139330000Y-128458450D01*
X139488750Y-128617200D01*
X140208000Y-128617200D01*
X140208000Y-128597200D01*
X140462000Y-128597200D01*
X140462000Y-128617200D01*
X140482000Y-128617200D01*
X140482000Y-128871200D01*
X140462000Y-128871200D01*
X140462000Y-130680450D01*
X140620750Y-130839200D01*
X140705000Y-130842272D01*
X140829482Y-130830012D01*
X140949180Y-130793702D01*
X140970000Y-130782573D01*
X140990820Y-130793702D01*
X141110518Y-130830012D01*
X141235000Y-130842272D01*
X141975000Y-130842272D01*
X142099482Y-130830012D01*
X142219180Y-130793702D01*
X142240000Y-130782573D01*
X142260820Y-130793702D01*
X142380518Y-130830012D01*
X142505000Y-130842272D01*
X142589250Y-130839200D01*
X142748000Y-130680450D01*
X142748000Y-128871200D01*
X142728000Y-128871200D01*
X142728000Y-128617200D01*
X142748000Y-128617200D01*
X142748000Y-128597200D01*
X143002000Y-128597200D01*
X143002000Y-128617200D01*
X143022000Y-128617200D01*
X143022000Y-128871200D01*
X143002000Y-128871200D01*
X143002000Y-130680450D01*
X143160750Y-130839200D01*
X143245000Y-130842272D01*
X143369482Y-130830012D01*
X143489180Y-130793702D01*
X143510000Y-130782573D01*
X143530820Y-130793702D01*
X143650518Y-130830012D01*
X143775000Y-130842272D01*
X144515000Y-130842272D01*
X144639482Y-130830012D01*
X144759180Y-130793702D01*
X144780000Y-130782573D01*
X144800820Y-130793702D01*
X144920518Y-130830012D01*
X145045000Y-130842272D01*
X145129250Y-130839200D01*
X145288000Y-130680450D01*
X145288000Y-128871200D01*
X145268000Y-128871200D01*
X145268000Y-128617200D01*
X145288000Y-128617200D01*
X145288000Y-125441200D01*
X145268000Y-125441200D01*
X145268000Y-125187200D01*
X145288000Y-125187200D01*
X145288000Y-123377950D01*
X145542000Y-123377950D01*
X145542000Y-125187200D01*
X145562000Y-125187200D01*
X145562000Y-125441200D01*
X145542000Y-125441200D01*
X145542000Y-128617200D01*
X145562000Y-128617200D01*
X145562000Y-128871200D01*
X145542000Y-128871200D01*
X145542000Y-130680450D01*
X145700750Y-130839200D01*
X145785000Y-130842272D01*
X145909482Y-130830012D01*
X146029180Y-130793702D01*
X146050000Y-130782573D01*
X146070820Y-130793702D01*
X146190518Y-130830012D01*
X146315000Y-130842272D01*
X147055000Y-130842272D01*
X147179482Y-130830012D01*
X147299180Y-130793702D01*
X147320000Y-130782573D01*
X147340820Y-130793702D01*
X147460518Y-130830012D01*
X147585000Y-130842272D01*
X147669250Y-130839200D01*
X147828000Y-130680450D01*
X147828000Y-128871200D01*
X147808000Y-128871200D01*
X147808000Y-128617200D01*
X147828000Y-128617200D01*
X147828000Y-125441200D01*
X147808000Y-125441200D01*
X147808000Y-125187200D01*
X147828000Y-125187200D01*
X147828000Y-123377950D01*
X148082000Y-123377950D01*
X148082000Y-125187200D01*
X148102000Y-125187200D01*
X148102000Y-125441200D01*
X148082000Y-125441200D01*
X148082000Y-128617200D01*
X148102000Y-128617200D01*
X148102000Y-128871200D01*
X148082000Y-128871200D01*
X148082000Y-130680450D01*
X148240750Y-130839200D01*
X148325000Y-130842272D01*
X148449482Y-130830012D01*
X148569180Y-130793702D01*
X148590000Y-130782573D01*
X148610820Y-130793702D01*
X148730518Y-130830012D01*
X148855000Y-130842272D01*
X149595000Y-130842272D01*
X149719482Y-130830012D01*
X149839180Y-130793702D01*
X149860000Y-130782573D01*
X149880820Y-130793702D01*
X150000518Y-130830012D01*
X150125000Y-130842272D01*
X150209250Y-130839200D01*
X150368000Y-130680450D01*
X150368000Y-128871200D01*
X150622000Y-128871200D01*
X150622000Y-130680450D01*
X150780750Y-130839200D01*
X150865000Y-130842272D01*
X150989482Y-130830012D01*
X151109180Y-130793702D01*
X151130000Y-130782573D01*
X151150820Y-130793702D01*
X151270518Y-130830012D01*
X151395000Y-130842272D01*
X151479250Y-130839200D01*
X151638000Y-130680450D01*
X151638000Y-128871200D01*
X150622000Y-128871200D01*
X150368000Y-128871200D01*
X150348000Y-128871200D01*
X150348000Y-128617200D01*
X150368000Y-128617200D01*
X150368000Y-125441200D01*
X150622000Y-125441200D01*
X150622000Y-128617200D01*
X151638000Y-128617200D01*
X151638000Y-125441200D01*
X150622000Y-125441200D01*
X150368000Y-125441200D01*
X150348000Y-125441200D01*
X150348000Y-125187200D01*
X150368000Y-125187200D01*
X150368000Y-123377950D01*
X150622000Y-123377950D01*
X150622000Y-125187200D01*
X151638000Y-125187200D01*
X151638000Y-123377950D01*
X151479250Y-123219200D01*
X151395000Y-123216128D01*
X151270518Y-123228388D01*
X151150820Y-123264698D01*
X151130000Y-123275827D01*
X151109180Y-123264698D01*
X150989482Y-123228388D01*
X150865000Y-123216128D01*
X150780750Y-123219200D01*
X150622000Y-123377950D01*
X150368000Y-123377950D01*
X150209250Y-123219200D01*
X150125000Y-123216128D01*
X150000518Y-123228388D01*
X149880820Y-123264698D01*
X149860000Y-123275827D01*
X149839180Y-123264698D01*
X149719482Y-123228388D01*
X149595000Y-123216128D01*
X148855000Y-123216128D01*
X148730518Y-123228388D01*
X148610820Y-123264698D01*
X148590000Y-123275827D01*
X148569180Y-123264698D01*
X148449482Y-123228388D01*
X148325000Y-123216128D01*
X148240750Y-123219200D01*
X148082000Y-123377950D01*
X147828000Y-123377950D01*
X147669250Y-123219200D01*
X147585000Y-123216128D01*
X147460518Y-123228388D01*
X147340820Y-123264698D01*
X147320000Y-123275827D01*
X147299180Y-123264698D01*
X147179482Y-123228388D01*
X147055000Y-123216128D01*
X146315000Y-123216128D01*
X146190518Y-123228388D01*
X146070820Y-123264698D01*
X146050000Y-123275827D01*
X146029180Y-123264698D01*
X145909482Y-123228388D01*
X145785000Y-123216128D01*
X145700750Y-123219200D01*
X145542000Y-123377950D01*
X145288000Y-123377950D01*
X145129250Y-123219200D01*
X145045000Y-123216128D01*
X144920518Y-123228388D01*
X144800820Y-123264698D01*
X144780000Y-123275827D01*
X144759180Y-123264698D01*
X144639482Y-123228388D01*
X144515000Y-123216128D01*
X143775000Y-123216128D01*
X143650518Y-123228388D01*
X143530820Y-123264698D01*
X143510000Y-123275827D01*
X143489180Y-123264698D01*
X143369482Y-123228388D01*
X143245000Y-123216128D01*
X142505000Y-123216128D01*
X142380518Y-123228388D01*
X142260820Y-123264698D01*
X142240000Y-123275827D01*
X142219180Y-123264698D01*
X142099482Y-123228388D01*
X141975000Y-123216128D01*
X141890750Y-123219200D01*
X141732000Y-123377950D01*
X141732000Y-125187200D01*
X141752000Y-125187200D01*
X141752000Y-125441200D01*
X141732000Y-125441200D01*
X141732000Y-125461200D01*
X141478000Y-125461200D01*
X141478000Y-125441200D01*
X141458000Y-125441200D01*
X141458000Y-125187200D01*
X141478000Y-125187200D01*
X141478000Y-123377950D01*
X141319250Y-123219200D01*
X141235000Y-123216128D01*
X141110518Y-123228388D01*
X140990820Y-123264698D01*
X140970000Y-123275827D01*
X140949180Y-123264698D01*
X140829482Y-123228388D01*
X140705000Y-123216128D01*
X139965000Y-123216128D01*
X139840518Y-123228388D01*
X139720820Y-123264698D01*
X139610506Y-123323663D01*
X139513815Y-123403015D01*
X139434463Y-123499706D01*
X139375498Y-123610020D01*
X139339188Y-123729718D01*
X139326928Y-123854200D01*
X139326928Y-125771130D01*
X139148989Y-125697425D01*
X138881411Y-125644200D01*
X138608589Y-125644200D01*
X138341011Y-125697425D01*
X138088957Y-125801829D01*
X137862114Y-125953401D01*
X137669201Y-126146314D01*
X137517629Y-126373157D01*
X137413225Y-126625211D01*
X137360000Y-126892789D01*
X130933085Y-126892789D01*
X130902831Y-126740693D01*
X130835816Y-126578906D01*
X130738526Y-126433301D01*
X130614699Y-126309474D01*
X130469094Y-126212184D01*
X130307307Y-126145169D01*
X130135554Y-126111005D01*
X129960436Y-126111005D01*
X129788683Y-126145169D01*
X129626896Y-126212184D01*
X129481291Y-126309474D01*
X129357464Y-126433301D01*
X129260174Y-126578906D01*
X129193159Y-126740693D01*
X129158995Y-126912446D01*
X119010003Y-126912446D01*
X119165134Y-126785134D01*
X119350706Y-126559014D01*
X119488599Y-126301034D01*
X119573513Y-126021111D01*
X119602185Y-125730000D01*
X119573513Y-125438889D01*
X119488599Y-125158966D01*
X119350706Y-124900986D01*
X119165134Y-124674866D01*
X118939014Y-124489294D01*
X118884209Y-124460000D01*
X118939014Y-124430706D01*
X119165134Y-124245134D01*
X119350706Y-124019014D01*
X119488599Y-123761034D01*
X119573513Y-123481111D01*
X119579914Y-123416119D01*
X134171678Y-123416119D01*
X134171678Y-123591237D01*
X134205842Y-123762990D01*
X134272857Y-123924777D01*
X134370147Y-124070382D01*
X134493974Y-124194209D01*
X134639579Y-124291499D01*
X134801366Y-124358514D01*
X134973119Y-124392678D01*
X135148237Y-124392678D01*
X135319990Y-124358514D01*
X135481777Y-124291499D01*
X135627382Y-124194209D01*
X135751209Y-124070382D01*
X135848499Y-123924777D01*
X135915514Y-123762990D01*
X135949678Y-123591237D01*
X135949678Y-123416119D01*
X135915514Y-123244366D01*
X135865109Y-123122679D01*
X135915515Y-123000989D01*
X135949679Y-122829236D01*
X135949679Y-122654118D01*
X135915515Y-122482365D01*
X135856728Y-122340441D01*
X151765000Y-122340441D01*
X151765000Y-122515559D01*
X151799164Y-122687312D01*
X151866179Y-122849099D01*
X151963469Y-122994704D01*
X152087296Y-123118531D01*
X152232901Y-123215821D01*
X152273523Y-123232647D01*
X152259482Y-123228388D01*
X152135000Y-123216128D01*
X152050750Y-123219200D01*
X151892000Y-123377950D01*
X151892000Y-125187200D01*
X151912000Y-125187200D01*
X151912000Y-125441200D01*
X151892000Y-125441200D01*
X151892000Y-128617200D01*
X151912000Y-128617200D01*
X151912000Y-128871200D01*
X151892000Y-128871200D01*
X151892000Y-130680450D01*
X152050750Y-130839200D01*
X152135000Y-130842272D01*
X152259482Y-130830012D01*
X152379180Y-130793702D01*
X152400000Y-130782573D01*
X152420820Y-130793702D01*
X152540518Y-130830012D01*
X152665000Y-130842272D01*
X153405000Y-130842272D01*
X153529482Y-130830012D01*
X153649180Y-130793702D01*
X153670000Y-130782573D01*
X153690820Y-130793702D01*
X153810518Y-130830012D01*
X153935000Y-130842272D01*
X154675000Y-130842272D01*
X154799482Y-130830012D01*
X154919180Y-130793702D01*
X154940000Y-130782573D01*
X154960820Y-130793702D01*
X155080518Y-130830012D01*
X155205000Y-130842272D01*
X155945000Y-130842272D01*
X156069482Y-130830012D01*
X156189180Y-130793702D01*
X156210000Y-130782573D01*
X156230820Y-130793702D01*
X156350518Y-130830012D01*
X156475000Y-130842272D01*
X157215000Y-130842272D01*
X157339482Y-130830012D01*
X157459180Y-130793702D01*
X157480000Y-130782573D01*
X157500820Y-130793702D01*
X157620518Y-130830012D01*
X157745000Y-130842272D01*
X158485000Y-130842272D01*
X158609482Y-130830012D01*
X158729180Y-130793702D01*
X158750000Y-130782573D01*
X158770820Y-130793702D01*
X158890518Y-130830012D01*
X159015000Y-130842272D01*
X159755000Y-130842272D01*
X159879482Y-130830012D01*
X159999180Y-130793702D01*
X160020000Y-130782573D01*
X160040820Y-130793702D01*
X160160518Y-130830012D01*
X160285000Y-130842272D01*
X161025000Y-130842272D01*
X161149482Y-130830012D01*
X161269180Y-130793702D01*
X161290000Y-130782573D01*
X161310820Y-130793702D01*
X161430518Y-130830012D01*
X161555000Y-130842272D01*
X162295000Y-130842272D01*
X162419482Y-130830012D01*
X162539180Y-130793702D01*
X162560000Y-130782573D01*
X162580820Y-130793702D01*
X162700518Y-130830012D01*
X162825000Y-130842272D01*
X162909250Y-130839200D01*
X163068000Y-130680450D01*
X163068000Y-128871200D01*
X163048000Y-128871200D01*
X163048000Y-128617200D01*
X163068000Y-128617200D01*
X163068000Y-128597200D01*
X163322000Y-128597200D01*
X163322000Y-128617200D01*
X163342000Y-128617200D01*
X163342000Y-128871200D01*
X163322000Y-128871200D01*
X163322000Y-130680450D01*
X163480750Y-130839200D01*
X163565000Y-130842272D01*
X163689482Y-130830012D01*
X163809180Y-130793702D01*
X163830000Y-130782573D01*
X163850820Y-130793702D01*
X163970518Y-130830012D01*
X164095000Y-130842272D01*
X164835000Y-130842272D01*
X164959482Y-130830012D01*
X165079180Y-130793702D01*
X165189494Y-130734737D01*
X165286185Y-130655385D01*
X165365537Y-130558694D01*
X165424502Y-130448380D01*
X165460812Y-130328682D01*
X165473072Y-130204200D01*
X165473072Y-128287270D01*
X165651011Y-128360975D01*
X165918589Y-128414200D01*
X166191411Y-128414200D01*
X166458989Y-128360975D01*
X166711043Y-128256571D01*
X166937886Y-128104999D01*
X167114444Y-127928441D01*
X167767000Y-127928441D01*
X167767000Y-128103559D01*
X167801164Y-128275312D01*
X167868179Y-128437099D01*
X167965469Y-128582704D01*
X168089296Y-128706531D01*
X168234901Y-128803821D01*
X168396688Y-128870836D01*
X168568441Y-128905000D01*
X168743559Y-128905000D01*
X168915312Y-128870836D01*
X169077099Y-128803821D01*
X169222704Y-128706531D01*
X169346531Y-128582704D01*
X169443821Y-128437099D01*
X169510836Y-128275312D01*
X169538376Y-128136859D01*
X169600531Y-128074704D01*
X169697821Y-127929099D01*
X169703356Y-127915736D01*
X170319705Y-127915736D01*
X170319705Y-128090854D01*
X170353869Y-128262607D01*
X170420884Y-128424394D01*
X170518174Y-128569999D01*
X170642001Y-128693826D01*
X170787606Y-128791116D01*
X170949393Y-128858131D01*
X171121146Y-128892295D01*
X171296264Y-128892295D01*
X171468017Y-128858131D01*
X171629804Y-128791116D01*
X171775409Y-128693826D01*
X171899236Y-128569999D01*
X171996526Y-128424394D01*
X172063541Y-128262607D01*
X172097705Y-128090854D01*
X172097705Y-127915736D01*
X172063541Y-127743983D01*
X171996526Y-127582196D01*
X171899236Y-127436591D01*
X171775409Y-127312764D01*
X171629804Y-127215474D01*
X171468017Y-127148459D01*
X171296264Y-127114295D01*
X171121146Y-127114295D01*
X170949393Y-127148459D01*
X170787606Y-127215474D01*
X170642001Y-127312764D01*
X170518174Y-127436591D01*
X170420884Y-127582196D01*
X170353869Y-127743983D01*
X170319705Y-127915736D01*
X169703356Y-127915736D01*
X169764836Y-127767312D01*
X169799000Y-127595559D01*
X169799000Y-127420441D01*
X169764836Y-127248688D01*
X169697821Y-127086901D01*
X169600531Y-126941296D01*
X169476704Y-126817469D01*
X169331099Y-126720179D01*
X169169312Y-126653164D01*
X168997559Y-126619000D01*
X168822441Y-126619000D01*
X168650688Y-126653164D01*
X168488901Y-126720179D01*
X168343296Y-126817469D01*
X168219469Y-126941296D01*
X168122179Y-127086901D01*
X168055164Y-127248688D01*
X168027624Y-127387141D01*
X167965469Y-127449296D01*
X167868179Y-127594901D01*
X167801164Y-127756688D01*
X167767000Y-127928441D01*
X167114444Y-127928441D01*
X167130799Y-127912086D01*
X167282371Y-127685243D01*
X167386775Y-127433189D01*
X167440000Y-127165611D01*
X167440000Y-126892789D01*
X167386775Y-126625211D01*
X167282371Y-126373157D01*
X167130799Y-126146314D01*
X166937886Y-125953401D01*
X166711043Y-125801829D01*
X166458989Y-125697425D01*
X166191411Y-125644200D01*
X165918589Y-125644200D01*
X165651011Y-125697425D01*
X165470451Y-125772215D01*
X165470000Y-125599950D01*
X165311250Y-125441200D01*
X164592000Y-125441200D01*
X164592000Y-125461200D01*
X164338000Y-125461200D01*
X164338000Y-125441200D01*
X164318000Y-125441200D01*
X164318000Y-125187200D01*
X164338000Y-125187200D01*
X164338000Y-123377950D01*
X164592000Y-123377950D01*
X164592000Y-125187200D01*
X165311250Y-125187200D01*
X165470000Y-125028450D01*
X165473072Y-123854200D01*
X165460812Y-123729718D01*
X165424502Y-123610020D01*
X165365537Y-123499706D01*
X165286185Y-123403015D01*
X165189494Y-123323663D01*
X165079180Y-123264698D01*
X164959482Y-123228388D01*
X164835000Y-123216128D01*
X164750750Y-123219200D01*
X164592000Y-123377950D01*
X164338000Y-123377950D01*
X164179250Y-123219200D01*
X164095000Y-123216128D01*
X163970518Y-123228388D01*
X163850820Y-123264698D01*
X163830000Y-123275827D01*
X163809180Y-123264698D01*
X163689482Y-123228388D01*
X163565000Y-123216128D01*
X162825000Y-123216128D01*
X162700518Y-123228388D01*
X162580820Y-123264698D01*
X162560000Y-123275827D01*
X162539180Y-123264698D01*
X162419482Y-123228388D01*
X162295000Y-123216128D01*
X162210750Y-123219200D01*
X162052000Y-123377950D01*
X162052000Y-125187200D01*
X162072000Y-125187200D01*
X162072000Y-125441200D01*
X162052000Y-125441200D01*
X162052000Y-125461200D01*
X161798000Y-125461200D01*
X161798000Y-125441200D01*
X161778000Y-125441200D01*
X161778000Y-125187200D01*
X161798000Y-125187200D01*
X161798000Y-123377950D01*
X161639250Y-123219200D01*
X161555000Y-123216128D01*
X161430518Y-123228388D01*
X161310820Y-123264698D01*
X161290000Y-123275827D01*
X161269180Y-123264698D01*
X161149482Y-123228388D01*
X161025000Y-123216128D01*
X160285000Y-123216128D01*
X160160518Y-123228388D01*
X160040820Y-123264698D01*
X160020000Y-123275827D01*
X159999180Y-123264698D01*
X159879482Y-123228388D01*
X159755000Y-123216128D01*
X159015000Y-123216128D01*
X158890518Y-123228388D01*
X158770820Y-123264698D01*
X158750000Y-123275827D01*
X158729180Y-123264698D01*
X158609482Y-123228388D01*
X158485000Y-123216128D01*
X157745000Y-123216128D01*
X157620518Y-123228388D01*
X157500820Y-123264698D01*
X157480000Y-123275827D01*
X157459180Y-123264698D01*
X157339482Y-123228388D01*
X157215000Y-123216128D01*
X156475000Y-123216128D01*
X156350518Y-123228388D01*
X156230820Y-123264698D01*
X156210000Y-123275827D01*
X156189180Y-123264698D01*
X156069482Y-123228388D01*
X155945000Y-123216128D01*
X155205000Y-123216128D01*
X155080518Y-123228388D01*
X155066477Y-123232647D01*
X155107099Y-123215821D01*
X155252704Y-123118531D01*
X155376531Y-122994704D01*
X155473821Y-122849099D01*
X155540836Y-122687312D01*
X155575000Y-122515559D01*
X155575000Y-122340441D01*
X155540836Y-122168688D01*
X155473821Y-122006901D01*
X155376531Y-121861296D01*
X155252704Y-121737469D01*
X155107099Y-121640179D01*
X154945312Y-121573164D01*
X154773559Y-121539000D01*
X154598441Y-121539000D01*
X154426688Y-121573164D01*
X154264901Y-121640179D01*
X154119296Y-121737469D01*
X153995469Y-121861296D01*
X153898179Y-122006901D01*
X153831164Y-122168688D01*
X153797000Y-122340441D01*
X153797000Y-122515559D01*
X153831164Y-122687312D01*
X153898179Y-122849099D01*
X153995469Y-122994704D01*
X154119296Y-123118531D01*
X154264901Y-123215821D01*
X154265642Y-123216128D01*
X153935000Y-123216128D01*
X153810518Y-123228388D01*
X153690820Y-123264698D01*
X153670000Y-123275827D01*
X153649180Y-123264698D01*
X153529482Y-123228388D01*
X153405000Y-123216128D01*
X153074358Y-123216128D01*
X153075099Y-123215821D01*
X153220704Y-123118531D01*
X153344531Y-122994704D01*
X153441821Y-122849099D01*
X153508836Y-122687312D01*
X153543000Y-122515559D01*
X153543000Y-122340441D01*
X153508836Y-122168688D01*
X153441821Y-122006901D01*
X153344531Y-121861296D01*
X153220704Y-121737469D01*
X153075099Y-121640179D01*
X152913312Y-121573164D01*
X152741559Y-121539000D01*
X152566441Y-121539000D01*
X152394688Y-121573164D01*
X152232901Y-121640179D01*
X152087296Y-121737469D01*
X151963469Y-121861296D01*
X151866179Y-122006901D01*
X151799164Y-122168688D01*
X151765000Y-122340441D01*
X135856728Y-122340441D01*
X135848500Y-122320578D01*
X135751210Y-122174973D01*
X135627383Y-122051146D01*
X135481778Y-121953856D01*
X135319991Y-121886841D01*
X135148238Y-121852677D01*
X134973120Y-121852677D01*
X134801367Y-121886841D01*
X134639580Y-121953856D01*
X134493975Y-122051146D01*
X134370148Y-122174973D01*
X134272858Y-122320578D01*
X134205843Y-122482365D01*
X134171679Y-122654118D01*
X134171679Y-122829236D01*
X134205843Y-123000989D01*
X134256248Y-123122676D01*
X134205842Y-123244366D01*
X134171678Y-123416119D01*
X119579914Y-123416119D01*
X119602185Y-123190000D01*
X119573513Y-122898889D01*
X119488599Y-122618966D01*
X119350706Y-122360986D01*
X119165134Y-122134866D01*
X119135313Y-122110393D01*
X119204180Y-122089502D01*
X119314494Y-122030537D01*
X119408862Y-121953091D01*
X132137150Y-121953091D01*
X132137150Y-122128209D01*
X132171314Y-122299962D01*
X132238329Y-122461749D01*
X132335619Y-122607354D01*
X132459446Y-122731181D01*
X132605051Y-122828471D01*
X132766838Y-122895486D01*
X132938591Y-122929650D01*
X133113709Y-122929650D01*
X133285462Y-122895486D01*
X133447249Y-122828471D01*
X133592854Y-122731181D01*
X133716681Y-122607354D01*
X133813971Y-122461749D01*
X133880986Y-122299962D01*
X133915150Y-122128209D01*
X133915150Y-121953091D01*
X133880986Y-121781338D01*
X133813971Y-121619551D01*
X133716681Y-121473946D01*
X133592854Y-121350119D01*
X133447249Y-121252829D01*
X133285462Y-121185814D01*
X133113709Y-121151650D01*
X132938591Y-121151650D01*
X132766838Y-121185814D01*
X132605051Y-121252829D01*
X132459446Y-121350119D01*
X132335619Y-121473946D01*
X132238329Y-121619551D01*
X132171314Y-121781338D01*
X132137150Y-121953091D01*
X119408862Y-121953091D01*
X119411185Y-121951185D01*
X119490537Y-121854494D01*
X119549502Y-121744180D01*
X119585812Y-121624482D01*
X119598072Y-121500000D01*
X119598072Y-120473541D01*
X157619700Y-120473541D01*
X157619700Y-120648659D01*
X157653864Y-120820412D01*
X157720879Y-120982199D01*
X157818169Y-121127804D01*
X157941996Y-121251631D01*
X158087601Y-121348921D01*
X158249388Y-121415936D01*
X158421141Y-121450100D01*
X158596259Y-121450100D01*
X158768012Y-121415936D01*
X158929799Y-121348921D01*
X159075404Y-121251631D01*
X159199231Y-121127804D01*
X159296521Y-120982199D01*
X159363536Y-120820412D01*
X159397700Y-120648659D01*
X159397700Y-120473541D01*
X159363536Y-120301788D01*
X159296521Y-120140001D01*
X159199231Y-119994396D01*
X159075404Y-119870569D01*
X158929799Y-119773279D01*
X158768012Y-119706264D01*
X158596259Y-119672100D01*
X158421141Y-119672100D01*
X158249388Y-119706264D01*
X158087601Y-119773279D01*
X157941996Y-119870569D01*
X157818169Y-119994396D01*
X157720879Y-120140001D01*
X157653864Y-120301788D01*
X157619700Y-120473541D01*
X119598072Y-120473541D01*
X119598072Y-119800000D01*
X119585812Y-119675518D01*
X119549502Y-119555820D01*
X119490537Y-119445506D01*
X119411185Y-119348815D01*
X119314494Y-119269463D01*
X119204180Y-119210498D01*
X119084482Y-119174188D01*
X118960000Y-119161928D01*
X117260000Y-119161928D01*
X117135518Y-119174188D01*
X117015820Y-119210498D01*
X116905506Y-119269463D01*
X116808815Y-119348815D01*
X116729463Y-119445506D01*
X116670498Y-119555820D01*
X116634188Y-119675518D01*
X116621928Y-119800000D01*
X116621928Y-121500000D01*
X116634188Y-121624482D01*
X116670498Y-121744180D01*
X116729463Y-121854494D01*
X116808815Y-121951185D01*
X116905506Y-122030537D01*
X117015820Y-122089502D01*
X117084687Y-122110393D01*
X117054866Y-122134866D01*
X116869294Y-122360986D01*
X116731401Y-122618966D01*
X116646487Y-122898889D01*
X116617815Y-123190000D01*
X115180426Y-123190000D01*
X115432844Y-121167889D01*
X115886259Y-118794465D01*
X115888854Y-118784441D01*
X141605004Y-118784441D01*
X141605004Y-118959559D01*
X141639168Y-119131312D01*
X141706183Y-119293099D01*
X141803473Y-119438704D01*
X141927300Y-119562531D01*
X142072905Y-119659821D01*
X142234692Y-119726836D01*
X142406445Y-119761000D01*
X142581563Y-119761000D01*
X142753316Y-119726836D01*
X142915103Y-119659821D01*
X143060708Y-119562531D01*
X143184535Y-119438704D01*
X143281825Y-119293099D01*
X143348840Y-119131312D01*
X143383004Y-118959559D01*
X143383004Y-118784441D01*
X143348840Y-118612688D01*
X143314772Y-118530441D01*
X167005000Y-118530441D01*
X167005000Y-118705559D01*
X167039164Y-118877312D01*
X167106179Y-119039099D01*
X167203469Y-119184704D01*
X167327296Y-119308531D01*
X167472901Y-119405821D01*
X167634688Y-119472836D01*
X167806441Y-119507000D01*
X167981559Y-119507000D01*
X168153312Y-119472836D01*
X168315099Y-119405821D01*
X168460704Y-119308531D01*
X168584531Y-119184704D01*
X168681821Y-119039099D01*
X168748836Y-118877312D01*
X168783000Y-118705559D01*
X168783000Y-118530443D01*
X169037000Y-118530443D01*
X169037000Y-118705561D01*
X169071164Y-118877314D01*
X169138179Y-119039101D01*
X169235469Y-119184706D01*
X169359296Y-119308533D01*
X169504901Y-119405823D01*
X169666688Y-119472838D01*
X169838441Y-119507002D01*
X170013559Y-119507002D01*
X170185312Y-119472838D01*
X170347099Y-119405823D01*
X170492704Y-119308533D01*
X170616531Y-119184706D01*
X170713821Y-119039101D01*
X170780836Y-118877314D01*
X170815000Y-118705561D01*
X170815000Y-118530443D01*
X170780836Y-118358690D01*
X170713821Y-118196903D01*
X170616531Y-118051298D01*
X170492704Y-117927471D01*
X170347099Y-117830181D01*
X170185312Y-117763166D01*
X170013559Y-117729002D01*
X169838441Y-117729002D01*
X169666688Y-117763166D01*
X169504901Y-117830181D01*
X169359296Y-117927471D01*
X169235469Y-118051298D01*
X169138179Y-118196903D01*
X169071164Y-118358690D01*
X169037000Y-118530443D01*
X168783000Y-118530443D01*
X168783000Y-118530441D01*
X168748836Y-118358688D01*
X168681821Y-118196901D01*
X168584531Y-118051296D01*
X168460704Y-117927469D01*
X168315099Y-117830179D01*
X168153312Y-117763164D01*
X167981559Y-117729000D01*
X167806441Y-117729000D01*
X167634688Y-117763164D01*
X167472901Y-117830179D01*
X167327296Y-117927469D01*
X167203469Y-118051296D01*
X167106179Y-118196901D01*
X167039164Y-118358688D01*
X167005000Y-118530441D01*
X143314772Y-118530441D01*
X143281825Y-118450901D01*
X143184535Y-118305296D01*
X143060708Y-118181469D01*
X142915103Y-118084179D01*
X142753316Y-118017164D01*
X142581563Y-117983000D01*
X142406445Y-117983000D01*
X142234692Y-118017164D01*
X142072905Y-118084179D01*
X141927300Y-118181469D01*
X141803473Y-118305296D01*
X141706183Y-118450901D01*
X141639168Y-118612688D01*
X141605004Y-118784441D01*
X115888854Y-118784441D01*
X116491887Y-116455259D01*
X116644849Y-115990441D01*
X139065000Y-115990441D01*
X139065000Y-116165559D01*
X139099164Y-116337312D01*
X139166179Y-116499099D01*
X139263469Y-116644704D01*
X139387296Y-116768531D01*
X139532901Y-116865821D01*
X139694688Y-116932836D01*
X139866441Y-116967000D01*
X140041559Y-116967000D01*
X140213312Y-116932836D01*
X140375099Y-116865821D01*
X140520704Y-116768531D01*
X140589000Y-116700235D01*
X140657296Y-116768531D01*
X140802901Y-116865821D01*
X140964688Y-116932836D01*
X141136441Y-116967000D01*
X141311559Y-116967000D01*
X141483312Y-116932836D01*
X141645099Y-116865821D01*
X141790704Y-116768531D01*
X141914531Y-116644704D01*
X142011821Y-116499099D01*
X142078836Y-116337312D01*
X142113000Y-116165559D01*
X142113000Y-115990441D01*
X142875000Y-115990441D01*
X142875000Y-116165559D01*
X142909164Y-116337312D01*
X142976179Y-116499099D01*
X143073469Y-116644704D01*
X143197296Y-116768531D01*
X143342901Y-116865821D01*
X143504688Y-116932836D01*
X143676441Y-116967000D01*
X143851559Y-116967000D01*
X144023312Y-116932836D01*
X144185099Y-116865821D01*
X144330704Y-116768531D01*
X144454531Y-116644704D01*
X144551821Y-116499099D01*
X144618836Y-116337312D01*
X144653000Y-116165559D01*
X144653000Y-115990441D01*
X146685000Y-115990441D01*
X146685000Y-116165559D01*
X146719164Y-116337312D01*
X146786179Y-116499099D01*
X146883469Y-116644704D01*
X147007296Y-116768531D01*
X147152901Y-116865821D01*
X147314688Y-116932836D01*
X147486441Y-116967000D01*
X147661559Y-116967000D01*
X147833312Y-116932836D01*
X147995099Y-116865821D01*
X148140704Y-116768531D01*
X148209000Y-116700235D01*
X148277296Y-116768531D01*
X148422901Y-116865821D01*
X148584688Y-116932836D01*
X148756441Y-116967000D01*
X148931559Y-116967000D01*
X149103312Y-116932836D01*
X149265099Y-116865821D01*
X149410704Y-116768531D01*
X149534531Y-116644704D01*
X149631821Y-116499099D01*
X149698836Y-116337312D01*
X149733000Y-116165559D01*
X149733000Y-115990441D01*
X149698836Y-115818688D01*
X149631821Y-115656901D01*
X149534531Y-115511296D01*
X149410704Y-115387469D01*
X149265099Y-115290179D01*
X149103312Y-115223164D01*
X148931559Y-115189000D01*
X148756441Y-115189000D01*
X148584688Y-115223164D01*
X148422901Y-115290179D01*
X148277296Y-115387469D01*
X148209000Y-115455765D01*
X148140704Y-115387469D01*
X147995099Y-115290179D01*
X147833312Y-115223164D01*
X147661559Y-115189000D01*
X147486441Y-115189000D01*
X147314688Y-115223164D01*
X147152901Y-115290179D01*
X147007296Y-115387469D01*
X146883469Y-115511296D01*
X146786179Y-115656901D01*
X146719164Y-115818688D01*
X146685000Y-115990441D01*
X144653000Y-115990441D01*
X144618836Y-115818688D01*
X144551821Y-115656901D01*
X144454531Y-115511296D01*
X144330704Y-115387469D01*
X144185099Y-115290179D01*
X144023312Y-115223164D01*
X143851559Y-115189000D01*
X143676441Y-115189000D01*
X143504688Y-115223164D01*
X143342901Y-115290179D01*
X143197296Y-115387469D01*
X143073469Y-115511296D01*
X142976179Y-115656901D01*
X142909164Y-115818688D01*
X142875000Y-115990441D01*
X142113000Y-115990441D01*
X142078836Y-115818688D01*
X142011821Y-115656901D01*
X141914531Y-115511296D01*
X141790704Y-115387469D01*
X141645099Y-115290179D01*
X141483312Y-115223164D01*
X141311559Y-115189000D01*
X141136441Y-115189000D01*
X140964688Y-115223164D01*
X140802901Y-115290179D01*
X140657296Y-115387469D01*
X140589000Y-115455765D01*
X140520704Y-115387469D01*
X140375099Y-115290179D01*
X140213312Y-115223164D01*
X140041559Y-115189000D01*
X139866441Y-115189000D01*
X139694688Y-115223164D01*
X139532901Y-115290179D01*
X139387296Y-115387469D01*
X139263469Y-115511296D01*
X139166179Y-115656901D01*
X139099164Y-115818688D01*
X139065000Y-115990441D01*
X116644849Y-115990441D01*
X117247207Y-114160013D01*
X118149076Y-111918279D01*
X119193728Y-109739419D01*
X119611238Y-108995890D01*
X132344573Y-108995890D01*
X132344573Y-109444110D01*
X132432016Y-109883718D01*
X132603543Y-110297819D01*
X132852560Y-110670500D01*
X133169500Y-110987440D01*
X133542181Y-111236457D01*
X133956282Y-111407984D01*
X134395890Y-111495427D01*
X134844110Y-111495427D01*
X135231146Y-111418441D01*
X163957000Y-111418441D01*
X163957000Y-111593559D01*
X163991164Y-111765312D01*
X164058179Y-111927099D01*
X164155469Y-112072704D01*
X164279296Y-112196531D01*
X164424901Y-112293821D01*
X164586688Y-112360836D01*
X164758441Y-112395000D01*
X164933559Y-112395000D01*
X165105312Y-112360836D01*
X165267099Y-112293821D01*
X165412704Y-112196531D01*
X165536531Y-112072704D01*
X165633821Y-111927099D01*
X165700836Y-111765312D01*
X165735000Y-111593559D01*
X165735000Y-111418441D01*
X165700836Y-111246688D01*
X165633821Y-111084901D01*
X165536531Y-110939296D01*
X165412704Y-110815469D01*
X165267099Y-110718179D01*
X165105312Y-110651164D01*
X164933559Y-110617000D01*
X164758441Y-110617000D01*
X164586688Y-110651164D01*
X164424901Y-110718179D01*
X164279296Y-110815469D01*
X164155469Y-110939296D01*
X164058179Y-111084901D01*
X163991164Y-111246688D01*
X163957000Y-111418441D01*
X135231146Y-111418441D01*
X135283718Y-111407984D01*
X135697819Y-111236457D01*
X136070500Y-110987440D01*
X136387440Y-110670500D01*
X136636457Y-110297819D01*
X136807984Y-109883718D01*
X136895427Y-109444110D01*
X136895427Y-108995890D01*
X136893259Y-108984987D01*
X155775502Y-108984987D01*
X155775502Y-109160105D01*
X155809666Y-109331858D01*
X155876681Y-109493645D01*
X155973971Y-109639250D01*
X156097798Y-109763077D01*
X156243403Y-109860367D01*
X156405190Y-109927382D01*
X156576943Y-109961546D01*
X156752061Y-109961546D01*
X156923814Y-109927382D01*
X157085601Y-109860367D01*
X157231206Y-109763077D01*
X157355033Y-109639250D01*
X157452323Y-109493645D01*
X157519338Y-109331858D01*
X157553502Y-109160105D01*
X157553502Y-109003970D01*
X167986613Y-109003970D01*
X167986613Y-109436030D01*
X168070904Y-109859787D01*
X168236246Y-110258958D01*
X168476285Y-110618203D01*
X168781797Y-110923715D01*
X169141042Y-111163754D01*
X169540213Y-111329096D01*
X169963970Y-111413387D01*
X170396030Y-111413387D01*
X170819787Y-111329096D01*
X171218958Y-111163754D01*
X171578203Y-110923715D01*
X171883715Y-110618203D01*
X172123754Y-110258958D01*
X172289096Y-109859787D01*
X172373387Y-109436030D01*
X172373387Y-109003970D01*
X172289096Y-108580213D01*
X172123754Y-108181042D01*
X171883715Y-107821797D01*
X171578203Y-107516285D01*
X171218958Y-107276246D01*
X170819787Y-107110904D01*
X170396030Y-107026613D01*
X169963970Y-107026613D01*
X169540213Y-107110904D01*
X169141042Y-107276246D01*
X168781797Y-107516285D01*
X168476285Y-107821797D01*
X168236246Y-108181042D01*
X168070904Y-108580213D01*
X167986613Y-109003970D01*
X157553502Y-109003970D01*
X157553502Y-108984987D01*
X157519338Y-108813234D01*
X157452323Y-108651447D01*
X157355033Y-108505842D01*
X157231206Y-108382015D01*
X157085601Y-108284725D01*
X156923814Y-108217710D01*
X156752061Y-108183546D01*
X156576943Y-108183546D01*
X156405190Y-108217710D01*
X156243403Y-108284725D01*
X156097798Y-108382015D01*
X155973971Y-108505842D01*
X155876681Y-108651447D01*
X155809666Y-108813234D01*
X155775502Y-108984987D01*
X136893259Y-108984987D01*
X136807984Y-108556282D01*
X136636457Y-108142181D01*
X136387440Y-107769500D01*
X136226381Y-107608441D01*
X137541000Y-107608441D01*
X137541000Y-107783559D01*
X137575164Y-107955312D01*
X137642179Y-108117099D01*
X137739469Y-108262704D01*
X137863296Y-108386531D01*
X138008901Y-108483821D01*
X138170688Y-108550836D01*
X138342441Y-108585000D01*
X138517559Y-108585000D01*
X138689312Y-108550836D01*
X138851099Y-108483821D01*
X138996704Y-108386531D01*
X139120531Y-108262704D01*
X139217821Y-108117099D01*
X139284836Y-107955312D01*
X139319000Y-107783559D01*
X139319000Y-107608441D01*
X139284836Y-107436688D01*
X139217821Y-107274901D01*
X139120531Y-107129296D01*
X138996704Y-107005469D01*
X138851099Y-106908179D01*
X138689312Y-106841164D01*
X138517559Y-106807000D01*
X138342441Y-106807000D01*
X138170688Y-106841164D01*
X138008901Y-106908179D01*
X137863296Y-107005469D01*
X137739469Y-107129296D01*
X137642179Y-107274901D01*
X137575164Y-107436688D01*
X137541000Y-107608441D01*
X136226381Y-107608441D01*
X136070500Y-107452560D01*
X135697819Y-107203543D01*
X135283718Y-107032016D01*
X134844110Y-106944573D01*
X134395890Y-106944573D01*
X133956282Y-107032016D01*
X133542181Y-107203543D01*
X133169500Y-107452560D01*
X132852560Y-107769500D01*
X132603543Y-108142181D01*
X132432016Y-108556282D01*
X132344573Y-108995890D01*
X119611238Y-108995890D01*
X120376803Y-107632527D01*
X121693382Y-105606361D01*
X123137965Y-103669390D01*
X123849968Y-102833241D01*
X135496300Y-102833241D01*
X135496300Y-103008359D01*
X135530464Y-103180112D01*
X135597479Y-103341899D01*
X135694769Y-103487504D01*
X135818596Y-103611331D01*
X135964201Y-103708621D01*
X136125988Y-103775636D01*
X136297741Y-103809800D01*
X136472859Y-103809800D01*
X136644612Y-103775636D01*
X136806399Y-103708621D01*
X136952004Y-103611331D01*
X137075831Y-103487504D01*
X137173121Y-103341899D01*
X137240136Y-103180112D01*
X137274300Y-103008359D01*
X137274300Y-102833241D01*
X137240136Y-102661488D01*
X137173121Y-102499701D01*
X137075831Y-102354096D01*
X136952004Y-102230269D01*
X136806399Y-102132979D01*
X136644612Y-102065964D01*
X136472859Y-102031800D01*
X136297741Y-102031800D01*
X136125988Y-102065964D01*
X135964201Y-102132979D01*
X135818596Y-102230269D01*
X135694769Y-102354096D01*
X135597479Y-102499701D01*
X135530464Y-102661488D01*
X135496300Y-102833241D01*
X123849968Y-102833241D01*
X124704540Y-101829667D01*
X124741205Y-101791851D01*
X141735822Y-101791851D01*
X141735822Y-101966969D01*
X141769986Y-102138722D01*
X141837001Y-102300509D01*
X141934291Y-102446114D01*
X142058118Y-102569941D01*
X142203723Y-102667231D01*
X142365510Y-102734246D01*
X142537263Y-102768410D01*
X142712381Y-102768410D01*
X142881219Y-102734826D01*
X142909164Y-102875312D01*
X142976179Y-103037099D01*
X143073469Y-103182704D01*
X143197296Y-103306531D01*
X143342901Y-103403821D01*
X143504688Y-103470836D01*
X143676441Y-103505000D01*
X143851559Y-103505000D01*
X144023312Y-103470836D01*
X144185099Y-103403821D01*
X144330704Y-103306531D01*
X144454531Y-103182704D01*
X144551821Y-103037099D01*
X144618836Y-102875312D01*
X144653000Y-102703559D01*
X144653000Y-102528441D01*
X144618836Y-102356688D01*
X144551821Y-102194901D01*
X144454531Y-102049296D01*
X144330704Y-101925469D01*
X144185099Y-101828179D01*
X144023312Y-101761164D01*
X143851559Y-101727000D01*
X143676441Y-101727000D01*
X143507603Y-101760584D01*
X143479658Y-101620098D01*
X143412643Y-101458311D01*
X143315353Y-101312706D01*
X143191526Y-101188879D01*
X143045921Y-101091589D01*
X142884134Y-101024574D01*
X142712381Y-100990410D01*
X142537263Y-100990410D01*
X142365510Y-101024574D01*
X142203723Y-101091589D01*
X142058118Y-101188879D01*
X141934291Y-101312706D01*
X141837001Y-101458311D01*
X141769986Y-101620098D01*
X141735822Y-101791851D01*
X124741205Y-101791851D01*
X126386555Y-100094892D01*
X128177047Y-98472247D01*
X129305110Y-97575439D01*
X154178002Y-97575439D01*
X154178002Y-97750557D01*
X154212166Y-97922310D01*
X154279181Y-98084097D01*
X154376471Y-98229702D01*
X154500298Y-98353529D01*
X154645903Y-98450819D01*
X154807690Y-98517834D01*
X154979443Y-98551998D01*
X154997649Y-98551998D01*
X154939589Y-98638891D01*
X154872574Y-98800678D01*
X154838410Y-98972431D01*
X154838410Y-99147549D01*
X154872574Y-99319302D01*
X154939589Y-99481089D01*
X155036879Y-99626694D01*
X155160706Y-99750521D01*
X155306311Y-99847811D01*
X155468098Y-99914826D01*
X155639851Y-99948990D01*
X155814969Y-99948990D01*
X155986722Y-99914826D01*
X156148509Y-99847811D01*
X156294114Y-99750521D01*
X156417941Y-99626694D01*
X156515231Y-99481089D01*
X156582246Y-99319302D01*
X156616410Y-99147549D01*
X156616410Y-98972431D01*
X156582246Y-98800678D01*
X156515231Y-98638891D01*
X156417941Y-98493286D01*
X156294114Y-98369459D01*
X156148509Y-98272169D01*
X155986722Y-98205154D01*
X155814969Y-98170990D01*
X155796763Y-98170990D01*
X155854823Y-98084097D01*
X155921838Y-97922310D01*
X155956002Y-97750557D01*
X155956002Y-97575439D01*
X155930741Y-97448441D01*
X168021000Y-97448441D01*
X168021000Y-97623559D01*
X168055164Y-97795312D01*
X168122179Y-97957099D01*
X168219469Y-98102704D01*
X168343296Y-98226531D01*
X168488901Y-98323821D01*
X168650688Y-98390836D01*
X168822441Y-98425000D01*
X168997559Y-98425000D01*
X169169312Y-98390836D01*
X169331099Y-98323821D01*
X169476704Y-98226531D01*
X169600531Y-98102704D01*
X169697821Y-97957099D01*
X169764836Y-97795312D01*
X169799000Y-97623559D01*
X169799000Y-97448441D01*
X169764836Y-97276688D01*
X169697821Y-97114901D01*
X169600531Y-96969296D01*
X169476704Y-96845469D01*
X169331099Y-96748179D01*
X169169312Y-96681164D01*
X168997559Y-96647000D01*
X168822441Y-96647000D01*
X168650688Y-96681164D01*
X168488901Y-96748179D01*
X168343296Y-96845469D01*
X168219469Y-96969296D01*
X168122179Y-97114901D01*
X168055164Y-97276688D01*
X168021000Y-97448441D01*
X155930741Y-97448441D01*
X155921838Y-97403686D01*
X155854823Y-97241899D01*
X155757533Y-97096294D01*
X155633706Y-96972467D01*
X155488101Y-96875177D01*
X155326314Y-96808162D01*
X155154561Y-96773998D01*
X154979443Y-96773998D01*
X154807690Y-96808162D01*
X154645903Y-96875177D01*
X154500298Y-96972467D01*
X154376471Y-97096294D01*
X154279181Y-97241899D01*
X154212166Y-97403686D01*
X154178002Y-97575439D01*
X129305110Y-97575439D01*
X130068492Y-96968552D01*
X132053035Y-95590048D01*
X134122402Y-94342481D01*
X136267972Y-93231053D01*
X138480769Y-92260410D01*
X140751624Y-91434575D01*
X143071005Y-90757014D01*
X145429304Y-90230535D01*
X147816650Y-89857343D01*
X150223118Y-89638986D01*
X152638624Y-89576382D01*
X155053169Y-89669787D01*
M02*
