M48
; DRILL file {KiCad (5.1.4)-1} date 1/28/2020 11:36:31 AM
; FORMAT={-:-/ absolute / inch / decimal}
; #@! TF.CreationDate,2020-01-28T11:36:31-05:00
; #@! TF.GenerationSoftware,Kicad,Pcbnew,(5.1.4)-1
; #@! TF.FileFunction,Plated,1,4,PTH
FMAT,2
INCH
T1C0.0150
T2C0.0197
T3C0.0394
%
G90
G05
T1
X4.72Y-5.46
X4.748Y-5.06
X4.775Y-4.755
X4.837Y-5.005
X4.9085Y-5.9525
X4.935Y-4.215
X4.94Y-5.3385
X4.99Y-4.575
X5.0Y-5.65
X5.003Y-5.337
X5.023Y-4.965
X5.04Y-5.0455
X5.06Y-5.226
X5.0675Y-5.65
X5.0855Y-4.771
X5.1115Y-5.3375
X5.12Y-5.0
X5.175Y-6.05
X5.2372Y-4.8048
X5.3005Y-5.226
X5.307Y-4.0565
X5.3135Y-5.534
X5.3173Y-4.8623
X5.3173Y-4.8323
X5.33Y-4.605
X5.3695Y-4.052
X5.3748Y-5.905
X5.393Y-6.326
X5.395Y-3.755
X5.422Y-5.987
X5.4235Y-4.757
X5.435Y-4.88
X5.45Y-4.24
X5.46Y-5.64
X5.51Y-4.57
X5.51Y-5.533
X5.5105Y-3.6385
X5.56Y-4.57
X5.5785Y-5.9245
X5.58Y-4.044
X5.58Y-4.33
X5.595Y-5.29
X5.61Y-4.68
X5.6135Y-3.582
X5.6152Y-4.011
X5.6485Y-3.7885
X5.66Y-4.04
X5.66Y-4.57
X5.662Y-5.648
X5.675Y-6.23
X5.69Y-5.91
X5.7205Y-4.7225
X5.789Y-5.329
X5.79Y-5.48
X5.79Y-6.0
X5.7953Y-6.3232
X5.81Y-4.57
X5.82Y-5.57
X5.8205Y-5.4801
X5.8206Y-5.4205
X5.8207Y-5.5407
X5.821Y-5.3945
X5.825Y-3.945
X5.85Y-3.8
X5.8545Y-3.69
X5.855Y-4.325
X5.86Y-4.57
X5.89Y-5.31
X5.93Y-5.195
X5.937Y-5.6385
X5.95Y-5.31
X5.95Y-5.59
X5.95Y-6.35
X5.965Y-4.48
X5.984Y-5.25
X6.008Y-6.074
X6.01Y-4.82
X6.02Y-5.311
X6.055Y-5.59
X6.06Y-5.74
X6.0603Y-5.3111
X6.068Y-6.285
X6.078Y-3.9505
X6.08Y-5.56
X6.09Y-4.82
X6.1003Y-5.4597
X6.105Y-3.845
X6.114Y-5.8915
X6.131Y-3.9
X6.135Y-4.725
X6.15Y-5.322
X6.15Y-6.445
X6.1679Y-4.2942
X6.235Y-3.62
X6.2405Y-4.7465
X6.285Y-5.35
X6.29Y-5.5
X6.295Y-5.89
X6.3145Y-4.431
X6.32Y-4.025
X6.44Y-5.525
X6.4465Y-3.9925
X6.463Y-4.59
X6.485Y-5.335
X6.49Y-4.39
X6.5Y-6.36
X6.51Y-6.28
X6.5215Y-5.801
X6.53Y-5.7
X6.5555Y-3.839
X6.579Y-4.8175
X6.582Y-5.4735
X6.595Y-3.675
X6.61Y-4.67
X6.64Y-5.04
X6.65Y-3.84
X6.65Y-5.02
X6.69Y-4.67
X6.71Y-4.73
X6.72Y-3.735
X6.7385Y-5.133
X6.7405Y-5.0395
X6.755Y-5.51
X6.765Y-5.32
X6.86Y-4.075
X6.9Y-4.365
X6.945Y-4.95
X6.9485Y-5.0655
X6.9515Y-4.6995
X6.952Y-4.5965
X6.98Y-5.24
X6.995Y-5.93
X7.0Y-5.35
X7.0885Y-4.748
X7.095Y-5.505
X7.107Y-5.394
X7.1715Y-4.572
X7.18Y-4.3125
X7.2185Y-4.6275
X7.4095Y-4.7355
X7.4285Y-5.245
T2
X5.525Y-4.973
X5.525Y-5.0293
X5.575Y-4.973
X5.575Y-5.0293
X5.625Y-4.973
X5.625Y-5.0293
X5.675Y-4.973
X5.675Y-5.0293
X5.725Y-4.973
X5.725Y-5.0293
X5.775Y-4.973
X5.775Y-5.0293
X5.825Y-4.973
X5.825Y-5.0293
X5.875Y-4.973
X5.875Y-5.0293
X5.925Y-4.973
X5.925Y-5.0293
X5.975Y-4.973
X5.975Y-5.0293
X6.025Y-4.973
X6.025Y-5.0293
X6.075Y-4.973
X6.075Y-5.0293
X6.125Y-4.973
X6.125Y-5.0293
X6.175Y-4.973
X6.175Y-5.0293
X6.225Y-4.973
X6.225Y-5.0293
X6.275Y-4.973
X6.275Y-5.0293
X6.325Y-4.973
X6.325Y-5.0293
X6.375Y-4.973
X6.375Y-5.0293
X6.425Y-4.973
X6.425Y-5.0293
X6.475Y-4.973
X6.475Y-5.0293
T3
X4.65Y-4.75
X4.65Y-4.85
X4.65Y-4.95
X4.65Y-5.05
X4.65Y-5.15
X4.65Y-5.25
T0
M30
