G04 #@! TF.GenerationSoftware,KiCad,Pcbnew,(5.1.4)-1*
G04 #@! TF.CreationDate,2020-01-28T11:55:59-05:00*
G04 #@! TF.ProjectId,PDC1920,50444331-3932-4302-9e6b-696361645f70,rev?*
G04 #@! TF.SameCoordinates,Original*
G04 #@! TF.FileFunction,Copper,L2,Bot*
G04 #@! TF.FilePolarity,Positive*
%FSLAX46Y46*%
G04 Gerber Fmt 4.6, Leading zero omitted, Abs format (unit mm)*
G04 Created by KiCad (PCBNEW (5.1.4)-1) date 2020-01-28 11:55:59*
%MOMM*%
%LPD*%
G04 APERTURE LIST*
%ADD10C,0.100000*%
%ADD11C,0.950000*%
%ADD12R,1.000000X2.510000*%
%ADD13R,1.320800X5.181600*%
%ADD14R,1.850000X0.650000*%
%ADD15R,1.250000X0.600000*%
%ADD16R,1.270000X2.540000*%
%ADD17R,3.430000X1.650000*%
%ADD18C,0.800000*%
%ADD19C,0.254000*%
%ADD20C,0.203200*%
%ADD21C,0.381000*%
G04 APERTURE END LIST*
D10*
G36*
X102114779Y-95033544D02*
G01*
X102137834Y-95036963D01*
X102160443Y-95042627D01*
X102182387Y-95050479D01*
X102203457Y-95060444D01*
X102223448Y-95072426D01*
X102242168Y-95086310D01*
X102259438Y-95101962D01*
X102275090Y-95119232D01*
X102288974Y-95137952D01*
X102300956Y-95157943D01*
X102310921Y-95179013D01*
X102318773Y-95200957D01*
X102324437Y-95223566D01*
X102327856Y-95246621D01*
X102329000Y-95269900D01*
X102329000Y-95844900D01*
X102327856Y-95868179D01*
X102324437Y-95891234D01*
X102318773Y-95913843D01*
X102310921Y-95935787D01*
X102300956Y-95956857D01*
X102288974Y-95976848D01*
X102275090Y-95995568D01*
X102259438Y-96012838D01*
X102242168Y-96028490D01*
X102223448Y-96042374D01*
X102203457Y-96054356D01*
X102182387Y-96064321D01*
X102160443Y-96072173D01*
X102137834Y-96077837D01*
X102114779Y-96081256D01*
X102091500Y-96082400D01*
X101616500Y-96082400D01*
X101593221Y-96081256D01*
X101570166Y-96077837D01*
X101547557Y-96072173D01*
X101525613Y-96064321D01*
X101504543Y-96054356D01*
X101484552Y-96042374D01*
X101465832Y-96028490D01*
X101448562Y-96012838D01*
X101432910Y-95995568D01*
X101419026Y-95976848D01*
X101407044Y-95956857D01*
X101397079Y-95935787D01*
X101389227Y-95913843D01*
X101383563Y-95891234D01*
X101380144Y-95868179D01*
X101379000Y-95844900D01*
X101379000Y-95269900D01*
X101380144Y-95246621D01*
X101383563Y-95223566D01*
X101389227Y-95200957D01*
X101397079Y-95179013D01*
X101407044Y-95157943D01*
X101419026Y-95137952D01*
X101432910Y-95119232D01*
X101448562Y-95101962D01*
X101465832Y-95086310D01*
X101484552Y-95072426D01*
X101504543Y-95060444D01*
X101525613Y-95050479D01*
X101547557Y-95042627D01*
X101570166Y-95036963D01*
X101593221Y-95033544D01*
X101616500Y-95032400D01*
X102091500Y-95032400D01*
X102114779Y-95033544D01*
X102114779Y-95033544D01*
G37*
D11*
X101854000Y-95557400D03*
D10*
G36*
X102114779Y-96783544D02*
G01*
X102137834Y-96786963D01*
X102160443Y-96792627D01*
X102182387Y-96800479D01*
X102203457Y-96810444D01*
X102223448Y-96822426D01*
X102242168Y-96836310D01*
X102259438Y-96851962D01*
X102275090Y-96869232D01*
X102288974Y-96887952D01*
X102300956Y-96907943D01*
X102310921Y-96929013D01*
X102318773Y-96950957D01*
X102324437Y-96973566D01*
X102327856Y-96996621D01*
X102329000Y-97019900D01*
X102329000Y-97594900D01*
X102327856Y-97618179D01*
X102324437Y-97641234D01*
X102318773Y-97663843D01*
X102310921Y-97685787D01*
X102300956Y-97706857D01*
X102288974Y-97726848D01*
X102275090Y-97745568D01*
X102259438Y-97762838D01*
X102242168Y-97778490D01*
X102223448Y-97792374D01*
X102203457Y-97804356D01*
X102182387Y-97814321D01*
X102160443Y-97822173D01*
X102137834Y-97827837D01*
X102114779Y-97831256D01*
X102091500Y-97832400D01*
X101616500Y-97832400D01*
X101593221Y-97831256D01*
X101570166Y-97827837D01*
X101547557Y-97822173D01*
X101525613Y-97814321D01*
X101504543Y-97804356D01*
X101484552Y-97792374D01*
X101465832Y-97778490D01*
X101448562Y-97762838D01*
X101432910Y-97745568D01*
X101419026Y-97726848D01*
X101407044Y-97706857D01*
X101397079Y-97685787D01*
X101389227Y-97663843D01*
X101383563Y-97641234D01*
X101380144Y-97618179D01*
X101379000Y-97594900D01*
X101379000Y-97019900D01*
X101380144Y-96996621D01*
X101383563Y-96973566D01*
X101389227Y-96950957D01*
X101397079Y-96929013D01*
X101407044Y-96907943D01*
X101419026Y-96887952D01*
X101432910Y-96869232D01*
X101448562Y-96851962D01*
X101465832Y-96836310D01*
X101484552Y-96822426D01*
X101504543Y-96810444D01*
X101525613Y-96800479D01*
X101547557Y-96792627D01*
X101570166Y-96786963D01*
X101593221Y-96783544D01*
X101616500Y-96782400D01*
X102091500Y-96782400D01*
X102114779Y-96783544D01*
X102114779Y-96783544D01*
G37*
D11*
X101854000Y-97307400D03*
D10*
G36*
X107194779Y-89950944D02*
G01*
X107217834Y-89954363D01*
X107240443Y-89960027D01*
X107262387Y-89967879D01*
X107283457Y-89977844D01*
X107303448Y-89989826D01*
X107322168Y-90003710D01*
X107339438Y-90019362D01*
X107355090Y-90036632D01*
X107368974Y-90055352D01*
X107380956Y-90075343D01*
X107390921Y-90096413D01*
X107398773Y-90118357D01*
X107404437Y-90140966D01*
X107407856Y-90164021D01*
X107409000Y-90187300D01*
X107409000Y-90762300D01*
X107407856Y-90785579D01*
X107404437Y-90808634D01*
X107398773Y-90831243D01*
X107390921Y-90853187D01*
X107380956Y-90874257D01*
X107368974Y-90894248D01*
X107355090Y-90912968D01*
X107339438Y-90930238D01*
X107322168Y-90945890D01*
X107303448Y-90959774D01*
X107283457Y-90971756D01*
X107262387Y-90981721D01*
X107240443Y-90989573D01*
X107217834Y-90995237D01*
X107194779Y-90998656D01*
X107171500Y-90999800D01*
X106696500Y-90999800D01*
X106673221Y-90998656D01*
X106650166Y-90995237D01*
X106627557Y-90989573D01*
X106605613Y-90981721D01*
X106584543Y-90971756D01*
X106564552Y-90959774D01*
X106545832Y-90945890D01*
X106528562Y-90930238D01*
X106512910Y-90912968D01*
X106499026Y-90894248D01*
X106487044Y-90874257D01*
X106477079Y-90853187D01*
X106469227Y-90831243D01*
X106463563Y-90808634D01*
X106460144Y-90785579D01*
X106459000Y-90762300D01*
X106459000Y-90187300D01*
X106460144Y-90164021D01*
X106463563Y-90140966D01*
X106469227Y-90118357D01*
X106477079Y-90096413D01*
X106487044Y-90075343D01*
X106499026Y-90055352D01*
X106512910Y-90036632D01*
X106528562Y-90019362D01*
X106545832Y-90003710D01*
X106564552Y-89989826D01*
X106584543Y-89977844D01*
X106605613Y-89967879D01*
X106627557Y-89960027D01*
X106650166Y-89954363D01*
X106673221Y-89950944D01*
X106696500Y-89949800D01*
X107171500Y-89949800D01*
X107194779Y-89950944D01*
X107194779Y-89950944D01*
G37*
D11*
X106934000Y-90474800D03*
D10*
G36*
X107194779Y-91700944D02*
G01*
X107217834Y-91704363D01*
X107240443Y-91710027D01*
X107262387Y-91717879D01*
X107283457Y-91727844D01*
X107303448Y-91739826D01*
X107322168Y-91753710D01*
X107339438Y-91769362D01*
X107355090Y-91786632D01*
X107368974Y-91805352D01*
X107380956Y-91825343D01*
X107390921Y-91846413D01*
X107398773Y-91868357D01*
X107404437Y-91890966D01*
X107407856Y-91914021D01*
X107409000Y-91937300D01*
X107409000Y-92512300D01*
X107407856Y-92535579D01*
X107404437Y-92558634D01*
X107398773Y-92581243D01*
X107390921Y-92603187D01*
X107380956Y-92624257D01*
X107368974Y-92644248D01*
X107355090Y-92662968D01*
X107339438Y-92680238D01*
X107322168Y-92695890D01*
X107303448Y-92709774D01*
X107283457Y-92721756D01*
X107262387Y-92731721D01*
X107240443Y-92739573D01*
X107217834Y-92745237D01*
X107194779Y-92748656D01*
X107171500Y-92749800D01*
X106696500Y-92749800D01*
X106673221Y-92748656D01*
X106650166Y-92745237D01*
X106627557Y-92739573D01*
X106605613Y-92731721D01*
X106584543Y-92721756D01*
X106564552Y-92709774D01*
X106545832Y-92695890D01*
X106528562Y-92680238D01*
X106512910Y-92662968D01*
X106499026Y-92644248D01*
X106487044Y-92624257D01*
X106477079Y-92603187D01*
X106469227Y-92581243D01*
X106463563Y-92558634D01*
X106460144Y-92535579D01*
X106459000Y-92512300D01*
X106459000Y-91937300D01*
X106460144Y-91914021D01*
X106463563Y-91890966D01*
X106469227Y-91868357D01*
X106477079Y-91846413D01*
X106487044Y-91825343D01*
X106499026Y-91805352D01*
X106512910Y-91786632D01*
X106528562Y-91769362D01*
X106545832Y-91753710D01*
X106564552Y-91739826D01*
X106584543Y-91727844D01*
X106605613Y-91717879D01*
X106627557Y-91710027D01*
X106650166Y-91704363D01*
X106673221Y-91700944D01*
X106696500Y-91699800D01*
X107171500Y-91699800D01*
X107194779Y-91700944D01*
X107194779Y-91700944D01*
G37*
D11*
X106934000Y-92224800D03*
D10*
G36*
X103843779Y-95258744D02*
G01*
X103866834Y-95262163D01*
X103889443Y-95267827D01*
X103911387Y-95275679D01*
X103932457Y-95285644D01*
X103952448Y-95297626D01*
X103971168Y-95311510D01*
X103988438Y-95327162D01*
X104004090Y-95344432D01*
X104017974Y-95363152D01*
X104029956Y-95383143D01*
X104039921Y-95404213D01*
X104047773Y-95426157D01*
X104053437Y-95448766D01*
X104056856Y-95471821D01*
X104058000Y-95495100D01*
X104058000Y-95970100D01*
X104056856Y-95993379D01*
X104053437Y-96016434D01*
X104047773Y-96039043D01*
X104039921Y-96060987D01*
X104029956Y-96082057D01*
X104017974Y-96102048D01*
X104004090Y-96120768D01*
X103988438Y-96138038D01*
X103971168Y-96153690D01*
X103952448Y-96167574D01*
X103932457Y-96179556D01*
X103911387Y-96189521D01*
X103889443Y-96197373D01*
X103866834Y-96203037D01*
X103843779Y-96206456D01*
X103820500Y-96207600D01*
X103245500Y-96207600D01*
X103222221Y-96206456D01*
X103199166Y-96203037D01*
X103176557Y-96197373D01*
X103154613Y-96189521D01*
X103133543Y-96179556D01*
X103113552Y-96167574D01*
X103094832Y-96153690D01*
X103077562Y-96138038D01*
X103061910Y-96120768D01*
X103048026Y-96102048D01*
X103036044Y-96082057D01*
X103026079Y-96060987D01*
X103018227Y-96039043D01*
X103012563Y-96016434D01*
X103009144Y-95993379D01*
X103008000Y-95970100D01*
X103008000Y-95495100D01*
X103009144Y-95471821D01*
X103012563Y-95448766D01*
X103018227Y-95426157D01*
X103026079Y-95404213D01*
X103036044Y-95383143D01*
X103048026Y-95363152D01*
X103061910Y-95344432D01*
X103077562Y-95327162D01*
X103094832Y-95311510D01*
X103113552Y-95297626D01*
X103133543Y-95285644D01*
X103154613Y-95275679D01*
X103176557Y-95267827D01*
X103199166Y-95262163D01*
X103222221Y-95258744D01*
X103245500Y-95257600D01*
X103820500Y-95257600D01*
X103843779Y-95258744D01*
X103843779Y-95258744D01*
G37*
D11*
X103533000Y-95732600D03*
D10*
G36*
X105593779Y-95258744D02*
G01*
X105616834Y-95262163D01*
X105639443Y-95267827D01*
X105661387Y-95275679D01*
X105682457Y-95285644D01*
X105702448Y-95297626D01*
X105721168Y-95311510D01*
X105738438Y-95327162D01*
X105754090Y-95344432D01*
X105767974Y-95363152D01*
X105779956Y-95383143D01*
X105789921Y-95404213D01*
X105797773Y-95426157D01*
X105803437Y-95448766D01*
X105806856Y-95471821D01*
X105808000Y-95495100D01*
X105808000Y-95970100D01*
X105806856Y-95993379D01*
X105803437Y-96016434D01*
X105797773Y-96039043D01*
X105789921Y-96060987D01*
X105779956Y-96082057D01*
X105767974Y-96102048D01*
X105754090Y-96120768D01*
X105738438Y-96138038D01*
X105721168Y-96153690D01*
X105702448Y-96167574D01*
X105682457Y-96179556D01*
X105661387Y-96189521D01*
X105639443Y-96197373D01*
X105616834Y-96203037D01*
X105593779Y-96206456D01*
X105570500Y-96207600D01*
X104995500Y-96207600D01*
X104972221Y-96206456D01*
X104949166Y-96203037D01*
X104926557Y-96197373D01*
X104904613Y-96189521D01*
X104883543Y-96179556D01*
X104863552Y-96167574D01*
X104844832Y-96153690D01*
X104827562Y-96138038D01*
X104811910Y-96120768D01*
X104798026Y-96102048D01*
X104786044Y-96082057D01*
X104776079Y-96060987D01*
X104768227Y-96039043D01*
X104762563Y-96016434D01*
X104759144Y-95993379D01*
X104758000Y-95970100D01*
X104758000Y-95495100D01*
X104759144Y-95471821D01*
X104762563Y-95448766D01*
X104768227Y-95426157D01*
X104776079Y-95404213D01*
X104786044Y-95383143D01*
X104798026Y-95363152D01*
X104811910Y-95344432D01*
X104827562Y-95327162D01*
X104844832Y-95311510D01*
X104863552Y-95297626D01*
X104883543Y-95285644D01*
X104904613Y-95275679D01*
X104926557Y-95267827D01*
X104949166Y-95262163D01*
X104972221Y-95258744D01*
X104995500Y-95257600D01*
X105570500Y-95257600D01*
X105593779Y-95258744D01*
X105593779Y-95258744D01*
G37*
D11*
X105283000Y-95732600D03*
D10*
G36*
X103843779Y-89950144D02*
G01*
X103866834Y-89953563D01*
X103889443Y-89959227D01*
X103911387Y-89967079D01*
X103932457Y-89977044D01*
X103952448Y-89989026D01*
X103971168Y-90002910D01*
X103988438Y-90018562D01*
X104004090Y-90035832D01*
X104017974Y-90054552D01*
X104029956Y-90074543D01*
X104039921Y-90095613D01*
X104047773Y-90117557D01*
X104053437Y-90140166D01*
X104056856Y-90163221D01*
X104058000Y-90186500D01*
X104058000Y-90661500D01*
X104056856Y-90684779D01*
X104053437Y-90707834D01*
X104047773Y-90730443D01*
X104039921Y-90752387D01*
X104029956Y-90773457D01*
X104017974Y-90793448D01*
X104004090Y-90812168D01*
X103988438Y-90829438D01*
X103971168Y-90845090D01*
X103952448Y-90858974D01*
X103932457Y-90870956D01*
X103911387Y-90880921D01*
X103889443Y-90888773D01*
X103866834Y-90894437D01*
X103843779Y-90897856D01*
X103820500Y-90899000D01*
X103245500Y-90899000D01*
X103222221Y-90897856D01*
X103199166Y-90894437D01*
X103176557Y-90888773D01*
X103154613Y-90880921D01*
X103133543Y-90870956D01*
X103113552Y-90858974D01*
X103094832Y-90845090D01*
X103077562Y-90829438D01*
X103061910Y-90812168D01*
X103048026Y-90793448D01*
X103036044Y-90773457D01*
X103026079Y-90752387D01*
X103018227Y-90730443D01*
X103012563Y-90707834D01*
X103009144Y-90684779D01*
X103008000Y-90661500D01*
X103008000Y-90186500D01*
X103009144Y-90163221D01*
X103012563Y-90140166D01*
X103018227Y-90117557D01*
X103026079Y-90095613D01*
X103036044Y-90074543D01*
X103048026Y-90054552D01*
X103061910Y-90035832D01*
X103077562Y-90018562D01*
X103094832Y-90002910D01*
X103113552Y-89989026D01*
X103133543Y-89977044D01*
X103154613Y-89967079D01*
X103176557Y-89959227D01*
X103199166Y-89953563D01*
X103222221Y-89950144D01*
X103245500Y-89949000D01*
X103820500Y-89949000D01*
X103843779Y-89950144D01*
X103843779Y-89950144D01*
G37*
D11*
X103533000Y-90424000D03*
D10*
G36*
X105593779Y-89950144D02*
G01*
X105616834Y-89953563D01*
X105639443Y-89959227D01*
X105661387Y-89967079D01*
X105682457Y-89977044D01*
X105702448Y-89989026D01*
X105721168Y-90002910D01*
X105738438Y-90018562D01*
X105754090Y-90035832D01*
X105767974Y-90054552D01*
X105779956Y-90074543D01*
X105789921Y-90095613D01*
X105797773Y-90117557D01*
X105803437Y-90140166D01*
X105806856Y-90163221D01*
X105808000Y-90186500D01*
X105808000Y-90661500D01*
X105806856Y-90684779D01*
X105803437Y-90707834D01*
X105797773Y-90730443D01*
X105789921Y-90752387D01*
X105779956Y-90773457D01*
X105767974Y-90793448D01*
X105754090Y-90812168D01*
X105738438Y-90829438D01*
X105721168Y-90845090D01*
X105702448Y-90858974D01*
X105682457Y-90870956D01*
X105661387Y-90880921D01*
X105639443Y-90888773D01*
X105616834Y-90894437D01*
X105593779Y-90897856D01*
X105570500Y-90899000D01*
X104995500Y-90899000D01*
X104972221Y-90897856D01*
X104949166Y-90894437D01*
X104926557Y-90888773D01*
X104904613Y-90880921D01*
X104883543Y-90870956D01*
X104863552Y-90858974D01*
X104844832Y-90845090D01*
X104827562Y-90829438D01*
X104811910Y-90812168D01*
X104798026Y-90793448D01*
X104786044Y-90773457D01*
X104776079Y-90752387D01*
X104768227Y-90730443D01*
X104762563Y-90707834D01*
X104759144Y-90684779D01*
X104758000Y-90661500D01*
X104758000Y-90186500D01*
X104759144Y-90163221D01*
X104762563Y-90140166D01*
X104768227Y-90117557D01*
X104776079Y-90095613D01*
X104786044Y-90074543D01*
X104798026Y-90054552D01*
X104811910Y-90035832D01*
X104827562Y-90018562D01*
X104844832Y-90002910D01*
X104863552Y-89989026D01*
X104883543Y-89977044D01*
X104904613Y-89967079D01*
X104926557Y-89959227D01*
X104949166Y-89953563D01*
X104972221Y-89950144D01*
X104995500Y-89949000D01*
X105570500Y-89949000D01*
X105593779Y-89950144D01*
X105593779Y-89950144D01*
G37*
D11*
X105283000Y-90424000D03*
D10*
G36*
X105593779Y-96871644D02*
G01*
X105616834Y-96875063D01*
X105639443Y-96880727D01*
X105661387Y-96888579D01*
X105682457Y-96898544D01*
X105702448Y-96910526D01*
X105721168Y-96924410D01*
X105738438Y-96940062D01*
X105754090Y-96957332D01*
X105767974Y-96976052D01*
X105779956Y-96996043D01*
X105789921Y-97017113D01*
X105797773Y-97039057D01*
X105803437Y-97061666D01*
X105806856Y-97084721D01*
X105808000Y-97108000D01*
X105808000Y-97583000D01*
X105806856Y-97606279D01*
X105803437Y-97629334D01*
X105797773Y-97651943D01*
X105789921Y-97673887D01*
X105779956Y-97694957D01*
X105767974Y-97714948D01*
X105754090Y-97733668D01*
X105738438Y-97750938D01*
X105721168Y-97766590D01*
X105702448Y-97780474D01*
X105682457Y-97792456D01*
X105661387Y-97802421D01*
X105639443Y-97810273D01*
X105616834Y-97815937D01*
X105593779Y-97819356D01*
X105570500Y-97820500D01*
X104995500Y-97820500D01*
X104972221Y-97819356D01*
X104949166Y-97815937D01*
X104926557Y-97810273D01*
X104904613Y-97802421D01*
X104883543Y-97792456D01*
X104863552Y-97780474D01*
X104844832Y-97766590D01*
X104827562Y-97750938D01*
X104811910Y-97733668D01*
X104798026Y-97714948D01*
X104786044Y-97694957D01*
X104776079Y-97673887D01*
X104768227Y-97651943D01*
X104762563Y-97629334D01*
X104759144Y-97606279D01*
X104758000Y-97583000D01*
X104758000Y-97108000D01*
X104759144Y-97084721D01*
X104762563Y-97061666D01*
X104768227Y-97039057D01*
X104776079Y-97017113D01*
X104786044Y-96996043D01*
X104798026Y-96976052D01*
X104811910Y-96957332D01*
X104827562Y-96940062D01*
X104844832Y-96924410D01*
X104863552Y-96910526D01*
X104883543Y-96898544D01*
X104904613Y-96888579D01*
X104926557Y-96880727D01*
X104949166Y-96875063D01*
X104972221Y-96871644D01*
X104995500Y-96870500D01*
X105570500Y-96870500D01*
X105593779Y-96871644D01*
X105593779Y-96871644D01*
G37*
D11*
X105283000Y-97345500D03*
D10*
G36*
X103843779Y-96871644D02*
G01*
X103866834Y-96875063D01*
X103889443Y-96880727D01*
X103911387Y-96888579D01*
X103932457Y-96898544D01*
X103952448Y-96910526D01*
X103971168Y-96924410D01*
X103988438Y-96940062D01*
X104004090Y-96957332D01*
X104017974Y-96976052D01*
X104029956Y-96996043D01*
X104039921Y-97017113D01*
X104047773Y-97039057D01*
X104053437Y-97061666D01*
X104056856Y-97084721D01*
X104058000Y-97108000D01*
X104058000Y-97583000D01*
X104056856Y-97606279D01*
X104053437Y-97629334D01*
X104047773Y-97651943D01*
X104039921Y-97673887D01*
X104029956Y-97694957D01*
X104017974Y-97714948D01*
X104004090Y-97733668D01*
X103988438Y-97750938D01*
X103971168Y-97766590D01*
X103952448Y-97780474D01*
X103932457Y-97792456D01*
X103911387Y-97802421D01*
X103889443Y-97810273D01*
X103866834Y-97815937D01*
X103843779Y-97819356D01*
X103820500Y-97820500D01*
X103245500Y-97820500D01*
X103222221Y-97819356D01*
X103199166Y-97815937D01*
X103176557Y-97810273D01*
X103154613Y-97802421D01*
X103133543Y-97792456D01*
X103113552Y-97780474D01*
X103094832Y-97766590D01*
X103077562Y-97750938D01*
X103061910Y-97733668D01*
X103048026Y-97714948D01*
X103036044Y-97694957D01*
X103026079Y-97673887D01*
X103018227Y-97651943D01*
X103012563Y-97629334D01*
X103009144Y-97606279D01*
X103008000Y-97583000D01*
X103008000Y-97108000D01*
X103009144Y-97084721D01*
X103012563Y-97061666D01*
X103018227Y-97039057D01*
X103026079Y-97017113D01*
X103036044Y-96996043D01*
X103048026Y-96976052D01*
X103061910Y-96957332D01*
X103077562Y-96940062D01*
X103094832Y-96924410D01*
X103113552Y-96910526D01*
X103133543Y-96898544D01*
X103154613Y-96888579D01*
X103176557Y-96880727D01*
X103199166Y-96875063D01*
X103222221Y-96871644D01*
X103245500Y-96870500D01*
X103820500Y-96870500D01*
X103843779Y-96871644D01*
X103843779Y-96871644D01*
G37*
D11*
X103533000Y-97345500D03*
D10*
G36*
X102114779Y-91700944D02*
G01*
X102137834Y-91704363D01*
X102160443Y-91710027D01*
X102182387Y-91717879D01*
X102203457Y-91727844D01*
X102223448Y-91739826D01*
X102242168Y-91753710D01*
X102259438Y-91769362D01*
X102275090Y-91786632D01*
X102288974Y-91805352D01*
X102300956Y-91825343D01*
X102310921Y-91846413D01*
X102318773Y-91868357D01*
X102324437Y-91890966D01*
X102327856Y-91914021D01*
X102329000Y-91937300D01*
X102329000Y-92512300D01*
X102327856Y-92535579D01*
X102324437Y-92558634D01*
X102318773Y-92581243D01*
X102310921Y-92603187D01*
X102300956Y-92624257D01*
X102288974Y-92644248D01*
X102275090Y-92662968D01*
X102259438Y-92680238D01*
X102242168Y-92695890D01*
X102223448Y-92709774D01*
X102203457Y-92721756D01*
X102182387Y-92731721D01*
X102160443Y-92739573D01*
X102137834Y-92745237D01*
X102114779Y-92748656D01*
X102091500Y-92749800D01*
X101616500Y-92749800D01*
X101593221Y-92748656D01*
X101570166Y-92745237D01*
X101547557Y-92739573D01*
X101525613Y-92731721D01*
X101504543Y-92721756D01*
X101484552Y-92709774D01*
X101465832Y-92695890D01*
X101448562Y-92680238D01*
X101432910Y-92662968D01*
X101419026Y-92644248D01*
X101407044Y-92624257D01*
X101397079Y-92603187D01*
X101389227Y-92581243D01*
X101383563Y-92558634D01*
X101380144Y-92535579D01*
X101379000Y-92512300D01*
X101379000Y-91937300D01*
X101380144Y-91914021D01*
X101383563Y-91890966D01*
X101389227Y-91868357D01*
X101397079Y-91846413D01*
X101407044Y-91825343D01*
X101419026Y-91805352D01*
X101432910Y-91786632D01*
X101448562Y-91769362D01*
X101465832Y-91753710D01*
X101484552Y-91739826D01*
X101504543Y-91727844D01*
X101525613Y-91717879D01*
X101547557Y-91710027D01*
X101570166Y-91704363D01*
X101593221Y-91700944D01*
X101616500Y-91699800D01*
X102091500Y-91699800D01*
X102114779Y-91700944D01*
X102114779Y-91700944D01*
G37*
D11*
X101854000Y-92224800D03*
D10*
G36*
X102114779Y-89950944D02*
G01*
X102137834Y-89954363D01*
X102160443Y-89960027D01*
X102182387Y-89967879D01*
X102203457Y-89977844D01*
X102223448Y-89989826D01*
X102242168Y-90003710D01*
X102259438Y-90019362D01*
X102275090Y-90036632D01*
X102288974Y-90055352D01*
X102300956Y-90075343D01*
X102310921Y-90096413D01*
X102318773Y-90118357D01*
X102324437Y-90140966D01*
X102327856Y-90164021D01*
X102329000Y-90187300D01*
X102329000Y-90762300D01*
X102327856Y-90785579D01*
X102324437Y-90808634D01*
X102318773Y-90831243D01*
X102310921Y-90853187D01*
X102300956Y-90874257D01*
X102288974Y-90894248D01*
X102275090Y-90912968D01*
X102259438Y-90930238D01*
X102242168Y-90945890D01*
X102223448Y-90959774D01*
X102203457Y-90971756D01*
X102182387Y-90981721D01*
X102160443Y-90989573D01*
X102137834Y-90995237D01*
X102114779Y-90998656D01*
X102091500Y-90999800D01*
X101616500Y-90999800D01*
X101593221Y-90998656D01*
X101570166Y-90995237D01*
X101547557Y-90989573D01*
X101525613Y-90981721D01*
X101504543Y-90971756D01*
X101484552Y-90959774D01*
X101465832Y-90945890D01*
X101448562Y-90930238D01*
X101432910Y-90912968D01*
X101419026Y-90894248D01*
X101407044Y-90874257D01*
X101397079Y-90853187D01*
X101389227Y-90831243D01*
X101383563Y-90808634D01*
X101380144Y-90785579D01*
X101379000Y-90762300D01*
X101379000Y-90187300D01*
X101380144Y-90164021D01*
X101383563Y-90140966D01*
X101389227Y-90118357D01*
X101397079Y-90096413D01*
X101407044Y-90075343D01*
X101419026Y-90055352D01*
X101432910Y-90036632D01*
X101448562Y-90019362D01*
X101465832Y-90003710D01*
X101484552Y-89989826D01*
X101504543Y-89977844D01*
X101525613Y-89967879D01*
X101547557Y-89960027D01*
X101570166Y-89954363D01*
X101593221Y-89950944D01*
X101616500Y-89949800D01*
X102091500Y-89949800D01*
X102114779Y-89950944D01*
X102114779Y-89950944D01*
G37*
D11*
X101854000Y-90474800D03*
D10*
G36*
X107194779Y-96783544D02*
G01*
X107217834Y-96786963D01*
X107240443Y-96792627D01*
X107262387Y-96800479D01*
X107283457Y-96810444D01*
X107303448Y-96822426D01*
X107322168Y-96836310D01*
X107339438Y-96851962D01*
X107355090Y-96869232D01*
X107368974Y-96887952D01*
X107380956Y-96907943D01*
X107390921Y-96929013D01*
X107398773Y-96950957D01*
X107404437Y-96973566D01*
X107407856Y-96996621D01*
X107409000Y-97019900D01*
X107409000Y-97594900D01*
X107407856Y-97618179D01*
X107404437Y-97641234D01*
X107398773Y-97663843D01*
X107390921Y-97685787D01*
X107380956Y-97706857D01*
X107368974Y-97726848D01*
X107355090Y-97745568D01*
X107339438Y-97762838D01*
X107322168Y-97778490D01*
X107303448Y-97792374D01*
X107283457Y-97804356D01*
X107262387Y-97814321D01*
X107240443Y-97822173D01*
X107217834Y-97827837D01*
X107194779Y-97831256D01*
X107171500Y-97832400D01*
X106696500Y-97832400D01*
X106673221Y-97831256D01*
X106650166Y-97827837D01*
X106627557Y-97822173D01*
X106605613Y-97814321D01*
X106584543Y-97804356D01*
X106564552Y-97792374D01*
X106545832Y-97778490D01*
X106528562Y-97762838D01*
X106512910Y-97745568D01*
X106499026Y-97726848D01*
X106487044Y-97706857D01*
X106477079Y-97685787D01*
X106469227Y-97663843D01*
X106463563Y-97641234D01*
X106460144Y-97618179D01*
X106459000Y-97594900D01*
X106459000Y-97019900D01*
X106460144Y-96996621D01*
X106463563Y-96973566D01*
X106469227Y-96950957D01*
X106477079Y-96929013D01*
X106487044Y-96907943D01*
X106499026Y-96887952D01*
X106512910Y-96869232D01*
X106528562Y-96851962D01*
X106545832Y-96836310D01*
X106564552Y-96822426D01*
X106584543Y-96810444D01*
X106605613Y-96800479D01*
X106627557Y-96792627D01*
X106650166Y-96786963D01*
X106673221Y-96783544D01*
X106696500Y-96782400D01*
X107171500Y-96782400D01*
X107194779Y-96783544D01*
X107194779Y-96783544D01*
G37*
D11*
X106934000Y-97307400D03*
D10*
G36*
X107194779Y-95033544D02*
G01*
X107217834Y-95036963D01*
X107240443Y-95042627D01*
X107262387Y-95050479D01*
X107283457Y-95060444D01*
X107303448Y-95072426D01*
X107322168Y-95086310D01*
X107339438Y-95101962D01*
X107355090Y-95119232D01*
X107368974Y-95137952D01*
X107380956Y-95157943D01*
X107390921Y-95179013D01*
X107398773Y-95200957D01*
X107404437Y-95223566D01*
X107407856Y-95246621D01*
X107409000Y-95269900D01*
X107409000Y-95844900D01*
X107407856Y-95868179D01*
X107404437Y-95891234D01*
X107398773Y-95913843D01*
X107390921Y-95935787D01*
X107380956Y-95956857D01*
X107368974Y-95976848D01*
X107355090Y-95995568D01*
X107339438Y-96012838D01*
X107322168Y-96028490D01*
X107303448Y-96042374D01*
X107283457Y-96054356D01*
X107262387Y-96064321D01*
X107240443Y-96072173D01*
X107217834Y-96077837D01*
X107194779Y-96081256D01*
X107171500Y-96082400D01*
X106696500Y-96082400D01*
X106673221Y-96081256D01*
X106650166Y-96077837D01*
X106627557Y-96072173D01*
X106605613Y-96064321D01*
X106584543Y-96054356D01*
X106564552Y-96042374D01*
X106545832Y-96028490D01*
X106528562Y-96012838D01*
X106512910Y-95995568D01*
X106499026Y-95976848D01*
X106487044Y-95956857D01*
X106477079Y-95935787D01*
X106469227Y-95913843D01*
X106463563Y-95891234D01*
X106460144Y-95868179D01*
X106459000Y-95844900D01*
X106459000Y-95269900D01*
X106460144Y-95246621D01*
X106463563Y-95223566D01*
X106469227Y-95200957D01*
X106477079Y-95179013D01*
X106487044Y-95157943D01*
X106499026Y-95137952D01*
X106512910Y-95119232D01*
X106528562Y-95101962D01*
X106545832Y-95086310D01*
X106564552Y-95072426D01*
X106584543Y-95060444D01*
X106605613Y-95050479D01*
X106627557Y-95042627D01*
X106650166Y-95036963D01*
X106673221Y-95033544D01*
X106696500Y-95032400D01*
X107171500Y-95032400D01*
X107194779Y-95033544D01*
X107194779Y-95033544D01*
G37*
D11*
X106934000Y-95557400D03*
D10*
G36*
X103843779Y-91550344D02*
G01*
X103866834Y-91553763D01*
X103889443Y-91559427D01*
X103911387Y-91567279D01*
X103932457Y-91577244D01*
X103952448Y-91589226D01*
X103971168Y-91603110D01*
X103988438Y-91618762D01*
X104004090Y-91636032D01*
X104017974Y-91654752D01*
X104029956Y-91674743D01*
X104039921Y-91695813D01*
X104047773Y-91717757D01*
X104053437Y-91740366D01*
X104056856Y-91763421D01*
X104058000Y-91786700D01*
X104058000Y-92261700D01*
X104056856Y-92284979D01*
X104053437Y-92308034D01*
X104047773Y-92330643D01*
X104039921Y-92352587D01*
X104029956Y-92373657D01*
X104017974Y-92393648D01*
X104004090Y-92412368D01*
X103988438Y-92429638D01*
X103971168Y-92445290D01*
X103952448Y-92459174D01*
X103932457Y-92471156D01*
X103911387Y-92481121D01*
X103889443Y-92488973D01*
X103866834Y-92494637D01*
X103843779Y-92498056D01*
X103820500Y-92499200D01*
X103245500Y-92499200D01*
X103222221Y-92498056D01*
X103199166Y-92494637D01*
X103176557Y-92488973D01*
X103154613Y-92481121D01*
X103133543Y-92471156D01*
X103113552Y-92459174D01*
X103094832Y-92445290D01*
X103077562Y-92429638D01*
X103061910Y-92412368D01*
X103048026Y-92393648D01*
X103036044Y-92373657D01*
X103026079Y-92352587D01*
X103018227Y-92330643D01*
X103012563Y-92308034D01*
X103009144Y-92284979D01*
X103008000Y-92261700D01*
X103008000Y-91786700D01*
X103009144Y-91763421D01*
X103012563Y-91740366D01*
X103018227Y-91717757D01*
X103026079Y-91695813D01*
X103036044Y-91674743D01*
X103048026Y-91654752D01*
X103061910Y-91636032D01*
X103077562Y-91618762D01*
X103094832Y-91603110D01*
X103113552Y-91589226D01*
X103133543Y-91577244D01*
X103154613Y-91567279D01*
X103176557Y-91559427D01*
X103199166Y-91553763D01*
X103222221Y-91550344D01*
X103245500Y-91549200D01*
X103820500Y-91549200D01*
X103843779Y-91550344D01*
X103843779Y-91550344D01*
G37*
D11*
X103533000Y-92024200D03*
D10*
G36*
X105593779Y-91550344D02*
G01*
X105616834Y-91553763D01*
X105639443Y-91559427D01*
X105661387Y-91567279D01*
X105682457Y-91577244D01*
X105702448Y-91589226D01*
X105721168Y-91603110D01*
X105738438Y-91618762D01*
X105754090Y-91636032D01*
X105767974Y-91654752D01*
X105779956Y-91674743D01*
X105789921Y-91695813D01*
X105797773Y-91717757D01*
X105803437Y-91740366D01*
X105806856Y-91763421D01*
X105808000Y-91786700D01*
X105808000Y-92261700D01*
X105806856Y-92284979D01*
X105803437Y-92308034D01*
X105797773Y-92330643D01*
X105789921Y-92352587D01*
X105779956Y-92373657D01*
X105767974Y-92393648D01*
X105754090Y-92412368D01*
X105738438Y-92429638D01*
X105721168Y-92445290D01*
X105702448Y-92459174D01*
X105682457Y-92471156D01*
X105661387Y-92481121D01*
X105639443Y-92488973D01*
X105616834Y-92494637D01*
X105593779Y-92498056D01*
X105570500Y-92499200D01*
X104995500Y-92499200D01*
X104972221Y-92498056D01*
X104949166Y-92494637D01*
X104926557Y-92488973D01*
X104904613Y-92481121D01*
X104883543Y-92471156D01*
X104863552Y-92459174D01*
X104844832Y-92445290D01*
X104827562Y-92429638D01*
X104811910Y-92412368D01*
X104798026Y-92393648D01*
X104786044Y-92373657D01*
X104776079Y-92352587D01*
X104768227Y-92330643D01*
X104762563Y-92308034D01*
X104759144Y-92284979D01*
X104758000Y-92261700D01*
X104758000Y-91786700D01*
X104759144Y-91763421D01*
X104762563Y-91740366D01*
X104768227Y-91717757D01*
X104776079Y-91695813D01*
X104786044Y-91674743D01*
X104798026Y-91654752D01*
X104811910Y-91636032D01*
X104827562Y-91618762D01*
X104844832Y-91603110D01*
X104863552Y-91589226D01*
X104883543Y-91577244D01*
X104904613Y-91567279D01*
X104926557Y-91559427D01*
X104949166Y-91553763D01*
X104972221Y-91550344D01*
X104995500Y-91549200D01*
X105570500Y-91549200D01*
X105593779Y-91550344D01*
X105593779Y-91550344D01*
G37*
D11*
X105283000Y-92024200D03*
D12*
X63627000Y-89531000D03*
X68707000Y-89531000D03*
X73787000Y-89531000D03*
X61087000Y-92841000D03*
X66167000Y-92841000D03*
X71247000Y-92841000D03*
D13*
X147320000Y-97282000D03*
X147320000Y-90474800D03*
X144780000Y-97282000D03*
X144780000Y-90474800D03*
X142240000Y-97282000D03*
X142240000Y-90474800D03*
X139700000Y-97282000D03*
X139700000Y-90474800D03*
X137160000Y-97282000D03*
X137160000Y-90474800D03*
D14*
X91382980Y-89979500D03*
X91382980Y-91249500D03*
X91382980Y-92519500D03*
X91382980Y-93789500D03*
X91382980Y-95059500D03*
X91382980Y-96329500D03*
X91382980Y-97599500D03*
X91382980Y-98869500D03*
X91382980Y-100139500D03*
X82032980Y-100139500D03*
X82032980Y-98869500D03*
X82032980Y-97599500D03*
X82032980Y-96329500D03*
X82032980Y-95059500D03*
X82032980Y-93789500D03*
X82032980Y-92519500D03*
X82032980Y-91249500D03*
X82032980Y-89979500D03*
D15*
X72390000Y-100452000D03*
X72390000Y-98552000D03*
X74490000Y-99502000D03*
D10*
G36*
X95687779Y-93379144D02*
G01*
X95710834Y-93382563D01*
X95733443Y-93388227D01*
X95755387Y-93396079D01*
X95776457Y-93406044D01*
X95796448Y-93418026D01*
X95815168Y-93431910D01*
X95832438Y-93447562D01*
X95848090Y-93464832D01*
X95861974Y-93483552D01*
X95873956Y-93503543D01*
X95883921Y-93524613D01*
X95891773Y-93546557D01*
X95897437Y-93569166D01*
X95900856Y-93592221D01*
X95902000Y-93615500D01*
X95902000Y-94090500D01*
X95900856Y-94113779D01*
X95897437Y-94136834D01*
X95891773Y-94159443D01*
X95883921Y-94181387D01*
X95873956Y-94202457D01*
X95861974Y-94222448D01*
X95848090Y-94241168D01*
X95832438Y-94258438D01*
X95815168Y-94274090D01*
X95796448Y-94287974D01*
X95776457Y-94299956D01*
X95755387Y-94309921D01*
X95733443Y-94317773D01*
X95710834Y-94323437D01*
X95687779Y-94326856D01*
X95664500Y-94328000D01*
X95089500Y-94328000D01*
X95066221Y-94326856D01*
X95043166Y-94323437D01*
X95020557Y-94317773D01*
X94998613Y-94309921D01*
X94977543Y-94299956D01*
X94957552Y-94287974D01*
X94938832Y-94274090D01*
X94921562Y-94258438D01*
X94905910Y-94241168D01*
X94892026Y-94222448D01*
X94880044Y-94202457D01*
X94870079Y-94181387D01*
X94862227Y-94159443D01*
X94856563Y-94136834D01*
X94853144Y-94113779D01*
X94852000Y-94090500D01*
X94852000Y-93615500D01*
X94853144Y-93592221D01*
X94856563Y-93569166D01*
X94862227Y-93546557D01*
X94870079Y-93524613D01*
X94880044Y-93503543D01*
X94892026Y-93483552D01*
X94905910Y-93464832D01*
X94921562Y-93447562D01*
X94938832Y-93431910D01*
X94957552Y-93418026D01*
X94977543Y-93406044D01*
X94998613Y-93396079D01*
X95020557Y-93388227D01*
X95043166Y-93382563D01*
X95066221Y-93379144D01*
X95089500Y-93378000D01*
X95664500Y-93378000D01*
X95687779Y-93379144D01*
X95687779Y-93379144D01*
G37*
D11*
X95377000Y-93853000D03*
D10*
G36*
X93937779Y-93379144D02*
G01*
X93960834Y-93382563D01*
X93983443Y-93388227D01*
X94005387Y-93396079D01*
X94026457Y-93406044D01*
X94046448Y-93418026D01*
X94065168Y-93431910D01*
X94082438Y-93447562D01*
X94098090Y-93464832D01*
X94111974Y-93483552D01*
X94123956Y-93503543D01*
X94133921Y-93524613D01*
X94141773Y-93546557D01*
X94147437Y-93569166D01*
X94150856Y-93592221D01*
X94152000Y-93615500D01*
X94152000Y-94090500D01*
X94150856Y-94113779D01*
X94147437Y-94136834D01*
X94141773Y-94159443D01*
X94133921Y-94181387D01*
X94123956Y-94202457D01*
X94111974Y-94222448D01*
X94098090Y-94241168D01*
X94082438Y-94258438D01*
X94065168Y-94274090D01*
X94046448Y-94287974D01*
X94026457Y-94299956D01*
X94005387Y-94309921D01*
X93983443Y-94317773D01*
X93960834Y-94323437D01*
X93937779Y-94326856D01*
X93914500Y-94328000D01*
X93339500Y-94328000D01*
X93316221Y-94326856D01*
X93293166Y-94323437D01*
X93270557Y-94317773D01*
X93248613Y-94309921D01*
X93227543Y-94299956D01*
X93207552Y-94287974D01*
X93188832Y-94274090D01*
X93171562Y-94258438D01*
X93155910Y-94241168D01*
X93142026Y-94222448D01*
X93130044Y-94202457D01*
X93120079Y-94181387D01*
X93112227Y-94159443D01*
X93106563Y-94136834D01*
X93103144Y-94113779D01*
X93102000Y-94090500D01*
X93102000Y-93615500D01*
X93103144Y-93592221D01*
X93106563Y-93569166D01*
X93112227Y-93546557D01*
X93120079Y-93524613D01*
X93130044Y-93503543D01*
X93142026Y-93483552D01*
X93155910Y-93464832D01*
X93171562Y-93447562D01*
X93188832Y-93431910D01*
X93207552Y-93418026D01*
X93227543Y-93406044D01*
X93248613Y-93396079D01*
X93270557Y-93388227D01*
X93293166Y-93382563D01*
X93316221Y-93379144D01*
X93339500Y-93378000D01*
X93914500Y-93378000D01*
X93937779Y-93379144D01*
X93937779Y-93379144D01*
G37*
D11*
X93627000Y-93853000D03*
D10*
G36*
X95687779Y-95030144D02*
G01*
X95710834Y-95033563D01*
X95733443Y-95039227D01*
X95755387Y-95047079D01*
X95776457Y-95057044D01*
X95796448Y-95069026D01*
X95815168Y-95082910D01*
X95832438Y-95098562D01*
X95848090Y-95115832D01*
X95861974Y-95134552D01*
X95873956Y-95154543D01*
X95883921Y-95175613D01*
X95891773Y-95197557D01*
X95897437Y-95220166D01*
X95900856Y-95243221D01*
X95902000Y-95266500D01*
X95902000Y-95741500D01*
X95900856Y-95764779D01*
X95897437Y-95787834D01*
X95891773Y-95810443D01*
X95883921Y-95832387D01*
X95873956Y-95853457D01*
X95861974Y-95873448D01*
X95848090Y-95892168D01*
X95832438Y-95909438D01*
X95815168Y-95925090D01*
X95796448Y-95938974D01*
X95776457Y-95950956D01*
X95755387Y-95960921D01*
X95733443Y-95968773D01*
X95710834Y-95974437D01*
X95687779Y-95977856D01*
X95664500Y-95979000D01*
X95089500Y-95979000D01*
X95066221Y-95977856D01*
X95043166Y-95974437D01*
X95020557Y-95968773D01*
X94998613Y-95960921D01*
X94977543Y-95950956D01*
X94957552Y-95938974D01*
X94938832Y-95925090D01*
X94921562Y-95909438D01*
X94905910Y-95892168D01*
X94892026Y-95873448D01*
X94880044Y-95853457D01*
X94870079Y-95832387D01*
X94862227Y-95810443D01*
X94856563Y-95787834D01*
X94853144Y-95764779D01*
X94852000Y-95741500D01*
X94852000Y-95266500D01*
X94853144Y-95243221D01*
X94856563Y-95220166D01*
X94862227Y-95197557D01*
X94870079Y-95175613D01*
X94880044Y-95154543D01*
X94892026Y-95134552D01*
X94905910Y-95115832D01*
X94921562Y-95098562D01*
X94938832Y-95082910D01*
X94957552Y-95069026D01*
X94977543Y-95057044D01*
X94998613Y-95047079D01*
X95020557Y-95039227D01*
X95043166Y-95033563D01*
X95066221Y-95030144D01*
X95089500Y-95029000D01*
X95664500Y-95029000D01*
X95687779Y-95030144D01*
X95687779Y-95030144D01*
G37*
D11*
X95377000Y-95504000D03*
D10*
G36*
X97437779Y-95030144D02*
G01*
X97460834Y-95033563D01*
X97483443Y-95039227D01*
X97505387Y-95047079D01*
X97526457Y-95057044D01*
X97546448Y-95069026D01*
X97565168Y-95082910D01*
X97582438Y-95098562D01*
X97598090Y-95115832D01*
X97611974Y-95134552D01*
X97623956Y-95154543D01*
X97633921Y-95175613D01*
X97641773Y-95197557D01*
X97647437Y-95220166D01*
X97650856Y-95243221D01*
X97652000Y-95266500D01*
X97652000Y-95741500D01*
X97650856Y-95764779D01*
X97647437Y-95787834D01*
X97641773Y-95810443D01*
X97633921Y-95832387D01*
X97623956Y-95853457D01*
X97611974Y-95873448D01*
X97598090Y-95892168D01*
X97582438Y-95909438D01*
X97565168Y-95925090D01*
X97546448Y-95938974D01*
X97526457Y-95950956D01*
X97505387Y-95960921D01*
X97483443Y-95968773D01*
X97460834Y-95974437D01*
X97437779Y-95977856D01*
X97414500Y-95979000D01*
X96839500Y-95979000D01*
X96816221Y-95977856D01*
X96793166Y-95974437D01*
X96770557Y-95968773D01*
X96748613Y-95960921D01*
X96727543Y-95950956D01*
X96707552Y-95938974D01*
X96688832Y-95925090D01*
X96671562Y-95909438D01*
X96655910Y-95892168D01*
X96642026Y-95873448D01*
X96630044Y-95853457D01*
X96620079Y-95832387D01*
X96612227Y-95810443D01*
X96606563Y-95787834D01*
X96603144Y-95764779D01*
X96602000Y-95741500D01*
X96602000Y-95266500D01*
X96603144Y-95243221D01*
X96606563Y-95220166D01*
X96612227Y-95197557D01*
X96620079Y-95175613D01*
X96630044Y-95154543D01*
X96642026Y-95134552D01*
X96655910Y-95115832D01*
X96671562Y-95098562D01*
X96688832Y-95082910D01*
X96707552Y-95069026D01*
X96727543Y-95057044D01*
X96748613Y-95047079D01*
X96770557Y-95039227D01*
X96793166Y-95033563D01*
X96816221Y-95030144D01*
X96839500Y-95029000D01*
X97414500Y-95029000D01*
X97437779Y-95030144D01*
X97437779Y-95030144D01*
G37*
D11*
X97127000Y-95504000D03*
D16*
X119865400Y-89865200D03*
X119865400Y-99265200D03*
X116865400Y-89865200D03*
X116865400Y-99265200D03*
D17*
X123500400Y-94565200D03*
X113230400Y-94565200D03*
D10*
G36*
X87940779Y-87537144D02*
G01*
X87963834Y-87540563D01*
X87986443Y-87546227D01*
X88008387Y-87554079D01*
X88029457Y-87564044D01*
X88049448Y-87576026D01*
X88068168Y-87589910D01*
X88085438Y-87605562D01*
X88101090Y-87622832D01*
X88114974Y-87641552D01*
X88126956Y-87661543D01*
X88136921Y-87682613D01*
X88144773Y-87704557D01*
X88150437Y-87727166D01*
X88153856Y-87750221D01*
X88155000Y-87773500D01*
X88155000Y-88248500D01*
X88153856Y-88271779D01*
X88150437Y-88294834D01*
X88144773Y-88317443D01*
X88136921Y-88339387D01*
X88126956Y-88360457D01*
X88114974Y-88380448D01*
X88101090Y-88399168D01*
X88085438Y-88416438D01*
X88068168Y-88432090D01*
X88049448Y-88445974D01*
X88029457Y-88457956D01*
X88008387Y-88467921D01*
X87986443Y-88475773D01*
X87963834Y-88481437D01*
X87940779Y-88484856D01*
X87917500Y-88486000D01*
X87342500Y-88486000D01*
X87319221Y-88484856D01*
X87296166Y-88481437D01*
X87273557Y-88475773D01*
X87251613Y-88467921D01*
X87230543Y-88457956D01*
X87210552Y-88445974D01*
X87191832Y-88432090D01*
X87174562Y-88416438D01*
X87158910Y-88399168D01*
X87145026Y-88380448D01*
X87133044Y-88360457D01*
X87123079Y-88339387D01*
X87115227Y-88317443D01*
X87109563Y-88294834D01*
X87106144Y-88271779D01*
X87105000Y-88248500D01*
X87105000Y-87773500D01*
X87106144Y-87750221D01*
X87109563Y-87727166D01*
X87115227Y-87704557D01*
X87123079Y-87682613D01*
X87133044Y-87661543D01*
X87145026Y-87641552D01*
X87158910Y-87622832D01*
X87174562Y-87605562D01*
X87191832Y-87589910D01*
X87210552Y-87576026D01*
X87230543Y-87564044D01*
X87251613Y-87554079D01*
X87273557Y-87546227D01*
X87296166Y-87540563D01*
X87319221Y-87537144D01*
X87342500Y-87536000D01*
X87917500Y-87536000D01*
X87940779Y-87537144D01*
X87940779Y-87537144D01*
G37*
D11*
X87630000Y-88011000D03*
D10*
G36*
X86190779Y-87537144D02*
G01*
X86213834Y-87540563D01*
X86236443Y-87546227D01*
X86258387Y-87554079D01*
X86279457Y-87564044D01*
X86299448Y-87576026D01*
X86318168Y-87589910D01*
X86335438Y-87605562D01*
X86351090Y-87622832D01*
X86364974Y-87641552D01*
X86376956Y-87661543D01*
X86386921Y-87682613D01*
X86394773Y-87704557D01*
X86400437Y-87727166D01*
X86403856Y-87750221D01*
X86405000Y-87773500D01*
X86405000Y-88248500D01*
X86403856Y-88271779D01*
X86400437Y-88294834D01*
X86394773Y-88317443D01*
X86386921Y-88339387D01*
X86376956Y-88360457D01*
X86364974Y-88380448D01*
X86351090Y-88399168D01*
X86335438Y-88416438D01*
X86318168Y-88432090D01*
X86299448Y-88445974D01*
X86279457Y-88457956D01*
X86258387Y-88467921D01*
X86236443Y-88475773D01*
X86213834Y-88481437D01*
X86190779Y-88484856D01*
X86167500Y-88486000D01*
X85592500Y-88486000D01*
X85569221Y-88484856D01*
X85546166Y-88481437D01*
X85523557Y-88475773D01*
X85501613Y-88467921D01*
X85480543Y-88457956D01*
X85460552Y-88445974D01*
X85441832Y-88432090D01*
X85424562Y-88416438D01*
X85408910Y-88399168D01*
X85395026Y-88380448D01*
X85383044Y-88360457D01*
X85373079Y-88339387D01*
X85365227Y-88317443D01*
X85359563Y-88294834D01*
X85356144Y-88271779D01*
X85355000Y-88248500D01*
X85355000Y-87773500D01*
X85356144Y-87750221D01*
X85359563Y-87727166D01*
X85365227Y-87704557D01*
X85373079Y-87682613D01*
X85383044Y-87661543D01*
X85395026Y-87641552D01*
X85408910Y-87622832D01*
X85424562Y-87605562D01*
X85441832Y-87589910D01*
X85460552Y-87576026D01*
X85480543Y-87564044D01*
X85501613Y-87554079D01*
X85523557Y-87546227D01*
X85546166Y-87540563D01*
X85569221Y-87537144D01*
X85592500Y-87536000D01*
X86167500Y-87536000D01*
X86190779Y-87537144D01*
X86190779Y-87537144D01*
G37*
D11*
X85880000Y-88011000D03*
D10*
G36*
X97437779Y-91728144D02*
G01*
X97460834Y-91731563D01*
X97483443Y-91737227D01*
X97505387Y-91745079D01*
X97526457Y-91755044D01*
X97546448Y-91767026D01*
X97565168Y-91780910D01*
X97582438Y-91796562D01*
X97598090Y-91813832D01*
X97611974Y-91832552D01*
X97623956Y-91852543D01*
X97633921Y-91873613D01*
X97641773Y-91895557D01*
X97647437Y-91918166D01*
X97650856Y-91941221D01*
X97652000Y-91964500D01*
X97652000Y-92439500D01*
X97650856Y-92462779D01*
X97647437Y-92485834D01*
X97641773Y-92508443D01*
X97633921Y-92530387D01*
X97623956Y-92551457D01*
X97611974Y-92571448D01*
X97598090Y-92590168D01*
X97582438Y-92607438D01*
X97565168Y-92623090D01*
X97546448Y-92636974D01*
X97526457Y-92648956D01*
X97505387Y-92658921D01*
X97483443Y-92666773D01*
X97460834Y-92672437D01*
X97437779Y-92675856D01*
X97414500Y-92677000D01*
X96839500Y-92677000D01*
X96816221Y-92675856D01*
X96793166Y-92672437D01*
X96770557Y-92666773D01*
X96748613Y-92658921D01*
X96727543Y-92648956D01*
X96707552Y-92636974D01*
X96688832Y-92623090D01*
X96671562Y-92607438D01*
X96655910Y-92590168D01*
X96642026Y-92571448D01*
X96630044Y-92551457D01*
X96620079Y-92530387D01*
X96612227Y-92508443D01*
X96606563Y-92485834D01*
X96603144Y-92462779D01*
X96602000Y-92439500D01*
X96602000Y-91964500D01*
X96603144Y-91941221D01*
X96606563Y-91918166D01*
X96612227Y-91895557D01*
X96620079Y-91873613D01*
X96630044Y-91852543D01*
X96642026Y-91832552D01*
X96655910Y-91813832D01*
X96671562Y-91796562D01*
X96688832Y-91780910D01*
X96707552Y-91767026D01*
X96727543Y-91755044D01*
X96748613Y-91745079D01*
X96770557Y-91737227D01*
X96793166Y-91731563D01*
X96816221Y-91728144D01*
X96839500Y-91727000D01*
X97414500Y-91727000D01*
X97437779Y-91728144D01*
X97437779Y-91728144D01*
G37*
D11*
X97127000Y-92202000D03*
D10*
G36*
X95687779Y-91728144D02*
G01*
X95710834Y-91731563D01*
X95733443Y-91737227D01*
X95755387Y-91745079D01*
X95776457Y-91755044D01*
X95796448Y-91767026D01*
X95815168Y-91780910D01*
X95832438Y-91796562D01*
X95848090Y-91813832D01*
X95861974Y-91832552D01*
X95873956Y-91852543D01*
X95883921Y-91873613D01*
X95891773Y-91895557D01*
X95897437Y-91918166D01*
X95900856Y-91941221D01*
X95902000Y-91964500D01*
X95902000Y-92439500D01*
X95900856Y-92462779D01*
X95897437Y-92485834D01*
X95891773Y-92508443D01*
X95883921Y-92530387D01*
X95873956Y-92551457D01*
X95861974Y-92571448D01*
X95848090Y-92590168D01*
X95832438Y-92607438D01*
X95815168Y-92623090D01*
X95796448Y-92636974D01*
X95776457Y-92648956D01*
X95755387Y-92658921D01*
X95733443Y-92666773D01*
X95710834Y-92672437D01*
X95687779Y-92675856D01*
X95664500Y-92677000D01*
X95089500Y-92677000D01*
X95066221Y-92675856D01*
X95043166Y-92672437D01*
X95020557Y-92666773D01*
X94998613Y-92658921D01*
X94977543Y-92648956D01*
X94957552Y-92636974D01*
X94938832Y-92623090D01*
X94921562Y-92607438D01*
X94905910Y-92590168D01*
X94892026Y-92571448D01*
X94880044Y-92551457D01*
X94870079Y-92530387D01*
X94862227Y-92508443D01*
X94856563Y-92485834D01*
X94853144Y-92462779D01*
X94852000Y-92439500D01*
X94852000Y-91964500D01*
X94853144Y-91941221D01*
X94856563Y-91918166D01*
X94862227Y-91895557D01*
X94870079Y-91873613D01*
X94880044Y-91852543D01*
X94892026Y-91832552D01*
X94905910Y-91813832D01*
X94921562Y-91796562D01*
X94938832Y-91780910D01*
X94957552Y-91767026D01*
X94977543Y-91755044D01*
X94998613Y-91745079D01*
X95020557Y-91737227D01*
X95043166Y-91731563D01*
X95066221Y-91728144D01*
X95089500Y-91727000D01*
X95664500Y-91727000D01*
X95687779Y-91728144D01*
X95687779Y-91728144D01*
G37*
D11*
X95377000Y-92202000D03*
D18*
X139700000Y-100809490D03*
X79933800Y-100239909D03*
X105587800Y-99034600D03*
X141097000Y-100711000D03*
X92983333Y-96945733D03*
X76109866Y-100447654D03*
X70485000Y-97536000D03*
X54483000Y-89154000D03*
X54356000Y-98933000D03*
X58166000Y-93980000D03*
X70612000Y-86995000D03*
X77470000Y-88519000D03*
X92303600Y-87071200D03*
X105943400Y-87172800D03*
X131241800Y-93091000D03*
X159766000Y-99314000D03*
X159893000Y-88900000D03*
X154813000Y-93853000D03*
X149352000Y-90551000D03*
X145288000Y-101219000D03*
X145796000Y-86868000D03*
X85217000Y-94234000D03*
X88900000Y-96647000D03*
X63944500Y-93789500D03*
X79946500Y-93599000D03*
X72136000Y-90487500D03*
X76073000Y-94107000D03*
X84455000Y-88201500D03*
X61849000Y-101219000D03*
X126339600Y-90551000D03*
X117525800Y-92862400D03*
X58420000Y-87122000D03*
X88582500Y-99250500D03*
X98869500Y-96647000D03*
X98425000Y-91338400D03*
X127787400Y-100253800D03*
X125222000Y-99136200D03*
X84226400Y-98247200D03*
X93370400Y-99441000D03*
X106883200Y-98602800D03*
X100279200Y-94411800D03*
X109093000Y-97840800D03*
X126492000Y-86537800D03*
X135509000Y-92837000D03*
X148844000Y-93853000D03*
X78384400Y-99059998D03*
X88900000Y-90678000D03*
X88963500Y-94170500D03*
X133991074Y-101085926D03*
X106327510Y-100555490D03*
X128066800Y-98475800D03*
X76123802Y-101447600D03*
X70485000Y-95631000D03*
X73285067Y-95538990D03*
X80010000Y-95250000D03*
X79883000Y-92075000D03*
X79883009Y-90770010D03*
X71872399Y-96910601D03*
X78613000Y-96266000D03*
X93268800Y-92227400D03*
X91211400Y-88366600D03*
D19*
X144780000Y-88544400D02*
X142849600Y-86614000D01*
X142849600Y-86614000D02*
X127660400Y-86614000D01*
X127660400Y-86614000D02*
X126974600Y-87299800D01*
X126974600Y-87299800D02*
X114978732Y-87299800D01*
X93516491Y-88445989D02*
X91982980Y-89979500D01*
X113832543Y-88445989D02*
X93516491Y-88445989D01*
X91982980Y-89979500D02*
X91382980Y-89979500D01*
X114978732Y-87299800D02*
X113832543Y-88445989D01*
X144780000Y-90474800D02*
X144780000Y-88544400D01*
X139700000Y-97282000D02*
X139700000Y-100809490D01*
X80034209Y-100139500D02*
X79933800Y-100239909D01*
X82032980Y-100139500D02*
X80034209Y-100139500D01*
X82032980Y-100139500D02*
X83211980Y-100139500D01*
X83211980Y-100139500D02*
X83863981Y-100791501D01*
X103830899Y-100791501D02*
X105187801Y-99434599D01*
X83863981Y-100791501D02*
X103830899Y-100791501D01*
X105187801Y-99434599D02*
X105587800Y-99034600D01*
X91382980Y-97599500D02*
X91982980Y-97599500D01*
X139700000Y-93319600D02*
X141097000Y-94716600D01*
X139700000Y-90474800D02*
X139700000Y-93319600D01*
X141097000Y-94716600D02*
X141097000Y-100145315D01*
X141097000Y-100145315D02*
X141097000Y-100711000D01*
X91382980Y-97599500D02*
X92329566Y-97599500D01*
X92329566Y-97599500D02*
X92983333Y-96945733D01*
X91382980Y-97599500D02*
X87753462Y-97599500D01*
X85831461Y-99521501D02*
X83214701Y-99521501D01*
X87753462Y-97599500D02*
X85831461Y-99521501D01*
D20*
X83199261Y-99512899D02*
X80827101Y-99512899D01*
X83214701Y-99521501D02*
X83207863Y-99521501D01*
X83207863Y-99521501D02*
X83199261Y-99512899D01*
D19*
X76119212Y-100457000D02*
X76109866Y-100447654D01*
X78663800Y-100457000D02*
X76119212Y-100457000D01*
X80827101Y-99512899D02*
X79607901Y-99512899D01*
X79607901Y-99512899D02*
X78663800Y-100457000D01*
D21*
X102054600Y-92024200D02*
X101854000Y-92224800D01*
X103533000Y-92024200D02*
X102054600Y-92024200D01*
D19*
X74490000Y-99502000D02*
X77942398Y-99502000D01*
X77984401Y-99459997D02*
X78384400Y-99059998D01*
X77942398Y-99502000D02*
X77984401Y-99459997D01*
X87630000Y-88011000D02*
X87630000Y-89408000D01*
X91382980Y-95059500D02*
X90782980Y-95059500D01*
X88500001Y-90278001D02*
X88900000Y-90678000D01*
X87630000Y-89408000D02*
X88500001Y-90278001D01*
D21*
X89852500Y-95059500D02*
X88963500Y-94170500D01*
X91382980Y-95059500D02*
X89852500Y-95059500D01*
D19*
X142240000Y-94437200D02*
X142240000Y-97282000D01*
X143510000Y-93167200D02*
X142240000Y-94437200D01*
X143510000Y-87916468D02*
X143510000Y-93167200D01*
X142661543Y-87068011D02*
X143510000Y-87916468D01*
X115163600Y-87757000D02*
X127170732Y-87757000D01*
X91982980Y-91249500D02*
X94332480Y-88900000D01*
X94332480Y-88900000D02*
X114020600Y-88900000D01*
X91382980Y-91249500D02*
X91982980Y-91249500D01*
X114020600Y-88900000D02*
X115163600Y-87757000D01*
X127170732Y-87757000D02*
X127859721Y-87068011D01*
X127859721Y-87068011D02*
X142661543Y-87068011D01*
X95094480Y-89408000D02*
X91982980Y-92519500D01*
X91982980Y-92519500D02*
X91382980Y-92519500D01*
X110261400Y-89408000D02*
X95094480Y-89408000D01*
X110391904Y-89408000D02*
X110261400Y-89408000D01*
X114173000Y-89408000D02*
X110261400Y-89408000D01*
X142240000Y-88544400D02*
X141217622Y-87522022D01*
X142240000Y-90474800D02*
X142240000Y-88544400D01*
X141217622Y-87522022D02*
X128047778Y-87522022D01*
X128047778Y-87522022D02*
X127304800Y-88265000D01*
X127304800Y-88265000D02*
X115316000Y-88265000D01*
X115316000Y-88265000D02*
X114173000Y-89408000D01*
X95377000Y-93853000D02*
X95377000Y-95504000D01*
X95377000Y-93853000D02*
X95377000Y-92202000D01*
X72065000Y-100452000D02*
X72390000Y-100452000D01*
D21*
X134516835Y-101611687D02*
X134391073Y-101485925D01*
X144780000Y-99212400D02*
X142380713Y-101611687D01*
X144780000Y-97282000D02*
X144780000Y-99212400D01*
X134391073Y-101485925D02*
X133991074Y-101085926D01*
X142380713Y-101611687D02*
X134516835Y-101611687D01*
D19*
X85880000Y-88011000D02*
X85598000Y-88293000D01*
D20*
X90233497Y-95702899D02*
X92908899Y-95702899D01*
D21*
X82632980Y-95059500D02*
X82032980Y-95059500D01*
X85598000Y-88293000D02*
X85598000Y-92094480D01*
X85598000Y-92094480D02*
X82632980Y-95059500D01*
D19*
X88308183Y-95702899D02*
X90233497Y-95702899D01*
X86106000Y-93500716D02*
X88308183Y-95702899D01*
X86106000Y-88265000D02*
X86106000Y-93500716D01*
X85880000Y-88011000D02*
X85880000Y-88039000D01*
X85880000Y-88039000D02*
X86106000Y-88265000D01*
D21*
X72142000Y-100452000D02*
X72390000Y-100452000D01*
X66167000Y-94477000D02*
X72142000Y-100452000D01*
X66167000Y-92841000D02*
X66167000Y-94477000D01*
X106298984Y-100526964D02*
X106327510Y-100555490D01*
D19*
X96627928Y-96003072D02*
X97127000Y-95504000D01*
X96324990Y-96306010D02*
X96627928Y-96003072D01*
X93639010Y-96306010D02*
X96324990Y-96306010D01*
X92908899Y-95702899D02*
X93035899Y-95702899D01*
X93035899Y-95702899D02*
X93639010Y-96306010D01*
D21*
X119865400Y-92632542D02*
X118516400Y-93981542D01*
X119865400Y-89865200D02*
X119865400Y-92632542D01*
X118516400Y-100222102D02*
X117646502Y-101092000D01*
X106864020Y-101092000D02*
X106327510Y-100555490D01*
X117646502Y-101092000D02*
X106864020Y-101092000D01*
X118516400Y-98006298D02*
X118516400Y-98374200D01*
X119088298Y-97434400D02*
X118516400Y-98006298D01*
X127025400Y-97434400D02*
X119088298Y-97434400D01*
X128066800Y-98475800D02*
X127025400Y-97434400D01*
X118516400Y-93981542D02*
X118516400Y-98374200D01*
X118516400Y-98374200D02*
X118516400Y-100222102D01*
X135712200Y-90830400D02*
X128066800Y-98475800D01*
X137033000Y-90830400D02*
X135712200Y-90830400D01*
X137160000Y-90474800D02*
X137160000Y-90957400D01*
X137160000Y-90957400D02*
X137033000Y-90830400D01*
X74797998Y-100452000D02*
X75793598Y-101447600D01*
X75793598Y-101447600D02*
X76123802Y-101447600D01*
X72390000Y-100452000D02*
X74797998Y-100452000D01*
X118839899Y-91525701D02*
X119865400Y-90500200D01*
X115369981Y-91525701D02*
X118839899Y-91525701D01*
X99490690Y-93140310D02*
X107431632Y-93140310D01*
X97127000Y-95504000D02*
X99490690Y-93140310D01*
X114223800Y-90379520D02*
X115369981Y-91525701D01*
X107431632Y-93140310D02*
X108340510Y-92231432D01*
X108340510Y-92231432D02*
X108340510Y-90765358D01*
X119865400Y-90500200D02*
X119865400Y-89865200D01*
X108340510Y-90765358D02*
X108726348Y-90379520D01*
X108726348Y-90379520D02*
X114223800Y-90379520D01*
D19*
X116585200Y-89865200D02*
X116811800Y-90091800D01*
X115398580Y-89865200D02*
X116585200Y-89865200D01*
X107509000Y-92224800D02*
X107823000Y-91910800D01*
X106934000Y-92224800D02*
X107509000Y-92224800D01*
X107823000Y-91910800D02*
X107823000Y-90551000D01*
X107823000Y-90551000D02*
X108511990Y-89862010D01*
X108511990Y-89862010D02*
X115395390Y-89862010D01*
X115395390Y-89862010D02*
X115398580Y-89865200D01*
X106758800Y-95732600D02*
X106934000Y-95557400D01*
X105283000Y-95732600D02*
X106758800Y-95732600D01*
X107736010Y-96359410D02*
X107736010Y-99807390D01*
X106934000Y-95557400D02*
X107736010Y-96359410D01*
X107736010Y-99807390D02*
X108503110Y-100574490D01*
X108503110Y-100574490D02*
X115731910Y-100574490D01*
X115731910Y-100574490D02*
X116840000Y-99466400D01*
X116840000Y-99290600D02*
X116865400Y-99265200D01*
X116840000Y-99466400D02*
X116840000Y-99290600D01*
X68707000Y-93853000D02*
X68707000Y-89531000D01*
X70485000Y-95631000D02*
X68707000Y-93853000D01*
X80853978Y-96329500D02*
X80123696Y-97059779D01*
X80123696Y-97059779D02*
X74805856Y-97059779D01*
X73685066Y-95938989D02*
X73285067Y-95538990D01*
X74805856Y-97059779D02*
X73685066Y-95938989D01*
X82032980Y-96329500D02*
X80853978Y-96329500D01*
X74145789Y-97513789D02*
X80768269Y-97513789D01*
X80853980Y-97599500D02*
X82032980Y-97599500D01*
X80768269Y-97513789D02*
X80853980Y-97599500D01*
X71247000Y-92841000D02*
X71247000Y-94615000D01*
X71247000Y-94615000D02*
X74145789Y-97513789D01*
X91446480Y-93853000D02*
X91382980Y-93789500D01*
X93627000Y-93853000D02*
X91319480Y-93853000D01*
X90233500Y-93789500D02*
X91382980Y-93789500D01*
X73787000Y-87757000D02*
X74422000Y-87122000D01*
X73787000Y-89531000D02*
X73787000Y-87757000D01*
X74422000Y-87122000D02*
X88138000Y-87122000D01*
X88138000Y-87122000D02*
X90106500Y-89090500D01*
X90106500Y-89090500D02*
X90106500Y-93662500D01*
X90106500Y-93662500D02*
X90233500Y-93789500D01*
X80010000Y-95212480D02*
X80010000Y-95250000D01*
X82032980Y-93789500D02*
X81432980Y-93789500D01*
X81432980Y-93789500D02*
X80010000Y-95212480D01*
X82032980Y-92519500D02*
X80327500Y-92519500D01*
X80327500Y-92519500D02*
X79883000Y-92075000D01*
X80283008Y-91170009D02*
X79883009Y-90770010D01*
X80362499Y-91249500D02*
X80283008Y-91170009D01*
X82032980Y-91249500D02*
X80362499Y-91249500D01*
X71882000Y-96920202D02*
X71872399Y-96910601D01*
X72390000Y-98552000D02*
X71882000Y-98044000D01*
X71882000Y-98044000D02*
X71882000Y-96920202D01*
X82032980Y-89979500D02*
X79597557Y-89979500D01*
X79121000Y-95758000D02*
X78613000Y-96266000D01*
X79597557Y-89979500D02*
X79121000Y-90456057D01*
X79121000Y-90456057D02*
X79121000Y-95758000D01*
X105283000Y-90424000D02*
X105283000Y-92024200D01*
X106883200Y-90424000D02*
X106934000Y-90474800D01*
X105283000Y-90424000D02*
X106883200Y-90424000D01*
X101904800Y-90424000D02*
X101854000Y-90474800D01*
X103533000Y-90424000D02*
X101904800Y-90424000D01*
X93303214Y-92227400D02*
X93268800Y-92227400D01*
X95668604Y-89862010D02*
X93303214Y-92227400D01*
X101854000Y-90474800D02*
X101241210Y-89862010D01*
X101241210Y-89862010D02*
X95668604Y-89862010D01*
X80853980Y-98869500D02*
X82032980Y-98869500D01*
X79952280Y-97967800D02*
X80853980Y-98869500D01*
X91211400Y-88366600D02*
X89512791Y-86667991D01*
X70419999Y-90362001D02*
X70419999Y-94430067D01*
X89512791Y-86667991D02*
X74114010Y-86667990D01*
X74114010Y-86667990D02*
X70419999Y-90362001D01*
X73957732Y-97967800D02*
X79952280Y-97967800D01*
X70419999Y-94430067D02*
X73957732Y-97967800D01*
X103533000Y-97345500D02*
X103533000Y-95732600D01*
X101892100Y-97345500D02*
X101854000Y-97307400D01*
X103533000Y-97345500D02*
X101892100Y-97345500D01*
X91982980Y-98869500D02*
X91382980Y-98869500D01*
X92087700Y-98869500D02*
X91382980Y-98869500D01*
X94197180Y-96760020D02*
X92087700Y-98869500D01*
X97194320Y-96760020D02*
X94197180Y-96760020D01*
X101854000Y-95557400D02*
X98396940Y-95557400D01*
X98396940Y-95557400D02*
X97194320Y-96760020D01*
G36*
X162659600Y-101742125D02*
G01*
X143417707Y-101742125D01*
X144648961Y-100510872D01*
X145440400Y-100510872D01*
X145564882Y-100498612D01*
X145684580Y-100462302D01*
X145794894Y-100403337D01*
X145891585Y-100323985D01*
X145970937Y-100227294D01*
X146029902Y-100116980D01*
X146050000Y-100050726D01*
X146070098Y-100116980D01*
X146129063Y-100227294D01*
X146208415Y-100323985D01*
X146305106Y-100403337D01*
X146415420Y-100462302D01*
X146535118Y-100498612D01*
X146659600Y-100510872D01*
X147980400Y-100510872D01*
X148104882Y-100498612D01*
X148224580Y-100462302D01*
X148334894Y-100403337D01*
X148431585Y-100323985D01*
X148510937Y-100227294D01*
X148569902Y-100116980D01*
X148606212Y-99997282D01*
X148618472Y-99872800D01*
X148618472Y-94691200D01*
X148606212Y-94566718D01*
X148569902Y-94447020D01*
X148510937Y-94336706D01*
X148431585Y-94240015D01*
X148334894Y-94160663D01*
X148224580Y-94101698D01*
X148104882Y-94065388D01*
X147980400Y-94053128D01*
X146659600Y-94053128D01*
X146535118Y-94065388D01*
X146415420Y-94101698D01*
X146305106Y-94160663D01*
X146208415Y-94240015D01*
X146129063Y-94336706D01*
X146070098Y-94447020D01*
X146050000Y-94513274D01*
X146029902Y-94447020D01*
X145970937Y-94336706D01*
X145891585Y-94240015D01*
X145794894Y-94160663D01*
X145684580Y-94101698D01*
X145564882Y-94065388D01*
X145440400Y-94053128D01*
X144119600Y-94053128D01*
X143995118Y-94065388D01*
X143875420Y-94101698D01*
X143765106Y-94160663D01*
X143668415Y-94240015D01*
X143589063Y-94336706D01*
X143530098Y-94447020D01*
X143510000Y-94513274D01*
X143489902Y-94447020D01*
X143430937Y-94336706D01*
X143425162Y-94329669D01*
X143844498Y-93910333D01*
X157708378Y-93910333D01*
X157708378Y-94279917D01*
X157780480Y-94642399D01*
X157921914Y-94983849D01*
X158127243Y-95291147D01*
X158388578Y-95552482D01*
X158695876Y-95757811D01*
X159037326Y-95899245D01*
X159399808Y-95971347D01*
X159769392Y-95971347D01*
X160131874Y-95899245D01*
X160473324Y-95757811D01*
X160780622Y-95552482D01*
X161041957Y-95291147D01*
X161247286Y-94983849D01*
X161388720Y-94642399D01*
X161460822Y-94279917D01*
X161460822Y-93910333D01*
X161388720Y-93547851D01*
X161247286Y-93206401D01*
X161041957Y-92899103D01*
X160780622Y-92637768D01*
X160473324Y-92432439D01*
X160131874Y-92291005D01*
X159769392Y-92218903D01*
X159399808Y-92218903D01*
X159037326Y-92291005D01*
X158695876Y-92432439D01*
X158388578Y-92637768D01*
X158127243Y-92899103D01*
X157921914Y-93206401D01*
X157780480Y-93547851D01*
X157708378Y-93910333D01*
X143844498Y-93910333D01*
X144022352Y-93732479D01*
X144051422Y-93708622D01*
X144060279Y-93697830D01*
X144119600Y-93703672D01*
X145440400Y-93703672D01*
X145564882Y-93691412D01*
X145684580Y-93655102D01*
X145794894Y-93596137D01*
X145891585Y-93516785D01*
X145970937Y-93420094D01*
X146029902Y-93309780D01*
X146050000Y-93243526D01*
X146070098Y-93309780D01*
X146129063Y-93420094D01*
X146208415Y-93516785D01*
X146305106Y-93596137D01*
X146415420Y-93655102D01*
X146535118Y-93691412D01*
X146659600Y-93703672D01*
X147034250Y-93700600D01*
X147193000Y-93541850D01*
X147193000Y-90601800D01*
X147447000Y-90601800D01*
X147447000Y-93541850D01*
X147605750Y-93700600D01*
X147980400Y-93703672D01*
X148104882Y-93691412D01*
X148224580Y-93655102D01*
X148334894Y-93596137D01*
X148431585Y-93516785D01*
X148510937Y-93420094D01*
X148569902Y-93309780D01*
X148606212Y-93190082D01*
X148618472Y-93065600D01*
X148615400Y-90760550D01*
X148456650Y-90601800D01*
X147447000Y-90601800D01*
X147193000Y-90601800D01*
X147173000Y-90601800D01*
X147173000Y-90347800D01*
X147193000Y-90347800D01*
X147193000Y-87407750D01*
X147447000Y-87407750D01*
X147447000Y-90347800D01*
X148456650Y-90347800D01*
X148615400Y-90189050D01*
X148618472Y-87884000D01*
X148606212Y-87759518D01*
X148569902Y-87639820D01*
X148510937Y-87529506D01*
X148431585Y-87432815D01*
X148334894Y-87353463D01*
X148224580Y-87294498D01*
X148104882Y-87258188D01*
X147980400Y-87245928D01*
X147605750Y-87249000D01*
X147447000Y-87407750D01*
X147193000Y-87407750D01*
X147034250Y-87249000D01*
X146659600Y-87245928D01*
X146535118Y-87258188D01*
X146415420Y-87294498D01*
X146305106Y-87353463D01*
X146208415Y-87432815D01*
X146129063Y-87529506D01*
X146070098Y-87639820D01*
X146050000Y-87706074D01*
X146029902Y-87639820D01*
X145970937Y-87529506D01*
X145891585Y-87432815D01*
X145794894Y-87353463D01*
X145684580Y-87294498D01*
X145564882Y-87258188D01*
X145440400Y-87245928D01*
X144559159Y-87245928D01*
X143761355Y-86448125D01*
X162659601Y-86448125D01*
X162659600Y-101742125D01*
X162659600Y-101742125D01*
G37*
X162659600Y-101742125D02*
X143417707Y-101742125D01*
X144648961Y-100510872D01*
X145440400Y-100510872D01*
X145564882Y-100498612D01*
X145684580Y-100462302D01*
X145794894Y-100403337D01*
X145891585Y-100323985D01*
X145970937Y-100227294D01*
X146029902Y-100116980D01*
X146050000Y-100050726D01*
X146070098Y-100116980D01*
X146129063Y-100227294D01*
X146208415Y-100323985D01*
X146305106Y-100403337D01*
X146415420Y-100462302D01*
X146535118Y-100498612D01*
X146659600Y-100510872D01*
X147980400Y-100510872D01*
X148104882Y-100498612D01*
X148224580Y-100462302D01*
X148334894Y-100403337D01*
X148431585Y-100323985D01*
X148510937Y-100227294D01*
X148569902Y-100116980D01*
X148606212Y-99997282D01*
X148618472Y-99872800D01*
X148618472Y-94691200D01*
X148606212Y-94566718D01*
X148569902Y-94447020D01*
X148510937Y-94336706D01*
X148431585Y-94240015D01*
X148334894Y-94160663D01*
X148224580Y-94101698D01*
X148104882Y-94065388D01*
X147980400Y-94053128D01*
X146659600Y-94053128D01*
X146535118Y-94065388D01*
X146415420Y-94101698D01*
X146305106Y-94160663D01*
X146208415Y-94240015D01*
X146129063Y-94336706D01*
X146070098Y-94447020D01*
X146050000Y-94513274D01*
X146029902Y-94447020D01*
X145970937Y-94336706D01*
X145891585Y-94240015D01*
X145794894Y-94160663D01*
X145684580Y-94101698D01*
X145564882Y-94065388D01*
X145440400Y-94053128D01*
X144119600Y-94053128D01*
X143995118Y-94065388D01*
X143875420Y-94101698D01*
X143765106Y-94160663D01*
X143668415Y-94240015D01*
X143589063Y-94336706D01*
X143530098Y-94447020D01*
X143510000Y-94513274D01*
X143489902Y-94447020D01*
X143430937Y-94336706D01*
X143425162Y-94329669D01*
X143844498Y-93910333D01*
X157708378Y-93910333D01*
X157708378Y-94279917D01*
X157780480Y-94642399D01*
X157921914Y-94983849D01*
X158127243Y-95291147D01*
X158388578Y-95552482D01*
X158695876Y-95757811D01*
X159037326Y-95899245D01*
X159399808Y-95971347D01*
X159769392Y-95971347D01*
X160131874Y-95899245D01*
X160473324Y-95757811D01*
X160780622Y-95552482D01*
X161041957Y-95291147D01*
X161247286Y-94983849D01*
X161388720Y-94642399D01*
X161460822Y-94279917D01*
X161460822Y-93910333D01*
X161388720Y-93547851D01*
X161247286Y-93206401D01*
X161041957Y-92899103D01*
X160780622Y-92637768D01*
X160473324Y-92432439D01*
X160131874Y-92291005D01*
X159769392Y-92218903D01*
X159399808Y-92218903D01*
X159037326Y-92291005D01*
X158695876Y-92432439D01*
X158388578Y-92637768D01*
X158127243Y-92899103D01*
X157921914Y-93206401D01*
X157780480Y-93547851D01*
X157708378Y-93910333D01*
X143844498Y-93910333D01*
X144022352Y-93732479D01*
X144051422Y-93708622D01*
X144060279Y-93697830D01*
X144119600Y-93703672D01*
X145440400Y-93703672D01*
X145564882Y-93691412D01*
X145684580Y-93655102D01*
X145794894Y-93596137D01*
X145891585Y-93516785D01*
X145970937Y-93420094D01*
X146029902Y-93309780D01*
X146050000Y-93243526D01*
X146070098Y-93309780D01*
X146129063Y-93420094D01*
X146208415Y-93516785D01*
X146305106Y-93596137D01*
X146415420Y-93655102D01*
X146535118Y-93691412D01*
X146659600Y-93703672D01*
X147034250Y-93700600D01*
X147193000Y-93541850D01*
X147193000Y-90601800D01*
X147447000Y-90601800D01*
X147447000Y-93541850D01*
X147605750Y-93700600D01*
X147980400Y-93703672D01*
X148104882Y-93691412D01*
X148224580Y-93655102D01*
X148334894Y-93596137D01*
X148431585Y-93516785D01*
X148510937Y-93420094D01*
X148569902Y-93309780D01*
X148606212Y-93190082D01*
X148618472Y-93065600D01*
X148615400Y-90760550D01*
X148456650Y-90601800D01*
X147447000Y-90601800D01*
X147193000Y-90601800D01*
X147173000Y-90601800D01*
X147173000Y-90347800D01*
X147193000Y-90347800D01*
X147193000Y-87407750D01*
X147447000Y-87407750D01*
X147447000Y-90347800D01*
X148456650Y-90347800D01*
X148615400Y-90189050D01*
X148618472Y-87884000D01*
X148606212Y-87759518D01*
X148569902Y-87639820D01*
X148510937Y-87529506D01*
X148431585Y-87432815D01*
X148334894Y-87353463D01*
X148224580Y-87294498D01*
X148104882Y-87258188D01*
X147980400Y-87245928D01*
X147605750Y-87249000D01*
X147447000Y-87407750D01*
X147193000Y-87407750D01*
X147034250Y-87249000D01*
X146659600Y-87245928D01*
X146535118Y-87258188D01*
X146415420Y-87294498D01*
X146305106Y-87353463D01*
X146208415Y-87432815D01*
X146129063Y-87529506D01*
X146070098Y-87639820D01*
X146050000Y-87706074D01*
X146029902Y-87639820D01*
X145970937Y-87529506D01*
X145891585Y-87432815D01*
X145794894Y-87353463D01*
X145684580Y-87294498D01*
X145564882Y-87258188D01*
X145440400Y-87245928D01*
X144559159Y-87245928D01*
X143761355Y-86448125D01*
X162659601Y-86448125D01*
X162659600Y-101742125D01*
G36*
X69907653Y-89796717D02*
G01*
X69878577Y-89820579D01*
X69845072Y-89861405D01*
X69845072Y-88276000D01*
X69832812Y-88151518D01*
X69796502Y-88031820D01*
X69737537Y-87921506D01*
X69658185Y-87824815D01*
X69561494Y-87745463D01*
X69451180Y-87686498D01*
X69331482Y-87650188D01*
X69207000Y-87637928D01*
X68207000Y-87637928D01*
X68082518Y-87650188D01*
X67962820Y-87686498D01*
X67852506Y-87745463D01*
X67755815Y-87824815D01*
X67676463Y-87921506D01*
X67617498Y-88031820D01*
X67581188Y-88151518D01*
X67568928Y-88276000D01*
X67568928Y-90786000D01*
X67581188Y-90910482D01*
X67617498Y-91030180D01*
X67676463Y-91140494D01*
X67755815Y-91237185D01*
X67852506Y-91316537D01*
X67945001Y-91365977D01*
X67945000Y-93815574D01*
X67941314Y-93853000D01*
X67945000Y-93890423D01*
X67945000Y-93890425D01*
X67956026Y-94002377D01*
X67999598Y-94146014D01*
X68030572Y-94203963D01*
X68070355Y-94278392D01*
X68106131Y-94321985D01*
X68165578Y-94394422D01*
X68194654Y-94418284D01*
X69450000Y-95673630D01*
X69450000Y-95732939D01*
X69489774Y-95932898D01*
X69567795Y-96121256D01*
X69681063Y-96290774D01*
X69825226Y-96434937D01*
X69994744Y-96548205D01*
X70183102Y-96626226D01*
X70383061Y-96666000D01*
X70586939Y-96666000D01*
X70786898Y-96626226D01*
X70887108Y-96584717D01*
X70877173Y-96608703D01*
X70837399Y-96808662D01*
X70837399Y-97012540D01*
X70877173Y-97212499D01*
X70955194Y-97400857D01*
X71068462Y-97570375D01*
X71120000Y-97621913D01*
X71120000Y-98006576D01*
X71116314Y-98044000D01*
X71120000Y-98081423D01*
X71120000Y-98081425D01*
X71131026Y-98193377D01*
X71132291Y-98197547D01*
X71126928Y-98252000D01*
X71126928Y-98269495D01*
X67235989Y-94378557D01*
X67256502Y-94340180D01*
X67292812Y-94220482D01*
X67305072Y-94096000D01*
X67305072Y-91586000D01*
X67292812Y-91461518D01*
X67256502Y-91341820D01*
X67197537Y-91231506D01*
X67118185Y-91134815D01*
X67021494Y-91055463D01*
X66911180Y-90996498D01*
X66791482Y-90960188D01*
X66667000Y-90947928D01*
X65667000Y-90947928D01*
X65542518Y-90960188D01*
X65422820Y-90996498D01*
X65312506Y-91055463D01*
X65215815Y-91134815D01*
X65136463Y-91231506D01*
X65077498Y-91341820D01*
X65041188Y-91461518D01*
X65028928Y-91586000D01*
X65028928Y-94096000D01*
X65041188Y-94220482D01*
X65077498Y-94340180D01*
X65136463Y-94450494D01*
X65215815Y-94547185D01*
X65312506Y-94626537D01*
X65356918Y-94650276D01*
X65400647Y-94794433D01*
X65477301Y-94937842D01*
X65524618Y-94995497D01*
X65580460Y-95063541D01*
X65611961Y-95089393D01*
X71126928Y-100604361D01*
X71126928Y-100752000D01*
X71139188Y-100876482D01*
X71175498Y-100996180D01*
X71234463Y-101106494D01*
X71313815Y-101203185D01*
X71410506Y-101282537D01*
X71520820Y-101341502D01*
X71640518Y-101377812D01*
X71765000Y-101390072D01*
X73015000Y-101390072D01*
X73139482Y-101377812D01*
X73259180Y-101341502D01*
X73369494Y-101282537D01*
X73375632Y-101277500D01*
X74456066Y-101277500D01*
X74920690Y-101742125D01*
X51099601Y-101742125D01*
X51099601Y-93910333D01*
X52298379Y-93910333D01*
X52298379Y-94279917D01*
X52370481Y-94642399D01*
X52511915Y-94983849D01*
X52717244Y-95291147D01*
X52978579Y-95552482D01*
X53285877Y-95757811D01*
X53627327Y-95899245D01*
X53989809Y-95971347D01*
X54359393Y-95971347D01*
X54721875Y-95899245D01*
X55063325Y-95757811D01*
X55370623Y-95552482D01*
X55631958Y-95291147D01*
X55837287Y-94983849D01*
X55978721Y-94642399D01*
X56050823Y-94279917D01*
X56050823Y-93910333D01*
X55978721Y-93547851D01*
X55837287Y-93206401D01*
X55631958Y-92899103D01*
X55370623Y-92637768D01*
X55063325Y-92432439D01*
X54721875Y-92291005D01*
X54359393Y-92218903D01*
X53989809Y-92218903D01*
X53627327Y-92291005D01*
X53285877Y-92432439D01*
X52978579Y-92637768D01*
X52717244Y-92899103D01*
X52511915Y-93206401D01*
X52370481Y-93547851D01*
X52298379Y-93910333D01*
X51099601Y-93910333D01*
X51099601Y-91586000D01*
X59948928Y-91586000D01*
X59948928Y-94096000D01*
X59961188Y-94220482D01*
X59997498Y-94340180D01*
X60056463Y-94450494D01*
X60135815Y-94547185D01*
X60232506Y-94626537D01*
X60342820Y-94685502D01*
X60462518Y-94721812D01*
X60587000Y-94734072D01*
X61587000Y-94734072D01*
X61711482Y-94721812D01*
X61831180Y-94685502D01*
X61941494Y-94626537D01*
X62038185Y-94547185D01*
X62117537Y-94450494D01*
X62176502Y-94340180D01*
X62212812Y-94220482D01*
X62225072Y-94096000D01*
X62225072Y-91586000D01*
X62212812Y-91461518D01*
X62176502Y-91341820D01*
X62117537Y-91231506D01*
X62038185Y-91134815D01*
X61941494Y-91055463D01*
X61831180Y-90996498D01*
X61711482Y-90960188D01*
X61587000Y-90947928D01*
X60587000Y-90947928D01*
X60462518Y-90960188D01*
X60342820Y-90996498D01*
X60232506Y-91055463D01*
X60135815Y-91134815D01*
X60056463Y-91231506D01*
X59997498Y-91341820D01*
X59961188Y-91461518D01*
X59948928Y-91586000D01*
X51099601Y-91586000D01*
X51099601Y-90786000D01*
X62488928Y-90786000D01*
X62501188Y-90910482D01*
X62537498Y-91030180D01*
X62596463Y-91140494D01*
X62675815Y-91237185D01*
X62772506Y-91316537D01*
X62882820Y-91375502D01*
X63002518Y-91411812D01*
X63127000Y-91424072D01*
X63341250Y-91421000D01*
X63500000Y-91262250D01*
X63500000Y-89658000D01*
X63754000Y-89658000D01*
X63754000Y-91262250D01*
X63912750Y-91421000D01*
X64127000Y-91424072D01*
X64251482Y-91411812D01*
X64371180Y-91375502D01*
X64481494Y-91316537D01*
X64578185Y-91237185D01*
X64657537Y-91140494D01*
X64716502Y-91030180D01*
X64752812Y-90910482D01*
X64765072Y-90786000D01*
X64762000Y-89816750D01*
X64603250Y-89658000D01*
X63754000Y-89658000D01*
X63500000Y-89658000D01*
X62650750Y-89658000D01*
X62492000Y-89816750D01*
X62488928Y-90786000D01*
X51099601Y-90786000D01*
X51099601Y-88276000D01*
X62488928Y-88276000D01*
X62492000Y-89245250D01*
X62650750Y-89404000D01*
X63500000Y-89404000D01*
X63500000Y-87799750D01*
X63754000Y-87799750D01*
X63754000Y-89404000D01*
X64603250Y-89404000D01*
X64762000Y-89245250D01*
X64765072Y-88276000D01*
X64752812Y-88151518D01*
X64716502Y-88031820D01*
X64657537Y-87921506D01*
X64578185Y-87824815D01*
X64481494Y-87745463D01*
X64371180Y-87686498D01*
X64251482Y-87650188D01*
X64127000Y-87637928D01*
X63912750Y-87641000D01*
X63754000Y-87799750D01*
X63500000Y-87799750D01*
X63341250Y-87641000D01*
X63127000Y-87637928D01*
X63002518Y-87650188D01*
X62882820Y-87686498D01*
X62772506Y-87745463D01*
X62675815Y-87824815D01*
X62596463Y-87921506D01*
X62537498Y-88031820D01*
X62501188Y-88151518D01*
X62488928Y-88276000D01*
X51099601Y-88276000D01*
X51099601Y-86448125D01*
X73256244Y-86448125D01*
X69907653Y-89796717D01*
X69907653Y-89796717D01*
G37*
X69907653Y-89796717D02*
X69878577Y-89820579D01*
X69845072Y-89861405D01*
X69845072Y-88276000D01*
X69832812Y-88151518D01*
X69796502Y-88031820D01*
X69737537Y-87921506D01*
X69658185Y-87824815D01*
X69561494Y-87745463D01*
X69451180Y-87686498D01*
X69331482Y-87650188D01*
X69207000Y-87637928D01*
X68207000Y-87637928D01*
X68082518Y-87650188D01*
X67962820Y-87686498D01*
X67852506Y-87745463D01*
X67755815Y-87824815D01*
X67676463Y-87921506D01*
X67617498Y-88031820D01*
X67581188Y-88151518D01*
X67568928Y-88276000D01*
X67568928Y-90786000D01*
X67581188Y-90910482D01*
X67617498Y-91030180D01*
X67676463Y-91140494D01*
X67755815Y-91237185D01*
X67852506Y-91316537D01*
X67945001Y-91365977D01*
X67945000Y-93815574D01*
X67941314Y-93853000D01*
X67945000Y-93890423D01*
X67945000Y-93890425D01*
X67956026Y-94002377D01*
X67999598Y-94146014D01*
X68030572Y-94203963D01*
X68070355Y-94278392D01*
X68106131Y-94321985D01*
X68165578Y-94394422D01*
X68194654Y-94418284D01*
X69450000Y-95673630D01*
X69450000Y-95732939D01*
X69489774Y-95932898D01*
X69567795Y-96121256D01*
X69681063Y-96290774D01*
X69825226Y-96434937D01*
X69994744Y-96548205D01*
X70183102Y-96626226D01*
X70383061Y-96666000D01*
X70586939Y-96666000D01*
X70786898Y-96626226D01*
X70887108Y-96584717D01*
X70877173Y-96608703D01*
X70837399Y-96808662D01*
X70837399Y-97012540D01*
X70877173Y-97212499D01*
X70955194Y-97400857D01*
X71068462Y-97570375D01*
X71120000Y-97621913D01*
X71120000Y-98006576D01*
X71116314Y-98044000D01*
X71120000Y-98081423D01*
X71120000Y-98081425D01*
X71131026Y-98193377D01*
X71132291Y-98197547D01*
X71126928Y-98252000D01*
X71126928Y-98269495D01*
X67235989Y-94378557D01*
X67256502Y-94340180D01*
X67292812Y-94220482D01*
X67305072Y-94096000D01*
X67305072Y-91586000D01*
X67292812Y-91461518D01*
X67256502Y-91341820D01*
X67197537Y-91231506D01*
X67118185Y-91134815D01*
X67021494Y-91055463D01*
X66911180Y-90996498D01*
X66791482Y-90960188D01*
X66667000Y-90947928D01*
X65667000Y-90947928D01*
X65542518Y-90960188D01*
X65422820Y-90996498D01*
X65312506Y-91055463D01*
X65215815Y-91134815D01*
X65136463Y-91231506D01*
X65077498Y-91341820D01*
X65041188Y-91461518D01*
X65028928Y-91586000D01*
X65028928Y-94096000D01*
X65041188Y-94220482D01*
X65077498Y-94340180D01*
X65136463Y-94450494D01*
X65215815Y-94547185D01*
X65312506Y-94626537D01*
X65356918Y-94650276D01*
X65400647Y-94794433D01*
X65477301Y-94937842D01*
X65524618Y-94995497D01*
X65580460Y-95063541D01*
X65611961Y-95089393D01*
X71126928Y-100604361D01*
X71126928Y-100752000D01*
X71139188Y-100876482D01*
X71175498Y-100996180D01*
X71234463Y-101106494D01*
X71313815Y-101203185D01*
X71410506Y-101282537D01*
X71520820Y-101341502D01*
X71640518Y-101377812D01*
X71765000Y-101390072D01*
X73015000Y-101390072D01*
X73139482Y-101377812D01*
X73259180Y-101341502D01*
X73369494Y-101282537D01*
X73375632Y-101277500D01*
X74456066Y-101277500D01*
X74920690Y-101742125D01*
X51099601Y-101742125D01*
X51099601Y-93910333D01*
X52298379Y-93910333D01*
X52298379Y-94279917D01*
X52370481Y-94642399D01*
X52511915Y-94983849D01*
X52717244Y-95291147D01*
X52978579Y-95552482D01*
X53285877Y-95757811D01*
X53627327Y-95899245D01*
X53989809Y-95971347D01*
X54359393Y-95971347D01*
X54721875Y-95899245D01*
X55063325Y-95757811D01*
X55370623Y-95552482D01*
X55631958Y-95291147D01*
X55837287Y-94983849D01*
X55978721Y-94642399D01*
X56050823Y-94279917D01*
X56050823Y-93910333D01*
X55978721Y-93547851D01*
X55837287Y-93206401D01*
X55631958Y-92899103D01*
X55370623Y-92637768D01*
X55063325Y-92432439D01*
X54721875Y-92291005D01*
X54359393Y-92218903D01*
X53989809Y-92218903D01*
X53627327Y-92291005D01*
X53285877Y-92432439D01*
X52978579Y-92637768D01*
X52717244Y-92899103D01*
X52511915Y-93206401D01*
X52370481Y-93547851D01*
X52298379Y-93910333D01*
X51099601Y-93910333D01*
X51099601Y-91586000D01*
X59948928Y-91586000D01*
X59948928Y-94096000D01*
X59961188Y-94220482D01*
X59997498Y-94340180D01*
X60056463Y-94450494D01*
X60135815Y-94547185D01*
X60232506Y-94626537D01*
X60342820Y-94685502D01*
X60462518Y-94721812D01*
X60587000Y-94734072D01*
X61587000Y-94734072D01*
X61711482Y-94721812D01*
X61831180Y-94685502D01*
X61941494Y-94626537D01*
X62038185Y-94547185D01*
X62117537Y-94450494D01*
X62176502Y-94340180D01*
X62212812Y-94220482D01*
X62225072Y-94096000D01*
X62225072Y-91586000D01*
X62212812Y-91461518D01*
X62176502Y-91341820D01*
X62117537Y-91231506D01*
X62038185Y-91134815D01*
X61941494Y-91055463D01*
X61831180Y-90996498D01*
X61711482Y-90960188D01*
X61587000Y-90947928D01*
X60587000Y-90947928D01*
X60462518Y-90960188D01*
X60342820Y-90996498D01*
X60232506Y-91055463D01*
X60135815Y-91134815D01*
X60056463Y-91231506D01*
X59997498Y-91341820D01*
X59961188Y-91461518D01*
X59948928Y-91586000D01*
X51099601Y-91586000D01*
X51099601Y-90786000D01*
X62488928Y-90786000D01*
X62501188Y-90910482D01*
X62537498Y-91030180D01*
X62596463Y-91140494D01*
X62675815Y-91237185D01*
X62772506Y-91316537D01*
X62882820Y-91375502D01*
X63002518Y-91411812D01*
X63127000Y-91424072D01*
X63341250Y-91421000D01*
X63500000Y-91262250D01*
X63500000Y-89658000D01*
X63754000Y-89658000D01*
X63754000Y-91262250D01*
X63912750Y-91421000D01*
X64127000Y-91424072D01*
X64251482Y-91411812D01*
X64371180Y-91375502D01*
X64481494Y-91316537D01*
X64578185Y-91237185D01*
X64657537Y-91140494D01*
X64716502Y-91030180D01*
X64752812Y-90910482D01*
X64765072Y-90786000D01*
X64762000Y-89816750D01*
X64603250Y-89658000D01*
X63754000Y-89658000D01*
X63500000Y-89658000D01*
X62650750Y-89658000D01*
X62492000Y-89816750D01*
X62488928Y-90786000D01*
X51099601Y-90786000D01*
X51099601Y-88276000D01*
X62488928Y-88276000D01*
X62492000Y-89245250D01*
X62650750Y-89404000D01*
X63500000Y-89404000D01*
X63500000Y-87799750D01*
X63754000Y-87799750D01*
X63754000Y-89404000D01*
X64603250Y-89404000D01*
X64762000Y-89245250D01*
X64765072Y-88276000D01*
X64752812Y-88151518D01*
X64716502Y-88031820D01*
X64657537Y-87921506D01*
X64578185Y-87824815D01*
X64481494Y-87745463D01*
X64371180Y-87686498D01*
X64251482Y-87650188D01*
X64127000Y-87637928D01*
X63912750Y-87641000D01*
X63754000Y-87799750D01*
X63500000Y-87799750D01*
X63341250Y-87641000D01*
X63127000Y-87637928D01*
X63002518Y-87650188D01*
X62882820Y-87686498D01*
X62772506Y-87745463D01*
X62675815Y-87824815D01*
X62596463Y-87921506D01*
X62537498Y-88031820D01*
X62501188Y-88151518D01*
X62488928Y-88276000D01*
X51099601Y-88276000D01*
X51099601Y-86448125D01*
X73256244Y-86448125D01*
X69907653Y-89796717D01*
G36*
X135861528Y-93065600D02*
G01*
X135873788Y-93190082D01*
X135910098Y-93309780D01*
X135969063Y-93420094D01*
X136048415Y-93516785D01*
X136145106Y-93596137D01*
X136255420Y-93655102D01*
X136375118Y-93691412D01*
X136499600Y-93703672D01*
X137820400Y-93703672D01*
X137944882Y-93691412D01*
X138064580Y-93655102D01*
X138174894Y-93596137D01*
X138271585Y-93516785D01*
X138350937Y-93420094D01*
X138409902Y-93309780D01*
X138430000Y-93243526D01*
X138450098Y-93309780D01*
X138509063Y-93420094D01*
X138588415Y-93516785D01*
X138685106Y-93596137D01*
X138795420Y-93655102D01*
X138915118Y-93691412D01*
X139039600Y-93703672D01*
X139041269Y-93703672D01*
X139063355Y-93744992D01*
X139124680Y-93819716D01*
X139158579Y-93861022D01*
X139187649Y-93884879D01*
X139355898Y-94053128D01*
X139039600Y-94053128D01*
X138915118Y-94065388D01*
X138795420Y-94101698D01*
X138685106Y-94160663D01*
X138588415Y-94240015D01*
X138509063Y-94336706D01*
X138450098Y-94447020D01*
X138430000Y-94513274D01*
X138409902Y-94447020D01*
X138350937Y-94336706D01*
X138271585Y-94240015D01*
X138174894Y-94160663D01*
X138064580Y-94101698D01*
X137944882Y-94065388D01*
X137820400Y-94053128D01*
X137445750Y-94056200D01*
X137287000Y-94214950D01*
X137287000Y-97155000D01*
X137307000Y-97155000D01*
X137307000Y-97409000D01*
X137287000Y-97409000D01*
X137287000Y-100349050D01*
X137445750Y-100507800D01*
X137820400Y-100510872D01*
X137944882Y-100498612D01*
X138064580Y-100462302D01*
X138174894Y-100403337D01*
X138271585Y-100323985D01*
X138350937Y-100227294D01*
X138409902Y-100116980D01*
X138430000Y-100050726D01*
X138450098Y-100116980D01*
X138509063Y-100227294D01*
X138588415Y-100323985D01*
X138685106Y-100403337D01*
X138736565Y-100430843D01*
X138704774Y-100507592D01*
X138665000Y-100707551D01*
X138665000Y-100786187D01*
X134986729Y-100786187D01*
X134986300Y-100784028D01*
X134908279Y-100595670D01*
X134795011Y-100426152D01*
X134650848Y-100281989D01*
X134481330Y-100168721D01*
X134292972Y-100090700D01*
X134093013Y-100050926D01*
X133889135Y-100050926D01*
X133689176Y-100090700D01*
X133500818Y-100168721D01*
X133331300Y-100281989D01*
X133187137Y-100426152D01*
X133073869Y-100595670D01*
X132995848Y-100784028D01*
X132956074Y-100983987D01*
X132956074Y-101187865D01*
X132995848Y-101387824D01*
X133073869Y-101576182D01*
X133184748Y-101742125D01*
X118155565Y-101742125D01*
X118233043Y-101678541D01*
X118258899Y-101647035D01*
X118856294Y-101049642D01*
X118875906Y-101065737D01*
X118986220Y-101124702D01*
X119105918Y-101161012D01*
X119230400Y-101173272D01*
X119579650Y-101170200D01*
X119738400Y-101011450D01*
X119738400Y-99392200D01*
X119992400Y-99392200D01*
X119992400Y-101011450D01*
X120151150Y-101170200D01*
X120500400Y-101173272D01*
X120624882Y-101161012D01*
X120744580Y-101124702D01*
X120854894Y-101065737D01*
X120951585Y-100986385D01*
X121030937Y-100889694D01*
X121089902Y-100779380D01*
X121126212Y-100659682D01*
X121138472Y-100535200D01*
X121136405Y-99872800D01*
X135861528Y-99872800D01*
X135873788Y-99997282D01*
X135910098Y-100116980D01*
X135969063Y-100227294D01*
X136048415Y-100323985D01*
X136145106Y-100403337D01*
X136255420Y-100462302D01*
X136375118Y-100498612D01*
X136499600Y-100510872D01*
X136874250Y-100507800D01*
X137033000Y-100349050D01*
X137033000Y-97409000D01*
X136023350Y-97409000D01*
X135864600Y-97567750D01*
X135861528Y-99872800D01*
X121136405Y-99872800D01*
X121135400Y-99550950D01*
X120976650Y-99392200D01*
X119992400Y-99392200D01*
X119738400Y-99392200D01*
X119718400Y-99392200D01*
X119718400Y-99138200D01*
X119738400Y-99138200D01*
X119738400Y-99118200D01*
X119992400Y-99118200D01*
X119992400Y-99138200D01*
X120976650Y-99138200D01*
X121135400Y-98979450D01*
X121137646Y-98259900D01*
X126683468Y-98259900D01*
X127039372Y-98615804D01*
X127071574Y-98777698D01*
X127149595Y-98966056D01*
X127262863Y-99135574D01*
X127407026Y-99279737D01*
X127576544Y-99393005D01*
X127764902Y-99471026D01*
X127964861Y-99510800D01*
X128168739Y-99510800D01*
X128368698Y-99471026D01*
X128557056Y-99393005D01*
X128726574Y-99279737D01*
X128870737Y-99135574D01*
X128984005Y-98966056D01*
X129062026Y-98777698D01*
X129094229Y-98615804D01*
X133018833Y-94691200D01*
X135861528Y-94691200D01*
X135864600Y-96996250D01*
X136023350Y-97155000D01*
X137033000Y-97155000D01*
X137033000Y-94214950D01*
X136874250Y-94056200D01*
X136499600Y-94053128D01*
X136375118Y-94065388D01*
X136255420Y-94101698D01*
X136145106Y-94160663D01*
X136048415Y-94240015D01*
X135969063Y-94336706D01*
X135910098Y-94447020D01*
X135873788Y-94566718D01*
X135861528Y-94691200D01*
X133018833Y-94691200D01*
X135861528Y-91848505D01*
X135861528Y-93065600D01*
X135861528Y-93065600D01*
G37*
X135861528Y-93065600D02*
X135873788Y-93190082D01*
X135910098Y-93309780D01*
X135969063Y-93420094D01*
X136048415Y-93516785D01*
X136145106Y-93596137D01*
X136255420Y-93655102D01*
X136375118Y-93691412D01*
X136499600Y-93703672D01*
X137820400Y-93703672D01*
X137944882Y-93691412D01*
X138064580Y-93655102D01*
X138174894Y-93596137D01*
X138271585Y-93516785D01*
X138350937Y-93420094D01*
X138409902Y-93309780D01*
X138430000Y-93243526D01*
X138450098Y-93309780D01*
X138509063Y-93420094D01*
X138588415Y-93516785D01*
X138685106Y-93596137D01*
X138795420Y-93655102D01*
X138915118Y-93691412D01*
X139039600Y-93703672D01*
X139041269Y-93703672D01*
X139063355Y-93744992D01*
X139124680Y-93819716D01*
X139158579Y-93861022D01*
X139187649Y-93884879D01*
X139355898Y-94053128D01*
X139039600Y-94053128D01*
X138915118Y-94065388D01*
X138795420Y-94101698D01*
X138685106Y-94160663D01*
X138588415Y-94240015D01*
X138509063Y-94336706D01*
X138450098Y-94447020D01*
X138430000Y-94513274D01*
X138409902Y-94447020D01*
X138350937Y-94336706D01*
X138271585Y-94240015D01*
X138174894Y-94160663D01*
X138064580Y-94101698D01*
X137944882Y-94065388D01*
X137820400Y-94053128D01*
X137445750Y-94056200D01*
X137287000Y-94214950D01*
X137287000Y-97155000D01*
X137307000Y-97155000D01*
X137307000Y-97409000D01*
X137287000Y-97409000D01*
X137287000Y-100349050D01*
X137445750Y-100507800D01*
X137820400Y-100510872D01*
X137944882Y-100498612D01*
X138064580Y-100462302D01*
X138174894Y-100403337D01*
X138271585Y-100323985D01*
X138350937Y-100227294D01*
X138409902Y-100116980D01*
X138430000Y-100050726D01*
X138450098Y-100116980D01*
X138509063Y-100227294D01*
X138588415Y-100323985D01*
X138685106Y-100403337D01*
X138736565Y-100430843D01*
X138704774Y-100507592D01*
X138665000Y-100707551D01*
X138665000Y-100786187D01*
X134986729Y-100786187D01*
X134986300Y-100784028D01*
X134908279Y-100595670D01*
X134795011Y-100426152D01*
X134650848Y-100281989D01*
X134481330Y-100168721D01*
X134292972Y-100090700D01*
X134093013Y-100050926D01*
X133889135Y-100050926D01*
X133689176Y-100090700D01*
X133500818Y-100168721D01*
X133331300Y-100281989D01*
X133187137Y-100426152D01*
X133073869Y-100595670D01*
X132995848Y-100784028D01*
X132956074Y-100983987D01*
X132956074Y-101187865D01*
X132995848Y-101387824D01*
X133073869Y-101576182D01*
X133184748Y-101742125D01*
X118155565Y-101742125D01*
X118233043Y-101678541D01*
X118258899Y-101647035D01*
X118856294Y-101049642D01*
X118875906Y-101065737D01*
X118986220Y-101124702D01*
X119105918Y-101161012D01*
X119230400Y-101173272D01*
X119579650Y-101170200D01*
X119738400Y-101011450D01*
X119738400Y-99392200D01*
X119992400Y-99392200D01*
X119992400Y-101011450D01*
X120151150Y-101170200D01*
X120500400Y-101173272D01*
X120624882Y-101161012D01*
X120744580Y-101124702D01*
X120854894Y-101065737D01*
X120951585Y-100986385D01*
X121030937Y-100889694D01*
X121089902Y-100779380D01*
X121126212Y-100659682D01*
X121138472Y-100535200D01*
X121136405Y-99872800D01*
X135861528Y-99872800D01*
X135873788Y-99997282D01*
X135910098Y-100116980D01*
X135969063Y-100227294D01*
X136048415Y-100323985D01*
X136145106Y-100403337D01*
X136255420Y-100462302D01*
X136375118Y-100498612D01*
X136499600Y-100510872D01*
X136874250Y-100507800D01*
X137033000Y-100349050D01*
X137033000Y-97409000D01*
X136023350Y-97409000D01*
X135864600Y-97567750D01*
X135861528Y-99872800D01*
X121136405Y-99872800D01*
X121135400Y-99550950D01*
X120976650Y-99392200D01*
X119992400Y-99392200D01*
X119738400Y-99392200D01*
X119718400Y-99392200D01*
X119718400Y-99138200D01*
X119738400Y-99138200D01*
X119738400Y-99118200D01*
X119992400Y-99118200D01*
X119992400Y-99138200D01*
X120976650Y-99138200D01*
X121135400Y-98979450D01*
X121137646Y-98259900D01*
X126683468Y-98259900D01*
X127039372Y-98615804D01*
X127071574Y-98777698D01*
X127149595Y-98966056D01*
X127262863Y-99135574D01*
X127407026Y-99279737D01*
X127576544Y-99393005D01*
X127764902Y-99471026D01*
X127964861Y-99510800D01*
X128168739Y-99510800D01*
X128368698Y-99471026D01*
X128557056Y-99393005D01*
X128726574Y-99279737D01*
X128870737Y-99135574D01*
X128984005Y-98966056D01*
X129062026Y-98777698D01*
X129094229Y-98615804D01*
X133018833Y-94691200D01*
X135861528Y-94691200D01*
X135864600Y-96996250D01*
X136023350Y-97155000D01*
X137033000Y-97155000D01*
X137033000Y-94214950D01*
X136874250Y-94056200D01*
X136499600Y-94053128D01*
X136375118Y-94065388D01*
X136255420Y-94101698D01*
X136145106Y-94160663D01*
X136048415Y-94240015D01*
X135969063Y-94336706D01*
X135910098Y-94447020D01*
X135873788Y-94566718D01*
X135861528Y-94691200D01*
X133018833Y-94691200D01*
X135861528Y-91848505D01*
X135861528Y-93065600D01*
G36*
X100888488Y-96331342D02*
G01*
X100971425Y-96432400D01*
X100888488Y-96533458D01*
X100807577Y-96684833D01*
X100757752Y-96849084D01*
X100740928Y-97019900D01*
X100740928Y-97594900D01*
X100757752Y-97765716D01*
X100807577Y-97929967D01*
X100888488Y-98081342D01*
X100997377Y-98214023D01*
X101130058Y-98322912D01*
X101281433Y-98403823D01*
X101445684Y-98453648D01*
X101616500Y-98470472D01*
X102091500Y-98470472D01*
X102262316Y-98453648D01*
X102426567Y-98403823D01*
X102577942Y-98322912D01*
X102675750Y-98242643D01*
X102759058Y-98311012D01*
X102910433Y-98391923D01*
X103074684Y-98441748D01*
X103245500Y-98458572D01*
X103820500Y-98458572D01*
X103991316Y-98441748D01*
X104155567Y-98391923D01*
X104306942Y-98311012D01*
X104330839Y-98291401D01*
X104403506Y-98351037D01*
X104513820Y-98410002D01*
X104633518Y-98446312D01*
X104729764Y-98455791D01*
X104670595Y-98544344D01*
X104592574Y-98732702D01*
X104552800Y-98932661D01*
X104552800Y-98991969D01*
X103515269Y-100029501D01*
X92946052Y-100029501D01*
X92946052Y-99814500D01*
X92933792Y-99690018D01*
X92897482Y-99570320D01*
X92862300Y-99504500D01*
X92897482Y-99438680D01*
X92933792Y-99318982D01*
X92946052Y-99194500D01*
X92946052Y-99088778D01*
X94512811Y-97522020D01*
X97156897Y-97522020D01*
X97194320Y-97525706D01*
X97231743Y-97522020D01*
X97231746Y-97522020D01*
X97343698Y-97510994D01*
X97487335Y-97467422D01*
X97619712Y-97396665D01*
X97735742Y-97301442D01*
X97759604Y-97272366D01*
X98712570Y-96319400D01*
X100882105Y-96319400D01*
X100888488Y-96331342D01*
X100888488Y-96331342D01*
G37*
X100888488Y-96331342D02*
X100971425Y-96432400D01*
X100888488Y-96533458D01*
X100807577Y-96684833D01*
X100757752Y-96849084D01*
X100740928Y-97019900D01*
X100740928Y-97594900D01*
X100757752Y-97765716D01*
X100807577Y-97929967D01*
X100888488Y-98081342D01*
X100997377Y-98214023D01*
X101130058Y-98322912D01*
X101281433Y-98403823D01*
X101445684Y-98453648D01*
X101616500Y-98470472D01*
X102091500Y-98470472D01*
X102262316Y-98453648D01*
X102426567Y-98403823D01*
X102577942Y-98322912D01*
X102675750Y-98242643D01*
X102759058Y-98311012D01*
X102910433Y-98391923D01*
X103074684Y-98441748D01*
X103245500Y-98458572D01*
X103820500Y-98458572D01*
X103991316Y-98441748D01*
X104155567Y-98391923D01*
X104306942Y-98311012D01*
X104330839Y-98291401D01*
X104403506Y-98351037D01*
X104513820Y-98410002D01*
X104633518Y-98446312D01*
X104729764Y-98455791D01*
X104670595Y-98544344D01*
X104592574Y-98732702D01*
X104552800Y-98932661D01*
X104552800Y-98991969D01*
X103515269Y-100029501D01*
X92946052Y-100029501D01*
X92946052Y-99814500D01*
X92933792Y-99690018D01*
X92897482Y-99570320D01*
X92862300Y-99504500D01*
X92897482Y-99438680D01*
X92933792Y-99318982D01*
X92946052Y-99194500D01*
X92946052Y-99088778D01*
X94512811Y-97522020D01*
X97156897Y-97522020D01*
X97194320Y-97525706D01*
X97231743Y-97522020D01*
X97231746Y-97522020D01*
X97343698Y-97510994D01*
X97487335Y-97467422D01*
X97619712Y-97396665D01*
X97735742Y-97301442D01*
X97759604Y-97272366D01*
X98712570Y-96319400D01*
X100882105Y-96319400D01*
X100888488Y-96331342D01*
G36*
X89832168Y-98420018D02*
G01*
X89819908Y-98544500D01*
X89819908Y-99194500D01*
X89832168Y-99318982D01*
X89868478Y-99438680D01*
X89903660Y-99504500D01*
X89868478Y-99570320D01*
X89832168Y-99690018D01*
X89819908Y-99814500D01*
X89819908Y-100029501D01*
X86401091Y-100029501D01*
X88069093Y-98361500D01*
X89849919Y-98361500D01*
X89832168Y-98420018D01*
X89832168Y-98420018D01*
G37*
X89832168Y-98420018D02*
X89819908Y-98544500D01*
X89819908Y-99194500D01*
X89832168Y-99318982D01*
X89868478Y-99438680D01*
X89903660Y-99504500D01*
X89868478Y-99570320D01*
X89832168Y-99690018D01*
X89819908Y-99814500D01*
X89819908Y-100029501D01*
X86401091Y-100029501D01*
X88069093Y-98361500D01*
X89849919Y-98361500D01*
X89832168Y-98420018D01*
G36*
X114757592Y-92080746D02*
G01*
X114783440Y-92112242D01*
X114814936Y-92138090D01*
X114814939Y-92138093D01*
X114909138Y-92215400D01*
X114995759Y-92261700D01*
X115052547Y-92292054D01*
X115208155Y-92339257D01*
X115329428Y-92351201D01*
X115329430Y-92351201D01*
X115369981Y-92355195D01*
X115410531Y-92351201D01*
X118799349Y-92351201D01*
X118839899Y-92355195D01*
X118880449Y-92351201D01*
X118880452Y-92351201D01*
X118990108Y-92340401D01*
X117961366Y-93369144D01*
X117929859Y-93395001D01*
X117868054Y-93470312D01*
X117826701Y-93520700D01*
X117777571Y-93612615D01*
X117750047Y-93664109D01*
X117702844Y-93819717D01*
X117693147Y-93918174D01*
X117686906Y-93981542D01*
X117690900Y-94022093D01*
X117690901Y-97389415D01*
X117624882Y-97369388D01*
X117500400Y-97357128D01*
X116230400Y-97357128D01*
X116105918Y-97369388D01*
X115986220Y-97405698D01*
X115875906Y-97464663D01*
X115779215Y-97544015D01*
X115699863Y-97640706D01*
X115640898Y-97751020D01*
X115604588Y-97870718D01*
X115592328Y-97995200D01*
X115592328Y-99636442D01*
X115416280Y-99812490D01*
X108818741Y-99812490D01*
X108498010Y-99491760D01*
X108498010Y-96396832D01*
X108501696Y-96359409D01*
X108498010Y-96321984D01*
X108486984Y-96210032D01*
X108443412Y-96066395D01*
X108372655Y-95934018D01*
X108277432Y-95817988D01*
X108248363Y-95794132D01*
X108047072Y-95592841D01*
X108047072Y-95269900D01*
X108030248Y-95099084D01*
X107980423Y-94934833D01*
X107899512Y-94783458D01*
X107790623Y-94650777D01*
X107657942Y-94541888D01*
X107506567Y-94460977D01*
X107342316Y-94411152D01*
X107171500Y-94394328D01*
X106696500Y-94394328D01*
X106525684Y-94411152D01*
X106361433Y-94460977D01*
X106210058Y-94541888D01*
X106077377Y-94650777D01*
X106004797Y-94739216D01*
X105905567Y-94686177D01*
X105741316Y-94636352D01*
X105570500Y-94619528D01*
X104995500Y-94619528D01*
X104824684Y-94636352D01*
X104660433Y-94686177D01*
X104509058Y-94767088D01*
X104408000Y-94850025D01*
X104306942Y-94767088D01*
X104155567Y-94686177D01*
X103991316Y-94636352D01*
X103820500Y-94619528D01*
X103245500Y-94619528D01*
X103074684Y-94636352D01*
X102910433Y-94686177D01*
X102791741Y-94749619D01*
X102710623Y-94650777D01*
X102577942Y-94541888D01*
X102426567Y-94460977D01*
X102262316Y-94411152D01*
X102091500Y-94394328D01*
X101616500Y-94394328D01*
X101445684Y-94411152D01*
X101281433Y-94460977D01*
X101130058Y-94541888D01*
X100997377Y-94650777D01*
X100888488Y-94783458D01*
X100882105Y-94795400D01*
X99003033Y-94795400D01*
X99832623Y-93965810D01*
X107391082Y-93965810D01*
X107431632Y-93969804D01*
X107472182Y-93965810D01*
X107472185Y-93965810D01*
X107593458Y-93953866D01*
X107749066Y-93906663D01*
X107892474Y-93830009D01*
X108001907Y-93740200D01*
X110877328Y-93740200D01*
X110877328Y-95390200D01*
X110889588Y-95514682D01*
X110925898Y-95634380D01*
X110984863Y-95744694D01*
X111064215Y-95841385D01*
X111160906Y-95920737D01*
X111271220Y-95979702D01*
X111390918Y-96016012D01*
X111515400Y-96028272D01*
X114945400Y-96028272D01*
X115069882Y-96016012D01*
X115189580Y-95979702D01*
X115299894Y-95920737D01*
X115396585Y-95841385D01*
X115475937Y-95744694D01*
X115534902Y-95634380D01*
X115571212Y-95514682D01*
X115583472Y-95390200D01*
X115583472Y-93740200D01*
X115571212Y-93615718D01*
X115534902Y-93496020D01*
X115475937Y-93385706D01*
X115396585Y-93289015D01*
X115299894Y-93209663D01*
X115189580Y-93150698D01*
X115069882Y-93114388D01*
X114945400Y-93102128D01*
X111515400Y-93102128D01*
X111390918Y-93114388D01*
X111271220Y-93150698D01*
X111160906Y-93209663D01*
X111064215Y-93289015D01*
X110984863Y-93385706D01*
X110925898Y-93496020D01*
X110889588Y-93615718D01*
X110877328Y-93740200D01*
X108001907Y-93740200D01*
X108018173Y-93726851D01*
X108044029Y-93695345D01*
X108895556Y-92843820D01*
X108927051Y-92817973D01*
X108952899Y-92786477D01*
X108952902Y-92786474D01*
X109030209Y-92692275D01*
X109106863Y-92548866D01*
X109133881Y-92459799D01*
X109154066Y-92393258D01*
X109166010Y-92271985D01*
X109166010Y-92271983D01*
X109170004Y-92231432D01*
X109166010Y-92190882D01*
X109166010Y-91205020D01*
X113881868Y-91205020D01*
X114757592Y-92080746D01*
X114757592Y-92080746D01*
G37*
X114757592Y-92080746D02*
X114783440Y-92112242D01*
X114814936Y-92138090D01*
X114814939Y-92138093D01*
X114909138Y-92215400D01*
X114995759Y-92261700D01*
X115052547Y-92292054D01*
X115208155Y-92339257D01*
X115329428Y-92351201D01*
X115329430Y-92351201D01*
X115369981Y-92355195D01*
X115410531Y-92351201D01*
X118799349Y-92351201D01*
X118839899Y-92355195D01*
X118880449Y-92351201D01*
X118880452Y-92351201D01*
X118990108Y-92340401D01*
X117961366Y-93369144D01*
X117929859Y-93395001D01*
X117868054Y-93470312D01*
X117826701Y-93520700D01*
X117777571Y-93612615D01*
X117750047Y-93664109D01*
X117702844Y-93819717D01*
X117693147Y-93918174D01*
X117686906Y-93981542D01*
X117690900Y-94022093D01*
X117690901Y-97389415D01*
X117624882Y-97369388D01*
X117500400Y-97357128D01*
X116230400Y-97357128D01*
X116105918Y-97369388D01*
X115986220Y-97405698D01*
X115875906Y-97464663D01*
X115779215Y-97544015D01*
X115699863Y-97640706D01*
X115640898Y-97751020D01*
X115604588Y-97870718D01*
X115592328Y-97995200D01*
X115592328Y-99636442D01*
X115416280Y-99812490D01*
X108818741Y-99812490D01*
X108498010Y-99491760D01*
X108498010Y-96396832D01*
X108501696Y-96359409D01*
X108498010Y-96321984D01*
X108486984Y-96210032D01*
X108443412Y-96066395D01*
X108372655Y-95934018D01*
X108277432Y-95817988D01*
X108248363Y-95794132D01*
X108047072Y-95592841D01*
X108047072Y-95269900D01*
X108030248Y-95099084D01*
X107980423Y-94934833D01*
X107899512Y-94783458D01*
X107790623Y-94650777D01*
X107657942Y-94541888D01*
X107506567Y-94460977D01*
X107342316Y-94411152D01*
X107171500Y-94394328D01*
X106696500Y-94394328D01*
X106525684Y-94411152D01*
X106361433Y-94460977D01*
X106210058Y-94541888D01*
X106077377Y-94650777D01*
X106004797Y-94739216D01*
X105905567Y-94686177D01*
X105741316Y-94636352D01*
X105570500Y-94619528D01*
X104995500Y-94619528D01*
X104824684Y-94636352D01*
X104660433Y-94686177D01*
X104509058Y-94767088D01*
X104408000Y-94850025D01*
X104306942Y-94767088D01*
X104155567Y-94686177D01*
X103991316Y-94636352D01*
X103820500Y-94619528D01*
X103245500Y-94619528D01*
X103074684Y-94636352D01*
X102910433Y-94686177D01*
X102791741Y-94749619D01*
X102710623Y-94650777D01*
X102577942Y-94541888D01*
X102426567Y-94460977D01*
X102262316Y-94411152D01*
X102091500Y-94394328D01*
X101616500Y-94394328D01*
X101445684Y-94411152D01*
X101281433Y-94460977D01*
X101130058Y-94541888D01*
X100997377Y-94650777D01*
X100888488Y-94783458D01*
X100882105Y-94795400D01*
X99003033Y-94795400D01*
X99832623Y-93965810D01*
X107391082Y-93965810D01*
X107431632Y-93969804D01*
X107472182Y-93965810D01*
X107472185Y-93965810D01*
X107593458Y-93953866D01*
X107749066Y-93906663D01*
X107892474Y-93830009D01*
X108001907Y-93740200D01*
X110877328Y-93740200D01*
X110877328Y-95390200D01*
X110889588Y-95514682D01*
X110925898Y-95634380D01*
X110984863Y-95744694D01*
X111064215Y-95841385D01*
X111160906Y-95920737D01*
X111271220Y-95979702D01*
X111390918Y-96016012D01*
X111515400Y-96028272D01*
X114945400Y-96028272D01*
X115069882Y-96016012D01*
X115189580Y-95979702D01*
X115299894Y-95920737D01*
X115396585Y-95841385D01*
X115475937Y-95744694D01*
X115534902Y-95634380D01*
X115571212Y-95514682D01*
X115583472Y-95390200D01*
X115583472Y-93740200D01*
X115571212Y-93615718D01*
X115534902Y-93496020D01*
X115475937Y-93385706D01*
X115396585Y-93289015D01*
X115299894Y-93209663D01*
X115189580Y-93150698D01*
X115069882Y-93114388D01*
X114945400Y-93102128D01*
X111515400Y-93102128D01*
X111390918Y-93114388D01*
X111271220Y-93150698D01*
X111160906Y-93209663D01*
X111064215Y-93289015D01*
X110984863Y-93385706D01*
X110925898Y-93496020D01*
X110889588Y-93615718D01*
X110877328Y-93740200D01*
X108001907Y-93740200D01*
X108018173Y-93726851D01*
X108044029Y-93695345D01*
X108895556Y-92843820D01*
X108927051Y-92817973D01*
X108952899Y-92786477D01*
X108952902Y-92786474D01*
X109030209Y-92692275D01*
X109106863Y-92548866D01*
X109133881Y-92459799D01*
X109154066Y-92393258D01*
X109166010Y-92271985D01*
X109166010Y-92271983D01*
X109170004Y-92231432D01*
X109166010Y-92190882D01*
X109166010Y-91205020D01*
X113881868Y-91205020D01*
X114757592Y-92080746D01*
G36*
X106974011Y-99742684D02*
G01*
X106817766Y-99638285D01*
X106629408Y-99560264D01*
X106498716Y-99534268D01*
X106505005Y-99524856D01*
X106583026Y-99336498D01*
X106622800Y-99136539D01*
X106622800Y-98932661D01*
X106583026Y-98732702D01*
X106505005Y-98544344D01*
X106455409Y-98470118D01*
X106459000Y-98470472D01*
X106648250Y-98467400D01*
X106807000Y-98308650D01*
X106807000Y-97434400D01*
X105982750Y-97434400D01*
X105944650Y-97472500D01*
X105410000Y-97472500D01*
X105410000Y-97492500D01*
X105156000Y-97492500D01*
X105156000Y-97472500D01*
X105136000Y-97472500D01*
X105136000Y-97218500D01*
X105156000Y-97218500D01*
X105156000Y-97198500D01*
X105410000Y-97198500D01*
X105410000Y-97218500D01*
X106284250Y-97218500D01*
X106322350Y-97180400D01*
X106807000Y-97180400D01*
X106807000Y-97160400D01*
X106974010Y-97160400D01*
X106974011Y-99742684D01*
X106974011Y-99742684D01*
G37*
X106974011Y-99742684D02*
X106817766Y-99638285D01*
X106629408Y-99560264D01*
X106498716Y-99534268D01*
X106505005Y-99524856D01*
X106583026Y-99336498D01*
X106622800Y-99136539D01*
X106622800Y-98932661D01*
X106583026Y-98732702D01*
X106505005Y-98544344D01*
X106455409Y-98470118D01*
X106459000Y-98470472D01*
X106648250Y-98467400D01*
X106807000Y-98308650D01*
X106807000Y-97434400D01*
X105982750Y-97434400D01*
X105944650Y-97472500D01*
X105410000Y-97472500D01*
X105410000Y-97492500D01*
X105156000Y-97492500D01*
X105156000Y-97472500D01*
X105136000Y-97472500D01*
X105136000Y-97218500D01*
X105156000Y-97218500D01*
X105156000Y-97198500D01*
X105410000Y-97198500D01*
X105410000Y-97218500D01*
X106284250Y-97218500D01*
X106322350Y-97180400D01*
X106807000Y-97180400D01*
X106807000Y-97160400D01*
X106974010Y-97160400D01*
X106974011Y-99742684D01*
G36*
X79657749Y-98750899D02*
G01*
X79645323Y-98750899D01*
X79607900Y-98747213D01*
X79570477Y-98750899D01*
X79570475Y-98750899D01*
X79458523Y-98761925D01*
X79314886Y-98805497D01*
X79182509Y-98876254D01*
X79066479Y-98971477D01*
X79042622Y-99000548D01*
X78348170Y-99695000D01*
X76820923Y-99695000D01*
X76769640Y-99643717D01*
X76600122Y-99530449D01*
X76411764Y-99452428D01*
X76211805Y-99412654D01*
X76007927Y-99412654D01*
X75807968Y-99452428D01*
X75750000Y-99476439D01*
X75750000Y-99374998D01*
X75591252Y-99374998D01*
X75750000Y-99216250D01*
X75753072Y-99202000D01*
X75740812Y-99077518D01*
X75704502Y-98957820D01*
X75645537Y-98847506D01*
X75566185Y-98750815D01*
X75540578Y-98729800D01*
X79636650Y-98729800D01*
X79657749Y-98750899D01*
X79657749Y-98750899D01*
G37*
X79657749Y-98750899D02*
X79645323Y-98750899D01*
X79607900Y-98747213D01*
X79570477Y-98750899D01*
X79570475Y-98750899D01*
X79458523Y-98761925D01*
X79314886Y-98805497D01*
X79182509Y-98876254D01*
X79066479Y-98971477D01*
X79042622Y-99000548D01*
X78348170Y-99695000D01*
X76820923Y-99695000D01*
X76769640Y-99643717D01*
X76600122Y-99530449D01*
X76411764Y-99452428D01*
X76211805Y-99412654D01*
X76007927Y-99412654D01*
X75807968Y-99452428D01*
X75750000Y-99476439D01*
X75750000Y-99374998D01*
X75591252Y-99374998D01*
X75750000Y-99216250D01*
X75753072Y-99202000D01*
X75740812Y-99077518D01*
X75704502Y-98957820D01*
X75645537Y-98847506D01*
X75566185Y-98750815D01*
X75540578Y-98729800D01*
X79636650Y-98729800D01*
X79657749Y-98750899D01*
G36*
X74617000Y-99375000D02*
G01*
X74637000Y-99375000D01*
X74637000Y-99626500D01*
X73375632Y-99626500D01*
X73369494Y-99621463D01*
X73259180Y-99562498D01*
X73139482Y-99526188D01*
X73015000Y-99513928D01*
X72371361Y-99513928D01*
X72347505Y-99490072D01*
X73015000Y-99490072D01*
X73139482Y-99477812D01*
X73259180Y-99441502D01*
X73369494Y-99382537D01*
X73384210Y-99370460D01*
X73388750Y-99375000D01*
X74363000Y-99375000D01*
X74363000Y-99355000D01*
X74617000Y-99355000D01*
X74617000Y-99375000D01*
X74617000Y-99375000D01*
G37*
X74617000Y-99375000D02*
X74637000Y-99375000D01*
X74637000Y-99626500D01*
X73375632Y-99626500D01*
X73369494Y-99621463D01*
X73259180Y-99562498D01*
X73139482Y-99526188D01*
X73015000Y-99513928D01*
X72371361Y-99513928D01*
X72347505Y-99490072D01*
X73015000Y-99490072D01*
X73139482Y-99477812D01*
X73259180Y-99441502D01*
X73369494Y-99382537D01*
X73384210Y-99370460D01*
X73388750Y-99375000D01*
X74363000Y-99375000D01*
X74363000Y-99355000D01*
X74617000Y-99355000D01*
X74617000Y-99375000D01*
G36*
X85355027Y-93650094D02*
G01*
X85398599Y-93793731D01*
X85469355Y-93926108D01*
X85514849Y-93981542D01*
X85564579Y-94042138D01*
X85593649Y-94065995D01*
X87742903Y-96215250D01*
X87766761Y-96244321D01*
X87882791Y-96339544D01*
X88015168Y-96410301D01*
X88158805Y-96453873D01*
X88270757Y-96464899D01*
X88270759Y-96464899D01*
X88308182Y-96468585D01*
X88345605Y-96464899D01*
X89819908Y-96464899D01*
X89819908Y-96654500D01*
X89832168Y-96778982D01*
X89849919Y-96837500D01*
X87790885Y-96837500D01*
X87753462Y-96833814D01*
X87716039Y-96837500D01*
X87716036Y-96837500D01*
X87604084Y-96848526D01*
X87460447Y-96892098D01*
X87408235Y-96920006D01*
X87328069Y-96962855D01*
X87281056Y-97001438D01*
X87212040Y-97058078D01*
X87188183Y-97087148D01*
X85515831Y-98759501D01*
X83596052Y-98759501D01*
X83596052Y-98544500D01*
X83583792Y-98420018D01*
X83547482Y-98300320D01*
X83512300Y-98234500D01*
X83547482Y-98168680D01*
X83583792Y-98048982D01*
X83596052Y-97924500D01*
X83596052Y-97274500D01*
X83583792Y-97150018D01*
X83547482Y-97030320D01*
X83512300Y-96964500D01*
X83547482Y-96898680D01*
X83583792Y-96778982D01*
X83596052Y-96654500D01*
X83596052Y-96004500D01*
X83583792Y-95880018D01*
X83547482Y-95760320D01*
X83512300Y-95694500D01*
X83547482Y-95628680D01*
X83583792Y-95508982D01*
X83596052Y-95384500D01*
X83596052Y-95263860D01*
X85342007Y-93517906D01*
X85355027Y-93650094D01*
X85355027Y-93650094D01*
G37*
X85355027Y-93650094D02*
X85398599Y-93793731D01*
X85469355Y-93926108D01*
X85514849Y-93981542D01*
X85564579Y-94042138D01*
X85593649Y-94065995D01*
X87742903Y-96215250D01*
X87766761Y-96244321D01*
X87882791Y-96339544D01*
X88015168Y-96410301D01*
X88158805Y-96453873D01*
X88270757Y-96464899D01*
X88270759Y-96464899D01*
X88308182Y-96468585D01*
X88345605Y-96464899D01*
X89819908Y-96464899D01*
X89819908Y-96654500D01*
X89832168Y-96778982D01*
X89849919Y-96837500D01*
X87790885Y-96837500D01*
X87753462Y-96833814D01*
X87716039Y-96837500D01*
X87716036Y-96837500D01*
X87604084Y-96848526D01*
X87460447Y-96892098D01*
X87408235Y-96920006D01*
X87328069Y-96962855D01*
X87281056Y-97001438D01*
X87212040Y-97058078D01*
X87188183Y-97087148D01*
X85515831Y-98759501D01*
X83596052Y-98759501D01*
X83596052Y-98544500D01*
X83583792Y-98420018D01*
X83547482Y-98300320D01*
X83512300Y-98234500D01*
X83547482Y-98168680D01*
X83583792Y-98048982D01*
X83596052Y-97924500D01*
X83596052Y-97274500D01*
X83583792Y-97150018D01*
X83547482Y-97030320D01*
X83512300Y-96964500D01*
X83547482Y-96898680D01*
X83583792Y-96778982D01*
X83596052Y-96654500D01*
X83596052Y-96004500D01*
X83583792Y-95880018D01*
X83547482Y-95760320D01*
X83512300Y-95694500D01*
X83547482Y-95628680D01*
X83583792Y-95508982D01*
X83596052Y-95384500D01*
X83596052Y-95263860D01*
X85342007Y-93517906D01*
X85355027Y-93650094D01*
G36*
X135861528Y-90004900D02*
G01*
X135752742Y-90004900D01*
X135712199Y-90000907D01*
X135671656Y-90004900D01*
X135671647Y-90004900D01*
X135550374Y-90016844D01*
X135394766Y-90064047D01*
X135251358Y-90140701D01*
X135125659Y-90243859D01*
X135099807Y-90275360D01*
X128066800Y-97308368D01*
X127637798Y-96879366D01*
X127611941Y-96847859D01*
X127486242Y-96744701D01*
X127342834Y-96668047D01*
X127187226Y-96620844D01*
X127065953Y-96608900D01*
X127065950Y-96608900D01*
X127025400Y-96604906D01*
X126984850Y-96608900D01*
X119341900Y-96608900D01*
X119341900Y-94323474D01*
X119925174Y-93740200D01*
X121147328Y-93740200D01*
X121147328Y-95390200D01*
X121159588Y-95514682D01*
X121195898Y-95634380D01*
X121254863Y-95744694D01*
X121334215Y-95841385D01*
X121430906Y-95920737D01*
X121541220Y-95979702D01*
X121660918Y-96016012D01*
X121785400Y-96028272D01*
X125215400Y-96028272D01*
X125339882Y-96016012D01*
X125459580Y-95979702D01*
X125569894Y-95920737D01*
X125666585Y-95841385D01*
X125745937Y-95744694D01*
X125804902Y-95634380D01*
X125841212Y-95514682D01*
X125853472Y-95390200D01*
X125853472Y-93740200D01*
X125841212Y-93615718D01*
X125804902Y-93496020D01*
X125745937Y-93385706D01*
X125666585Y-93289015D01*
X125569894Y-93209663D01*
X125459580Y-93150698D01*
X125339882Y-93114388D01*
X125215400Y-93102128D01*
X121785400Y-93102128D01*
X121660918Y-93114388D01*
X121541220Y-93150698D01*
X121430906Y-93209663D01*
X121334215Y-93289015D01*
X121254863Y-93385706D01*
X121195898Y-93496020D01*
X121159588Y-93615718D01*
X121147328Y-93740200D01*
X119925174Y-93740200D01*
X120420439Y-93244936D01*
X120451941Y-93219083D01*
X120504577Y-93154946D01*
X120555099Y-93093385D01*
X120631753Y-92949976D01*
X120639044Y-92925942D01*
X120678956Y-92794368D01*
X120690900Y-92673095D01*
X120690900Y-92673093D01*
X120694894Y-92632543D01*
X120690900Y-92591992D01*
X120690900Y-91740986D01*
X120744580Y-91724702D01*
X120854894Y-91665737D01*
X120951585Y-91586385D01*
X121030937Y-91489694D01*
X121089902Y-91379380D01*
X121126212Y-91259682D01*
X121138472Y-91135200D01*
X121138472Y-89027000D01*
X127267377Y-89027000D01*
X127304800Y-89030686D01*
X127342223Y-89027000D01*
X127342226Y-89027000D01*
X127454178Y-89015974D01*
X127597815Y-88972402D01*
X127730192Y-88901645D01*
X127846222Y-88806422D01*
X127870084Y-88777346D01*
X128363408Y-88284022D01*
X135861528Y-88284022D01*
X135861528Y-90004900D01*
X135861528Y-90004900D01*
G37*
X135861528Y-90004900D02*
X135752742Y-90004900D01*
X135712199Y-90000907D01*
X135671656Y-90004900D01*
X135671647Y-90004900D01*
X135550374Y-90016844D01*
X135394766Y-90064047D01*
X135251358Y-90140701D01*
X135125659Y-90243859D01*
X135099807Y-90275360D01*
X128066800Y-97308368D01*
X127637798Y-96879366D01*
X127611941Y-96847859D01*
X127486242Y-96744701D01*
X127342834Y-96668047D01*
X127187226Y-96620844D01*
X127065953Y-96608900D01*
X127065950Y-96608900D01*
X127025400Y-96604906D01*
X126984850Y-96608900D01*
X119341900Y-96608900D01*
X119341900Y-94323474D01*
X119925174Y-93740200D01*
X121147328Y-93740200D01*
X121147328Y-95390200D01*
X121159588Y-95514682D01*
X121195898Y-95634380D01*
X121254863Y-95744694D01*
X121334215Y-95841385D01*
X121430906Y-95920737D01*
X121541220Y-95979702D01*
X121660918Y-96016012D01*
X121785400Y-96028272D01*
X125215400Y-96028272D01*
X125339882Y-96016012D01*
X125459580Y-95979702D01*
X125569894Y-95920737D01*
X125666585Y-95841385D01*
X125745937Y-95744694D01*
X125804902Y-95634380D01*
X125841212Y-95514682D01*
X125853472Y-95390200D01*
X125853472Y-93740200D01*
X125841212Y-93615718D01*
X125804902Y-93496020D01*
X125745937Y-93385706D01*
X125666585Y-93289015D01*
X125569894Y-93209663D01*
X125459580Y-93150698D01*
X125339882Y-93114388D01*
X125215400Y-93102128D01*
X121785400Y-93102128D01*
X121660918Y-93114388D01*
X121541220Y-93150698D01*
X121430906Y-93209663D01*
X121334215Y-93289015D01*
X121254863Y-93385706D01*
X121195898Y-93496020D01*
X121159588Y-93615718D01*
X121147328Y-93740200D01*
X119925174Y-93740200D01*
X120420439Y-93244936D01*
X120451941Y-93219083D01*
X120504577Y-93154946D01*
X120555099Y-93093385D01*
X120631753Y-92949976D01*
X120639044Y-92925942D01*
X120678956Y-92794368D01*
X120690900Y-92673095D01*
X120690900Y-92673093D01*
X120694894Y-92632543D01*
X120690900Y-92591992D01*
X120690900Y-91740986D01*
X120744580Y-91724702D01*
X120854894Y-91665737D01*
X120951585Y-91586385D01*
X121030937Y-91489694D01*
X121089902Y-91379380D01*
X121126212Y-91259682D01*
X121138472Y-91135200D01*
X121138472Y-89027000D01*
X127267377Y-89027000D01*
X127304800Y-89030686D01*
X127342223Y-89027000D01*
X127342226Y-89027000D01*
X127454178Y-89015974D01*
X127597815Y-88972402D01*
X127730192Y-88901645D01*
X127846222Y-88806422D01*
X127870084Y-88777346D01*
X128363408Y-88284022D01*
X135861528Y-88284022D01*
X135861528Y-90004900D01*
G36*
X84716928Y-88248500D02*
G01*
X84733752Y-88419316D01*
X84772500Y-88547051D01*
X84772501Y-91752546D01*
X83586821Y-92938226D01*
X83596052Y-92844500D01*
X83596052Y-92194500D01*
X83583792Y-92070018D01*
X83547482Y-91950320D01*
X83512300Y-91884500D01*
X83547482Y-91818680D01*
X83583792Y-91698982D01*
X83596052Y-91574500D01*
X83596052Y-90924500D01*
X83583792Y-90800018D01*
X83547482Y-90680320D01*
X83512300Y-90614500D01*
X83547482Y-90548680D01*
X83583792Y-90428982D01*
X83596052Y-90304500D01*
X83596052Y-89654500D01*
X83583792Y-89530018D01*
X83547482Y-89410320D01*
X83488517Y-89300006D01*
X83409165Y-89203315D01*
X83312474Y-89123963D01*
X83202160Y-89064998D01*
X83082462Y-89028688D01*
X82957980Y-89016428D01*
X81107980Y-89016428D01*
X80983498Y-89028688D01*
X80863800Y-89064998D01*
X80753486Y-89123963D01*
X80656795Y-89203315D01*
X80645154Y-89217500D01*
X79634979Y-89217500D01*
X79597556Y-89213814D01*
X79560133Y-89217500D01*
X79560131Y-89217500D01*
X79448179Y-89228526D01*
X79304542Y-89272098D01*
X79172165Y-89342855D01*
X79056135Y-89438078D01*
X79032273Y-89467154D01*
X78608654Y-89890773D01*
X78579578Y-89914635D01*
X78531451Y-89973279D01*
X78484355Y-90030665D01*
X78463872Y-90068987D01*
X78413598Y-90163043D01*
X78370026Y-90306680D01*
X78360353Y-90404893D01*
X78355314Y-90456057D01*
X78359000Y-90493480D01*
X78359001Y-95261246D01*
X78311102Y-95270774D01*
X78122744Y-95348795D01*
X77953226Y-95462063D01*
X77809063Y-95606226D01*
X77695795Y-95775744D01*
X77617774Y-95964102D01*
X77578000Y-96164061D01*
X77578000Y-96297779D01*
X75121487Y-96297779D01*
X74320067Y-95496360D01*
X74320067Y-95437051D01*
X74280293Y-95237092D01*
X74202272Y-95048734D01*
X74089004Y-94879216D01*
X73944841Y-94735053D01*
X73775323Y-94621785D01*
X73586965Y-94543764D01*
X73387006Y-94503990D01*
X73183128Y-94503990D01*
X72983169Y-94543764D01*
X72794811Y-94621785D01*
X72625293Y-94735053D01*
X72534988Y-94825358D01*
X72224613Y-94514983D01*
X72277537Y-94450494D01*
X72336502Y-94340180D01*
X72372812Y-94220482D01*
X72385072Y-94096000D01*
X72385072Y-91586000D01*
X72372812Y-91461518D01*
X72336502Y-91341820D01*
X72277537Y-91231506D01*
X72198185Y-91134815D01*
X72101494Y-91055463D01*
X71991180Y-90996498D01*
X71871482Y-90960188D01*
X71747000Y-90947928D01*
X71181999Y-90947928D01*
X71181999Y-90677631D01*
X72648928Y-89210702D01*
X72648928Y-90786000D01*
X72661188Y-90910482D01*
X72697498Y-91030180D01*
X72756463Y-91140494D01*
X72835815Y-91237185D01*
X72932506Y-91316537D01*
X73042820Y-91375502D01*
X73162518Y-91411812D01*
X73287000Y-91424072D01*
X74287000Y-91424072D01*
X74411482Y-91411812D01*
X74531180Y-91375502D01*
X74641494Y-91316537D01*
X74738185Y-91237185D01*
X74817537Y-91140494D01*
X74876502Y-91030180D01*
X74912812Y-90910482D01*
X74925072Y-90786000D01*
X74925072Y-88276000D01*
X74912812Y-88151518D01*
X74876502Y-88031820D01*
X74817537Y-87921506D01*
X74786757Y-87884000D01*
X84716928Y-87884000D01*
X84716928Y-88248500D01*
X84716928Y-88248500D01*
G37*
X84716928Y-88248500D02*
X84733752Y-88419316D01*
X84772500Y-88547051D01*
X84772501Y-91752546D01*
X83586821Y-92938226D01*
X83596052Y-92844500D01*
X83596052Y-92194500D01*
X83583792Y-92070018D01*
X83547482Y-91950320D01*
X83512300Y-91884500D01*
X83547482Y-91818680D01*
X83583792Y-91698982D01*
X83596052Y-91574500D01*
X83596052Y-90924500D01*
X83583792Y-90800018D01*
X83547482Y-90680320D01*
X83512300Y-90614500D01*
X83547482Y-90548680D01*
X83583792Y-90428982D01*
X83596052Y-90304500D01*
X83596052Y-89654500D01*
X83583792Y-89530018D01*
X83547482Y-89410320D01*
X83488517Y-89300006D01*
X83409165Y-89203315D01*
X83312474Y-89123963D01*
X83202160Y-89064998D01*
X83082462Y-89028688D01*
X82957980Y-89016428D01*
X81107980Y-89016428D01*
X80983498Y-89028688D01*
X80863800Y-89064998D01*
X80753486Y-89123963D01*
X80656795Y-89203315D01*
X80645154Y-89217500D01*
X79634979Y-89217500D01*
X79597556Y-89213814D01*
X79560133Y-89217500D01*
X79560131Y-89217500D01*
X79448179Y-89228526D01*
X79304542Y-89272098D01*
X79172165Y-89342855D01*
X79056135Y-89438078D01*
X79032273Y-89467154D01*
X78608654Y-89890773D01*
X78579578Y-89914635D01*
X78531451Y-89973279D01*
X78484355Y-90030665D01*
X78463872Y-90068987D01*
X78413598Y-90163043D01*
X78370026Y-90306680D01*
X78360353Y-90404893D01*
X78355314Y-90456057D01*
X78359000Y-90493480D01*
X78359001Y-95261246D01*
X78311102Y-95270774D01*
X78122744Y-95348795D01*
X77953226Y-95462063D01*
X77809063Y-95606226D01*
X77695795Y-95775744D01*
X77617774Y-95964102D01*
X77578000Y-96164061D01*
X77578000Y-96297779D01*
X75121487Y-96297779D01*
X74320067Y-95496360D01*
X74320067Y-95437051D01*
X74280293Y-95237092D01*
X74202272Y-95048734D01*
X74089004Y-94879216D01*
X73944841Y-94735053D01*
X73775323Y-94621785D01*
X73586965Y-94543764D01*
X73387006Y-94503990D01*
X73183128Y-94503990D01*
X72983169Y-94543764D01*
X72794811Y-94621785D01*
X72625293Y-94735053D01*
X72534988Y-94825358D01*
X72224613Y-94514983D01*
X72277537Y-94450494D01*
X72336502Y-94340180D01*
X72372812Y-94220482D01*
X72385072Y-94096000D01*
X72385072Y-91586000D01*
X72372812Y-91461518D01*
X72336502Y-91341820D01*
X72277537Y-91231506D01*
X72198185Y-91134815D01*
X72101494Y-91055463D01*
X71991180Y-90996498D01*
X71871482Y-90960188D01*
X71747000Y-90947928D01*
X71181999Y-90947928D01*
X71181999Y-90677631D01*
X72648928Y-89210702D01*
X72648928Y-90786000D01*
X72661188Y-90910482D01*
X72697498Y-91030180D01*
X72756463Y-91140494D01*
X72835815Y-91237185D01*
X72932506Y-91316537D01*
X73042820Y-91375502D01*
X73162518Y-91411812D01*
X73287000Y-91424072D01*
X74287000Y-91424072D01*
X74411482Y-91411812D01*
X74531180Y-91375502D01*
X74641494Y-91316537D01*
X74738185Y-91237185D01*
X74817537Y-91140494D01*
X74876502Y-91030180D01*
X74912812Y-90910482D01*
X74925072Y-90786000D01*
X74925072Y-88276000D01*
X74912812Y-88151518D01*
X74876502Y-88031820D01*
X74817537Y-87921506D01*
X74786757Y-87884000D01*
X84716928Y-87884000D01*
X84716928Y-88248500D01*
G36*
X91509980Y-94932500D02*
G01*
X91529980Y-94932500D01*
X91529980Y-94966299D01*
X91235980Y-94966299D01*
X91235980Y-94932500D01*
X91255980Y-94932500D01*
X91255980Y-94912500D01*
X91509980Y-94912500D01*
X91509980Y-94932500D01*
X91509980Y-94932500D01*
G37*
X91509980Y-94932500D02*
X91529980Y-94932500D01*
X91529980Y-94966299D01*
X91235980Y-94966299D01*
X91235980Y-94932500D01*
X91255980Y-94932500D01*
X91255980Y-94912500D01*
X91509980Y-94912500D01*
X91509980Y-94932500D01*
G36*
X87777000Y-88138000D02*
G01*
X87757000Y-88138000D01*
X87757000Y-88962250D01*
X87915750Y-89121000D01*
X88155000Y-89124072D01*
X88279482Y-89111812D01*
X88399180Y-89075502D01*
X88509494Y-89016537D01*
X88606185Y-88937185D01*
X88685537Y-88840494D01*
X88718045Y-88779676D01*
X89344500Y-89406131D01*
X89344501Y-93625067D01*
X89340814Y-93662500D01*
X89355527Y-93811878D01*
X89399099Y-93955515D01*
X89469855Y-94087892D01*
X89517555Y-94146014D01*
X89565079Y-94203922D01*
X89594149Y-94227779D01*
X89668216Y-94301846D01*
X89692078Y-94330922D01*
X89808108Y-94426145D01*
X89881743Y-94465504D01*
X89868478Y-94490320D01*
X89832168Y-94610018D01*
X89819908Y-94734500D01*
X89822980Y-94773750D01*
X89981728Y-94932498D01*
X89822980Y-94932498D01*
X89822980Y-94940899D01*
X88623814Y-94940899D01*
X86868000Y-93185086D01*
X86868000Y-89077680D01*
X86980518Y-89111812D01*
X87105000Y-89124072D01*
X87344250Y-89121000D01*
X87503000Y-88962250D01*
X87503000Y-88138000D01*
X87483000Y-88138000D01*
X87483000Y-87884000D01*
X87777000Y-87884000D01*
X87777000Y-88138000D01*
X87777000Y-88138000D01*
G37*
X87777000Y-88138000D02*
X87757000Y-88138000D01*
X87757000Y-88962250D01*
X87915750Y-89121000D01*
X88155000Y-89124072D01*
X88279482Y-89111812D01*
X88399180Y-89075502D01*
X88509494Y-89016537D01*
X88606185Y-88937185D01*
X88685537Y-88840494D01*
X88718045Y-88779676D01*
X89344500Y-89406131D01*
X89344501Y-93625067D01*
X89340814Y-93662500D01*
X89355527Y-93811878D01*
X89399099Y-93955515D01*
X89469855Y-94087892D01*
X89517555Y-94146014D01*
X89565079Y-94203922D01*
X89594149Y-94227779D01*
X89668216Y-94301846D01*
X89692078Y-94330922D01*
X89808108Y-94426145D01*
X89881743Y-94465504D01*
X89868478Y-94490320D01*
X89832168Y-94610018D01*
X89819908Y-94734500D01*
X89822980Y-94773750D01*
X89981728Y-94932498D01*
X89822980Y-94932498D01*
X89822980Y-94940899D01*
X88623814Y-94940899D01*
X86868000Y-93185086D01*
X86868000Y-89077680D01*
X86980518Y-89111812D01*
X87105000Y-89124072D01*
X87344250Y-89121000D01*
X87503000Y-88962250D01*
X87503000Y-88138000D01*
X87483000Y-88138000D01*
X87483000Y-87884000D01*
X87777000Y-87884000D01*
X87777000Y-88138000D01*
G36*
X100740928Y-90762300D02*
G01*
X100757752Y-90933116D01*
X100807577Y-91097367D01*
X100888488Y-91248742D01*
X100908099Y-91272639D01*
X100848463Y-91345306D01*
X100789498Y-91455620D01*
X100753188Y-91575318D01*
X100740928Y-91699800D01*
X100744000Y-91939050D01*
X100902750Y-92097800D01*
X101727000Y-92097800D01*
X101727000Y-92077800D01*
X101981000Y-92077800D01*
X101981000Y-92097800D01*
X102001000Y-92097800D01*
X102001000Y-92314810D01*
X99531232Y-92314810D01*
X99490689Y-92310817D01*
X99450146Y-92314810D01*
X99450137Y-92314810D01*
X99328864Y-92326754D01*
X99173256Y-92373957D01*
X99063845Y-92432439D01*
X99029846Y-92450612D01*
X98984594Y-92487750D01*
X98904149Y-92553769D01*
X98878298Y-92585269D01*
X97072640Y-94390928D01*
X96839500Y-94390928D01*
X96668684Y-94407752D01*
X96504433Y-94457577D01*
X96437067Y-94493585D01*
X96473423Y-94425567D01*
X96523248Y-94261316D01*
X96540072Y-94090500D01*
X96540072Y-93615500D01*
X96523248Y-93444684D01*
X96480295Y-93303085D01*
X96602000Y-93315072D01*
X96841250Y-93312000D01*
X97000000Y-93153250D01*
X97000000Y-92329000D01*
X97254000Y-92329000D01*
X97254000Y-93153250D01*
X97412750Y-93312000D01*
X97652000Y-93315072D01*
X97776482Y-93302812D01*
X97896180Y-93266502D01*
X98006494Y-93207537D01*
X98103185Y-93128185D01*
X98182537Y-93031494D01*
X98241502Y-92921180D01*
X98277812Y-92801482D01*
X98290072Y-92677000D01*
X98287000Y-92487750D01*
X98128250Y-92329000D01*
X97254000Y-92329000D01*
X97000000Y-92329000D01*
X96980000Y-92329000D01*
X96980000Y-92075000D01*
X97000000Y-92075000D01*
X97000000Y-91250750D01*
X97254000Y-91250750D01*
X97254000Y-92075000D01*
X98128250Y-92075000D01*
X98287000Y-91916250D01*
X98290072Y-91727000D01*
X98277812Y-91602518D01*
X98241502Y-91482820D01*
X98182537Y-91372506D01*
X98103185Y-91275815D01*
X98006494Y-91196463D01*
X97896180Y-91137498D01*
X97776482Y-91101188D01*
X97652000Y-91088928D01*
X97412750Y-91092000D01*
X97254000Y-91250750D01*
X97000000Y-91250750D01*
X96841250Y-91092000D01*
X96602000Y-91088928D01*
X96477518Y-91101188D01*
X96357820Y-91137498D01*
X96247506Y-91196463D01*
X96174839Y-91256099D01*
X96150942Y-91236488D01*
X95999567Y-91155577D01*
X95835316Y-91105752D01*
X95664500Y-91088928D01*
X95519316Y-91088928D01*
X95984234Y-90624010D01*
X100740928Y-90624010D01*
X100740928Y-90762300D01*
X100740928Y-90762300D01*
G37*
X100740928Y-90762300D02*
X100757752Y-90933116D01*
X100807577Y-91097367D01*
X100888488Y-91248742D01*
X100908099Y-91272639D01*
X100848463Y-91345306D01*
X100789498Y-91455620D01*
X100753188Y-91575318D01*
X100740928Y-91699800D01*
X100744000Y-91939050D01*
X100902750Y-92097800D01*
X101727000Y-92097800D01*
X101727000Y-92077800D01*
X101981000Y-92077800D01*
X101981000Y-92097800D01*
X102001000Y-92097800D01*
X102001000Y-92314810D01*
X99531232Y-92314810D01*
X99490689Y-92310817D01*
X99450146Y-92314810D01*
X99450137Y-92314810D01*
X99328864Y-92326754D01*
X99173256Y-92373957D01*
X99063845Y-92432439D01*
X99029846Y-92450612D01*
X98984594Y-92487750D01*
X98904149Y-92553769D01*
X98878298Y-92585269D01*
X97072640Y-94390928D01*
X96839500Y-94390928D01*
X96668684Y-94407752D01*
X96504433Y-94457577D01*
X96437067Y-94493585D01*
X96473423Y-94425567D01*
X96523248Y-94261316D01*
X96540072Y-94090500D01*
X96540072Y-93615500D01*
X96523248Y-93444684D01*
X96480295Y-93303085D01*
X96602000Y-93315072D01*
X96841250Y-93312000D01*
X97000000Y-93153250D01*
X97000000Y-92329000D01*
X97254000Y-92329000D01*
X97254000Y-93153250D01*
X97412750Y-93312000D01*
X97652000Y-93315072D01*
X97776482Y-93302812D01*
X97896180Y-93266502D01*
X98006494Y-93207537D01*
X98103185Y-93128185D01*
X98182537Y-93031494D01*
X98241502Y-92921180D01*
X98277812Y-92801482D01*
X98290072Y-92677000D01*
X98287000Y-92487750D01*
X98128250Y-92329000D01*
X97254000Y-92329000D01*
X97000000Y-92329000D01*
X96980000Y-92329000D01*
X96980000Y-92075000D01*
X97000000Y-92075000D01*
X97000000Y-91250750D01*
X97254000Y-91250750D01*
X97254000Y-92075000D01*
X98128250Y-92075000D01*
X98287000Y-91916250D01*
X98290072Y-91727000D01*
X98277812Y-91602518D01*
X98241502Y-91482820D01*
X98182537Y-91372506D01*
X98103185Y-91275815D01*
X98006494Y-91196463D01*
X97896180Y-91137498D01*
X97776482Y-91101188D01*
X97652000Y-91088928D01*
X97412750Y-91092000D01*
X97254000Y-91250750D01*
X97000000Y-91250750D01*
X96841250Y-91092000D01*
X96602000Y-91088928D01*
X96477518Y-91101188D01*
X96357820Y-91137498D01*
X96247506Y-91196463D01*
X96174839Y-91256099D01*
X96150942Y-91236488D01*
X95999567Y-91155577D01*
X95835316Y-91105752D01*
X95664500Y-91088928D01*
X95519316Y-91088928D01*
X95984234Y-90624010D01*
X100740928Y-90624010D01*
X100740928Y-90762300D01*
G36*
X79902107Y-93156145D02*
G01*
X79928444Y-93170222D01*
X80034485Y-93226902D01*
X80178122Y-93270474D01*
X80290074Y-93281500D01*
X80290077Y-93281500D01*
X80327500Y-93285186D01*
X80364923Y-93281500D01*
X80499919Y-93281500D01*
X80482168Y-93340018D01*
X80469908Y-93464500D01*
X80469908Y-93674942D01*
X79929850Y-94215000D01*
X79908061Y-94215000D01*
X79883000Y-94219985D01*
X79883000Y-93140464D01*
X79902107Y-93156145D01*
X79902107Y-93156145D01*
G37*
X79902107Y-93156145D02*
X79928444Y-93170222D01*
X80034485Y-93226902D01*
X80178122Y-93270474D01*
X80290074Y-93281500D01*
X80290077Y-93281500D01*
X80327500Y-93285186D01*
X80364923Y-93281500D01*
X80499919Y-93281500D01*
X80482168Y-93340018D01*
X80469908Y-93464500D01*
X80469908Y-93674942D01*
X79929850Y-94215000D01*
X79908061Y-94215000D01*
X79883000Y-94219985D01*
X79883000Y-93140464D01*
X79902107Y-93156145D01*
G36*
X103660000Y-91897200D02*
G01*
X103680000Y-91897200D01*
X103680000Y-92151200D01*
X103660000Y-92151200D01*
X103660000Y-92171200D01*
X103406000Y-92171200D01*
X103406000Y-92151200D01*
X103386000Y-92151200D01*
X103386000Y-91897200D01*
X103406000Y-91897200D01*
X103406000Y-91877200D01*
X103660000Y-91877200D01*
X103660000Y-91897200D01*
X103660000Y-91897200D01*
G37*
X103660000Y-91897200D02*
X103680000Y-91897200D01*
X103680000Y-92151200D01*
X103660000Y-92151200D01*
X103660000Y-92171200D01*
X103406000Y-92171200D01*
X103406000Y-92151200D01*
X103386000Y-92151200D01*
X103386000Y-91897200D01*
X103406000Y-91897200D01*
X103406000Y-91877200D01*
X103660000Y-91877200D01*
X103660000Y-91897200D01*
G36*
X126658970Y-86537800D02*
G01*
X115016154Y-86537800D01*
X114978731Y-86534114D01*
X114941308Y-86537800D01*
X114941306Y-86537800D01*
X114829354Y-86548826D01*
X114685717Y-86592398D01*
X114553340Y-86663155D01*
X114437310Y-86758378D01*
X114413453Y-86787448D01*
X113516913Y-87683989D01*
X93553913Y-87683989D01*
X93516490Y-87680303D01*
X93479067Y-87683989D01*
X93479065Y-87683989D01*
X93367113Y-87695015D01*
X93223476Y-87738587D01*
X93091099Y-87809344D01*
X92975069Y-87904567D01*
X92951212Y-87933637D01*
X92199749Y-88685101D01*
X92206626Y-88668498D01*
X92246400Y-88468539D01*
X92246400Y-88264661D01*
X92206626Y-88064702D01*
X92128605Y-87876344D01*
X92015337Y-87706826D01*
X91871174Y-87562663D01*
X91701656Y-87449395D01*
X91513298Y-87371374D01*
X91313339Y-87331600D01*
X91254031Y-87331600D01*
X90370555Y-86448125D01*
X126748645Y-86448125D01*
X126658970Y-86537800D01*
X126658970Y-86537800D01*
G37*
X126658970Y-86537800D02*
X115016154Y-86537800D01*
X114978731Y-86534114D01*
X114941308Y-86537800D01*
X114941306Y-86537800D01*
X114829354Y-86548826D01*
X114685717Y-86592398D01*
X114553340Y-86663155D01*
X114437310Y-86758378D01*
X114413453Y-86787448D01*
X113516913Y-87683989D01*
X93553913Y-87683989D01*
X93516490Y-87680303D01*
X93479067Y-87683989D01*
X93479065Y-87683989D01*
X93367113Y-87695015D01*
X93223476Y-87738587D01*
X93091099Y-87809344D01*
X92975069Y-87904567D01*
X92951212Y-87933637D01*
X92199749Y-88685101D01*
X92206626Y-88668498D01*
X92246400Y-88468539D01*
X92246400Y-88264661D01*
X92206626Y-88064702D01*
X92128605Y-87876344D01*
X92015337Y-87706826D01*
X91871174Y-87562663D01*
X91701656Y-87449395D01*
X91513298Y-87371374D01*
X91313339Y-87331600D01*
X91254031Y-87331600D01*
X90370555Y-86448125D01*
X126748645Y-86448125D01*
X126658970Y-86537800D01*
M02*
