G04 #@! TF.GenerationSoftware,KiCad,Pcbnew,(5.1.4)-1*
G04 #@! TF.CreationDate,2020-01-28T11:55:59-05:00*
G04 #@! TF.ProjectId,PDC1920,50444331-3932-4302-9e6b-696361645f70,rev?*
G04 #@! TF.SameCoordinates,Original*
G04 #@! TF.FileFunction,Soldermask,Top*
G04 #@! TF.FilePolarity,Negative*
%FSLAX46Y46*%
G04 Gerber Fmt 4.6, Leading zero omitted, Abs format (unit mm)*
G04 Created by KiCad (PCBNEW (5.1.4)-1) date 2020-01-28 11:55:59*
%MOMM*%
%LPD*%
G04 APERTURE LIST*
%ADD10C,0.100000*%
G04 APERTURE END LIST*
D10*
G36*
X68928180Y-100560000D02*
G01*
X67683180Y-100560000D01*
X67683180Y-98426000D01*
X68928180Y-98426000D01*
X68928180Y-100560000D01*
X68928180Y-100560000D01*
G37*
G36*
X135822700Y-100560000D02*
G01*
X134577700Y-100560000D01*
X134577700Y-98426000D01*
X135822700Y-98426000D01*
X135822700Y-100560000D01*
X135822700Y-100560000D01*
G37*
G36*
X130742700Y-100560000D02*
G01*
X129497700Y-100560000D01*
X129497700Y-98426000D01*
X130742700Y-98426000D01*
X130742700Y-100560000D01*
X130742700Y-100560000D01*
G37*
G36*
X133282700Y-100560000D02*
G01*
X132037700Y-100560000D01*
X132037700Y-98426000D01*
X133282700Y-98426000D01*
X133282700Y-100560000D01*
X133282700Y-100560000D01*
G37*
G36*
X138362700Y-100560000D02*
G01*
X137117700Y-100560000D01*
X137117700Y-98426000D01*
X138362700Y-98426000D01*
X138362700Y-100560000D01*
X138362700Y-100560000D01*
G37*
G36*
X96021500Y-100560000D02*
G01*
X94776500Y-100560000D01*
X94776500Y-98426000D01*
X96021500Y-98426000D01*
X96021500Y-100560000D01*
X96021500Y-100560000D01*
G37*
G36*
X98561500Y-100560000D02*
G01*
X97316500Y-100560000D01*
X97316500Y-98426000D01*
X98561500Y-98426000D01*
X98561500Y-100560000D01*
X98561500Y-100560000D01*
G37*
G36*
X101101500Y-100560000D02*
G01*
X99856500Y-100560000D01*
X99856500Y-98426000D01*
X101101500Y-98426000D01*
X101101500Y-100560000D01*
X101101500Y-100560000D01*
G37*
G36*
X103641500Y-100560000D02*
G01*
X102396500Y-100560000D01*
X102396500Y-98426000D01*
X103641500Y-98426000D01*
X103641500Y-100560000D01*
X103641500Y-100560000D01*
G37*
G36*
X61308180Y-100560000D02*
G01*
X60063180Y-100560000D01*
X60063180Y-98426000D01*
X61308180Y-98426000D01*
X61308180Y-100560000D01*
X61308180Y-100560000D01*
G37*
G36*
X63848180Y-100560000D02*
G01*
X62603180Y-100560000D01*
X62603180Y-98426000D01*
X63848180Y-98426000D01*
X63848180Y-100560000D01*
X63848180Y-100560000D01*
G37*
G36*
X66388180Y-100560000D02*
G01*
X65143180Y-100560000D01*
X65143180Y-98426000D01*
X66388180Y-98426000D01*
X66388180Y-100560000D01*
X66388180Y-100560000D01*
G37*
G36*
X130742700Y-89100000D02*
G01*
X129497700Y-89100000D01*
X129497700Y-86966000D01*
X130742700Y-86966000D01*
X130742700Y-89100000D01*
X130742700Y-89100000D01*
G37*
G36*
X133282700Y-89100000D02*
G01*
X132037700Y-89100000D01*
X132037700Y-86966000D01*
X133282700Y-86966000D01*
X133282700Y-89100000D01*
X133282700Y-89100000D01*
G37*
G36*
X138362700Y-89100000D02*
G01*
X137117700Y-89100000D01*
X137117700Y-86966000D01*
X138362700Y-86966000D01*
X138362700Y-89100000D01*
X138362700Y-89100000D01*
G37*
G36*
X68928180Y-89100000D02*
G01*
X67683180Y-89100000D01*
X67683180Y-86966000D01*
X68928180Y-86966000D01*
X68928180Y-89100000D01*
X68928180Y-89100000D01*
G37*
G36*
X66388180Y-89100000D02*
G01*
X65143180Y-89100000D01*
X65143180Y-86966000D01*
X66388180Y-86966000D01*
X66388180Y-89100000D01*
X66388180Y-89100000D01*
G37*
G36*
X63848180Y-89100000D02*
G01*
X62603180Y-89100000D01*
X62603180Y-86966000D01*
X63848180Y-86966000D01*
X63848180Y-89100000D01*
X63848180Y-89100000D01*
G37*
G36*
X61308180Y-89100000D02*
G01*
X60063180Y-89100000D01*
X60063180Y-86966000D01*
X61308180Y-86966000D01*
X61308180Y-89100000D01*
X61308180Y-89100000D01*
G37*
G36*
X103641500Y-89100000D02*
G01*
X102396500Y-89100000D01*
X102396500Y-86966000D01*
X103641500Y-86966000D01*
X103641500Y-89100000D01*
X103641500Y-89100000D01*
G37*
G36*
X135822700Y-89100000D02*
G01*
X134577700Y-89100000D01*
X134577700Y-86966000D01*
X135822700Y-86966000D01*
X135822700Y-89100000D01*
X135822700Y-89100000D01*
G37*
G36*
X98561500Y-89100000D02*
G01*
X97316500Y-89100000D01*
X97316500Y-86966000D01*
X98561500Y-86966000D01*
X98561500Y-89100000D01*
X98561500Y-89100000D01*
G37*
G36*
X96021500Y-89100000D02*
G01*
X94776500Y-89100000D01*
X94776500Y-86966000D01*
X96021500Y-86966000D01*
X96021500Y-89100000D01*
X96021500Y-89100000D01*
G37*
G36*
X101101500Y-89100000D02*
G01*
X99856500Y-89100000D01*
X99856500Y-86966000D01*
X101101500Y-86966000D01*
X101101500Y-89100000D01*
X101101500Y-89100000D01*
G37*
M02*
