G04 #@! TF.GenerationSoftware,KiCad,Pcbnew,(5.1.4)-1*
G04 #@! TF.CreationDate,2020-01-28T11:55:59-05:00*
G04 #@! TF.ProjectId,PDC1920,50444331-3932-4302-9e6b-696361645f70,rev?*
G04 #@! TF.SameCoordinates,Original*
G04 #@! TF.FileFunction,Soldermask,Bot*
G04 #@! TF.FilePolarity,Negative*
%FSLAX46Y46*%
G04 Gerber Fmt 4.6, Leading zero omitted, Abs format (unit mm)*
G04 Created by KiCad (PCBNEW (5.1.4)-1) date 2020-01-28 11:55:59*
%MOMM*%
%LPD*%
G04 APERTURE LIST*
%ADD10C,0.100000*%
G04 APERTURE END LIST*
D10*
G36*
X73066000Y-100803000D02*
G01*
X71714000Y-100803000D01*
X71714000Y-100101000D01*
X73066000Y-100101000D01*
X73066000Y-100803000D01*
X73066000Y-100803000D01*
G37*
G36*
X120551400Y-100586200D02*
G01*
X119179400Y-100586200D01*
X119179400Y-97944200D01*
X120551400Y-97944200D01*
X120551400Y-100586200D01*
X120551400Y-100586200D01*
G37*
G36*
X117551400Y-100586200D02*
G01*
X116179400Y-100586200D01*
X116179400Y-97944200D01*
X117551400Y-97944200D01*
X117551400Y-100586200D01*
X117551400Y-100586200D01*
G37*
G36*
X83008980Y-100515500D02*
G01*
X81056980Y-100515500D01*
X81056980Y-99763500D01*
X83008980Y-99763500D01*
X83008980Y-100515500D01*
X83008980Y-100515500D01*
G37*
G36*
X92358980Y-100515500D02*
G01*
X90406980Y-100515500D01*
X90406980Y-99763500D01*
X92358980Y-99763500D01*
X92358980Y-100515500D01*
X92358980Y-100515500D01*
G37*
G36*
X148031400Y-99923800D02*
G01*
X146608600Y-99923800D01*
X146608600Y-94640200D01*
X148031400Y-94640200D01*
X148031400Y-99923800D01*
X148031400Y-99923800D01*
G37*
G36*
X145491400Y-99923800D02*
G01*
X144068600Y-99923800D01*
X144068600Y-94640200D01*
X145491400Y-94640200D01*
X145491400Y-99923800D01*
X145491400Y-99923800D01*
G37*
G36*
X142951400Y-99923800D02*
G01*
X141528600Y-99923800D01*
X141528600Y-94640200D01*
X142951400Y-94640200D01*
X142951400Y-99923800D01*
X142951400Y-99923800D01*
G37*
G36*
X140411400Y-99923800D02*
G01*
X138988600Y-99923800D01*
X138988600Y-94640200D01*
X140411400Y-94640200D01*
X140411400Y-99923800D01*
X140411400Y-99923800D01*
G37*
G36*
X137871400Y-99923800D02*
G01*
X136448600Y-99923800D01*
X136448600Y-94640200D01*
X137871400Y-94640200D01*
X137871400Y-99923800D01*
X137871400Y-99923800D01*
G37*
G36*
X75166000Y-99853000D02*
G01*
X73814000Y-99853000D01*
X73814000Y-99151000D01*
X75166000Y-99151000D01*
X75166000Y-99853000D01*
X75166000Y-99853000D01*
G37*
G36*
X83008980Y-99245500D02*
G01*
X81056980Y-99245500D01*
X81056980Y-98493500D01*
X83008980Y-98493500D01*
X83008980Y-99245500D01*
X83008980Y-99245500D01*
G37*
G36*
X92358980Y-99245500D02*
G01*
X90406980Y-99245500D01*
X90406980Y-98493500D01*
X92358980Y-98493500D01*
X92358980Y-99245500D01*
X92358980Y-99245500D01*
G37*
G36*
X73066000Y-98903000D02*
G01*
X71714000Y-98903000D01*
X71714000Y-98201000D01*
X73066000Y-98201000D01*
X73066000Y-98903000D01*
X73066000Y-98903000D01*
G37*
G36*
X92358980Y-97975500D02*
G01*
X90406980Y-97975500D01*
X90406980Y-97223500D01*
X92358980Y-97223500D01*
X92358980Y-97975500D01*
X92358980Y-97975500D01*
G37*
G36*
X83008980Y-97975500D02*
G01*
X81056980Y-97975500D01*
X81056980Y-97223500D01*
X83008980Y-97223500D01*
X83008980Y-97975500D01*
X83008980Y-97975500D01*
G37*
G36*
X107298499Y-96735845D02*
G01*
X107335995Y-96747220D01*
X107370554Y-96765692D01*
X107400847Y-96790553D01*
X107425708Y-96820846D01*
X107444180Y-96855405D01*
X107455555Y-96892901D01*
X107460000Y-96938038D01*
X107460000Y-97676762D01*
X107455555Y-97721899D01*
X107444180Y-97759395D01*
X107425708Y-97793954D01*
X107400847Y-97824247D01*
X107370554Y-97849108D01*
X107335995Y-97867580D01*
X107298499Y-97878955D01*
X107253362Y-97883400D01*
X106614638Y-97883400D01*
X106569501Y-97878955D01*
X106532005Y-97867580D01*
X106497446Y-97849108D01*
X106467153Y-97824247D01*
X106442292Y-97793954D01*
X106423820Y-97759395D01*
X106412445Y-97721899D01*
X106408000Y-97676762D01*
X106408000Y-96938038D01*
X106412445Y-96892901D01*
X106423820Y-96855405D01*
X106442292Y-96820846D01*
X106467153Y-96790553D01*
X106497446Y-96765692D01*
X106532005Y-96747220D01*
X106569501Y-96735845D01*
X106614638Y-96731400D01*
X107253362Y-96731400D01*
X107298499Y-96735845D01*
X107298499Y-96735845D01*
G37*
G36*
X102218499Y-96735845D02*
G01*
X102255995Y-96747220D01*
X102290554Y-96765692D01*
X102320847Y-96790553D01*
X102345708Y-96820846D01*
X102364180Y-96855405D01*
X102375555Y-96892901D01*
X102380000Y-96938038D01*
X102380000Y-97676762D01*
X102375555Y-97721899D01*
X102364180Y-97759395D01*
X102345708Y-97793954D01*
X102320847Y-97824247D01*
X102290554Y-97849108D01*
X102255995Y-97867580D01*
X102218499Y-97878955D01*
X102173362Y-97883400D01*
X101534638Y-97883400D01*
X101489501Y-97878955D01*
X101452005Y-97867580D01*
X101417446Y-97849108D01*
X101387153Y-97824247D01*
X101362292Y-97793954D01*
X101343820Y-97759395D01*
X101332445Y-97721899D01*
X101328000Y-97676762D01*
X101328000Y-96938038D01*
X101332445Y-96892901D01*
X101343820Y-96855405D01*
X101362292Y-96820846D01*
X101387153Y-96790553D01*
X101417446Y-96765692D01*
X101452005Y-96747220D01*
X101489501Y-96735845D01*
X101534638Y-96731400D01*
X102173362Y-96731400D01*
X102218499Y-96735845D01*
X102218499Y-96735845D01*
G37*
G36*
X103947499Y-96823945D02*
G01*
X103984995Y-96835320D01*
X104019554Y-96853792D01*
X104049847Y-96878653D01*
X104074708Y-96908946D01*
X104093180Y-96943505D01*
X104104555Y-96981001D01*
X104109000Y-97026138D01*
X104109000Y-97664862D01*
X104104555Y-97709999D01*
X104093180Y-97747495D01*
X104074708Y-97782054D01*
X104049847Y-97812347D01*
X104019554Y-97837208D01*
X103984995Y-97855680D01*
X103947499Y-97867055D01*
X103902362Y-97871500D01*
X103163638Y-97871500D01*
X103118501Y-97867055D01*
X103081005Y-97855680D01*
X103046446Y-97837208D01*
X103016153Y-97812347D01*
X102991292Y-97782054D01*
X102972820Y-97747495D01*
X102961445Y-97709999D01*
X102957000Y-97664862D01*
X102957000Y-97026138D01*
X102961445Y-96981001D01*
X102972820Y-96943505D01*
X102991292Y-96908946D01*
X103016153Y-96878653D01*
X103046446Y-96853792D01*
X103081005Y-96835320D01*
X103118501Y-96823945D01*
X103163638Y-96819500D01*
X103902362Y-96819500D01*
X103947499Y-96823945D01*
X103947499Y-96823945D01*
G37*
G36*
X105697499Y-96823945D02*
G01*
X105734995Y-96835320D01*
X105769554Y-96853792D01*
X105799847Y-96878653D01*
X105824708Y-96908946D01*
X105843180Y-96943505D01*
X105854555Y-96981001D01*
X105859000Y-97026138D01*
X105859000Y-97664862D01*
X105854555Y-97709999D01*
X105843180Y-97747495D01*
X105824708Y-97782054D01*
X105799847Y-97812347D01*
X105769554Y-97837208D01*
X105734995Y-97855680D01*
X105697499Y-97867055D01*
X105652362Y-97871500D01*
X104913638Y-97871500D01*
X104868501Y-97867055D01*
X104831005Y-97855680D01*
X104796446Y-97837208D01*
X104766153Y-97812347D01*
X104741292Y-97782054D01*
X104722820Y-97747495D01*
X104711445Y-97709999D01*
X104707000Y-97664862D01*
X104707000Y-97026138D01*
X104711445Y-96981001D01*
X104722820Y-96943505D01*
X104741292Y-96908946D01*
X104766153Y-96878653D01*
X104796446Y-96853792D01*
X104831005Y-96835320D01*
X104868501Y-96823945D01*
X104913638Y-96819500D01*
X105652362Y-96819500D01*
X105697499Y-96823945D01*
X105697499Y-96823945D01*
G37*
G36*
X92358980Y-96705500D02*
G01*
X90406980Y-96705500D01*
X90406980Y-95953500D01*
X92358980Y-95953500D01*
X92358980Y-96705500D01*
X92358980Y-96705500D01*
G37*
G36*
X83008980Y-96705500D02*
G01*
X81056980Y-96705500D01*
X81056980Y-95953500D01*
X83008980Y-95953500D01*
X83008980Y-96705500D01*
X83008980Y-96705500D01*
G37*
G36*
X103947499Y-95211045D02*
G01*
X103984995Y-95222420D01*
X104019554Y-95240892D01*
X104049847Y-95265753D01*
X104074708Y-95296046D01*
X104093180Y-95330605D01*
X104104555Y-95368101D01*
X104109000Y-95413238D01*
X104109000Y-96051962D01*
X104104555Y-96097099D01*
X104093180Y-96134595D01*
X104074708Y-96169154D01*
X104049847Y-96199447D01*
X104019554Y-96224308D01*
X103984995Y-96242780D01*
X103947499Y-96254155D01*
X103902362Y-96258600D01*
X103163638Y-96258600D01*
X103118501Y-96254155D01*
X103081005Y-96242780D01*
X103046446Y-96224308D01*
X103016153Y-96199447D01*
X102991292Y-96169154D01*
X102972820Y-96134595D01*
X102961445Y-96097099D01*
X102957000Y-96051962D01*
X102957000Y-95413238D01*
X102961445Y-95368101D01*
X102972820Y-95330605D01*
X102991292Y-95296046D01*
X103016153Y-95265753D01*
X103046446Y-95240892D01*
X103081005Y-95222420D01*
X103118501Y-95211045D01*
X103163638Y-95206600D01*
X103902362Y-95206600D01*
X103947499Y-95211045D01*
X103947499Y-95211045D01*
G37*
G36*
X105697499Y-95211045D02*
G01*
X105734995Y-95222420D01*
X105769554Y-95240892D01*
X105799847Y-95265753D01*
X105824708Y-95296046D01*
X105843180Y-95330605D01*
X105854555Y-95368101D01*
X105859000Y-95413238D01*
X105859000Y-96051962D01*
X105854555Y-96097099D01*
X105843180Y-96134595D01*
X105824708Y-96169154D01*
X105799847Y-96199447D01*
X105769554Y-96224308D01*
X105734995Y-96242780D01*
X105697499Y-96254155D01*
X105652362Y-96258600D01*
X104913638Y-96258600D01*
X104868501Y-96254155D01*
X104831005Y-96242780D01*
X104796446Y-96224308D01*
X104766153Y-96199447D01*
X104741292Y-96169154D01*
X104722820Y-96134595D01*
X104711445Y-96097099D01*
X104707000Y-96051962D01*
X104707000Y-95413238D01*
X104711445Y-95368101D01*
X104722820Y-95330605D01*
X104741292Y-95296046D01*
X104766153Y-95265753D01*
X104796446Y-95240892D01*
X104831005Y-95222420D01*
X104868501Y-95211045D01*
X104913638Y-95206600D01*
X105652362Y-95206600D01*
X105697499Y-95211045D01*
X105697499Y-95211045D01*
G37*
G36*
X107298499Y-94985845D02*
G01*
X107335995Y-94997220D01*
X107370554Y-95015692D01*
X107400847Y-95040553D01*
X107425708Y-95070846D01*
X107444180Y-95105405D01*
X107455555Y-95142901D01*
X107460000Y-95188038D01*
X107460000Y-95926762D01*
X107455555Y-95971899D01*
X107444180Y-96009395D01*
X107425708Y-96043954D01*
X107400847Y-96074247D01*
X107370554Y-96099108D01*
X107335995Y-96117580D01*
X107298499Y-96128955D01*
X107253362Y-96133400D01*
X106614638Y-96133400D01*
X106569501Y-96128955D01*
X106532005Y-96117580D01*
X106497446Y-96099108D01*
X106467153Y-96074247D01*
X106442292Y-96043954D01*
X106423820Y-96009395D01*
X106412445Y-95971899D01*
X106408000Y-95926762D01*
X106408000Y-95188038D01*
X106412445Y-95142901D01*
X106423820Y-95105405D01*
X106442292Y-95070846D01*
X106467153Y-95040553D01*
X106497446Y-95015692D01*
X106532005Y-94997220D01*
X106569501Y-94985845D01*
X106614638Y-94981400D01*
X107253362Y-94981400D01*
X107298499Y-94985845D01*
X107298499Y-94985845D01*
G37*
G36*
X102218499Y-94985845D02*
G01*
X102255995Y-94997220D01*
X102290554Y-95015692D01*
X102320847Y-95040553D01*
X102345708Y-95070846D01*
X102364180Y-95105405D01*
X102375555Y-95142901D01*
X102380000Y-95188038D01*
X102380000Y-95926762D01*
X102375555Y-95971899D01*
X102364180Y-96009395D01*
X102345708Y-96043954D01*
X102320847Y-96074247D01*
X102290554Y-96099108D01*
X102255995Y-96117580D01*
X102218499Y-96128955D01*
X102173362Y-96133400D01*
X101534638Y-96133400D01*
X101489501Y-96128955D01*
X101452005Y-96117580D01*
X101417446Y-96099108D01*
X101387153Y-96074247D01*
X101362292Y-96043954D01*
X101343820Y-96009395D01*
X101332445Y-95971899D01*
X101328000Y-95926762D01*
X101328000Y-95188038D01*
X101332445Y-95142901D01*
X101343820Y-95105405D01*
X101362292Y-95070846D01*
X101387153Y-95040553D01*
X101417446Y-95015692D01*
X101452005Y-94997220D01*
X101489501Y-94985845D01*
X101534638Y-94981400D01*
X102173362Y-94981400D01*
X102218499Y-94985845D01*
X102218499Y-94985845D01*
G37*
G36*
X97541499Y-94982445D02*
G01*
X97578995Y-94993820D01*
X97613554Y-95012292D01*
X97643847Y-95037153D01*
X97668708Y-95067446D01*
X97687180Y-95102005D01*
X97698555Y-95139501D01*
X97703000Y-95184638D01*
X97703000Y-95823362D01*
X97698555Y-95868499D01*
X97687180Y-95905995D01*
X97668708Y-95940554D01*
X97643847Y-95970847D01*
X97613554Y-95995708D01*
X97578995Y-96014180D01*
X97541499Y-96025555D01*
X97496362Y-96030000D01*
X96757638Y-96030000D01*
X96712501Y-96025555D01*
X96675005Y-96014180D01*
X96640446Y-95995708D01*
X96610153Y-95970847D01*
X96585292Y-95940554D01*
X96566820Y-95905995D01*
X96555445Y-95868499D01*
X96551000Y-95823362D01*
X96551000Y-95184638D01*
X96555445Y-95139501D01*
X96566820Y-95102005D01*
X96585292Y-95067446D01*
X96610153Y-95037153D01*
X96640446Y-95012292D01*
X96675005Y-94993820D01*
X96712501Y-94982445D01*
X96757638Y-94978000D01*
X97496362Y-94978000D01*
X97541499Y-94982445D01*
X97541499Y-94982445D01*
G37*
G36*
X95791499Y-94982445D02*
G01*
X95828995Y-94993820D01*
X95863554Y-95012292D01*
X95893847Y-95037153D01*
X95918708Y-95067446D01*
X95937180Y-95102005D01*
X95948555Y-95139501D01*
X95953000Y-95184638D01*
X95953000Y-95823362D01*
X95948555Y-95868499D01*
X95937180Y-95905995D01*
X95918708Y-95940554D01*
X95893847Y-95970847D01*
X95863554Y-95995708D01*
X95828995Y-96014180D01*
X95791499Y-96025555D01*
X95746362Y-96030000D01*
X95007638Y-96030000D01*
X94962501Y-96025555D01*
X94925005Y-96014180D01*
X94890446Y-95995708D01*
X94860153Y-95970847D01*
X94835292Y-95940554D01*
X94816820Y-95905995D01*
X94805445Y-95868499D01*
X94801000Y-95823362D01*
X94801000Y-95184638D01*
X94805445Y-95139501D01*
X94816820Y-95102005D01*
X94835292Y-95067446D01*
X94860153Y-95037153D01*
X94890446Y-95012292D01*
X94925005Y-94993820D01*
X94962501Y-94982445D01*
X95007638Y-94978000D01*
X95746362Y-94978000D01*
X95791499Y-94982445D01*
X95791499Y-94982445D01*
G37*
G36*
X114996400Y-95441200D02*
G01*
X111464400Y-95441200D01*
X111464400Y-93689200D01*
X114996400Y-93689200D01*
X114996400Y-95441200D01*
X114996400Y-95441200D01*
G37*
G36*
X125266400Y-95441200D02*
G01*
X121734400Y-95441200D01*
X121734400Y-93689200D01*
X125266400Y-93689200D01*
X125266400Y-95441200D01*
X125266400Y-95441200D01*
G37*
G36*
X83008980Y-95435500D02*
G01*
X81056980Y-95435500D01*
X81056980Y-94683500D01*
X83008980Y-94683500D01*
X83008980Y-95435500D01*
X83008980Y-95435500D01*
G37*
G36*
X92358980Y-95435500D02*
G01*
X90406980Y-95435500D01*
X90406980Y-94683500D01*
X92358980Y-94683500D01*
X92358980Y-95435500D01*
X92358980Y-95435500D01*
G37*
G36*
X94041499Y-93331445D02*
G01*
X94078995Y-93342820D01*
X94113554Y-93361292D01*
X94143847Y-93386153D01*
X94168708Y-93416446D01*
X94187180Y-93451005D01*
X94198555Y-93488501D01*
X94203000Y-93533638D01*
X94203000Y-94172362D01*
X94198555Y-94217499D01*
X94187180Y-94254995D01*
X94168708Y-94289554D01*
X94143847Y-94319847D01*
X94113554Y-94344708D01*
X94078995Y-94363180D01*
X94041499Y-94374555D01*
X93996362Y-94379000D01*
X93257638Y-94379000D01*
X93212501Y-94374555D01*
X93175005Y-94363180D01*
X93140446Y-94344708D01*
X93110153Y-94319847D01*
X93085292Y-94289554D01*
X93066820Y-94254995D01*
X93055445Y-94217499D01*
X93051000Y-94172362D01*
X93051000Y-93533638D01*
X93055445Y-93488501D01*
X93066820Y-93451005D01*
X93085292Y-93416446D01*
X93110153Y-93386153D01*
X93140446Y-93361292D01*
X93175005Y-93342820D01*
X93212501Y-93331445D01*
X93257638Y-93327000D01*
X93996362Y-93327000D01*
X94041499Y-93331445D01*
X94041499Y-93331445D01*
G37*
G36*
X95791499Y-93331445D02*
G01*
X95828995Y-93342820D01*
X95863554Y-93361292D01*
X95893847Y-93386153D01*
X95918708Y-93416446D01*
X95937180Y-93451005D01*
X95948555Y-93488501D01*
X95953000Y-93533638D01*
X95953000Y-94172362D01*
X95948555Y-94217499D01*
X95937180Y-94254995D01*
X95918708Y-94289554D01*
X95893847Y-94319847D01*
X95863554Y-94344708D01*
X95828995Y-94363180D01*
X95791499Y-94374555D01*
X95746362Y-94379000D01*
X95007638Y-94379000D01*
X94962501Y-94374555D01*
X94925005Y-94363180D01*
X94890446Y-94344708D01*
X94860153Y-94319847D01*
X94835292Y-94289554D01*
X94816820Y-94254995D01*
X94805445Y-94217499D01*
X94801000Y-94172362D01*
X94801000Y-93533638D01*
X94805445Y-93488501D01*
X94816820Y-93451005D01*
X94835292Y-93416446D01*
X94860153Y-93386153D01*
X94890446Y-93361292D01*
X94925005Y-93342820D01*
X94962501Y-93331445D01*
X95007638Y-93327000D01*
X95746362Y-93327000D01*
X95791499Y-93331445D01*
X95791499Y-93331445D01*
G37*
G36*
X83008980Y-94165500D02*
G01*
X81056980Y-94165500D01*
X81056980Y-93413500D01*
X83008980Y-93413500D01*
X83008980Y-94165500D01*
X83008980Y-94165500D01*
G37*
G36*
X92358980Y-94165500D02*
G01*
X90406980Y-94165500D01*
X90406980Y-93413500D01*
X92358980Y-93413500D01*
X92358980Y-94165500D01*
X92358980Y-94165500D01*
G37*
G36*
X61638000Y-94147000D02*
G01*
X60536000Y-94147000D01*
X60536000Y-91535000D01*
X61638000Y-91535000D01*
X61638000Y-94147000D01*
X61638000Y-94147000D01*
G37*
G36*
X66718000Y-94147000D02*
G01*
X65616000Y-94147000D01*
X65616000Y-91535000D01*
X66718000Y-91535000D01*
X66718000Y-94147000D01*
X66718000Y-94147000D01*
G37*
G36*
X71798000Y-94147000D02*
G01*
X70696000Y-94147000D01*
X70696000Y-91535000D01*
X71798000Y-91535000D01*
X71798000Y-94147000D01*
X71798000Y-94147000D01*
G37*
G36*
X137871400Y-93116600D02*
G01*
X136448600Y-93116600D01*
X136448600Y-87833000D01*
X137871400Y-87833000D01*
X137871400Y-93116600D01*
X137871400Y-93116600D01*
G37*
G36*
X140411400Y-93116600D02*
G01*
X138988600Y-93116600D01*
X138988600Y-87833000D01*
X140411400Y-87833000D01*
X140411400Y-93116600D01*
X140411400Y-93116600D01*
G37*
G36*
X142951400Y-93116600D02*
G01*
X141528600Y-93116600D01*
X141528600Y-87833000D01*
X142951400Y-87833000D01*
X142951400Y-93116600D01*
X142951400Y-93116600D01*
G37*
G36*
X148031400Y-93116600D02*
G01*
X146608600Y-93116600D01*
X146608600Y-87833000D01*
X148031400Y-87833000D01*
X148031400Y-93116600D01*
X148031400Y-93116600D01*
G37*
G36*
X145491400Y-93116600D02*
G01*
X144068600Y-93116600D01*
X144068600Y-87833000D01*
X145491400Y-87833000D01*
X145491400Y-93116600D01*
X145491400Y-93116600D01*
G37*
G36*
X83008980Y-92895500D02*
G01*
X81056980Y-92895500D01*
X81056980Y-92143500D01*
X83008980Y-92143500D01*
X83008980Y-92895500D01*
X83008980Y-92895500D01*
G37*
G36*
X92358980Y-92895500D02*
G01*
X90406980Y-92895500D01*
X90406980Y-92143500D01*
X92358980Y-92143500D01*
X92358980Y-92895500D01*
X92358980Y-92895500D01*
G37*
G36*
X102218499Y-91653245D02*
G01*
X102255995Y-91664620D01*
X102290554Y-91683092D01*
X102320847Y-91707953D01*
X102345708Y-91738246D01*
X102364180Y-91772805D01*
X102375555Y-91810301D01*
X102380000Y-91855438D01*
X102380000Y-92594162D01*
X102375555Y-92639299D01*
X102364180Y-92676795D01*
X102345708Y-92711354D01*
X102320847Y-92741647D01*
X102290554Y-92766508D01*
X102255995Y-92784980D01*
X102218499Y-92796355D01*
X102173362Y-92800800D01*
X101534638Y-92800800D01*
X101489501Y-92796355D01*
X101452005Y-92784980D01*
X101417446Y-92766508D01*
X101387153Y-92741647D01*
X101362292Y-92711354D01*
X101343820Y-92676795D01*
X101332445Y-92639299D01*
X101328000Y-92594162D01*
X101328000Y-91855438D01*
X101332445Y-91810301D01*
X101343820Y-91772805D01*
X101362292Y-91738246D01*
X101387153Y-91707953D01*
X101417446Y-91683092D01*
X101452005Y-91664620D01*
X101489501Y-91653245D01*
X101534638Y-91648800D01*
X102173362Y-91648800D01*
X102218499Y-91653245D01*
X102218499Y-91653245D01*
G37*
G36*
X107298499Y-91653245D02*
G01*
X107335995Y-91664620D01*
X107370554Y-91683092D01*
X107400847Y-91707953D01*
X107425708Y-91738246D01*
X107444180Y-91772805D01*
X107455555Y-91810301D01*
X107460000Y-91855438D01*
X107460000Y-92594162D01*
X107455555Y-92639299D01*
X107444180Y-92676795D01*
X107425708Y-92711354D01*
X107400847Y-92741647D01*
X107370554Y-92766508D01*
X107335995Y-92784980D01*
X107298499Y-92796355D01*
X107253362Y-92800800D01*
X106614638Y-92800800D01*
X106569501Y-92796355D01*
X106532005Y-92784980D01*
X106497446Y-92766508D01*
X106467153Y-92741647D01*
X106442292Y-92711354D01*
X106423820Y-92676795D01*
X106412445Y-92639299D01*
X106408000Y-92594162D01*
X106408000Y-91855438D01*
X106412445Y-91810301D01*
X106423820Y-91772805D01*
X106442292Y-91738246D01*
X106467153Y-91707953D01*
X106497446Y-91683092D01*
X106532005Y-91664620D01*
X106569501Y-91653245D01*
X106614638Y-91648800D01*
X107253362Y-91648800D01*
X107298499Y-91653245D01*
X107298499Y-91653245D01*
G37*
G36*
X97541499Y-91680445D02*
G01*
X97578995Y-91691820D01*
X97613554Y-91710292D01*
X97643847Y-91735153D01*
X97668708Y-91765446D01*
X97687180Y-91800005D01*
X97698555Y-91837501D01*
X97703000Y-91882638D01*
X97703000Y-92521362D01*
X97698555Y-92566499D01*
X97687180Y-92603995D01*
X97668708Y-92638554D01*
X97643847Y-92668847D01*
X97613554Y-92693708D01*
X97578995Y-92712180D01*
X97541499Y-92723555D01*
X97496362Y-92728000D01*
X96757638Y-92728000D01*
X96712501Y-92723555D01*
X96675005Y-92712180D01*
X96640446Y-92693708D01*
X96610153Y-92668847D01*
X96585292Y-92638554D01*
X96566820Y-92603995D01*
X96555445Y-92566499D01*
X96551000Y-92521362D01*
X96551000Y-91882638D01*
X96555445Y-91837501D01*
X96566820Y-91800005D01*
X96585292Y-91765446D01*
X96610153Y-91735153D01*
X96640446Y-91710292D01*
X96675005Y-91691820D01*
X96712501Y-91680445D01*
X96757638Y-91676000D01*
X97496362Y-91676000D01*
X97541499Y-91680445D01*
X97541499Y-91680445D01*
G37*
G36*
X95791499Y-91680445D02*
G01*
X95828995Y-91691820D01*
X95863554Y-91710292D01*
X95893847Y-91735153D01*
X95918708Y-91765446D01*
X95937180Y-91800005D01*
X95948555Y-91837501D01*
X95953000Y-91882638D01*
X95953000Y-92521362D01*
X95948555Y-92566499D01*
X95937180Y-92603995D01*
X95918708Y-92638554D01*
X95893847Y-92668847D01*
X95863554Y-92693708D01*
X95828995Y-92712180D01*
X95791499Y-92723555D01*
X95746362Y-92728000D01*
X95007638Y-92728000D01*
X94962501Y-92723555D01*
X94925005Y-92712180D01*
X94890446Y-92693708D01*
X94860153Y-92668847D01*
X94835292Y-92638554D01*
X94816820Y-92603995D01*
X94805445Y-92566499D01*
X94801000Y-92521362D01*
X94801000Y-91882638D01*
X94805445Y-91837501D01*
X94816820Y-91800005D01*
X94835292Y-91765446D01*
X94860153Y-91735153D01*
X94890446Y-91710292D01*
X94925005Y-91691820D01*
X94962501Y-91680445D01*
X95007638Y-91676000D01*
X95746362Y-91676000D01*
X95791499Y-91680445D01*
X95791499Y-91680445D01*
G37*
G36*
X105697499Y-91502645D02*
G01*
X105734995Y-91514020D01*
X105769554Y-91532492D01*
X105799847Y-91557353D01*
X105824708Y-91587646D01*
X105843180Y-91622205D01*
X105854555Y-91659701D01*
X105859000Y-91704838D01*
X105859000Y-92343562D01*
X105854555Y-92388699D01*
X105843180Y-92426195D01*
X105824708Y-92460754D01*
X105799847Y-92491047D01*
X105769554Y-92515908D01*
X105734995Y-92534380D01*
X105697499Y-92545755D01*
X105652362Y-92550200D01*
X104913638Y-92550200D01*
X104868501Y-92545755D01*
X104831005Y-92534380D01*
X104796446Y-92515908D01*
X104766153Y-92491047D01*
X104741292Y-92460754D01*
X104722820Y-92426195D01*
X104711445Y-92388699D01*
X104707000Y-92343562D01*
X104707000Y-91704838D01*
X104711445Y-91659701D01*
X104722820Y-91622205D01*
X104741292Y-91587646D01*
X104766153Y-91557353D01*
X104796446Y-91532492D01*
X104831005Y-91514020D01*
X104868501Y-91502645D01*
X104913638Y-91498200D01*
X105652362Y-91498200D01*
X105697499Y-91502645D01*
X105697499Y-91502645D01*
G37*
G36*
X103947499Y-91502645D02*
G01*
X103984995Y-91514020D01*
X104019554Y-91532492D01*
X104049847Y-91557353D01*
X104074708Y-91587646D01*
X104093180Y-91622205D01*
X104104555Y-91659701D01*
X104109000Y-91704838D01*
X104109000Y-92343562D01*
X104104555Y-92388699D01*
X104093180Y-92426195D01*
X104074708Y-92460754D01*
X104049847Y-92491047D01*
X104019554Y-92515908D01*
X103984995Y-92534380D01*
X103947499Y-92545755D01*
X103902362Y-92550200D01*
X103163638Y-92550200D01*
X103118501Y-92545755D01*
X103081005Y-92534380D01*
X103046446Y-92515908D01*
X103016153Y-92491047D01*
X102991292Y-92460754D01*
X102972820Y-92426195D01*
X102961445Y-92388699D01*
X102957000Y-92343562D01*
X102957000Y-91704838D01*
X102961445Y-91659701D01*
X102972820Y-91622205D01*
X102991292Y-91587646D01*
X103016153Y-91557353D01*
X103046446Y-91532492D01*
X103081005Y-91514020D01*
X103118501Y-91502645D01*
X103163638Y-91498200D01*
X103902362Y-91498200D01*
X103947499Y-91502645D01*
X103947499Y-91502645D01*
G37*
G36*
X92358980Y-91625500D02*
G01*
X90406980Y-91625500D01*
X90406980Y-90873500D01*
X92358980Y-90873500D01*
X92358980Y-91625500D01*
X92358980Y-91625500D01*
G37*
G36*
X83008980Y-91625500D02*
G01*
X81056980Y-91625500D01*
X81056980Y-90873500D01*
X83008980Y-90873500D01*
X83008980Y-91625500D01*
X83008980Y-91625500D01*
G37*
G36*
X117551400Y-91186200D02*
G01*
X116179400Y-91186200D01*
X116179400Y-88544200D01*
X117551400Y-88544200D01*
X117551400Y-91186200D01*
X117551400Y-91186200D01*
G37*
G36*
X120551400Y-91186200D02*
G01*
X119179400Y-91186200D01*
X119179400Y-88544200D01*
X120551400Y-88544200D01*
X120551400Y-91186200D01*
X120551400Y-91186200D01*
G37*
G36*
X107298499Y-89903245D02*
G01*
X107335995Y-89914620D01*
X107370554Y-89933092D01*
X107400847Y-89957953D01*
X107425708Y-89988246D01*
X107444180Y-90022805D01*
X107455555Y-90060301D01*
X107460000Y-90105438D01*
X107460000Y-90844162D01*
X107455555Y-90889299D01*
X107444180Y-90926795D01*
X107425708Y-90961354D01*
X107400847Y-90991647D01*
X107370554Y-91016508D01*
X107335995Y-91034980D01*
X107298499Y-91046355D01*
X107253362Y-91050800D01*
X106614638Y-91050800D01*
X106569501Y-91046355D01*
X106532005Y-91034980D01*
X106497446Y-91016508D01*
X106467153Y-90991647D01*
X106442292Y-90961354D01*
X106423820Y-90926795D01*
X106412445Y-90889299D01*
X106408000Y-90844162D01*
X106408000Y-90105438D01*
X106412445Y-90060301D01*
X106423820Y-90022805D01*
X106442292Y-89988246D01*
X106467153Y-89957953D01*
X106497446Y-89933092D01*
X106532005Y-89914620D01*
X106569501Y-89903245D01*
X106614638Y-89898800D01*
X107253362Y-89898800D01*
X107298499Y-89903245D01*
X107298499Y-89903245D01*
G37*
G36*
X102218499Y-89903245D02*
G01*
X102255995Y-89914620D01*
X102290554Y-89933092D01*
X102320847Y-89957953D01*
X102345708Y-89988246D01*
X102364180Y-90022805D01*
X102375555Y-90060301D01*
X102380000Y-90105438D01*
X102380000Y-90844162D01*
X102375555Y-90889299D01*
X102364180Y-90926795D01*
X102345708Y-90961354D01*
X102320847Y-90991647D01*
X102290554Y-91016508D01*
X102255995Y-91034980D01*
X102218499Y-91046355D01*
X102173362Y-91050800D01*
X101534638Y-91050800D01*
X101489501Y-91046355D01*
X101452005Y-91034980D01*
X101417446Y-91016508D01*
X101387153Y-90991647D01*
X101362292Y-90961354D01*
X101343820Y-90926795D01*
X101332445Y-90889299D01*
X101328000Y-90844162D01*
X101328000Y-90105438D01*
X101332445Y-90060301D01*
X101343820Y-90022805D01*
X101362292Y-89988246D01*
X101387153Y-89957953D01*
X101417446Y-89933092D01*
X101452005Y-89914620D01*
X101489501Y-89903245D01*
X101534638Y-89898800D01*
X102173362Y-89898800D01*
X102218499Y-89903245D01*
X102218499Y-89903245D01*
G37*
G36*
X103947499Y-89902445D02*
G01*
X103984995Y-89913820D01*
X104019554Y-89932292D01*
X104049847Y-89957153D01*
X104074708Y-89987446D01*
X104093180Y-90022005D01*
X104104555Y-90059501D01*
X104109000Y-90104638D01*
X104109000Y-90743362D01*
X104104555Y-90788499D01*
X104093180Y-90825995D01*
X104074708Y-90860554D01*
X104049847Y-90890847D01*
X104019554Y-90915708D01*
X103984995Y-90934180D01*
X103947499Y-90945555D01*
X103902362Y-90950000D01*
X103163638Y-90950000D01*
X103118501Y-90945555D01*
X103081005Y-90934180D01*
X103046446Y-90915708D01*
X103016153Y-90890847D01*
X102991292Y-90860554D01*
X102972820Y-90825995D01*
X102961445Y-90788499D01*
X102957000Y-90743362D01*
X102957000Y-90104638D01*
X102961445Y-90059501D01*
X102972820Y-90022005D01*
X102991292Y-89987446D01*
X103016153Y-89957153D01*
X103046446Y-89932292D01*
X103081005Y-89913820D01*
X103118501Y-89902445D01*
X103163638Y-89898000D01*
X103902362Y-89898000D01*
X103947499Y-89902445D01*
X103947499Y-89902445D01*
G37*
G36*
X105697499Y-89902445D02*
G01*
X105734995Y-89913820D01*
X105769554Y-89932292D01*
X105799847Y-89957153D01*
X105824708Y-89987446D01*
X105843180Y-90022005D01*
X105854555Y-90059501D01*
X105859000Y-90104638D01*
X105859000Y-90743362D01*
X105854555Y-90788499D01*
X105843180Y-90825995D01*
X105824708Y-90860554D01*
X105799847Y-90890847D01*
X105769554Y-90915708D01*
X105734995Y-90934180D01*
X105697499Y-90945555D01*
X105652362Y-90950000D01*
X104913638Y-90950000D01*
X104868501Y-90945555D01*
X104831005Y-90934180D01*
X104796446Y-90915708D01*
X104766153Y-90890847D01*
X104741292Y-90860554D01*
X104722820Y-90825995D01*
X104711445Y-90788499D01*
X104707000Y-90743362D01*
X104707000Y-90104638D01*
X104711445Y-90059501D01*
X104722820Y-90022005D01*
X104741292Y-89987446D01*
X104766153Y-89957153D01*
X104796446Y-89932292D01*
X104831005Y-89913820D01*
X104868501Y-89902445D01*
X104913638Y-89898000D01*
X105652362Y-89898000D01*
X105697499Y-89902445D01*
X105697499Y-89902445D01*
G37*
G36*
X69258000Y-90837000D02*
G01*
X68156000Y-90837000D01*
X68156000Y-88225000D01*
X69258000Y-88225000D01*
X69258000Y-90837000D01*
X69258000Y-90837000D01*
G37*
G36*
X74338000Y-90837000D02*
G01*
X73236000Y-90837000D01*
X73236000Y-88225000D01*
X74338000Y-88225000D01*
X74338000Y-90837000D01*
X74338000Y-90837000D01*
G37*
G36*
X64178000Y-90837000D02*
G01*
X63076000Y-90837000D01*
X63076000Y-88225000D01*
X64178000Y-88225000D01*
X64178000Y-90837000D01*
X64178000Y-90837000D01*
G37*
G36*
X83008980Y-90355500D02*
G01*
X81056980Y-90355500D01*
X81056980Y-89603500D01*
X83008980Y-89603500D01*
X83008980Y-90355500D01*
X83008980Y-90355500D01*
G37*
G36*
X92358980Y-90355500D02*
G01*
X90406980Y-90355500D01*
X90406980Y-89603500D01*
X92358980Y-89603500D01*
X92358980Y-90355500D01*
X92358980Y-90355500D01*
G37*
G36*
X88044499Y-87489445D02*
G01*
X88081995Y-87500820D01*
X88116554Y-87519292D01*
X88146847Y-87544153D01*
X88171708Y-87574446D01*
X88190180Y-87609005D01*
X88201555Y-87646501D01*
X88206000Y-87691638D01*
X88206000Y-88330362D01*
X88201555Y-88375499D01*
X88190180Y-88412995D01*
X88171708Y-88447554D01*
X88146847Y-88477847D01*
X88116554Y-88502708D01*
X88081995Y-88521180D01*
X88044499Y-88532555D01*
X87999362Y-88537000D01*
X87260638Y-88537000D01*
X87215501Y-88532555D01*
X87178005Y-88521180D01*
X87143446Y-88502708D01*
X87113153Y-88477847D01*
X87088292Y-88447554D01*
X87069820Y-88412995D01*
X87058445Y-88375499D01*
X87054000Y-88330362D01*
X87054000Y-87691638D01*
X87058445Y-87646501D01*
X87069820Y-87609005D01*
X87088292Y-87574446D01*
X87113153Y-87544153D01*
X87143446Y-87519292D01*
X87178005Y-87500820D01*
X87215501Y-87489445D01*
X87260638Y-87485000D01*
X87999362Y-87485000D01*
X88044499Y-87489445D01*
X88044499Y-87489445D01*
G37*
G36*
X86294499Y-87489445D02*
G01*
X86331995Y-87500820D01*
X86366554Y-87519292D01*
X86396847Y-87544153D01*
X86421708Y-87574446D01*
X86440180Y-87609005D01*
X86451555Y-87646501D01*
X86456000Y-87691638D01*
X86456000Y-88330362D01*
X86451555Y-88375499D01*
X86440180Y-88412995D01*
X86421708Y-88447554D01*
X86396847Y-88477847D01*
X86366554Y-88502708D01*
X86331995Y-88521180D01*
X86294499Y-88532555D01*
X86249362Y-88537000D01*
X85510638Y-88537000D01*
X85465501Y-88532555D01*
X85428005Y-88521180D01*
X85393446Y-88502708D01*
X85363153Y-88477847D01*
X85338292Y-88447554D01*
X85319820Y-88412995D01*
X85308445Y-88375499D01*
X85304000Y-88330362D01*
X85304000Y-87691638D01*
X85308445Y-87646501D01*
X85319820Y-87609005D01*
X85338292Y-87574446D01*
X85363153Y-87544153D01*
X85393446Y-87519292D01*
X85428005Y-87500820D01*
X85465501Y-87489445D01*
X85510638Y-87485000D01*
X86249362Y-87485000D01*
X86294499Y-87489445D01*
X86294499Y-87489445D01*
G37*
M02*
