G04 #@! TF.GenerationSoftware,KiCad,Pcbnew,(5.1.4)-1*
G04 #@! TF.CreationDate,2020-01-28T11:55:59-05:00*
G04 #@! TF.ProjectId,PDC1920,50444331-3932-4302-9e6b-696361645f70,rev?*
G04 #@! TF.SameCoordinates,Original*
G04 #@! TF.FileFunction,Copper,L1,Top*
G04 #@! TF.FilePolarity,Positive*
%FSLAX46Y46*%
G04 Gerber Fmt 4.6, Leading zero omitted, Abs format (unit mm)*
G04 Created by KiCad (PCBNEW (5.1.4)-1) date 2020-01-28 11:55:59*
%MOMM*%
%LPD*%
G04 APERTURE LIST*
%ADD10R,1.143000X2.032000*%
%ADD11C,0.800000*%
%ADD12C,0.254000*%
%ADD13C,0.381000*%
G04 APERTURE END LIST*
D10*
X130120200Y-99493000D03*
X132660200Y-99493000D03*
X135200200Y-99493000D03*
X137740200Y-99493000D03*
X130120200Y-88033000D03*
X132660200Y-88033000D03*
X135200200Y-88033000D03*
X137740200Y-88033000D03*
X95399000Y-99493000D03*
X97939000Y-99493000D03*
X100479000Y-99493000D03*
X103019000Y-99493000D03*
X95399000Y-88033000D03*
X97939000Y-88033000D03*
X100479000Y-88033000D03*
X103019000Y-88033000D03*
X60685680Y-99493000D03*
X63225680Y-99493000D03*
X65765680Y-99493000D03*
X68305680Y-99493000D03*
X60685680Y-88033000D03*
X63225680Y-88033000D03*
X65765680Y-88033000D03*
X68305680Y-88033000D03*
D11*
X139700000Y-100809490D03*
X79933800Y-100239909D03*
X105587800Y-99034600D03*
X141097000Y-100711000D03*
X92983333Y-96945733D03*
X76109866Y-100447654D03*
X70485000Y-97536000D03*
X54483000Y-89154000D03*
X54356000Y-98933000D03*
X58166000Y-93980000D03*
X70612000Y-86995000D03*
X77470000Y-88519000D03*
X92303600Y-87071200D03*
X105943400Y-87172800D03*
X131241800Y-93091000D03*
X159766000Y-99314000D03*
X159893000Y-88900000D03*
X154813000Y-93853000D03*
X149352000Y-90551000D03*
X145288000Y-101219000D03*
X145796000Y-86868000D03*
X85217000Y-94234000D03*
X88900000Y-96647000D03*
X63944500Y-93789500D03*
X79946500Y-93599000D03*
X72136000Y-90487500D03*
X76073000Y-94107000D03*
X84455000Y-88201500D03*
X61849000Y-101219000D03*
X126339600Y-90551000D03*
X117525800Y-92862400D03*
X58420000Y-87122000D03*
X88582500Y-99250500D03*
X98869500Y-96647000D03*
X98425000Y-91338400D03*
X127787400Y-100253800D03*
X125222000Y-99136200D03*
X84226400Y-98247200D03*
X93370400Y-99441000D03*
X106883200Y-98602800D03*
X100279200Y-94411800D03*
X109093000Y-97840800D03*
X126492000Y-86537800D03*
X135509000Y-92837000D03*
X148844000Y-93853000D03*
X78384400Y-99059998D03*
X88900000Y-90678000D03*
X88963500Y-94170500D03*
X133991074Y-101085926D03*
X106327510Y-100555490D03*
X128066800Y-98475800D03*
X76123802Y-101447600D03*
X70485000Y-95631000D03*
X73285067Y-95538990D03*
X80010000Y-95250000D03*
X79883000Y-92075000D03*
X79883009Y-90770010D03*
X71872399Y-96910601D03*
X78613000Y-96266000D03*
X93268800Y-92227400D03*
X91211400Y-88366600D03*
D12*
X138565700Y-99493000D02*
X139700000Y-100627300D01*
X139700000Y-100627300D02*
X139700000Y-100809490D01*
X137740200Y-99493000D02*
X138565700Y-99493000D01*
X137740200Y-99493000D02*
X137656500Y-99493000D01*
X103844500Y-99493000D02*
X104302900Y-99034600D01*
X104302900Y-99034600D02*
X105022115Y-99034600D01*
X105022115Y-99034600D02*
X105587800Y-99034600D01*
X103019000Y-99493000D02*
X103844500Y-99493000D01*
X137740200Y-99048500D02*
X137740200Y-99493000D01*
X136684900Y-97993200D02*
X137740200Y-99048500D01*
X132336768Y-97993200D02*
X136684900Y-97993200D01*
X131901859Y-97558291D02*
X132336768Y-97993200D01*
X127908347Y-97558291D02*
X131901859Y-97558291D01*
X127339799Y-98126839D02*
X127908347Y-97558291D01*
X125726810Y-100841190D02*
X127339799Y-99228201D01*
X106153485Y-99034600D02*
X106477364Y-99358479D01*
X127339799Y-99228201D02*
X127339799Y-98126839D01*
X105587800Y-99034600D02*
X106153485Y-99034600D01*
X106477364Y-99358479D02*
X113589546Y-99358479D01*
X113589546Y-99358479D02*
X113855499Y-99624433D01*
X113855499Y-99624433D02*
X115072256Y-100841190D01*
X115072256Y-100841190D02*
X125726810Y-100841190D01*
X69637980Y-99999800D02*
X69131180Y-99493000D01*
X75387200Y-99999800D02*
X69637980Y-99999800D01*
X75666347Y-99720653D02*
X75387200Y-99999800D01*
X79919909Y-100253800D02*
X76987400Y-100253800D01*
X69131180Y-99493000D02*
X68305680Y-99493000D01*
X79933800Y-100239909D02*
X79919909Y-100253800D01*
X76987400Y-100253800D02*
X76454000Y-99720400D01*
X76454000Y-99720400D02*
X76073000Y-99720400D01*
X76073000Y-99720400D02*
X76072747Y-99720653D01*
X76072747Y-99720653D02*
X75666347Y-99720653D01*
X135200200Y-99937500D02*
X135200200Y-99493000D01*
X135200200Y-100763000D02*
X135200200Y-99493000D01*
X135200200Y-100952762D02*
X135200200Y-100763000D01*
X134333961Y-101819001D02*
X135200200Y-100952762D01*
X140697001Y-101110999D02*
X141097000Y-100711000D01*
X140208000Y-101600000D02*
X140697001Y-101110999D01*
X134333961Y-101819001D02*
X134552962Y-101600000D01*
X134552962Y-101600000D02*
X140208000Y-101600000D01*
X92983333Y-96945733D02*
X93262733Y-96945733D01*
X100479000Y-99048500D02*
X100479000Y-99493000D01*
X99489500Y-98059000D02*
X100479000Y-99048500D01*
X94376000Y-98059000D02*
X99489500Y-98059000D01*
X93262733Y-96945733D02*
X94376000Y-98059000D01*
X133696001Y-101819001D02*
X134333961Y-101819001D01*
X133172200Y-101295200D02*
X133696001Y-101819001D01*
X114884200Y-101295200D02*
X133172200Y-101295200D01*
X100479000Y-99937500D02*
X101471589Y-100930089D01*
X100479000Y-99493000D02*
X100479000Y-99937500D01*
X103824039Y-100930089D02*
X104941639Y-99812489D01*
X101471589Y-100930089D02*
X103824039Y-100930089D01*
X104941639Y-99812489D02*
X113401489Y-99812489D01*
X113401489Y-99812489D02*
X114884200Y-101295200D01*
X75721519Y-100836001D02*
X76109866Y-100447654D01*
X66664181Y-100836001D02*
X75721519Y-100836001D01*
X65765680Y-99493000D02*
X65765680Y-99937500D01*
X65765680Y-99937500D02*
X66664181Y-100836001D01*
D13*
X133808626Y-101085926D02*
X133991074Y-101085926D01*
X132660200Y-99937500D02*
X133808626Y-101085926D01*
X132660200Y-99493000D02*
X132660200Y-99937500D01*
D12*
X97939000Y-99493000D02*
X97939000Y-99048500D01*
D13*
X97939000Y-99493000D02*
X98188598Y-99493000D01*
X132660200Y-99493000D02*
X132660200Y-99048500D01*
X132660200Y-99048500D02*
X131687501Y-98075801D01*
X128466799Y-98075801D02*
X128066800Y-98475800D01*
X131687501Y-98075801D02*
X128466799Y-98075801D01*
X97939000Y-99493000D02*
X97939000Y-99937500D01*
X105761825Y-100555490D02*
X106327510Y-100555490D01*
X104930510Y-100555490D02*
X105761825Y-100555490D01*
X104038400Y-101447600D02*
X104930510Y-100555490D01*
X97459800Y-101369200D02*
X97459800Y-101447600D01*
X97939000Y-100890000D02*
X97459800Y-101369200D01*
X97939000Y-99493000D02*
X97939000Y-100890000D01*
X97459800Y-101447600D02*
X104038400Y-101447600D01*
X63225680Y-99493000D02*
X63225680Y-99937500D01*
X64735780Y-101447600D02*
X74719915Y-101447600D01*
D12*
X74676000Y-101403685D02*
X74719915Y-101447600D01*
D13*
X63225680Y-99937500D02*
X64735780Y-101447600D01*
X97459800Y-101447600D02*
X76123802Y-101447600D01*
X74719915Y-101447600D02*
X76123802Y-101447600D01*
D12*
X73193057Y-95631000D02*
X73285067Y-95538990D01*
X70485000Y-95631000D02*
X73193057Y-95631000D01*
X68305680Y-92943680D02*
X68305680Y-88033000D01*
X70173989Y-94811989D02*
X68305680Y-92943680D01*
X73634027Y-94811989D02*
X70173989Y-94811989D01*
X80010000Y-95250000D02*
X74072038Y-95250000D01*
X74072038Y-95250000D02*
X73634027Y-94811989D01*
X103019000Y-87588500D02*
X103019000Y-88033000D01*
X80904553Y-90581953D02*
X83210400Y-92887800D01*
X98608700Y-92887800D02*
X103019000Y-88477500D01*
X80902704Y-90581953D02*
X80904553Y-90581953D01*
X79317315Y-92075000D02*
X79155999Y-91913684D01*
X79883000Y-92075000D02*
X79317315Y-92075000D01*
X103019000Y-88477500D02*
X103019000Y-88033000D01*
X79155999Y-91913684D02*
X79155999Y-90329039D01*
X83210400Y-92887800D02*
X98608700Y-92887800D01*
X79155999Y-90329039D02*
X79442038Y-90043000D01*
X79442038Y-90043000D02*
X80363751Y-90043000D01*
X80363751Y-90043000D02*
X80902704Y-90581953D01*
X80283008Y-91170009D02*
X79883009Y-90770010D01*
X137740200Y-88033000D02*
X137740200Y-88477500D01*
X136682700Y-89535000D02*
X102603568Y-89535000D01*
X102603568Y-89535000D02*
X98796757Y-93341811D01*
X98796757Y-93341811D02*
X82454810Y-93341811D01*
X137740200Y-88477500D02*
X136682700Y-89535000D01*
X82454810Y-93341811D02*
X80283008Y-91170009D01*
X72517000Y-96266000D02*
X78613000Y-96266000D01*
X71872399Y-96910601D02*
X72517000Y-96266000D01*
X91668600Y-88366600D02*
X91211400Y-88366600D01*
X93268800Y-92227400D02*
X93268800Y-89966800D01*
X93268800Y-89966800D02*
X91668600Y-88366600D01*
G36*
X59759686Y-86486463D02*
G01*
X59662995Y-86565815D01*
X59583643Y-86662506D01*
X59524678Y-86772820D01*
X59488368Y-86892518D01*
X59476108Y-87017000D01*
X59476108Y-89049000D01*
X59488368Y-89173482D01*
X59524678Y-89293180D01*
X59583643Y-89403494D01*
X59662995Y-89500185D01*
X59759686Y-89579537D01*
X59870000Y-89638502D01*
X59989698Y-89674812D01*
X60114180Y-89687072D01*
X61257180Y-89687072D01*
X61381662Y-89674812D01*
X61501360Y-89638502D01*
X61611674Y-89579537D01*
X61708365Y-89500185D01*
X61787717Y-89403494D01*
X61846682Y-89293180D01*
X61882992Y-89173482D01*
X61895252Y-89049000D01*
X61895252Y-87017000D01*
X61882992Y-86892518D01*
X61846682Y-86772820D01*
X61787717Y-86662506D01*
X61708365Y-86565815D01*
X61611674Y-86486463D01*
X61539950Y-86448125D01*
X62371410Y-86448125D01*
X62299686Y-86486463D01*
X62202995Y-86565815D01*
X62123643Y-86662506D01*
X62064678Y-86772820D01*
X62028368Y-86892518D01*
X62016108Y-87017000D01*
X62016108Y-89049000D01*
X62028368Y-89173482D01*
X62064678Y-89293180D01*
X62123643Y-89403494D01*
X62202995Y-89500185D01*
X62299686Y-89579537D01*
X62410000Y-89638502D01*
X62529698Y-89674812D01*
X62654180Y-89687072D01*
X63797180Y-89687072D01*
X63921662Y-89674812D01*
X64041360Y-89638502D01*
X64151674Y-89579537D01*
X64248365Y-89500185D01*
X64327717Y-89403494D01*
X64386682Y-89293180D01*
X64422992Y-89173482D01*
X64435252Y-89049000D01*
X64435252Y-87017000D01*
X64422992Y-86892518D01*
X64386682Y-86772820D01*
X64327717Y-86662506D01*
X64248365Y-86565815D01*
X64151674Y-86486463D01*
X64079950Y-86448125D01*
X64911410Y-86448125D01*
X64839686Y-86486463D01*
X64742995Y-86565815D01*
X64663643Y-86662506D01*
X64604678Y-86772820D01*
X64568368Y-86892518D01*
X64556108Y-87017000D01*
X64556108Y-89049000D01*
X64568368Y-89173482D01*
X64604678Y-89293180D01*
X64663643Y-89403494D01*
X64742995Y-89500185D01*
X64839686Y-89579537D01*
X64950000Y-89638502D01*
X65069698Y-89674812D01*
X65194180Y-89687072D01*
X66337180Y-89687072D01*
X66461662Y-89674812D01*
X66581360Y-89638502D01*
X66691674Y-89579537D01*
X66788365Y-89500185D01*
X66867717Y-89403494D01*
X66926682Y-89293180D01*
X66962992Y-89173482D01*
X66975252Y-89049000D01*
X66975252Y-87017000D01*
X66962992Y-86892518D01*
X66926682Y-86772820D01*
X66867717Y-86662506D01*
X66788365Y-86565815D01*
X66691674Y-86486463D01*
X66619950Y-86448125D01*
X67451410Y-86448125D01*
X67379686Y-86486463D01*
X67282995Y-86565815D01*
X67203643Y-86662506D01*
X67144678Y-86772820D01*
X67108368Y-86892518D01*
X67096108Y-87017000D01*
X67096108Y-89049000D01*
X67108368Y-89173482D01*
X67144678Y-89293180D01*
X67203643Y-89403494D01*
X67282995Y-89500185D01*
X67379686Y-89579537D01*
X67490000Y-89638502D01*
X67543681Y-89654786D01*
X67543680Y-92906257D01*
X67539994Y-92943680D01*
X67543680Y-92981103D01*
X67543680Y-92981105D01*
X67554706Y-93093057D01*
X67598278Y-93236694D01*
X67598279Y-93236695D01*
X67669035Y-93369072D01*
X67708663Y-93417358D01*
X67764258Y-93485102D01*
X67793334Y-93508964D01*
X69526004Y-95241635D01*
X69489774Y-95329102D01*
X69450000Y-95529061D01*
X69450000Y-95732939D01*
X69489774Y-95932898D01*
X69567795Y-96121256D01*
X69681063Y-96290774D01*
X69825226Y-96434937D01*
X69994744Y-96548205D01*
X70183102Y-96626226D01*
X70383061Y-96666000D01*
X70586939Y-96666000D01*
X70786898Y-96626226D01*
X70887108Y-96584717D01*
X70877173Y-96608703D01*
X70837399Y-96808662D01*
X70837399Y-97012540D01*
X70877173Y-97212499D01*
X70955194Y-97400857D01*
X71068462Y-97570375D01*
X71212625Y-97714538D01*
X71382143Y-97827806D01*
X71570501Y-97905827D01*
X71770460Y-97945601D01*
X71974338Y-97945601D01*
X72174297Y-97905827D01*
X72362655Y-97827806D01*
X72532173Y-97714538D01*
X72676336Y-97570375D01*
X72789604Y-97400857D01*
X72867625Y-97212499D01*
X72904324Y-97028000D01*
X77911289Y-97028000D01*
X77953226Y-97069937D01*
X78122744Y-97183205D01*
X78311102Y-97261226D01*
X78511061Y-97301000D01*
X78714939Y-97301000D01*
X78914898Y-97261226D01*
X79103256Y-97183205D01*
X79272774Y-97069937D01*
X79416937Y-96925774D01*
X79530205Y-96756256D01*
X79608226Y-96567898D01*
X79648000Y-96367939D01*
X79648000Y-96220331D01*
X79708102Y-96245226D01*
X79908061Y-96285000D01*
X80111939Y-96285000D01*
X80311898Y-96245226D01*
X80500256Y-96167205D01*
X80669774Y-96053937D01*
X80813937Y-95909774D01*
X80927205Y-95740256D01*
X81005226Y-95551898D01*
X81045000Y-95351939D01*
X81045000Y-95148061D01*
X81005226Y-94948102D01*
X80927205Y-94759744D01*
X80813937Y-94590226D01*
X80669774Y-94446063D01*
X80500256Y-94332795D01*
X80311898Y-94254774D01*
X80111939Y-94215000D01*
X79908061Y-94215000D01*
X79708102Y-94254774D01*
X79519744Y-94332795D01*
X79350226Y-94446063D01*
X79308289Y-94488000D01*
X74387668Y-94488000D01*
X74199311Y-94299643D01*
X74175449Y-94270567D01*
X74059419Y-94175344D01*
X73927042Y-94104587D01*
X73783405Y-94061015D01*
X73671453Y-94049989D01*
X73671450Y-94049989D01*
X73634027Y-94046303D01*
X73596604Y-94049989D01*
X70489620Y-94049989D01*
X69067680Y-92628050D01*
X69067680Y-89654786D01*
X69121360Y-89638502D01*
X69231674Y-89579537D01*
X69328365Y-89500185D01*
X69407717Y-89403494D01*
X69466682Y-89293180D01*
X69502992Y-89173482D01*
X69515252Y-89049000D01*
X69515252Y-87017000D01*
X69502992Y-86892518D01*
X69466682Y-86772820D01*
X69407717Y-86662506D01*
X69328365Y-86565815D01*
X69231674Y-86486463D01*
X69159950Y-86448125D01*
X94544730Y-86448125D01*
X94473006Y-86486463D01*
X94376315Y-86565815D01*
X94296963Y-86662506D01*
X94237998Y-86772820D01*
X94201688Y-86892518D01*
X94189428Y-87017000D01*
X94189428Y-89049000D01*
X94201688Y-89173482D01*
X94237998Y-89293180D01*
X94296963Y-89403494D01*
X94376315Y-89500185D01*
X94473006Y-89579537D01*
X94583320Y-89638502D01*
X94703018Y-89674812D01*
X94827500Y-89687072D01*
X95970500Y-89687072D01*
X96094982Y-89674812D01*
X96214680Y-89638502D01*
X96324994Y-89579537D01*
X96421685Y-89500185D01*
X96501037Y-89403494D01*
X96560002Y-89293180D01*
X96596312Y-89173482D01*
X96608572Y-89049000D01*
X96608572Y-87017000D01*
X96596312Y-86892518D01*
X96560002Y-86772820D01*
X96501037Y-86662506D01*
X96421685Y-86565815D01*
X96324994Y-86486463D01*
X96253270Y-86448125D01*
X97084730Y-86448125D01*
X97013006Y-86486463D01*
X96916315Y-86565815D01*
X96836963Y-86662506D01*
X96777998Y-86772820D01*
X96741688Y-86892518D01*
X96729428Y-87017000D01*
X96729428Y-89049000D01*
X96741688Y-89173482D01*
X96777998Y-89293180D01*
X96836963Y-89403494D01*
X96916315Y-89500185D01*
X97013006Y-89579537D01*
X97123320Y-89638502D01*
X97243018Y-89674812D01*
X97367500Y-89687072D01*
X98510500Y-89687072D01*
X98634982Y-89674812D01*
X98754680Y-89638502D01*
X98864994Y-89579537D01*
X98961685Y-89500185D01*
X99041037Y-89403494D01*
X99100002Y-89293180D01*
X99136312Y-89173482D01*
X99148572Y-89049000D01*
X99148572Y-87017000D01*
X99136312Y-86892518D01*
X99100002Y-86772820D01*
X99041037Y-86662506D01*
X98961685Y-86565815D01*
X98864994Y-86486463D01*
X98793270Y-86448125D01*
X99624730Y-86448125D01*
X99553006Y-86486463D01*
X99456315Y-86565815D01*
X99376963Y-86662506D01*
X99317998Y-86772820D01*
X99281688Y-86892518D01*
X99269428Y-87017000D01*
X99269428Y-89049000D01*
X99281688Y-89173482D01*
X99317998Y-89293180D01*
X99376963Y-89403494D01*
X99456315Y-89500185D01*
X99553006Y-89579537D01*
X99663320Y-89638502D01*
X99783018Y-89674812D01*
X99907500Y-89687072D01*
X100731797Y-89687072D01*
X98293070Y-92125800D01*
X94303800Y-92125800D01*
X94303800Y-92125461D01*
X94264026Y-91925502D01*
X94186005Y-91737144D01*
X94072737Y-91567626D01*
X94030800Y-91525689D01*
X94030800Y-90004223D01*
X94034486Y-89966800D01*
X94028266Y-89903647D01*
X94019774Y-89817422D01*
X93976202Y-89673785D01*
X93943265Y-89612164D01*
X93905445Y-89541407D01*
X93870657Y-89499019D01*
X93810222Y-89425378D01*
X93781146Y-89401516D01*
X92233884Y-87854254D01*
X92210022Y-87825178D01*
X92093992Y-87729955D01*
X91974707Y-87666196D01*
X91871174Y-87562663D01*
X91701656Y-87449395D01*
X91513298Y-87371374D01*
X91313339Y-87331600D01*
X91109461Y-87331600D01*
X90909502Y-87371374D01*
X90721144Y-87449395D01*
X90551626Y-87562663D01*
X90407463Y-87706826D01*
X90294195Y-87876344D01*
X90216174Y-88064702D01*
X90176400Y-88264661D01*
X90176400Y-88468539D01*
X90216174Y-88668498D01*
X90294195Y-88856856D01*
X90407463Y-89026374D01*
X90551626Y-89170537D01*
X90721144Y-89283805D01*
X90909502Y-89361826D01*
X91109461Y-89401600D01*
X91313339Y-89401600D01*
X91513298Y-89361826D01*
X91564845Y-89340475D01*
X92506801Y-90282431D01*
X92506800Y-91525689D01*
X92464863Y-91567626D01*
X92351595Y-91737144D01*
X92273574Y-91925502D01*
X92233800Y-92125461D01*
X92233800Y-92125800D01*
X83526031Y-92125800D01*
X81469837Y-90069607D01*
X81445975Y-90040531D01*
X81406588Y-90008207D01*
X80929035Y-89530654D01*
X80905173Y-89501578D01*
X80789143Y-89406355D01*
X80656766Y-89335598D01*
X80513129Y-89292026D01*
X80401177Y-89281000D01*
X80401174Y-89281000D01*
X80363751Y-89277314D01*
X80326328Y-89281000D01*
X79479460Y-89281000D01*
X79442037Y-89277314D01*
X79404614Y-89281000D01*
X79404612Y-89281000D01*
X79292660Y-89292026D01*
X79149023Y-89335598D01*
X79016646Y-89406355D01*
X78900616Y-89501578D01*
X78876754Y-89530654D01*
X78643648Y-89763760D01*
X78614578Y-89787617D01*
X78590721Y-89816687D01*
X78590720Y-89816688D01*
X78519354Y-89903647D01*
X78448598Y-90036024D01*
X78405026Y-90179661D01*
X78390313Y-90329039D01*
X78394000Y-90366472D01*
X78393999Y-91876260D01*
X78390313Y-91913684D01*
X78393999Y-91951107D01*
X78393999Y-91951109D01*
X78405025Y-92063061D01*
X78448597Y-92206698D01*
X78472360Y-92251155D01*
X78519354Y-92339076D01*
X78558982Y-92387362D01*
X78614577Y-92455106D01*
X78643653Y-92478968D01*
X78752031Y-92587346D01*
X78775893Y-92616422D01*
X78891923Y-92711645D01*
X79024300Y-92782402D01*
X79167937Y-92825974D01*
X79170517Y-92826228D01*
X79223226Y-92878937D01*
X79392744Y-92992205D01*
X79581102Y-93070226D01*
X79781061Y-93110000D01*
X79984939Y-93110000D01*
X80184898Y-93070226D01*
X80373256Y-92992205D01*
X80542774Y-92878937D01*
X80686937Y-92734774D01*
X80720264Y-92684896D01*
X81889531Y-93854163D01*
X81913388Y-93883233D01*
X81942458Y-93907090D01*
X82029417Y-93978456D01*
X82100174Y-94016276D01*
X82161795Y-94049213D01*
X82305432Y-94092785D01*
X82417384Y-94103811D01*
X82417387Y-94103811D01*
X82454810Y-94107497D01*
X82492233Y-94103811D01*
X98759334Y-94103811D01*
X98796757Y-94107497D01*
X98834180Y-94103811D01*
X98834183Y-94103811D01*
X98946135Y-94092785D01*
X99089772Y-94049213D01*
X99222149Y-93978456D01*
X99305157Y-93910333D01*
X157708378Y-93910333D01*
X157708378Y-94279917D01*
X157780480Y-94642399D01*
X157921914Y-94983849D01*
X158127243Y-95291147D01*
X158388578Y-95552482D01*
X158695876Y-95757811D01*
X159037326Y-95899245D01*
X159399808Y-95971347D01*
X159769392Y-95971347D01*
X160131874Y-95899245D01*
X160473324Y-95757811D01*
X160780622Y-95552482D01*
X161041957Y-95291147D01*
X161247286Y-94983849D01*
X161388720Y-94642399D01*
X161460822Y-94279917D01*
X161460822Y-93910333D01*
X161388720Y-93547851D01*
X161247286Y-93206401D01*
X161041957Y-92899103D01*
X160780622Y-92637768D01*
X160473324Y-92432439D01*
X160131874Y-92291005D01*
X159769392Y-92218903D01*
X159399808Y-92218903D01*
X159037326Y-92291005D01*
X158695876Y-92432439D01*
X158388578Y-92637768D01*
X158127243Y-92899103D01*
X157921914Y-93206401D01*
X157780480Y-93547851D01*
X157708378Y-93910333D01*
X99305157Y-93910333D01*
X99338179Y-93883233D01*
X99362041Y-93854157D01*
X102919199Y-90297000D01*
X136645277Y-90297000D01*
X136682700Y-90300686D01*
X136720123Y-90297000D01*
X136720126Y-90297000D01*
X136832078Y-90285974D01*
X136975715Y-90242402D01*
X137108092Y-90171645D01*
X137224122Y-90076422D01*
X137247984Y-90047346D01*
X137608258Y-89687072D01*
X138311700Y-89687072D01*
X138436182Y-89674812D01*
X138555880Y-89638502D01*
X138666194Y-89579537D01*
X138762885Y-89500185D01*
X138842237Y-89403494D01*
X138901202Y-89293180D01*
X138937512Y-89173482D01*
X138949772Y-89049000D01*
X138949772Y-87017000D01*
X138937512Y-86892518D01*
X138901202Y-86772820D01*
X138842237Y-86662506D01*
X138762885Y-86565815D01*
X138666194Y-86486463D01*
X138594470Y-86448125D01*
X162659601Y-86448125D01*
X162659600Y-101742125D01*
X141218420Y-101742125D01*
X141398898Y-101706226D01*
X141587256Y-101628205D01*
X141756774Y-101514937D01*
X141900937Y-101370774D01*
X142014205Y-101201256D01*
X142092226Y-101012898D01*
X142132000Y-100812939D01*
X142132000Y-100609061D01*
X142092226Y-100409102D01*
X142014205Y-100220744D01*
X141900937Y-100051226D01*
X141756774Y-99907063D01*
X141587256Y-99793795D01*
X141398898Y-99715774D01*
X141198939Y-99676000D01*
X140995061Y-99676000D01*
X140795102Y-99715774D01*
X140606744Y-99793795D01*
X140437226Y-99907063D01*
X140347163Y-99997126D01*
X140190256Y-99892285D01*
X140001898Y-99814264D01*
X139955332Y-99805002D01*
X139130984Y-98980654D01*
X139107122Y-98951578D01*
X138991092Y-98856355D01*
X138949772Y-98834269D01*
X138949772Y-98477000D01*
X138937512Y-98352518D01*
X138901202Y-98232820D01*
X138842237Y-98122506D01*
X138762885Y-98025815D01*
X138666194Y-97946463D01*
X138555880Y-97887498D01*
X138436182Y-97851188D01*
X138311700Y-97838928D01*
X137608258Y-97838928D01*
X137250184Y-97480854D01*
X137226322Y-97451778D01*
X137110292Y-97356555D01*
X136977915Y-97285798D01*
X136834278Y-97242226D01*
X136722326Y-97231200D01*
X136722323Y-97231200D01*
X136684900Y-97227514D01*
X136647477Y-97231200D01*
X132652398Y-97231200D01*
X132467143Y-97045945D01*
X132443281Y-97016869D01*
X132327251Y-96921646D01*
X132194874Y-96850889D01*
X132051237Y-96807317D01*
X131939285Y-96796291D01*
X131939282Y-96796291D01*
X131901859Y-96792605D01*
X131864436Y-96796291D01*
X127945769Y-96796291D01*
X127908346Y-96792605D01*
X127870923Y-96796291D01*
X127870921Y-96796291D01*
X127758969Y-96807317D01*
X127615332Y-96850889D01*
X127482955Y-96921646D01*
X127366925Y-97016869D01*
X127343067Y-97045940D01*
X126827448Y-97561560D01*
X126798378Y-97585417D01*
X126774521Y-97614487D01*
X126774520Y-97614488D01*
X126703154Y-97701447D01*
X126632398Y-97833824D01*
X126588826Y-97977461D01*
X126574113Y-98126839D01*
X126577800Y-98164272D01*
X126577799Y-98912570D01*
X125411180Y-100079190D01*
X115387887Y-100079190D01*
X114367850Y-99059154D01*
X114154831Y-98846134D01*
X114130968Y-98817057D01*
X114014938Y-98721834D01*
X113882561Y-98651077D01*
X113738924Y-98607505D01*
X113626972Y-98596479D01*
X113626970Y-98596479D01*
X113589547Y-98592793D01*
X113552124Y-98596479D01*
X106792994Y-98596479D01*
X106718769Y-98522254D01*
X106694907Y-98493178D01*
X106578877Y-98397955D01*
X106446500Y-98327198D01*
X106302863Y-98283626D01*
X106300283Y-98283372D01*
X106247574Y-98230663D01*
X106078056Y-98117395D01*
X105889698Y-98039374D01*
X105689739Y-97999600D01*
X105485861Y-97999600D01*
X105285902Y-98039374D01*
X105097544Y-98117395D01*
X104928026Y-98230663D01*
X104886089Y-98272600D01*
X104340315Y-98272600D01*
X104302899Y-98268915D01*
X104265483Y-98272600D01*
X104265474Y-98272600D01*
X104194199Y-98279620D01*
X104180002Y-98232820D01*
X104121037Y-98122506D01*
X104041685Y-98025815D01*
X103944994Y-97946463D01*
X103834680Y-97887498D01*
X103714982Y-97851188D01*
X103590500Y-97838928D01*
X102447500Y-97838928D01*
X102323018Y-97851188D01*
X102203320Y-97887498D01*
X102093006Y-97946463D01*
X101996315Y-98025815D01*
X101916963Y-98122506D01*
X101857998Y-98232820D01*
X101821688Y-98352518D01*
X101809428Y-98477000D01*
X101809428Y-100168089D01*
X101787220Y-100168089D01*
X101688572Y-100069441D01*
X101688572Y-98477000D01*
X101676312Y-98352518D01*
X101640002Y-98232820D01*
X101581037Y-98122506D01*
X101501685Y-98025815D01*
X101404994Y-97946463D01*
X101294680Y-97887498D01*
X101174982Y-97851188D01*
X101050500Y-97838928D01*
X100347058Y-97838928D01*
X100054784Y-97546654D01*
X100030922Y-97517578D01*
X99914892Y-97422355D01*
X99782515Y-97351598D01*
X99638878Y-97308026D01*
X99526926Y-97297000D01*
X99526923Y-97297000D01*
X99489500Y-97293314D01*
X99452077Y-97297000D01*
X94691631Y-97297000D01*
X93936198Y-96541568D01*
X93900538Y-96455477D01*
X93787270Y-96285959D01*
X93643107Y-96141796D01*
X93473589Y-96028528D01*
X93285231Y-95950507D01*
X93085272Y-95910733D01*
X92881394Y-95910733D01*
X92681435Y-95950507D01*
X92493077Y-96028528D01*
X92323559Y-96141796D01*
X92179396Y-96285959D01*
X92066128Y-96455477D01*
X91988107Y-96643835D01*
X91948333Y-96843794D01*
X91948333Y-97047672D01*
X91988107Y-97247631D01*
X92066128Y-97435989D01*
X92179396Y-97605507D01*
X92323559Y-97749670D01*
X92493077Y-97862938D01*
X92681435Y-97940959D01*
X92881394Y-97980733D01*
X93085272Y-97980733D01*
X93197733Y-97958363D01*
X93810720Y-98571351D01*
X93834578Y-98600422D01*
X93950608Y-98695645D01*
X94082985Y-98766402D01*
X94190783Y-98799102D01*
X94192500Y-99207250D01*
X94351250Y-99366000D01*
X95272000Y-99366000D01*
X95272000Y-99346000D01*
X95526000Y-99346000D01*
X95526000Y-99366000D01*
X96446750Y-99366000D01*
X96605500Y-99207250D01*
X96607125Y-98821000D01*
X96729428Y-98821000D01*
X96729428Y-100509000D01*
X96740567Y-100622100D01*
X96597433Y-100622100D01*
X96608572Y-100509000D01*
X96605500Y-99778750D01*
X96446750Y-99620000D01*
X95526000Y-99620000D01*
X95526000Y-99640000D01*
X95272000Y-99640000D01*
X95272000Y-99620000D01*
X94351250Y-99620000D01*
X94192500Y-99778750D01*
X94189428Y-100509000D01*
X94200567Y-100622100D01*
X80895767Y-100622100D01*
X80929026Y-100541807D01*
X80968800Y-100341848D01*
X80968800Y-100137970D01*
X80929026Y-99938011D01*
X80851005Y-99749653D01*
X80737737Y-99580135D01*
X80593574Y-99435972D01*
X80424056Y-99322704D01*
X80235698Y-99244683D01*
X80035739Y-99204909D01*
X79831861Y-99204909D01*
X79631902Y-99244683D01*
X79443544Y-99322704D01*
X79274026Y-99435972D01*
X79218198Y-99491800D01*
X77303030Y-99491800D01*
X77019284Y-99208054D01*
X76995422Y-99178978D01*
X76879392Y-99083755D01*
X76747015Y-99012998D01*
X76603378Y-98969426D01*
X76491426Y-98958400D01*
X76491423Y-98958400D01*
X76454000Y-98954714D01*
X76416577Y-98958400D01*
X76110423Y-98958400D01*
X76073000Y-98954714D01*
X76035577Y-98958400D01*
X76035574Y-98958400D01*
X76033005Y-98958653D01*
X75703769Y-98958653D01*
X75666346Y-98954967D01*
X75628923Y-98958653D01*
X75628921Y-98958653D01*
X75516969Y-98969679D01*
X75373332Y-99013251D01*
X75240955Y-99084008D01*
X75124925Y-99179231D01*
X75101063Y-99208307D01*
X75071570Y-99237800D01*
X69953610Y-99237800D01*
X69696464Y-98980654D01*
X69672602Y-98951578D01*
X69556572Y-98856355D01*
X69515252Y-98834269D01*
X69515252Y-98477000D01*
X69502992Y-98352518D01*
X69466682Y-98232820D01*
X69407717Y-98122506D01*
X69328365Y-98025815D01*
X69231674Y-97946463D01*
X69121360Y-97887498D01*
X69001662Y-97851188D01*
X68877180Y-97838928D01*
X67734180Y-97838928D01*
X67609698Y-97851188D01*
X67490000Y-97887498D01*
X67379686Y-97946463D01*
X67282995Y-98025815D01*
X67203643Y-98122506D01*
X67144678Y-98232820D01*
X67108368Y-98352518D01*
X67096108Y-98477000D01*
X67096108Y-100074001D01*
X66979812Y-100074001D01*
X66975252Y-100069441D01*
X66975252Y-98477000D01*
X66962992Y-98352518D01*
X66926682Y-98232820D01*
X66867717Y-98122506D01*
X66788365Y-98025815D01*
X66691674Y-97946463D01*
X66581360Y-97887498D01*
X66461662Y-97851188D01*
X66337180Y-97838928D01*
X65194180Y-97838928D01*
X65069698Y-97851188D01*
X64950000Y-97887498D01*
X64839686Y-97946463D01*
X64742995Y-98025815D01*
X64663643Y-98122506D01*
X64604678Y-98232820D01*
X64568368Y-98352518D01*
X64556108Y-98477000D01*
X64556108Y-100100495D01*
X64435252Y-99979639D01*
X64435252Y-98477000D01*
X64422992Y-98352518D01*
X64386682Y-98232820D01*
X64327717Y-98122506D01*
X64248365Y-98025815D01*
X64151674Y-97946463D01*
X64041360Y-97887498D01*
X63921662Y-97851188D01*
X63797180Y-97838928D01*
X62654180Y-97838928D01*
X62529698Y-97851188D01*
X62410000Y-97887498D01*
X62299686Y-97946463D01*
X62202995Y-98025815D01*
X62123643Y-98122506D01*
X62064678Y-98232820D01*
X62028368Y-98352518D01*
X62016108Y-98477000D01*
X62016108Y-100509000D01*
X62028368Y-100633482D01*
X62064678Y-100753180D01*
X62123643Y-100863494D01*
X62202995Y-100960185D01*
X62299686Y-101039537D01*
X62410000Y-101098502D01*
X62529698Y-101134812D01*
X62654180Y-101147072D01*
X63267819Y-101147072D01*
X63862871Y-101742125D01*
X51099601Y-101742125D01*
X51099601Y-100509000D01*
X59476108Y-100509000D01*
X59488368Y-100633482D01*
X59524678Y-100753180D01*
X59583643Y-100863494D01*
X59662995Y-100960185D01*
X59759686Y-101039537D01*
X59870000Y-101098502D01*
X59989698Y-101134812D01*
X60114180Y-101147072D01*
X60399930Y-101144000D01*
X60558680Y-100985250D01*
X60558680Y-99620000D01*
X60812680Y-99620000D01*
X60812680Y-100985250D01*
X60971430Y-101144000D01*
X61257180Y-101147072D01*
X61381662Y-101134812D01*
X61501360Y-101098502D01*
X61611674Y-101039537D01*
X61708365Y-100960185D01*
X61787717Y-100863494D01*
X61846682Y-100753180D01*
X61882992Y-100633482D01*
X61895252Y-100509000D01*
X61892180Y-99778750D01*
X61733430Y-99620000D01*
X60812680Y-99620000D01*
X60558680Y-99620000D01*
X59637930Y-99620000D01*
X59479180Y-99778750D01*
X59476108Y-100509000D01*
X51099601Y-100509000D01*
X51099601Y-98477000D01*
X59476108Y-98477000D01*
X59479180Y-99207250D01*
X59637930Y-99366000D01*
X60558680Y-99366000D01*
X60558680Y-98000750D01*
X60812680Y-98000750D01*
X60812680Y-99366000D01*
X61733430Y-99366000D01*
X61892180Y-99207250D01*
X61895252Y-98477000D01*
X61882992Y-98352518D01*
X61846682Y-98232820D01*
X61787717Y-98122506D01*
X61708365Y-98025815D01*
X61611674Y-97946463D01*
X61501360Y-97887498D01*
X61381662Y-97851188D01*
X61257180Y-97838928D01*
X60971430Y-97842000D01*
X60812680Y-98000750D01*
X60558680Y-98000750D01*
X60399930Y-97842000D01*
X60114180Y-97838928D01*
X59989698Y-97851188D01*
X59870000Y-97887498D01*
X59759686Y-97946463D01*
X59662995Y-98025815D01*
X59583643Y-98122506D01*
X59524678Y-98232820D01*
X59488368Y-98352518D01*
X59476108Y-98477000D01*
X51099601Y-98477000D01*
X51099601Y-93910333D01*
X52298379Y-93910333D01*
X52298379Y-94279917D01*
X52370481Y-94642399D01*
X52511915Y-94983849D01*
X52717244Y-95291147D01*
X52978579Y-95552482D01*
X53285877Y-95757811D01*
X53627327Y-95899245D01*
X53989809Y-95971347D01*
X54359393Y-95971347D01*
X54721875Y-95899245D01*
X55063325Y-95757811D01*
X55370623Y-95552482D01*
X55631958Y-95291147D01*
X55837287Y-94983849D01*
X55978721Y-94642399D01*
X56050823Y-94279917D01*
X56050823Y-93910333D01*
X55978721Y-93547851D01*
X55837287Y-93206401D01*
X55631958Y-92899103D01*
X55370623Y-92637768D01*
X55063325Y-92432439D01*
X54721875Y-92291005D01*
X54359393Y-92218903D01*
X53989809Y-92218903D01*
X53627327Y-92291005D01*
X53285877Y-92432439D01*
X52978579Y-92637768D01*
X52717244Y-92899103D01*
X52511915Y-93206401D01*
X52370481Y-93547851D01*
X52298379Y-93910333D01*
X51099601Y-93910333D01*
X51099601Y-86448125D01*
X59831410Y-86448125D01*
X59759686Y-86486463D01*
X59759686Y-86486463D01*
G37*
X59759686Y-86486463D02*
X59662995Y-86565815D01*
X59583643Y-86662506D01*
X59524678Y-86772820D01*
X59488368Y-86892518D01*
X59476108Y-87017000D01*
X59476108Y-89049000D01*
X59488368Y-89173482D01*
X59524678Y-89293180D01*
X59583643Y-89403494D01*
X59662995Y-89500185D01*
X59759686Y-89579537D01*
X59870000Y-89638502D01*
X59989698Y-89674812D01*
X60114180Y-89687072D01*
X61257180Y-89687072D01*
X61381662Y-89674812D01*
X61501360Y-89638502D01*
X61611674Y-89579537D01*
X61708365Y-89500185D01*
X61787717Y-89403494D01*
X61846682Y-89293180D01*
X61882992Y-89173482D01*
X61895252Y-89049000D01*
X61895252Y-87017000D01*
X61882992Y-86892518D01*
X61846682Y-86772820D01*
X61787717Y-86662506D01*
X61708365Y-86565815D01*
X61611674Y-86486463D01*
X61539950Y-86448125D01*
X62371410Y-86448125D01*
X62299686Y-86486463D01*
X62202995Y-86565815D01*
X62123643Y-86662506D01*
X62064678Y-86772820D01*
X62028368Y-86892518D01*
X62016108Y-87017000D01*
X62016108Y-89049000D01*
X62028368Y-89173482D01*
X62064678Y-89293180D01*
X62123643Y-89403494D01*
X62202995Y-89500185D01*
X62299686Y-89579537D01*
X62410000Y-89638502D01*
X62529698Y-89674812D01*
X62654180Y-89687072D01*
X63797180Y-89687072D01*
X63921662Y-89674812D01*
X64041360Y-89638502D01*
X64151674Y-89579537D01*
X64248365Y-89500185D01*
X64327717Y-89403494D01*
X64386682Y-89293180D01*
X64422992Y-89173482D01*
X64435252Y-89049000D01*
X64435252Y-87017000D01*
X64422992Y-86892518D01*
X64386682Y-86772820D01*
X64327717Y-86662506D01*
X64248365Y-86565815D01*
X64151674Y-86486463D01*
X64079950Y-86448125D01*
X64911410Y-86448125D01*
X64839686Y-86486463D01*
X64742995Y-86565815D01*
X64663643Y-86662506D01*
X64604678Y-86772820D01*
X64568368Y-86892518D01*
X64556108Y-87017000D01*
X64556108Y-89049000D01*
X64568368Y-89173482D01*
X64604678Y-89293180D01*
X64663643Y-89403494D01*
X64742995Y-89500185D01*
X64839686Y-89579537D01*
X64950000Y-89638502D01*
X65069698Y-89674812D01*
X65194180Y-89687072D01*
X66337180Y-89687072D01*
X66461662Y-89674812D01*
X66581360Y-89638502D01*
X66691674Y-89579537D01*
X66788365Y-89500185D01*
X66867717Y-89403494D01*
X66926682Y-89293180D01*
X66962992Y-89173482D01*
X66975252Y-89049000D01*
X66975252Y-87017000D01*
X66962992Y-86892518D01*
X66926682Y-86772820D01*
X66867717Y-86662506D01*
X66788365Y-86565815D01*
X66691674Y-86486463D01*
X66619950Y-86448125D01*
X67451410Y-86448125D01*
X67379686Y-86486463D01*
X67282995Y-86565815D01*
X67203643Y-86662506D01*
X67144678Y-86772820D01*
X67108368Y-86892518D01*
X67096108Y-87017000D01*
X67096108Y-89049000D01*
X67108368Y-89173482D01*
X67144678Y-89293180D01*
X67203643Y-89403494D01*
X67282995Y-89500185D01*
X67379686Y-89579537D01*
X67490000Y-89638502D01*
X67543681Y-89654786D01*
X67543680Y-92906257D01*
X67539994Y-92943680D01*
X67543680Y-92981103D01*
X67543680Y-92981105D01*
X67554706Y-93093057D01*
X67598278Y-93236694D01*
X67598279Y-93236695D01*
X67669035Y-93369072D01*
X67708663Y-93417358D01*
X67764258Y-93485102D01*
X67793334Y-93508964D01*
X69526004Y-95241635D01*
X69489774Y-95329102D01*
X69450000Y-95529061D01*
X69450000Y-95732939D01*
X69489774Y-95932898D01*
X69567795Y-96121256D01*
X69681063Y-96290774D01*
X69825226Y-96434937D01*
X69994744Y-96548205D01*
X70183102Y-96626226D01*
X70383061Y-96666000D01*
X70586939Y-96666000D01*
X70786898Y-96626226D01*
X70887108Y-96584717D01*
X70877173Y-96608703D01*
X70837399Y-96808662D01*
X70837399Y-97012540D01*
X70877173Y-97212499D01*
X70955194Y-97400857D01*
X71068462Y-97570375D01*
X71212625Y-97714538D01*
X71382143Y-97827806D01*
X71570501Y-97905827D01*
X71770460Y-97945601D01*
X71974338Y-97945601D01*
X72174297Y-97905827D01*
X72362655Y-97827806D01*
X72532173Y-97714538D01*
X72676336Y-97570375D01*
X72789604Y-97400857D01*
X72867625Y-97212499D01*
X72904324Y-97028000D01*
X77911289Y-97028000D01*
X77953226Y-97069937D01*
X78122744Y-97183205D01*
X78311102Y-97261226D01*
X78511061Y-97301000D01*
X78714939Y-97301000D01*
X78914898Y-97261226D01*
X79103256Y-97183205D01*
X79272774Y-97069937D01*
X79416937Y-96925774D01*
X79530205Y-96756256D01*
X79608226Y-96567898D01*
X79648000Y-96367939D01*
X79648000Y-96220331D01*
X79708102Y-96245226D01*
X79908061Y-96285000D01*
X80111939Y-96285000D01*
X80311898Y-96245226D01*
X80500256Y-96167205D01*
X80669774Y-96053937D01*
X80813937Y-95909774D01*
X80927205Y-95740256D01*
X81005226Y-95551898D01*
X81045000Y-95351939D01*
X81045000Y-95148061D01*
X81005226Y-94948102D01*
X80927205Y-94759744D01*
X80813937Y-94590226D01*
X80669774Y-94446063D01*
X80500256Y-94332795D01*
X80311898Y-94254774D01*
X80111939Y-94215000D01*
X79908061Y-94215000D01*
X79708102Y-94254774D01*
X79519744Y-94332795D01*
X79350226Y-94446063D01*
X79308289Y-94488000D01*
X74387668Y-94488000D01*
X74199311Y-94299643D01*
X74175449Y-94270567D01*
X74059419Y-94175344D01*
X73927042Y-94104587D01*
X73783405Y-94061015D01*
X73671453Y-94049989D01*
X73671450Y-94049989D01*
X73634027Y-94046303D01*
X73596604Y-94049989D01*
X70489620Y-94049989D01*
X69067680Y-92628050D01*
X69067680Y-89654786D01*
X69121360Y-89638502D01*
X69231674Y-89579537D01*
X69328365Y-89500185D01*
X69407717Y-89403494D01*
X69466682Y-89293180D01*
X69502992Y-89173482D01*
X69515252Y-89049000D01*
X69515252Y-87017000D01*
X69502992Y-86892518D01*
X69466682Y-86772820D01*
X69407717Y-86662506D01*
X69328365Y-86565815D01*
X69231674Y-86486463D01*
X69159950Y-86448125D01*
X94544730Y-86448125D01*
X94473006Y-86486463D01*
X94376315Y-86565815D01*
X94296963Y-86662506D01*
X94237998Y-86772820D01*
X94201688Y-86892518D01*
X94189428Y-87017000D01*
X94189428Y-89049000D01*
X94201688Y-89173482D01*
X94237998Y-89293180D01*
X94296963Y-89403494D01*
X94376315Y-89500185D01*
X94473006Y-89579537D01*
X94583320Y-89638502D01*
X94703018Y-89674812D01*
X94827500Y-89687072D01*
X95970500Y-89687072D01*
X96094982Y-89674812D01*
X96214680Y-89638502D01*
X96324994Y-89579537D01*
X96421685Y-89500185D01*
X96501037Y-89403494D01*
X96560002Y-89293180D01*
X96596312Y-89173482D01*
X96608572Y-89049000D01*
X96608572Y-87017000D01*
X96596312Y-86892518D01*
X96560002Y-86772820D01*
X96501037Y-86662506D01*
X96421685Y-86565815D01*
X96324994Y-86486463D01*
X96253270Y-86448125D01*
X97084730Y-86448125D01*
X97013006Y-86486463D01*
X96916315Y-86565815D01*
X96836963Y-86662506D01*
X96777998Y-86772820D01*
X96741688Y-86892518D01*
X96729428Y-87017000D01*
X96729428Y-89049000D01*
X96741688Y-89173482D01*
X96777998Y-89293180D01*
X96836963Y-89403494D01*
X96916315Y-89500185D01*
X97013006Y-89579537D01*
X97123320Y-89638502D01*
X97243018Y-89674812D01*
X97367500Y-89687072D01*
X98510500Y-89687072D01*
X98634982Y-89674812D01*
X98754680Y-89638502D01*
X98864994Y-89579537D01*
X98961685Y-89500185D01*
X99041037Y-89403494D01*
X99100002Y-89293180D01*
X99136312Y-89173482D01*
X99148572Y-89049000D01*
X99148572Y-87017000D01*
X99136312Y-86892518D01*
X99100002Y-86772820D01*
X99041037Y-86662506D01*
X98961685Y-86565815D01*
X98864994Y-86486463D01*
X98793270Y-86448125D01*
X99624730Y-86448125D01*
X99553006Y-86486463D01*
X99456315Y-86565815D01*
X99376963Y-86662506D01*
X99317998Y-86772820D01*
X99281688Y-86892518D01*
X99269428Y-87017000D01*
X99269428Y-89049000D01*
X99281688Y-89173482D01*
X99317998Y-89293180D01*
X99376963Y-89403494D01*
X99456315Y-89500185D01*
X99553006Y-89579537D01*
X99663320Y-89638502D01*
X99783018Y-89674812D01*
X99907500Y-89687072D01*
X100731797Y-89687072D01*
X98293070Y-92125800D01*
X94303800Y-92125800D01*
X94303800Y-92125461D01*
X94264026Y-91925502D01*
X94186005Y-91737144D01*
X94072737Y-91567626D01*
X94030800Y-91525689D01*
X94030800Y-90004223D01*
X94034486Y-89966800D01*
X94028266Y-89903647D01*
X94019774Y-89817422D01*
X93976202Y-89673785D01*
X93943265Y-89612164D01*
X93905445Y-89541407D01*
X93870657Y-89499019D01*
X93810222Y-89425378D01*
X93781146Y-89401516D01*
X92233884Y-87854254D01*
X92210022Y-87825178D01*
X92093992Y-87729955D01*
X91974707Y-87666196D01*
X91871174Y-87562663D01*
X91701656Y-87449395D01*
X91513298Y-87371374D01*
X91313339Y-87331600D01*
X91109461Y-87331600D01*
X90909502Y-87371374D01*
X90721144Y-87449395D01*
X90551626Y-87562663D01*
X90407463Y-87706826D01*
X90294195Y-87876344D01*
X90216174Y-88064702D01*
X90176400Y-88264661D01*
X90176400Y-88468539D01*
X90216174Y-88668498D01*
X90294195Y-88856856D01*
X90407463Y-89026374D01*
X90551626Y-89170537D01*
X90721144Y-89283805D01*
X90909502Y-89361826D01*
X91109461Y-89401600D01*
X91313339Y-89401600D01*
X91513298Y-89361826D01*
X91564845Y-89340475D01*
X92506801Y-90282431D01*
X92506800Y-91525689D01*
X92464863Y-91567626D01*
X92351595Y-91737144D01*
X92273574Y-91925502D01*
X92233800Y-92125461D01*
X92233800Y-92125800D01*
X83526031Y-92125800D01*
X81469837Y-90069607D01*
X81445975Y-90040531D01*
X81406588Y-90008207D01*
X80929035Y-89530654D01*
X80905173Y-89501578D01*
X80789143Y-89406355D01*
X80656766Y-89335598D01*
X80513129Y-89292026D01*
X80401177Y-89281000D01*
X80401174Y-89281000D01*
X80363751Y-89277314D01*
X80326328Y-89281000D01*
X79479460Y-89281000D01*
X79442037Y-89277314D01*
X79404614Y-89281000D01*
X79404612Y-89281000D01*
X79292660Y-89292026D01*
X79149023Y-89335598D01*
X79016646Y-89406355D01*
X78900616Y-89501578D01*
X78876754Y-89530654D01*
X78643648Y-89763760D01*
X78614578Y-89787617D01*
X78590721Y-89816687D01*
X78590720Y-89816688D01*
X78519354Y-89903647D01*
X78448598Y-90036024D01*
X78405026Y-90179661D01*
X78390313Y-90329039D01*
X78394000Y-90366472D01*
X78393999Y-91876260D01*
X78390313Y-91913684D01*
X78393999Y-91951107D01*
X78393999Y-91951109D01*
X78405025Y-92063061D01*
X78448597Y-92206698D01*
X78472360Y-92251155D01*
X78519354Y-92339076D01*
X78558982Y-92387362D01*
X78614577Y-92455106D01*
X78643653Y-92478968D01*
X78752031Y-92587346D01*
X78775893Y-92616422D01*
X78891923Y-92711645D01*
X79024300Y-92782402D01*
X79167937Y-92825974D01*
X79170517Y-92826228D01*
X79223226Y-92878937D01*
X79392744Y-92992205D01*
X79581102Y-93070226D01*
X79781061Y-93110000D01*
X79984939Y-93110000D01*
X80184898Y-93070226D01*
X80373256Y-92992205D01*
X80542774Y-92878937D01*
X80686937Y-92734774D01*
X80720264Y-92684896D01*
X81889531Y-93854163D01*
X81913388Y-93883233D01*
X81942458Y-93907090D01*
X82029417Y-93978456D01*
X82100174Y-94016276D01*
X82161795Y-94049213D01*
X82305432Y-94092785D01*
X82417384Y-94103811D01*
X82417387Y-94103811D01*
X82454810Y-94107497D01*
X82492233Y-94103811D01*
X98759334Y-94103811D01*
X98796757Y-94107497D01*
X98834180Y-94103811D01*
X98834183Y-94103811D01*
X98946135Y-94092785D01*
X99089772Y-94049213D01*
X99222149Y-93978456D01*
X99305157Y-93910333D01*
X157708378Y-93910333D01*
X157708378Y-94279917D01*
X157780480Y-94642399D01*
X157921914Y-94983849D01*
X158127243Y-95291147D01*
X158388578Y-95552482D01*
X158695876Y-95757811D01*
X159037326Y-95899245D01*
X159399808Y-95971347D01*
X159769392Y-95971347D01*
X160131874Y-95899245D01*
X160473324Y-95757811D01*
X160780622Y-95552482D01*
X161041957Y-95291147D01*
X161247286Y-94983849D01*
X161388720Y-94642399D01*
X161460822Y-94279917D01*
X161460822Y-93910333D01*
X161388720Y-93547851D01*
X161247286Y-93206401D01*
X161041957Y-92899103D01*
X160780622Y-92637768D01*
X160473324Y-92432439D01*
X160131874Y-92291005D01*
X159769392Y-92218903D01*
X159399808Y-92218903D01*
X159037326Y-92291005D01*
X158695876Y-92432439D01*
X158388578Y-92637768D01*
X158127243Y-92899103D01*
X157921914Y-93206401D01*
X157780480Y-93547851D01*
X157708378Y-93910333D01*
X99305157Y-93910333D01*
X99338179Y-93883233D01*
X99362041Y-93854157D01*
X102919199Y-90297000D01*
X136645277Y-90297000D01*
X136682700Y-90300686D01*
X136720123Y-90297000D01*
X136720126Y-90297000D01*
X136832078Y-90285974D01*
X136975715Y-90242402D01*
X137108092Y-90171645D01*
X137224122Y-90076422D01*
X137247984Y-90047346D01*
X137608258Y-89687072D01*
X138311700Y-89687072D01*
X138436182Y-89674812D01*
X138555880Y-89638502D01*
X138666194Y-89579537D01*
X138762885Y-89500185D01*
X138842237Y-89403494D01*
X138901202Y-89293180D01*
X138937512Y-89173482D01*
X138949772Y-89049000D01*
X138949772Y-87017000D01*
X138937512Y-86892518D01*
X138901202Y-86772820D01*
X138842237Y-86662506D01*
X138762885Y-86565815D01*
X138666194Y-86486463D01*
X138594470Y-86448125D01*
X162659601Y-86448125D01*
X162659600Y-101742125D01*
X141218420Y-101742125D01*
X141398898Y-101706226D01*
X141587256Y-101628205D01*
X141756774Y-101514937D01*
X141900937Y-101370774D01*
X142014205Y-101201256D01*
X142092226Y-101012898D01*
X142132000Y-100812939D01*
X142132000Y-100609061D01*
X142092226Y-100409102D01*
X142014205Y-100220744D01*
X141900937Y-100051226D01*
X141756774Y-99907063D01*
X141587256Y-99793795D01*
X141398898Y-99715774D01*
X141198939Y-99676000D01*
X140995061Y-99676000D01*
X140795102Y-99715774D01*
X140606744Y-99793795D01*
X140437226Y-99907063D01*
X140347163Y-99997126D01*
X140190256Y-99892285D01*
X140001898Y-99814264D01*
X139955332Y-99805002D01*
X139130984Y-98980654D01*
X139107122Y-98951578D01*
X138991092Y-98856355D01*
X138949772Y-98834269D01*
X138949772Y-98477000D01*
X138937512Y-98352518D01*
X138901202Y-98232820D01*
X138842237Y-98122506D01*
X138762885Y-98025815D01*
X138666194Y-97946463D01*
X138555880Y-97887498D01*
X138436182Y-97851188D01*
X138311700Y-97838928D01*
X137608258Y-97838928D01*
X137250184Y-97480854D01*
X137226322Y-97451778D01*
X137110292Y-97356555D01*
X136977915Y-97285798D01*
X136834278Y-97242226D01*
X136722326Y-97231200D01*
X136722323Y-97231200D01*
X136684900Y-97227514D01*
X136647477Y-97231200D01*
X132652398Y-97231200D01*
X132467143Y-97045945D01*
X132443281Y-97016869D01*
X132327251Y-96921646D01*
X132194874Y-96850889D01*
X132051237Y-96807317D01*
X131939285Y-96796291D01*
X131939282Y-96796291D01*
X131901859Y-96792605D01*
X131864436Y-96796291D01*
X127945769Y-96796291D01*
X127908346Y-96792605D01*
X127870923Y-96796291D01*
X127870921Y-96796291D01*
X127758969Y-96807317D01*
X127615332Y-96850889D01*
X127482955Y-96921646D01*
X127366925Y-97016869D01*
X127343067Y-97045940D01*
X126827448Y-97561560D01*
X126798378Y-97585417D01*
X126774521Y-97614487D01*
X126774520Y-97614488D01*
X126703154Y-97701447D01*
X126632398Y-97833824D01*
X126588826Y-97977461D01*
X126574113Y-98126839D01*
X126577800Y-98164272D01*
X126577799Y-98912570D01*
X125411180Y-100079190D01*
X115387887Y-100079190D01*
X114367850Y-99059154D01*
X114154831Y-98846134D01*
X114130968Y-98817057D01*
X114014938Y-98721834D01*
X113882561Y-98651077D01*
X113738924Y-98607505D01*
X113626972Y-98596479D01*
X113626970Y-98596479D01*
X113589547Y-98592793D01*
X113552124Y-98596479D01*
X106792994Y-98596479D01*
X106718769Y-98522254D01*
X106694907Y-98493178D01*
X106578877Y-98397955D01*
X106446500Y-98327198D01*
X106302863Y-98283626D01*
X106300283Y-98283372D01*
X106247574Y-98230663D01*
X106078056Y-98117395D01*
X105889698Y-98039374D01*
X105689739Y-97999600D01*
X105485861Y-97999600D01*
X105285902Y-98039374D01*
X105097544Y-98117395D01*
X104928026Y-98230663D01*
X104886089Y-98272600D01*
X104340315Y-98272600D01*
X104302899Y-98268915D01*
X104265483Y-98272600D01*
X104265474Y-98272600D01*
X104194199Y-98279620D01*
X104180002Y-98232820D01*
X104121037Y-98122506D01*
X104041685Y-98025815D01*
X103944994Y-97946463D01*
X103834680Y-97887498D01*
X103714982Y-97851188D01*
X103590500Y-97838928D01*
X102447500Y-97838928D01*
X102323018Y-97851188D01*
X102203320Y-97887498D01*
X102093006Y-97946463D01*
X101996315Y-98025815D01*
X101916963Y-98122506D01*
X101857998Y-98232820D01*
X101821688Y-98352518D01*
X101809428Y-98477000D01*
X101809428Y-100168089D01*
X101787220Y-100168089D01*
X101688572Y-100069441D01*
X101688572Y-98477000D01*
X101676312Y-98352518D01*
X101640002Y-98232820D01*
X101581037Y-98122506D01*
X101501685Y-98025815D01*
X101404994Y-97946463D01*
X101294680Y-97887498D01*
X101174982Y-97851188D01*
X101050500Y-97838928D01*
X100347058Y-97838928D01*
X100054784Y-97546654D01*
X100030922Y-97517578D01*
X99914892Y-97422355D01*
X99782515Y-97351598D01*
X99638878Y-97308026D01*
X99526926Y-97297000D01*
X99526923Y-97297000D01*
X99489500Y-97293314D01*
X99452077Y-97297000D01*
X94691631Y-97297000D01*
X93936198Y-96541568D01*
X93900538Y-96455477D01*
X93787270Y-96285959D01*
X93643107Y-96141796D01*
X93473589Y-96028528D01*
X93285231Y-95950507D01*
X93085272Y-95910733D01*
X92881394Y-95910733D01*
X92681435Y-95950507D01*
X92493077Y-96028528D01*
X92323559Y-96141796D01*
X92179396Y-96285959D01*
X92066128Y-96455477D01*
X91988107Y-96643835D01*
X91948333Y-96843794D01*
X91948333Y-97047672D01*
X91988107Y-97247631D01*
X92066128Y-97435989D01*
X92179396Y-97605507D01*
X92323559Y-97749670D01*
X92493077Y-97862938D01*
X92681435Y-97940959D01*
X92881394Y-97980733D01*
X93085272Y-97980733D01*
X93197733Y-97958363D01*
X93810720Y-98571351D01*
X93834578Y-98600422D01*
X93950608Y-98695645D01*
X94082985Y-98766402D01*
X94190783Y-98799102D01*
X94192500Y-99207250D01*
X94351250Y-99366000D01*
X95272000Y-99366000D01*
X95272000Y-99346000D01*
X95526000Y-99346000D01*
X95526000Y-99366000D01*
X96446750Y-99366000D01*
X96605500Y-99207250D01*
X96607125Y-98821000D01*
X96729428Y-98821000D01*
X96729428Y-100509000D01*
X96740567Y-100622100D01*
X96597433Y-100622100D01*
X96608572Y-100509000D01*
X96605500Y-99778750D01*
X96446750Y-99620000D01*
X95526000Y-99620000D01*
X95526000Y-99640000D01*
X95272000Y-99640000D01*
X95272000Y-99620000D01*
X94351250Y-99620000D01*
X94192500Y-99778750D01*
X94189428Y-100509000D01*
X94200567Y-100622100D01*
X80895767Y-100622100D01*
X80929026Y-100541807D01*
X80968800Y-100341848D01*
X80968800Y-100137970D01*
X80929026Y-99938011D01*
X80851005Y-99749653D01*
X80737737Y-99580135D01*
X80593574Y-99435972D01*
X80424056Y-99322704D01*
X80235698Y-99244683D01*
X80035739Y-99204909D01*
X79831861Y-99204909D01*
X79631902Y-99244683D01*
X79443544Y-99322704D01*
X79274026Y-99435972D01*
X79218198Y-99491800D01*
X77303030Y-99491800D01*
X77019284Y-99208054D01*
X76995422Y-99178978D01*
X76879392Y-99083755D01*
X76747015Y-99012998D01*
X76603378Y-98969426D01*
X76491426Y-98958400D01*
X76491423Y-98958400D01*
X76454000Y-98954714D01*
X76416577Y-98958400D01*
X76110423Y-98958400D01*
X76073000Y-98954714D01*
X76035577Y-98958400D01*
X76035574Y-98958400D01*
X76033005Y-98958653D01*
X75703769Y-98958653D01*
X75666346Y-98954967D01*
X75628923Y-98958653D01*
X75628921Y-98958653D01*
X75516969Y-98969679D01*
X75373332Y-99013251D01*
X75240955Y-99084008D01*
X75124925Y-99179231D01*
X75101063Y-99208307D01*
X75071570Y-99237800D01*
X69953610Y-99237800D01*
X69696464Y-98980654D01*
X69672602Y-98951578D01*
X69556572Y-98856355D01*
X69515252Y-98834269D01*
X69515252Y-98477000D01*
X69502992Y-98352518D01*
X69466682Y-98232820D01*
X69407717Y-98122506D01*
X69328365Y-98025815D01*
X69231674Y-97946463D01*
X69121360Y-97887498D01*
X69001662Y-97851188D01*
X68877180Y-97838928D01*
X67734180Y-97838928D01*
X67609698Y-97851188D01*
X67490000Y-97887498D01*
X67379686Y-97946463D01*
X67282995Y-98025815D01*
X67203643Y-98122506D01*
X67144678Y-98232820D01*
X67108368Y-98352518D01*
X67096108Y-98477000D01*
X67096108Y-100074001D01*
X66979812Y-100074001D01*
X66975252Y-100069441D01*
X66975252Y-98477000D01*
X66962992Y-98352518D01*
X66926682Y-98232820D01*
X66867717Y-98122506D01*
X66788365Y-98025815D01*
X66691674Y-97946463D01*
X66581360Y-97887498D01*
X66461662Y-97851188D01*
X66337180Y-97838928D01*
X65194180Y-97838928D01*
X65069698Y-97851188D01*
X64950000Y-97887498D01*
X64839686Y-97946463D01*
X64742995Y-98025815D01*
X64663643Y-98122506D01*
X64604678Y-98232820D01*
X64568368Y-98352518D01*
X64556108Y-98477000D01*
X64556108Y-100100495D01*
X64435252Y-99979639D01*
X64435252Y-98477000D01*
X64422992Y-98352518D01*
X64386682Y-98232820D01*
X64327717Y-98122506D01*
X64248365Y-98025815D01*
X64151674Y-97946463D01*
X64041360Y-97887498D01*
X63921662Y-97851188D01*
X63797180Y-97838928D01*
X62654180Y-97838928D01*
X62529698Y-97851188D01*
X62410000Y-97887498D01*
X62299686Y-97946463D01*
X62202995Y-98025815D01*
X62123643Y-98122506D01*
X62064678Y-98232820D01*
X62028368Y-98352518D01*
X62016108Y-98477000D01*
X62016108Y-100509000D01*
X62028368Y-100633482D01*
X62064678Y-100753180D01*
X62123643Y-100863494D01*
X62202995Y-100960185D01*
X62299686Y-101039537D01*
X62410000Y-101098502D01*
X62529698Y-101134812D01*
X62654180Y-101147072D01*
X63267819Y-101147072D01*
X63862871Y-101742125D01*
X51099601Y-101742125D01*
X51099601Y-100509000D01*
X59476108Y-100509000D01*
X59488368Y-100633482D01*
X59524678Y-100753180D01*
X59583643Y-100863494D01*
X59662995Y-100960185D01*
X59759686Y-101039537D01*
X59870000Y-101098502D01*
X59989698Y-101134812D01*
X60114180Y-101147072D01*
X60399930Y-101144000D01*
X60558680Y-100985250D01*
X60558680Y-99620000D01*
X60812680Y-99620000D01*
X60812680Y-100985250D01*
X60971430Y-101144000D01*
X61257180Y-101147072D01*
X61381662Y-101134812D01*
X61501360Y-101098502D01*
X61611674Y-101039537D01*
X61708365Y-100960185D01*
X61787717Y-100863494D01*
X61846682Y-100753180D01*
X61882992Y-100633482D01*
X61895252Y-100509000D01*
X61892180Y-99778750D01*
X61733430Y-99620000D01*
X60812680Y-99620000D01*
X60558680Y-99620000D01*
X59637930Y-99620000D01*
X59479180Y-99778750D01*
X59476108Y-100509000D01*
X51099601Y-100509000D01*
X51099601Y-98477000D01*
X59476108Y-98477000D01*
X59479180Y-99207250D01*
X59637930Y-99366000D01*
X60558680Y-99366000D01*
X60558680Y-98000750D01*
X60812680Y-98000750D01*
X60812680Y-99366000D01*
X61733430Y-99366000D01*
X61892180Y-99207250D01*
X61895252Y-98477000D01*
X61882992Y-98352518D01*
X61846682Y-98232820D01*
X61787717Y-98122506D01*
X61708365Y-98025815D01*
X61611674Y-97946463D01*
X61501360Y-97887498D01*
X61381662Y-97851188D01*
X61257180Y-97838928D01*
X60971430Y-97842000D01*
X60812680Y-98000750D01*
X60558680Y-98000750D01*
X60399930Y-97842000D01*
X60114180Y-97838928D01*
X59989698Y-97851188D01*
X59870000Y-97887498D01*
X59759686Y-97946463D01*
X59662995Y-98025815D01*
X59583643Y-98122506D01*
X59524678Y-98232820D01*
X59488368Y-98352518D01*
X59476108Y-98477000D01*
X51099601Y-98477000D01*
X51099601Y-93910333D01*
X52298379Y-93910333D01*
X52298379Y-94279917D01*
X52370481Y-94642399D01*
X52511915Y-94983849D01*
X52717244Y-95291147D01*
X52978579Y-95552482D01*
X53285877Y-95757811D01*
X53627327Y-95899245D01*
X53989809Y-95971347D01*
X54359393Y-95971347D01*
X54721875Y-95899245D01*
X55063325Y-95757811D01*
X55370623Y-95552482D01*
X55631958Y-95291147D01*
X55837287Y-94983849D01*
X55978721Y-94642399D01*
X56050823Y-94279917D01*
X56050823Y-93910333D01*
X55978721Y-93547851D01*
X55837287Y-93206401D01*
X55631958Y-92899103D01*
X55370623Y-92637768D01*
X55063325Y-92432439D01*
X54721875Y-92291005D01*
X54359393Y-92218903D01*
X53989809Y-92218903D01*
X53627327Y-92291005D01*
X53285877Y-92432439D01*
X52978579Y-92637768D01*
X52717244Y-92899103D01*
X52511915Y-93206401D01*
X52370481Y-93547851D01*
X52298379Y-93910333D01*
X51099601Y-93910333D01*
X51099601Y-86448125D01*
X59831410Y-86448125D01*
X59759686Y-86486463D01*
G36*
X131450628Y-99006360D02*
G01*
X131450628Y-100509000D01*
X131453011Y-100533200D01*
X131327389Y-100533200D01*
X131329772Y-100509000D01*
X131326700Y-99778750D01*
X131167950Y-99620000D01*
X130247200Y-99620000D01*
X130247200Y-99640000D01*
X129993200Y-99640000D01*
X129993200Y-99620000D01*
X129072450Y-99620000D01*
X128913700Y-99778750D01*
X128910628Y-100509000D01*
X128913011Y-100533200D01*
X127112431Y-100533200D01*
X127852152Y-99793479D01*
X127881221Y-99769623D01*
X127921409Y-99720654D01*
X127976444Y-99653594D01*
X128033741Y-99546398D01*
X128047201Y-99521216D01*
X128050361Y-99510800D01*
X128168739Y-99510800D01*
X128368698Y-99471026D01*
X128557056Y-99393005D01*
X128726574Y-99279737D01*
X128870737Y-99135574D01*
X128913132Y-99072126D01*
X128913700Y-99207250D01*
X129072450Y-99366000D01*
X129993200Y-99366000D01*
X129993200Y-99346000D01*
X130247200Y-99346000D01*
X130247200Y-99366000D01*
X131167950Y-99366000D01*
X131326700Y-99207250D01*
X131327987Y-98901301D01*
X131345569Y-98901301D01*
X131450628Y-99006360D01*
X131450628Y-99006360D01*
G37*
X131450628Y-99006360D02*
X131450628Y-100509000D01*
X131453011Y-100533200D01*
X131327389Y-100533200D01*
X131329772Y-100509000D01*
X131326700Y-99778750D01*
X131167950Y-99620000D01*
X130247200Y-99620000D01*
X130247200Y-99640000D01*
X129993200Y-99640000D01*
X129993200Y-99620000D01*
X129072450Y-99620000D01*
X128913700Y-99778750D01*
X128910628Y-100509000D01*
X128913011Y-100533200D01*
X127112431Y-100533200D01*
X127852152Y-99793479D01*
X127881221Y-99769623D01*
X127921409Y-99720654D01*
X127976444Y-99653594D01*
X128033741Y-99546398D01*
X128047201Y-99521216D01*
X128050361Y-99510800D01*
X128168739Y-99510800D01*
X128368698Y-99471026D01*
X128557056Y-99393005D01*
X128726574Y-99279737D01*
X128870737Y-99135574D01*
X128913132Y-99072126D01*
X128913700Y-99207250D01*
X129072450Y-99366000D01*
X129993200Y-99366000D01*
X129993200Y-99346000D01*
X130247200Y-99346000D01*
X130247200Y-99366000D01*
X131167950Y-99366000D01*
X131326700Y-99207250D01*
X131327987Y-98901301D01*
X131345569Y-98901301D01*
X131450628Y-99006360D01*
G36*
X129194206Y-86486463D02*
G01*
X129097515Y-86565815D01*
X129018163Y-86662506D01*
X128959198Y-86772820D01*
X128922888Y-86892518D01*
X128910628Y-87017000D01*
X128910628Y-88773000D01*
X104228572Y-88773000D01*
X104228572Y-87017000D01*
X104216312Y-86892518D01*
X104180002Y-86772820D01*
X104121037Y-86662506D01*
X104041685Y-86565815D01*
X103944994Y-86486463D01*
X103873270Y-86448125D01*
X129265930Y-86448125D01*
X129194206Y-86486463D01*
X129194206Y-86486463D01*
G37*
X129194206Y-86486463D02*
X129097515Y-86565815D01*
X129018163Y-86662506D01*
X128959198Y-86772820D01*
X128922888Y-86892518D01*
X128910628Y-87017000D01*
X128910628Y-88773000D01*
X104228572Y-88773000D01*
X104228572Y-87017000D01*
X104216312Y-86892518D01*
X104180002Y-86772820D01*
X104121037Y-86662506D01*
X104041685Y-86565815D01*
X103944994Y-86486463D01*
X103873270Y-86448125D01*
X129265930Y-86448125D01*
X129194206Y-86486463D01*
M02*
