M48
; DRILL file {KiCad (5.1.4)-1} date 1/28/2020 11:55:44 AM
; FORMAT={-:-/ absolute / inch / decimal}
; #@! TF.CreationDate,2020-01-28T11:55:44-05:00
; #@! TF.GenerationSoftware,Kicad,Pcbnew,(5.1.4)-1
; #@! TF.FileFunction,Plated,1,2,PTH
FMAT,2
INCH
T1C0.0157
%
G90
G05
T1
X2.14Y-3.895
X2.145Y-3.51
X2.29Y-3.7
X2.3Y-3.43
X2.435Y-3.985
X2.5175Y-3.6925
X2.775Y-3.765
X2.775Y-3.84
X2.78Y-3.425
X2.8296Y-3.8154
X2.84Y-3.5625
X2.8852Y-3.7614
X2.995Y-3.705
X2.9965Y-3.9546
X2.997Y-3.994
X3.05Y-3.485
X3.086Y-3.9
X3.095Y-3.79
X3.145Y-3.625
X3.145Y-3.5736
X3.147Y-3.9465
X3.1475Y-3.685
X3.15Y-3.75
X3.316Y-3.868
X3.325Y-3.4725
X3.355Y-3.71
X3.4875Y-3.9075
X3.5Y-3.57
X3.5Y-3.805
X3.5025Y-3.7075
X3.591Y-3.479
X3.634Y-3.428
X3.6608Y-3.8168
X3.672Y-3.631
X3.676Y-3.915
X3.875Y-3.596
X3.8925Y-3.805
X3.948Y-3.717
X4.157Y-3.899
X4.171Y-3.432
X4.1861Y-3.9589
X4.208Y-3.882
X4.295Y-3.852
X4.627Y-3.656
X4.93Y-3.903
X4.974Y-3.565
X4.98Y-3.407
X5.031Y-3.947
X5.042Y-3.877
X5.167Y-3.665
X5.2752Y-3.9798
X5.335Y-3.655
X5.5Y-3.9689
X5.555Y-3.965
X5.72Y-3.985
X5.74Y-3.42
X5.86Y-3.695
X5.88Y-3.565
X6.095Y-3.695
X6.29Y-3.91
X6.295Y-3.5
T0
M30
