G04 #@! TF.GenerationSoftware,KiCad,Pcbnew,(5.1.4)-1*
G04 #@! TF.CreationDate,2020-01-28T11:40:39-05:00*
G04 #@! TF.ProjectId,PDL_1920,50444c5f-3139-4323-902e-6b696361645f,rev?*
G04 #@! TF.SameCoordinates,Original*
G04 #@! TF.FileFunction,Copper,L3,Inr*
G04 #@! TF.FilePolarity,Positive*
%FSLAX46Y46*%
G04 Gerber Fmt 4.6, Leading zero omitted, Abs format (unit mm)*
G04 Created by KiCad (PCBNEW (5.1.4)-1) date 2020-01-28 11:40:39*
%MOMM*%
%LPD*%
G04 APERTURE LIST*
%ADD10R,0.740000X2.920000*%
%ADD11O,1.700000X1.700000*%
%ADD12R,1.700000X1.700000*%
%ADD13C,0.508000*%
%ADD14C,0.254000*%
%ADD15C,0.508000*%
%ADD16C,0.381000*%
G04 APERTURE END LIST*
D10*
X140335000Y-128744200D03*
X140335000Y-125314200D03*
X141605000Y-128744200D03*
X141605000Y-125314200D03*
X142875000Y-128744200D03*
X142875000Y-125314200D03*
X144145000Y-128744200D03*
X144145000Y-125314200D03*
X145415000Y-128744200D03*
X145415000Y-125314200D03*
X146685000Y-128744200D03*
X146685000Y-125314200D03*
X147955000Y-128744200D03*
X147955000Y-125314200D03*
X149225000Y-128744200D03*
X149225000Y-125314200D03*
X150495000Y-128744200D03*
X150495000Y-125314200D03*
X151765000Y-128744200D03*
X151765000Y-125314200D03*
X153035000Y-128744200D03*
X153035000Y-125314200D03*
X154305000Y-128744200D03*
X154305000Y-125314200D03*
X155575000Y-128744200D03*
X155575000Y-125314200D03*
X156845000Y-128744200D03*
X156845000Y-125314200D03*
X158115000Y-128744200D03*
X158115000Y-125314200D03*
X159385000Y-128744200D03*
X159385000Y-125314200D03*
X160655000Y-128744200D03*
X160655000Y-125314200D03*
X161925000Y-128744200D03*
X161925000Y-125314200D03*
X163195000Y-128744200D03*
X163195000Y-125314200D03*
X164465000Y-128744200D03*
X164465000Y-125314200D03*
D11*
X118110000Y-133350000D03*
X118110000Y-130810000D03*
X118110000Y-128270000D03*
X118110000Y-125730000D03*
X118110000Y-123190000D03*
D12*
X118110000Y-120650000D03*
D13*
X176491900Y-128663700D03*
X167106600Y-122364500D03*
X170434000Y-120142000D03*
X176568100Y-119367300D03*
X144526000Y-150114000D03*
X147066000Y-152400000D03*
X151993600Y-133350000D03*
X150622000Y-131953000D03*
X163576000Y-140335000D03*
X171577000Y-139954000D03*
X171831000Y-135128000D03*
X148590000Y-96520000D03*
X180213000Y-139827000D03*
X188683900Y-133223000D03*
X177292000Y-133096000D03*
X164719000Y-135509000D03*
X159766000Y-139700000D03*
X177673000Y-150622000D03*
X159893000Y-149606000D03*
X165354000Y-159512000D03*
X156210000Y-163703000D03*
X144145000Y-158242000D03*
X131445000Y-153670000D03*
X119888000Y-138684000D03*
X142113000Y-134366000D03*
X122859800Y-127127000D03*
X126746000Y-116205000D03*
X134797800Y-103035100D03*
X151511000Y-113792000D03*
X174244000Y-103505000D03*
X170688000Y-94869000D03*
X148704300Y-93726000D03*
X160528000Y-102235000D03*
X125349000Y-107061000D03*
X135382000Y-116967000D03*
X121285000Y-120777000D03*
X137033000Y-95377000D03*
X175260000Y-110871000D03*
X138049000Y-123952000D03*
X151130000Y-161290000D03*
X155829000Y-120015000D03*
X167513000Y-93345000D03*
X158369000Y-91948000D03*
X147955000Y-100203000D03*
X148717000Y-109855000D03*
X141732000Y-109982000D03*
X153924000Y-145796000D03*
X134962900Y-140563600D03*
X128524000Y-132740400D03*
X141693900Y-150482300D03*
X137756900Y-120827800D03*
X180517800Y-137007600D03*
X180047900Y-120599200D03*
X188201300Y-120281700D03*
X183349900Y-117538500D03*
X176580800Y-116751100D03*
X182156100Y-116128800D03*
X166509700Y-97510600D03*
X163741100Y-101409500D03*
X141732000Y-102717600D03*
X143471900Y-96227900D03*
X142582900Y-90982800D03*
X139966700Y-92417900D03*
X128016000Y-128155700D03*
X127584200Y-126111000D03*
X125476000Y-135597900D03*
X124675900Y-151193500D03*
X136982200Y-160680400D03*
X147199900Y-160610000D03*
X154127200Y-159639000D03*
X165646100Y-147345400D03*
X167182800Y-139026900D03*
X171157900Y-130378200D03*
X182372000Y-109537500D03*
X129171700Y-121183400D03*
X134632700Y-132740400D03*
X129832100Y-135572500D03*
X128714500Y-143510000D03*
X145300700Y-119951500D03*
X160388300Y-112547400D03*
X164160200Y-116586000D03*
X154381200Y-100342700D03*
X155295600Y-149644100D03*
X150799800Y-143217900D03*
X143814800Y-143459200D03*
X152603200Y-154279600D03*
X168656000Y-128016000D03*
X155067002Y-97662998D03*
X168910000Y-127508000D03*
X155727410Y-99059990D03*
X165862000Y-144780004D03*
X171208705Y-128003295D03*
X165100000Y-161544000D03*
X147040590Y-135356610D03*
X154946410Y-138677590D03*
X159639000Y-135890000D03*
X176402998Y-125730004D03*
X136385300Y-102920800D03*
X158508700Y-120561100D03*
X156664502Y-109072546D03*
X143764000Y-116078000D03*
X147842041Y-137681198D03*
X139954000Y-140538232D03*
X133026150Y-122040650D03*
X167894000Y-118618000D03*
X169926000Y-118618002D03*
X177799996Y-135890000D03*
X153796994Y-141986000D03*
X127076200Y-135559800D03*
X135060679Y-122741677D03*
X154431996Y-141224000D03*
X127000000Y-143510000D03*
X152654000Y-122428000D03*
X154686000Y-122428000D03*
X135060678Y-123503678D03*
X130047995Y-127000005D03*
X138684000Y-143256000D03*
X136519753Y-149987044D03*
X137718810Y-152069800D03*
X148844000Y-116078000D03*
X149605988Y-134874000D03*
X147574000Y-116078000D03*
X147854236Y-137020899D03*
X142494004Y-118872000D03*
X151130000Y-134874000D03*
X141224000Y-116078000D03*
X147065998Y-139192000D03*
X139954000Y-116078000D03*
X147840588Y-139194513D03*
X151130000Y-141986000D03*
X143764000Y-102616000D03*
X147828000Y-141477996D03*
X142624822Y-101879410D03*
X138430000Y-107696000D03*
X147845462Y-140733430D03*
X156209991Y-135178821D03*
X152908028Y-134899372D03*
X120599179Y-128524000D03*
X153931177Y-134901122D03*
X164846000Y-111506000D03*
X168910000Y-97536000D03*
D14*
X150495000Y-129807122D02*
X150495000Y-127744200D01*
X149412112Y-130890010D02*
X150495000Y-129807122D01*
X146497888Y-130890010D02*
X149412112Y-130890010D01*
X145415000Y-129807122D02*
X146497888Y-130890010D01*
X145415000Y-127744200D02*
X145415000Y-129807122D01*
X146091479Y-123574799D02*
X145415000Y-124251278D01*
X147278521Y-123574799D02*
X146091479Y-123574799D01*
X147955000Y-124251278D02*
X147278521Y-123574799D01*
X147955000Y-126314200D02*
X147955000Y-124251278D01*
X141605000Y-124251278D02*
X141605000Y-126314200D01*
X142281479Y-123574799D02*
X141605000Y-124251278D01*
X144738521Y-123574799D02*
X142281479Y-123574799D01*
X145415000Y-124251278D02*
X144738521Y-123574799D01*
X145415000Y-126314200D02*
X145415000Y-124251278D01*
X167893989Y-127253989D02*
X168656000Y-128016000D01*
X167893990Y-120383290D02*
X167893989Y-127253989D01*
X166458900Y-118948200D02*
X167893990Y-120383290D01*
X165049200Y-118948200D02*
X166458900Y-118948200D01*
X155067002Y-99390202D02*
X155321000Y-99644200D01*
X155067002Y-97662998D02*
X155067002Y-99390202D01*
X155321000Y-99644200D02*
X155321001Y-106899151D01*
X155321001Y-106899151D02*
X161404300Y-112982450D01*
X161404300Y-112982450D02*
X161404300Y-115303300D01*
X161404300Y-115303300D02*
X165049200Y-118948200D01*
X168300400Y-126898400D02*
X168910000Y-127508000D01*
X168300400Y-120214950D02*
X168300400Y-126898400D01*
X155727410Y-106730810D02*
X161848810Y-112852210D01*
X155727410Y-99059990D02*
X155727410Y-106730810D01*
X161848810Y-112852210D02*
X161848810Y-115125510D01*
X161848810Y-115125510D02*
X165265090Y-118541790D01*
X165265090Y-118541790D02*
X166627240Y-118541790D01*
X166627240Y-118541790D02*
X168300400Y-120214950D01*
D15*
X179578000Y-136372590D02*
X171462704Y-128257294D01*
X177800000Y-142240000D02*
X179578000Y-140462000D01*
X168402004Y-142240000D02*
X177800000Y-142240000D01*
X179578000Y-140462000D02*
X179578000Y-136372590D01*
X171462704Y-128257294D02*
X171208705Y-128003295D01*
X165862000Y-144780004D02*
X168402004Y-142240000D01*
D14*
X140313210Y-140538232D02*
X139954000Y-140538232D01*
X147588042Y-137935197D02*
X147335084Y-137935197D01*
X147335084Y-137935197D02*
X144732049Y-140538232D01*
X144732049Y-140538232D02*
X140313210Y-140538232D01*
X147842041Y-137681198D02*
X147588042Y-137935197D01*
X139594790Y-140538232D02*
X139954000Y-140538232D01*
X142443178Y-117398822D02*
X137667978Y-117398822D01*
X143764000Y-116078000D02*
X142443178Y-117398822D01*
X137667978Y-117398822D02*
X133026150Y-122040650D01*
X132613457Y-122453343D02*
X132613457Y-133736957D01*
X132613457Y-133736957D02*
X139414732Y-140538232D01*
X139414732Y-140538232D02*
X139594790Y-140538232D01*
X133026150Y-122040650D02*
X132613457Y-122453343D01*
D16*
X167894000Y-118618000D02*
X169925998Y-118618000D01*
X169925998Y-118618000D02*
X169926000Y-118618002D01*
D15*
X177799996Y-135889996D02*
X177799996Y-135890000D01*
X170688000Y-128778000D02*
X177799996Y-135889996D01*
X164465000Y-127744200D02*
X165498800Y-128778000D01*
X165498800Y-128778000D02*
X170688000Y-128778000D01*
D14*
X153796994Y-142621006D02*
X153796994Y-141986000D01*
X148590000Y-147828000D02*
X153796994Y-142621006D01*
X132080000Y-147828000D02*
X148590000Y-147828000D01*
X132080000Y-147828000D02*
X131892750Y-147828000D01*
X131892750Y-147828000D02*
X131275175Y-147210425D01*
X131275175Y-147210425D02*
X128620875Y-144556125D01*
X128015999Y-143951249D02*
X128015999Y-137414001D01*
X128620875Y-144556125D02*
X128015999Y-143951249D01*
X128015999Y-137414001D02*
X128016000Y-137414000D01*
X128016000Y-137414000D02*
X128016000Y-136499600D01*
X128016000Y-136499600D02*
X127076200Y-135559800D01*
X135314678Y-122487678D02*
X135060679Y-122741677D01*
X135907756Y-121894600D02*
X135314678Y-122487678D01*
X153136600Y-121894600D02*
X135907756Y-121894600D01*
X155575000Y-126314200D02*
X155575000Y-124333000D01*
X155575000Y-124333000D02*
X153136600Y-121894600D01*
X131724411Y-148234411D02*
X148758340Y-148234411D01*
X127000000Y-143510000D02*
X131724411Y-148234411D01*
X148758340Y-148234411D02*
X154431996Y-142560755D01*
X154431996Y-141583210D02*
X154431996Y-141224000D01*
X154431996Y-142560755D02*
X154431996Y-141583210D01*
X156845000Y-124227790D02*
X156845000Y-126314200D01*
X155045210Y-122428000D02*
X156845000Y-124227790D01*
X154686000Y-122428000D02*
X155045210Y-122428000D01*
X135314677Y-123249679D02*
X135060678Y-123503678D01*
X136136356Y-122428000D02*
X135314677Y-123249679D01*
X152654000Y-122428000D02*
X136136356Y-122428000D01*
X130047995Y-127000005D02*
X130047995Y-134619995D01*
X130047995Y-134619995D02*
X138684000Y-143256000D01*
X137464811Y-151815801D02*
X137718810Y-152069800D01*
X136519753Y-149987044D02*
X136519753Y-150870743D01*
X136519753Y-150870743D02*
X137464811Y-151815801D01*
X149225000Y-127744200D02*
X149225000Y-126314200D01*
X146685000Y-127744200D02*
X146685000Y-126314200D01*
X149901479Y-123574799D02*
X149225000Y-124251278D01*
X152358521Y-123574799D02*
X149901479Y-123574799D01*
X153035000Y-124251278D02*
X152358521Y-123574799D01*
X153035000Y-126314200D02*
X153035000Y-124251278D01*
X149225000Y-124251278D02*
X149225000Y-126314200D01*
X146685000Y-129807122D02*
X146685000Y-127744200D01*
X147361479Y-130483601D02*
X146685000Y-129807122D01*
X148548521Y-130483601D02*
X147361479Y-130483601D01*
X149225000Y-129807122D02*
X148548521Y-130483601D01*
X149225000Y-127744200D02*
X149225000Y-129807122D01*
X149246778Y-134874000D02*
X149605988Y-134874000D01*
X144522367Y-139598411D02*
X149246778Y-134874000D01*
X133426279Y-133400279D02*
X139624411Y-139598411D01*
X146710356Y-118211644D02*
X138234171Y-118211644D01*
X133426279Y-123019536D02*
X133426279Y-133400279D01*
X139624411Y-139598411D02*
X144522367Y-139598411D01*
X138234171Y-118211644D02*
X133426279Y-123019536D01*
X148844000Y-116078000D02*
X146710356Y-118211644D01*
X144690708Y-140004822D02*
X147674631Y-137020899D01*
X133019868Y-122851196D02*
X133019868Y-133568618D01*
X138065831Y-117805233D02*
X133019868Y-122851196D01*
X145846767Y-117805233D02*
X138065831Y-117805233D01*
X147574000Y-116078000D02*
X145846767Y-117805233D01*
X133019868Y-133568618D02*
X139456072Y-140004822D01*
X147674631Y-137020899D02*
X147854236Y-137020899D01*
X139456072Y-140004822D02*
X144690708Y-140004822D01*
X149205429Y-134340599D02*
X150596599Y-134340599D01*
X144354028Y-139192000D02*
X149205429Y-134340599D01*
X133832690Y-133231940D02*
X139792750Y-139192000D01*
X142494004Y-118872000D02*
X138148566Y-118872000D01*
X133832690Y-123187876D02*
X133832690Y-133231940D01*
X139792750Y-139192000D02*
X144354028Y-139192000D01*
X150596599Y-134340599D02*
X150876001Y-134620001D01*
X150876001Y-134620001D02*
X151130000Y-134874000D01*
X138148566Y-118872000D02*
X133832690Y-123187876D01*
X140309589Y-116992411D02*
X137299688Y-116992411D01*
X141224000Y-116078000D02*
X140309589Y-116992411D01*
X132207046Y-133905296D02*
X139373384Y-141071634D01*
X145186364Y-141071634D02*
X146811999Y-139445999D01*
X137299688Y-116992411D02*
X132207046Y-122085053D01*
X132207046Y-122085053D02*
X132207046Y-133905296D01*
X139373384Y-141071634D02*
X145186364Y-141071634D01*
X146811999Y-139445999D02*
X147065998Y-139192000D01*
X147586589Y-139448512D02*
X147840588Y-139194513D01*
X131800635Y-121916713D02*
X131800635Y-134073636D01*
X137639348Y-116078000D02*
X131800635Y-121916713D01*
X145557056Y-141478045D02*
X147586589Y-139448512D01*
X139954000Y-116078000D02*
X137639348Y-116078000D01*
X131800635Y-134073636D02*
X139205044Y-141478045D01*
X139205044Y-141478045D02*
X145557056Y-141478045D01*
X143764000Y-102256790D02*
X143764000Y-102616000D01*
X143764000Y-102108000D02*
X143764000Y-102256790D01*
X142989300Y-101333300D02*
X143764000Y-102108000D01*
X150418722Y-142697278D02*
X138700024Y-142697278D01*
X151130000Y-141986000D02*
X150418722Y-142697278D01*
X138700024Y-142697278D02*
X130581402Y-134578656D01*
X130581402Y-134578656D02*
X130581402Y-105571847D01*
X130581402Y-105571847D02*
X134819949Y-101333300D01*
X134819949Y-101333300D02*
X142989300Y-101333300D01*
X147015129Y-142290867D02*
X138868364Y-142290867D01*
X142265612Y-101879410D02*
X142624822Y-101879410D01*
X147828000Y-141477996D02*
X147015129Y-142290867D01*
X138868364Y-142290867D02*
X130987813Y-134410316D01*
X130987813Y-134410316D02*
X130987813Y-105740187D01*
X130987813Y-105740187D02*
X134848590Y-101879410D01*
X134848590Y-101879410D02*
X142265612Y-101879410D01*
X147486252Y-140733430D02*
X147845462Y-140733430D01*
X138430000Y-114712597D02*
X131394224Y-121748373D01*
X139036704Y-141884456D02*
X146335226Y-141884456D01*
X138430000Y-107696000D02*
X138430000Y-114712597D01*
X131394224Y-121748373D02*
X131394224Y-134241976D01*
X131394224Y-134241976D02*
X139036704Y-141884456D01*
X146335226Y-141884456D02*
X147486252Y-140733430D01*
X156209991Y-135538031D02*
X156209991Y-135178821D01*
X156209991Y-141357511D02*
X156209991Y-135538031D01*
X148926680Y-148640822D02*
X156209991Y-141357511D01*
X119418100Y-121958100D02*
X119418100Y-125222000D01*
X118110000Y-120650000D02*
X119418100Y-121958100D01*
X119418100Y-125222000D02*
X121539000Y-127342900D01*
X121539000Y-127342900D02*
X121539000Y-138877751D01*
X121539000Y-138877751D02*
X131302071Y-148640822D01*
X131302071Y-148640822D02*
X148926680Y-148640822D01*
X130965391Y-149453644D02*
X120599179Y-139087432D01*
X153568410Y-134238990D02*
X156685175Y-134238990D01*
X157149812Y-134703627D02*
X157149812Y-141567192D01*
X120599179Y-139087432D02*
X120599179Y-128883210D01*
X152908028Y-134899372D02*
X153568410Y-134238990D01*
X156685175Y-134238990D02*
X157149812Y-134703627D01*
X120599179Y-128883210D02*
X120599179Y-128524000D01*
X157149812Y-141567192D02*
X149263360Y-149453644D01*
X149263360Y-149453644D02*
X130965391Y-149453644D01*
X154186898Y-134645401D02*
X154185176Y-134647123D01*
X131133731Y-149047233D02*
X149095020Y-149047233D01*
X121132589Y-127550508D02*
X121132589Y-139046091D01*
X156516835Y-134645401D02*
X154186898Y-134645401D01*
X149095020Y-149047233D02*
X156743401Y-141398852D01*
X154185176Y-134647123D02*
X153931177Y-134901122D01*
X156743401Y-134871967D02*
X156516835Y-134645401D01*
X121132589Y-139046091D02*
X131133731Y-149047233D01*
X119312081Y-125730000D02*
X121132589Y-127550508D01*
X118110000Y-125730000D02*
X119312081Y-125730000D01*
X156743401Y-141398852D02*
X156743401Y-134871967D01*
X168910000Y-97895210D02*
X168910000Y-97536000D01*
X168910000Y-100838000D02*
X168910000Y-97895210D01*
X164846000Y-111506000D02*
X164846000Y-104902000D01*
X164846000Y-104902000D02*
X168910000Y-100838000D01*
G36*
X155053169Y-89669787D02*
G01*
X157456648Y-89918813D01*
X159839047Y-90322423D01*
X162190426Y-90878930D01*
X164500981Y-91586015D01*
X166761110Y-92440737D01*
X168961372Y-93439530D01*
X171092581Y-94578224D01*
X173145879Y-95852083D01*
X175112682Y-97255788D01*
X176984802Y-98783486D01*
X178754431Y-100428811D01*
X180414195Y-102184902D01*
X181957189Y-104044463D01*
X183376949Y-105999696D01*
X184667581Y-108042485D01*
X185823697Y-110164305D01*
X186840473Y-112356300D01*
X187713680Y-114609353D01*
X188439666Y-116914037D01*
X189015417Y-119260794D01*
X189370978Y-121260000D01*
X177832419Y-121260000D01*
X177800000Y-121256807D01*
X177767581Y-121260000D01*
X177670617Y-121269550D01*
X177546207Y-121307290D01*
X177431550Y-121368575D01*
X177331052Y-121451052D01*
X177248575Y-121551550D01*
X177187290Y-121666207D01*
X177149550Y-121790617D01*
X177136807Y-121920000D01*
X177140000Y-121952419D01*
X177140000Y-125232849D01*
X177093529Y-125163300D01*
X176969702Y-125039473D01*
X176824097Y-124942183D01*
X176662310Y-124875168D01*
X176490557Y-124841004D01*
X176315439Y-124841004D01*
X176143686Y-124875168D01*
X175981899Y-124942183D01*
X175836294Y-125039473D01*
X175712467Y-125163300D01*
X175615177Y-125308905D01*
X175548162Y-125470692D01*
X175513998Y-125642445D01*
X175513998Y-125817563D01*
X175548162Y-125989316D01*
X175615177Y-126151103D01*
X175712467Y-126296708D01*
X175836294Y-126420535D01*
X175981899Y-126517825D01*
X176143686Y-126584840D01*
X176315439Y-126619004D01*
X176490557Y-126619004D01*
X176662310Y-126584840D01*
X176824097Y-126517825D01*
X176969702Y-126420535D01*
X177093529Y-126296708D01*
X177140000Y-126227158D01*
X177140001Y-132047571D01*
X177136807Y-132080000D01*
X177149550Y-132209383D01*
X177187290Y-132333793D01*
X177248575Y-132448450D01*
X177331052Y-132548948D01*
X177431550Y-132631425D01*
X177546207Y-132692710D01*
X177670617Y-132730450D01*
X177767581Y-132740000D01*
X177800000Y-132743193D01*
X177832419Y-132740000D01*
X189364565Y-132740000D01*
X189090508Y-134375008D01*
X188538103Y-136727362D01*
X187835045Y-139039174D01*
X186984275Y-141300771D01*
X185989328Y-143502763D01*
X184854358Y-145635953D01*
X183584084Y-147691473D01*
X182183813Y-149660729D01*
X180659387Y-151535508D01*
X179017145Y-153308016D01*
X177263944Y-154970849D01*
X175407095Y-156517075D01*
X173454326Y-157940257D01*
X171413804Y-159234445D01*
X169294022Y-160394253D01*
X167103780Y-161414866D01*
X165925619Y-161873848D01*
X165954836Y-161803312D01*
X165989000Y-161631559D01*
X165989000Y-161456441D01*
X165954836Y-161284688D01*
X165887821Y-161122901D01*
X165790531Y-160977296D01*
X165666704Y-160853469D01*
X165521099Y-160756179D01*
X165359312Y-160689164D01*
X165187559Y-160655000D01*
X165012441Y-160655000D01*
X164840688Y-160689164D01*
X164678901Y-160756179D01*
X164533296Y-160853469D01*
X164409469Y-160977296D01*
X164312179Y-161122901D01*
X164245164Y-161284688D01*
X164211000Y-161456441D01*
X164211000Y-161631559D01*
X164245164Y-161803312D01*
X164312179Y-161965099D01*
X164409469Y-162110704D01*
X164533296Y-162234531D01*
X164678901Y-162331821D01*
X164699583Y-162340388D01*
X162548839Y-163022010D01*
X160203103Y-163601855D01*
X157824836Y-164029115D01*
X155423968Y-164302007D01*
X153010466Y-164419399D01*
X150594434Y-164380798D01*
X148185920Y-164186365D01*
X145795005Y-163836913D01*
X143431584Y-163333891D01*
X141105566Y-162679405D01*
X138826644Y-161876183D01*
X136604290Y-160927565D01*
X134447791Y-159837514D01*
X132366132Y-158610572D01*
X130367988Y-157251852D01*
X128461676Y-155767009D01*
X126655181Y-154162261D01*
X124956000Y-152444273D01*
X123371228Y-150620214D01*
X121907462Y-148697678D01*
X120570819Y-146684700D01*
X119366868Y-144589665D01*
X118300618Y-142421291D01*
X117376526Y-140188647D01*
X116598434Y-137901009D01*
X115969591Y-135567928D01*
X115492617Y-133199131D01*
X115169502Y-130804486D01*
X115001592Y-128393982D01*
X114989587Y-125977677D01*
X115133538Y-123565618D01*
X115180426Y-123190000D01*
X116617815Y-123190000D01*
X116646487Y-123481111D01*
X116731401Y-123761034D01*
X116869294Y-124019014D01*
X117054866Y-124245134D01*
X117280986Y-124430706D01*
X117335791Y-124460000D01*
X117280986Y-124489294D01*
X117054866Y-124674866D01*
X116869294Y-124900986D01*
X116731401Y-125158966D01*
X116646487Y-125438889D01*
X116617815Y-125730000D01*
X116646487Y-126021111D01*
X116731401Y-126301034D01*
X116869294Y-126559014D01*
X117054866Y-126785134D01*
X117280986Y-126970706D01*
X117335791Y-127000000D01*
X117280986Y-127029294D01*
X117054866Y-127214866D01*
X116869294Y-127440986D01*
X116731401Y-127698966D01*
X116646487Y-127978889D01*
X116617815Y-128270000D01*
X116646487Y-128561111D01*
X116731401Y-128841034D01*
X116869294Y-129099014D01*
X117054866Y-129325134D01*
X117280986Y-129510706D01*
X117335791Y-129540000D01*
X117280986Y-129569294D01*
X117054866Y-129754866D01*
X116869294Y-129980986D01*
X116731401Y-130238966D01*
X116646487Y-130518889D01*
X116617815Y-130810000D01*
X116646487Y-131101111D01*
X116731401Y-131381034D01*
X116869294Y-131639014D01*
X117054866Y-131865134D01*
X117280986Y-132050706D01*
X117335791Y-132080000D01*
X117280986Y-132109294D01*
X117054866Y-132294866D01*
X116869294Y-132520986D01*
X116731401Y-132778966D01*
X116646487Y-133058889D01*
X116617815Y-133350000D01*
X116646487Y-133641111D01*
X116731401Y-133921034D01*
X116869294Y-134179014D01*
X117054866Y-134405134D01*
X117280986Y-134590706D01*
X117538966Y-134728599D01*
X117818889Y-134813513D01*
X118037050Y-134835000D01*
X118182950Y-134835000D01*
X118401111Y-134813513D01*
X118681034Y-134728599D01*
X118939014Y-134590706D01*
X119165134Y-134405134D01*
X119350706Y-134179014D01*
X119488599Y-133921034D01*
X119573513Y-133641111D01*
X119602185Y-133350000D01*
X119573513Y-133058889D01*
X119488599Y-132778966D01*
X119350706Y-132520986D01*
X119165134Y-132294866D01*
X118939014Y-132109294D01*
X118884209Y-132080000D01*
X118939014Y-132050706D01*
X119165134Y-131865134D01*
X119350706Y-131639014D01*
X119488599Y-131381034D01*
X119573513Y-131101111D01*
X119602185Y-130810000D01*
X119573513Y-130518889D01*
X119488599Y-130238966D01*
X119350706Y-129980986D01*
X119165134Y-129754866D01*
X118939014Y-129569294D01*
X118884209Y-129540000D01*
X118939014Y-129510706D01*
X119165134Y-129325134D01*
X119350706Y-129099014D01*
X119488599Y-128841034D01*
X119573513Y-128561111D01*
X119602185Y-128270000D01*
X119573513Y-127978889D01*
X119488599Y-127698966D01*
X119350706Y-127440986D01*
X119165134Y-127214866D01*
X118939014Y-127029294D01*
X118884209Y-127000000D01*
X118939014Y-126970706D01*
X119165134Y-126785134D01*
X119221231Y-126716780D01*
X120222309Y-127717859D01*
X120178080Y-127736179D01*
X120032475Y-127833469D01*
X119908648Y-127957296D01*
X119811358Y-128102901D01*
X119744343Y-128264688D01*
X119710179Y-128436441D01*
X119710179Y-128611559D01*
X119744343Y-128783312D01*
X119811358Y-128945099D01*
X119837180Y-128983744D01*
X119837179Y-139050009D01*
X119833493Y-139087432D01*
X119837179Y-139124855D01*
X119837179Y-139124857D01*
X119848205Y-139236809D01*
X119891777Y-139380446D01*
X119903553Y-139402477D01*
X119962534Y-139512824D01*
X119998124Y-139556190D01*
X120057757Y-139628854D01*
X120086833Y-139652716D01*
X130400107Y-149965990D01*
X130423969Y-149995066D01*
X130474106Y-150036212D01*
X130539998Y-150090289D01*
X130595154Y-150119770D01*
X130672376Y-150161046D01*
X130816013Y-150204618D01*
X130927965Y-150215644D01*
X130927968Y-150215644D01*
X130965391Y-150219330D01*
X131002814Y-150215644D01*
X135658808Y-150215644D01*
X135664917Y-150246356D01*
X135731932Y-150408143D01*
X135757753Y-150446787D01*
X135757753Y-150833320D01*
X135754067Y-150870743D01*
X135757753Y-150908166D01*
X135757753Y-150908169D01*
X135768041Y-151012622D01*
X135768780Y-151020121D01*
X135812352Y-151163758D01*
X135883108Y-151296135D01*
X135950893Y-151378730D01*
X135978332Y-151412165D01*
X136007402Y-151436022D01*
X136854907Y-152283528D01*
X136863974Y-152329112D01*
X136930989Y-152490899D01*
X137028279Y-152636504D01*
X137152106Y-152760331D01*
X137297711Y-152857621D01*
X137459498Y-152924636D01*
X137631251Y-152958800D01*
X137806369Y-152958800D01*
X137978122Y-152924636D01*
X138139909Y-152857621D01*
X138285514Y-152760331D01*
X138409341Y-152636504D01*
X138506631Y-152490899D01*
X138573646Y-152329112D01*
X138607810Y-152157359D01*
X138607810Y-151982241D01*
X138573646Y-151810488D01*
X138506631Y-151648701D01*
X138409341Y-151503096D01*
X138285514Y-151379269D01*
X138139909Y-151281979D01*
X137978122Y-151214964D01*
X137932538Y-151205897D01*
X137281753Y-150555113D01*
X137281753Y-150446787D01*
X137307574Y-150408143D01*
X137374589Y-150246356D01*
X137380698Y-150215644D01*
X149225937Y-150215644D01*
X149263360Y-150219330D01*
X149300783Y-150215644D01*
X149300786Y-150215644D01*
X149412738Y-150204618D01*
X149556375Y-150161046D01*
X149688752Y-150090289D01*
X149804782Y-149995066D01*
X149828644Y-149965990D01*
X157662164Y-142132471D01*
X157691234Y-142108614D01*
X157786457Y-141992584D01*
X157857214Y-141860207D01*
X157900786Y-141716570D01*
X157911812Y-141604618D01*
X157911812Y-141604616D01*
X157915498Y-141567193D01*
X157911812Y-141529770D01*
X157911812Y-135802441D01*
X158750000Y-135802441D01*
X158750000Y-135977559D01*
X158784164Y-136149312D01*
X158851179Y-136311099D01*
X158948469Y-136456704D01*
X159072296Y-136580531D01*
X159217901Y-136677821D01*
X159379688Y-136744836D01*
X159551441Y-136779000D01*
X159726559Y-136779000D01*
X159898312Y-136744836D01*
X160060099Y-136677821D01*
X160205704Y-136580531D01*
X160329531Y-136456704D01*
X160426821Y-136311099D01*
X160493836Y-136149312D01*
X160528000Y-135977559D01*
X160528000Y-135802441D01*
X160493836Y-135630688D01*
X160426821Y-135468901D01*
X160329531Y-135323296D01*
X160205704Y-135199469D01*
X160060099Y-135102179D01*
X159898312Y-135035164D01*
X159726559Y-135001000D01*
X159551441Y-135001000D01*
X159379688Y-135035164D01*
X159217901Y-135102179D01*
X159072296Y-135199469D01*
X158948469Y-135323296D01*
X158851179Y-135468901D01*
X158784164Y-135630688D01*
X158750000Y-135802441D01*
X157911812Y-135802441D01*
X157911812Y-134741050D01*
X157915498Y-134703627D01*
X157909933Y-134647123D01*
X157900786Y-134554249D01*
X157857214Y-134410612D01*
X157819791Y-134340599D01*
X157786457Y-134278234D01*
X157741138Y-134223014D01*
X157691234Y-134162205D01*
X157662159Y-134138344D01*
X157250459Y-133726644D01*
X157226597Y-133697568D01*
X157110567Y-133602345D01*
X156978190Y-133531588D01*
X156834553Y-133488016D01*
X156722601Y-133476990D01*
X156722598Y-133476990D01*
X156685175Y-133473304D01*
X156647752Y-133476990D01*
X153605832Y-133476990D01*
X153568409Y-133473304D01*
X153530986Y-133476990D01*
X153530984Y-133476990D01*
X153419032Y-133488016D01*
X153275395Y-133531588D01*
X153143018Y-133602345D01*
X153026988Y-133697568D01*
X153003130Y-133726639D01*
X152694301Y-134035469D01*
X152648716Y-134044536D01*
X152486929Y-134111551D01*
X152341324Y-134208841D01*
X152217497Y-134332668D01*
X152120207Y-134478273D01*
X152053192Y-134640060D01*
X152019028Y-134811813D01*
X152019028Y-134986931D01*
X152053192Y-135158684D01*
X152120207Y-135320471D01*
X152217497Y-135466076D01*
X152341324Y-135589903D01*
X152486929Y-135687193D01*
X152648716Y-135754208D01*
X152820469Y-135788372D01*
X152995587Y-135788372D01*
X153167340Y-135754208D01*
X153329127Y-135687193D01*
X153418293Y-135627614D01*
X153510078Y-135688943D01*
X153671865Y-135755958D01*
X153843618Y-135790122D01*
X154018736Y-135790122D01*
X154190489Y-135755958D01*
X154352276Y-135688943D01*
X154497881Y-135591653D01*
X154621708Y-135467826D01*
X154662083Y-135407401D01*
X155349042Y-135407401D01*
X155355155Y-135438133D01*
X155422170Y-135599920D01*
X155447992Y-135638565D01*
X155447992Y-137943546D01*
X155367509Y-137889769D01*
X155205722Y-137822754D01*
X155033969Y-137788590D01*
X154858851Y-137788590D01*
X154687098Y-137822754D01*
X154525311Y-137889769D01*
X154379706Y-137987059D01*
X154255879Y-138110886D01*
X154158589Y-138256491D01*
X154091574Y-138418278D01*
X154057410Y-138590031D01*
X154057410Y-138765149D01*
X154091574Y-138936902D01*
X154158589Y-139098689D01*
X154255879Y-139244294D01*
X154379706Y-139368121D01*
X154525311Y-139465411D01*
X154687098Y-139532426D01*
X154858851Y-139566590D01*
X155033969Y-139566590D01*
X155205722Y-139532426D01*
X155367509Y-139465411D01*
X155447991Y-139411635D01*
X155447991Y-141041880D01*
X155320996Y-141168875D01*
X155320996Y-141136441D01*
X155286832Y-140964688D01*
X155219817Y-140802901D01*
X155122527Y-140657296D01*
X154998700Y-140533469D01*
X154853095Y-140436179D01*
X154691308Y-140369164D01*
X154519555Y-140335000D01*
X154344437Y-140335000D01*
X154172684Y-140369164D01*
X154010897Y-140436179D01*
X153865292Y-140533469D01*
X153741465Y-140657296D01*
X153644175Y-140802901D01*
X153577160Y-140964688D01*
X153544308Y-141129846D01*
X153537682Y-141131164D01*
X153375895Y-141198179D01*
X153230290Y-141295469D01*
X153106463Y-141419296D01*
X153009173Y-141564901D01*
X152942158Y-141726688D01*
X152907994Y-141898441D01*
X152907994Y-142073559D01*
X152942158Y-142245312D01*
X152986942Y-142353428D01*
X148274370Y-147066000D01*
X132208381Y-147066000D01*
X131840458Y-146698078D01*
X131840454Y-146698073D01*
X129706351Y-144563970D01*
X132426613Y-144563970D01*
X132426613Y-144996030D01*
X132510904Y-145419787D01*
X132676246Y-145818958D01*
X132916285Y-146178203D01*
X133221797Y-146483715D01*
X133581042Y-146723754D01*
X133980213Y-146889096D01*
X134403970Y-146973387D01*
X134836030Y-146973387D01*
X135259787Y-146889096D01*
X135658958Y-146723754D01*
X136018203Y-146483715D01*
X136323715Y-146178203D01*
X136563754Y-145818958D01*
X136729096Y-145419787D01*
X136813387Y-144996030D01*
X136813387Y-144563970D01*
X136729096Y-144140213D01*
X136563754Y-143741042D01*
X136323715Y-143381797D01*
X136018203Y-143076285D01*
X135658958Y-142836246D01*
X135259787Y-142670904D01*
X134836030Y-142586613D01*
X134403970Y-142586613D01*
X133980213Y-142670904D01*
X133581042Y-142836246D01*
X133221797Y-143076285D01*
X132916285Y-143381797D01*
X132676246Y-143741042D01*
X132510904Y-144140213D01*
X132426613Y-144563970D01*
X129706351Y-144563970D01*
X129186158Y-144043778D01*
X129186154Y-144043773D01*
X128777999Y-143635619D01*
X128777999Y-137451436D01*
X128778000Y-137451426D01*
X128778000Y-137451424D01*
X128781686Y-137414001D01*
X128778000Y-137376575D01*
X128778000Y-136537023D01*
X128781686Y-136499600D01*
X128778000Y-136462174D01*
X128766974Y-136350222D01*
X128723402Y-136206585D01*
X128685399Y-136135486D01*
X128652645Y-136074207D01*
X128581279Y-135987248D01*
X128557422Y-135958178D01*
X128528351Y-135934321D01*
X127940104Y-135346073D01*
X127931036Y-135300488D01*
X127864021Y-135138701D01*
X127766731Y-134993096D01*
X127642904Y-134869269D01*
X127497299Y-134771979D01*
X127335512Y-134704964D01*
X127163759Y-134670800D01*
X126988641Y-134670800D01*
X126816888Y-134704964D01*
X126655101Y-134771979D01*
X126509496Y-134869269D01*
X126385669Y-134993096D01*
X126288379Y-135138701D01*
X126221364Y-135300488D01*
X126187200Y-135472241D01*
X126187200Y-135647359D01*
X126221364Y-135819112D01*
X126288379Y-135980899D01*
X126385669Y-136126504D01*
X126509496Y-136250331D01*
X126655101Y-136347621D01*
X126816888Y-136414636D01*
X126862473Y-136423704D01*
X127254001Y-136815231D01*
X127254000Y-137376567D01*
X127250313Y-137414001D01*
X127254000Y-137451434D01*
X127253999Y-142654107D01*
X127087559Y-142621000D01*
X126912441Y-142621000D01*
X126740688Y-142655164D01*
X126578901Y-142722179D01*
X126508260Y-142769380D01*
X122301000Y-138562121D01*
X122301000Y-127380323D01*
X122304686Y-127342900D01*
X122299615Y-127291414D01*
X122289974Y-127193522D01*
X122246402Y-127049885D01*
X122204080Y-126970706D01*
X122175645Y-126917507D01*
X122171492Y-126912446D01*
X129158995Y-126912446D01*
X129158995Y-127087564D01*
X129193159Y-127259317D01*
X129260174Y-127421104D01*
X129285995Y-127459748D01*
X129285996Y-134582562D01*
X129282309Y-134619995D01*
X129297022Y-134769373D01*
X129340594Y-134913010D01*
X129411350Y-135045387D01*
X129470711Y-135117718D01*
X129506574Y-135161417D01*
X129535644Y-135185274D01*
X137820097Y-143469728D01*
X137829164Y-143515312D01*
X137896179Y-143677099D01*
X137993469Y-143822704D01*
X138117296Y-143946531D01*
X138262901Y-144043821D01*
X138424688Y-144110836D01*
X138596441Y-144145000D01*
X138771559Y-144145000D01*
X138943312Y-144110836D01*
X139105099Y-144043821D01*
X139250704Y-143946531D01*
X139374531Y-143822704D01*
X139471821Y-143677099D01*
X139538836Y-143515312D01*
X139549982Y-143459278D01*
X150381299Y-143459278D01*
X150418722Y-143462964D01*
X150456145Y-143459278D01*
X150456148Y-143459278D01*
X150568100Y-143448252D01*
X150711737Y-143404680D01*
X150844114Y-143333923D01*
X150960144Y-143238700D01*
X150984005Y-143209625D01*
X151343727Y-142849903D01*
X151389312Y-142840836D01*
X151551099Y-142773821D01*
X151696704Y-142676531D01*
X151820531Y-142552704D01*
X151917821Y-142407099D01*
X151984836Y-142245312D01*
X152019000Y-142073559D01*
X152019000Y-141898441D01*
X151984836Y-141726688D01*
X151917821Y-141564901D01*
X151820531Y-141419296D01*
X151696704Y-141295469D01*
X151551099Y-141198179D01*
X151389312Y-141131164D01*
X151217559Y-141097000D01*
X151042441Y-141097000D01*
X150870688Y-141131164D01*
X150708901Y-141198179D01*
X150563296Y-141295469D01*
X150439469Y-141419296D01*
X150342179Y-141564901D01*
X150275164Y-141726688D01*
X150266097Y-141772273D01*
X150103092Y-141935278D01*
X148591644Y-141935278D01*
X148615821Y-141899095D01*
X148682836Y-141737308D01*
X148717000Y-141565555D01*
X148717000Y-141390437D01*
X148682836Y-141218684D01*
X148644772Y-141126791D01*
X148700298Y-140992742D01*
X148734462Y-140820989D01*
X148734462Y-140645871D01*
X148700298Y-140474118D01*
X148633283Y-140312331D01*
X148535993Y-140166726D01*
X148412166Y-140042899D01*
X148291605Y-139962343D01*
X148407292Y-139885044D01*
X148531119Y-139761217D01*
X148628409Y-139615612D01*
X148695424Y-139453825D01*
X148729588Y-139282072D01*
X148729588Y-139106954D01*
X148695424Y-138935201D01*
X148628409Y-138773414D01*
X148531119Y-138627809D01*
X148407292Y-138503982D01*
X148309053Y-138438341D01*
X148408745Y-138371729D01*
X148532572Y-138247902D01*
X148629862Y-138102297D01*
X148696877Y-137940510D01*
X148731041Y-137768757D01*
X148731041Y-137593639D01*
X148696877Y-137421886D01*
X148673632Y-137365769D01*
X148709072Y-137280211D01*
X148743236Y-137108458D01*
X148743236Y-136933340D01*
X148709072Y-136761587D01*
X148642057Y-136599800D01*
X148624654Y-136573755D01*
X149449183Y-135749226D01*
X149518429Y-135763000D01*
X149693547Y-135763000D01*
X149865300Y-135728836D01*
X150027087Y-135661821D01*
X150172692Y-135564531D01*
X150296519Y-135440704D01*
X150367994Y-135333734D01*
X150439469Y-135440704D01*
X150563296Y-135564531D01*
X150708901Y-135661821D01*
X150870688Y-135728836D01*
X151042441Y-135763000D01*
X151217559Y-135763000D01*
X151389312Y-135728836D01*
X151551099Y-135661821D01*
X151696704Y-135564531D01*
X151820531Y-135440704D01*
X151917821Y-135295099D01*
X151984836Y-135133312D01*
X152019000Y-134961559D01*
X152019000Y-134786441D01*
X151984836Y-134614688D01*
X151917821Y-134452901D01*
X151820531Y-134307296D01*
X151696704Y-134183469D01*
X151551099Y-134086179D01*
X151389312Y-134019164D01*
X151343726Y-134010096D01*
X151161883Y-133828253D01*
X151138021Y-133799177D01*
X151021991Y-133703954D01*
X150889614Y-133633197D01*
X150745977Y-133589625D01*
X150634025Y-133578599D01*
X150634022Y-133578599D01*
X150596599Y-133574913D01*
X150559176Y-133578599D01*
X149242851Y-133578599D01*
X149205428Y-133574913D01*
X149168005Y-133578599D01*
X149168003Y-133578599D01*
X149056051Y-133589625D01*
X148912414Y-133633197D01*
X148780037Y-133703954D01*
X148664007Y-133799177D01*
X148640150Y-133828247D01*
X147704806Y-134763591D01*
X147607294Y-134666079D01*
X147461689Y-134568789D01*
X147299902Y-134501774D01*
X147128149Y-134467610D01*
X146953031Y-134467610D01*
X146781278Y-134501774D01*
X146619491Y-134568789D01*
X146473886Y-134666079D01*
X146350059Y-134789906D01*
X146252769Y-134935511D01*
X146185754Y-135097298D01*
X146151590Y-135269051D01*
X146151590Y-135444169D01*
X146185754Y-135615922D01*
X146252769Y-135777709D01*
X146350059Y-135923314D01*
X146447571Y-136020826D01*
X144038398Y-138430000D01*
X140108380Y-138430000D01*
X134594690Y-132916310D01*
X134594690Y-130204200D01*
X139326928Y-130204200D01*
X139339188Y-130328682D01*
X139375498Y-130448380D01*
X139434463Y-130558694D01*
X139513815Y-130655385D01*
X139610506Y-130734737D01*
X139720820Y-130793702D01*
X139840518Y-130830012D01*
X139965000Y-130842272D01*
X140049250Y-130839200D01*
X140208000Y-130680450D01*
X140208000Y-128871200D01*
X139488750Y-128871200D01*
X139330000Y-129029950D01*
X139326928Y-130204200D01*
X134594690Y-130204200D01*
X134594690Y-126892789D01*
X137360000Y-126892789D01*
X137360000Y-127165611D01*
X137413225Y-127433189D01*
X137517629Y-127685243D01*
X137669201Y-127912086D01*
X137862114Y-128104999D01*
X138088957Y-128256571D01*
X138341011Y-128360975D01*
X138608589Y-128414200D01*
X138881411Y-128414200D01*
X139148989Y-128360975D01*
X139329549Y-128286185D01*
X139330000Y-128458450D01*
X139488750Y-128617200D01*
X140208000Y-128617200D01*
X140208000Y-128597200D01*
X140462000Y-128597200D01*
X140462000Y-128617200D01*
X140482000Y-128617200D01*
X140482000Y-128871200D01*
X140462000Y-128871200D01*
X140462000Y-130680450D01*
X140620750Y-130839200D01*
X140705000Y-130842272D01*
X140829482Y-130830012D01*
X140949180Y-130793702D01*
X140970000Y-130782573D01*
X140990820Y-130793702D01*
X141110518Y-130830012D01*
X141235000Y-130842272D01*
X141975000Y-130842272D01*
X142099482Y-130830012D01*
X142219180Y-130793702D01*
X142240000Y-130782573D01*
X142260820Y-130793702D01*
X142380518Y-130830012D01*
X142505000Y-130842272D01*
X142589250Y-130839200D01*
X142748000Y-130680450D01*
X142748000Y-128871200D01*
X142728000Y-128871200D01*
X142728000Y-128617200D01*
X142748000Y-128617200D01*
X142748000Y-128597200D01*
X143002000Y-128597200D01*
X143002000Y-128617200D01*
X143022000Y-128617200D01*
X143022000Y-128871200D01*
X143002000Y-128871200D01*
X143002000Y-130680450D01*
X143160750Y-130839200D01*
X143245000Y-130842272D01*
X143369482Y-130830012D01*
X143489180Y-130793702D01*
X143510000Y-130782573D01*
X143530820Y-130793702D01*
X143650518Y-130830012D01*
X143775000Y-130842272D01*
X144515000Y-130842272D01*
X144639482Y-130830012D01*
X144759180Y-130793702D01*
X144780000Y-130782573D01*
X144800820Y-130793702D01*
X144920518Y-130830012D01*
X145045000Y-130842272D01*
X145129250Y-130839200D01*
X145288000Y-130680450D01*
X145288000Y-128871200D01*
X145268000Y-128871200D01*
X145268000Y-128617200D01*
X145288000Y-128617200D01*
X145288000Y-125441200D01*
X145268000Y-125441200D01*
X145268000Y-125187200D01*
X145288000Y-125187200D01*
X145288000Y-123377950D01*
X145129250Y-123219200D01*
X145045000Y-123216128D01*
X144920518Y-123228388D01*
X144800820Y-123264698D01*
X144780000Y-123275827D01*
X144759180Y-123264698D01*
X144639482Y-123228388D01*
X144515000Y-123216128D01*
X143775000Y-123216128D01*
X143650518Y-123228388D01*
X143530820Y-123264698D01*
X143510000Y-123275827D01*
X143489180Y-123264698D01*
X143369482Y-123228388D01*
X143245000Y-123216128D01*
X142505000Y-123216128D01*
X142380518Y-123228388D01*
X142260820Y-123264698D01*
X142240000Y-123275827D01*
X142219180Y-123264698D01*
X142099482Y-123228388D01*
X141975000Y-123216128D01*
X141890750Y-123219200D01*
X141732000Y-123377950D01*
X141732000Y-125187200D01*
X141752000Y-125187200D01*
X141752000Y-125441200D01*
X141732000Y-125441200D01*
X141732000Y-125461200D01*
X141478000Y-125461200D01*
X141478000Y-125441200D01*
X141458000Y-125441200D01*
X141458000Y-125187200D01*
X141478000Y-125187200D01*
X141478000Y-123377950D01*
X141319250Y-123219200D01*
X141235000Y-123216128D01*
X141110518Y-123228388D01*
X140990820Y-123264698D01*
X140970000Y-123275827D01*
X140949180Y-123264698D01*
X140829482Y-123228388D01*
X140705000Y-123216128D01*
X139965000Y-123216128D01*
X139840518Y-123228388D01*
X139720820Y-123264698D01*
X139610506Y-123323663D01*
X139513815Y-123403015D01*
X139434463Y-123499706D01*
X139375498Y-123610020D01*
X139339188Y-123729718D01*
X139326928Y-123854200D01*
X139326928Y-125771130D01*
X139148989Y-125697425D01*
X138881411Y-125644200D01*
X138608589Y-125644200D01*
X138341011Y-125697425D01*
X138088957Y-125801829D01*
X137862114Y-125953401D01*
X137669201Y-126146314D01*
X137517629Y-126373157D01*
X137413225Y-126625211D01*
X137360000Y-126892789D01*
X134594690Y-126892789D01*
X134594690Y-124261505D01*
X134639579Y-124291499D01*
X134801366Y-124358514D01*
X134973119Y-124392678D01*
X135148237Y-124392678D01*
X135319990Y-124358514D01*
X135481777Y-124291499D01*
X135627382Y-124194209D01*
X135751209Y-124070382D01*
X135848499Y-123924777D01*
X135915514Y-123762990D01*
X135924582Y-123717404D01*
X136451986Y-123190000D01*
X149208647Y-123190000D01*
X149182519Y-123216128D01*
X148855000Y-123216128D01*
X148730518Y-123228388D01*
X148610820Y-123264698D01*
X148590000Y-123275827D01*
X148569180Y-123264698D01*
X148449482Y-123228388D01*
X148325000Y-123216128D01*
X148240750Y-123219200D01*
X148082000Y-123377950D01*
X148082000Y-125187200D01*
X148102000Y-125187200D01*
X148102000Y-125441200D01*
X148082000Y-125441200D01*
X148082000Y-128617200D01*
X148102000Y-128617200D01*
X148102000Y-128871200D01*
X148082000Y-128871200D01*
X148082000Y-128891200D01*
X147828000Y-128891200D01*
X147828000Y-128871200D01*
X147808000Y-128871200D01*
X147808000Y-128617200D01*
X147828000Y-128617200D01*
X147828000Y-125441200D01*
X147808000Y-125441200D01*
X147808000Y-125187200D01*
X147828000Y-125187200D01*
X147828000Y-123377950D01*
X147669250Y-123219200D01*
X147585000Y-123216128D01*
X147460518Y-123228388D01*
X147340820Y-123264698D01*
X147320000Y-123275827D01*
X147299180Y-123264698D01*
X147179482Y-123228388D01*
X147055000Y-123216128D01*
X146315000Y-123216128D01*
X146190518Y-123228388D01*
X146070820Y-123264698D01*
X146050000Y-123275827D01*
X146029180Y-123264698D01*
X145909482Y-123228388D01*
X145785000Y-123216128D01*
X145700750Y-123219200D01*
X145542000Y-123377950D01*
X145542000Y-125187200D01*
X145562000Y-125187200D01*
X145562000Y-125441200D01*
X145542000Y-125441200D01*
X145542000Y-128617200D01*
X145562000Y-128617200D01*
X145562000Y-128871200D01*
X145542000Y-128871200D01*
X145542000Y-130680450D01*
X145700750Y-130839200D01*
X145785000Y-130842272D01*
X145909482Y-130830012D01*
X146029180Y-130793702D01*
X146050000Y-130782573D01*
X146070820Y-130793702D01*
X146190518Y-130830012D01*
X146315000Y-130842272D01*
X146642519Y-130842272D01*
X146796199Y-130995952D01*
X146820057Y-131025023D01*
X146849127Y-131048880D01*
X146936086Y-131120246D01*
X146979360Y-131143376D01*
X147068464Y-131191003D01*
X147212101Y-131234575D01*
X147324053Y-131245601D01*
X147324056Y-131245601D01*
X147361479Y-131249287D01*
X147398902Y-131245601D01*
X148511098Y-131245601D01*
X148548521Y-131249287D01*
X148585944Y-131245601D01*
X148585947Y-131245601D01*
X148697899Y-131234575D01*
X148841536Y-131191003D01*
X148973913Y-131120246D01*
X149089943Y-131025023D01*
X149113804Y-130995948D01*
X149267480Y-130842272D01*
X149595000Y-130842272D01*
X149719482Y-130830012D01*
X149839180Y-130793702D01*
X149860000Y-130782573D01*
X149880820Y-130793702D01*
X150000518Y-130830012D01*
X150125000Y-130842272D01*
X150209250Y-130839200D01*
X150368000Y-130680450D01*
X150368000Y-128871200D01*
X150622000Y-128871200D01*
X150622000Y-130680450D01*
X150780750Y-130839200D01*
X150865000Y-130842272D01*
X150989482Y-130830012D01*
X151109180Y-130793702D01*
X151130000Y-130782573D01*
X151150820Y-130793702D01*
X151270518Y-130830012D01*
X151395000Y-130842272D01*
X151479250Y-130839200D01*
X151638000Y-130680450D01*
X151638000Y-128871200D01*
X150622000Y-128871200D01*
X150368000Y-128871200D01*
X150348000Y-128871200D01*
X150348000Y-128617200D01*
X150368000Y-128617200D01*
X150368000Y-125441200D01*
X150622000Y-125441200D01*
X150622000Y-128617200D01*
X151638000Y-128617200D01*
X151638000Y-125441200D01*
X150622000Y-125441200D01*
X150368000Y-125441200D01*
X150348000Y-125441200D01*
X150348000Y-125187200D01*
X150368000Y-125187200D01*
X150368000Y-125167200D01*
X150622000Y-125167200D01*
X150622000Y-125187200D01*
X151638000Y-125187200D01*
X151638000Y-125167200D01*
X151892000Y-125167200D01*
X151892000Y-125187200D01*
X151912000Y-125187200D01*
X151912000Y-125441200D01*
X151892000Y-125441200D01*
X151892000Y-128617200D01*
X151912000Y-128617200D01*
X151912000Y-128871200D01*
X151892000Y-128871200D01*
X151892000Y-130680450D01*
X152050750Y-130839200D01*
X152135000Y-130842272D01*
X152259482Y-130830012D01*
X152379180Y-130793702D01*
X152400000Y-130782573D01*
X152420820Y-130793702D01*
X152540518Y-130830012D01*
X152665000Y-130842272D01*
X153405000Y-130842272D01*
X153529482Y-130830012D01*
X153649180Y-130793702D01*
X153670000Y-130782573D01*
X153690820Y-130793702D01*
X153810518Y-130830012D01*
X153935000Y-130842272D01*
X154675000Y-130842272D01*
X154799482Y-130830012D01*
X154919180Y-130793702D01*
X154940000Y-130782573D01*
X154960820Y-130793702D01*
X155080518Y-130830012D01*
X155205000Y-130842272D01*
X155945000Y-130842272D01*
X156069482Y-130830012D01*
X156189180Y-130793702D01*
X156210000Y-130782573D01*
X156230820Y-130793702D01*
X156350518Y-130830012D01*
X156475000Y-130842272D01*
X157215000Y-130842272D01*
X157339482Y-130830012D01*
X157459180Y-130793702D01*
X157480000Y-130782573D01*
X157500820Y-130793702D01*
X157620518Y-130830012D01*
X157745000Y-130842272D01*
X158485000Y-130842272D01*
X158609482Y-130830012D01*
X158729180Y-130793702D01*
X158750000Y-130782573D01*
X158770820Y-130793702D01*
X158890518Y-130830012D01*
X159015000Y-130842272D01*
X159755000Y-130842272D01*
X159879482Y-130830012D01*
X159999180Y-130793702D01*
X160020000Y-130782573D01*
X160040820Y-130793702D01*
X160160518Y-130830012D01*
X160285000Y-130842272D01*
X161025000Y-130842272D01*
X161149482Y-130830012D01*
X161269180Y-130793702D01*
X161290000Y-130782573D01*
X161310820Y-130793702D01*
X161430518Y-130830012D01*
X161555000Y-130842272D01*
X162295000Y-130842272D01*
X162419482Y-130830012D01*
X162539180Y-130793702D01*
X162560000Y-130782573D01*
X162580820Y-130793702D01*
X162700518Y-130830012D01*
X162825000Y-130842272D01*
X162909250Y-130839200D01*
X163068000Y-130680450D01*
X163068000Y-128871200D01*
X163048000Y-128871200D01*
X163048000Y-128617200D01*
X163068000Y-128617200D01*
X163068000Y-128597200D01*
X163322000Y-128597200D01*
X163322000Y-128617200D01*
X163342000Y-128617200D01*
X163342000Y-128871200D01*
X163322000Y-128871200D01*
X163322000Y-130680450D01*
X163480750Y-130839200D01*
X163565000Y-130842272D01*
X163689482Y-130830012D01*
X163809180Y-130793702D01*
X163830000Y-130782573D01*
X163850820Y-130793702D01*
X163970518Y-130830012D01*
X164095000Y-130842272D01*
X164835000Y-130842272D01*
X164959482Y-130830012D01*
X165079180Y-130793702D01*
X165189494Y-130734737D01*
X165286185Y-130655385D01*
X165365537Y-130558694D01*
X165424502Y-130448380D01*
X165460812Y-130328682D01*
X165473072Y-130204200D01*
X165473072Y-129668766D01*
X165498800Y-129671300D01*
X165542460Y-129667000D01*
X170319765Y-129667000D01*
X177109459Y-136456695D01*
X177109465Y-136456704D01*
X177140497Y-136487736D01*
X177168337Y-136521659D01*
X177202259Y-136549498D01*
X177233292Y-136580531D01*
X177269785Y-136604915D01*
X177303706Y-136632753D01*
X177342407Y-136653439D01*
X177378897Y-136677821D01*
X177419444Y-136694616D01*
X177458146Y-136715303D01*
X177500136Y-136728040D01*
X177540684Y-136744836D01*
X177583736Y-136753400D01*
X177625723Y-136766136D01*
X177669386Y-136770437D01*
X177712437Y-136779000D01*
X177756329Y-136779000D01*
X177799996Y-136783301D01*
X177843663Y-136779000D01*
X177887555Y-136779000D01*
X177930605Y-136770437D01*
X177974270Y-136766136D01*
X178016259Y-136753399D01*
X178059308Y-136744836D01*
X178099853Y-136728041D01*
X178141847Y-136715303D01*
X178180553Y-136694614D01*
X178221095Y-136677821D01*
X178257581Y-136653442D01*
X178296287Y-136632753D01*
X178330211Y-136604912D01*
X178366700Y-136580531D01*
X178397732Y-136549499D01*
X178431655Y-136521659D01*
X178448864Y-136500690D01*
X178689001Y-136740827D01*
X178689000Y-140093764D01*
X177431765Y-141351000D01*
X168445663Y-141351000D01*
X168402003Y-141346700D01*
X168358343Y-141351000D01*
X168358337Y-141351000D01*
X168260928Y-141360594D01*
X168227728Y-141363864D01*
X168126062Y-141394704D01*
X168060153Y-141414697D01*
X168060151Y-141414698D01*
X168053204Y-141418411D01*
X167905713Y-141497247D01*
X167770345Y-141608341D01*
X167742510Y-141642258D01*
X165295296Y-144089473D01*
X165171469Y-144213300D01*
X165147084Y-144249794D01*
X165119248Y-144283713D01*
X165098563Y-144322412D01*
X165074179Y-144358905D01*
X165057384Y-144399452D01*
X165036698Y-144438152D01*
X165023961Y-144480142D01*
X165007164Y-144520692D01*
X164998601Y-144563743D01*
X164985864Y-144605730D01*
X164981564Y-144649392D01*
X164973000Y-144692445D01*
X164973000Y-144736344D01*
X164968700Y-144780004D01*
X164973000Y-144823664D01*
X164973000Y-144867563D01*
X164981564Y-144910616D01*
X164985864Y-144954278D01*
X164998601Y-144996265D01*
X165007164Y-145039316D01*
X165023961Y-145079866D01*
X165036698Y-145121856D01*
X165057384Y-145160556D01*
X165074179Y-145201103D01*
X165098563Y-145237596D01*
X165119248Y-145276295D01*
X165147085Y-145310215D01*
X165171469Y-145346708D01*
X165202503Y-145377742D01*
X165230341Y-145411663D01*
X165264262Y-145439501D01*
X165295296Y-145470535D01*
X165331789Y-145494919D01*
X165365709Y-145522756D01*
X165404408Y-145543441D01*
X165440901Y-145567825D01*
X165481448Y-145584620D01*
X165520148Y-145605306D01*
X165562138Y-145618043D01*
X165602688Y-145634840D01*
X165645739Y-145643403D01*
X165687726Y-145656140D01*
X165731388Y-145660440D01*
X165774441Y-145669004D01*
X165818340Y-145669004D01*
X165862000Y-145673304D01*
X165905660Y-145669004D01*
X165949559Y-145669004D01*
X165992612Y-145660440D01*
X166036274Y-145656140D01*
X166078261Y-145643403D01*
X166121312Y-145634840D01*
X166161862Y-145618043D01*
X166203852Y-145605306D01*
X166242552Y-145584620D01*
X166283099Y-145567825D01*
X166319592Y-145543441D01*
X166358291Y-145522756D01*
X166392210Y-145494920D01*
X166428704Y-145470535D01*
X166552531Y-145346708D01*
X168393408Y-143505832D01*
X168236246Y-143741042D01*
X168070904Y-144140213D01*
X167986613Y-144563970D01*
X167986613Y-144996030D01*
X168070904Y-145419787D01*
X168236246Y-145818958D01*
X168476285Y-146178203D01*
X168781797Y-146483715D01*
X169141042Y-146723754D01*
X169540213Y-146889096D01*
X169963970Y-146973387D01*
X170396030Y-146973387D01*
X170819787Y-146889096D01*
X171218958Y-146723754D01*
X171578203Y-146483715D01*
X171883715Y-146178203D01*
X172123754Y-145818958D01*
X172289096Y-145419787D01*
X172373387Y-144996030D01*
X172373387Y-144563970D01*
X172289096Y-144140213D01*
X172123754Y-143741042D01*
X171883715Y-143381797D01*
X171630918Y-143129000D01*
X177756340Y-143129000D01*
X177800000Y-143133300D01*
X177843660Y-143129000D01*
X177843667Y-143129000D01*
X177974274Y-143116136D01*
X178141851Y-143065303D01*
X178296291Y-142982753D01*
X178431659Y-142871659D01*
X178459499Y-142837736D01*
X180175743Y-141121493D01*
X180209659Y-141093659D01*
X180245072Y-141050509D01*
X180292480Y-140992742D01*
X180320753Y-140958291D01*
X180403303Y-140803851D01*
X180450616Y-140647879D01*
X180454136Y-140636275D01*
X180456391Y-140613383D01*
X180467000Y-140505667D01*
X180467000Y-140505660D01*
X180471300Y-140462000D01*
X180467000Y-140418340D01*
X180467000Y-136416250D01*
X180471300Y-136372590D01*
X180467000Y-136328930D01*
X180467000Y-136328923D01*
X180454136Y-136198316D01*
X180454032Y-136197971D01*
X180430050Y-136118915D01*
X180403303Y-136030739D01*
X180320753Y-135876299D01*
X180209659Y-135740931D01*
X180175742Y-135713096D01*
X172060444Y-127597799D01*
X171775409Y-127312764D01*
X171738915Y-127288379D01*
X171704996Y-127260543D01*
X171666297Y-127239858D01*
X171629804Y-127215474D01*
X171589257Y-127198679D01*
X171550557Y-127177993D01*
X171508567Y-127165256D01*
X171468017Y-127148459D01*
X171424966Y-127139896D01*
X171382979Y-127127159D01*
X171339317Y-127122859D01*
X171296264Y-127114295D01*
X171252365Y-127114295D01*
X171208705Y-127109995D01*
X171165045Y-127114295D01*
X171121146Y-127114295D01*
X171078093Y-127122859D01*
X171034431Y-127127159D01*
X170992444Y-127139896D01*
X170949393Y-127148459D01*
X170908843Y-127165256D01*
X170866853Y-127177993D01*
X170828153Y-127198679D01*
X170787606Y-127215474D01*
X170751113Y-127239858D01*
X170712414Y-127260543D01*
X170678494Y-127288380D01*
X170642001Y-127312764D01*
X170610967Y-127343798D01*
X170577046Y-127371636D01*
X170549208Y-127405557D01*
X170518174Y-127436591D01*
X170493790Y-127473084D01*
X170465953Y-127507004D01*
X170445268Y-127545703D01*
X170420884Y-127582196D01*
X170404089Y-127622743D01*
X170383403Y-127661443D01*
X170370666Y-127703433D01*
X170353869Y-127743983D01*
X170345306Y-127787034D01*
X170332569Y-127829021D01*
X170328269Y-127872683D01*
X170325023Y-127889000D01*
X169714431Y-127889000D01*
X169764836Y-127767312D01*
X169799000Y-127595559D01*
X169799000Y-127420441D01*
X169764836Y-127248688D01*
X169697821Y-127086901D01*
X169600531Y-126941296D01*
X169476704Y-126817469D01*
X169331099Y-126720179D01*
X169169312Y-126653164D01*
X169123726Y-126644096D01*
X169062400Y-126582770D01*
X169062400Y-120252373D01*
X169066086Y-120214950D01*
X169058704Y-120140001D01*
X169051374Y-120065572D01*
X169007802Y-119921935D01*
X168965005Y-119841868D01*
X168937045Y-119789557D01*
X168897657Y-119741564D01*
X168841822Y-119673528D01*
X168812747Y-119649667D01*
X168606580Y-119443500D01*
X169595860Y-119443500D01*
X169666688Y-119472838D01*
X169838441Y-119507002D01*
X170013559Y-119507002D01*
X170185312Y-119472838D01*
X170347099Y-119405823D01*
X170492704Y-119308533D01*
X170616531Y-119184706D01*
X170713821Y-119039101D01*
X170780836Y-118877314D01*
X170815000Y-118705561D01*
X170815000Y-118530443D01*
X170780836Y-118358690D01*
X170713821Y-118196903D01*
X170616531Y-118051298D01*
X170492704Y-117927471D01*
X170347099Y-117830181D01*
X170185312Y-117763166D01*
X170013559Y-117729002D01*
X169838441Y-117729002D01*
X169666688Y-117763166D01*
X169595870Y-117792500D01*
X168224135Y-117792500D01*
X168153312Y-117763164D01*
X167981559Y-117729000D01*
X167806441Y-117729000D01*
X167634688Y-117763164D01*
X167472901Y-117830179D01*
X167327296Y-117927469D01*
X167208923Y-118045843D01*
X167192524Y-118029444D01*
X167168662Y-118000368D01*
X167052632Y-117905145D01*
X166920255Y-117834388D01*
X166776618Y-117790816D01*
X166664666Y-117779790D01*
X166664663Y-117779790D01*
X166627240Y-117776104D01*
X166589817Y-117779790D01*
X165580720Y-117779790D01*
X162610810Y-114809880D01*
X162610810Y-112889633D01*
X162614496Y-112852210D01*
X162610810Y-112814784D01*
X162599784Y-112702832D01*
X162556212Y-112559195D01*
X162498079Y-112450436D01*
X162485455Y-112426817D01*
X162414089Y-112339858D01*
X162390232Y-112310788D01*
X162361163Y-112286932D01*
X161492672Y-111418441D01*
X163957000Y-111418441D01*
X163957000Y-111593559D01*
X163991164Y-111765312D01*
X164058179Y-111927099D01*
X164155469Y-112072704D01*
X164279296Y-112196531D01*
X164424901Y-112293821D01*
X164586688Y-112360836D01*
X164758441Y-112395000D01*
X164933559Y-112395000D01*
X165105312Y-112360836D01*
X165267099Y-112293821D01*
X165412704Y-112196531D01*
X165536531Y-112072704D01*
X165633821Y-111927099D01*
X165700836Y-111765312D01*
X165735000Y-111593559D01*
X165735000Y-111418441D01*
X165700836Y-111246688D01*
X165633821Y-111084901D01*
X165608000Y-111046257D01*
X165608000Y-109003970D01*
X167986613Y-109003970D01*
X167986613Y-109436030D01*
X168070904Y-109859787D01*
X168236246Y-110258958D01*
X168476285Y-110618203D01*
X168781797Y-110923715D01*
X169141042Y-111163754D01*
X169540213Y-111329096D01*
X169963970Y-111413387D01*
X170396030Y-111413387D01*
X170819787Y-111329096D01*
X171218958Y-111163754D01*
X171578203Y-110923715D01*
X171883715Y-110618203D01*
X172123754Y-110258958D01*
X172289096Y-109859787D01*
X172373387Y-109436030D01*
X172373387Y-109003970D01*
X172289096Y-108580213D01*
X172123754Y-108181042D01*
X171883715Y-107821797D01*
X171578203Y-107516285D01*
X171218958Y-107276246D01*
X170819787Y-107110904D01*
X170396030Y-107026613D01*
X169963970Y-107026613D01*
X169540213Y-107110904D01*
X169141042Y-107276246D01*
X168781797Y-107516285D01*
X168476285Y-107821797D01*
X168236246Y-108181042D01*
X168070904Y-108580213D01*
X167986613Y-109003970D01*
X165608000Y-109003970D01*
X165608000Y-105217630D01*
X169422353Y-101403278D01*
X169451422Y-101379422D01*
X169505005Y-101314131D01*
X169546645Y-101263393D01*
X169595491Y-101172008D01*
X169617402Y-101131015D01*
X169660974Y-100987378D01*
X169672000Y-100875426D01*
X169672000Y-100875423D01*
X169675686Y-100838000D01*
X169672000Y-100800577D01*
X169672000Y-97995743D01*
X169697821Y-97957099D01*
X169764836Y-97795312D01*
X169799000Y-97623559D01*
X169799000Y-97448441D01*
X169764836Y-97276688D01*
X169697821Y-97114901D01*
X169600531Y-96969296D01*
X169476704Y-96845469D01*
X169331099Y-96748179D01*
X169169312Y-96681164D01*
X168997559Y-96647000D01*
X168822441Y-96647000D01*
X168650688Y-96681164D01*
X168488901Y-96748179D01*
X168343296Y-96845469D01*
X168219469Y-96969296D01*
X168122179Y-97114901D01*
X168055164Y-97276688D01*
X168021000Y-97448441D01*
X168021000Y-97623559D01*
X168055164Y-97795312D01*
X168122179Y-97957099D01*
X168148001Y-97995744D01*
X168148000Y-100522369D01*
X164333649Y-104336721D01*
X164304579Y-104360578D01*
X164280722Y-104389648D01*
X164280721Y-104389649D01*
X164209355Y-104476608D01*
X164138599Y-104608985D01*
X164095027Y-104752622D01*
X164080314Y-104902000D01*
X164084001Y-104939433D01*
X164084000Y-111046257D01*
X164058179Y-111084901D01*
X163991164Y-111246688D01*
X163957000Y-111418441D01*
X161492672Y-111418441D01*
X156489410Y-106415180D01*
X156489410Y-99519733D01*
X156515231Y-99481089D01*
X156582246Y-99319302D01*
X156616410Y-99147549D01*
X156616410Y-98972431D01*
X156582246Y-98800678D01*
X156515231Y-98638891D01*
X156417941Y-98493286D01*
X156294114Y-98369459D01*
X156148509Y-98272169D01*
X155986722Y-98205154D01*
X155829002Y-98173781D01*
X155829002Y-98122741D01*
X155854823Y-98084097D01*
X155921838Y-97922310D01*
X155956002Y-97750557D01*
X155956002Y-97575439D01*
X155921838Y-97403686D01*
X155854823Y-97241899D01*
X155757533Y-97096294D01*
X155633706Y-96972467D01*
X155488101Y-96875177D01*
X155326314Y-96808162D01*
X155154561Y-96773998D01*
X154979443Y-96773998D01*
X154807690Y-96808162D01*
X154645903Y-96875177D01*
X154500298Y-96972467D01*
X154376471Y-97096294D01*
X154279181Y-97241899D01*
X154212166Y-97403686D01*
X154178002Y-97575439D01*
X154178002Y-97750557D01*
X154212166Y-97922310D01*
X154279181Y-98084097D01*
X154305002Y-98122741D01*
X154305003Y-99352769D01*
X154301316Y-99390202D01*
X154316029Y-99539580D01*
X154359601Y-99683217D01*
X154430357Y-99815594D01*
X154472122Y-99866484D01*
X154525581Y-99931624D01*
X154554651Y-99955481D01*
X154559000Y-99959830D01*
X154559002Y-106861718D01*
X154555315Y-106899151D01*
X154570028Y-107048529D01*
X154613600Y-107192166D01*
X154684356Y-107324543D01*
X154733837Y-107384835D01*
X154779580Y-107440573D01*
X154808650Y-107464430D01*
X155924340Y-108580120D01*
X155876681Y-108651447D01*
X155809666Y-108813234D01*
X155775502Y-108984987D01*
X155775502Y-109160105D01*
X155809666Y-109331858D01*
X155876681Y-109493645D01*
X155973971Y-109639250D01*
X156097798Y-109763077D01*
X156243403Y-109860367D01*
X156405190Y-109927382D01*
X156576943Y-109961546D01*
X156752061Y-109961546D01*
X156923814Y-109927382D01*
X157085601Y-109860367D01*
X157156928Y-109812708D01*
X160642300Y-113298081D01*
X160642301Y-115265867D01*
X160638614Y-115303300D01*
X160653327Y-115452678D01*
X160696899Y-115596315D01*
X160767655Y-115728692D01*
X160839021Y-115815651D01*
X160862879Y-115844722D01*
X160891949Y-115868579D01*
X164483920Y-119460551D01*
X164507778Y-119489622D01*
X164623808Y-119584845D01*
X164756185Y-119655602D01*
X164899822Y-119699174D01*
X165011774Y-119710200D01*
X165011776Y-119710200D01*
X165049199Y-119713886D01*
X165086622Y-119710200D01*
X166143270Y-119710200D01*
X167131991Y-120698922D01*
X167131989Y-126148095D01*
X167130799Y-126146314D01*
X166937886Y-125953401D01*
X166711043Y-125801829D01*
X166458989Y-125697425D01*
X166191411Y-125644200D01*
X165918589Y-125644200D01*
X165651011Y-125697425D01*
X165470451Y-125772215D01*
X165470000Y-125599950D01*
X165311250Y-125441200D01*
X164592000Y-125441200D01*
X164592000Y-125461200D01*
X164338000Y-125461200D01*
X164338000Y-125441200D01*
X164318000Y-125441200D01*
X164318000Y-125187200D01*
X164338000Y-125187200D01*
X164338000Y-123377950D01*
X164592000Y-123377950D01*
X164592000Y-125187200D01*
X165311250Y-125187200D01*
X165470000Y-125028450D01*
X165473072Y-123854200D01*
X165460812Y-123729718D01*
X165424502Y-123610020D01*
X165365537Y-123499706D01*
X165286185Y-123403015D01*
X165189494Y-123323663D01*
X165079180Y-123264698D01*
X164959482Y-123228388D01*
X164835000Y-123216128D01*
X164750750Y-123219200D01*
X164592000Y-123377950D01*
X164338000Y-123377950D01*
X164179250Y-123219200D01*
X164095000Y-123216128D01*
X163970518Y-123228388D01*
X163850820Y-123264698D01*
X163830000Y-123275827D01*
X163809180Y-123264698D01*
X163689482Y-123228388D01*
X163565000Y-123216128D01*
X162825000Y-123216128D01*
X162700518Y-123228388D01*
X162580820Y-123264698D01*
X162560000Y-123275827D01*
X162539180Y-123264698D01*
X162419482Y-123228388D01*
X162295000Y-123216128D01*
X162210750Y-123219200D01*
X162052000Y-123377950D01*
X162052000Y-125187200D01*
X162072000Y-125187200D01*
X162072000Y-125441200D01*
X162052000Y-125441200D01*
X162052000Y-125461200D01*
X161798000Y-125461200D01*
X161798000Y-125441200D01*
X161778000Y-125441200D01*
X161778000Y-125187200D01*
X161798000Y-125187200D01*
X161798000Y-123377950D01*
X161639250Y-123219200D01*
X161555000Y-123216128D01*
X161430518Y-123228388D01*
X161310820Y-123264698D01*
X161290000Y-123275827D01*
X161269180Y-123264698D01*
X161149482Y-123228388D01*
X161025000Y-123216128D01*
X160285000Y-123216128D01*
X160160518Y-123228388D01*
X160040820Y-123264698D01*
X160020000Y-123275827D01*
X159999180Y-123264698D01*
X159879482Y-123228388D01*
X159755000Y-123216128D01*
X159015000Y-123216128D01*
X158890518Y-123228388D01*
X158770820Y-123264698D01*
X158750000Y-123275827D01*
X158729180Y-123264698D01*
X158609482Y-123228388D01*
X158485000Y-123216128D01*
X157745000Y-123216128D01*
X157620518Y-123228388D01*
X157500820Y-123264698D01*
X157480000Y-123275827D01*
X157459180Y-123264698D01*
X157339482Y-123228388D01*
X157215000Y-123216128D01*
X156910969Y-123216128D01*
X155610494Y-121915654D01*
X155586632Y-121886578D01*
X155470602Y-121791355D01*
X155338225Y-121720598D01*
X155194588Y-121677026D01*
X155156653Y-121673290D01*
X155107099Y-121640179D01*
X154945312Y-121573164D01*
X154773559Y-121539000D01*
X154598441Y-121539000D01*
X154426688Y-121573164D01*
X154264901Y-121640179D01*
X154119296Y-121737469D01*
X154088198Y-121768567D01*
X153701884Y-121382254D01*
X153678022Y-121353178D01*
X153561992Y-121257955D01*
X153429615Y-121187198D01*
X153285978Y-121143626D01*
X153174026Y-121132600D01*
X153174023Y-121132600D01*
X153136600Y-121128914D01*
X153099177Y-121132600D01*
X136965597Y-121132600D01*
X137624656Y-120473541D01*
X157619700Y-120473541D01*
X157619700Y-120648659D01*
X157653864Y-120820412D01*
X157720879Y-120982199D01*
X157818169Y-121127804D01*
X157941996Y-121251631D01*
X158087601Y-121348921D01*
X158249388Y-121415936D01*
X158421141Y-121450100D01*
X158596259Y-121450100D01*
X158768012Y-121415936D01*
X158929799Y-121348921D01*
X159075404Y-121251631D01*
X159199231Y-121127804D01*
X159296521Y-120982199D01*
X159363536Y-120820412D01*
X159397700Y-120648659D01*
X159397700Y-120473541D01*
X159363536Y-120301788D01*
X159296521Y-120140001D01*
X159199231Y-119994396D01*
X159075404Y-119870569D01*
X158929799Y-119773279D01*
X158768012Y-119706264D01*
X158596259Y-119672100D01*
X158421141Y-119672100D01*
X158249388Y-119706264D01*
X158087601Y-119773279D01*
X157941996Y-119870569D01*
X157818169Y-119994396D01*
X157720879Y-120140001D01*
X157653864Y-120301788D01*
X157619700Y-120473541D01*
X137624656Y-120473541D01*
X138464197Y-119634000D01*
X142034261Y-119634000D01*
X142072905Y-119659821D01*
X142234692Y-119726836D01*
X142406445Y-119761000D01*
X142581563Y-119761000D01*
X142753316Y-119726836D01*
X142915103Y-119659821D01*
X143060708Y-119562531D01*
X143184535Y-119438704D01*
X143281825Y-119293099D01*
X143348840Y-119131312D01*
X143380202Y-118973644D01*
X146672933Y-118973644D01*
X146710356Y-118977330D01*
X146747779Y-118973644D01*
X146747782Y-118973644D01*
X146859734Y-118962618D01*
X147003371Y-118919046D01*
X147135748Y-118848289D01*
X147251778Y-118753066D01*
X147275640Y-118723990D01*
X149057727Y-116941903D01*
X149103312Y-116932836D01*
X149265099Y-116865821D01*
X149410704Y-116768531D01*
X149534531Y-116644704D01*
X149631821Y-116499099D01*
X149698836Y-116337312D01*
X149733000Y-116165559D01*
X149733000Y-115990441D01*
X149698836Y-115818688D01*
X149631821Y-115656901D01*
X149534531Y-115511296D01*
X149410704Y-115387469D01*
X149265099Y-115290179D01*
X149103312Y-115223164D01*
X148931559Y-115189000D01*
X148756441Y-115189000D01*
X148584688Y-115223164D01*
X148422901Y-115290179D01*
X148277296Y-115387469D01*
X148209000Y-115455765D01*
X148140704Y-115387469D01*
X147995099Y-115290179D01*
X147833312Y-115223164D01*
X147661559Y-115189000D01*
X147486441Y-115189000D01*
X147314688Y-115223164D01*
X147152901Y-115290179D01*
X147007296Y-115387469D01*
X146883469Y-115511296D01*
X146786179Y-115656901D01*
X146719164Y-115818688D01*
X146710097Y-115864273D01*
X145531137Y-117043233D01*
X143876398Y-117043233D01*
X143977727Y-116941903D01*
X144023312Y-116932836D01*
X144185099Y-116865821D01*
X144330704Y-116768531D01*
X144454531Y-116644704D01*
X144551821Y-116499099D01*
X144618836Y-116337312D01*
X144653000Y-116165559D01*
X144653000Y-115990441D01*
X144618836Y-115818688D01*
X144551821Y-115656901D01*
X144454531Y-115511296D01*
X144330704Y-115387469D01*
X144185099Y-115290179D01*
X144023312Y-115223164D01*
X143851559Y-115189000D01*
X143676441Y-115189000D01*
X143504688Y-115223164D01*
X143342901Y-115290179D01*
X143197296Y-115387469D01*
X143073469Y-115511296D01*
X142976179Y-115656901D01*
X142909164Y-115818688D01*
X142900097Y-115864273D01*
X142127548Y-116636822D01*
X141919798Y-116636822D01*
X142011821Y-116499099D01*
X142078836Y-116337312D01*
X142113000Y-116165559D01*
X142113000Y-115990441D01*
X142078836Y-115818688D01*
X142011821Y-115656901D01*
X141914531Y-115511296D01*
X141790704Y-115387469D01*
X141645099Y-115290179D01*
X141483312Y-115223164D01*
X141311559Y-115189000D01*
X141136441Y-115189000D01*
X140964688Y-115223164D01*
X140802901Y-115290179D01*
X140657296Y-115387469D01*
X140589000Y-115455765D01*
X140520704Y-115387469D01*
X140375099Y-115290179D01*
X140213312Y-115223164D01*
X140041559Y-115189000D01*
X139866441Y-115189000D01*
X139694688Y-115223164D01*
X139532901Y-115290179D01*
X139494257Y-115316000D01*
X138904228Y-115316000D01*
X138942352Y-115277876D01*
X138971422Y-115254019D01*
X139046172Y-115162936D01*
X139066645Y-115137990D01*
X139104465Y-115067233D01*
X139137402Y-115005612D01*
X139180974Y-114861975D01*
X139192000Y-114750023D01*
X139192000Y-114750020D01*
X139195686Y-114712597D01*
X139192000Y-114675174D01*
X139192000Y-108155743D01*
X139217821Y-108117099D01*
X139284836Y-107955312D01*
X139319000Y-107783559D01*
X139319000Y-107608441D01*
X139284836Y-107436688D01*
X139217821Y-107274901D01*
X139120531Y-107129296D01*
X138996704Y-107005469D01*
X138851099Y-106908179D01*
X138689312Y-106841164D01*
X138517559Y-106807000D01*
X138342441Y-106807000D01*
X138170688Y-106841164D01*
X138008901Y-106908179D01*
X137863296Y-107005469D01*
X137739469Y-107129296D01*
X137642179Y-107274901D01*
X137575164Y-107436688D01*
X137541000Y-107608441D01*
X137541000Y-107783559D01*
X137575164Y-107955312D01*
X137642179Y-108117099D01*
X137668000Y-108155743D01*
X137668001Y-114396965D01*
X131749813Y-120315154D01*
X131749813Y-108995890D01*
X132344573Y-108995890D01*
X132344573Y-109444110D01*
X132432016Y-109883718D01*
X132603543Y-110297819D01*
X132852560Y-110670500D01*
X133169500Y-110987440D01*
X133542181Y-111236457D01*
X133956282Y-111407984D01*
X134395890Y-111495427D01*
X134844110Y-111495427D01*
X135283718Y-111407984D01*
X135697819Y-111236457D01*
X136070500Y-110987440D01*
X136387440Y-110670500D01*
X136636457Y-110297819D01*
X136807984Y-109883718D01*
X136895427Y-109444110D01*
X136895427Y-108995890D01*
X136807984Y-108556282D01*
X136636457Y-108142181D01*
X136387440Y-107769500D01*
X136070500Y-107452560D01*
X135697819Y-107203543D01*
X135283718Y-107032016D01*
X134844110Y-106944573D01*
X134395890Y-106944573D01*
X133956282Y-107032016D01*
X133542181Y-107203543D01*
X133169500Y-107452560D01*
X132852560Y-107769500D01*
X132603543Y-108142181D01*
X132432016Y-108556282D01*
X132344573Y-108995890D01*
X131749813Y-108995890D01*
X131749813Y-106055817D01*
X135164221Y-102641410D01*
X135538781Y-102641410D01*
X135530464Y-102661488D01*
X135496300Y-102833241D01*
X135496300Y-103008359D01*
X135530464Y-103180112D01*
X135597479Y-103341899D01*
X135694769Y-103487504D01*
X135818596Y-103611331D01*
X135964201Y-103708621D01*
X136125988Y-103775636D01*
X136297741Y-103809800D01*
X136472859Y-103809800D01*
X136644612Y-103775636D01*
X136806399Y-103708621D01*
X136952004Y-103611331D01*
X137075831Y-103487504D01*
X137173121Y-103341899D01*
X137240136Y-103180112D01*
X137274300Y-103008359D01*
X137274300Y-102833241D01*
X137240136Y-102661488D01*
X137231819Y-102641410D01*
X142165079Y-102641410D01*
X142203723Y-102667231D01*
X142365510Y-102734246D01*
X142537263Y-102768410D01*
X142712381Y-102768410D01*
X142881219Y-102734826D01*
X142909164Y-102875312D01*
X142976179Y-103037099D01*
X143073469Y-103182704D01*
X143197296Y-103306531D01*
X143342901Y-103403821D01*
X143504688Y-103470836D01*
X143676441Y-103505000D01*
X143851559Y-103505000D01*
X144023312Y-103470836D01*
X144185099Y-103403821D01*
X144330704Y-103306531D01*
X144454531Y-103182704D01*
X144551821Y-103037099D01*
X144618836Y-102875312D01*
X144653000Y-102703559D01*
X144653000Y-102528441D01*
X144618836Y-102356688D01*
X144551821Y-102194901D01*
X144526000Y-102156257D01*
X144526000Y-102145422D01*
X144529686Y-102107999D01*
X144523904Y-102049296D01*
X144514974Y-101958622D01*
X144471402Y-101814985D01*
X144400645Y-101682608D01*
X144305422Y-101566578D01*
X144276353Y-101542722D01*
X143554584Y-100820953D01*
X143530722Y-100791878D01*
X143414692Y-100696655D01*
X143282315Y-100625898D01*
X143138678Y-100582326D01*
X143026726Y-100571300D01*
X143026723Y-100571300D01*
X142989300Y-100567614D01*
X142951877Y-100571300D01*
X134857372Y-100571300D01*
X134819949Y-100567614D01*
X134782526Y-100571300D01*
X134782523Y-100571300D01*
X134670571Y-100582326D01*
X134526934Y-100625898D01*
X134465313Y-100658835D01*
X134394556Y-100696655D01*
X134352168Y-100731443D01*
X134278527Y-100791878D01*
X134254665Y-100820954D01*
X130069051Y-105006568D01*
X130039981Y-105030425D01*
X130016124Y-105059495D01*
X130016123Y-105059496D01*
X129944757Y-105146455D01*
X129874001Y-105278832D01*
X129830429Y-105422469D01*
X129815716Y-105571847D01*
X129819403Y-105609280D01*
X129819402Y-126139059D01*
X129788683Y-126145169D01*
X129626896Y-126212184D01*
X129481291Y-126309474D01*
X129357464Y-126433301D01*
X129260174Y-126578906D01*
X129193159Y-126740693D01*
X129158995Y-126912446D01*
X122171492Y-126912446D01*
X122140857Y-126875119D01*
X122080422Y-126801478D01*
X122051347Y-126777617D01*
X120180100Y-124906370D01*
X120180100Y-121995523D01*
X120183786Y-121958100D01*
X120180100Y-121920674D01*
X120169074Y-121808722D01*
X120125502Y-121665085D01*
X120072821Y-121566526D01*
X120054745Y-121532707D01*
X119983379Y-121445748D01*
X119959522Y-121416678D01*
X119930453Y-121392822D01*
X119598072Y-121060441D01*
X119598072Y-119800000D01*
X119585812Y-119675518D01*
X119549502Y-119555820D01*
X119490537Y-119445506D01*
X119411185Y-119348815D01*
X119314494Y-119269463D01*
X119204180Y-119210498D01*
X119084482Y-119174188D01*
X118960000Y-119161928D01*
X117260000Y-119161928D01*
X117135518Y-119174188D01*
X117015820Y-119210498D01*
X116905506Y-119269463D01*
X116808815Y-119348815D01*
X116729463Y-119445506D01*
X116670498Y-119555820D01*
X116634188Y-119675518D01*
X116621928Y-119800000D01*
X116621928Y-121500000D01*
X116634188Y-121624482D01*
X116670498Y-121744180D01*
X116729463Y-121854494D01*
X116808815Y-121951185D01*
X116905506Y-122030537D01*
X117015820Y-122089502D01*
X117084687Y-122110393D01*
X117054866Y-122134866D01*
X116869294Y-122360986D01*
X116731401Y-122618966D01*
X116646487Y-122898889D01*
X116617815Y-123190000D01*
X115180426Y-123190000D01*
X115432844Y-121167889D01*
X115886259Y-118794465D01*
X116491887Y-116455259D01*
X117247207Y-114160013D01*
X118149076Y-111918279D01*
X119193728Y-109739419D01*
X120376803Y-107632527D01*
X121693382Y-105606361D01*
X123137965Y-103669390D01*
X124704540Y-101829667D01*
X126386555Y-100094892D01*
X128177047Y-98472247D01*
X130068492Y-96968552D01*
X132053035Y-95590048D01*
X134122402Y-94342481D01*
X136267972Y-93231053D01*
X138480769Y-92260410D01*
X140751624Y-91434575D01*
X143071005Y-90757014D01*
X145429304Y-90230535D01*
X147816650Y-89857343D01*
X150223118Y-89638986D01*
X152638624Y-89576382D01*
X155053169Y-89669787D01*
X155053169Y-89669787D01*
G37*
X155053169Y-89669787D02*
X157456648Y-89918813D01*
X159839047Y-90322423D01*
X162190426Y-90878930D01*
X164500981Y-91586015D01*
X166761110Y-92440737D01*
X168961372Y-93439530D01*
X171092581Y-94578224D01*
X173145879Y-95852083D01*
X175112682Y-97255788D01*
X176984802Y-98783486D01*
X178754431Y-100428811D01*
X180414195Y-102184902D01*
X181957189Y-104044463D01*
X183376949Y-105999696D01*
X184667581Y-108042485D01*
X185823697Y-110164305D01*
X186840473Y-112356300D01*
X187713680Y-114609353D01*
X188439666Y-116914037D01*
X189015417Y-119260794D01*
X189370978Y-121260000D01*
X177832419Y-121260000D01*
X177800000Y-121256807D01*
X177767581Y-121260000D01*
X177670617Y-121269550D01*
X177546207Y-121307290D01*
X177431550Y-121368575D01*
X177331052Y-121451052D01*
X177248575Y-121551550D01*
X177187290Y-121666207D01*
X177149550Y-121790617D01*
X177136807Y-121920000D01*
X177140000Y-121952419D01*
X177140000Y-125232849D01*
X177093529Y-125163300D01*
X176969702Y-125039473D01*
X176824097Y-124942183D01*
X176662310Y-124875168D01*
X176490557Y-124841004D01*
X176315439Y-124841004D01*
X176143686Y-124875168D01*
X175981899Y-124942183D01*
X175836294Y-125039473D01*
X175712467Y-125163300D01*
X175615177Y-125308905D01*
X175548162Y-125470692D01*
X175513998Y-125642445D01*
X175513998Y-125817563D01*
X175548162Y-125989316D01*
X175615177Y-126151103D01*
X175712467Y-126296708D01*
X175836294Y-126420535D01*
X175981899Y-126517825D01*
X176143686Y-126584840D01*
X176315439Y-126619004D01*
X176490557Y-126619004D01*
X176662310Y-126584840D01*
X176824097Y-126517825D01*
X176969702Y-126420535D01*
X177093529Y-126296708D01*
X177140000Y-126227158D01*
X177140001Y-132047571D01*
X177136807Y-132080000D01*
X177149550Y-132209383D01*
X177187290Y-132333793D01*
X177248575Y-132448450D01*
X177331052Y-132548948D01*
X177431550Y-132631425D01*
X177546207Y-132692710D01*
X177670617Y-132730450D01*
X177767581Y-132740000D01*
X177800000Y-132743193D01*
X177832419Y-132740000D01*
X189364565Y-132740000D01*
X189090508Y-134375008D01*
X188538103Y-136727362D01*
X187835045Y-139039174D01*
X186984275Y-141300771D01*
X185989328Y-143502763D01*
X184854358Y-145635953D01*
X183584084Y-147691473D01*
X182183813Y-149660729D01*
X180659387Y-151535508D01*
X179017145Y-153308016D01*
X177263944Y-154970849D01*
X175407095Y-156517075D01*
X173454326Y-157940257D01*
X171413804Y-159234445D01*
X169294022Y-160394253D01*
X167103780Y-161414866D01*
X165925619Y-161873848D01*
X165954836Y-161803312D01*
X165989000Y-161631559D01*
X165989000Y-161456441D01*
X165954836Y-161284688D01*
X165887821Y-161122901D01*
X165790531Y-160977296D01*
X165666704Y-160853469D01*
X165521099Y-160756179D01*
X165359312Y-160689164D01*
X165187559Y-160655000D01*
X165012441Y-160655000D01*
X164840688Y-160689164D01*
X164678901Y-160756179D01*
X164533296Y-160853469D01*
X164409469Y-160977296D01*
X164312179Y-161122901D01*
X164245164Y-161284688D01*
X164211000Y-161456441D01*
X164211000Y-161631559D01*
X164245164Y-161803312D01*
X164312179Y-161965099D01*
X164409469Y-162110704D01*
X164533296Y-162234531D01*
X164678901Y-162331821D01*
X164699583Y-162340388D01*
X162548839Y-163022010D01*
X160203103Y-163601855D01*
X157824836Y-164029115D01*
X155423968Y-164302007D01*
X153010466Y-164419399D01*
X150594434Y-164380798D01*
X148185920Y-164186365D01*
X145795005Y-163836913D01*
X143431584Y-163333891D01*
X141105566Y-162679405D01*
X138826644Y-161876183D01*
X136604290Y-160927565D01*
X134447791Y-159837514D01*
X132366132Y-158610572D01*
X130367988Y-157251852D01*
X128461676Y-155767009D01*
X126655181Y-154162261D01*
X124956000Y-152444273D01*
X123371228Y-150620214D01*
X121907462Y-148697678D01*
X120570819Y-146684700D01*
X119366868Y-144589665D01*
X118300618Y-142421291D01*
X117376526Y-140188647D01*
X116598434Y-137901009D01*
X115969591Y-135567928D01*
X115492617Y-133199131D01*
X115169502Y-130804486D01*
X115001592Y-128393982D01*
X114989587Y-125977677D01*
X115133538Y-123565618D01*
X115180426Y-123190000D01*
X116617815Y-123190000D01*
X116646487Y-123481111D01*
X116731401Y-123761034D01*
X116869294Y-124019014D01*
X117054866Y-124245134D01*
X117280986Y-124430706D01*
X117335791Y-124460000D01*
X117280986Y-124489294D01*
X117054866Y-124674866D01*
X116869294Y-124900986D01*
X116731401Y-125158966D01*
X116646487Y-125438889D01*
X116617815Y-125730000D01*
X116646487Y-126021111D01*
X116731401Y-126301034D01*
X116869294Y-126559014D01*
X117054866Y-126785134D01*
X117280986Y-126970706D01*
X117335791Y-127000000D01*
X117280986Y-127029294D01*
X117054866Y-127214866D01*
X116869294Y-127440986D01*
X116731401Y-127698966D01*
X116646487Y-127978889D01*
X116617815Y-128270000D01*
X116646487Y-128561111D01*
X116731401Y-128841034D01*
X116869294Y-129099014D01*
X117054866Y-129325134D01*
X117280986Y-129510706D01*
X117335791Y-129540000D01*
X117280986Y-129569294D01*
X117054866Y-129754866D01*
X116869294Y-129980986D01*
X116731401Y-130238966D01*
X116646487Y-130518889D01*
X116617815Y-130810000D01*
X116646487Y-131101111D01*
X116731401Y-131381034D01*
X116869294Y-131639014D01*
X117054866Y-131865134D01*
X117280986Y-132050706D01*
X117335791Y-132080000D01*
X117280986Y-132109294D01*
X117054866Y-132294866D01*
X116869294Y-132520986D01*
X116731401Y-132778966D01*
X116646487Y-133058889D01*
X116617815Y-133350000D01*
X116646487Y-133641111D01*
X116731401Y-133921034D01*
X116869294Y-134179014D01*
X117054866Y-134405134D01*
X117280986Y-134590706D01*
X117538966Y-134728599D01*
X117818889Y-134813513D01*
X118037050Y-134835000D01*
X118182950Y-134835000D01*
X118401111Y-134813513D01*
X118681034Y-134728599D01*
X118939014Y-134590706D01*
X119165134Y-134405134D01*
X119350706Y-134179014D01*
X119488599Y-133921034D01*
X119573513Y-133641111D01*
X119602185Y-133350000D01*
X119573513Y-133058889D01*
X119488599Y-132778966D01*
X119350706Y-132520986D01*
X119165134Y-132294866D01*
X118939014Y-132109294D01*
X118884209Y-132080000D01*
X118939014Y-132050706D01*
X119165134Y-131865134D01*
X119350706Y-131639014D01*
X119488599Y-131381034D01*
X119573513Y-131101111D01*
X119602185Y-130810000D01*
X119573513Y-130518889D01*
X119488599Y-130238966D01*
X119350706Y-129980986D01*
X119165134Y-129754866D01*
X118939014Y-129569294D01*
X118884209Y-129540000D01*
X118939014Y-129510706D01*
X119165134Y-129325134D01*
X119350706Y-129099014D01*
X119488599Y-128841034D01*
X119573513Y-128561111D01*
X119602185Y-128270000D01*
X119573513Y-127978889D01*
X119488599Y-127698966D01*
X119350706Y-127440986D01*
X119165134Y-127214866D01*
X118939014Y-127029294D01*
X118884209Y-127000000D01*
X118939014Y-126970706D01*
X119165134Y-126785134D01*
X119221231Y-126716780D01*
X120222309Y-127717859D01*
X120178080Y-127736179D01*
X120032475Y-127833469D01*
X119908648Y-127957296D01*
X119811358Y-128102901D01*
X119744343Y-128264688D01*
X119710179Y-128436441D01*
X119710179Y-128611559D01*
X119744343Y-128783312D01*
X119811358Y-128945099D01*
X119837180Y-128983744D01*
X119837179Y-139050009D01*
X119833493Y-139087432D01*
X119837179Y-139124855D01*
X119837179Y-139124857D01*
X119848205Y-139236809D01*
X119891777Y-139380446D01*
X119903553Y-139402477D01*
X119962534Y-139512824D01*
X119998124Y-139556190D01*
X120057757Y-139628854D01*
X120086833Y-139652716D01*
X130400107Y-149965990D01*
X130423969Y-149995066D01*
X130474106Y-150036212D01*
X130539998Y-150090289D01*
X130595154Y-150119770D01*
X130672376Y-150161046D01*
X130816013Y-150204618D01*
X130927965Y-150215644D01*
X130927968Y-150215644D01*
X130965391Y-150219330D01*
X131002814Y-150215644D01*
X135658808Y-150215644D01*
X135664917Y-150246356D01*
X135731932Y-150408143D01*
X135757753Y-150446787D01*
X135757753Y-150833320D01*
X135754067Y-150870743D01*
X135757753Y-150908166D01*
X135757753Y-150908169D01*
X135768041Y-151012622D01*
X135768780Y-151020121D01*
X135812352Y-151163758D01*
X135883108Y-151296135D01*
X135950893Y-151378730D01*
X135978332Y-151412165D01*
X136007402Y-151436022D01*
X136854907Y-152283528D01*
X136863974Y-152329112D01*
X136930989Y-152490899D01*
X137028279Y-152636504D01*
X137152106Y-152760331D01*
X137297711Y-152857621D01*
X137459498Y-152924636D01*
X137631251Y-152958800D01*
X137806369Y-152958800D01*
X137978122Y-152924636D01*
X138139909Y-152857621D01*
X138285514Y-152760331D01*
X138409341Y-152636504D01*
X138506631Y-152490899D01*
X138573646Y-152329112D01*
X138607810Y-152157359D01*
X138607810Y-151982241D01*
X138573646Y-151810488D01*
X138506631Y-151648701D01*
X138409341Y-151503096D01*
X138285514Y-151379269D01*
X138139909Y-151281979D01*
X137978122Y-151214964D01*
X137932538Y-151205897D01*
X137281753Y-150555113D01*
X137281753Y-150446787D01*
X137307574Y-150408143D01*
X137374589Y-150246356D01*
X137380698Y-150215644D01*
X149225937Y-150215644D01*
X149263360Y-150219330D01*
X149300783Y-150215644D01*
X149300786Y-150215644D01*
X149412738Y-150204618D01*
X149556375Y-150161046D01*
X149688752Y-150090289D01*
X149804782Y-149995066D01*
X149828644Y-149965990D01*
X157662164Y-142132471D01*
X157691234Y-142108614D01*
X157786457Y-141992584D01*
X157857214Y-141860207D01*
X157900786Y-141716570D01*
X157911812Y-141604618D01*
X157911812Y-141604616D01*
X157915498Y-141567193D01*
X157911812Y-141529770D01*
X157911812Y-135802441D01*
X158750000Y-135802441D01*
X158750000Y-135977559D01*
X158784164Y-136149312D01*
X158851179Y-136311099D01*
X158948469Y-136456704D01*
X159072296Y-136580531D01*
X159217901Y-136677821D01*
X159379688Y-136744836D01*
X159551441Y-136779000D01*
X159726559Y-136779000D01*
X159898312Y-136744836D01*
X160060099Y-136677821D01*
X160205704Y-136580531D01*
X160329531Y-136456704D01*
X160426821Y-136311099D01*
X160493836Y-136149312D01*
X160528000Y-135977559D01*
X160528000Y-135802441D01*
X160493836Y-135630688D01*
X160426821Y-135468901D01*
X160329531Y-135323296D01*
X160205704Y-135199469D01*
X160060099Y-135102179D01*
X159898312Y-135035164D01*
X159726559Y-135001000D01*
X159551441Y-135001000D01*
X159379688Y-135035164D01*
X159217901Y-135102179D01*
X159072296Y-135199469D01*
X158948469Y-135323296D01*
X158851179Y-135468901D01*
X158784164Y-135630688D01*
X158750000Y-135802441D01*
X157911812Y-135802441D01*
X157911812Y-134741050D01*
X157915498Y-134703627D01*
X157909933Y-134647123D01*
X157900786Y-134554249D01*
X157857214Y-134410612D01*
X157819791Y-134340599D01*
X157786457Y-134278234D01*
X157741138Y-134223014D01*
X157691234Y-134162205D01*
X157662159Y-134138344D01*
X157250459Y-133726644D01*
X157226597Y-133697568D01*
X157110567Y-133602345D01*
X156978190Y-133531588D01*
X156834553Y-133488016D01*
X156722601Y-133476990D01*
X156722598Y-133476990D01*
X156685175Y-133473304D01*
X156647752Y-133476990D01*
X153605832Y-133476990D01*
X153568409Y-133473304D01*
X153530986Y-133476990D01*
X153530984Y-133476990D01*
X153419032Y-133488016D01*
X153275395Y-133531588D01*
X153143018Y-133602345D01*
X153026988Y-133697568D01*
X153003130Y-133726639D01*
X152694301Y-134035469D01*
X152648716Y-134044536D01*
X152486929Y-134111551D01*
X152341324Y-134208841D01*
X152217497Y-134332668D01*
X152120207Y-134478273D01*
X152053192Y-134640060D01*
X152019028Y-134811813D01*
X152019028Y-134986931D01*
X152053192Y-135158684D01*
X152120207Y-135320471D01*
X152217497Y-135466076D01*
X152341324Y-135589903D01*
X152486929Y-135687193D01*
X152648716Y-135754208D01*
X152820469Y-135788372D01*
X152995587Y-135788372D01*
X153167340Y-135754208D01*
X153329127Y-135687193D01*
X153418293Y-135627614D01*
X153510078Y-135688943D01*
X153671865Y-135755958D01*
X153843618Y-135790122D01*
X154018736Y-135790122D01*
X154190489Y-135755958D01*
X154352276Y-135688943D01*
X154497881Y-135591653D01*
X154621708Y-135467826D01*
X154662083Y-135407401D01*
X155349042Y-135407401D01*
X155355155Y-135438133D01*
X155422170Y-135599920D01*
X155447992Y-135638565D01*
X155447992Y-137943546D01*
X155367509Y-137889769D01*
X155205722Y-137822754D01*
X155033969Y-137788590D01*
X154858851Y-137788590D01*
X154687098Y-137822754D01*
X154525311Y-137889769D01*
X154379706Y-137987059D01*
X154255879Y-138110886D01*
X154158589Y-138256491D01*
X154091574Y-138418278D01*
X154057410Y-138590031D01*
X154057410Y-138765149D01*
X154091574Y-138936902D01*
X154158589Y-139098689D01*
X154255879Y-139244294D01*
X154379706Y-139368121D01*
X154525311Y-139465411D01*
X154687098Y-139532426D01*
X154858851Y-139566590D01*
X155033969Y-139566590D01*
X155205722Y-139532426D01*
X155367509Y-139465411D01*
X155447991Y-139411635D01*
X155447991Y-141041880D01*
X155320996Y-141168875D01*
X155320996Y-141136441D01*
X155286832Y-140964688D01*
X155219817Y-140802901D01*
X155122527Y-140657296D01*
X154998700Y-140533469D01*
X154853095Y-140436179D01*
X154691308Y-140369164D01*
X154519555Y-140335000D01*
X154344437Y-140335000D01*
X154172684Y-140369164D01*
X154010897Y-140436179D01*
X153865292Y-140533469D01*
X153741465Y-140657296D01*
X153644175Y-140802901D01*
X153577160Y-140964688D01*
X153544308Y-141129846D01*
X153537682Y-141131164D01*
X153375895Y-141198179D01*
X153230290Y-141295469D01*
X153106463Y-141419296D01*
X153009173Y-141564901D01*
X152942158Y-141726688D01*
X152907994Y-141898441D01*
X152907994Y-142073559D01*
X152942158Y-142245312D01*
X152986942Y-142353428D01*
X148274370Y-147066000D01*
X132208381Y-147066000D01*
X131840458Y-146698078D01*
X131840454Y-146698073D01*
X129706351Y-144563970D01*
X132426613Y-144563970D01*
X132426613Y-144996030D01*
X132510904Y-145419787D01*
X132676246Y-145818958D01*
X132916285Y-146178203D01*
X133221797Y-146483715D01*
X133581042Y-146723754D01*
X133980213Y-146889096D01*
X134403970Y-146973387D01*
X134836030Y-146973387D01*
X135259787Y-146889096D01*
X135658958Y-146723754D01*
X136018203Y-146483715D01*
X136323715Y-146178203D01*
X136563754Y-145818958D01*
X136729096Y-145419787D01*
X136813387Y-144996030D01*
X136813387Y-144563970D01*
X136729096Y-144140213D01*
X136563754Y-143741042D01*
X136323715Y-143381797D01*
X136018203Y-143076285D01*
X135658958Y-142836246D01*
X135259787Y-142670904D01*
X134836030Y-142586613D01*
X134403970Y-142586613D01*
X133980213Y-142670904D01*
X133581042Y-142836246D01*
X133221797Y-143076285D01*
X132916285Y-143381797D01*
X132676246Y-143741042D01*
X132510904Y-144140213D01*
X132426613Y-144563970D01*
X129706351Y-144563970D01*
X129186158Y-144043778D01*
X129186154Y-144043773D01*
X128777999Y-143635619D01*
X128777999Y-137451436D01*
X128778000Y-137451426D01*
X128778000Y-137451424D01*
X128781686Y-137414001D01*
X128778000Y-137376575D01*
X128778000Y-136537023D01*
X128781686Y-136499600D01*
X128778000Y-136462174D01*
X128766974Y-136350222D01*
X128723402Y-136206585D01*
X128685399Y-136135486D01*
X128652645Y-136074207D01*
X128581279Y-135987248D01*
X128557422Y-135958178D01*
X128528351Y-135934321D01*
X127940104Y-135346073D01*
X127931036Y-135300488D01*
X127864021Y-135138701D01*
X127766731Y-134993096D01*
X127642904Y-134869269D01*
X127497299Y-134771979D01*
X127335512Y-134704964D01*
X127163759Y-134670800D01*
X126988641Y-134670800D01*
X126816888Y-134704964D01*
X126655101Y-134771979D01*
X126509496Y-134869269D01*
X126385669Y-134993096D01*
X126288379Y-135138701D01*
X126221364Y-135300488D01*
X126187200Y-135472241D01*
X126187200Y-135647359D01*
X126221364Y-135819112D01*
X126288379Y-135980899D01*
X126385669Y-136126504D01*
X126509496Y-136250331D01*
X126655101Y-136347621D01*
X126816888Y-136414636D01*
X126862473Y-136423704D01*
X127254001Y-136815231D01*
X127254000Y-137376567D01*
X127250313Y-137414001D01*
X127254000Y-137451434D01*
X127253999Y-142654107D01*
X127087559Y-142621000D01*
X126912441Y-142621000D01*
X126740688Y-142655164D01*
X126578901Y-142722179D01*
X126508260Y-142769380D01*
X122301000Y-138562121D01*
X122301000Y-127380323D01*
X122304686Y-127342900D01*
X122299615Y-127291414D01*
X122289974Y-127193522D01*
X122246402Y-127049885D01*
X122204080Y-126970706D01*
X122175645Y-126917507D01*
X122171492Y-126912446D01*
X129158995Y-126912446D01*
X129158995Y-127087564D01*
X129193159Y-127259317D01*
X129260174Y-127421104D01*
X129285995Y-127459748D01*
X129285996Y-134582562D01*
X129282309Y-134619995D01*
X129297022Y-134769373D01*
X129340594Y-134913010D01*
X129411350Y-135045387D01*
X129470711Y-135117718D01*
X129506574Y-135161417D01*
X129535644Y-135185274D01*
X137820097Y-143469728D01*
X137829164Y-143515312D01*
X137896179Y-143677099D01*
X137993469Y-143822704D01*
X138117296Y-143946531D01*
X138262901Y-144043821D01*
X138424688Y-144110836D01*
X138596441Y-144145000D01*
X138771559Y-144145000D01*
X138943312Y-144110836D01*
X139105099Y-144043821D01*
X139250704Y-143946531D01*
X139374531Y-143822704D01*
X139471821Y-143677099D01*
X139538836Y-143515312D01*
X139549982Y-143459278D01*
X150381299Y-143459278D01*
X150418722Y-143462964D01*
X150456145Y-143459278D01*
X150456148Y-143459278D01*
X150568100Y-143448252D01*
X150711737Y-143404680D01*
X150844114Y-143333923D01*
X150960144Y-143238700D01*
X150984005Y-143209625D01*
X151343727Y-142849903D01*
X151389312Y-142840836D01*
X151551099Y-142773821D01*
X151696704Y-142676531D01*
X151820531Y-142552704D01*
X151917821Y-142407099D01*
X151984836Y-142245312D01*
X152019000Y-142073559D01*
X152019000Y-141898441D01*
X151984836Y-141726688D01*
X151917821Y-141564901D01*
X151820531Y-141419296D01*
X151696704Y-141295469D01*
X151551099Y-141198179D01*
X151389312Y-141131164D01*
X151217559Y-141097000D01*
X151042441Y-141097000D01*
X150870688Y-141131164D01*
X150708901Y-141198179D01*
X150563296Y-141295469D01*
X150439469Y-141419296D01*
X150342179Y-141564901D01*
X150275164Y-141726688D01*
X150266097Y-141772273D01*
X150103092Y-141935278D01*
X148591644Y-141935278D01*
X148615821Y-141899095D01*
X148682836Y-141737308D01*
X148717000Y-141565555D01*
X148717000Y-141390437D01*
X148682836Y-141218684D01*
X148644772Y-141126791D01*
X148700298Y-140992742D01*
X148734462Y-140820989D01*
X148734462Y-140645871D01*
X148700298Y-140474118D01*
X148633283Y-140312331D01*
X148535993Y-140166726D01*
X148412166Y-140042899D01*
X148291605Y-139962343D01*
X148407292Y-139885044D01*
X148531119Y-139761217D01*
X148628409Y-139615612D01*
X148695424Y-139453825D01*
X148729588Y-139282072D01*
X148729588Y-139106954D01*
X148695424Y-138935201D01*
X148628409Y-138773414D01*
X148531119Y-138627809D01*
X148407292Y-138503982D01*
X148309053Y-138438341D01*
X148408745Y-138371729D01*
X148532572Y-138247902D01*
X148629862Y-138102297D01*
X148696877Y-137940510D01*
X148731041Y-137768757D01*
X148731041Y-137593639D01*
X148696877Y-137421886D01*
X148673632Y-137365769D01*
X148709072Y-137280211D01*
X148743236Y-137108458D01*
X148743236Y-136933340D01*
X148709072Y-136761587D01*
X148642057Y-136599800D01*
X148624654Y-136573755D01*
X149449183Y-135749226D01*
X149518429Y-135763000D01*
X149693547Y-135763000D01*
X149865300Y-135728836D01*
X150027087Y-135661821D01*
X150172692Y-135564531D01*
X150296519Y-135440704D01*
X150367994Y-135333734D01*
X150439469Y-135440704D01*
X150563296Y-135564531D01*
X150708901Y-135661821D01*
X150870688Y-135728836D01*
X151042441Y-135763000D01*
X151217559Y-135763000D01*
X151389312Y-135728836D01*
X151551099Y-135661821D01*
X151696704Y-135564531D01*
X151820531Y-135440704D01*
X151917821Y-135295099D01*
X151984836Y-135133312D01*
X152019000Y-134961559D01*
X152019000Y-134786441D01*
X151984836Y-134614688D01*
X151917821Y-134452901D01*
X151820531Y-134307296D01*
X151696704Y-134183469D01*
X151551099Y-134086179D01*
X151389312Y-134019164D01*
X151343726Y-134010096D01*
X151161883Y-133828253D01*
X151138021Y-133799177D01*
X151021991Y-133703954D01*
X150889614Y-133633197D01*
X150745977Y-133589625D01*
X150634025Y-133578599D01*
X150634022Y-133578599D01*
X150596599Y-133574913D01*
X150559176Y-133578599D01*
X149242851Y-133578599D01*
X149205428Y-133574913D01*
X149168005Y-133578599D01*
X149168003Y-133578599D01*
X149056051Y-133589625D01*
X148912414Y-133633197D01*
X148780037Y-133703954D01*
X148664007Y-133799177D01*
X148640150Y-133828247D01*
X147704806Y-134763591D01*
X147607294Y-134666079D01*
X147461689Y-134568789D01*
X147299902Y-134501774D01*
X147128149Y-134467610D01*
X146953031Y-134467610D01*
X146781278Y-134501774D01*
X146619491Y-134568789D01*
X146473886Y-134666079D01*
X146350059Y-134789906D01*
X146252769Y-134935511D01*
X146185754Y-135097298D01*
X146151590Y-135269051D01*
X146151590Y-135444169D01*
X146185754Y-135615922D01*
X146252769Y-135777709D01*
X146350059Y-135923314D01*
X146447571Y-136020826D01*
X144038398Y-138430000D01*
X140108380Y-138430000D01*
X134594690Y-132916310D01*
X134594690Y-130204200D01*
X139326928Y-130204200D01*
X139339188Y-130328682D01*
X139375498Y-130448380D01*
X139434463Y-130558694D01*
X139513815Y-130655385D01*
X139610506Y-130734737D01*
X139720820Y-130793702D01*
X139840518Y-130830012D01*
X139965000Y-130842272D01*
X140049250Y-130839200D01*
X140208000Y-130680450D01*
X140208000Y-128871200D01*
X139488750Y-128871200D01*
X139330000Y-129029950D01*
X139326928Y-130204200D01*
X134594690Y-130204200D01*
X134594690Y-126892789D01*
X137360000Y-126892789D01*
X137360000Y-127165611D01*
X137413225Y-127433189D01*
X137517629Y-127685243D01*
X137669201Y-127912086D01*
X137862114Y-128104999D01*
X138088957Y-128256571D01*
X138341011Y-128360975D01*
X138608589Y-128414200D01*
X138881411Y-128414200D01*
X139148989Y-128360975D01*
X139329549Y-128286185D01*
X139330000Y-128458450D01*
X139488750Y-128617200D01*
X140208000Y-128617200D01*
X140208000Y-128597200D01*
X140462000Y-128597200D01*
X140462000Y-128617200D01*
X140482000Y-128617200D01*
X140482000Y-128871200D01*
X140462000Y-128871200D01*
X140462000Y-130680450D01*
X140620750Y-130839200D01*
X140705000Y-130842272D01*
X140829482Y-130830012D01*
X140949180Y-130793702D01*
X140970000Y-130782573D01*
X140990820Y-130793702D01*
X141110518Y-130830012D01*
X141235000Y-130842272D01*
X141975000Y-130842272D01*
X142099482Y-130830012D01*
X142219180Y-130793702D01*
X142240000Y-130782573D01*
X142260820Y-130793702D01*
X142380518Y-130830012D01*
X142505000Y-130842272D01*
X142589250Y-130839200D01*
X142748000Y-130680450D01*
X142748000Y-128871200D01*
X142728000Y-128871200D01*
X142728000Y-128617200D01*
X142748000Y-128617200D01*
X142748000Y-128597200D01*
X143002000Y-128597200D01*
X143002000Y-128617200D01*
X143022000Y-128617200D01*
X143022000Y-128871200D01*
X143002000Y-128871200D01*
X143002000Y-130680450D01*
X143160750Y-130839200D01*
X143245000Y-130842272D01*
X143369482Y-130830012D01*
X143489180Y-130793702D01*
X143510000Y-130782573D01*
X143530820Y-130793702D01*
X143650518Y-130830012D01*
X143775000Y-130842272D01*
X144515000Y-130842272D01*
X144639482Y-130830012D01*
X144759180Y-130793702D01*
X144780000Y-130782573D01*
X144800820Y-130793702D01*
X144920518Y-130830012D01*
X145045000Y-130842272D01*
X145129250Y-130839200D01*
X145288000Y-130680450D01*
X145288000Y-128871200D01*
X145268000Y-128871200D01*
X145268000Y-128617200D01*
X145288000Y-128617200D01*
X145288000Y-125441200D01*
X145268000Y-125441200D01*
X145268000Y-125187200D01*
X145288000Y-125187200D01*
X145288000Y-123377950D01*
X145129250Y-123219200D01*
X145045000Y-123216128D01*
X144920518Y-123228388D01*
X144800820Y-123264698D01*
X144780000Y-123275827D01*
X144759180Y-123264698D01*
X144639482Y-123228388D01*
X144515000Y-123216128D01*
X143775000Y-123216128D01*
X143650518Y-123228388D01*
X143530820Y-123264698D01*
X143510000Y-123275827D01*
X143489180Y-123264698D01*
X143369482Y-123228388D01*
X143245000Y-123216128D01*
X142505000Y-123216128D01*
X142380518Y-123228388D01*
X142260820Y-123264698D01*
X142240000Y-123275827D01*
X142219180Y-123264698D01*
X142099482Y-123228388D01*
X141975000Y-123216128D01*
X141890750Y-123219200D01*
X141732000Y-123377950D01*
X141732000Y-125187200D01*
X141752000Y-125187200D01*
X141752000Y-125441200D01*
X141732000Y-125441200D01*
X141732000Y-125461200D01*
X141478000Y-125461200D01*
X141478000Y-125441200D01*
X141458000Y-125441200D01*
X141458000Y-125187200D01*
X141478000Y-125187200D01*
X141478000Y-123377950D01*
X141319250Y-123219200D01*
X141235000Y-123216128D01*
X141110518Y-123228388D01*
X140990820Y-123264698D01*
X140970000Y-123275827D01*
X140949180Y-123264698D01*
X140829482Y-123228388D01*
X140705000Y-123216128D01*
X139965000Y-123216128D01*
X139840518Y-123228388D01*
X139720820Y-123264698D01*
X139610506Y-123323663D01*
X139513815Y-123403015D01*
X139434463Y-123499706D01*
X139375498Y-123610020D01*
X139339188Y-123729718D01*
X139326928Y-123854200D01*
X139326928Y-125771130D01*
X139148989Y-125697425D01*
X138881411Y-125644200D01*
X138608589Y-125644200D01*
X138341011Y-125697425D01*
X138088957Y-125801829D01*
X137862114Y-125953401D01*
X137669201Y-126146314D01*
X137517629Y-126373157D01*
X137413225Y-126625211D01*
X137360000Y-126892789D01*
X134594690Y-126892789D01*
X134594690Y-124261505D01*
X134639579Y-124291499D01*
X134801366Y-124358514D01*
X134973119Y-124392678D01*
X135148237Y-124392678D01*
X135319990Y-124358514D01*
X135481777Y-124291499D01*
X135627382Y-124194209D01*
X135751209Y-124070382D01*
X135848499Y-123924777D01*
X135915514Y-123762990D01*
X135924582Y-123717404D01*
X136451986Y-123190000D01*
X149208647Y-123190000D01*
X149182519Y-123216128D01*
X148855000Y-123216128D01*
X148730518Y-123228388D01*
X148610820Y-123264698D01*
X148590000Y-123275827D01*
X148569180Y-123264698D01*
X148449482Y-123228388D01*
X148325000Y-123216128D01*
X148240750Y-123219200D01*
X148082000Y-123377950D01*
X148082000Y-125187200D01*
X148102000Y-125187200D01*
X148102000Y-125441200D01*
X148082000Y-125441200D01*
X148082000Y-128617200D01*
X148102000Y-128617200D01*
X148102000Y-128871200D01*
X148082000Y-128871200D01*
X148082000Y-128891200D01*
X147828000Y-128891200D01*
X147828000Y-128871200D01*
X147808000Y-128871200D01*
X147808000Y-128617200D01*
X147828000Y-128617200D01*
X147828000Y-125441200D01*
X147808000Y-125441200D01*
X147808000Y-125187200D01*
X147828000Y-125187200D01*
X147828000Y-123377950D01*
X147669250Y-123219200D01*
X147585000Y-123216128D01*
X147460518Y-123228388D01*
X147340820Y-123264698D01*
X147320000Y-123275827D01*
X147299180Y-123264698D01*
X147179482Y-123228388D01*
X147055000Y-123216128D01*
X146315000Y-123216128D01*
X146190518Y-123228388D01*
X146070820Y-123264698D01*
X146050000Y-123275827D01*
X146029180Y-123264698D01*
X145909482Y-123228388D01*
X145785000Y-123216128D01*
X145700750Y-123219200D01*
X145542000Y-123377950D01*
X145542000Y-125187200D01*
X145562000Y-125187200D01*
X145562000Y-125441200D01*
X145542000Y-125441200D01*
X145542000Y-128617200D01*
X145562000Y-128617200D01*
X145562000Y-128871200D01*
X145542000Y-128871200D01*
X145542000Y-130680450D01*
X145700750Y-130839200D01*
X145785000Y-130842272D01*
X145909482Y-130830012D01*
X146029180Y-130793702D01*
X146050000Y-130782573D01*
X146070820Y-130793702D01*
X146190518Y-130830012D01*
X146315000Y-130842272D01*
X146642519Y-130842272D01*
X146796199Y-130995952D01*
X146820057Y-131025023D01*
X146849127Y-131048880D01*
X146936086Y-131120246D01*
X146979360Y-131143376D01*
X147068464Y-131191003D01*
X147212101Y-131234575D01*
X147324053Y-131245601D01*
X147324056Y-131245601D01*
X147361479Y-131249287D01*
X147398902Y-131245601D01*
X148511098Y-131245601D01*
X148548521Y-131249287D01*
X148585944Y-131245601D01*
X148585947Y-131245601D01*
X148697899Y-131234575D01*
X148841536Y-131191003D01*
X148973913Y-131120246D01*
X149089943Y-131025023D01*
X149113804Y-130995948D01*
X149267480Y-130842272D01*
X149595000Y-130842272D01*
X149719482Y-130830012D01*
X149839180Y-130793702D01*
X149860000Y-130782573D01*
X149880820Y-130793702D01*
X150000518Y-130830012D01*
X150125000Y-130842272D01*
X150209250Y-130839200D01*
X150368000Y-130680450D01*
X150368000Y-128871200D01*
X150622000Y-128871200D01*
X150622000Y-130680450D01*
X150780750Y-130839200D01*
X150865000Y-130842272D01*
X150989482Y-130830012D01*
X151109180Y-130793702D01*
X151130000Y-130782573D01*
X151150820Y-130793702D01*
X151270518Y-130830012D01*
X151395000Y-130842272D01*
X151479250Y-130839200D01*
X151638000Y-130680450D01*
X151638000Y-128871200D01*
X150622000Y-128871200D01*
X150368000Y-128871200D01*
X150348000Y-128871200D01*
X150348000Y-128617200D01*
X150368000Y-128617200D01*
X150368000Y-125441200D01*
X150622000Y-125441200D01*
X150622000Y-128617200D01*
X151638000Y-128617200D01*
X151638000Y-125441200D01*
X150622000Y-125441200D01*
X150368000Y-125441200D01*
X150348000Y-125441200D01*
X150348000Y-125187200D01*
X150368000Y-125187200D01*
X150368000Y-125167200D01*
X150622000Y-125167200D01*
X150622000Y-125187200D01*
X151638000Y-125187200D01*
X151638000Y-125167200D01*
X151892000Y-125167200D01*
X151892000Y-125187200D01*
X151912000Y-125187200D01*
X151912000Y-125441200D01*
X151892000Y-125441200D01*
X151892000Y-128617200D01*
X151912000Y-128617200D01*
X151912000Y-128871200D01*
X151892000Y-128871200D01*
X151892000Y-130680450D01*
X152050750Y-130839200D01*
X152135000Y-130842272D01*
X152259482Y-130830012D01*
X152379180Y-130793702D01*
X152400000Y-130782573D01*
X152420820Y-130793702D01*
X152540518Y-130830012D01*
X152665000Y-130842272D01*
X153405000Y-130842272D01*
X153529482Y-130830012D01*
X153649180Y-130793702D01*
X153670000Y-130782573D01*
X153690820Y-130793702D01*
X153810518Y-130830012D01*
X153935000Y-130842272D01*
X154675000Y-130842272D01*
X154799482Y-130830012D01*
X154919180Y-130793702D01*
X154940000Y-130782573D01*
X154960820Y-130793702D01*
X155080518Y-130830012D01*
X155205000Y-130842272D01*
X155945000Y-130842272D01*
X156069482Y-130830012D01*
X156189180Y-130793702D01*
X156210000Y-130782573D01*
X156230820Y-130793702D01*
X156350518Y-130830012D01*
X156475000Y-130842272D01*
X157215000Y-130842272D01*
X157339482Y-130830012D01*
X157459180Y-130793702D01*
X157480000Y-130782573D01*
X157500820Y-130793702D01*
X157620518Y-130830012D01*
X157745000Y-130842272D01*
X158485000Y-130842272D01*
X158609482Y-130830012D01*
X158729180Y-130793702D01*
X158750000Y-130782573D01*
X158770820Y-130793702D01*
X158890518Y-130830012D01*
X159015000Y-130842272D01*
X159755000Y-130842272D01*
X159879482Y-130830012D01*
X159999180Y-130793702D01*
X160020000Y-130782573D01*
X160040820Y-130793702D01*
X160160518Y-130830012D01*
X160285000Y-130842272D01*
X161025000Y-130842272D01*
X161149482Y-130830012D01*
X161269180Y-130793702D01*
X161290000Y-130782573D01*
X161310820Y-130793702D01*
X161430518Y-130830012D01*
X161555000Y-130842272D01*
X162295000Y-130842272D01*
X162419482Y-130830012D01*
X162539180Y-130793702D01*
X162560000Y-130782573D01*
X162580820Y-130793702D01*
X162700518Y-130830012D01*
X162825000Y-130842272D01*
X162909250Y-130839200D01*
X163068000Y-130680450D01*
X163068000Y-128871200D01*
X163048000Y-128871200D01*
X163048000Y-128617200D01*
X163068000Y-128617200D01*
X163068000Y-128597200D01*
X163322000Y-128597200D01*
X163322000Y-128617200D01*
X163342000Y-128617200D01*
X163342000Y-128871200D01*
X163322000Y-128871200D01*
X163322000Y-130680450D01*
X163480750Y-130839200D01*
X163565000Y-130842272D01*
X163689482Y-130830012D01*
X163809180Y-130793702D01*
X163830000Y-130782573D01*
X163850820Y-130793702D01*
X163970518Y-130830012D01*
X164095000Y-130842272D01*
X164835000Y-130842272D01*
X164959482Y-130830012D01*
X165079180Y-130793702D01*
X165189494Y-130734737D01*
X165286185Y-130655385D01*
X165365537Y-130558694D01*
X165424502Y-130448380D01*
X165460812Y-130328682D01*
X165473072Y-130204200D01*
X165473072Y-129668766D01*
X165498800Y-129671300D01*
X165542460Y-129667000D01*
X170319765Y-129667000D01*
X177109459Y-136456695D01*
X177109465Y-136456704D01*
X177140497Y-136487736D01*
X177168337Y-136521659D01*
X177202259Y-136549498D01*
X177233292Y-136580531D01*
X177269785Y-136604915D01*
X177303706Y-136632753D01*
X177342407Y-136653439D01*
X177378897Y-136677821D01*
X177419444Y-136694616D01*
X177458146Y-136715303D01*
X177500136Y-136728040D01*
X177540684Y-136744836D01*
X177583736Y-136753400D01*
X177625723Y-136766136D01*
X177669386Y-136770437D01*
X177712437Y-136779000D01*
X177756329Y-136779000D01*
X177799996Y-136783301D01*
X177843663Y-136779000D01*
X177887555Y-136779000D01*
X177930605Y-136770437D01*
X177974270Y-136766136D01*
X178016259Y-136753399D01*
X178059308Y-136744836D01*
X178099853Y-136728041D01*
X178141847Y-136715303D01*
X178180553Y-136694614D01*
X178221095Y-136677821D01*
X178257581Y-136653442D01*
X178296287Y-136632753D01*
X178330211Y-136604912D01*
X178366700Y-136580531D01*
X178397732Y-136549499D01*
X178431655Y-136521659D01*
X178448864Y-136500690D01*
X178689001Y-136740827D01*
X178689000Y-140093764D01*
X177431765Y-141351000D01*
X168445663Y-141351000D01*
X168402003Y-141346700D01*
X168358343Y-141351000D01*
X168358337Y-141351000D01*
X168260928Y-141360594D01*
X168227728Y-141363864D01*
X168126062Y-141394704D01*
X168060153Y-141414697D01*
X168060151Y-141414698D01*
X168053204Y-141418411D01*
X167905713Y-141497247D01*
X167770345Y-141608341D01*
X167742510Y-141642258D01*
X165295296Y-144089473D01*
X165171469Y-144213300D01*
X165147084Y-144249794D01*
X165119248Y-144283713D01*
X165098563Y-144322412D01*
X165074179Y-144358905D01*
X165057384Y-144399452D01*
X165036698Y-144438152D01*
X165023961Y-144480142D01*
X165007164Y-144520692D01*
X164998601Y-144563743D01*
X164985864Y-144605730D01*
X164981564Y-144649392D01*
X164973000Y-144692445D01*
X164973000Y-144736344D01*
X164968700Y-144780004D01*
X164973000Y-144823664D01*
X164973000Y-144867563D01*
X164981564Y-144910616D01*
X164985864Y-144954278D01*
X164998601Y-144996265D01*
X165007164Y-145039316D01*
X165023961Y-145079866D01*
X165036698Y-145121856D01*
X165057384Y-145160556D01*
X165074179Y-145201103D01*
X165098563Y-145237596D01*
X165119248Y-145276295D01*
X165147085Y-145310215D01*
X165171469Y-145346708D01*
X165202503Y-145377742D01*
X165230341Y-145411663D01*
X165264262Y-145439501D01*
X165295296Y-145470535D01*
X165331789Y-145494919D01*
X165365709Y-145522756D01*
X165404408Y-145543441D01*
X165440901Y-145567825D01*
X165481448Y-145584620D01*
X165520148Y-145605306D01*
X165562138Y-145618043D01*
X165602688Y-145634840D01*
X165645739Y-145643403D01*
X165687726Y-145656140D01*
X165731388Y-145660440D01*
X165774441Y-145669004D01*
X165818340Y-145669004D01*
X165862000Y-145673304D01*
X165905660Y-145669004D01*
X165949559Y-145669004D01*
X165992612Y-145660440D01*
X166036274Y-145656140D01*
X166078261Y-145643403D01*
X166121312Y-145634840D01*
X166161862Y-145618043D01*
X166203852Y-145605306D01*
X166242552Y-145584620D01*
X166283099Y-145567825D01*
X166319592Y-145543441D01*
X166358291Y-145522756D01*
X166392210Y-145494920D01*
X166428704Y-145470535D01*
X166552531Y-145346708D01*
X168393408Y-143505832D01*
X168236246Y-143741042D01*
X168070904Y-144140213D01*
X167986613Y-144563970D01*
X167986613Y-144996030D01*
X168070904Y-145419787D01*
X168236246Y-145818958D01*
X168476285Y-146178203D01*
X168781797Y-146483715D01*
X169141042Y-146723754D01*
X169540213Y-146889096D01*
X169963970Y-146973387D01*
X170396030Y-146973387D01*
X170819787Y-146889096D01*
X171218958Y-146723754D01*
X171578203Y-146483715D01*
X171883715Y-146178203D01*
X172123754Y-145818958D01*
X172289096Y-145419787D01*
X172373387Y-144996030D01*
X172373387Y-144563970D01*
X172289096Y-144140213D01*
X172123754Y-143741042D01*
X171883715Y-143381797D01*
X171630918Y-143129000D01*
X177756340Y-143129000D01*
X177800000Y-143133300D01*
X177843660Y-143129000D01*
X177843667Y-143129000D01*
X177974274Y-143116136D01*
X178141851Y-143065303D01*
X178296291Y-142982753D01*
X178431659Y-142871659D01*
X178459499Y-142837736D01*
X180175743Y-141121493D01*
X180209659Y-141093659D01*
X180245072Y-141050509D01*
X180292480Y-140992742D01*
X180320753Y-140958291D01*
X180403303Y-140803851D01*
X180450616Y-140647879D01*
X180454136Y-140636275D01*
X180456391Y-140613383D01*
X180467000Y-140505667D01*
X180467000Y-140505660D01*
X180471300Y-140462000D01*
X180467000Y-140418340D01*
X180467000Y-136416250D01*
X180471300Y-136372590D01*
X180467000Y-136328930D01*
X180467000Y-136328923D01*
X180454136Y-136198316D01*
X180454032Y-136197971D01*
X180430050Y-136118915D01*
X180403303Y-136030739D01*
X180320753Y-135876299D01*
X180209659Y-135740931D01*
X180175742Y-135713096D01*
X172060444Y-127597799D01*
X171775409Y-127312764D01*
X171738915Y-127288379D01*
X171704996Y-127260543D01*
X171666297Y-127239858D01*
X171629804Y-127215474D01*
X171589257Y-127198679D01*
X171550557Y-127177993D01*
X171508567Y-127165256D01*
X171468017Y-127148459D01*
X171424966Y-127139896D01*
X171382979Y-127127159D01*
X171339317Y-127122859D01*
X171296264Y-127114295D01*
X171252365Y-127114295D01*
X171208705Y-127109995D01*
X171165045Y-127114295D01*
X171121146Y-127114295D01*
X171078093Y-127122859D01*
X171034431Y-127127159D01*
X170992444Y-127139896D01*
X170949393Y-127148459D01*
X170908843Y-127165256D01*
X170866853Y-127177993D01*
X170828153Y-127198679D01*
X170787606Y-127215474D01*
X170751113Y-127239858D01*
X170712414Y-127260543D01*
X170678494Y-127288380D01*
X170642001Y-127312764D01*
X170610967Y-127343798D01*
X170577046Y-127371636D01*
X170549208Y-127405557D01*
X170518174Y-127436591D01*
X170493790Y-127473084D01*
X170465953Y-127507004D01*
X170445268Y-127545703D01*
X170420884Y-127582196D01*
X170404089Y-127622743D01*
X170383403Y-127661443D01*
X170370666Y-127703433D01*
X170353869Y-127743983D01*
X170345306Y-127787034D01*
X170332569Y-127829021D01*
X170328269Y-127872683D01*
X170325023Y-127889000D01*
X169714431Y-127889000D01*
X169764836Y-127767312D01*
X169799000Y-127595559D01*
X169799000Y-127420441D01*
X169764836Y-127248688D01*
X169697821Y-127086901D01*
X169600531Y-126941296D01*
X169476704Y-126817469D01*
X169331099Y-126720179D01*
X169169312Y-126653164D01*
X169123726Y-126644096D01*
X169062400Y-126582770D01*
X169062400Y-120252373D01*
X169066086Y-120214950D01*
X169058704Y-120140001D01*
X169051374Y-120065572D01*
X169007802Y-119921935D01*
X168965005Y-119841868D01*
X168937045Y-119789557D01*
X168897657Y-119741564D01*
X168841822Y-119673528D01*
X168812747Y-119649667D01*
X168606580Y-119443500D01*
X169595860Y-119443500D01*
X169666688Y-119472838D01*
X169838441Y-119507002D01*
X170013559Y-119507002D01*
X170185312Y-119472838D01*
X170347099Y-119405823D01*
X170492704Y-119308533D01*
X170616531Y-119184706D01*
X170713821Y-119039101D01*
X170780836Y-118877314D01*
X170815000Y-118705561D01*
X170815000Y-118530443D01*
X170780836Y-118358690D01*
X170713821Y-118196903D01*
X170616531Y-118051298D01*
X170492704Y-117927471D01*
X170347099Y-117830181D01*
X170185312Y-117763166D01*
X170013559Y-117729002D01*
X169838441Y-117729002D01*
X169666688Y-117763166D01*
X169595870Y-117792500D01*
X168224135Y-117792500D01*
X168153312Y-117763164D01*
X167981559Y-117729000D01*
X167806441Y-117729000D01*
X167634688Y-117763164D01*
X167472901Y-117830179D01*
X167327296Y-117927469D01*
X167208923Y-118045843D01*
X167192524Y-118029444D01*
X167168662Y-118000368D01*
X167052632Y-117905145D01*
X166920255Y-117834388D01*
X166776618Y-117790816D01*
X166664666Y-117779790D01*
X166664663Y-117779790D01*
X166627240Y-117776104D01*
X166589817Y-117779790D01*
X165580720Y-117779790D01*
X162610810Y-114809880D01*
X162610810Y-112889633D01*
X162614496Y-112852210D01*
X162610810Y-112814784D01*
X162599784Y-112702832D01*
X162556212Y-112559195D01*
X162498079Y-112450436D01*
X162485455Y-112426817D01*
X162414089Y-112339858D01*
X162390232Y-112310788D01*
X162361163Y-112286932D01*
X161492672Y-111418441D01*
X163957000Y-111418441D01*
X163957000Y-111593559D01*
X163991164Y-111765312D01*
X164058179Y-111927099D01*
X164155469Y-112072704D01*
X164279296Y-112196531D01*
X164424901Y-112293821D01*
X164586688Y-112360836D01*
X164758441Y-112395000D01*
X164933559Y-112395000D01*
X165105312Y-112360836D01*
X165267099Y-112293821D01*
X165412704Y-112196531D01*
X165536531Y-112072704D01*
X165633821Y-111927099D01*
X165700836Y-111765312D01*
X165735000Y-111593559D01*
X165735000Y-111418441D01*
X165700836Y-111246688D01*
X165633821Y-111084901D01*
X165608000Y-111046257D01*
X165608000Y-109003970D01*
X167986613Y-109003970D01*
X167986613Y-109436030D01*
X168070904Y-109859787D01*
X168236246Y-110258958D01*
X168476285Y-110618203D01*
X168781797Y-110923715D01*
X169141042Y-111163754D01*
X169540213Y-111329096D01*
X169963970Y-111413387D01*
X170396030Y-111413387D01*
X170819787Y-111329096D01*
X171218958Y-111163754D01*
X171578203Y-110923715D01*
X171883715Y-110618203D01*
X172123754Y-110258958D01*
X172289096Y-109859787D01*
X172373387Y-109436030D01*
X172373387Y-109003970D01*
X172289096Y-108580213D01*
X172123754Y-108181042D01*
X171883715Y-107821797D01*
X171578203Y-107516285D01*
X171218958Y-107276246D01*
X170819787Y-107110904D01*
X170396030Y-107026613D01*
X169963970Y-107026613D01*
X169540213Y-107110904D01*
X169141042Y-107276246D01*
X168781797Y-107516285D01*
X168476285Y-107821797D01*
X168236246Y-108181042D01*
X168070904Y-108580213D01*
X167986613Y-109003970D01*
X165608000Y-109003970D01*
X165608000Y-105217630D01*
X169422353Y-101403278D01*
X169451422Y-101379422D01*
X169505005Y-101314131D01*
X169546645Y-101263393D01*
X169595491Y-101172008D01*
X169617402Y-101131015D01*
X169660974Y-100987378D01*
X169672000Y-100875426D01*
X169672000Y-100875423D01*
X169675686Y-100838000D01*
X169672000Y-100800577D01*
X169672000Y-97995743D01*
X169697821Y-97957099D01*
X169764836Y-97795312D01*
X169799000Y-97623559D01*
X169799000Y-97448441D01*
X169764836Y-97276688D01*
X169697821Y-97114901D01*
X169600531Y-96969296D01*
X169476704Y-96845469D01*
X169331099Y-96748179D01*
X169169312Y-96681164D01*
X168997559Y-96647000D01*
X168822441Y-96647000D01*
X168650688Y-96681164D01*
X168488901Y-96748179D01*
X168343296Y-96845469D01*
X168219469Y-96969296D01*
X168122179Y-97114901D01*
X168055164Y-97276688D01*
X168021000Y-97448441D01*
X168021000Y-97623559D01*
X168055164Y-97795312D01*
X168122179Y-97957099D01*
X168148001Y-97995744D01*
X168148000Y-100522369D01*
X164333649Y-104336721D01*
X164304579Y-104360578D01*
X164280722Y-104389648D01*
X164280721Y-104389649D01*
X164209355Y-104476608D01*
X164138599Y-104608985D01*
X164095027Y-104752622D01*
X164080314Y-104902000D01*
X164084001Y-104939433D01*
X164084000Y-111046257D01*
X164058179Y-111084901D01*
X163991164Y-111246688D01*
X163957000Y-111418441D01*
X161492672Y-111418441D01*
X156489410Y-106415180D01*
X156489410Y-99519733D01*
X156515231Y-99481089D01*
X156582246Y-99319302D01*
X156616410Y-99147549D01*
X156616410Y-98972431D01*
X156582246Y-98800678D01*
X156515231Y-98638891D01*
X156417941Y-98493286D01*
X156294114Y-98369459D01*
X156148509Y-98272169D01*
X155986722Y-98205154D01*
X155829002Y-98173781D01*
X155829002Y-98122741D01*
X155854823Y-98084097D01*
X155921838Y-97922310D01*
X155956002Y-97750557D01*
X155956002Y-97575439D01*
X155921838Y-97403686D01*
X155854823Y-97241899D01*
X155757533Y-97096294D01*
X155633706Y-96972467D01*
X155488101Y-96875177D01*
X155326314Y-96808162D01*
X155154561Y-96773998D01*
X154979443Y-96773998D01*
X154807690Y-96808162D01*
X154645903Y-96875177D01*
X154500298Y-96972467D01*
X154376471Y-97096294D01*
X154279181Y-97241899D01*
X154212166Y-97403686D01*
X154178002Y-97575439D01*
X154178002Y-97750557D01*
X154212166Y-97922310D01*
X154279181Y-98084097D01*
X154305002Y-98122741D01*
X154305003Y-99352769D01*
X154301316Y-99390202D01*
X154316029Y-99539580D01*
X154359601Y-99683217D01*
X154430357Y-99815594D01*
X154472122Y-99866484D01*
X154525581Y-99931624D01*
X154554651Y-99955481D01*
X154559000Y-99959830D01*
X154559002Y-106861718D01*
X154555315Y-106899151D01*
X154570028Y-107048529D01*
X154613600Y-107192166D01*
X154684356Y-107324543D01*
X154733837Y-107384835D01*
X154779580Y-107440573D01*
X154808650Y-107464430D01*
X155924340Y-108580120D01*
X155876681Y-108651447D01*
X155809666Y-108813234D01*
X155775502Y-108984987D01*
X155775502Y-109160105D01*
X155809666Y-109331858D01*
X155876681Y-109493645D01*
X155973971Y-109639250D01*
X156097798Y-109763077D01*
X156243403Y-109860367D01*
X156405190Y-109927382D01*
X156576943Y-109961546D01*
X156752061Y-109961546D01*
X156923814Y-109927382D01*
X157085601Y-109860367D01*
X157156928Y-109812708D01*
X160642300Y-113298081D01*
X160642301Y-115265867D01*
X160638614Y-115303300D01*
X160653327Y-115452678D01*
X160696899Y-115596315D01*
X160767655Y-115728692D01*
X160839021Y-115815651D01*
X160862879Y-115844722D01*
X160891949Y-115868579D01*
X164483920Y-119460551D01*
X164507778Y-119489622D01*
X164623808Y-119584845D01*
X164756185Y-119655602D01*
X164899822Y-119699174D01*
X165011774Y-119710200D01*
X165011776Y-119710200D01*
X165049199Y-119713886D01*
X165086622Y-119710200D01*
X166143270Y-119710200D01*
X167131991Y-120698922D01*
X167131989Y-126148095D01*
X167130799Y-126146314D01*
X166937886Y-125953401D01*
X166711043Y-125801829D01*
X166458989Y-125697425D01*
X166191411Y-125644200D01*
X165918589Y-125644200D01*
X165651011Y-125697425D01*
X165470451Y-125772215D01*
X165470000Y-125599950D01*
X165311250Y-125441200D01*
X164592000Y-125441200D01*
X164592000Y-125461200D01*
X164338000Y-125461200D01*
X164338000Y-125441200D01*
X164318000Y-125441200D01*
X164318000Y-125187200D01*
X164338000Y-125187200D01*
X164338000Y-123377950D01*
X164592000Y-123377950D01*
X164592000Y-125187200D01*
X165311250Y-125187200D01*
X165470000Y-125028450D01*
X165473072Y-123854200D01*
X165460812Y-123729718D01*
X165424502Y-123610020D01*
X165365537Y-123499706D01*
X165286185Y-123403015D01*
X165189494Y-123323663D01*
X165079180Y-123264698D01*
X164959482Y-123228388D01*
X164835000Y-123216128D01*
X164750750Y-123219200D01*
X164592000Y-123377950D01*
X164338000Y-123377950D01*
X164179250Y-123219200D01*
X164095000Y-123216128D01*
X163970518Y-123228388D01*
X163850820Y-123264698D01*
X163830000Y-123275827D01*
X163809180Y-123264698D01*
X163689482Y-123228388D01*
X163565000Y-123216128D01*
X162825000Y-123216128D01*
X162700518Y-123228388D01*
X162580820Y-123264698D01*
X162560000Y-123275827D01*
X162539180Y-123264698D01*
X162419482Y-123228388D01*
X162295000Y-123216128D01*
X162210750Y-123219200D01*
X162052000Y-123377950D01*
X162052000Y-125187200D01*
X162072000Y-125187200D01*
X162072000Y-125441200D01*
X162052000Y-125441200D01*
X162052000Y-125461200D01*
X161798000Y-125461200D01*
X161798000Y-125441200D01*
X161778000Y-125441200D01*
X161778000Y-125187200D01*
X161798000Y-125187200D01*
X161798000Y-123377950D01*
X161639250Y-123219200D01*
X161555000Y-123216128D01*
X161430518Y-123228388D01*
X161310820Y-123264698D01*
X161290000Y-123275827D01*
X161269180Y-123264698D01*
X161149482Y-123228388D01*
X161025000Y-123216128D01*
X160285000Y-123216128D01*
X160160518Y-123228388D01*
X160040820Y-123264698D01*
X160020000Y-123275827D01*
X159999180Y-123264698D01*
X159879482Y-123228388D01*
X159755000Y-123216128D01*
X159015000Y-123216128D01*
X158890518Y-123228388D01*
X158770820Y-123264698D01*
X158750000Y-123275827D01*
X158729180Y-123264698D01*
X158609482Y-123228388D01*
X158485000Y-123216128D01*
X157745000Y-123216128D01*
X157620518Y-123228388D01*
X157500820Y-123264698D01*
X157480000Y-123275827D01*
X157459180Y-123264698D01*
X157339482Y-123228388D01*
X157215000Y-123216128D01*
X156910969Y-123216128D01*
X155610494Y-121915654D01*
X155586632Y-121886578D01*
X155470602Y-121791355D01*
X155338225Y-121720598D01*
X155194588Y-121677026D01*
X155156653Y-121673290D01*
X155107099Y-121640179D01*
X154945312Y-121573164D01*
X154773559Y-121539000D01*
X154598441Y-121539000D01*
X154426688Y-121573164D01*
X154264901Y-121640179D01*
X154119296Y-121737469D01*
X154088198Y-121768567D01*
X153701884Y-121382254D01*
X153678022Y-121353178D01*
X153561992Y-121257955D01*
X153429615Y-121187198D01*
X153285978Y-121143626D01*
X153174026Y-121132600D01*
X153174023Y-121132600D01*
X153136600Y-121128914D01*
X153099177Y-121132600D01*
X136965597Y-121132600D01*
X137624656Y-120473541D01*
X157619700Y-120473541D01*
X157619700Y-120648659D01*
X157653864Y-120820412D01*
X157720879Y-120982199D01*
X157818169Y-121127804D01*
X157941996Y-121251631D01*
X158087601Y-121348921D01*
X158249388Y-121415936D01*
X158421141Y-121450100D01*
X158596259Y-121450100D01*
X158768012Y-121415936D01*
X158929799Y-121348921D01*
X159075404Y-121251631D01*
X159199231Y-121127804D01*
X159296521Y-120982199D01*
X159363536Y-120820412D01*
X159397700Y-120648659D01*
X159397700Y-120473541D01*
X159363536Y-120301788D01*
X159296521Y-120140001D01*
X159199231Y-119994396D01*
X159075404Y-119870569D01*
X158929799Y-119773279D01*
X158768012Y-119706264D01*
X158596259Y-119672100D01*
X158421141Y-119672100D01*
X158249388Y-119706264D01*
X158087601Y-119773279D01*
X157941996Y-119870569D01*
X157818169Y-119994396D01*
X157720879Y-120140001D01*
X157653864Y-120301788D01*
X157619700Y-120473541D01*
X137624656Y-120473541D01*
X138464197Y-119634000D01*
X142034261Y-119634000D01*
X142072905Y-119659821D01*
X142234692Y-119726836D01*
X142406445Y-119761000D01*
X142581563Y-119761000D01*
X142753316Y-119726836D01*
X142915103Y-119659821D01*
X143060708Y-119562531D01*
X143184535Y-119438704D01*
X143281825Y-119293099D01*
X143348840Y-119131312D01*
X143380202Y-118973644D01*
X146672933Y-118973644D01*
X146710356Y-118977330D01*
X146747779Y-118973644D01*
X146747782Y-118973644D01*
X146859734Y-118962618D01*
X147003371Y-118919046D01*
X147135748Y-118848289D01*
X147251778Y-118753066D01*
X147275640Y-118723990D01*
X149057727Y-116941903D01*
X149103312Y-116932836D01*
X149265099Y-116865821D01*
X149410704Y-116768531D01*
X149534531Y-116644704D01*
X149631821Y-116499099D01*
X149698836Y-116337312D01*
X149733000Y-116165559D01*
X149733000Y-115990441D01*
X149698836Y-115818688D01*
X149631821Y-115656901D01*
X149534531Y-115511296D01*
X149410704Y-115387469D01*
X149265099Y-115290179D01*
X149103312Y-115223164D01*
X148931559Y-115189000D01*
X148756441Y-115189000D01*
X148584688Y-115223164D01*
X148422901Y-115290179D01*
X148277296Y-115387469D01*
X148209000Y-115455765D01*
X148140704Y-115387469D01*
X147995099Y-115290179D01*
X147833312Y-115223164D01*
X147661559Y-115189000D01*
X147486441Y-115189000D01*
X147314688Y-115223164D01*
X147152901Y-115290179D01*
X147007296Y-115387469D01*
X146883469Y-115511296D01*
X146786179Y-115656901D01*
X146719164Y-115818688D01*
X146710097Y-115864273D01*
X145531137Y-117043233D01*
X143876398Y-117043233D01*
X143977727Y-116941903D01*
X144023312Y-116932836D01*
X144185099Y-116865821D01*
X144330704Y-116768531D01*
X144454531Y-116644704D01*
X144551821Y-116499099D01*
X144618836Y-116337312D01*
X144653000Y-116165559D01*
X144653000Y-115990441D01*
X144618836Y-115818688D01*
X144551821Y-115656901D01*
X144454531Y-115511296D01*
X144330704Y-115387469D01*
X144185099Y-115290179D01*
X144023312Y-115223164D01*
X143851559Y-115189000D01*
X143676441Y-115189000D01*
X143504688Y-115223164D01*
X143342901Y-115290179D01*
X143197296Y-115387469D01*
X143073469Y-115511296D01*
X142976179Y-115656901D01*
X142909164Y-115818688D01*
X142900097Y-115864273D01*
X142127548Y-116636822D01*
X141919798Y-116636822D01*
X142011821Y-116499099D01*
X142078836Y-116337312D01*
X142113000Y-116165559D01*
X142113000Y-115990441D01*
X142078836Y-115818688D01*
X142011821Y-115656901D01*
X141914531Y-115511296D01*
X141790704Y-115387469D01*
X141645099Y-115290179D01*
X141483312Y-115223164D01*
X141311559Y-115189000D01*
X141136441Y-115189000D01*
X140964688Y-115223164D01*
X140802901Y-115290179D01*
X140657296Y-115387469D01*
X140589000Y-115455765D01*
X140520704Y-115387469D01*
X140375099Y-115290179D01*
X140213312Y-115223164D01*
X140041559Y-115189000D01*
X139866441Y-115189000D01*
X139694688Y-115223164D01*
X139532901Y-115290179D01*
X139494257Y-115316000D01*
X138904228Y-115316000D01*
X138942352Y-115277876D01*
X138971422Y-115254019D01*
X139046172Y-115162936D01*
X139066645Y-115137990D01*
X139104465Y-115067233D01*
X139137402Y-115005612D01*
X139180974Y-114861975D01*
X139192000Y-114750023D01*
X139192000Y-114750020D01*
X139195686Y-114712597D01*
X139192000Y-114675174D01*
X139192000Y-108155743D01*
X139217821Y-108117099D01*
X139284836Y-107955312D01*
X139319000Y-107783559D01*
X139319000Y-107608441D01*
X139284836Y-107436688D01*
X139217821Y-107274901D01*
X139120531Y-107129296D01*
X138996704Y-107005469D01*
X138851099Y-106908179D01*
X138689312Y-106841164D01*
X138517559Y-106807000D01*
X138342441Y-106807000D01*
X138170688Y-106841164D01*
X138008901Y-106908179D01*
X137863296Y-107005469D01*
X137739469Y-107129296D01*
X137642179Y-107274901D01*
X137575164Y-107436688D01*
X137541000Y-107608441D01*
X137541000Y-107783559D01*
X137575164Y-107955312D01*
X137642179Y-108117099D01*
X137668000Y-108155743D01*
X137668001Y-114396965D01*
X131749813Y-120315154D01*
X131749813Y-108995890D01*
X132344573Y-108995890D01*
X132344573Y-109444110D01*
X132432016Y-109883718D01*
X132603543Y-110297819D01*
X132852560Y-110670500D01*
X133169500Y-110987440D01*
X133542181Y-111236457D01*
X133956282Y-111407984D01*
X134395890Y-111495427D01*
X134844110Y-111495427D01*
X135283718Y-111407984D01*
X135697819Y-111236457D01*
X136070500Y-110987440D01*
X136387440Y-110670500D01*
X136636457Y-110297819D01*
X136807984Y-109883718D01*
X136895427Y-109444110D01*
X136895427Y-108995890D01*
X136807984Y-108556282D01*
X136636457Y-108142181D01*
X136387440Y-107769500D01*
X136070500Y-107452560D01*
X135697819Y-107203543D01*
X135283718Y-107032016D01*
X134844110Y-106944573D01*
X134395890Y-106944573D01*
X133956282Y-107032016D01*
X133542181Y-107203543D01*
X133169500Y-107452560D01*
X132852560Y-107769500D01*
X132603543Y-108142181D01*
X132432016Y-108556282D01*
X132344573Y-108995890D01*
X131749813Y-108995890D01*
X131749813Y-106055817D01*
X135164221Y-102641410D01*
X135538781Y-102641410D01*
X135530464Y-102661488D01*
X135496300Y-102833241D01*
X135496300Y-103008359D01*
X135530464Y-103180112D01*
X135597479Y-103341899D01*
X135694769Y-103487504D01*
X135818596Y-103611331D01*
X135964201Y-103708621D01*
X136125988Y-103775636D01*
X136297741Y-103809800D01*
X136472859Y-103809800D01*
X136644612Y-103775636D01*
X136806399Y-103708621D01*
X136952004Y-103611331D01*
X137075831Y-103487504D01*
X137173121Y-103341899D01*
X137240136Y-103180112D01*
X137274300Y-103008359D01*
X137274300Y-102833241D01*
X137240136Y-102661488D01*
X137231819Y-102641410D01*
X142165079Y-102641410D01*
X142203723Y-102667231D01*
X142365510Y-102734246D01*
X142537263Y-102768410D01*
X142712381Y-102768410D01*
X142881219Y-102734826D01*
X142909164Y-102875312D01*
X142976179Y-103037099D01*
X143073469Y-103182704D01*
X143197296Y-103306531D01*
X143342901Y-103403821D01*
X143504688Y-103470836D01*
X143676441Y-103505000D01*
X143851559Y-103505000D01*
X144023312Y-103470836D01*
X144185099Y-103403821D01*
X144330704Y-103306531D01*
X144454531Y-103182704D01*
X144551821Y-103037099D01*
X144618836Y-102875312D01*
X144653000Y-102703559D01*
X144653000Y-102528441D01*
X144618836Y-102356688D01*
X144551821Y-102194901D01*
X144526000Y-102156257D01*
X144526000Y-102145422D01*
X144529686Y-102107999D01*
X144523904Y-102049296D01*
X144514974Y-101958622D01*
X144471402Y-101814985D01*
X144400645Y-101682608D01*
X144305422Y-101566578D01*
X144276353Y-101542722D01*
X143554584Y-100820953D01*
X143530722Y-100791878D01*
X143414692Y-100696655D01*
X143282315Y-100625898D01*
X143138678Y-100582326D01*
X143026726Y-100571300D01*
X143026723Y-100571300D01*
X142989300Y-100567614D01*
X142951877Y-100571300D01*
X134857372Y-100571300D01*
X134819949Y-100567614D01*
X134782526Y-100571300D01*
X134782523Y-100571300D01*
X134670571Y-100582326D01*
X134526934Y-100625898D01*
X134465313Y-100658835D01*
X134394556Y-100696655D01*
X134352168Y-100731443D01*
X134278527Y-100791878D01*
X134254665Y-100820954D01*
X130069051Y-105006568D01*
X130039981Y-105030425D01*
X130016124Y-105059495D01*
X130016123Y-105059496D01*
X129944757Y-105146455D01*
X129874001Y-105278832D01*
X129830429Y-105422469D01*
X129815716Y-105571847D01*
X129819403Y-105609280D01*
X129819402Y-126139059D01*
X129788683Y-126145169D01*
X129626896Y-126212184D01*
X129481291Y-126309474D01*
X129357464Y-126433301D01*
X129260174Y-126578906D01*
X129193159Y-126740693D01*
X129158995Y-126912446D01*
X122171492Y-126912446D01*
X122140857Y-126875119D01*
X122080422Y-126801478D01*
X122051347Y-126777617D01*
X120180100Y-124906370D01*
X120180100Y-121995523D01*
X120183786Y-121958100D01*
X120180100Y-121920674D01*
X120169074Y-121808722D01*
X120125502Y-121665085D01*
X120072821Y-121566526D01*
X120054745Y-121532707D01*
X119983379Y-121445748D01*
X119959522Y-121416678D01*
X119930453Y-121392822D01*
X119598072Y-121060441D01*
X119598072Y-119800000D01*
X119585812Y-119675518D01*
X119549502Y-119555820D01*
X119490537Y-119445506D01*
X119411185Y-119348815D01*
X119314494Y-119269463D01*
X119204180Y-119210498D01*
X119084482Y-119174188D01*
X118960000Y-119161928D01*
X117260000Y-119161928D01*
X117135518Y-119174188D01*
X117015820Y-119210498D01*
X116905506Y-119269463D01*
X116808815Y-119348815D01*
X116729463Y-119445506D01*
X116670498Y-119555820D01*
X116634188Y-119675518D01*
X116621928Y-119800000D01*
X116621928Y-121500000D01*
X116634188Y-121624482D01*
X116670498Y-121744180D01*
X116729463Y-121854494D01*
X116808815Y-121951185D01*
X116905506Y-122030537D01*
X117015820Y-122089502D01*
X117084687Y-122110393D01*
X117054866Y-122134866D01*
X116869294Y-122360986D01*
X116731401Y-122618966D01*
X116646487Y-122898889D01*
X116617815Y-123190000D01*
X115180426Y-123190000D01*
X115432844Y-121167889D01*
X115886259Y-118794465D01*
X116491887Y-116455259D01*
X117247207Y-114160013D01*
X118149076Y-111918279D01*
X119193728Y-109739419D01*
X120376803Y-107632527D01*
X121693382Y-105606361D01*
X123137965Y-103669390D01*
X124704540Y-101829667D01*
X126386555Y-100094892D01*
X128177047Y-98472247D01*
X130068492Y-96968552D01*
X132053035Y-95590048D01*
X134122402Y-94342481D01*
X136267972Y-93231053D01*
X138480769Y-92260410D01*
X140751624Y-91434575D01*
X143071005Y-90757014D01*
X145429304Y-90230535D01*
X147816650Y-89857343D01*
X150223118Y-89638986D01*
X152638624Y-89576382D01*
X155053169Y-89669787D01*
M02*
