G04 #@! TF.GenerationSoftware,KiCad,Pcbnew,(5.1.4)-1*
G04 #@! TF.CreationDate,2020-01-28T11:40:39-05:00*
G04 #@! TF.ProjectId,PDL_1920,50444c5f-3139-4323-902e-6b696361645f,rev?*
G04 #@! TF.SameCoordinates,Original*
G04 #@! TF.FileFunction,Legend,Bot*
G04 #@! TF.FilePolarity,Positive*
%FSLAX46Y46*%
G04 Gerber Fmt 4.6, Leading zero omitted, Abs format (unit mm)*
G04 Created by KiCad (PCBNEW (5.1.4)-1) date 2020-01-28 11:40:39*
%MOMM*%
%LPD*%
G04 APERTURE LIST*
%ADD10C,0.300000*%
G04 APERTURE END LIST*
D10*
X185166298Y-127038100D02*
G75*
G03X185166298Y-127038100I-32778998J0D01*
G01*
X164214271Y-151989071D02*
X164214271Y-150489071D01*
X163642842Y-150489071D01*
X163499985Y-150560500D01*
X163428557Y-150631928D01*
X163357128Y-150774785D01*
X163357128Y-150989071D01*
X163428557Y-151131928D01*
X163499985Y-151203357D01*
X163642842Y-151274785D01*
X164214271Y-151274785D01*
X162714271Y-151989071D02*
X162714271Y-150989071D01*
X162714271Y-151274785D02*
X162642842Y-151131928D01*
X162571414Y-151060500D01*
X162428557Y-150989071D01*
X162285700Y-150989071D01*
X161214271Y-151917642D02*
X161357128Y-151989071D01*
X161642842Y-151989071D01*
X161785700Y-151917642D01*
X161857128Y-151774785D01*
X161857128Y-151203357D01*
X161785700Y-151060500D01*
X161642842Y-150989071D01*
X161357128Y-150989071D01*
X161214271Y-151060500D01*
X161142842Y-151203357D01*
X161142842Y-151346214D01*
X161857128Y-151489071D01*
X160571414Y-151917642D02*
X160428557Y-151989071D01*
X160142842Y-151989071D01*
X159999985Y-151917642D01*
X159928557Y-151774785D01*
X159928557Y-151703357D01*
X159999985Y-151560500D01*
X160142842Y-151489071D01*
X160357128Y-151489071D01*
X160499985Y-151417642D01*
X160571414Y-151274785D01*
X160571414Y-151203357D01*
X160499985Y-151060500D01*
X160357128Y-150989071D01*
X160142842Y-150989071D01*
X159999985Y-151060500D01*
X159357128Y-151917642D02*
X159214271Y-151989071D01*
X158928557Y-151989071D01*
X158785700Y-151917642D01*
X158714271Y-151774785D01*
X158714271Y-151703357D01*
X158785700Y-151560500D01*
X158928557Y-151489071D01*
X159142842Y-151489071D01*
X159285700Y-151417642D01*
X159357128Y-151274785D01*
X159357128Y-151203357D01*
X159285700Y-151060500D01*
X159142842Y-150989071D01*
X158928557Y-150989071D01*
X158785700Y-151060500D01*
X157428557Y-150989071D02*
X157428557Y-151989071D01*
X158071414Y-150989071D02*
X158071414Y-151774785D01*
X157999985Y-151917642D01*
X157857128Y-151989071D01*
X157642842Y-151989071D01*
X157499985Y-151917642D01*
X157428557Y-151846214D01*
X156714271Y-151989071D02*
X156714271Y-150989071D01*
X156714271Y-151274785D02*
X156642842Y-151131928D01*
X156571414Y-151060500D01*
X156428557Y-150989071D01*
X156285700Y-150989071D01*
X155214271Y-151917642D02*
X155357128Y-151989071D01*
X155642842Y-151989071D01*
X155785700Y-151917642D01*
X155857128Y-151774785D01*
X155857128Y-151203357D01*
X155785700Y-151060500D01*
X155642842Y-150989071D01*
X155357128Y-150989071D01*
X155214271Y-151060500D01*
X155142842Y-151203357D01*
X155142842Y-151346214D01*
X155857128Y-151489071D01*
X153357128Y-151989071D02*
X153357128Y-150489071D01*
X152999985Y-150489071D01*
X152785700Y-150560500D01*
X152642842Y-150703357D01*
X152571414Y-150846214D01*
X152499985Y-151131928D01*
X152499985Y-151346214D01*
X152571414Y-151631928D01*
X152642842Y-151774785D01*
X152785700Y-151917642D01*
X152999985Y-151989071D01*
X153357128Y-151989071D01*
X151214271Y-151989071D02*
X151214271Y-151203357D01*
X151285700Y-151060500D01*
X151428557Y-150989071D01*
X151714271Y-150989071D01*
X151857128Y-151060500D01*
X151214271Y-151917642D02*
X151357128Y-151989071D01*
X151714271Y-151989071D01*
X151857128Y-151917642D01*
X151928557Y-151774785D01*
X151928557Y-151631928D01*
X151857128Y-151489071D01*
X151714271Y-151417642D01*
X151357128Y-151417642D01*
X151214271Y-151346214D01*
X150714271Y-150989071D02*
X150142842Y-150989071D01*
X150499985Y-150489071D02*
X150499985Y-151774785D01*
X150428557Y-151917642D01*
X150285700Y-151989071D01*
X150142842Y-151989071D01*
X148999985Y-151989071D02*
X148999985Y-151203357D01*
X149071414Y-151060500D01*
X149214271Y-150989071D01*
X149499985Y-150989071D01*
X149642842Y-151060500D01*
X148999985Y-151917642D02*
X149142842Y-151989071D01*
X149499985Y-151989071D01*
X149642842Y-151917642D01*
X149714271Y-151774785D01*
X149714271Y-151631928D01*
X149642842Y-151489071D01*
X149499985Y-151417642D01*
X149142842Y-151417642D01*
X148999985Y-151346214D01*
X146428557Y-151989071D02*
X147142842Y-151989071D01*
X147142842Y-150489071D01*
X145714271Y-151989071D02*
X145857128Y-151917642D01*
X145928557Y-151846214D01*
X145999985Y-151703357D01*
X145999985Y-151274785D01*
X145928557Y-151131928D01*
X145857128Y-151060500D01*
X145714271Y-150989071D01*
X145499985Y-150989071D01*
X145357128Y-151060500D01*
X145285700Y-151131928D01*
X145214271Y-151274785D01*
X145214271Y-151703357D01*
X145285700Y-151846214D01*
X145357128Y-151917642D01*
X145499985Y-151989071D01*
X145714271Y-151989071D01*
X143928557Y-150989071D02*
X143928557Y-152203357D01*
X143999985Y-152346214D01*
X144071414Y-152417642D01*
X144214271Y-152489071D01*
X144428557Y-152489071D01*
X144571414Y-152417642D01*
X143928557Y-151917642D02*
X144071414Y-151989071D01*
X144357128Y-151989071D01*
X144499985Y-151917642D01*
X144571414Y-151846214D01*
X144642842Y-151703357D01*
X144642842Y-151274785D01*
X144571414Y-151131928D01*
X144499985Y-151060500D01*
X144357128Y-150989071D01*
X144071414Y-150989071D01*
X143928557Y-151060500D01*
X142571414Y-150989071D02*
X142571414Y-152203357D01*
X142642842Y-152346214D01*
X142714271Y-152417642D01*
X142857128Y-152489071D01*
X143071414Y-152489071D01*
X143214271Y-152417642D01*
X142571414Y-151917642D02*
X142714271Y-151989071D01*
X142999985Y-151989071D01*
X143142842Y-151917642D01*
X143214271Y-151846214D01*
X143285700Y-151703357D01*
X143285700Y-151274785D01*
X143214271Y-151131928D01*
X143142842Y-151060500D01*
X142999985Y-150989071D01*
X142714271Y-150989071D01*
X142571414Y-151060500D01*
X141285700Y-151917642D02*
X141428557Y-151989071D01*
X141714271Y-151989071D01*
X141857128Y-151917642D01*
X141928557Y-151774785D01*
X141928557Y-151203357D01*
X141857128Y-151060500D01*
X141714271Y-150989071D01*
X141428557Y-150989071D01*
X141285700Y-151060500D01*
X141214271Y-151203357D01*
X141214271Y-151346214D01*
X141928557Y-151489071D01*
X140571414Y-151989071D02*
X140571414Y-150989071D01*
X140571414Y-151274785D02*
X140499985Y-151131928D01*
X140428557Y-151060500D01*
X140285700Y-150989071D01*
X140142842Y-150989071D01*
X161392842Y-154539071D02*
X161392842Y-153039071D01*
X161392842Y-153753357D02*
X160535700Y-153753357D01*
X160535700Y-154539071D02*
X160535700Y-153039071D01*
X159178557Y-154539071D02*
X159178557Y-153753357D01*
X159249985Y-153610500D01*
X159392842Y-153539071D01*
X159678557Y-153539071D01*
X159821414Y-153610500D01*
X159178557Y-154467642D02*
X159321414Y-154539071D01*
X159678557Y-154539071D01*
X159821414Y-154467642D01*
X159892842Y-154324785D01*
X159892842Y-154181928D01*
X159821414Y-154039071D01*
X159678557Y-153967642D01*
X159321414Y-153967642D01*
X159178557Y-153896214D01*
X158464271Y-153539071D02*
X158464271Y-154539071D01*
X158464271Y-153681928D02*
X158392842Y-153610500D01*
X158249985Y-153539071D01*
X158035700Y-153539071D01*
X157892842Y-153610500D01*
X157821414Y-153753357D01*
X157821414Y-154539071D01*
X157107128Y-153539071D02*
X157107128Y-154539071D01*
X157107128Y-153681928D02*
X157035700Y-153610500D01*
X156892842Y-153539071D01*
X156678557Y-153539071D01*
X156535700Y-153610500D01*
X156464271Y-153753357D01*
X156464271Y-154539071D01*
X155107128Y-154539071D02*
X155107128Y-153753357D01*
X155178557Y-153610500D01*
X155321414Y-153539071D01*
X155607128Y-153539071D01*
X155749985Y-153610500D01*
X155107128Y-154467642D02*
X155249985Y-154539071D01*
X155607128Y-154539071D01*
X155749985Y-154467642D01*
X155821414Y-154324785D01*
X155821414Y-154181928D01*
X155749985Y-154039071D01*
X155607128Y-153967642D01*
X155249985Y-153967642D01*
X155107128Y-153896214D01*
X154392842Y-154539071D02*
X154392842Y-153039071D01*
X153749985Y-154539071D02*
X153749985Y-153753357D01*
X153821414Y-153610500D01*
X153964271Y-153539071D01*
X154178557Y-153539071D01*
X154321414Y-153610500D01*
X154392842Y-153681928D01*
X151892842Y-154539071D02*
X151892842Y-153039071D01*
X151178557Y-154539071D02*
X151178557Y-153539071D01*
X151178557Y-153681928D02*
X151107128Y-153610500D01*
X150964271Y-153539071D01*
X150749985Y-153539071D01*
X150607128Y-153610500D01*
X150535700Y-153753357D01*
X150535700Y-154539071D01*
X150535700Y-153753357D02*
X150464271Y-153610500D01*
X150321414Y-153539071D01*
X150107128Y-153539071D01*
X149964271Y-153610500D01*
X149892842Y-153753357D01*
X149892842Y-154539071D01*
X149178557Y-154539071D02*
X149178557Y-153039071D01*
X149178557Y-153610500D02*
X149035700Y-153539071D01*
X148749985Y-153539071D01*
X148607128Y-153610500D01*
X148535700Y-153681928D01*
X148464271Y-153824785D01*
X148464271Y-154253357D01*
X148535700Y-154396214D01*
X148607128Y-154467642D01*
X148749985Y-154539071D01*
X149035700Y-154539071D01*
X149178557Y-154467642D01*
X147607128Y-154539071D02*
X147749985Y-154467642D01*
X147821414Y-154396214D01*
X147892842Y-154253357D01*
X147892842Y-153824785D01*
X147821414Y-153681928D01*
X147749985Y-153610500D01*
X147607128Y-153539071D01*
X147392842Y-153539071D01*
X147249985Y-153610500D01*
X147178557Y-153681928D01*
X147107128Y-153824785D01*
X147107128Y-154253357D01*
X147178557Y-154396214D01*
X147249985Y-154467642D01*
X147392842Y-154539071D01*
X147607128Y-154539071D01*
X145821414Y-154539071D02*
X145821414Y-153039071D01*
X145821414Y-154467642D02*
X145964271Y-154539071D01*
X146249985Y-154539071D01*
X146392842Y-154467642D01*
X146464271Y-154396214D01*
X146535700Y-154253357D01*
X146535700Y-153824785D01*
X146464271Y-153681928D01*
X146392842Y-153610500D01*
X146249985Y-153539071D01*
X145964271Y-153539071D01*
X145821414Y-153610500D01*
X144535700Y-154467642D02*
X144678557Y-154539071D01*
X144964271Y-154539071D01*
X145107128Y-154467642D01*
X145178557Y-154324785D01*
X145178557Y-153753357D01*
X145107128Y-153610500D01*
X144964271Y-153539071D01*
X144678557Y-153539071D01*
X144535700Y-153610500D01*
X144464271Y-153753357D01*
X144464271Y-153896214D01*
X145178557Y-154039071D01*
X143821414Y-153539071D02*
X143821414Y-154539071D01*
X143821414Y-153681928D02*
X143749985Y-153610500D01*
X143607128Y-153539071D01*
X143392842Y-153539071D01*
X143249985Y-153610500D01*
X143178557Y-153753357D01*
X143178557Y-154539071D01*
X159214271Y-155731928D02*
X159142842Y-155660500D01*
X158999985Y-155589071D01*
X158642842Y-155589071D01*
X158499985Y-155660500D01*
X158428557Y-155731928D01*
X158357128Y-155874785D01*
X158357128Y-156017642D01*
X158428557Y-156231928D01*
X159285700Y-157089071D01*
X158357128Y-157089071D01*
X157428557Y-155589071D02*
X157285700Y-155589071D01*
X157142842Y-155660500D01*
X157071414Y-155731928D01*
X156999985Y-155874785D01*
X156928557Y-156160500D01*
X156928557Y-156517642D01*
X156999985Y-156803357D01*
X157071414Y-156946214D01*
X157142842Y-157017642D01*
X157285700Y-157089071D01*
X157428557Y-157089071D01*
X157571414Y-157017642D01*
X157642842Y-156946214D01*
X157714271Y-156803357D01*
X157785700Y-156517642D01*
X157785700Y-156160500D01*
X157714271Y-155874785D01*
X157642842Y-155731928D01*
X157571414Y-155660500D01*
X157428557Y-155589071D01*
X155499985Y-157089071D02*
X156357128Y-157089071D01*
X155928557Y-157089071D02*
X155928557Y-155589071D01*
X156071414Y-155803357D01*
X156214271Y-155946214D01*
X156357128Y-156017642D01*
X154785700Y-157089071D02*
X154499985Y-157089071D01*
X154357128Y-157017642D01*
X154285700Y-156946214D01*
X154142842Y-156731928D01*
X154071414Y-156446214D01*
X154071414Y-155874785D01*
X154142842Y-155731928D01*
X154214271Y-155660500D01*
X154357128Y-155589071D01*
X154642842Y-155589071D01*
X154785700Y-155660500D01*
X154857128Y-155731928D01*
X154928557Y-155874785D01*
X154928557Y-156231928D01*
X154857128Y-156374785D01*
X154785700Y-156446214D01*
X154642842Y-156517642D01*
X154357128Y-156517642D01*
X154214271Y-156446214D01*
X154142842Y-156374785D01*
X154071414Y-156231928D01*
X152285700Y-156517642D02*
X151142842Y-156517642D01*
X150499985Y-155731928D02*
X150428557Y-155660500D01*
X150285700Y-155589071D01*
X149928557Y-155589071D01*
X149785700Y-155660500D01*
X149714271Y-155731928D01*
X149642842Y-155874785D01*
X149642842Y-156017642D01*
X149714271Y-156231928D01*
X150571414Y-157089071D01*
X149642842Y-157089071D01*
X148714271Y-155589071D02*
X148571414Y-155589071D01*
X148428557Y-155660500D01*
X148357128Y-155731928D01*
X148285700Y-155874785D01*
X148214271Y-156160500D01*
X148214271Y-156517642D01*
X148285700Y-156803357D01*
X148357128Y-156946214D01*
X148428557Y-157017642D01*
X148571414Y-157089071D01*
X148714271Y-157089071D01*
X148857128Y-157017642D01*
X148928557Y-156946214D01*
X148999985Y-156803357D01*
X149071414Y-156517642D01*
X149071414Y-156160500D01*
X148999985Y-155874785D01*
X148928557Y-155731928D01*
X148857128Y-155660500D01*
X148714271Y-155589071D01*
X147642842Y-155731928D02*
X147571414Y-155660500D01*
X147428557Y-155589071D01*
X147071414Y-155589071D01*
X146928557Y-155660500D01*
X146857128Y-155731928D01*
X146785700Y-155874785D01*
X146785700Y-156017642D01*
X146857128Y-156231928D01*
X147714271Y-157089071D01*
X146785700Y-157089071D01*
X145857128Y-155589071D02*
X145714271Y-155589071D01*
X145571414Y-155660500D01*
X145499985Y-155731928D01*
X145428557Y-155874785D01*
X145357128Y-156160500D01*
X145357128Y-156517642D01*
X145428557Y-156803357D01*
X145499985Y-156946214D01*
X145571414Y-157017642D01*
X145714271Y-157089071D01*
X145857128Y-157089071D01*
X145999985Y-157017642D01*
X146071414Y-156946214D01*
X146142842Y-156803357D01*
X146214271Y-156517642D01*
X146214271Y-156160500D01*
X146142842Y-155874785D01*
X146071414Y-155731928D01*
X145999985Y-155660500D01*
X145857128Y-155589071D01*
M02*
