G04 #@! TF.GenerationSoftware,KiCad,Pcbnew,(5.1.4)-1*
G04 #@! TF.CreationDate,2020-01-15T14:03:57-05:00*
G04 #@! TF.ProjectId,PDL_1920,50444c5f-3139-4323-902e-6b696361645f,rev?*
G04 #@! TF.SameCoordinates,Original*
G04 #@! TF.FileFunction,Soldermask,Bot*
G04 #@! TF.FilePolarity,Negative*
%FSLAX46Y46*%
G04 Gerber Fmt 4.6, Leading zero omitted, Abs format (unit mm)*
G04 Created by KiCad (PCBNEW (5.1.4)-1) date 2020-01-15 14:03:57*
%MOMM*%
%LPD*%
G04 APERTURE LIST*
%ADD10C,0.100000*%
G04 APERTURE END LIST*
D10*
G36*
X118220442Y-132455518D02*
G01*
X118286627Y-132462037D01*
X118456466Y-132513557D01*
X118612991Y-132597222D01*
X118648729Y-132626552D01*
X118750186Y-132709814D01*
X118833448Y-132811271D01*
X118862778Y-132847009D01*
X118946443Y-133003534D01*
X118997963Y-133173373D01*
X119015359Y-133350000D01*
X118997963Y-133526627D01*
X118946443Y-133696466D01*
X118862778Y-133852991D01*
X118833448Y-133888729D01*
X118750186Y-133990186D01*
X118648729Y-134073448D01*
X118612991Y-134102778D01*
X118456466Y-134186443D01*
X118286627Y-134237963D01*
X118220443Y-134244481D01*
X118154260Y-134251000D01*
X118065740Y-134251000D01*
X117999557Y-134244481D01*
X117933373Y-134237963D01*
X117763534Y-134186443D01*
X117607009Y-134102778D01*
X117571271Y-134073448D01*
X117469814Y-133990186D01*
X117386552Y-133888729D01*
X117357222Y-133852991D01*
X117273557Y-133696466D01*
X117222037Y-133526627D01*
X117204641Y-133350000D01*
X117222037Y-133173373D01*
X117273557Y-133003534D01*
X117357222Y-132847009D01*
X117386552Y-132811271D01*
X117469814Y-132709814D01*
X117571271Y-132626552D01*
X117607009Y-132597222D01*
X117763534Y-132513557D01*
X117933373Y-132462037D01*
X117999558Y-132455518D01*
X118065740Y-132449000D01*
X118154260Y-132449000D01*
X118220442Y-132455518D01*
X118220442Y-132455518D01*
G37*
G36*
X118220442Y-129915518D02*
G01*
X118286627Y-129922037D01*
X118456466Y-129973557D01*
X118612991Y-130057222D01*
X118648729Y-130086552D01*
X118750186Y-130169814D01*
X118820259Y-130255200D01*
X118862778Y-130307009D01*
X118946443Y-130463534D01*
X118997963Y-130633373D01*
X119015359Y-130810000D01*
X118997963Y-130986627D01*
X118946443Y-131156466D01*
X118862778Y-131312991D01*
X118833448Y-131348729D01*
X118750186Y-131450186D01*
X118648729Y-131533448D01*
X118612991Y-131562778D01*
X118456466Y-131646443D01*
X118286627Y-131697963D01*
X118220443Y-131704481D01*
X118154260Y-131711000D01*
X118065740Y-131711000D01*
X117999557Y-131704481D01*
X117933373Y-131697963D01*
X117763534Y-131646443D01*
X117607009Y-131562778D01*
X117571271Y-131533448D01*
X117469814Y-131450186D01*
X117386552Y-131348729D01*
X117357222Y-131312991D01*
X117273557Y-131156466D01*
X117222037Y-130986627D01*
X117204641Y-130810000D01*
X117222037Y-130633373D01*
X117273557Y-130463534D01*
X117357222Y-130307009D01*
X117399741Y-130255200D01*
X117469814Y-130169814D01*
X117571271Y-130086552D01*
X117607009Y-130057222D01*
X117763534Y-129973557D01*
X117933373Y-129922037D01*
X117999558Y-129915518D01*
X118065740Y-129909000D01*
X118154260Y-129909000D01*
X118220442Y-129915518D01*
X118220442Y-129915518D01*
G37*
G36*
X164886000Y-130255200D02*
G01*
X164044000Y-130255200D01*
X164044000Y-127233200D01*
X164886000Y-127233200D01*
X164886000Y-130255200D01*
X164886000Y-130255200D01*
G37*
G36*
X163616000Y-130255200D02*
G01*
X162774000Y-130255200D01*
X162774000Y-127233200D01*
X163616000Y-127233200D01*
X163616000Y-130255200D01*
X163616000Y-130255200D01*
G37*
G36*
X162346000Y-130255200D02*
G01*
X161504000Y-130255200D01*
X161504000Y-127233200D01*
X162346000Y-127233200D01*
X162346000Y-130255200D01*
X162346000Y-130255200D01*
G37*
G36*
X161076000Y-130255200D02*
G01*
X160234000Y-130255200D01*
X160234000Y-127233200D01*
X161076000Y-127233200D01*
X161076000Y-130255200D01*
X161076000Y-130255200D01*
G37*
G36*
X159806000Y-130255200D02*
G01*
X158964000Y-130255200D01*
X158964000Y-127233200D01*
X159806000Y-127233200D01*
X159806000Y-130255200D01*
X159806000Y-130255200D01*
G37*
G36*
X158536000Y-130255200D02*
G01*
X157694000Y-130255200D01*
X157694000Y-127233200D01*
X158536000Y-127233200D01*
X158536000Y-130255200D01*
X158536000Y-130255200D01*
G37*
G36*
X157266000Y-130255200D02*
G01*
X156424000Y-130255200D01*
X156424000Y-127233200D01*
X157266000Y-127233200D01*
X157266000Y-130255200D01*
X157266000Y-130255200D01*
G37*
G36*
X155996000Y-130255200D02*
G01*
X155154000Y-130255200D01*
X155154000Y-127233200D01*
X155996000Y-127233200D01*
X155996000Y-130255200D01*
X155996000Y-130255200D01*
G37*
G36*
X154726000Y-130255200D02*
G01*
X153884000Y-130255200D01*
X153884000Y-127233200D01*
X154726000Y-127233200D01*
X154726000Y-130255200D01*
X154726000Y-130255200D01*
G37*
G36*
X153456000Y-130255200D02*
G01*
X152614000Y-130255200D01*
X152614000Y-127233200D01*
X153456000Y-127233200D01*
X153456000Y-130255200D01*
X153456000Y-130255200D01*
G37*
G36*
X152186000Y-130255200D02*
G01*
X151344000Y-130255200D01*
X151344000Y-127233200D01*
X152186000Y-127233200D01*
X152186000Y-130255200D01*
X152186000Y-130255200D01*
G37*
G36*
X150916000Y-130255200D02*
G01*
X150074000Y-130255200D01*
X150074000Y-127233200D01*
X150916000Y-127233200D01*
X150916000Y-130255200D01*
X150916000Y-130255200D01*
G37*
G36*
X149646000Y-130255200D02*
G01*
X148804000Y-130255200D01*
X148804000Y-127233200D01*
X149646000Y-127233200D01*
X149646000Y-130255200D01*
X149646000Y-130255200D01*
G37*
G36*
X148376000Y-130255200D02*
G01*
X147534000Y-130255200D01*
X147534000Y-127233200D01*
X148376000Y-127233200D01*
X148376000Y-130255200D01*
X148376000Y-130255200D01*
G37*
G36*
X147106000Y-130255200D02*
G01*
X146264000Y-130255200D01*
X146264000Y-127233200D01*
X147106000Y-127233200D01*
X147106000Y-130255200D01*
X147106000Y-130255200D01*
G37*
G36*
X145836000Y-130255200D02*
G01*
X144994000Y-130255200D01*
X144994000Y-127233200D01*
X145836000Y-127233200D01*
X145836000Y-130255200D01*
X145836000Y-130255200D01*
G37*
G36*
X144566000Y-130255200D02*
G01*
X143724000Y-130255200D01*
X143724000Y-127233200D01*
X144566000Y-127233200D01*
X144566000Y-130255200D01*
X144566000Y-130255200D01*
G37*
G36*
X143296000Y-130255200D02*
G01*
X142454000Y-130255200D01*
X142454000Y-127233200D01*
X143296000Y-127233200D01*
X143296000Y-130255200D01*
X143296000Y-130255200D01*
G37*
G36*
X142026000Y-130255200D02*
G01*
X141184000Y-130255200D01*
X141184000Y-127233200D01*
X142026000Y-127233200D01*
X142026000Y-130255200D01*
X142026000Y-130255200D01*
G37*
G36*
X140756000Y-130255200D02*
G01*
X139914000Y-130255200D01*
X139914000Y-127233200D01*
X140756000Y-127233200D01*
X140756000Y-130255200D01*
X140756000Y-130255200D01*
G37*
G36*
X118220442Y-127375518D02*
G01*
X118286627Y-127382037D01*
X118456466Y-127433557D01*
X118612991Y-127517222D01*
X118640511Y-127539807D01*
X118750186Y-127629814D01*
X118833448Y-127731271D01*
X118862778Y-127767009D01*
X118946443Y-127923534D01*
X118997963Y-128093373D01*
X119015359Y-128270000D01*
X118997963Y-128446627D01*
X118946443Y-128616466D01*
X118862778Y-128772991D01*
X118833448Y-128808729D01*
X118750186Y-128910186D01*
X118648729Y-128993448D01*
X118612991Y-129022778D01*
X118456466Y-129106443D01*
X118286627Y-129157963D01*
X118220442Y-129164482D01*
X118154260Y-129171000D01*
X118065740Y-129171000D01*
X117999558Y-129164482D01*
X117933373Y-129157963D01*
X117763534Y-129106443D01*
X117607009Y-129022778D01*
X117571271Y-128993448D01*
X117469814Y-128910186D01*
X117386552Y-128808729D01*
X117357222Y-128772991D01*
X117273557Y-128616466D01*
X117222037Y-128446627D01*
X117204641Y-128270000D01*
X117222037Y-128093373D01*
X117273557Y-127923534D01*
X117357222Y-127767009D01*
X117386552Y-127731271D01*
X117469814Y-127629814D01*
X117579489Y-127539807D01*
X117607009Y-127517222D01*
X117763534Y-127433557D01*
X117933373Y-127382037D01*
X117999558Y-127375518D01*
X118065740Y-127369000D01*
X118154260Y-127369000D01*
X118220442Y-127375518D01*
X118220442Y-127375518D01*
G37*
G36*
X166288642Y-126258981D02*
G01*
X166434414Y-126319362D01*
X166434416Y-126319363D01*
X166565608Y-126407022D01*
X166677178Y-126518592D01*
X166743575Y-126617963D01*
X166764838Y-126649786D01*
X166825219Y-126795558D01*
X166856000Y-126950307D01*
X166856000Y-127108093D01*
X166825219Y-127262842D01*
X166764838Y-127408614D01*
X166764837Y-127408616D01*
X166677178Y-127539808D01*
X166565608Y-127651378D01*
X166434416Y-127739037D01*
X166434415Y-127739038D01*
X166434414Y-127739038D01*
X166288642Y-127799419D01*
X166133893Y-127830200D01*
X165976107Y-127830200D01*
X165821358Y-127799419D01*
X165675586Y-127739038D01*
X165675585Y-127739038D01*
X165675584Y-127739037D01*
X165544392Y-127651378D01*
X165432822Y-127539808D01*
X165345163Y-127408616D01*
X165345162Y-127408614D01*
X165284781Y-127262842D01*
X165254000Y-127108093D01*
X165254000Y-126950307D01*
X165284781Y-126795558D01*
X165345162Y-126649786D01*
X165366425Y-126617963D01*
X165432822Y-126518592D01*
X165544392Y-126407022D01*
X165675584Y-126319363D01*
X165675586Y-126319362D01*
X165821358Y-126258981D01*
X165976107Y-126228200D01*
X166133893Y-126228200D01*
X166288642Y-126258981D01*
X166288642Y-126258981D01*
G37*
G36*
X138978642Y-126258981D02*
G01*
X139124414Y-126319362D01*
X139124416Y-126319363D01*
X139255608Y-126407022D01*
X139367178Y-126518592D01*
X139433575Y-126617963D01*
X139454838Y-126649786D01*
X139515219Y-126795558D01*
X139546000Y-126950307D01*
X139546000Y-127108093D01*
X139515219Y-127262842D01*
X139454838Y-127408614D01*
X139454837Y-127408616D01*
X139367178Y-127539808D01*
X139255608Y-127651378D01*
X139124416Y-127739037D01*
X139124415Y-127739038D01*
X139124414Y-127739038D01*
X138978642Y-127799419D01*
X138823893Y-127830200D01*
X138666107Y-127830200D01*
X138511358Y-127799419D01*
X138365586Y-127739038D01*
X138365585Y-127739038D01*
X138365584Y-127739037D01*
X138234392Y-127651378D01*
X138122822Y-127539808D01*
X138035163Y-127408616D01*
X138035162Y-127408614D01*
X137974781Y-127262842D01*
X137944000Y-127108093D01*
X137944000Y-126950307D01*
X137974781Y-126795558D01*
X138035162Y-126649786D01*
X138056425Y-126617963D01*
X138122822Y-126518592D01*
X138234392Y-126407022D01*
X138365584Y-126319363D01*
X138365586Y-126319362D01*
X138511358Y-126258981D01*
X138666107Y-126228200D01*
X138823893Y-126228200D01*
X138978642Y-126258981D01*
X138978642Y-126258981D01*
G37*
G36*
X152186000Y-126825200D02*
G01*
X151344000Y-126825200D01*
X151344000Y-123803200D01*
X152186000Y-123803200D01*
X152186000Y-126825200D01*
X152186000Y-126825200D01*
G37*
G36*
X163616000Y-126825200D02*
G01*
X162774000Y-126825200D01*
X162774000Y-123803200D01*
X163616000Y-123803200D01*
X163616000Y-126825200D01*
X163616000Y-126825200D01*
G37*
G36*
X140756000Y-126825200D02*
G01*
X139914000Y-126825200D01*
X139914000Y-123803200D01*
X140756000Y-123803200D01*
X140756000Y-126825200D01*
X140756000Y-126825200D01*
G37*
G36*
X162346000Y-126825200D02*
G01*
X161504000Y-126825200D01*
X161504000Y-123803200D01*
X162346000Y-123803200D01*
X162346000Y-126825200D01*
X162346000Y-126825200D01*
G37*
G36*
X142026000Y-126825200D02*
G01*
X141184000Y-126825200D01*
X141184000Y-123803200D01*
X142026000Y-123803200D01*
X142026000Y-126825200D01*
X142026000Y-126825200D01*
G37*
G36*
X161076000Y-126825200D02*
G01*
X160234000Y-126825200D01*
X160234000Y-123803200D01*
X161076000Y-123803200D01*
X161076000Y-126825200D01*
X161076000Y-126825200D01*
G37*
G36*
X143296000Y-126825200D02*
G01*
X142454000Y-126825200D01*
X142454000Y-123803200D01*
X143296000Y-123803200D01*
X143296000Y-126825200D01*
X143296000Y-126825200D01*
G37*
G36*
X159806000Y-126825200D02*
G01*
X158964000Y-126825200D01*
X158964000Y-123803200D01*
X159806000Y-123803200D01*
X159806000Y-126825200D01*
X159806000Y-126825200D01*
G37*
G36*
X144566000Y-126825200D02*
G01*
X143724000Y-126825200D01*
X143724000Y-123803200D01*
X144566000Y-123803200D01*
X144566000Y-126825200D01*
X144566000Y-126825200D01*
G37*
G36*
X158536000Y-126825200D02*
G01*
X157694000Y-126825200D01*
X157694000Y-123803200D01*
X158536000Y-123803200D01*
X158536000Y-126825200D01*
X158536000Y-126825200D01*
G37*
G36*
X145836000Y-126825200D02*
G01*
X144994000Y-126825200D01*
X144994000Y-123803200D01*
X145836000Y-123803200D01*
X145836000Y-126825200D01*
X145836000Y-126825200D01*
G37*
G36*
X157266000Y-126825200D02*
G01*
X156424000Y-126825200D01*
X156424000Y-123803200D01*
X157266000Y-123803200D01*
X157266000Y-126825200D01*
X157266000Y-126825200D01*
G37*
G36*
X147106000Y-126825200D02*
G01*
X146264000Y-126825200D01*
X146264000Y-123803200D01*
X147106000Y-123803200D01*
X147106000Y-126825200D01*
X147106000Y-126825200D01*
G37*
G36*
X155996000Y-126825200D02*
G01*
X155154000Y-126825200D01*
X155154000Y-123803200D01*
X155996000Y-123803200D01*
X155996000Y-126825200D01*
X155996000Y-126825200D01*
G37*
G36*
X148376000Y-126825200D02*
G01*
X147534000Y-126825200D01*
X147534000Y-123803200D01*
X148376000Y-123803200D01*
X148376000Y-126825200D01*
X148376000Y-126825200D01*
G37*
G36*
X154726000Y-126825200D02*
G01*
X153884000Y-126825200D01*
X153884000Y-123803200D01*
X154726000Y-123803200D01*
X154726000Y-126825200D01*
X154726000Y-126825200D01*
G37*
G36*
X149646000Y-126825200D02*
G01*
X148804000Y-126825200D01*
X148804000Y-123803200D01*
X149646000Y-123803200D01*
X149646000Y-126825200D01*
X149646000Y-126825200D01*
G37*
G36*
X153456000Y-126825200D02*
G01*
X152614000Y-126825200D01*
X152614000Y-123803200D01*
X153456000Y-123803200D01*
X153456000Y-126825200D01*
X153456000Y-126825200D01*
G37*
G36*
X150916000Y-126825200D02*
G01*
X150074000Y-126825200D01*
X150074000Y-123803200D01*
X150916000Y-123803200D01*
X150916000Y-126825200D01*
X150916000Y-126825200D01*
G37*
G36*
X164886000Y-126825200D02*
G01*
X164044000Y-126825200D01*
X164044000Y-123803200D01*
X164886000Y-123803200D01*
X164886000Y-126825200D01*
X164886000Y-126825200D01*
G37*
G36*
X118220443Y-124835519D02*
G01*
X118286627Y-124842037D01*
X118456466Y-124893557D01*
X118612991Y-124977222D01*
X118648729Y-125006552D01*
X118750186Y-125089814D01*
X118833448Y-125191271D01*
X118862778Y-125227009D01*
X118946443Y-125383534D01*
X118997963Y-125553373D01*
X119015359Y-125730000D01*
X118997963Y-125906627D01*
X118946443Y-126076466D01*
X118862778Y-126232991D01*
X118833448Y-126268729D01*
X118750186Y-126370186D01*
X118648729Y-126453448D01*
X118612991Y-126482778D01*
X118456466Y-126566443D01*
X118286627Y-126617963D01*
X118220442Y-126624482D01*
X118154260Y-126631000D01*
X118065740Y-126631000D01*
X117999558Y-126624482D01*
X117933373Y-126617963D01*
X117763534Y-126566443D01*
X117607009Y-126482778D01*
X117571271Y-126453448D01*
X117469814Y-126370186D01*
X117386552Y-126268729D01*
X117357222Y-126232991D01*
X117273557Y-126076466D01*
X117222037Y-125906627D01*
X117204641Y-125730000D01*
X117222037Y-125553373D01*
X117273557Y-125383534D01*
X117357222Y-125227009D01*
X117386552Y-125191271D01*
X117469814Y-125089814D01*
X117571271Y-125006552D01*
X117607009Y-124977222D01*
X117763534Y-124893557D01*
X117933373Y-124842037D01*
X117999557Y-124835519D01*
X118065740Y-124829000D01*
X118154260Y-124829000D01*
X118220443Y-124835519D01*
X118220443Y-124835519D01*
G37*
G36*
X118220443Y-122295519D02*
G01*
X118286627Y-122302037D01*
X118456466Y-122353557D01*
X118612991Y-122437222D01*
X118648729Y-122466552D01*
X118750186Y-122549814D01*
X118833448Y-122651271D01*
X118862778Y-122687009D01*
X118946443Y-122843534D01*
X118997963Y-123013373D01*
X119015359Y-123190000D01*
X118997963Y-123366627D01*
X118946443Y-123536466D01*
X118862778Y-123692991D01*
X118833448Y-123728729D01*
X118750186Y-123830186D01*
X118648729Y-123913448D01*
X118612991Y-123942778D01*
X118456466Y-124026443D01*
X118286627Y-124077963D01*
X118220442Y-124084482D01*
X118154260Y-124091000D01*
X118065740Y-124091000D01*
X117999558Y-124084482D01*
X117933373Y-124077963D01*
X117763534Y-124026443D01*
X117607009Y-123942778D01*
X117571271Y-123913448D01*
X117469814Y-123830186D01*
X117386552Y-123728729D01*
X117357222Y-123692991D01*
X117273557Y-123536466D01*
X117222037Y-123366627D01*
X117204641Y-123190000D01*
X117222037Y-123013373D01*
X117273557Y-122843534D01*
X117357222Y-122687009D01*
X117386552Y-122651271D01*
X117469814Y-122549814D01*
X117571271Y-122466552D01*
X117607009Y-122437222D01*
X117763534Y-122353557D01*
X117933373Y-122302037D01*
X117999557Y-122295519D01*
X118065740Y-122289000D01*
X118154260Y-122289000D01*
X118220443Y-122295519D01*
X118220443Y-122295519D01*
G37*
G36*
X119011000Y-121551000D02*
G01*
X117209000Y-121551000D01*
X117209000Y-119749000D01*
X119011000Y-119749000D01*
X119011000Y-121551000D01*
X119011000Y-121551000D01*
G37*
M02*
