G04 #@! TF.GenerationSoftware,KiCad,Pcbnew,(5.1.4)-1*
G04 #@! TF.CreationDate,2020-01-15T14:03:56-05:00*
G04 #@! TF.ProjectId,PDL_1920,50444c5f-3139-4323-902e-6b696361645f,rev?*
G04 #@! TF.SameCoordinates,Original*
G04 #@! TF.FileFunction,Legend,Top*
G04 #@! TF.FilePolarity,Positive*
%FSLAX46Y46*%
G04 Gerber Fmt 4.6, Leading zero omitted, Abs format (unit mm)*
G04 Created by KiCad (PCBNEW (5.1.4)-1) date 2020-01-15 14:03:56*
%MOMM*%
%LPD*%
G04 APERTURE LIST*
%ADD10C,0.200000*%
%ADD11C,0.100000*%
%ADD12C,0.120000*%
%ADD13C,0.254000*%
%ADD14C,0.150000*%
G04 APERTURE END LIST*
D10*
X140300000Y-130829200D02*
G75*
G02X140200000Y-130829200I-50000J0D01*
G01*
X140200000Y-130829200D02*
G75*
G02X140300000Y-130829200I50000J0D01*
G01*
X140300000Y-130829200D02*
G75*
G02X140200000Y-130829200I-50000J0D01*
G01*
D11*
X138100000Y-128029200D02*
X138100000Y-129929200D01*
D10*
X140200000Y-130829200D02*
X140200000Y-130829200D01*
X140300000Y-130829200D02*
X140300000Y-130829200D01*
X140200000Y-130829200D02*
X140200000Y-130829200D01*
D11*
X166690000Y-129889200D02*
X166690000Y-129889200D01*
X165200000Y-129889200D02*
X166690000Y-129889200D01*
X165200000Y-129889200D02*
X165200000Y-129889200D01*
X166690000Y-129889200D02*
X165200000Y-129889200D01*
X166700000Y-129829200D02*
X166700000Y-127929200D01*
X166690000Y-129829200D02*
X166700000Y-129829200D01*
X166690000Y-127929200D02*
X166690000Y-129829200D01*
X166700000Y-127929200D02*
X166690000Y-127929200D01*
X166700000Y-125929200D02*
X166700000Y-124229200D01*
X166700000Y-125929200D02*
X166700000Y-125929200D01*
X166700000Y-124229200D02*
X166700000Y-125929200D01*
X166700000Y-124229200D02*
X166700000Y-124229200D01*
X165200000Y-124169200D02*
X165200000Y-124169200D01*
X166690000Y-124169200D02*
X165200000Y-124169200D01*
X166690000Y-124169200D02*
X166690000Y-124169200D01*
X165200000Y-124169200D02*
X166690000Y-124169200D01*
X138110000Y-124169200D02*
X138110000Y-124169200D01*
X139600000Y-124169200D02*
X138110000Y-124169200D01*
X139600000Y-124169200D02*
X139600000Y-124169200D01*
X138110000Y-124169200D02*
X139600000Y-124169200D01*
X138110000Y-124229200D02*
X138110000Y-125929200D01*
X138110000Y-124229200D02*
X138110000Y-124229200D01*
X138110000Y-125929200D02*
X138110000Y-124229200D01*
X138110000Y-125929200D02*
X138110000Y-125929200D01*
X138100000Y-129929200D02*
X138100000Y-129929200D01*
X139500000Y-129929200D02*
X138100000Y-129929200D01*
X139500000Y-129929200D02*
X139500000Y-129929200D01*
X138100000Y-129929200D02*
X139500000Y-129929200D01*
D10*
X152430000Y-135984000D02*
G75*
G03X152230000Y-135984000I-100000J0D01*
G01*
X152230000Y-135984000D02*
G75*
G03X152430000Y-135984000I100000J0D01*
G01*
X152230000Y-135984000D02*
X152230000Y-135984000D01*
X152430000Y-135984000D02*
X152430000Y-135984000D01*
D11*
X163130000Y-121250000D02*
X163130000Y-121350000D01*
X164630000Y-121250000D02*
X164630000Y-121150000D01*
X164530000Y-121250000D02*
X164630000Y-121250000D01*
X164630000Y-120050000D02*
X164630000Y-120150000D01*
X164530000Y-120050000D02*
X164630000Y-120050000D01*
X163030000Y-120050000D02*
X163030000Y-120150000D01*
X163130000Y-120050000D02*
X163030000Y-120050000D01*
X163030000Y-121050000D02*
X163030000Y-121250000D01*
X163030000Y-121250000D02*
X163130000Y-121250000D01*
D10*
X155185000Y-163660000D02*
G75*
G03X155385000Y-163660000I100000J0D01*
G01*
X155385000Y-163660000D02*
G75*
G03X155185000Y-163660000I-100000J0D01*
G01*
X155385000Y-163660000D02*
X155385000Y-163660000D01*
X155185000Y-163660000D02*
X155185000Y-163660000D01*
D11*
X158785000Y-163160000D02*
X158785000Y-162160000D01*
X145185000Y-163160000D02*
X158785000Y-163160000D01*
X145185000Y-162160000D02*
X145185000Y-163160000D01*
X158785000Y-153660000D02*
X158785000Y-159160000D01*
X145185000Y-153660000D02*
X145185000Y-159160000D01*
X158785000Y-150160000D02*
X158785000Y-150660000D01*
X145185000Y-150160000D02*
X145185000Y-150660000D01*
X158785000Y-148660000D02*
X158785000Y-150160000D01*
X145185000Y-148660000D02*
X158785000Y-148660000D01*
X145185000Y-150160000D02*
X145185000Y-148660000D01*
D12*
X169860279Y-148080000D02*
X169534721Y-148080000D01*
X169860279Y-149100000D02*
X169534721Y-149100000D01*
X116780000Y-119320000D02*
X118110000Y-119320000D01*
X116780000Y-120650000D02*
X116780000Y-119320000D01*
X116780000Y-121920000D02*
X119440000Y-121920000D01*
X119440000Y-121920000D02*
X119440000Y-134680000D01*
X116780000Y-121920000D02*
X116780000Y-134680000D01*
X116780000Y-134680000D02*
X119440000Y-134680000D01*
X150674000Y-105360000D02*
X150674000Y-103545000D01*
X150919000Y-105360000D02*
X150674000Y-105360000D01*
X150919000Y-109220000D02*
X150919000Y-105360000D01*
X150919000Y-113080000D02*
X150674000Y-113080000D01*
X150919000Y-109220000D02*
X150919000Y-113080000D01*
X139149000Y-105360000D02*
X139394000Y-105360000D01*
X139149000Y-109220000D02*
X139149000Y-105360000D01*
X139149000Y-113080000D02*
X139394000Y-113080000D01*
X139149000Y-109220000D02*
X139149000Y-113080000D01*
X160528000Y-100858000D02*
X163978000Y-100858000D01*
X160528000Y-100858000D02*
X158578000Y-100858000D01*
X160528000Y-95738000D02*
X162478000Y-95738000D01*
X160528000Y-95738000D02*
X158578000Y-95738000D01*
D10*
X158678000Y-110276000D02*
X162378000Y-110276000D01*
X162378000Y-110276000D02*
X162378000Y-115276000D01*
X162378000Y-115276000D02*
X158678000Y-115276000D01*
X158678000Y-115276000D02*
X158678000Y-110276000D01*
X156853000Y-110251000D02*
X158328000Y-110251000D01*
D11*
X176109000Y-137288000D02*
X176484000Y-137288000D01*
X175784000Y-137613000D02*
X175259000Y-137613000D01*
X175784000Y-137513000D02*
X175784000Y-137613000D01*
X176109000Y-137288000D02*
X175784000Y-137513000D01*
X177784000Y-140588000D02*
X177459000Y-140588000D01*
X177784000Y-140288000D02*
X177784000Y-140588000D01*
X175784000Y-140588000D02*
X176084000Y-140588000D01*
X175784000Y-140263000D02*
X175784000Y-140588000D01*
X177784000Y-137288000D02*
X177484000Y-137288000D01*
X177784000Y-137613000D02*
X177784000Y-137288000D01*
X174880000Y-117515000D02*
X174880000Y-117140000D01*
X175205000Y-117840000D02*
X175205000Y-118365000D01*
X175105000Y-117840000D02*
X175205000Y-117840000D01*
X174880000Y-117515000D02*
X175105000Y-117840000D01*
X178180000Y-115840000D02*
X178180000Y-116165000D01*
X177880000Y-115840000D02*
X178180000Y-115840000D01*
X178180000Y-117840000D02*
X178180000Y-117540000D01*
X177855000Y-117840000D02*
X178180000Y-117840000D01*
X174880000Y-115840000D02*
X174880000Y-116140000D01*
X175205000Y-115840000D02*
X174880000Y-115840000D01*
D12*
X188660000Y-135190000D02*
X188660000Y-136590000D01*
X187260000Y-135190000D02*
X188660000Y-135190000D01*
X187260000Y-136590000D02*
X187260000Y-135190000D01*
X188660000Y-136590000D02*
X187260000Y-136590000D01*
X188660000Y-132904000D02*
X188660000Y-134304000D01*
X187260000Y-132904000D02*
X188660000Y-132904000D01*
X187260000Y-134304000D02*
X187260000Y-132904000D01*
X188660000Y-134304000D02*
X187260000Y-134304000D01*
X187260000Y-121096000D02*
X187260000Y-119696000D01*
X188660000Y-121096000D02*
X187260000Y-121096000D01*
X188660000Y-119696000D02*
X188660000Y-121096000D01*
X187260000Y-119696000D02*
X188660000Y-119696000D01*
X187260000Y-118810000D02*
X187260000Y-117410000D01*
X188660000Y-118810000D02*
X187260000Y-118810000D01*
X188660000Y-117410000D02*
X188660000Y-118810000D01*
X187260000Y-117410000D02*
X188660000Y-117410000D01*
X170670000Y-154676000D02*
X169210000Y-154676000D01*
X170670000Y-151516000D02*
X168510000Y-151516000D01*
X170670000Y-151516000D02*
X170670000Y-152446000D01*
X170670000Y-154676000D02*
X170670000Y-153746000D01*
X165098000Y-115686721D02*
X165098000Y-116012279D01*
X166118000Y-115686721D02*
X166118000Y-116012279D01*
X158079221Y-102872000D02*
X158404779Y-102872000D01*
X158079221Y-101852000D02*
X158404779Y-101852000D01*
X154569279Y-96010000D02*
X154243721Y-96010000D01*
X154569279Y-97030000D02*
X154243721Y-97030000D01*
X153299279Y-104138000D02*
X152973721Y-104138000D01*
X153299279Y-105158000D02*
X152973721Y-105158000D01*
X165606000Y-95341221D02*
X165606000Y-95666779D01*
X166626000Y-95341221D02*
X166626000Y-95666779D01*
X141615279Y-156208000D02*
X141289721Y-156208000D01*
X141615279Y-157228000D02*
X141289721Y-157228000D01*
X141730000Y-148909721D02*
X141730000Y-149235279D01*
X142750000Y-148909721D02*
X142750000Y-149235279D01*
X140370779Y-141539500D02*
X140045221Y-141539500D01*
X140370779Y-142559500D02*
X140045221Y-142559500D01*
X124208000Y-141412279D02*
X124208000Y-141086721D01*
X123188000Y-141412279D02*
X123188000Y-141086721D01*
X124208000Y-131201279D02*
X124208000Y-130875721D01*
X123188000Y-131201279D02*
X123188000Y-130875721D01*
X157236279Y-135888000D02*
X156910721Y-135888000D01*
X157236279Y-136908000D02*
X156910721Y-136908000D01*
X158688721Y-135130000D02*
X159014279Y-135130000D01*
X158688721Y-134110000D02*
X159014279Y-134110000D01*
X161288000Y-149163721D02*
X161288000Y-149489279D01*
X162308000Y-149163721D02*
X162308000Y-149489279D01*
X167642000Y-154848779D02*
X167642000Y-154523221D01*
X166622000Y-154848779D02*
X166622000Y-154523221D01*
X165352000Y-120512721D02*
X165352000Y-120838279D01*
X166372000Y-120512721D02*
X166372000Y-120838279D01*
X162254000Y-121084078D02*
X162254000Y-120566922D01*
X160834000Y-121084078D02*
X160834000Y-120566922D01*
X162054000Y-139100779D02*
X162054000Y-138775221D01*
X161034000Y-139100779D02*
X161034000Y-138775221D01*
X169606279Y-134110000D02*
X169280721Y-134110000D01*
X169606279Y-135130000D02*
X169280721Y-135130000D01*
X179258279Y-141476000D02*
X178932721Y-141476000D01*
X179258279Y-142496000D02*
X178932721Y-142496000D01*
X179207279Y-143254000D02*
X178881721Y-143254000D01*
X179207279Y-144274000D02*
X178881721Y-144274000D01*
X165152000Y-138757922D02*
X165152000Y-139275078D01*
X166572000Y-138757922D02*
X166572000Y-139275078D01*
X174406779Y-131062000D02*
X174081221Y-131062000D01*
X174406779Y-132082000D02*
X174081221Y-132082000D01*
X169416000Y-123535121D02*
X169416000Y-123860679D01*
X170436000Y-123535121D02*
X170436000Y-123860679D01*
X179834000Y-116443979D02*
X179834000Y-116118421D01*
X178814000Y-116443979D02*
X178814000Y-116118421D01*
X181612000Y-116444079D02*
X181612000Y-116118521D01*
X180592000Y-116444079D02*
X180592000Y-116118521D01*
X174160922Y-127456000D02*
X174678078Y-127456000D01*
X174160922Y-126036000D02*
X174678078Y-126036000D01*
X152791279Y-94232000D02*
X152465721Y-94232000D01*
X152791279Y-95252000D02*
X152465721Y-95252000D01*
X152465721Y-98808000D02*
X152791279Y-98808000D01*
X152465721Y-97788000D02*
X152791279Y-97788000D01*
X138174000Y-159069721D02*
X138174000Y-159395279D01*
X139194000Y-159069721D02*
X139194000Y-159395279D01*
X139888279Y-151382000D02*
X139562721Y-151382000D01*
X139888279Y-152402000D02*
X139562721Y-152402000D01*
X142492000Y-144337721D02*
X142492000Y-144663279D01*
X143512000Y-144337721D02*
X143512000Y-144663279D01*
X126049721Y-138940000D02*
X126375279Y-138940000D01*
X126049721Y-137920000D02*
X126375279Y-137920000D01*
X126049921Y-128780000D02*
X126375479Y-128780000D01*
X126049921Y-127760000D02*
X126375479Y-127760000D01*
X164149721Y-152656000D02*
X164475279Y-152656000D01*
X164149721Y-151636000D02*
X164475279Y-151636000D01*
X169598078Y-139244000D02*
X169080922Y-139244000D01*
X169598078Y-140664000D02*
X169080922Y-140664000D01*
X174550000Y-123263922D02*
X174550000Y-123781078D01*
X175970000Y-123263922D02*
X175970000Y-123781078D01*
D11*
X164276000Y-138338000D02*
X164276000Y-138238000D01*
X162776000Y-138338000D02*
X162776000Y-138438000D01*
X162876000Y-138338000D02*
X162776000Y-138338000D01*
X162776000Y-139538000D02*
X162776000Y-139438000D01*
X162876000Y-139538000D02*
X162776000Y-139538000D01*
X164376000Y-139538000D02*
X164376000Y-139438000D01*
X164276000Y-139538000D02*
X164376000Y-139538000D01*
X164376000Y-138538000D02*
X164376000Y-138338000D01*
X164376000Y-138338000D02*
X164276000Y-138338000D01*
X173644000Y-128586000D02*
X173544000Y-128586000D01*
X173644000Y-130086000D02*
X173744000Y-130086000D01*
X173644000Y-129986000D02*
X173644000Y-130086000D01*
X174844000Y-130086000D02*
X174744000Y-130086000D01*
X174844000Y-129986000D02*
X174844000Y-130086000D01*
X174844000Y-128486000D02*
X174744000Y-128486000D01*
X174844000Y-128586000D02*
X174844000Y-128486000D01*
X173844000Y-128486000D02*
X173644000Y-128486000D01*
X173644000Y-128486000D02*
X173644000Y-128586000D01*
D12*
X145052000Y-94940000D02*
X146512000Y-94940000D01*
X145052000Y-98100000D02*
X147212000Y-98100000D01*
X145052000Y-98100000D02*
X145052000Y-97170000D01*
X145052000Y-94940000D02*
X145052000Y-95870000D01*
X173934000Y-140701500D02*
X173934000Y-138016500D01*
X172014000Y-140701500D02*
X173934000Y-140701500D01*
X172014000Y-138016500D02*
X172014000Y-140701500D01*
X172734500Y-121356000D02*
X175419500Y-121356000D01*
X172734500Y-119436000D02*
X172734500Y-121356000D01*
X175419500Y-119436000D02*
X172734500Y-119436000D01*
X136235221Y-102872000D02*
X136560779Y-102872000D01*
X136235221Y-101852000D02*
X136560779Y-101852000D01*
X136560779Y-103630000D02*
X136235221Y-103630000D01*
X136560779Y-104650000D02*
X136235221Y-104650000D01*
X150687721Y-93474000D02*
X151013279Y-93474000D01*
X150687721Y-92454000D02*
X151013279Y-92454000D01*
X167896000Y-115986779D02*
X167896000Y-115661221D01*
X166876000Y-115986779D02*
X166876000Y-115661221D01*
X153024721Y-106936000D02*
X153350279Y-106936000D01*
X153024721Y-105916000D02*
X153350279Y-105916000D01*
X151064279Y-96010000D02*
X150738721Y-96010000D01*
X151064279Y-97030000D02*
X150738721Y-97030000D01*
X168518721Y-95252000D02*
X168844279Y-95252000D01*
X168518721Y-94232000D02*
X168844279Y-94232000D01*
X166689721Y-99316000D02*
X167015279Y-99316000D01*
X166689721Y-98296000D02*
X167015279Y-98296000D01*
X150738721Y-100586000D02*
X151064279Y-100586000D01*
X150738721Y-99566000D02*
X151064279Y-99566000D01*
X167066279Y-100074000D02*
X166740721Y-100074000D01*
X167066279Y-101094000D02*
X166740721Y-101094000D01*
X141730000Y-159069721D02*
X141730000Y-159395279D01*
X142750000Y-159069721D02*
X142750000Y-159395279D01*
X140972000Y-159120721D02*
X140972000Y-159446279D01*
X139952000Y-159120721D02*
X139952000Y-159446279D01*
X137733721Y-157228000D02*
X138059279Y-157228000D01*
X137733721Y-156208000D02*
X138059279Y-156208000D01*
X139888279Y-147826000D02*
X139562721Y-147826000D01*
X139888279Y-148846000D02*
X139562721Y-148846000D01*
X139862779Y-149604000D02*
X139537221Y-149604000D01*
X139862779Y-150624000D02*
X139537221Y-150624000D01*
X139511721Y-154180000D02*
X139837279Y-154180000D01*
X139511721Y-153160000D02*
X139837279Y-153160000D01*
X161034000Y-161355721D02*
X161034000Y-161681279D01*
X162054000Y-161355721D02*
X162054000Y-161681279D01*
X162812000Y-161355721D02*
X162812000Y-161681279D01*
X163832000Y-161355721D02*
X163832000Y-161681279D01*
X140714000Y-144337721D02*
X140714000Y-144663279D01*
X141734000Y-144337721D02*
X141734000Y-144663279D01*
X138936000Y-144337721D02*
X138936000Y-144663279D01*
X139956000Y-144337721D02*
X139956000Y-144663279D01*
X143901479Y-141539500D02*
X143575921Y-141539500D01*
X143901479Y-142559500D02*
X143575921Y-142559500D01*
X126426279Y-136142000D02*
X126100721Y-136142000D01*
X126426279Y-137162000D02*
X126100721Y-137162000D01*
X126049721Y-140718000D02*
X126375279Y-140718000D01*
X126049721Y-139698000D02*
X126375279Y-139698000D01*
X126100721Y-142496000D02*
X126426279Y-142496000D01*
X126100721Y-141476000D02*
X126426279Y-141476000D01*
X126049721Y-132336000D02*
X126375279Y-132336000D01*
X126049721Y-131316000D02*
X126375279Y-131316000D01*
X126049721Y-130558000D02*
X126375279Y-130558000D01*
X126049721Y-129538000D02*
X126375279Y-129538000D01*
X126375479Y-125982000D02*
X126049921Y-125982000D01*
X126375479Y-127002000D02*
X126049921Y-127002000D01*
X148981279Y-142492000D02*
X148655721Y-142492000D01*
X148981279Y-143512000D02*
X148655721Y-143512000D01*
X149997279Y-132840000D02*
X149671721Y-132840000D01*
X149997279Y-133860000D02*
X149671721Y-133860000D01*
X155573000Y-138775221D02*
X155573000Y-139100779D01*
X156593000Y-138775221D02*
X156593000Y-139100779D01*
X157351000Y-138749721D02*
X157351000Y-139075279D01*
X158371000Y-138749721D02*
X158371000Y-139075279D01*
X164200721Y-149100000D02*
X164526279Y-149100000D01*
X164200721Y-148080000D02*
X164526279Y-148080000D01*
X164200721Y-150878000D02*
X164526279Y-150878000D01*
X164200721Y-149858000D02*
X164526279Y-149858000D01*
X164086000Y-154848779D02*
X164086000Y-154523221D01*
X163066000Y-154848779D02*
X163066000Y-154523221D01*
X165864000Y-154823279D02*
X165864000Y-154497721D01*
X164844000Y-154823279D02*
X164844000Y-154497721D01*
X169860279Y-149858000D02*
X169534721Y-149858000D01*
X169860279Y-150878000D02*
X169534721Y-150878000D01*
X168912000Y-137322779D02*
X168912000Y-136997221D01*
X167892000Y-137322779D02*
X167892000Y-136997221D01*
X170944000Y-137322779D02*
X170944000Y-136997221D01*
X169924000Y-137322779D02*
X169924000Y-136997221D01*
X172654279Y-123950000D02*
X172328721Y-123950000D01*
X172654279Y-124970000D02*
X172328721Y-124970000D01*
X172654279Y-122172000D02*
X172328721Y-122172000D01*
X172654279Y-123192000D02*
X172328721Y-123192000D01*
D13*
X148674666Y-120970523D02*
X148674666Y-121877666D01*
X148614190Y-122059095D01*
X148493238Y-122180047D01*
X148311809Y-122240523D01*
X148190857Y-122240523D01*
X149944666Y-122240523D02*
X149218952Y-122240523D01*
X149581809Y-122240523D02*
X149581809Y-120970523D01*
X149460857Y-121151952D01*
X149339904Y-121272904D01*
X149218952Y-121333380D01*
X154244523Y-139651619D02*
X155272619Y-139651619D01*
X155393571Y-139591142D01*
X155454047Y-139530666D01*
X155514523Y-139409714D01*
X155514523Y-139167809D01*
X155454047Y-139046857D01*
X155393571Y-138986380D01*
X155272619Y-138925904D01*
X154244523Y-138925904D01*
X154244523Y-138442095D02*
X154244523Y-137655904D01*
X154728333Y-138079238D01*
X154728333Y-137897809D01*
X154788809Y-137776857D01*
X154849285Y-137716380D01*
X154970238Y-137655904D01*
X155272619Y-137655904D01*
X155393571Y-137716380D01*
X155454047Y-137776857D01*
X155514523Y-137897809D01*
X155514523Y-138260666D01*
X155454047Y-138381619D01*
X155393571Y-138442095D01*
D14*
X162853809Y-119442380D02*
X162853809Y-118442380D01*
X163901428Y-119347142D02*
X163853809Y-119394761D01*
X163710952Y-119442380D01*
X163615714Y-119442380D01*
X163472857Y-119394761D01*
X163377619Y-119299523D01*
X163330000Y-119204285D01*
X163282380Y-119013809D01*
X163282380Y-118870952D01*
X163330000Y-118680476D01*
X163377619Y-118585238D01*
X163472857Y-118490000D01*
X163615714Y-118442380D01*
X163710952Y-118442380D01*
X163853809Y-118490000D01*
X163901428Y-118537619D01*
X164234761Y-118442380D02*
X164853809Y-118442380D01*
X164520476Y-118823333D01*
X164663333Y-118823333D01*
X164758571Y-118870952D01*
X164806190Y-118918571D01*
X164853809Y-119013809D01*
X164853809Y-119251904D01*
X164806190Y-119347142D01*
X164758571Y-119394761D01*
X164663333Y-119442380D01*
X164377619Y-119442380D01*
X164282380Y-119394761D01*
X164234761Y-119347142D01*
D13*
X151561666Y-155514523D02*
X151561666Y-156421666D01*
X151501190Y-156603095D01*
X151380238Y-156724047D01*
X151198809Y-156784523D01*
X151077857Y-156784523D01*
X152045476Y-155514523D02*
X152831666Y-155514523D01*
X152408333Y-155998333D01*
X152589761Y-155998333D01*
X152710714Y-156058809D01*
X152771190Y-156119285D01*
X152831666Y-156240238D01*
X152831666Y-156542619D01*
X152771190Y-156663571D01*
X152710714Y-156724047D01*
X152589761Y-156784523D01*
X152226904Y-156784523D01*
X152105952Y-156724047D01*
X152045476Y-156663571D01*
D14*
X172045333Y-148947142D02*
X171997714Y-148994761D01*
X171854857Y-149042380D01*
X171759619Y-149042380D01*
X171616761Y-148994761D01*
X171521523Y-148899523D01*
X171473904Y-148804285D01*
X171426285Y-148613809D01*
X171426285Y-148470952D01*
X171473904Y-148280476D01*
X171521523Y-148185238D01*
X171616761Y-148090000D01*
X171759619Y-148042380D01*
X171854857Y-148042380D01*
X171997714Y-148090000D01*
X172045333Y-148137619D01*
X172950095Y-148042380D02*
X172473904Y-148042380D01*
X172426285Y-148518571D01*
X172473904Y-148470952D01*
X172569142Y-148423333D01*
X172807238Y-148423333D01*
X172902476Y-148470952D01*
X172950095Y-148518571D01*
X172997714Y-148613809D01*
X172997714Y-148851904D01*
X172950095Y-148947142D01*
X172902476Y-148994761D01*
X172807238Y-149042380D01*
X172569142Y-149042380D01*
X172473904Y-148994761D01*
X172426285Y-148947142D01*
X117776666Y-117772380D02*
X117776666Y-118486666D01*
X117729047Y-118629523D01*
X117633809Y-118724761D01*
X117490952Y-118772380D01*
X117395714Y-118772380D01*
X118205238Y-117867619D02*
X118252857Y-117820000D01*
X118348095Y-117772380D01*
X118586190Y-117772380D01*
X118681428Y-117820000D01*
X118729047Y-117867619D01*
X118776666Y-117962857D01*
X118776666Y-118058095D01*
X118729047Y-118200952D01*
X118157619Y-118772380D01*
X118776666Y-118772380D01*
X146304095Y-101687380D02*
X146304095Y-102496904D01*
X146351714Y-102592142D01*
X146399333Y-102639761D01*
X146494571Y-102687380D01*
X146685047Y-102687380D01*
X146780285Y-102639761D01*
X146827904Y-102592142D01*
X146875523Y-102496904D01*
X146875523Y-101687380D01*
X147780285Y-101687380D02*
X147589809Y-101687380D01*
X147494571Y-101735000D01*
X147446952Y-101782619D01*
X147351714Y-101925476D01*
X147304095Y-102115952D01*
X147304095Y-102496904D01*
X147351714Y-102592142D01*
X147399333Y-102639761D01*
X147494571Y-102687380D01*
X147685047Y-102687380D01*
X147780285Y-102639761D01*
X147827904Y-102592142D01*
X147875523Y-102496904D01*
X147875523Y-102258809D01*
X147827904Y-102163571D01*
X147780285Y-102115952D01*
X147685047Y-102068333D01*
X147494571Y-102068333D01*
X147399333Y-102115952D01*
X147351714Y-102163571D01*
X147304095Y-102258809D01*
X159766095Y-94194380D02*
X159766095Y-95003904D01*
X159813714Y-95099142D01*
X159861333Y-95146761D01*
X159956571Y-95194380D01*
X160147047Y-95194380D01*
X160242285Y-95146761D01*
X160289904Y-95099142D01*
X160337523Y-95003904D01*
X160337523Y-94194380D01*
X161289904Y-94194380D02*
X160813714Y-94194380D01*
X160766095Y-94670571D01*
X160813714Y-94622952D01*
X160908952Y-94575333D01*
X161147047Y-94575333D01*
X161242285Y-94622952D01*
X161289904Y-94670571D01*
X161337523Y-94765809D01*
X161337523Y-95003904D01*
X161289904Y-95099142D01*
X161242285Y-95146761D01*
X161147047Y-95194380D01*
X160908952Y-95194380D01*
X160813714Y-95146761D01*
X160766095Y-95099142D01*
D13*
X159560380Y-115890523D02*
X159560380Y-116918619D01*
X159620857Y-117039571D01*
X159681333Y-117100047D01*
X159802285Y-117160523D01*
X160044190Y-117160523D01*
X160165142Y-117100047D01*
X160225619Y-117039571D01*
X160286095Y-116918619D01*
X160286095Y-115890523D01*
X161435142Y-116313857D02*
X161435142Y-117160523D01*
X161132761Y-115830047D02*
X160830380Y-116737190D01*
X161616571Y-116737190D01*
D14*
X175768095Y-135596380D02*
X175768095Y-136405904D01*
X175815714Y-136501142D01*
X175863333Y-136548761D01*
X175958571Y-136596380D01*
X176149047Y-136596380D01*
X176244285Y-136548761D01*
X176291904Y-136501142D01*
X176339523Y-136405904D01*
X176339523Y-135596380D01*
X176768095Y-135691619D02*
X176815714Y-135644000D01*
X176910952Y-135596380D01*
X177149047Y-135596380D01*
X177244285Y-135644000D01*
X177291904Y-135691619D01*
X177339523Y-135786857D01*
X177339523Y-135882095D01*
X177291904Y-136024952D01*
X176720476Y-136596380D01*
X177339523Y-136596380D01*
X172720095Y-117308380D02*
X172720095Y-118117904D01*
X172767714Y-118213142D01*
X172815333Y-118260761D01*
X172910571Y-118308380D01*
X173101047Y-118308380D01*
X173196285Y-118260761D01*
X173243904Y-118213142D01*
X173291523Y-118117904D01*
X173291523Y-117308380D01*
X174291523Y-118308380D02*
X173720095Y-118308380D01*
X174005809Y-118308380D02*
X174005809Y-117308380D01*
X173910571Y-117451238D01*
X173815333Y-117546476D01*
X173720095Y-117594095D01*
X184158095Y-135342380D02*
X184729523Y-135342380D01*
X184443809Y-136342380D02*
X184443809Y-135342380D01*
X185062857Y-136342380D02*
X185062857Y-135342380D01*
X185443809Y-135342380D01*
X185539047Y-135390000D01*
X185586666Y-135437619D01*
X185634285Y-135532857D01*
X185634285Y-135675714D01*
X185586666Y-135770952D01*
X185539047Y-135818571D01*
X185443809Y-135866190D01*
X185062857Y-135866190D01*
X186491428Y-135675714D02*
X186491428Y-136342380D01*
X186253333Y-135294761D02*
X186015238Y-136009047D01*
X186634285Y-136009047D01*
X184158095Y-133056380D02*
X184729523Y-133056380D01*
X184443809Y-134056380D02*
X184443809Y-133056380D01*
X185062857Y-134056380D02*
X185062857Y-133056380D01*
X185443809Y-133056380D01*
X185539047Y-133104000D01*
X185586666Y-133151619D01*
X185634285Y-133246857D01*
X185634285Y-133389714D01*
X185586666Y-133484952D01*
X185539047Y-133532571D01*
X185443809Y-133580190D01*
X185062857Y-133580190D01*
X185967619Y-133056380D02*
X186586666Y-133056380D01*
X186253333Y-133437333D01*
X186396190Y-133437333D01*
X186491428Y-133484952D01*
X186539047Y-133532571D01*
X186586666Y-133627809D01*
X186586666Y-133865904D01*
X186539047Y-133961142D01*
X186491428Y-134008761D01*
X186396190Y-134056380D01*
X186110476Y-134056380D01*
X186015238Y-134008761D01*
X185967619Y-133961142D01*
X184158095Y-120102380D02*
X184729523Y-120102380D01*
X184443809Y-121102380D02*
X184443809Y-120102380D01*
X185062857Y-121102380D02*
X185062857Y-120102380D01*
X185443809Y-120102380D01*
X185539047Y-120150000D01*
X185586666Y-120197619D01*
X185634285Y-120292857D01*
X185634285Y-120435714D01*
X185586666Y-120530952D01*
X185539047Y-120578571D01*
X185443809Y-120626190D01*
X185062857Y-120626190D01*
X186015238Y-120197619D02*
X186062857Y-120150000D01*
X186158095Y-120102380D01*
X186396190Y-120102380D01*
X186491428Y-120150000D01*
X186539047Y-120197619D01*
X186586666Y-120292857D01*
X186586666Y-120388095D01*
X186539047Y-120530952D01*
X185967619Y-121102380D01*
X186586666Y-121102380D01*
X184158095Y-117562380D02*
X184729523Y-117562380D01*
X184443809Y-118562380D02*
X184443809Y-117562380D01*
X185062857Y-118562380D02*
X185062857Y-117562380D01*
X185443809Y-117562380D01*
X185539047Y-117610000D01*
X185586666Y-117657619D01*
X185634285Y-117752857D01*
X185634285Y-117895714D01*
X185586666Y-117990952D01*
X185539047Y-118038571D01*
X185443809Y-118086190D01*
X185062857Y-118086190D01*
X186586666Y-118562380D02*
X186015238Y-118562380D01*
X186300952Y-118562380D02*
X186300952Y-117562380D01*
X186205714Y-117705238D01*
X186110476Y-117800476D01*
X186015238Y-117848095D01*
X168314666Y-155088380D02*
X168886095Y-155088380D01*
X168600380Y-156088380D02*
X168600380Y-155088380D01*
X169219428Y-156088380D02*
X169219428Y-155088380D01*
X169552761Y-155802666D01*
X169886095Y-155088380D01*
X169886095Y-156088380D01*
X170362285Y-156088380D02*
X170362285Y-155088380D01*
X170743238Y-155088380D01*
X170838476Y-155136000D01*
X170886095Y-155183619D01*
X170933714Y-155278857D01*
X170933714Y-155421714D01*
X170886095Y-155516952D01*
X170838476Y-155564571D01*
X170743238Y-155612190D01*
X170362285Y-155612190D01*
X171886095Y-156088380D02*
X171314666Y-156088380D01*
X171600380Y-156088380D02*
X171600380Y-155088380D01*
X171505142Y-155231238D01*
X171409904Y-155326476D01*
X171314666Y-155374095D01*
X166060380Y-113418857D02*
X165584190Y-113752190D01*
X166060380Y-113990285D02*
X165060380Y-113990285D01*
X165060380Y-113609333D01*
X165108000Y-113514095D01*
X165155619Y-113466476D01*
X165250857Y-113418857D01*
X165393714Y-113418857D01*
X165488952Y-113466476D01*
X165536571Y-113514095D01*
X165584190Y-113609333D01*
X165584190Y-113990285D01*
X165155619Y-113037904D02*
X165108000Y-112990285D01*
X165060380Y-112895047D01*
X165060380Y-112656952D01*
X165108000Y-112561714D01*
X165155619Y-112514095D01*
X165250857Y-112466476D01*
X165346095Y-112466476D01*
X165488952Y-112514095D01*
X166060380Y-113085523D01*
X166060380Y-112466476D01*
X165060380Y-111609333D02*
X165060380Y-111799809D01*
X165108000Y-111895047D01*
X165155619Y-111942666D01*
X165298476Y-112037904D01*
X165488952Y-112085523D01*
X165869904Y-112085523D01*
X165965142Y-112037904D01*
X166012761Y-111990285D01*
X166060380Y-111895047D01*
X166060380Y-111704571D01*
X166012761Y-111609333D01*
X165965142Y-111561714D01*
X165869904Y-111514095D01*
X165631809Y-111514095D01*
X165536571Y-111561714D01*
X165488952Y-111609333D01*
X165441333Y-111704571D01*
X165441333Y-111895047D01*
X165488952Y-111990285D01*
X165536571Y-112037904D01*
X165631809Y-112085523D01*
X157599142Y-104719380D02*
X157265809Y-104243190D01*
X157027714Y-104719380D02*
X157027714Y-103719380D01*
X157408666Y-103719380D01*
X157503904Y-103767000D01*
X157551523Y-103814619D01*
X157599142Y-103909857D01*
X157599142Y-104052714D01*
X157551523Y-104147952D01*
X157503904Y-104195571D01*
X157408666Y-104243190D01*
X157027714Y-104243190D01*
X157980095Y-103814619D02*
X158027714Y-103767000D01*
X158122952Y-103719380D01*
X158361047Y-103719380D01*
X158456285Y-103767000D01*
X158503904Y-103814619D01*
X158551523Y-103909857D01*
X158551523Y-104005095D01*
X158503904Y-104147952D01*
X157932476Y-104719380D01*
X158551523Y-104719380D01*
X159456285Y-103719380D02*
X158980095Y-103719380D01*
X158932476Y-104195571D01*
X158980095Y-104147952D01*
X159075333Y-104100333D01*
X159313428Y-104100333D01*
X159408666Y-104147952D01*
X159456285Y-104195571D01*
X159503904Y-104290809D01*
X159503904Y-104528904D01*
X159456285Y-104624142D01*
X159408666Y-104671761D01*
X159313428Y-104719380D01*
X159075333Y-104719380D01*
X158980095Y-104671761D01*
X158932476Y-104624142D01*
X155646380Y-94876857D02*
X155170190Y-95210190D01*
X155646380Y-95448285D02*
X154646380Y-95448285D01*
X154646380Y-95067333D01*
X154694000Y-94972095D01*
X154741619Y-94924476D01*
X154836857Y-94876857D01*
X154979714Y-94876857D01*
X155074952Y-94924476D01*
X155122571Y-94972095D01*
X155170190Y-95067333D01*
X155170190Y-95448285D01*
X154741619Y-94495904D02*
X154694000Y-94448285D01*
X154646380Y-94353047D01*
X154646380Y-94114952D01*
X154694000Y-94019714D01*
X154741619Y-93972095D01*
X154836857Y-93924476D01*
X154932095Y-93924476D01*
X155074952Y-93972095D01*
X155646380Y-94543523D01*
X155646380Y-93924476D01*
X154979714Y-93067333D02*
X155646380Y-93067333D01*
X154598761Y-93305428D02*
X155313047Y-93543523D01*
X155313047Y-92924476D01*
X152519142Y-103830380D02*
X152185809Y-103354190D01*
X151947714Y-103830380D02*
X151947714Y-102830380D01*
X152328666Y-102830380D01*
X152423904Y-102878000D01*
X152471523Y-102925619D01*
X152519142Y-103020857D01*
X152519142Y-103163714D01*
X152471523Y-103258952D01*
X152423904Y-103306571D01*
X152328666Y-103354190D01*
X151947714Y-103354190D01*
X152900095Y-102925619D02*
X152947714Y-102878000D01*
X153042952Y-102830380D01*
X153281047Y-102830380D01*
X153376285Y-102878000D01*
X153423904Y-102925619D01*
X153471523Y-103020857D01*
X153471523Y-103116095D01*
X153423904Y-103258952D01*
X152852476Y-103830380D01*
X153471523Y-103830380D01*
X153804857Y-102830380D02*
X154423904Y-102830380D01*
X154090571Y-103211333D01*
X154233428Y-103211333D01*
X154328666Y-103258952D01*
X154376285Y-103306571D01*
X154423904Y-103401809D01*
X154423904Y-103639904D01*
X154376285Y-103735142D01*
X154328666Y-103782761D01*
X154233428Y-103830380D01*
X153947714Y-103830380D01*
X153852476Y-103782761D01*
X153804857Y-103735142D01*
X164965142Y-93670380D02*
X164631809Y-93194190D01*
X164393714Y-93670380D02*
X164393714Y-92670380D01*
X164774666Y-92670380D01*
X164869904Y-92718000D01*
X164917523Y-92765619D01*
X164965142Y-92860857D01*
X164965142Y-93003714D01*
X164917523Y-93098952D01*
X164869904Y-93146571D01*
X164774666Y-93194190D01*
X164393714Y-93194190D01*
X165346095Y-92765619D02*
X165393714Y-92718000D01*
X165488952Y-92670380D01*
X165727047Y-92670380D01*
X165822285Y-92718000D01*
X165869904Y-92765619D01*
X165917523Y-92860857D01*
X165917523Y-92956095D01*
X165869904Y-93098952D01*
X165298476Y-93670380D01*
X165917523Y-93670380D01*
X166298476Y-92765619D02*
X166346095Y-92718000D01*
X166441333Y-92670380D01*
X166679428Y-92670380D01*
X166774666Y-92718000D01*
X166822285Y-92765619D01*
X166869904Y-92860857D01*
X166869904Y-92956095D01*
X166822285Y-93098952D01*
X166250857Y-93670380D01*
X166869904Y-93670380D01*
X140835142Y-155646380D02*
X140501809Y-155170190D01*
X140263714Y-155646380D02*
X140263714Y-154646380D01*
X140644666Y-154646380D01*
X140739904Y-154694000D01*
X140787523Y-154741619D01*
X140835142Y-154836857D01*
X140835142Y-154979714D01*
X140787523Y-155074952D01*
X140739904Y-155122571D01*
X140644666Y-155170190D01*
X140263714Y-155170190D01*
X141216095Y-154741619D02*
X141263714Y-154694000D01*
X141358952Y-154646380D01*
X141597047Y-154646380D01*
X141692285Y-154694000D01*
X141739904Y-154741619D01*
X141787523Y-154836857D01*
X141787523Y-154932095D01*
X141739904Y-155074952D01*
X141168476Y-155646380D01*
X141787523Y-155646380D01*
X142739904Y-155646380D02*
X142168476Y-155646380D01*
X142454190Y-155646380D02*
X142454190Y-154646380D01*
X142358952Y-154789238D01*
X142263714Y-154884476D01*
X142168476Y-154932095D01*
X142692380Y-152788857D02*
X142216190Y-153122190D01*
X142692380Y-153360285D02*
X141692380Y-153360285D01*
X141692380Y-152979333D01*
X141740000Y-152884095D01*
X141787619Y-152836476D01*
X141882857Y-152788857D01*
X142025714Y-152788857D01*
X142120952Y-152836476D01*
X142168571Y-152884095D01*
X142216190Y-152979333D01*
X142216190Y-153360285D01*
X141787619Y-152407904D02*
X141740000Y-152360285D01*
X141692380Y-152265047D01*
X141692380Y-152026952D01*
X141740000Y-151931714D01*
X141787619Y-151884095D01*
X141882857Y-151836476D01*
X141978095Y-151836476D01*
X142120952Y-151884095D01*
X142692380Y-152455523D01*
X142692380Y-151836476D01*
X141692380Y-151217428D02*
X141692380Y-151122190D01*
X141740000Y-151026952D01*
X141787619Y-150979333D01*
X141882857Y-150931714D01*
X142073333Y-150884095D01*
X142311428Y-150884095D01*
X142501904Y-150931714D01*
X142597142Y-150979333D01*
X142644761Y-151026952D01*
X142692380Y-151122190D01*
X142692380Y-151217428D01*
X142644761Y-151312666D01*
X142597142Y-151360285D01*
X142501904Y-151407904D01*
X142311428Y-151455523D01*
X142073333Y-151455523D01*
X141882857Y-151407904D01*
X141787619Y-151360285D01*
X141740000Y-151312666D01*
X141692380Y-151217428D01*
X136517142Y-142501880D02*
X136183809Y-142025690D01*
X135945714Y-142501880D02*
X135945714Y-141501880D01*
X136326666Y-141501880D01*
X136421904Y-141549500D01*
X136469523Y-141597119D01*
X136517142Y-141692357D01*
X136517142Y-141835214D01*
X136469523Y-141930452D01*
X136421904Y-141978071D01*
X136326666Y-142025690D01*
X135945714Y-142025690D01*
X137469523Y-142501880D02*
X136898095Y-142501880D01*
X137183809Y-142501880D02*
X137183809Y-141501880D01*
X137088571Y-141644738D01*
X136993333Y-141739976D01*
X136898095Y-141787595D01*
X137945714Y-142501880D02*
X138136190Y-142501880D01*
X138231428Y-142454261D01*
X138279047Y-142406642D01*
X138374285Y-142263785D01*
X138421904Y-142073309D01*
X138421904Y-141692357D01*
X138374285Y-141597119D01*
X138326666Y-141549500D01*
X138231428Y-141501880D01*
X138040952Y-141501880D01*
X137945714Y-141549500D01*
X137898095Y-141597119D01*
X137850476Y-141692357D01*
X137850476Y-141930452D01*
X137898095Y-142025690D01*
X137945714Y-142073309D01*
X138040952Y-142120928D01*
X138231428Y-142120928D01*
X138326666Y-142073309D01*
X138374285Y-142025690D01*
X138421904Y-141930452D01*
X122626380Y-141892357D02*
X122150190Y-142225690D01*
X122626380Y-142463785D02*
X121626380Y-142463785D01*
X121626380Y-142082833D01*
X121674000Y-141987595D01*
X121721619Y-141939976D01*
X121816857Y-141892357D01*
X121959714Y-141892357D01*
X122054952Y-141939976D01*
X122102571Y-141987595D01*
X122150190Y-142082833D01*
X122150190Y-142463785D01*
X122626380Y-140939976D02*
X122626380Y-141511404D01*
X122626380Y-141225690D02*
X121626380Y-141225690D01*
X121769238Y-141320928D01*
X121864476Y-141416166D01*
X121912095Y-141511404D01*
X122054952Y-140368547D02*
X122007333Y-140463785D01*
X121959714Y-140511404D01*
X121864476Y-140559023D01*
X121816857Y-140559023D01*
X121721619Y-140511404D01*
X121674000Y-140463785D01*
X121626380Y-140368547D01*
X121626380Y-140178071D01*
X121674000Y-140082833D01*
X121721619Y-140035214D01*
X121816857Y-139987595D01*
X121864476Y-139987595D01*
X121959714Y-140035214D01*
X122007333Y-140082833D01*
X122054952Y-140178071D01*
X122054952Y-140368547D01*
X122102571Y-140463785D01*
X122150190Y-140511404D01*
X122245428Y-140559023D01*
X122435904Y-140559023D01*
X122531142Y-140511404D01*
X122578761Y-140463785D01*
X122626380Y-140368547D01*
X122626380Y-140178071D01*
X122578761Y-140082833D01*
X122531142Y-140035214D01*
X122435904Y-139987595D01*
X122245428Y-139987595D01*
X122150190Y-140035214D01*
X122102571Y-140082833D01*
X122054952Y-140178071D01*
X122720380Y-131681357D02*
X122244190Y-132014690D01*
X122720380Y-132252785D02*
X121720380Y-132252785D01*
X121720380Y-131871833D01*
X121768000Y-131776595D01*
X121815619Y-131728976D01*
X121910857Y-131681357D01*
X122053714Y-131681357D01*
X122148952Y-131728976D01*
X122196571Y-131776595D01*
X122244190Y-131871833D01*
X122244190Y-132252785D01*
X122720380Y-130728976D02*
X122720380Y-131300404D01*
X122720380Y-131014690D02*
X121720380Y-131014690D01*
X121863238Y-131109928D01*
X121958476Y-131205166D01*
X122006095Y-131300404D01*
X121720380Y-130395642D02*
X121720380Y-129728976D01*
X122720380Y-130157547D01*
X159504142Y-136850380D02*
X159170809Y-136374190D01*
X158932714Y-136850380D02*
X158932714Y-135850380D01*
X159313666Y-135850380D01*
X159408904Y-135898000D01*
X159456523Y-135945619D01*
X159504142Y-136040857D01*
X159504142Y-136183714D01*
X159456523Y-136278952D01*
X159408904Y-136326571D01*
X159313666Y-136374190D01*
X158932714Y-136374190D01*
X160456523Y-136850380D02*
X159885095Y-136850380D01*
X160170809Y-136850380D02*
X160170809Y-135850380D01*
X160075571Y-135993238D01*
X159980333Y-136088476D01*
X159885095Y-136136095D01*
X161313666Y-135850380D02*
X161123190Y-135850380D01*
X161027952Y-135898000D01*
X160980333Y-135945619D01*
X160885095Y-136088476D01*
X160837476Y-136278952D01*
X160837476Y-136659904D01*
X160885095Y-136755142D01*
X160932714Y-136802761D01*
X161027952Y-136850380D01*
X161218428Y-136850380D01*
X161313666Y-136802761D01*
X161361285Y-136755142D01*
X161408904Y-136659904D01*
X161408904Y-136421809D01*
X161361285Y-136326571D01*
X161313666Y-136278952D01*
X161218428Y-136231333D01*
X161027952Y-136231333D01*
X160932714Y-136278952D01*
X160885095Y-136326571D01*
X160837476Y-136421809D01*
X161256642Y-135072380D02*
X160923309Y-134596190D01*
X160685214Y-135072380D02*
X160685214Y-134072380D01*
X161066166Y-134072380D01*
X161161404Y-134120000D01*
X161209023Y-134167619D01*
X161256642Y-134262857D01*
X161256642Y-134405714D01*
X161209023Y-134500952D01*
X161161404Y-134548571D01*
X161066166Y-134596190D01*
X160685214Y-134596190D01*
X162209023Y-135072380D02*
X161637595Y-135072380D01*
X161923309Y-135072380D02*
X161923309Y-134072380D01*
X161828071Y-134215238D01*
X161732833Y-134310476D01*
X161637595Y-134358095D01*
X163113785Y-134072380D02*
X162637595Y-134072380D01*
X162589976Y-134548571D01*
X162637595Y-134500952D01*
X162732833Y-134453333D01*
X162970928Y-134453333D01*
X163066166Y-134500952D01*
X163113785Y-134548571D01*
X163161404Y-134643809D01*
X163161404Y-134881904D01*
X163113785Y-134977142D01*
X163066166Y-135024761D01*
X162970928Y-135072380D01*
X162732833Y-135072380D01*
X162637595Y-135024761D01*
X162589976Y-134977142D01*
X162250380Y-153042857D02*
X161774190Y-153376190D01*
X162250380Y-153614285D02*
X161250380Y-153614285D01*
X161250380Y-153233333D01*
X161298000Y-153138095D01*
X161345619Y-153090476D01*
X161440857Y-153042857D01*
X161583714Y-153042857D01*
X161678952Y-153090476D01*
X161726571Y-153138095D01*
X161774190Y-153233333D01*
X161774190Y-153614285D01*
X162250380Y-152090476D02*
X162250380Y-152661904D01*
X162250380Y-152376190D02*
X161250380Y-152376190D01*
X161393238Y-152471428D01*
X161488476Y-152566666D01*
X161536095Y-152661904D01*
X161583714Y-151233333D02*
X162250380Y-151233333D01*
X161202761Y-151471428D02*
X161917047Y-151709523D01*
X161917047Y-151090476D01*
X167584380Y-158376857D02*
X167108190Y-158710190D01*
X167584380Y-158948285D02*
X166584380Y-158948285D01*
X166584380Y-158567333D01*
X166632000Y-158472095D01*
X166679619Y-158424476D01*
X166774857Y-158376857D01*
X166917714Y-158376857D01*
X167012952Y-158424476D01*
X167060571Y-158472095D01*
X167108190Y-158567333D01*
X167108190Y-158948285D01*
X167584380Y-157424476D02*
X167584380Y-157995904D01*
X167584380Y-157710190D02*
X166584380Y-157710190D01*
X166727238Y-157805428D01*
X166822476Y-157900666D01*
X166870095Y-157995904D01*
X166584380Y-157091142D02*
X166584380Y-156472095D01*
X166965333Y-156805428D01*
X166965333Y-156662571D01*
X167012952Y-156567333D01*
X167060571Y-156519714D01*
X167155809Y-156472095D01*
X167393904Y-156472095D01*
X167489142Y-156519714D01*
X167536761Y-156567333D01*
X167584380Y-156662571D01*
X167584380Y-156948285D01*
X167536761Y-157043523D01*
X167489142Y-157091142D01*
X167744380Y-121318357D02*
X167268190Y-121651690D01*
X167744380Y-121889785D02*
X166744380Y-121889785D01*
X166744380Y-121508833D01*
X166792000Y-121413595D01*
X166839619Y-121365976D01*
X166934857Y-121318357D01*
X167077714Y-121318357D01*
X167172952Y-121365976D01*
X167220571Y-121413595D01*
X167268190Y-121508833D01*
X167268190Y-121889785D01*
X167744380Y-120365976D02*
X167744380Y-120937404D01*
X167744380Y-120651690D02*
X166744380Y-120651690D01*
X166887238Y-120746928D01*
X166982476Y-120842166D01*
X167030095Y-120937404D01*
X166839619Y-119985023D02*
X166792000Y-119937404D01*
X166744380Y-119842166D01*
X166744380Y-119604071D01*
X166792000Y-119508833D01*
X166839619Y-119461214D01*
X166934857Y-119413595D01*
X167030095Y-119413595D01*
X167172952Y-119461214D01*
X167744380Y-120032642D01*
X167744380Y-119413595D01*
X160346380Y-121468357D02*
X159870190Y-121801690D01*
X160346380Y-122039785D02*
X159346380Y-122039785D01*
X159346380Y-121658833D01*
X159394000Y-121563595D01*
X159441619Y-121515976D01*
X159536857Y-121468357D01*
X159679714Y-121468357D01*
X159774952Y-121515976D01*
X159822571Y-121563595D01*
X159870190Y-121658833D01*
X159870190Y-122039785D01*
X160346380Y-120515976D02*
X160346380Y-121087404D01*
X160346380Y-120801690D02*
X159346380Y-120801690D01*
X159489238Y-120896928D01*
X159584476Y-120992166D01*
X159632095Y-121087404D01*
X160346380Y-119563595D02*
X160346380Y-120135023D01*
X160346380Y-119849309D02*
X159346380Y-119849309D01*
X159489238Y-119944547D01*
X159584476Y-120039785D01*
X159632095Y-120135023D01*
X161996380Y-142628857D02*
X161520190Y-142962190D01*
X161996380Y-143200285D02*
X160996380Y-143200285D01*
X160996380Y-142819333D01*
X161044000Y-142724095D01*
X161091619Y-142676476D01*
X161186857Y-142628857D01*
X161329714Y-142628857D01*
X161424952Y-142676476D01*
X161472571Y-142724095D01*
X161520190Y-142819333D01*
X161520190Y-143200285D01*
X161996380Y-141676476D02*
X161996380Y-142247904D01*
X161996380Y-141962190D02*
X160996380Y-141962190D01*
X161139238Y-142057428D01*
X161234476Y-142152666D01*
X161282095Y-142247904D01*
X160996380Y-141057428D02*
X160996380Y-140962190D01*
X161044000Y-140866952D01*
X161091619Y-140819333D01*
X161186857Y-140771714D01*
X161377333Y-140724095D01*
X161615428Y-140724095D01*
X161805904Y-140771714D01*
X161901142Y-140819333D01*
X161948761Y-140866952D01*
X161996380Y-140962190D01*
X161996380Y-141057428D01*
X161948761Y-141152666D01*
X161901142Y-141200285D01*
X161805904Y-141247904D01*
X161615428Y-141295523D01*
X161377333Y-141295523D01*
X161186857Y-141247904D01*
X161091619Y-141200285D01*
X161044000Y-141152666D01*
X160996380Y-141057428D01*
X166711333Y-135072380D02*
X166378000Y-134596190D01*
X166139904Y-135072380D02*
X166139904Y-134072380D01*
X166520857Y-134072380D01*
X166616095Y-134120000D01*
X166663714Y-134167619D01*
X166711333Y-134262857D01*
X166711333Y-134405714D01*
X166663714Y-134500952D01*
X166616095Y-134548571D01*
X166520857Y-134596190D01*
X166139904Y-134596190D01*
X167187523Y-135072380D02*
X167378000Y-135072380D01*
X167473238Y-135024761D01*
X167520857Y-134977142D01*
X167616095Y-134834285D01*
X167663714Y-134643809D01*
X167663714Y-134262857D01*
X167616095Y-134167619D01*
X167568476Y-134120000D01*
X167473238Y-134072380D01*
X167282761Y-134072380D01*
X167187523Y-134120000D01*
X167139904Y-134167619D01*
X167092285Y-134262857D01*
X167092285Y-134500952D01*
X167139904Y-134596190D01*
X167187523Y-134643809D01*
X167282761Y-134691428D01*
X167473238Y-134691428D01*
X167568476Y-134643809D01*
X167616095Y-134596190D01*
X167663714Y-134500952D01*
X181443333Y-142438380D02*
X181110000Y-141962190D01*
X180871904Y-142438380D02*
X180871904Y-141438380D01*
X181252857Y-141438380D01*
X181348095Y-141486000D01*
X181395714Y-141533619D01*
X181443333Y-141628857D01*
X181443333Y-141771714D01*
X181395714Y-141866952D01*
X181348095Y-141914571D01*
X181252857Y-141962190D01*
X180871904Y-141962190D01*
X182014761Y-141866952D02*
X181919523Y-141819333D01*
X181871904Y-141771714D01*
X181824285Y-141676476D01*
X181824285Y-141628857D01*
X181871904Y-141533619D01*
X181919523Y-141486000D01*
X182014761Y-141438380D01*
X182205238Y-141438380D01*
X182300476Y-141486000D01*
X182348095Y-141533619D01*
X182395714Y-141628857D01*
X182395714Y-141676476D01*
X182348095Y-141771714D01*
X182300476Y-141819333D01*
X182205238Y-141866952D01*
X182014761Y-141866952D01*
X181919523Y-141914571D01*
X181871904Y-141962190D01*
X181824285Y-142057428D01*
X181824285Y-142247904D01*
X181871904Y-142343142D01*
X181919523Y-142390761D01*
X182014761Y-142438380D01*
X182205238Y-142438380D01*
X182300476Y-142390761D01*
X182348095Y-142343142D01*
X182395714Y-142247904D01*
X182395714Y-142057428D01*
X182348095Y-141962190D01*
X182300476Y-141914571D01*
X182205238Y-141866952D01*
X181443333Y-144216380D02*
X181110000Y-143740190D01*
X180871904Y-144216380D02*
X180871904Y-143216380D01*
X181252857Y-143216380D01*
X181348095Y-143264000D01*
X181395714Y-143311619D01*
X181443333Y-143406857D01*
X181443333Y-143549714D01*
X181395714Y-143644952D01*
X181348095Y-143692571D01*
X181252857Y-143740190D01*
X180871904Y-143740190D01*
X181776666Y-143216380D02*
X182443333Y-143216380D01*
X182014761Y-144216380D01*
X166314380Y-141898666D02*
X165838190Y-142232000D01*
X166314380Y-142470095D02*
X165314380Y-142470095D01*
X165314380Y-142089142D01*
X165362000Y-141993904D01*
X165409619Y-141946285D01*
X165504857Y-141898666D01*
X165647714Y-141898666D01*
X165742952Y-141946285D01*
X165790571Y-141993904D01*
X165838190Y-142089142D01*
X165838190Y-142470095D01*
X165314380Y-141041523D02*
X165314380Y-141232000D01*
X165362000Y-141327238D01*
X165409619Y-141374857D01*
X165552476Y-141470095D01*
X165742952Y-141517714D01*
X166123904Y-141517714D01*
X166219142Y-141470095D01*
X166266761Y-141422476D01*
X166314380Y-141327238D01*
X166314380Y-141136761D01*
X166266761Y-141041523D01*
X166219142Y-140993904D01*
X166123904Y-140946285D01*
X165885809Y-140946285D01*
X165790571Y-140993904D01*
X165742952Y-141041523D01*
X165695333Y-141136761D01*
X165695333Y-141327238D01*
X165742952Y-141422476D01*
X165790571Y-141470095D01*
X165885809Y-141517714D01*
X171537333Y-132024380D02*
X171204000Y-131548190D01*
X170965904Y-132024380D02*
X170965904Y-131024380D01*
X171346857Y-131024380D01*
X171442095Y-131072000D01*
X171489714Y-131119619D01*
X171537333Y-131214857D01*
X171537333Y-131357714D01*
X171489714Y-131452952D01*
X171442095Y-131500571D01*
X171346857Y-131548190D01*
X170965904Y-131548190D01*
X172442095Y-131024380D02*
X171965904Y-131024380D01*
X171918285Y-131500571D01*
X171965904Y-131452952D01*
X172061142Y-131405333D01*
X172299238Y-131405333D01*
X172394476Y-131452952D01*
X172442095Y-131500571D01*
X172489714Y-131595809D01*
X172489714Y-131833904D01*
X172442095Y-131929142D01*
X172394476Y-131976761D01*
X172299238Y-132024380D01*
X172061142Y-132024380D01*
X171965904Y-131976761D01*
X171918285Y-131929142D01*
X168997333Y-121864280D02*
X168664000Y-121388090D01*
X168425904Y-121864280D02*
X168425904Y-120864280D01*
X168806857Y-120864280D01*
X168902095Y-120911900D01*
X168949714Y-120959519D01*
X168997333Y-121054757D01*
X168997333Y-121197614D01*
X168949714Y-121292852D01*
X168902095Y-121340471D01*
X168806857Y-121388090D01*
X168425904Y-121388090D01*
X169854476Y-121197614D02*
X169854476Y-121864280D01*
X169616380Y-120816661D02*
X169378285Y-121530947D01*
X169997333Y-121530947D01*
X179776380Y-119013366D02*
X179300190Y-119346700D01*
X179776380Y-119584795D02*
X178776380Y-119584795D01*
X178776380Y-119203842D01*
X178824000Y-119108604D01*
X178871619Y-119060985D01*
X178966857Y-119013366D01*
X179109714Y-119013366D01*
X179204952Y-119060985D01*
X179252571Y-119108604D01*
X179300190Y-119203842D01*
X179300190Y-119584795D01*
X178776380Y-118680033D02*
X178776380Y-118060985D01*
X179157333Y-118394319D01*
X179157333Y-118251461D01*
X179204952Y-118156223D01*
X179252571Y-118108604D01*
X179347809Y-118060985D01*
X179585904Y-118060985D01*
X179681142Y-118108604D01*
X179728761Y-118156223D01*
X179776380Y-118251461D01*
X179776380Y-118537176D01*
X179728761Y-118632414D01*
X179681142Y-118680033D01*
X181554380Y-118987966D02*
X181078190Y-119321300D01*
X181554380Y-119559395D02*
X180554380Y-119559395D01*
X180554380Y-119178442D01*
X180602000Y-119083204D01*
X180649619Y-119035585D01*
X180744857Y-118987966D01*
X180887714Y-118987966D01*
X180982952Y-119035585D01*
X181030571Y-119083204D01*
X181078190Y-119178442D01*
X181078190Y-119559395D01*
X180649619Y-118607014D02*
X180602000Y-118559395D01*
X180554380Y-118464157D01*
X180554380Y-118226061D01*
X180602000Y-118130823D01*
X180649619Y-118083204D01*
X180744857Y-118035585D01*
X180840095Y-118035585D01*
X180982952Y-118083204D01*
X181554380Y-118654633D01*
X181554380Y-118035585D01*
X177490380Y-126912666D02*
X177014190Y-127246000D01*
X177490380Y-127484095D02*
X176490380Y-127484095D01*
X176490380Y-127103142D01*
X176538000Y-127007904D01*
X176585619Y-126960285D01*
X176680857Y-126912666D01*
X176823714Y-126912666D01*
X176918952Y-126960285D01*
X176966571Y-127007904D01*
X177014190Y-127103142D01*
X177014190Y-127484095D01*
X177490380Y-125960285D02*
X177490380Y-126531714D01*
X177490380Y-126246000D02*
X176490380Y-126246000D01*
X176633238Y-126341238D01*
X176728476Y-126436476D01*
X176776095Y-126531714D01*
X153868380Y-93717904D02*
X152868380Y-93717904D01*
X153868380Y-93146476D01*
X152868380Y-93146476D01*
X153868380Y-92670285D02*
X152868380Y-92670285D01*
X152868380Y-92289333D01*
X152916000Y-92194095D01*
X152963619Y-92146476D01*
X153058857Y-92098857D01*
X153201714Y-92098857D01*
X153296952Y-92146476D01*
X153344571Y-92194095D01*
X153392190Y-92289333D01*
X153392190Y-92670285D01*
X152963619Y-91717904D02*
X152916000Y-91670285D01*
X152868380Y-91575047D01*
X152868380Y-91336952D01*
X152916000Y-91241714D01*
X152963619Y-91194095D01*
X153058857Y-91146476D01*
X153154095Y-91146476D01*
X153296952Y-91194095D01*
X153868380Y-91765523D01*
X153868380Y-91146476D01*
X153868380Y-101845904D02*
X152868380Y-101845904D01*
X153868380Y-101274476D01*
X152868380Y-101274476D01*
X153868380Y-100798285D02*
X152868380Y-100798285D01*
X152868380Y-100417333D01*
X152916000Y-100322095D01*
X152963619Y-100274476D01*
X153058857Y-100226857D01*
X153201714Y-100226857D01*
X153296952Y-100274476D01*
X153344571Y-100322095D01*
X153392190Y-100417333D01*
X153392190Y-100798285D01*
X153868380Y-99274476D02*
X153868380Y-99845904D01*
X153868380Y-99560190D02*
X152868380Y-99560190D01*
X153011238Y-99655428D01*
X153106476Y-99750666D01*
X153154095Y-99845904D01*
X136739333Y-158948380D02*
X136263142Y-158948380D01*
X136263142Y-157948380D01*
X137215523Y-158376952D02*
X137120285Y-158329333D01*
X137072666Y-158281714D01*
X137025047Y-158186476D01*
X137025047Y-158138857D01*
X137072666Y-158043619D01*
X137120285Y-157996000D01*
X137215523Y-157948380D01*
X137406000Y-157948380D01*
X137501238Y-157996000D01*
X137548857Y-158043619D01*
X137596476Y-158138857D01*
X137596476Y-158186476D01*
X137548857Y-158281714D01*
X137501238Y-158329333D01*
X137406000Y-158376952D01*
X137215523Y-158376952D01*
X137120285Y-158424571D01*
X137072666Y-158472190D01*
X137025047Y-158567428D01*
X137025047Y-158757904D01*
X137072666Y-158853142D01*
X137120285Y-158900761D01*
X137215523Y-158948380D01*
X137406000Y-158948380D01*
X137501238Y-158900761D01*
X137548857Y-158853142D01*
X137596476Y-158757904D01*
X137596476Y-158567428D01*
X137548857Y-158472190D01*
X137501238Y-158424571D01*
X137406000Y-158376952D01*
X137247333Y-152344380D02*
X136771142Y-152344380D01*
X136771142Y-151344380D01*
X137485428Y-151344380D02*
X138152095Y-151344380D01*
X137723523Y-152344380D01*
X143454380Y-147232666D02*
X143454380Y-147708857D01*
X142454380Y-147708857D01*
X142454380Y-146470761D02*
X142454380Y-146661238D01*
X142502000Y-146756476D01*
X142549619Y-146804095D01*
X142692476Y-146899333D01*
X142882952Y-146946952D01*
X143263904Y-146946952D01*
X143359142Y-146899333D01*
X143406761Y-146851714D01*
X143454380Y-146756476D01*
X143454380Y-146566000D01*
X143406761Y-146470761D01*
X143359142Y-146423142D01*
X143263904Y-146375523D01*
X143025809Y-146375523D01*
X142930571Y-146423142D01*
X142882952Y-146470761D01*
X142835333Y-146566000D01*
X142835333Y-146756476D01*
X142882952Y-146851714D01*
X142930571Y-146899333D01*
X143025809Y-146946952D01*
X128611333Y-138882380D02*
X128135142Y-138882380D01*
X128135142Y-137882380D01*
X129420857Y-137882380D02*
X128944666Y-137882380D01*
X128897047Y-138358571D01*
X128944666Y-138310952D01*
X129039904Y-138263333D01*
X129278000Y-138263333D01*
X129373238Y-138310952D01*
X129420857Y-138358571D01*
X129468476Y-138453809D01*
X129468476Y-138691904D01*
X129420857Y-138787142D01*
X129373238Y-138834761D01*
X129278000Y-138882380D01*
X129039904Y-138882380D01*
X128944666Y-138834761D01*
X128897047Y-138787142D01*
X128560533Y-128976380D02*
X128084342Y-128976380D01*
X128084342Y-127976380D01*
X129322438Y-128309714D02*
X129322438Y-128976380D01*
X129084342Y-127928761D02*
X128846247Y-128643047D01*
X129465295Y-128643047D01*
X166711333Y-152598380D02*
X166235142Y-152598380D01*
X166235142Y-151598380D01*
X166949428Y-151598380D02*
X167568476Y-151598380D01*
X167235142Y-151979333D01*
X167378000Y-151979333D01*
X167473238Y-152026952D01*
X167520857Y-152074571D01*
X167568476Y-152169809D01*
X167568476Y-152407904D01*
X167520857Y-152503142D01*
X167473238Y-152550761D01*
X167378000Y-152598380D01*
X167092285Y-152598380D01*
X166997047Y-152550761D01*
X166949428Y-152503142D01*
X169251333Y-142184380D02*
X168775142Y-142184380D01*
X168775142Y-141184380D01*
X169537047Y-141279619D02*
X169584666Y-141232000D01*
X169679904Y-141184380D01*
X169918000Y-141184380D01*
X170013238Y-141232000D01*
X170060857Y-141279619D01*
X170108476Y-141374857D01*
X170108476Y-141470095D01*
X170060857Y-141612952D01*
X169489428Y-142184380D01*
X170108476Y-142184380D01*
X177490380Y-123610666D02*
X177490380Y-124086857D01*
X176490380Y-124086857D01*
X177490380Y-122753523D02*
X177490380Y-123324952D01*
X177490380Y-123039238D02*
X176490380Y-123039238D01*
X176633238Y-123134476D01*
X176728476Y-123229714D01*
X176776095Y-123324952D01*
X162599809Y-137612380D02*
X162599809Y-136612380D01*
X163647428Y-137517142D02*
X163599809Y-137564761D01*
X163456952Y-137612380D01*
X163361714Y-137612380D01*
X163218857Y-137564761D01*
X163123619Y-137469523D01*
X163076000Y-137374285D01*
X163028380Y-137183809D01*
X163028380Y-137040952D01*
X163076000Y-136850476D01*
X163123619Y-136755238D01*
X163218857Y-136660000D01*
X163361714Y-136612380D01*
X163456952Y-136612380D01*
X163599809Y-136660000D01*
X163647428Y-136707619D01*
X164028380Y-136707619D02*
X164076000Y-136660000D01*
X164171238Y-136612380D01*
X164409333Y-136612380D01*
X164504571Y-136660000D01*
X164552190Y-136707619D01*
X164599809Y-136802857D01*
X164599809Y-136898095D01*
X164552190Y-137040952D01*
X163980761Y-137612380D01*
X164599809Y-137612380D01*
X170981809Y-129738380D02*
X170981809Y-128738380D01*
X172029428Y-129643142D02*
X171981809Y-129690761D01*
X171838952Y-129738380D01*
X171743714Y-129738380D01*
X171600857Y-129690761D01*
X171505619Y-129595523D01*
X171458000Y-129500285D01*
X171410380Y-129309809D01*
X171410380Y-129166952D01*
X171458000Y-128976476D01*
X171505619Y-128881238D01*
X171600857Y-128786000D01*
X171743714Y-128738380D01*
X171838952Y-128738380D01*
X171981809Y-128786000D01*
X172029428Y-128833619D01*
X172981809Y-129738380D02*
X172410380Y-129738380D01*
X172696095Y-129738380D02*
X172696095Y-128738380D01*
X172600857Y-128881238D01*
X172505619Y-128976476D01*
X172410380Y-129024095D01*
X145057904Y-94432380D02*
X145057904Y-93432380D01*
X145296000Y-93432380D01*
X145438857Y-93480000D01*
X145534095Y-93575238D01*
X145581714Y-93670476D01*
X145629333Y-93860952D01*
X145629333Y-94003809D01*
X145581714Y-94194285D01*
X145534095Y-94289523D01*
X145438857Y-94384761D01*
X145296000Y-94432380D01*
X145057904Y-94432380D01*
X145962666Y-93432380D02*
X146581714Y-93432380D01*
X146248380Y-93813333D01*
X146391238Y-93813333D01*
X146486476Y-93860952D01*
X146534095Y-93908571D01*
X146581714Y-94003809D01*
X146581714Y-94241904D01*
X146534095Y-94337142D01*
X146486476Y-94384761D01*
X146391238Y-94432380D01*
X146105523Y-94432380D01*
X146010285Y-94384761D01*
X145962666Y-94337142D01*
X173426380Y-142470095D02*
X172426380Y-142470095D01*
X172426380Y-142232000D01*
X172474000Y-142089142D01*
X172569238Y-141993904D01*
X172664476Y-141946285D01*
X172854952Y-141898666D01*
X172997809Y-141898666D01*
X173188285Y-141946285D01*
X173283523Y-141993904D01*
X173378761Y-142089142D01*
X173426380Y-142232000D01*
X173426380Y-142470095D01*
X172521619Y-141517714D02*
X172474000Y-141470095D01*
X172426380Y-141374857D01*
X172426380Y-141136761D01*
X172474000Y-141041523D01*
X172521619Y-140993904D01*
X172616857Y-140946285D01*
X172712095Y-140946285D01*
X172854952Y-140993904D01*
X173426380Y-141565333D01*
X173426380Y-140946285D01*
X176553904Y-120848380D02*
X176553904Y-119848380D01*
X176792000Y-119848380D01*
X176934857Y-119896000D01*
X177030095Y-119991238D01*
X177077714Y-120086476D01*
X177125333Y-120276952D01*
X177125333Y-120419809D01*
X177077714Y-120610285D01*
X177030095Y-120705523D01*
X176934857Y-120800761D01*
X176792000Y-120848380D01*
X176553904Y-120848380D01*
X178077714Y-120848380D02*
X177506285Y-120848380D01*
X177792000Y-120848380D02*
X177792000Y-119848380D01*
X177696761Y-119991238D01*
X177601523Y-120086476D01*
X177506285Y-120134095D01*
X135755142Y-101289142D02*
X135707523Y-101336761D01*
X135564666Y-101384380D01*
X135469428Y-101384380D01*
X135326571Y-101336761D01*
X135231333Y-101241523D01*
X135183714Y-101146285D01*
X135136095Y-100955809D01*
X135136095Y-100812952D01*
X135183714Y-100622476D01*
X135231333Y-100527238D01*
X135326571Y-100432000D01*
X135469428Y-100384380D01*
X135564666Y-100384380D01*
X135707523Y-100432000D01*
X135755142Y-100479619D01*
X136612285Y-100717714D02*
X136612285Y-101384380D01*
X136374190Y-100336761D02*
X136136095Y-101051047D01*
X136755142Y-101051047D01*
X137659904Y-101384380D02*
X137088476Y-101384380D01*
X137374190Y-101384380D02*
X137374190Y-100384380D01*
X137278952Y-100527238D01*
X137183714Y-100622476D01*
X137088476Y-100670095D01*
X135755142Y-105927142D02*
X135707523Y-105974761D01*
X135564666Y-106022380D01*
X135469428Y-106022380D01*
X135326571Y-105974761D01*
X135231333Y-105879523D01*
X135183714Y-105784285D01*
X135136095Y-105593809D01*
X135136095Y-105450952D01*
X135183714Y-105260476D01*
X135231333Y-105165238D01*
X135326571Y-105070000D01*
X135469428Y-105022380D01*
X135564666Y-105022380D01*
X135707523Y-105070000D01*
X135755142Y-105117619D01*
X136612285Y-105355714D02*
X136612285Y-106022380D01*
X136374190Y-104974761D02*
X136136095Y-105689047D01*
X136755142Y-105689047D01*
X137326571Y-105022380D02*
X137421809Y-105022380D01*
X137517047Y-105070000D01*
X137564666Y-105117619D01*
X137612285Y-105212857D01*
X137659904Y-105403333D01*
X137659904Y-105641428D01*
X137612285Y-105831904D01*
X137564666Y-105927142D01*
X137517047Y-105974761D01*
X137421809Y-106022380D01*
X137326571Y-106022380D01*
X137231333Y-105974761D01*
X137183714Y-105927142D01*
X137136095Y-105831904D01*
X137088476Y-105641428D01*
X137088476Y-105403333D01*
X137136095Y-105212857D01*
X137183714Y-105117619D01*
X137231333Y-105070000D01*
X137326571Y-105022380D01*
X150233142Y-91797142D02*
X150185523Y-91844761D01*
X150042666Y-91892380D01*
X149947428Y-91892380D01*
X149804571Y-91844761D01*
X149709333Y-91749523D01*
X149661714Y-91654285D01*
X149614095Y-91463809D01*
X149614095Y-91320952D01*
X149661714Y-91130476D01*
X149709333Y-91035238D01*
X149804571Y-90940000D01*
X149947428Y-90892380D01*
X150042666Y-90892380D01*
X150185523Y-90940000D01*
X150233142Y-90987619D01*
X150566476Y-90892380D02*
X151185523Y-90892380D01*
X150852190Y-91273333D01*
X150995047Y-91273333D01*
X151090285Y-91320952D01*
X151137904Y-91368571D01*
X151185523Y-91463809D01*
X151185523Y-91701904D01*
X151137904Y-91797142D01*
X151090285Y-91844761D01*
X150995047Y-91892380D01*
X150709333Y-91892380D01*
X150614095Y-91844761D01*
X150566476Y-91797142D01*
X151661714Y-91892380D02*
X151852190Y-91892380D01*
X151947428Y-91844761D01*
X151995047Y-91797142D01*
X152090285Y-91654285D01*
X152137904Y-91463809D01*
X152137904Y-91082857D01*
X152090285Y-90987619D01*
X152042666Y-90940000D01*
X151947428Y-90892380D01*
X151756952Y-90892380D01*
X151661714Y-90940000D01*
X151614095Y-90987619D01*
X151566476Y-91082857D01*
X151566476Y-91320952D01*
X151614095Y-91416190D01*
X151661714Y-91463809D01*
X151756952Y-91511428D01*
X151947428Y-91511428D01*
X152042666Y-91463809D01*
X152090285Y-91416190D01*
X152137904Y-91320952D01*
X167743142Y-113418857D02*
X167790761Y-113466476D01*
X167838380Y-113609333D01*
X167838380Y-113704571D01*
X167790761Y-113847428D01*
X167695523Y-113942666D01*
X167600285Y-113990285D01*
X167409809Y-114037904D01*
X167266952Y-114037904D01*
X167076476Y-113990285D01*
X166981238Y-113942666D01*
X166886000Y-113847428D01*
X166838380Y-113704571D01*
X166838380Y-113609333D01*
X166886000Y-113466476D01*
X166933619Y-113418857D01*
X166838380Y-113085523D02*
X166838380Y-112466476D01*
X167219333Y-112799809D01*
X167219333Y-112656952D01*
X167266952Y-112561714D01*
X167314571Y-112514095D01*
X167409809Y-112466476D01*
X167647904Y-112466476D01*
X167743142Y-112514095D01*
X167790761Y-112561714D01*
X167838380Y-112656952D01*
X167838380Y-112942666D01*
X167790761Y-113037904D01*
X167743142Y-113085523D01*
X167266952Y-111895047D02*
X167219333Y-111990285D01*
X167171714Y-112037904D01*
X167076476Y-112085523D01*
X167028857Y-112085523D01*
X166933619Y-112037904D01*
X166886000Y-111990285D01*
X166838380Y-111895047D01*
X166838380Y-111704571D01*
X166886000Y-111609333D01*
X166933619Y-111561714D01*
X167028857Y-111514095D01*
X167076476Y-111514095D01*
X167171714Y-111561714D01*
X167219333Y-111609333D01*
X167266952Y-111704571D01*
X167266952Y-111895047D01*
X167314571Y-111990285D01*
X167362190Y-112037904D01*
X167457428Y-112085523D01*
X167647904Y-112085523D01*
X167743142Y-112037904D01*
X167790761Y-111990285D01*
X167838380Y-111895047D01*
X167838380Y-111704571D01*
X167790761Y-111609333D01*
X167743142Y-111561714D01*
X167647904Y-111514095D01*
X167457428Y-111514095D01*
X167362190Y-111561714D01*
X167314571Y-111609333D01*
X167266952Y-111704571D01*
X152519142Y-108307142D02*
X152471523Y-108354761D01*
X152328666Y-108402380D01*
X152233428Y-108402380D01*
X152090571Y-108354761D01*
X151995333Y-108259523D01*
X151947714Y-108164285D01*
X151900095Y-107973809D01*
X151900095Y-107830952D01*
X151947714Y-107640476D01*
X151995333Y-107545238D01*
X152090571Y-107450000D01*
X152233428Y-107402380D01*
X152328666Y-107402380D01*
X152471523Y-107450000D01*
X152519142Y-107497619D01*
X152852476Y-107402380D02*
X153471523Y-107402380D01*
X153138190Y-107783333D01*
X153281047Y-107783333D01*
X153376285Y-107830952D01*
X153423904Y-107878571D01*
X153471523Y-107973809D01*
X153471523Y-108211904D01*
X153423904Y-108307142D01*
X153376285Y-108354761D01*
X153281047Y-108402380D01*
X152995333Y-108402380D01*
X152900095Y-108354761D01*
X152852476Y-108307142D01*
X153804857Y-107402380D02*
X154471523Y-107402380D01*
X154042952Y-108402380D01*
X148709142Y-95353142D02*
X148661523Y-95400761D01*
X148518666Y-95448380D01*
X148423428Y-95448380D01*
X148280571Y-95400761D01*
X148185333Y-95305523D01*
X148137714Y-95210285D01*
X148090095Y-95019809D01*
X148090095Y-94876952D01*
X148137714Y-94686476D01*
X148185333Y-94591238D01*
X148280571Y-94496000D01*
X148423428Y-94448380D01*
X148518666Y-94448380D01*
X148661523Y-94496000D01*
X148709142Y-94543619D01*
X149042476Y-94448380D02*
X149661523Y-94448380D01*
X149328190Y-94829333D01*
X149471047Y-94829333D01*
X149566285Y-94876952D01*
X149613904Y-94924571D01*
X149661523Y-95019809D01*
X149661523Y-95257904D01*
X149613904Y-95353142D01*
X149566285Y-95400761D01*
X149471047Y-95448380D01*
X149185333Y-95448380D01*
X149090095Y-95400761D01*
X149042476Y-95353142D01*
X150518666Y-94448380D02*
X150328190Y-94448380D01*
X150232952Y-94496000D01*
X150185333Y-94543619D01*
X150090095Y-94686476D01*
X150042476Y-94876952D01*
X150042476Y-95257904D01*
X150090095Y-95353142D01*
X150137714Y-95400761D01*
X150232952Y-95448380D01*
X150423428Y-95448380D01*
X150518666Y-95400761D01*
X150566285Y-95353142D01*
X150613904Y-95257904D01*
X150613904Y-95019809D01*
X150566285Y-94924571D01*
X150518666Y-94876952D01*
X150423428Y-94829333D01*
X150232952Y-94829333D01*
X150137714Y-94876952D01*
X150090095Y-94924571D01*
X150042476Y-95019809D01*
X168013142Y-96877142D02*
X167965523Y-96924761D01*
X167822666Y-96972380D01*
X167727428Y-96972380D01*
X167584571Y-96924761D01*
X167489333Y-96829523D01*
X167441714Y-96734285D01*
X167394095Y-96543809D01*
X167394095Y-96400952D01*
X167441714Y-96210476D01*
X167489333Y-96115238D01*
X167584571Y-96020000D01*
X167727428Y-95972380D01*
X167822666Y-95972380D01*
X167965523Y-96020000D01*
X168013142Y-96067619D01*
X168346476Y-95972380D02*
X168965523Y-95972380D01*
X168632190Y-96353333D01*
X168775047Y-96353333D01*
X168870285Y-96400952D01*
X168917904Y-96448571D01*
X168965523Y-96543809D01*
X168965523Y-96781904D01*
X168917904Y-96877142D01*
X168870285Y-96924761D01*
X168775047Y-96972380D01*
X168489333Y-96972380D01*
X168394095Y-96924761D01*
X168346476Y-96877142D01*
X169870285Y-95972380D02*
X169394095Y-95972380D01*
X169346476Y-96448571D01*
X169394095Y-96400952D01*
X169489333Y-96353333D01*
X169727428Y-96353333D01*
X169822666Y-96400952D01*
X169870285Y-96448571D01*
X169917904Y-96543809D01*
X169917904Y-96781904D01*
X169870285Y-96877142D01*
X169822666Y-96924761D01*
X169727428Y-96972380D01*
X169489333Y-96972380D01*
X169394095Y-96924761D01*
X169346476Y-96877142D01*
X169283142Y-99163142D02*
X169235523Y-99210761D01*
X169092666Y-99258380D01*
X168997428Y-99258380D01*
X168854571Y-99210761D01*
X168759333Y-99115523D01*
X168711714Y-99020285D01*
X168664095Y-98829809D01*
X168664095Y-98686952D01*
X168711714Y-98496476D01*
X168759333Y-98401238D01*
X168854571Y-98306000D01*
X168997428Y-98258380D01*
X169092666Y-98258380D01*
X169235523Y-98306000D01*
X169283142Y-98353619D01*
X169616476Y-98258380D02*
X170235523Y-98258380D01*
X169902190Y-98639333D01*
X170045047Y-98639333D01*
X170140285Y-98686952D01*
X170187904Y-98734571D01*
X170235523Y-98829809D01*
X170235523Y-99067904D01*
X170187904Y-99163142D01*
X170140285Y-99210761D01*
X170045047Y-99258380D01*
X169759333Y-99258380D01*
X169664095Y-99210761D01*
X169616476Y-99163142D01*
X171092666Y-98591714D02*
X171092666Y-99258380D01*
X170854571Y-98210761D02*
X170616476Y-98925047D01*
X171235523Y-98925047D01*
X150233142Y-101957142D02*
X150185523Y-102004761D01*
X150042666Y-102052380D01*
X149947428Y-102052380D01*
X149804571Y-102004761D01*
X149709333Y-101909523D01*
X149661714Y-101814285D01*
X149614095Y-101623809D01*
X149614095Y-101480952D01*
X149661714Y-101290476D01*
X149709333Y-101195238D01*
X149804571Y-101100000D01*
X149947428Y-101052380D01*
X150042666Y-101052380D01*
X150185523Y-101100000D01*
X150233142Y-101147619D01*
X150566476Y-101052380D02*
X151185523Y-101052380D01*
X150852190Y-101433333D01*
X150995047Y-101433333D01*
X151090285Y-101480952D01*
X151137904Y-101528571D01*
X151185523Y-101623809D01*
X151185523Y-101861904D01*
X151137904Y-101957142D01*
X151090285Y-102004761D01*
X150995047Y-102052380D01*
X150709333Y-102052380D01*
X150614095Y-102004761D01*
X150566476Y-101957142D01*
X151518857Y-101052380D02*
X152137904Y-101052380D01*
X151804571Y-101433333D01*
X151947428Y-101433333D01*
X152042666Y-101480952D01*
X152090285Y-101528571D01*
X152137904Y-101623809D01*
X152137904Y-101861904D01*
X152090285Y-101957142D01*
X152042666Y-102004761D01*
X151947428Y-102052380D01*
X151661714Y-102052380D01*
X151566476Y-102004761D01*
X151518857Y-101957142D01*
X169283142Y-100941142D02*
X169235523Y-100988761D01*
X169092666Y-101036380D01*
X168997428Y-101036380D01*
X168854571Y-100988761D01*
X168759333Y-100893523D01*
X168711714Y-100798285D01*
X168664095Y-100607809D01*
X168664095Y-100464952D01*
X168711714Y-100274476D01*
X168759333Y-100179238D01*
X168854571Y-100084000D01*
X168997428Y-100036380D01*
X169092666Y-100036380D01*
X169235523Y-100084000D01*
X169283142Y-100131619D01*
X169616476Y-100036380D02*
X170235523Y-100036380D01*
X169902190Y-100417333D01*
X170045047Y-100417333D01*
X170140285Y-100464952D01*
X170187904Y-100512571D01*
X170235523Y-100607809D01*
X170235523Y-100845904D01*
X170187904Y-100941142D01*
X170140285Y-100988761D01*
X170045047Y-101036380D01*
X169759333Y-101036380D01*
X169664095Y-100988761D01*
X169616476Y-100941142D01*
X170616476Y-100131619D02*
X170664095Y-100084000D01*
X170759333Y-100036380D01*
X170997428Y-100036380D01*
X171092666Y-100084000D01*
X171140285Y-100131619D01*
X171187904Y-100226857D01*
X171187904Y-100322095D01*
X171140285Y-100464952D01*
X170568857Y-101036380D01*
X171187904Y-101036380D01*
X141089142Y-161901142D02*
X141041523Y-161948761D01*
X140898666Y-161996380D01*
X140803428Y-161996380D01*
X140660571Y-161948761D01*
X140565333Y-161853523D01*
X140517714Y-161758285D01*
X140470095Y-161567809D01*
X140470095Y-161424952D01*
X140517714Y-161234476D01*
X140565333Y-161139238D01*
X140660571Y-161044000D01*
X140803428Y-160996380D01*
X140898666Y-160996380D01*
X141041523Y-161044000D01*
X141089142Y-161091619D01*
X141422476Y-160996380D02*
X142041523Y-160996380D01*
X141708190Y-161377333D01*
X141851047Y-161377333D01*
X141946285Y-161424952D01*
X141993904Y-161472571D01*
X142041523Y-161567809D01*
X142041523Y-161805904D01*
X141993904Y-161901142D01*
X141946285Y-161948761D01*
X141851047Y-161996380D01*
X141565333Y-161996380D01*
X141470095Y-161948761D01*
X141422476Y-161901142D01*
X142993904Y-161996380D02*
X142422476Y-161996380D01*
X142708190Y-161996380D02*
X142708190Y-160996380D01*
X142612952Y-161139238D01*
X142517714Y-161234476D01*
X142422476Y-161282095D01*
X138295142Y-161901142D02*
X138247523Y-161948761D01*
X138104666Y-161996380D01*
X138009428Y-161996380D01*
X137866571Y-161948761D01*
X137771333Y-161853523D01*
X137723714Y-161758285D01*
X137676095Y-161567809D01*
X137676095Y-161424952D01*
X137723714Y-161234476D01*
X137771333Y-161139238D01*
X137866571Y-161044000D01*
X138009428Y-160996380D01*
X138104666Y-160996380D01*
X138247523Y-161044000D01*
X138295142Y-161091619D01*
X138628476Y-160996380D02*
X139247523Y-160996380D01*
X138914190Y-161377333D01*
X139057047Y-161377333D01*
X139152285Y-161424952D01*
X139199904Y-161472571D01*
X139247523Y-161567809D01*
X139247523Y-161805904D01*
X139199904Y-161901142D01*
X139152285Y-161948761D01*
X139057047Y-161996380D01*
X138771333Y-161996380D01*
X138676095Y-161948761D01*
X138628476Y-161901142D01*
X139866571Y-160996380D02*
X139961809Y-160996380D01*
X140057047Y-161044000D01*
X140104666Y-161091619D01*
X140152285Y-161186857D01*
X140199904Y-161377333D01*
X140199904Y-161615428D01*
X140152285Y-161805904D01*
X140104666Y-161901142D01*
X140057047Y-161948761D01*
X139961809Y-161996380D01*
X139866571Y-161996380D01*
X139771333Y-161948761D01*
X139723714Y-161901142D01*
X139676095Y-161805904D01*
X139628476Y-161615428D01*
X139628476Y-161377333D01*
X139676095Y-161186857D01*
X139723714Y-161091619D01*
X139771333Y-161044000D01*
X139866571Y-160996380D01*
X137253642Y-155645142D02*
X137206023Y-155692761D01*
X137063166Y-155740380D01*
X136967928Y-155740380D01*
X136825071Y-155692761D01*
X136729833Y-155597523D01*
X136682214Y-155502285D01*
X136634595Y-155311809D01*
X136634595Y-155168952D01*
X136682214Y-154978476D01*
X136729833Y-154883238D01*
X136825071Y-154788000D01*
X136967928Y-154740380D01*
X137063166Y-154740380D01*
X137206023Y-154788000D01*
X137253642Y-154835619D01*
X137634595Y-154835619D02*
X137682214Y-154788000D01*
X137777452Y-154740380D01*
X138015547Y-154740380D01*
X138110785Y-154788000D01*
X138158404Y-154835619D01*
X138206023Y-154930857D01*
X138206023Y-155026095D01*
X138158404Y-155168952D01*
X137586976Y-155740380D01*
X138206023Y-155740380D01*
X138682214Y-155740380D02*
X138872690Y-155740380D01*
X138967928Y-155692761D01*
X139015547Y-155645142D01*
X139110785Y-155502285D01*
X139158404Y-155311809D01*
X139158404Y-154930857D01*
X139110785Y-154835619D01*
X139063166Y-154788000D01*
X138967928Y-154740380D01*
X138777452Y-154740380D01*
X138682214Y-154788000D01*
X138634595Y-154835619D01*
X138586976Y-154930857D01*
X138586976Y-155168952D01*
X138634595Y-155264190D01*
X138682214Y-155311809D01*
X138777452Y-155359428D01*
X138967928Y-155359428D01*
X139063166Y-155311809D01*
X139110785Y-155264190D01*
X139158404Y-155168952D01*
X136009142Y-148693142D02*
X135961523Y-148740761D01*
X135818666Y-148788380D01*
X135723428Y-148788380D01*
X135580571Y-148740761D01*
X135485333Y-148645523D01*
X135437714Y-148550285D01*
X135390095Y-148359809D01*
X135390095Y-148216952D01*
X135437714Y-148026476D01*
X135485333Y-147931238D01*
X135580571Y-147836000D01*
X135723428Y-147788380D01*
X135818666Y-147788380D01*
X135961523Y-147836000D01*
X136009142Y-147883619D01*
X136390095Y-147883619D02*
X136437714Y-147836000D01*
X136532952Y-147788380D01*
X136771047Y-147788380D01*
X136866285Y-147836000D01*
X136913904Y-147883619D01*
X136961523Y-147978857D01*
X136961523Y-148074095D01*
X136913904Y-148216952D01*
X136342476Y-148788380D01*
X136961523Y-148788380D01*
X137532952Y-148216952D02*
X137437714Y-148169333D01*
X137390095Y-148121714D01*
X137342476Y-148026476D01*
X137342476Y-147978857D01*
X137390095Y-147883619D01*
X137437714Y-147836000D01*
X137532952Y-147788380D01*
X137723428Y-147788380D01*
X137818666Y-147836000D01*
X137866285Y-147883619D01*
X137913904Y-147978857D01*
X137913904Y-148026476D01*
X137866285Y-148121714D01*
X137818666Y-148169333D01*
X137723428Y-148216952D01*
X137532952Y-148216952D01*
X137437714Y-148264571D01*
X137390095Y-148312190D01*
X137342476Y-148407428D01*
X137342476Y-148597904D01*
X137390095Y-148693142D01*
X137437714Y-148740761D01*
X137532952Y-148788380D01*
X137723428Y-148788380D01*
X137818666Y-148740761D01*
X137866285Y-148693142D01*
X137913904Y-148597904D01*
X137913904Y-148407428D01*
X137866285Y-148312190D01*
X137818666Y-148264571D01*
X137723428Y-148216952D01*
X136009142Y-150725142D02*
X135961523Y-150772761D01*
X135818666Y-150820380D01*
X135723428Y-150820380D01*
X135580571Y-150772761D01*
X135485333Y-150677523D01*
X135437714Y-150582285D01*
X135390095Y-150391809D01*
X135390095Y-150248952D01*
X135437714Y-150058476D01*
X135485333Y-149963238D01*
X135580571Y-149868000D01*
X135723428Y-149820380D01*
X135818666Y-149820380D01*
X135961523Y-149868000D01*
X136009142Y-149915619D01*
X136390095Y-149915619D02*
X136437714Y-149868000D01*
X136532952Y-149820380D01*
X136771047Y-149820380D01*
X136866285Y-149868000D01*
X136913904Y-149915619D01*
X136961523Y-150010857D01*
X136961523Y-150106095D01*
X136913904Y-150248952D01*
X136342476Y-150820380D01*
X136961523Y-150820380D01*
X137294857Y-149820380D02*
X137961523Y-149820380D01*
X137532952Y-150820380D01*
X135983642Y-154027142D02*
X135936023Y-154074761D01*
X135793166Y-154122380D01*
X135697928Y-154122380D01*
X135555071Y-154074761D01*
X135459833Y-153979523D01*
X135412214Y-153884285D01*
X135364595Y-153693809D01*
X135364595Y-153550952D01*
X135412214Y-153360476D01*
X135459833Y-153265238D01*
X135555071Y-153170000D01*
X135697928Y-153122380D01*
X135793166Y-153122380D01*
X135936023Y-153170000D01*
X135983642Y-153217619D01*
X136364595Y-153217619D02*
X136412214Y-153170000D01*
X136507452Y-153122380D01*
X136745547Y-153122380D01*
X136840785Y-153170000D01*
X136888404Y-153217619D01*
X136936023Y-153312857D01*
X136936023Y-153408095D01*
X136888404Y-153550952D01*
X136316976Y-154122380D01*
X136936023Y-154122380D01*
X137793166Y-153122380D02*
X137602690Y-153122380D01*
X137507452Y-153170000D01*
X137459833Y-153217619D01*
X137364595Y-153360476D01*
X137316976Y-153550952D01*
X137316976Y-153931904D01*
X137364595Y-154027142D01*
X137412214Y-154074761D01*
X137507452Y-154122380D01*
X137697928Y-154122380D01*
X137793166Y-154074761D01*
X137840785Y-154027142D01*
X137888404Y-153931904D01*
X137888404Y-153693809D01*
X137840785Y-153598571D01*
X137793166Y-153550952D01*
X137697928Y-153503333D01*
X137507452Y-153503333D01*
X137412214Y-153550952D01*
X137364595Y-153598571D01*
X137316976Y-153693809D01*
X162155142Y-159138857D02*
X162202761Y-159186476D01*
X162250380Y-159329333D01*
X162250380Y-159424571D01*
X162202761Y-159567428D01*
X162107523Y-159662666D01*
X162012285Y-159710285D01*
X161821809Y-159757904D01*
X161678952Y-159757904D01*
X161488476Y-159710285D01*
X161393238Y-159662666D01*
X161298000Y-159567428D01*
X161250380Y-159424571D01*
X161250380Y-159329333D01*
X161298000Y-159186476D01*
X161345619Y-159138857D01*
X161345619Y-158757904D02*
X161298000Y-158710285D01*
X161250380Y-158615047D01*
X161250380Y-158376952D01*
X161298000Y-158281714D01*
X161345619Y-158234095D01*
X161440857Y-158186476D01*
X161536095Y-158186476D01*
X161678952Y-158234095D01*
X162250380Y-158805523D01*
X162250380Y-158186476D01*
X161250380Y-157281714D02*
X161250380Y-157757904D01*
X161726571Y-157805523D01*
X161678952Y-157757904D01*
X161631333Y-157662666D01*
X161631333Y-157424571D01*
X161678952Y-157329333D01*
X161726571Y-157281714D01*
X161821809Y-157234095D01*
X162059904Y-157234095D01*
X162155142Y-157281714D01*
X162202761Y-157329333D01*
X162250380Y-157424571D01*
X162250380Y-157662666D01*
X162202761Y-157757904D01*
X162155142Y-157805523D01*
X163933142Y-159087857D02*
X163980761Y-159135476D01*
X164028380Y-159278333D01*
X164028380Y-159373571D01*
X163980761Y-159516428D01*
X163885523Y-159611666D01*
X163790285Y-159659285D01*
X163599809Y-159706904D01*
X163456952Y-159706904D01*
X163266476Y-159659285D01*
X163171238Y-159611666D01*
X163076000Y-159516428D01*
X163028380Y-159373571D01*
X163028380Y-159278333D01*
X163076000Y-159135476D01*
X163123619Y-159087857D01*
X163123619Y-158706904D02*
X163076000Y-158659285D01*
X163028380Y-158564047D01*
X163028380Y-158325952D01*
X163076000Y-158230714D01*
X163123619Y-158183095D01*
X163218857Y-158135476D01*
X163314095Y-158135476D01*
X163456952Y-158183095D01*
X164028380Y-158754523D01*
X164028380Y-158135476D01*
X163361714Y-157278333D02*
X164028380Y-157278333D01*
X162980761Y-157516428D02*
X163695047Y-157754523D01*
X163695047Y-157135476D01*
X141606542Y-148039057D02*
X141654161Y-148086676D01*
X141701780Y-148229533D01*
X141701780Y-148324771D01*
X141654161Y-148467628D01*
X141558923Y-148562866D01*
X141463685Y-148610485D01*
X141273209Y-148658104D01*
X141130352Y-148658104D01*
X140939876Y-148610485D01*
X140844638Y-148562866D01*
X140749400Y-148467628D01*
X140701780Y-148324771D01*
X140701780Y-148229533D01*
X140749400Y-148086676D01*
X140797019Y-148039057D01*
X140797019Y-147658104D02*
X140749400Y-147610485D01*
X140701780Y-147515247D01*
X140701780Y-147277152D01*
X140749400Y-147181914D01*
X140797019Y-147134295D01*
X140892257Y-147086676D01*
X140987495Y-147086676D01*
X141130352Y-147134295D01*
X141701780Y-147705723D01*
X141701780Y-147086676D01*
X140701780Y-146753342D02*
X140701780Y-146134295D01*
X141082733Y-146467628D01*
X141082733Y-146324771D01*
X141130352Y-146229533D01*
X141177971Y-146181914D01*
X141273209Y-146134295D01*
X141511304Y-146134295D01*
X141606542Y-146181914D01*
X141654161Y-146229533D01*
X141701780Y-146324771D01*
X141701780Y-146610485D01*
X141654161Y-146705723D01*
X141606542Y-146753342D01*
X139803142Y-148216857D02*
X139850761Y-148264476D01*
X139898380Y-148407333D01*
X139898380Y-148502571D01*
X139850761Y-148645428D01*
X139755523Y-148740666D01*
X139660285Y-148788285D01*
X139469809Y-148835904D01*
X139326952Y-148835904D01*
X139136476Y-148788285D01*
X139041238Y-148740666D01*
X138946000Y-148645428D01*
X138898380Y-148502571D01*
X138898380Y-148407333D01*
X138946000Y-148264476D01*
X138993619Y-148216857D01*
X138993619Y-147835904D02*
X138946000Y-147788285D01*
X138898380Y-147693047D01*
X138898380Y-147454952D01*
X138946000Y-147359714D01*
X138993619Y-147312095D01*
X139088857Y-147264476D01*
X139184095Y-147264476D01*
X139326952Y-147312095D01*
X139898380Y-147883523D01*
X139898380Y-147264476D01*
X138993619Y-146883523D02*
X138946000Y-146835904D01*
X138898380Y-146740666D01*
X138898380Y-146502571D01*
X138946000Y-146407333D01*
X138993619Y-146359714D01*
X139088857Y-146312095D01*
X139184095Y-146312095D01*
X139326952Y-146359714D01*
X139898380Y-146931142D01*
X139898380Y-146312095D01*
X143121342Y-141009642D02*
X143073723Y-141057261D01*
X142930866Y-141104880D01*
X142835628Y-141104880D01*
X142692771Y-141057261D01*
X142597533Y-140962023D01*
X142549914Y-140866785D01*
X142502295Y-140676309D01*
X142502295Y-140533452D01*
X142549914Y-140342976D01*
X142597533Y-140247738D01*
X142692771Y-140152500D01*
X142835628Y-140104880D01*
X142930866Y-140104880D01*
X143073723Y-140152500D01*
X143121342Y-140200119D01*
X143502295Y-140200119D02*
X143549914Y-140152500D01*
X143645152Y-140104880D01*
X143883247Y-140104880D01*
X143978485Y-140152500D01*
X144026104Y-140200119D01*
X144073723Y-140295357D01*
X144073723Y-140390595D01*
X144026104Y-140533452D01*
X143454676Y-141104880D01*
X144073723Y-141104880D01*
X145026104Y-141104880D02*
X144454676Y-141104880D01*
X144740390Y-141104880D02*
X144740390Y-140104880D01*
X144645152Y-140247738D01*
X144549914Y-140342976D01*
X144454676Y-140390595D01*
X128643142Y-137009142D02*
X128595523Y-137056761D01*
X128452666Y-137104380D01*
X128357428Y-137104380D01*
X128214571Y-137056761D01*
X128119333Y-136961523D01*
X128071714Y-136866285D01*
X128024095Y-136675809D01*
X128024095Y-136532952D01*
X128071714Y-136342476D01*
X128119333Y-136247238D01*
X128214571Y-136152000D01*
X128357428Y-136104380D01*
X128452666Y-136104380D01*
X128595523Y-136152000D01*
X128643142Y-136199619D01*
X129024095Y-136199619D02*
X129071714Y-136152000D01*
X129166952Y-136104380D01*
X129405047Y-136104380D01*
X129500285Y-136152000D01*
X129547904Y-136199619D01*
X129595523Y-136294857D01*
X129595523Y-136390095D01*
X129547904Y-136532952D01*
X128976476Y-137104380D01*
X129595523Y-137104380D01*
X130214571Y-136104380D02*
X130309809Y-136104380D01*
X130405047Y-136152000D01*
X130452666Y-136199619D01*
X130500285Y-136294857D01*
X130547904Y-136485333D01*
X130547904Y-136723428D01*
X130500285Y-136913904D01*
X130452666Y-137009142D01*
X130405047Y-137056761D01*
X130309809Y-137104380D01*
X130214571Y-137104380D01*
X130119333Y-137056761D01*
X130071714Y-137009142D01*
X130024095Y-136913904D01*
X129976476Y-136723428D01*
X129976476Y-136485333D01*
X130024095Y-136294857D01*
X130071714Y-136199619D01*
X130119333Y-136152000D01*
X130214571Y-136104380D01*
X128643142Y-140819142D02*
X128595523Y-140866761D01*
X128452666Y-140914380D01*
X128357428Y-140914380D01*
X128214571Y-140866761D01*
X128119333Y-140771523D01*
X128071714Y-140676285D01*
X128024095Y-140485809D01*
X128024095Y-140342952D01*
X128071714Y-140152476D01*
X128119333Y-140057238D01*
X128214571Y-139962000D01*
X128357428Y-139914380D01*
X128452666Y-139914380D01*
X128595523Y-139962000D01*
X128643142Y-140009619D01*
X129595523Y-140914380D02*
X129024095Y-140914380D01*
X129309809Y-140914380D02*
X129309809Y-139914380D01*
X129214571Y-140057238D01*
X129119333Y-140152476D01*
X129024095Y-140200095D01*
X130071714Y-140914380D02*
X130262190Y-140914380D01*
X130357428Y-140866761D01*
X130405047Y-140819142D01*
X130500285Y-140676285D01*
X130547904Y-140485809D01*
X130547904Y-140104857D01*
X130500285Y-140009619D01*
X130452666Y-139962000D01*
X130357428Y-139914380D01*
X130166952Y-139914380D01*
X130071714Y-139962000D01*
X130024095Y-140009619D01*
X129976476Y-140104857D01*
X129976476Y-140342952D01*
X130024095Y-140438190D01*
X130071714Y-140485809D01*
X130166952Y-140533428D01*
X130357428Y-140533428D01*
X130452666Y-140485809D01*
X130500285Y-140438190D01*
X130547904Y-140342952D01*
X128643142Y-142597142D02*
X128595523Y-142644761D01*
X128452666Y-142692380D01*
X128357428Y-142692380D01*
X128214571Y-142644761D01*
X128119333Y-142549523D01*
X128071714Y-142454285D01*
X128024095Y-142263809D01*
X128024095Y-142120952D01*
X128071714Y-141930476D01*
X128119333Y-141835238D01*
X128214571Y-141740000D01*
X128357428Y-141692380D01*
X128452666Y-141692380D01*
X128595523Y-141740000D01*
X128643142Y-141787619D01*
X129595523Y-142692380D02*
X129024095Y-142692380D01*
X129309809Y-142692380D02*
X129309809Y-141692380D01*
X129214571Y-141835238D01*
X129119333Y-141930476D01*
X129024095Y-141978095D01*
X130166952Y-142120952D02*
X130071714Y-142073333D01*
X130024095Y-142025714D01*
X129976476Y-141930476D01*
X129976476Y-141882857D01*
X130024095Y-141787619D01*
X130071714Y-141740000D01*
X130166952Y-141692380D01*
X130357428Y-141692380D01*
X130452666Y-141740000D01*
X130500285Y-141787619D01*
X130547904Y-141882857D01*
X130547904Y-141930476D01*
X130500285Y-142025714D01*
X130452666Y-142073333D01*
X130357428Y-142120952D01*
X130166952Y-142120952D01*
X130071714Y-142168571D01*
X130024095Y-142216190D01*
X129976476Y-142311428D01*
X129976476Y-142501904D01*
X130024095Y-142597142D01*
X130071714Y-142644761D01*
X130166952Y-142692380D01*
X130357428Y-142692380D01*
X130452666Y-142644761D01*
X130500285Y-142597142D01*
X130547904Y-142501904D01*
X130547904Y-142311428D01*
X130500285Y-142216190D01*
X130452666Y-142168571D01*
X130357428Y-142120952D01*
X128643142Y-132437142D02*
X128595523Y-132484761D01*
X128452666Y-132532380D01*
X128357428Y-132532380D01*
X128214571Y-132484761D01*
X128119333Y-132389523D01*
X128071714Y-132294285D01*
X128024095Y-132103809D01*
X128024095Y-131960952D01*
X128071714Y-131770476D01*
X128119333Y-131675238D01*
X128214571Y-131580000D01*
X128357428Y-131532380D01*
X128452666Y-131532380D01*
X128595523Y-131580000D01*
X128643142Y-131627619D01*
X129595523Y-132532380D02*
X129024095Y-132532380D01*
X129309809Y-132532380D02*
X129309809Y-131532380D01*
X129214571Y-131675238D01*
X129119333Y-131770476D01*
X129024095Y-131818095D01*
X129928857Y-131532380D02*
X130595523Y-131532380D01*
X130166952Y-132532380D01*
X128643142Y-130659142D02*
X128595523Y-130706761D01*
X128452666Y-130754380D01*
X128357428Y-130754380D01*
X128214571Y-130706761D01*
X128119333Y-130611523D01*
X128071714Y-130516285D01*
X128024095Y-130325809D01*
X128024095Y-130182952D01*
X128071714Y-129992476D01*
X128119333Y-129897238D01*
X128214571Y-129802000D01*
X128357428Y-129754380D01*
X128452666Y-129754380D01*
X128595523Y-129802000D01*
X128643142Y-129849619D01*
X129595523Y-130754380D02*
X129024095Y-130754380D01*
X129309809Y-130754380D02*
X129309809Y-129754380D01*
X129214571Y-129897238D01*
X129119333Y-129992476D01*
X129024095Y-130040095D01*
X130452666Y-129754380D02*
X130262190Y-129754380D01*
X130166952Y-129802000D01*
X130119333Y-129849619D01*
X130024095Y-129992476D01*
X129976476Y-130182952D01*
X129976476Y-130563904D01*
X130024095Y-130659142D01*
X130071714Y-130706761D01*
X130166952Y-130754380D01*
X130357428Y-130754380D01*
X130452666Y-130706761D01*
X130500285Y-130659142D01*
X130547904Y-130563904D01*
X130547904Y-130325809D01*
X130500285Y-130230571D01*
X130452666Y-130182952D01*
X130357428Y-130135333D01*
X130166952Y-130135333D01*
X130071714Y-130182952D01*
X130024095Y-130230571D01*
X129976476Y-130325809D01*
X125595142Y-125198142D02*
X125547523Y-125245761D01*
X125404666Y-125293380D01*
X125309428Y-125293380D01*
X125166571Y-125245761D01*
X125071333Y-125150523D01*
X125023714Y-125055285D01*
X124976095Y-124864809D01*
X124976095Y-124721952D01*
X125023714Y-124531476D01*
X125071333Y-124436238D01*
X125166571Y-124341000D01*
X125309428Y-124293380D01*
X125404666Y-124293380D01*
X125547523Y-124341000D01*
X125595142Y-124388619D01*
X126547523Y-125293380D02*
X125976095Y-125293380D01*
X126261809Y-125293380D02*
X126261809Y-124293380D01*
X126166571Y-124436238D01*
X126071333Y-124531476D01*
X125976095Y-124579095D01*
X127452285Y-124293380D02*
X126976095Y-124293380D01*
X126928476Y-124769571D01*
X126976095Y-124721952D01*
X127071333Y-124674333D01*
X127309428Y-124674333D01*
X127404666Y-124721952D01*
X127452285Y-124769571D01*
X127499904Y-124864809D01*
X127499904Y-125102904D01*
X127452285Y-125198142D01*
X127404666Y-125245761D01*
X127309428Y-125293380D01*
X127071333Y-125293380D01*
X126976095Y-125245761D01*
X126928476Y-125198142D01*
X148175642Y-144789142D02*
X148128023Y-144836761D01*
X147985166Y-144884380D01*
X147889928Y-144884380D01*
X147747071Y-144836761D01*
X147651833Y-144741523D01*
X147604214Y-144646285D01*
X147556595Y-144455809D01*
X147556595Y-144312952D01*
X147604214Y-144122476D01*
X147651833Y-144027238D01*
X147747071Y-143932000D01*
X147889928Y-143884380D01*
X147985166Y-143884380D01*
X148128023Y-143932000D01*
X148175642Y-143979619D01*
X149128023Y-144884380D02*
X148556595Y-144884380D01*
X148842309Y-144884380D02*
X148842309Y-143884380D01*
X148747071Y-144027238D01*
X148651833Y-144122476D01*
X148556595Y-144170095D01*
X149985166Y-144217714D02*
X149985166Y-144884380D01*
X149747071Y-143836761D02*
X149508976Y-144551047D01*
X150128023Y-144551047D01*
X149191642Y-132183142D02*
X149144023Y-132230761D01*
X149001166Y-132278380D01*
X148905928Y-132278380D01*
X148763071Y-132230761D01*
X148667833Y-132135523D01*
X148620214Y-132040285D01*
X148572595Y-131849809D01*
X148572595Y-131706952D01*
X148620214Y-131516476D01*
X148667833Y-131421238D01*
X148763071Y-131326000D01*
X148905928Y-131278380D01*
X149001166Y-131278380D01*
X149144023Y-131326000D01*
X149191642Y-131373619D01*
X150144023Y-132278380D02*
X149572595Y-132278380D01*
X149858309Y-132278380D02*
X149858309Y-131278380D01*
X149763071Y-131421238D01*
X149667833Y-131516476D01*
X149572595Y-131564095D01*
X150477357Y-131278380D02*
X151096404Y-131278380D01*
X150763071Y-131659333D01*
X150905928Y-131659333D01*
X151001166Y-131706952D01*
X151048785Y-131754571D01*
X151096404Y-131849809D01*
X151096404Y-132087904D01*
X151048785Y-132183142D01*
X151001166Y-132230761D01*
X150905928Y-132278380D01*
X150620214Y-132278380D01*
X150524976Y-132230761D01*
X150477357Y-132183142D01*
X156440142Y-142628857D02*
X156487761Y-142676476D01*
X156535380Y-142819333D01*
X156535380Y-142914571D01*
X156487761Y-143057428D01*
X156392523Y-143152666D01*
X156297285Y-143200285D01*
X156106809Y-143247904D01*
X155963952Y-143247904D01*
X155773476Y-143200285D01*
X155678238Y-143152666D01*
X155583000Y-143057428D01*
X155535380Y-142914571D01*
X155535380Y-142819333D01*
X155583000Y-142676476D01*
X155630619Y-142628857D01*
X156535380Y-141676476D02*
X156535380Y-142247904D01*
X156535380Y-141962190D02*
X155535380Y-141962190D01*
X155678238Y-142057428D01*
X155773476Y-142152666D01*
X155821095Y-142247904D01*
X155630619Y-141295523D02*
X155583000Y-141247904D01*
X155535380Y-141152666D01*
X155535380Y-140914571D01*
X155583000Y-140819333D01*
X155630619Y-140771714D01*
X155725857Y-140724095D01*
X155821095Y-140724095D01*
X155963952Y-140771714D01*
X156535380Y-141343142D01*
X156535380Y-140724095D01*
X158218142Y-142577857D02*
X158265761Y-142625476D01*
X158313380Y-142768333D01*
X158313380Y-142863571D01*
X158265761Y-143006428D01*
X158170523Y-143101666D01*
X158075285Y-143149285D01*
X157884809Y-143196904D01*
X157741952Y-143196904D01*
X157551476Y-143149285D01*
X157456238Y-143101666D01*
X157361000Y-143006428D01*
X157313380Y-142863571D01*
X157313380Y-142768333D01*
X157361000Y-142625476D01*
X157408619Y-142577857D01*
X158313380Y-141625476D02*
X158313380Y-142196904D01*
X158313380Y-141911190D02*
X157313380Y-141911190D01*
X157456238Y-142006428D01*
X157551476Y-142101666D01*
X157599095Y-142196904D01*
X158313380Y-140673095D02*
X158313380Y-141244523D01*
X158313380Y-140958809D02*
X157313380Y-140958809D01*
X157456238Y-141054047D01*
X157551476Y-141149285D01*
X157599095Y-141244523D01*
X163695142Y-147423142D02*
X163647523Y-147470761D01*
X163504666Y-147518380D01*
X163409428Y-147518380D01*
X163266571Y-147470761D01*
X163171333Y-147375523D01*
X163123714Y-147280285D01*
X163076095Y-147089809D01*
X163076095Y-146946952D01*
X163123714Y-146756476D01*
X163171333Y-146661238D01*
X163266571Y-146566000D01*
X163409428Y-146518380D01*
X163504666Y-146518380D01*
X163647523Y-146566000D01*
X163695142Y-146613619D01*
X164647523Y-147518380D02*
X164076095Y-147518380D01*
X164361809Y-147518380D02*
X164361809Y-146518380D01*
X164266571Y-146661238D01*
X164171333Y-146756476D01*
X164076095Y-146804095D01*
X165266571Y-146518380D02*
X165361809Y-146518380D01*
X165457047Y-146566000D01*
X165504666Y-146613619D01*
X165552285Y-146708857D01*
X165599904Y-146899333D01*
X165599904Y-147137428D01*
X165552285Y-147327904D01*
X165504666Y-147423142D01*
X165457047Y-147470761D01*
X165361809Y-147518380D01*
X165266571Y-147518380D01*
X165171333Y-147470761D01*
X165123714Y-147423142D01*
X165076095Y-147327904D01*
X165028476Y-147137428D01*
X165028476Y-146899333D01*
X165076095Y-146708857D01*
X165123714Y-146613619D01*
X165171333Y-146566000D01*
X165266571Y-146518380D01*
X166711333Y-150725142D02*
X166663714Y-150772761D01*
X166520857Y-150820380D01*
X166425619Y-150820380D01*
X166282761Y-150772761D01*
X166187523Y-150677523D01*
X166139904Y-150582285D01*
X166092285Y-150391809D01*
X166092285Y-150248952D01*
X166139904Y-150058476D01*
X166187523Y-149963238D01*
X166282761Y-149868000D01*
X166425619Y-149820380D01*
X166520857Y-149820380D01*
X166663714Y-149868000D01*
X166711333Y-149915619D01*
X167187523Y-150820380D02*
X167378000Y-150820380D01*
X167473238Y-150772761D01*
X167520857Y-150725142D01*
X167616095Y-150582285D01*
X167663714Y-150391809D01*
X167663714Y-150010857D01*
X167616095Y-149915619D01*
X167568476Y-149868000D01*
X167473238Y-149820380D01*
X167282761Y-149820380D01*
X167187523Y-149868000D01*
X167139904Y-149915619D01*
X167092285Y-150010857D01*
X167092285Y-150248952D01*
X167139904Y-150344190D01*
X167187523Y-150391809D01*
X167282761Y-150439428D01*
X167473238Y-150439428D01*
X167568476Y-150391809D01*
X167616095Y-150344190D01*
X167663714Y-150248952D01*
X162409142Y-155614666D02*
X162456761Y-155662285D01*
X162504380Y-155805142D01*
X162504380Y-155900380D01*
X162456761Y-156043238D01*
X162361523Y-156138476D01*
X162266285Y-156186095D01*
X162075809Y-156233714D01*
X161932952Y-156233714D01*
X161742476Y-156186095D01*
X161647238Y-156138476D01*
X161552000Y-156043238D01*
X161504380Y-155900380D01*
X161504380Y-155805142D01*
X161552000Y-155662285D01*
X161599619Y-155614666D01*
X161932952Y-155043238D02*
X161885333Y-155138476D01*
X161837714Y-155186095D01*
X161742476Y-155233714D01*
X161694857Y-155233714D01*
X161599619Y-155186095D01*
X161552000Y-155138476D01*
X161504380Y-155043238D01*
X161504380Y-154852761D01*
X161552000Y-154757523D01*
X161599619Y-154709904D01*
X161694857Y-154662285D01*
X161742476Y-154662285D01*
X161837714Y-154709904D01*
X161885333Y-154757523D01*
X161932952Y-154852761D01*
X161932952Y-155043238D01*
X161980571Y-155138476D01*
X162028190Y-155186095D01*
X162123428Y-155233714D01*
X162313904Y-155233714D01*
X162409142Y-155186095D01*
X162456761Y-155138476D01*
X162504380Y-155043238D01*
X162504380Y-154852761D01*
X162456761Y-154757523D01*
X162409142Y-154709904D01*
X162313904Y-154662285D01*
X162123428Y-154662285D01*
X162028190Y-154709904D01*
X161980571Y-154757523D01*
X161932952Y-154852761D01*
X165711142Y-157392666D02*
X165758761Y-157440285D01*
X165806380Y-157583142D01*
X165806380Y-157678380D01*
X165758761Y-157821238D01*
X165663523Y-157916476D01*
X165568285Y-157964095D01*
X165377809Y-158011714D01*
X165234952Y-158011714D01*
X165044476Y-157964095D01*
X164949238Y-157916476D01*
X164854000Y-157821238D01*
X164806380Y-157678380D01*
X164806380Y-157583142D01*
X164854000Y-157440285D01*
X164901619Y-157392666D01*
X164806380Y-157059333D02*
X164806380Y-156392666D01*
X165806380Y-156821238D01*
X172045333Y-150725142D02*
X171997714Y-150772761D01*
X171854857Y-150820380D01*
X171759619Y-150820380D01*
X171616761Y-150772761D01*
X171521523Y-150677523D01*
X171473904Y-150582285D01*
X171426285Y-150391809D01*
X171426285Y-150248952D01*
X171473904Y-150058476D01*
X171521523Y-149963238D01*
X171616761Y-149868000D01*
X171759619Y-149820380D01*
X171854857Y-149820380D01*
X171997714Y-149868000D01*
X172045333Y-149915619D01*
X172902476Y-149820380D02*
X172712000Y-149820380D01*
X172616761Y-149868000D01*
X172569142Y-149915619D01*
X172473904Y-150058476D01*
X172426285Y-150248952D01*
X172426285Y-150629904D01*
X172473904Y-150725142D01*
X172521523Y-150772761D01*
X172616761Y-150820380D01*
X172807238Y-150820380D01*
X172902476Y-150772761D01*
X172950095Y-150725142D01*
X172997714Y-150629904D01*
X172997714Y-150391809D01*
X172950095Y-150296571D01*
X172902476Y-150248952D01*
X172807238Y-150201333D01*
X172616761Y-150201333D01*
X172521523Y-150248952D01*
X172473904Y-150296571D01*
X172426285Y-150391809D01*
X166457333Y-136755142D02*
X166409714Y-136802761D01*
X166266857Y-136850380D01*
X166171619Y-136850380D01*
X166028761Y-136802761D01*
X165933523Y-136707523D01*
X165885904Y-136612285D01*
X165838285Y-136421809D01*
X165838285Y-136278952D01*
X165885904Y-136088476D01*
X165933523Y-135993238D01*
X166028761Y-135898000D01*
X166171619Y-135850380D01*
X166266857Y-135850380D01*
X166409714Y-135898000D01*
X166457333Y-135945619D01*
X167314476Y-136183714D02*
X167314476Y-136850380D01*
X167076380Y-135802761D02*
X166838285Y-136517047D01*
X167457333Y-136517047D01*
X172045333Y-136755142D02*
X171997714Y-136802761D01*
X171854857Y-136850380D01*
X171759619Y-136850380D01*
X171616761Y-136802761D01*
X171521523Y-136707523D01*
X171473904Y-136612285D01*
X171426285Y-136421809D01*
X171426285Y-136278952D01*
X171473904Y-136088476D01*
X171521523Y-135993238D01*
X171616761Y-135898000D01*
X171759619Y-135850380D01*
X171854857Y-135850380D01*
X171997714Y-135898000D01*
X172045333Y-135945619D01*
X172378666Y-135850380D02*
X172997714Y-135850380D01*
X172664380Y-136231333D01*
X172807238Y-136231333D01*
X172902476Y-136278952D01*
X172950095Y-136326571D01*
X172997714Y-136421809D01*
X172997714Y-136659904D01*
X172950095Y-136755142D01*
X172902476Y-136802761D01*
X172807238Y-136850380D01*
X172521523Y-136850380D01*
X172426285Y-136802761D01*
X172378666Y-136755142D01*
X171283333Y-126341142D02*
X171235714Y-126388761D01*
X171092857Y-126436380D01*
X170997619Y-126436380D01*
X170854761Y-126388761D01*
X170759523Y-126293523D01*
X170711904Y-126198285D01*
X170664285Y-126007809D01*
X170664285Y-125864952D01*
X170711904Y-125674476D01*
X170759523Y-125579238D01*
X170854761Y-125484000D01*
X170997619Y-125436380D01*
X171092857Y-125436380D01*
X171235714Y-125484000D01*
X171283333Y-125531619D01*
X171664285Y-125531619D02*
X171711904Y-125484000D01*
X171807142Y-125436380D01*
X172045238Y-125436380D01*
X172140476Y-125484000D01*
X172188095Y-125531619D01*
X172235714Y-125626857D01*
X172235714Y-125722095D01*
X172188095Y-125864952D01*
X171616666Y-126436380D01*
X172235714Y-126436380D01*
X171283333Y-121515142D02*
X171235714Y-121562761D01*
X171092857Y-121610380D01*
X170997619Y-121610380D01*
X170854761Y-121562761D01*
X170759523Y-121467523D01*
X170711904Y-121372285D01*
X170664285Y-121181809D01*
X170664285Y-121038952D01*
X170711904Y-120848476D01*
X170759523Y-120753238D01*
X170854761Y-120658000D01*
X170997619Y-120610380D01*
X171092857Y-120610380D01*
X171235714Y-120658000D01*
X171283333Y-120705619D01*
X172235714Y-121610380D02*
X171664285Y-121610380D01*
X171950000Y-121610380D02*
X171950000Y-120610380D01*
X171854761Y-120753238D01*
X171759523Y-120848476D01*
X171664285Y-120896095D01*
M02*
