M48
; DRILL file {KiCad (5.1.4)-1} date 1/15/2020 2:02:09 PM
; FORMAT={-:-/ absolute / inch / decimal}
; #@! TF.CreationDate,2020-01-15T14:02:09-05:00
; #@! TF.GenerationSoftware,Kicad,Pcbnew,(5.1.4)-1
; #@! TF.FileFunction,Plated,1,4,PTH
FMAT,2
INCH
T1C0.0150
T2C0.0197
T3C0.0394
%
G90
G05
T1
X4.72Y-5.46
X4.749Y-5.06
X4.775Y-4.755
X4.82Y-5.01
X4.87Y-5.055
X4.935Y-4.215
X4.99Y-4.575
X5.0Y-5.32
X5.0Y-5.65
X5.12Y-5.0
X5.175Y-6.05
X5.275Y-4.1
X5.3173Y-4.8623
X5.3173Y-4.8323
X5.33Y-4.605
X5.395Y-3.755
X5.435Y-4.88
X5.443Y-5.667
X5.45Y-4.03
X5.45Y-4.24
X5.5Y-6.11
X5.51Y-4.57
X5.51Y-5.533
X5.56Y-4.57
X5.59Y-5.98
X5.595Y-5.29
X5.61Y-4.68
X5.6152Y-4.011
X5.66Y-4.04
X5.66Y-4.57
X5.675Y-6.23
X5.68Y-5.64
X5.69Y-5.91
X5.789Y-5.329
X5.79Y-5.48
X5.79Y-6.0
X5.81Y-4.57
X5.82Y-5.57
X5.8205Y-5.4801
X5.8206Y-5.4205
X5.8207Y-5.5407
X5.821Y-5.3945
X5.83Y-5.68
X5.845Y-3.66
X5.85Y-3.8
X5.86Y-4.57
X5.89Y-5.31
X5.93Y-5.195
X5.95Y-5.31
X5.95Y-5.59
X5.96Y-6.37
X5.965Y-4.48
X5.984Y-5.25
X6.01Y-4.82
X6.02Y-5.311
X6.055Y-5.59
X6.0603Y-5.3111
X6.08Y-5.56
X6.09Y-4.82
X6.1003Y-5.4597
X6.105Y-3.845
X6.131Y-3.9
X6.15Y-5.322
X6.1572Y-4.3049
X6.285Y-5.35
X6.29Y-5.5
X6.295Y-5.89
X6.32Y-4.025
X6.42Y-4.81
X6.44Y-4.59
X6.44Y-5.525
X6.485Y-5.335
X6.49Y-4.39
X6.5Y-6.36
X6.51Y-6.28
X6.53Y-5.7
X6.575Y-5.865
X6.59Y-4.83
X6.61Y-4.67
X6.64Y-5.04
X6.65Y-3.84
X6.65Y-5.02
X6.69Y-4.67
X6.71Y-4.73
X6.72Y-3.735
X6.7405Y-5.0395
X6.77Y-5.36
X6.81Y-5.56
X6.845Y-5.3
X6.86Y-4.075
X6.9Y-4.365
X6.945Y-4.95
X6.95Y-5.09
X6.995Y-5.93
X7.0Y-5.35
X7.095Y-4.675
X7.095Y-5.505
X7.27Y-4.515
X7.315Y-5.425
T2
X5.525Y-4.973
X5.525Y-5.0293
X5.575Y-4.973
X5.575Y-5.0293
X5.625Y-4.973
X5.625Y-5.0293
X5.675Y-4.973
X5.675Y-5.0293
X5.725Y-4.973
X5.725Y-5.0293
X5.775Y-4.973
X5.775Y-5.0293
X5.825Y-4.973
X5.825Y-5.0293
X5.875Y-4.973
X5.875Y-5.0293
X5.925Y-4.973
X5.925Y-5.0293
X5.975Y-4.973
X5.975Y-5.0293
X6.025Y-4.973
X6.025Y-5.0293
X6.075Y-4.973
X6.075Y-5.0293
X6.125Y-4.973
X6.125Y-5.0293
X6.175Y-4.973
X6.175Y-5.0293
X6.225Y-4.973
X6.225Y-5.0293
X6.275Y-4.973
X6.275Y-5.0293
X6.325Y-4.973
X6.325Y-5.0293
X6.375Y-4.973
X6.375Y-5.0293
X6.425Y-4.973
X6.425Y-5.0293
X6.475Y-4.973
X6.475Y-5.0293
T3
X4.65Y-4.75
X4.65Y-4.85
X4.65Y-4.95
X4.65Y-5.05
X4.65Y-5.15
X4.65Y-5.25
T0
M30
