solid
 facet normal  0.000000e+00  1.000000e+00 -0.000000e+00
   outer loop
     vertex  3.430000e+00  3.430000e+00  1.000000e-01
     vertex -3.430000e+00  3.430000e+00  1.000000e-01
     vertex -3.430000e+00  3.430000e+00  9.470000e+00
   endloop
 endfacet
 facet normal  0.000000e+00  1.000000e+00 -0.000000e+00
   outer loop
     vertex  3.430000e+00  3.430000e+00  1.000000e-01
     vertex -3.430000e+00  3.430000e+00  9.470000e+00
     vertex  3.430000e+00  3.430000e+00  9.470000e+00
   endloop
 endfacet
 facet normal  1.000000e+00  0.000000e+00  0.000000e+00
   outer loop
     vertex  3.430000e+00 -3.430000e+00  1.000000e-01
     vertex  3.430000e+00  3.430000e+00  1.000000e-01
     vertex  3.430000e+00  3.430000e+00  9.470000e+00
   endloop
 endfacet
 facet normal  1.000000e+00  0.000000e+00 -0.000000e+00
   outer loop
     vertex  3.430000e+00 -3.430000e+00  1.000000e-01
     vertex  3.430000e+00  3.430000e+00  9.470000e+00
     vertex  3.430000e+00 -3.430000e+00  9.470000e+00
   endloop
 endfacet
 facet normal  0.000000e+00 -1.000000e+00  0.000000e+00
   outer loop
     vertex -3.430000e+00 -3.430000e+00  1.000000e-01
     vertex  3.430000e+00 -3.430000e+00  1.000000e-01
     vertex  3.430000e+00 -3.430000e+00  9.470000e+00
   endloop
 endfacet
 facet normal  0.000000e+00 -1.000000e+00  0.000000e+00
   outer loop
     vertex -3.430000e+00 -3.430000e+00  1.000000e-01
     vertex  3.430000e+00 -3.430000e+00  9.470000e+00
     vertex -3.430000e+00 -3.430000e+00  9.470000e+00
   endloop
 endfacet
 facet normal -1.000000e+00  0.000000e+00  0.000000e+00
   outer loop
     vertex -3.430000e+00  3.430000e+00  1.000000e-01
     vertex -3.430000e+00 -3.430000e+00  1.000000e-01
     vertex -3.430000e+00 -3.430000e+00  9.470000e+00
   endloop
 endfacet
 facet normal -1.000000e+00  0.000000e+00  0.000000e+00
   outer loop
     vertex -3.430000e+00  3.430000e+00  1.000000e-01
     vertex -3.430000e+00 -3.430000e+00  9.470000e+00
     vertex -3.430000e+00  3.430000e+00  9.470000e+00
   endloop
 endfacet
 facet normal  0.000000e+00  0.000000e+00 -1.000000e+00
   outer loop
     vertex -3.430000e+00 -3.430000e+00  1.000000e-01
     vertex -3.430000e+00  3.430000e+00  1.000000e-01
     vertex  3.430000e+00 -3.430000e+00  1.000000e-01
   endloop
 endfacet
 facet normal  0.000000e+00  0.000000e+00 -1.000000e+00
   outer loop
     vertex  3.430000e+00 -3.430000e+00  1.000000e-01
     vertex -3.430000e+00  3.430000e+00  1.000000e-01
     vertex  3.430000e+00  3.430000e+00  1.000000e-01
   endloop
 endfacet
 facet normal  0.000000e+00  0.000000e+00  1.000000e+00
   outer loop
     vertex  3.430000e+00 -3.430000e+00  9.470000e+00
     vertex -3.430000e+00  3.430000e+00  9.470000e+00
     vertex -3.430000e+00 -3.430000e+00  9.470000e+00
   endloop
 endfacet
 facet normal  0.000000e+00  0.000000e+00  1.000000e+00
   outer loop
     vertex  3.430000e+00  3.430000e+00  9.470000e+00
     vertex -3.430000e+00  3.430000e+00  9.470000e+00
     vertex  3.430000e+00 -3.430000e+00  9.470000e+00
   endloop
 endfacet
 facet normal -1.000000e+00 -0.000000e+00 -0.000000e+00
   outer loop
     vertex  9.920000e-01 -3.557000e+00  1.000000e-01
     vertex  9.920000e-01 -3.557000e+00  0.000000e+00
     vertex  9.920000e-01 -5.843000e+00  1.000000e-01
   endloop
 endfacet
 facet normal -1.000000e+00  0.000000e+00  0.000000e+00
   outer loop
     vertex  9.920000e-01 -3.557000e+00  0.000000e+00
     vertex  9.920000e-01 -5.843000e+00  0.000000e+00
     vertex  9.920000e-01 -5.843000e+00  1.000000e-01
   endloop
 endfacet
 facet normal  1.000000e+00 -0.000000e+00  0.000000e+00
   outer loop
     vertex  2.008000e+00 -5.843000e+00  1.000000e-01
     vertex  2.008000e+00 -3.557000e+00  0.000000e+00
     vertex  2.008000e+00 -3.557000e+00  1.000000e-01
   endloop
 endfacet
 facet normal  1.000000e+00 -0.000000e+00  0.000000e+00
   outer loop
     vertex  2.008000e+00 -5.843000e+00  1.000000e-01
     vertex  2.008000e+00 -5.843000e+00  0.000000e+00
     vertex  2.008000e+00 -3.557000e+00  0.000000e+00
   endloop
 endfacet
 facet normal  0.000000e+00 -1.000000e+00  0.000000e+00
   outer loop
     vertex  9.920000e-01 -5.843000e+00  0.000000e+00
     vertex  2.008000e+00 -5.843000e+00  0.000000e+00
     vertex  2.008000e+00 -5.843000e+00  1.000000e-01
   endloop
 endfacet
 facet normal  0.000000e+00 -1.000000e+00  0.000000e+00
   outer loop
     vertex  9.920000e-01 -5.843000e+00  1.000000e-01
     vertex  9.920000e-01 -5.843000e+00  0.000000e+00
     vertex  2.008000e+00 -5.843000e+00  1.000000e-01
   endloop
 endfacet
 facet normal  0.000000e+00  1.000000e+00  0.000000e+00
   outer loop
     vertex  2.008000e+00 -3.557000e+00  1.000000e-01
     vertex  2.008000e+00 -3.557000e+00  0.000000e+00
     vertex  9.920000e-01 -3.557000e+00  0.000000e+00
   endloop
 endfacet
 facet normal  0.000000e+00  1.000000e+00 -0.000000e+00
   outer loop
     vertex  2.008000e+00 -3.557000e+00  1.000000e-01
     vertex  9.920000e-01 -3.557000e+00  0.000000e+00
     vertex  9.920000e-01 -3.557000e+00  1.000000e-01
   endloop
 endfacet
 facet normal  0.000000e+00  0.000000e+00 -1.000000e+00
   outer loop
     vertex  9.920000e-01 -5.843000e+00  0.000000e+00
     vertex  9.920000e-01 -3.557000e+00  0.000000e+00
     vertex  2.008000e+00 -3.557000e+00  0.000000e+00
   endloop
 endfacet
 facet normal  0.000000e+00  0.000000e+00 -1.000000e+00
   outer loop
     vertex  2.008000e+00 -5.843000e+00  0.000000e+00
     vertex  9.920000e-01 -5.843000e+00  0.000000e+00
     vertex  2.008000e+00 -3.557000e+00  0.000000e+00
   endloop
 endfacet
 facet normal  0.000000e+00  0.000000e+00  1.000000e+00
   outer loop
     vertex  2.008000e+00 -3.557000e+00  1.000000e-01
     vertex  9.920000e-01 -3.557000e+00  1.000000e-01
     vertex  9.920000e-01 -5.843000e+00  1.000000e-01
   endloop
 endfacet
 facet normal -0.000000e+00  0.000000e+00  1.000000e+00
   outer loop
     vertex  2.008000e+00 -3.557000e+00  1.000000e-01
     vertex  9.920000e-01 -5.843000e+00  1.000000e-01
     vertex  2.008000e+00 -5.843000e+00  1.000000e-01
   endloop
 endfacet
 facet normal -1.000000e+00 -0.000000e+00 -0.000000e+00
   outer loop
     vertex  9.920000e-01  5.843000e+00  1.000000e-01
     vertex  9.920000e-01  5.843000e+00  0.000000e+00
     vertex  9.920000e-01  3.557000e+00  1.000000e-01
   endloop
 endfacet
 facet normal -1.000000e+00  0.000000e+00  0.000000e+00
   outer loop
     vertex  9.920000e-01  5.843000e+00  0.000000e+00
     vertex  9.920000e-01  3.557000e+00  0.000000e+00
     vertex  9.920000e-01  3.557000e+00  1.000000e-01
   endloop
 endfacet
 facet normal  1.000000e+00 -0.000000e+00  0.000000e+00
   outer loop
     vertex  2.008000e+00  3.557000e+00  1.000000e-01
     vertex  2.008000e+00  5.843000e+00  0.000000e+00
     vertex  2.008000e+00  5.843000e+00  1.000000e-01
   endloop
 endfacet
 facet normal  1.000000e+00 -0.000000e+00  0.000000e+00
   outer loop
     vertex  2.008000e+00  3.557000e+00  1.000000e-01
     vertex  2.008000e+00  3.557000e+00  0.000000e+00
     vertex  2.008000e+00  5.843000e+00  0.000000e+00
   endloop
 endfacet
 facet normal  0.000000e+00 -1.000000e+00  0.000000e+00
   outer loop
     vertex  9.920000e-01  3.557000e+00  0.000000e+00
     vertex  2.008000e+00  3.557000e+00  0.000000e+00
     vertex  2.008000e+00  3.557000e+00  1.000000e-01
   endloop
 endfacet
 facet normal  0.000000e+00 -1.000000e+00  0.000000e+00
   outer loop
     vertex  9.920000e-01  3.557000e+00  1.000000e-01
     vertex  9.920000e-01  3.557000e+00  0.000000e+00
     vertex  2.008000e+00  3.557000e+00  1.000000e-01
   endloop
 endfacet
 facet normal  0.000000e+00  1.000000e+00  0.000000e+00
   outer loop
     vertex  2.008000e+00  5.843000e+00  1.000000e-01
     vertex  2.008000e+00  5.843000e+00  0.000000e+00
     vertex  9.920000e-01  5.843000e+00  0.000000e+00
   endloop
 endfacet
 facet normal  0.000000e+00  1.000000e+00 -0.000000e+00
   outer loop
     vertex  2.008000e+00  5.843000e+00  1.000000e-01
     vertex  9.920000e-01  5.843000e+00  0.000000e+00
     vertex  9.920000e-01  5.843000e+00  1.000000e-01
   endloop
 endfacet
 facet normal  0.000000e+00  0.000000e+00 -1.000000e+00
   outer loop
     vertex  2.008000e+00  3.557000e+00  0.000000e+00
     vertex  9.920000e-01  3.557000e+00  0.000000e+00
     vertex  9.920000e-01  5.843000e+00  0.000000e+00
   endloop
 endfacet
 facet normal  0.000000e+00  0.000000e+00 -1.000000e+00
   outer loop
     vertex  2.008000e+00  3.557000e+00  0.000000e+00
     vertex  9.920000e-01  5.843000e+00  0.000000e+00
     vertex  2.008000e+00  5.843000e+00  0.000000e+00
   endloop
 endfacet
 facet normal -0.000000e+00  0.000000e+00  1.000000e+00
   outer loop
     vertex  9.920000e-01  5.843000e+00  1.000000e-01
     vertex  9.920000e-01  3.557000e+00  1.000000e-01
     vertex  2.008000e+00  3.557000e+00  1.000000e-01
   endloop
 endfacet
 facet normal  0.000000e+00  0.000000e+00  1.000000e+00
   outer loop
     vertex  2.008000e+00  5.843000e+00  1.000000e-01
     vertex  9.920000e-01  5.843000e+00  1.000000e-01
     vertex  2.008000e+00  3.557000e+00  1.000000e-01
   endloop
 endfacet
 facet normal -1.000000e+00 -0.000000e+00 -0.000000e+00
   outer loop
     vertex -2.008000e+00 -3.557000e+00  1.000000e-01
     vertex -2.008000e+00 -3.557000e+00  0.000000e+00
     vertex -2.008000e+00 -5.843000e+00  1.000000e-01
   endloop
 endfacet
 facet normal -1.000000e+00  0.000000e+00  0.000000e+00
   outer loop
     vertex -2.008000e+00 -3.557000e+00  0.000000e+00
     vertex -2.008000e+00 -5.843000e+00  0.000000e+00
     vertex -2.008000e+00 -5.843000e+00  1.000000e-01
   endloop
 endfacet
 facet normal  1.000000e+00 -0.000000e+00  0.000000e+00
   outer loop
     vertex -9.920000e-01 -5.843000e+00  1.000000e-01
     vertex -9.920000e-01 -3.557000e+00  0.000000e+00
     vertex -9.920000e-01 -3.557000e+00  1.000000e-01
   endloop
 endfacet
 facet normal  1.000000e+00 -0.000000e+00  0.000000e+00
   outer loop
     vertex -9.920000e-01 -5.843000e+00  1.000000e-01
     vertex -9.920000e-01 -5.843000e+00  0.000000e+00
     vertex -9.920000e-01 -3.557000e+00  0.000000e+00
   endloop
 endfacet
 facet normal  0.000000e+00 -1.000000e+00  0.000000e+00
   outer loop
     vertex -2.008000e+00 -5.843000e+00  0.000000e+00
     vertex -9.920000e-01 -5.843000e+00  0.000000e+00
     vertex -9.920000e-01 -5.843000e+00  1.000000e-01
   endloop
 endfacet
 facet normal  0.000000e+00 -1.000000e+00  0.000000e+00
   outer loop
     vertex -2.008000e+00 -5.843000e+00  1.000000e-01
     vertex -2.008000e+00 -5.843000e+00  0.000000e+00
     vertex -9.920000e-01 -5.843000e+00  1.000000e-01
   endloop
 endfacet
 facet normal  0.000000e+00  1.000000e+00  0.000000e+00
   outer loop
     vertex -9.920000e-01 -3.557000e+00  1.000000e-01
     vertex -9.920000e-01 -3.557000e+00  0.000000e+00
     vertex -2.008000e+00 -3.557000e+00  0.000000e+00
   endloop
 endfacet
 facet normal  0.000000e+00  1.000000e+00 -0.000000e+00
   outer loop
     vertex -9.920000e-01 -3.557000e+00  1.000000e-01
     vertex -2.008000e+00 -3.557000e+00  0.000000e+00
     vertex -2.008000e+00 -3.557000e+00  1.000000e-01
   endloop
 endfacet
 facet normal  0.000000e+00  0.000000e+00 -1.000000e+00
   outer loop
     vertex -2.008000e+00 -5.843000e+00  0.000000e+00
     vertex -2.008000e+00 -3.557000e+00  0.000000e+00
     vertex -9.920000e-01 -3.557000e+00  0.000000e+00
   endloop
 endfacet
 facet normal  0.000000e+00  0.000000e+00 -1.000000e+00
   outer loop
     vertex -9.920000e-01 -5.843000e+00  0.000000e+00
     vertex -2.008000e+00 -5.843000e+00  0.000000e+00
     vertex -9.920000e-01 -3.557000e+00  0.000000e+00
   endloop
 endfacet
 facet normal  0.000000e+00  0.000000e+00  1.000000e+00
   outer loop
     vertex -9.920000e-01 -3.557000e+00  1.000000e-01
     vertex -2.008000e+00 -3.557000e+00  1.000000e-01
     vertex -2.008000e+00 -5.843000e+00  1.000000e-01
   endloop
 endfacet
 facet normal -0.000000e+00  0.000000e+00  1.000000e+00
   outer loop
     vertex -9.920000e-01 -3.557000e+00  1.000000e-01
     vertex -2.008000e+00 -5.843000e+00  1.000000e-01
     vertex -9.920000e-01 -5.843000e+00  1.000000e-01
   endloop
 endfacet
 facet normal -1.000000e+00 -0.000000e+00 -0.000000e+00
   outer loop
     vertex -2.008000e+00  5.843000e+00  1.000000e-01
     vertex -2.008000e+00  5.843000e+00  0.000000e+00
     vertex -2.008000e+00  3.557000e+00  1.000000e-01
   endloop
 endfacet
 facet normal -1.000000e+00  0.000000e+00  0.000000e+00
   outer loop
     vertex -2.008000e+00  5.843000e+00  0.000000e+00
     vertex -2.008000e+00  3.557000e+00  0.000000e+00
     vertex -2.008000e+00  3.557000e+00  1.000000e-01
   endloop
 endfacet
 facet normal  1.000000e+00 -0.000000e+00  0.000000e+00
   outer loop
     vertex -9.920000e-01  3.557000e+00  1.000000e-01
     vertex -9.920000e-01  5.843000e+00  0.000000e+00
     vertex -9.920000e-01  5.843000e+00  1.000000e-01
   endloop
 endfacet
 facet normal  1.000000e+00 -0.000000e+00  0.000000e+00
   outer loop
     vertex -9.920000e-01  3.557000e+00  1.000000e-01
     vertex -9.920000e-01  3.557000e+00  0.000000e+00
     vertex -9.920000e-01  5.843000e+00  0.000000e+00
   endloop
 endfacet
 facet normal  0.000000e+00 -1.000000e+00  0.000000e+00
   outer loop
     vertex -2.008000e+00  3.557000e+00  0.000000e+00
     vertex -9.920000e-01  3.557000e+00  0.000000e+00
     vertex -9.920000e-01  3.557000e+00  1.000000e-01
   endloop
 endfacet
 facet normal  0.000000e+00 -1.000000e+00  0.000000e+00
   outer loop
     vertex -2.008000e+00  3.557000e+00  1.000000e-01
     vertex -2.008000e+00  3.557000e+00  0.000000e+00
     vertex -9.920000e-01  3.557000e+00  1.000000e-01
   endloop
 endfacet
 facet normal  0.000000e+00  1.000000e+00  0.000000e+00
   outer loop
     vertex -9.920000e-01  5.843000e+00  1.000000e-01
     vertex -9.920000e-01  5.843000e+00  0.000000e+00
     vertex -2.008000e+00  5.843000e+00  0.000000e+00
   endloop
 endfacet
 facet normal  0.000000e+00  1.000000e+00 -0.000000e+00
   outer loop
     vertex -9.920000e-01  5.843000e+00  1.000000e-01
     vertex -2.008000e+00  5.843000e+00  0.000000e+00
     vertex -2.008000e+00  5.843000e+00  1.000000e-01
   endloop
 endfacet
 facet normal  0.000000e+00  0.000000e+00 -1.000000e+00
   outer loop
     vertex -9.920000e-01  3.557000e+00  0.000000e+00
     vertex -2.008000e+00  3.557000e+00  0.000000e+00
     vertex -2.008000e+00  5.843000e+00  0.000000e+00
   endloop
 endfacet
 facet normal  0.000000e+00  0.000000e+00 -1.000000e+00
   outer loop
     vertex -9.920000e-01  3.557000e+00  0.000000e+00
     vertex -2.008000e+00  5.843000e+00  0.000000e+00
     vertex -9.920000e-01  5.843000e+00  0.000000e+00
   endloop
 endfacet
 facet normal -0.000000e+00  0.000000e+00  1.000000e+00
   outer loop
     vertex -2.008000e+00  5.843000e+00  1.000000e-01
     vertex -2.008000e+00  3.557000e+00  1.000000e-01
     vertex -9.920000e-01  3.557000e+00  1.000000e-01
   endloop
 endfacet
 facet normal  0.000000e+00  0.000000e+00  1.000000e+00
   outer loop
     vertex -9.920000e-01  5.843000e+00  1.000000e-01
     vertex -2.008000e+00  5.843000e+00  1.000000e-01
     vertex -9.920000e-01  3.557000e+00  1.000000e-01
   endloop
 endfacet
 facet normal -1.000000e+00 -0.000000e+00 -0.000000e+00
   outer loop
     vertex  3.585000e+00  6.600000e-01  1.000000e-01
     vertex  3.585000e+00  6.600000e-01  0.000000e+00
     vertex  3.585000e+00 -6.600000e-01  1.000000e-01
   endloop
 endfacet
 facet normal -1.000000e+00  0.000000e+00  0.000000e+00
   outer loop
     vertex  3.585000e+00  6.600000e-01  0.000000e+00
     vertex  3.585000e+00 -6.600000e-01  0.000000e+00
     vertex  3.585000e+00 -6.600000e-01  1.000000e-01
   endloop
 endfacet
 facet normal  1.000000e+00 -0.000000e+00  0.000000e+00
   outer loop
     vertex  6.685000e+00 -6.600000e-01  1.000000e-01
     vertex  6.685000e+00  6.600000e-01  0.000000e+00
     vertex  6.685000e+00  6.600000e-01  1.000000e-01
   endloop
 endfacet
 facet normal  1.000000e+00 -0.000000e+00  0.000000e+00
   outer loop
     vertex  6.685000e+00 -6.600000e-01  1.000000e-01
     vertex  6.685000e+00 -6.600000e-01  0.000000e+00
     vertex  6.685000e+00  6.600000e-01  0.000000e+00
   endloop
 endfacet
 facet normal  0.000000e+00 -1.000000e+00  0.000000e+00
   outer loop
     vertex  3.585000e+00 -6.600000e-01  0.000000e+00
     vertex  6.685000e+00 -6.600000e-01  0.000000e+00
     vertex  6.685000e+00 -6.600000e-01  1.000000e-01
   endloop
 endfacet
 facet normal  0.000000e+00 -1.000000e+00  0.000000e+00
   outer loop
     vertex  3.585000e+00 -6.600000e-01  1.000000e-01
     vertex  3.585000e+00 -6.600000e-01  0.000000e+00
     vertex  6.685000e+00 -6.600000e-01  1.000000e-01
   endloop
 endfacet
 facet normal  0.000000e+00  1.000000e+00  0.000000e+00
   outer loop
     vertex  6.685000e+00  6.600000e-01  1.000000e-01
     vertex  6.685000e+00  6.600000e-01  0.000000e+00
     vertex  3.585000e+00  6.600000e-01  0.000000e+00
   endloop
 endfacet
 facet normal  0.000000e+00  1.000000e+00 -0.000000e+00
   outer loop
     vertex  6.685000e+00  6.600000e-01  1.000000e-01
     vertex  3.585000e+00  6.600000e-01  0.000000e+00
     vertex  3.585000e+00  6.600000e-01  1.000000e-01
   endloop
 endfacet
 facet normal  0.000000e+00  0.000000e+00 -1.000000e+00
   outer loop
     vertex  3.585000e+00 -6.600000e-01  0.000000e+00
     vertex  3.585000e+00  6.600000e-01  0.000000e+00
     vertex  6.685000e+00  6.600000e-01  0.000000e+00
   endloop
 endfacet
 facet normal  0.000000e+00  0.000000e+00 -1.000000e+00
   outer loop
     vertex  6.685000e+00 -6.600000e-01  0.000000e+00
     vertex  3.585000e+00 -6.600000e-01  0.000000e+00
     vertex  6.685000e+00  6.600000e-01  0.000000e+00
   endloop
 endfacet
 facet normal  0.000000e+00  0.000000e+00  1.000000e+00
   outer loop
     vertex  6.685000e+00  6.600000e-01  1.000000e-01
     vertex  3.585000e+00  6.600000e-01  1.000000e-01
     vertex  3.585000e+00 -6.600000e-01  1.000000e-01
   endloop
 endfacet
 facet normal -0.000000e+00  0.000000e+00  1.000000e+00
   outer loop
     vertex  6.685000e+00  6.600000e-01  1.000000e-01
     vertex  3.585000e+00 -6.600000e-01  1.000000e-01
     vertex  6.685000e+00 -6.600000e-01  1.000000e-01
   endloop
 endfacet
 facet normal -1.000000e+00 -0.000000e+00 -0.000000e+00
   outer loop
     vertex -6.685000e+00  6.600000e-01  1.000000e-01
     vertex -6.685000e+00  6.600000e-01  0.000000e+00
     vertex -6.685000e+00 -6.600000e-01  1.000000e-01
   endloop
 endfacet
 facet normal -1.000000e+00  0.000000e+00  0.000000e+00
   outer loop
     vertex -6.685000e+00  6.600000e-01  0.000000e+00
     vertex -6.685000e+00 -6.600000e-01  0.000000e+00
     vertex -6.685000e+00 -6.600000e-01  1.000000e-01
   endloop
 endfacet
 facet normal  1.000000e+00 -0.000000e+00  0.000000e+00
   outer loop
     vertex -3.585000e+00 -6.600000e-01  1.000000e-01
     vertex -3.585000e+00  6.600000e-01  0.000000e+00
     vertex -3.585000e+00  6.600000e-01  1.000000e-01
   endloop
 endfacet
 facet normal  1.000000e+00 -0.000000e+00  0.000000e+00
   outer loop
     vertex -3.585000e+00 -6.600000e-01  1.000000e-01
     vertex -3.585000e+00 -6.600000e-01  0.000000e+00
     vertex -3.585000e+00  6.600000e-01  0.000000e+00
   endloop
 endfacet
 facet normal  0.000000e+00 -1.000000e+00  0.000000e+00
   outer loop
     vertex -6.685000e+00 -6.600000e-01  0.000000e+00
     vertex -3.585000e+00 -6.600000e-01  0.000000e+00
     vertex -3.585000e+00 -6.600000e-01  1.000000e-01
   endloop
 endfacet
 facet normal  0.000000e+00 -1.000000e+00  0.000000e+00
   outer loop
     vertex -6.685000e+00 -6.600000e-01  1.000000e-01
     vertex -6.685000e+00 -6.600000e-01  0.000000e+00
     vertex -3.585000e+00 -6.600000e-01  1.000000e-01
   endloop
 endfacet
 facet normal  0.000000e+00  1.000000e+00  0.000000e+00
   outer loop
     vertex -3.585000e+00  6.600000e-01  1.000000e-01
     vertex -3.585000e+00  6.600000e-01  0.000000e+00
     vertex -6.685000e+00  6.600000e-01  0.000000e+00
   endloop
 endfacet
 facet normal  0.000000e+00  1.000000e+00 -0.000000e+00
   outer loop
     vertex -3.585000e+00  6.600000e-01  1.000000e-01
     vertex -6.685000e+00  6.600000e-01  0.000000e+00
     vertex -6.685000e+00  6.600000e-01  1.000000e-01
   endloop
 endfacet
 facet normal  0.000000e+00  0.000000e+00 -1.000000e+00
   outer loop
     vertex -6.685000e+00 -6.600000e-01  0.000000e+00
     vertex -6.685000e+00  6.600000e-01  0.000000e+00
     vertex -3.585000e+00  6.600000e-01  0.000000e+00
   endloop
 endfacet
 facet normal  0.000000e+00  0.000000e+00 -1.000000e+00
   outer loop
     vertex -3.585000e+00 -6.600000e-01  0.000000e+00
     vertex -6.685000e+00 -6.600000e-01  0.000000e+00
     vertex -3.585000e+00  6.600000e-01  0.000000e+00
   endloop
 endfacet
 facet normal  0.000000e+00  0.000000e+00  1.000000e+00
   outer loop
     vertex -3.585000e+00  6.600000e-01  1.000000e-01
     vertex -6.685000e+00  6.600000e-01  1.000000e-01
     vertex -6.685000e+00 -6.600000e-01  1.000000e-01
   endloop
 endfacet
 facet normal -0.000000e+00  0.000000e+00  1.000000e+00
   outer loop
     vertex -3.585000e+00  6.600000e-01  1.000000e-01
     vertex -6.685000e+00 -6.600000e-01  1.000000e-01
     vertex -3.585000e+00 -6.600000e-01  1.000000e-01
   endloop
 endfacet
endsolid
